<svg xmlns="http://www.w3.org/2000/svg" width="128" height="128"><path fill="none" d="M0 0h128v128H0z" style="fill:#fff;fill-opacity:0;stroke:none"/><path d="M94.113 94c0 16.633-13.48 30.113-30.113 30.113S33.887 110.633 33.887 94 47.367 63.887 64 63.887 94.113 77.367 94.113 94zm0 0" style="fill:none;stroke:#000;stroke-width:7.77056;stroke-linecap:round;stroke-linejoin:round;stroke-miterlimit:4;stroke-opacity:1"/><path d="M94.063 94c0 16.602-13.461 30.062-30.063 30.062-16.602 0-30.063-13.46-30.063-30.062S47.398 63.937 64 63.937c16.602 0 30.062 13.461 30.062 30.063zm0 0" style="fill:#000;fill-opacity:1;fill-rule:nonzero;stroke:#fff;stroke-width:3.87772;stroke-linecap:round;stroke-linejoin:round;stroke-miterlimit:4;stroke-opacity:1"/><path d="M64 97.992A4.995 4.995 0 1 1 63.999 88 4.995 4.995 0 0 1 64 97.992zm0 0" style="fill:#333;fill-opacity:1;fill-rule:nonzero;stroke:none"/><path d="M64 117.992a4.995 4.995 0 1 1-.001-9.993 4.995 4.995 0 0 1 .001 9.993zm0 0" style="fill:#ff0;fill-opacity:1;fill-rule:nonzero;stroke:none"/></svg>