<svg xmlns="http://www.w3.org/2000/svg" width="64" height="64"><path d="M0 0h64v64H0z" style="fill:#000;fill-opacity:1;fill-rule:nonzero;stroke:none;stroke-width:.636824"/><path d="M1.525 1.525h60.95v60.95H1.525z" style="fill:none;stroke:#fff;stroke-width:1.04969;stroke-miterlimit:4;stroke-dasharray:none;stroke-opacity:1"/><g aria-label="ARRET DES MANOEUVRES" style="font-style:normal;font-variant:normal;font-weight:400;font-stretch:normal;font-size:9.11409px;line-height:1.55;font-family:Roboto;font-variant-ligatures:normal;font-variant-caps:normal;font-variant-numeric:normal;font-feature-settings:normal;text-align:start;letter-spacing:0;word-spacing:0;writing-mode:lr-tb;text-anchor:start;fill:#fff;fill-opacity:1;stroke:none;stroke-width:1.13926"><path d="m9.49 15.886.652 2.64H8.896Zm1.305 5.385.682 2.73h2.581l-3.19-15.19H8.126L4.935 24H7.68l.593-2.73zm14.641-7.921q0-.831-.386-1.647-.385-.801-1.023-1.484-.668-.652-1.499-1.023-.815-.386-1.646-.386h-4.569V24h2.744v-6.082h1.825q.341 0 .667.163.327.149.594.4.252.268.4.594.149.341.149.668V24h2.744v-4.257q0-.786-.178-1.38-.193-.593-.46-.964-.267-.386-.49-.564l-.385-.282.03-.03q.178-.177.4-.415.208-.237.475-.667.237-.415.43-.95.178-.533.178-1.142zm-4.554 1.839h-1.825v-3.65h1.825q.341 0 .667.164.327.148.594.4.252.267.4.594.149.34.149.667 0 .341-.149.653-.148.341-.4.593-.267.267-.594.43-.326.149-.667.149m16.169-1.839q0-.831-.386-1.647-.385-.801-1.023-1.484-.668-.652-1.498-1.023-.816-.386-1.647-.386h-4.569V24h2.744v-6.082h1.825q.341 0 .667.163.327.149.594.4.252.268.4.594.149.341.149.668V24h2.744v-4.257q0-.786-.178-1.38-.193-.593-.46-.964-.267-.386-.49-.564l-.385-.282.03-.03q.178-.177.4-.415.208-.237.475-.667.237-.415.43-.95.178-.533.178-1.142zm-4.554 1.839h-1.825v-3.65h1.825q.341 0 .667.164.327.148.594.4.252.267.4.594.149.34.149.667 0 .341-.149.653-.148.341-.4.593-.267.267-.594.43-.326.149-.667.149m9.79-.193V11.54h6.38V8.81h-9.124V24h9.123v-2.73h-6.379v-3.545h2.73v-2.73zm13.588-3.456h3.19V8.81h-9.108v2.73h3.189V24h2.73z" style="font-style:normal;font-variant:normal;font-weight:400;font-stretch:normal;font-size:15.1901px;font-family:PoliceSNCF;text-align:center;text-anchor:middle;fill:#fff;stroke-width:1.13926"/><path d="M27.078 35.494q.15 0 .293.072.143.065.26.176.11.117.176.26.065.15.065.293v2.67q0 .15-.065.286-.065.15-.176.26-.117.118-.26.183-.15.065-.293.071h-.801v-4.27zm0-1.197h-2.006v6.666h2.006q.364 0 .722-.17.358-.168.658-.455.286-.286.449-.65.17-.359.17-.724v-2.669q0-.364-.17-.722-.17-.359-.45-.658-.292-.286-.657-.45-.358-.168-.722-.168m4.296 2.714v-1.517h2.8v-1.197H30.17v6.666h4.004v-1.198h-2.8V38.21h1.198v-1.198zm7.5-.781q0-.364-.156-.723-.163-.345-.43-.625-.28-.273-.631-.43-.352-.155-.716-.155-.365 0-.716.156-.352.163-.625.43-.274.28-.437.624-.162.352-.156.723 0 .365.156.716.163.352.437.625.273.274.625.43.345.163.716.163.15 0 .293.065t.26.182q.11.117.176.26.065.15.072.293 0 .15-.072.287-.065.15-.176.26-.117.118-.26.183-.15.065-.293.071-.15 0-.287-.071-.15-.065-.26-.183-.117-.11-.189-.26-.065-.143-.065-.287h-1.198q0 .365.163.723.17.358.462.651.287.293.645.456.358.17.729.17.364 0 .722-.17.359-.17.658-.456.286-.286.45-.65.169-.359.169-.724 0-.364-.17-.729-.169-.358-.449-.65-.293-.287-.658-.456-.358-.17-.722-.163-.3 0-.514-.222-.222-.214-.222-.514t.222-.52q.214-.216.514-.216t.52.215q.216.222.209.521zM9.815 55.09l1.126-2.865.007 2.865h1.204v-6.667h-1.204L9.483 52.89l-1.465-4.467H6.814v6.667h1.204v-2.865l1.133 2.865zm5.332-3.561.287 1.159h-.547zm.573 2.363.3 1.198h1.132l-1.4-6.667h-1.204l-1.4 6.667h1.205l.26-1.198zm3.626-2.617 1.595 3.815h1.205v-6.667H20.94v3.815l-1.595-3.815h-1.204v6.667h1.204zm7.898 1.816v-2.669q0-.365-.17-.723-.169-.358-.449-.657-.293-.287-.657-.45-.359-.169-.723-.169-.365 0-.73.17-.357.169-.644.449-.293.293-.462.657-.17.358-.163.723v2.67q0 .364.163.722.17.358.462.651.287.293.645.456.358.169.729.169.364 0 .723-.17.358-.169.657-.455.287-.286.45-.651.169-.358.169-.723m-1.198 0q0 .15-.072.287-.065.15-.176.26-.117.117-.26.182-.15.066-.293.072-.15 0-.287-.072-.15-.065-.26-.182-.117-.11-.189-.26-.065-.143-.065-.287v-2.669q0-.15.065-.293t.189-.26q.11-.111.26-.176.144-.065.287-.072.15 0 .293.072.143.065.26.176.11.117.176.26.065.15.072.293zm3.496-1.953v-1.517h2.8v-1.198h-4.005v6.667h4.004v-1.198h-2.8v-1.556h1.199v-1.198zm7.799-2.715h-1.204v4.668q0 .15-.065.287-.065.15-.176.26-.117.117-.26.182-.15.066-.293.072-.15 0-.287-.072-.15-.065-.26-.182-.118-.11-.19-.26-.064-.143-.064-.287v-4.668h-1.205v4.668q0 .365.17.723.169.358.462.651.286.293.644.456.358.169.73.169.364 0 .722-.17.358-.169.658-.455.286-.286.449-.651.17-.358.17-.723zm2.995 3.562-.794-3.562h-1.205l1.4 6.667h1.204l1.4-6.667h-1.133Zm6.999-1.569q0-.365-.17-.723-.169-.352-.449-.651-.293-.287-.657-.45-.358-.169-.723-.169h-2.005v6.667h1.204v-2.67h.801q.15 0 .293.072.143.065.26.176.111.117.176.26.065.15.065.294v1.868h1.205v-1.868q0-.346-.078-.606-.085-.26-.202-.423-.117-.17-.215-.247l-.17-.124.014-.013q.078-.078.175-.183.092-.104.209-.292.104-.183.189-.417.078-.235.078-.501m-1.999.807h-.8V49.62h.8q.15 0 .293.072.143.065.26.176.111.117.176.26.065.15.065.293 0 .15-.065.287-.065.15-.176.26-.117.117-.26.189-.143.065-.293.065zm4.297-.085v-1.517h2.8v-1.198h-4.005v6.667h4.004v-1.198h-2.8v-1.556h1.199v-1.198zm7.5-.781q0-.365-.156-.723-.163-.345-.43-.625-.28-.273-.632-.43-.351-.156-.716-.156-.364 0-.716.157-.351.162-.625.43-.273.28-.436.624-.163.352-.156.723 0 .365.156.716.163.352.436.625.274.274.625.43.345.163.716.163.15 0 .293.065t.26.182q.111.117.176.26.066.15.072.293 0 .15-.072.287-.065.15-.175.26-.118.117-.26.182-.15.066-.294.072-.15 0-.286-.072-.15-.065-.26-.182-.118-.11-.19-.26-.064-.143-.064-.287H53.2q0 .365.162.723.17.358.463.651.286.293.644.456.358.169.73.169.364 0 .722-.17.358-.169.658-.455.286-.286.449-.651.169-.358.169-.723 0-.364-.17-.729-.169-.358-.448-.65-.293-.287-.658-.457-.358-.169-.723-.162-.3 0-.514-.222-.221-.215-.221-.514t.221-.52q.215-.216.514-.216t.521.215q.215.221.208.521z" style="font-style:normal;font-variant:normal;font-weight:400;font-stretch:normal;font-size:6.66667px;font-family:PoliceSNCF;text-align:center;text-anchor:middle;fill:#fff;stroke-width:1.13926"/></g></svg>