<svg xmlns="http://www.w3.org/2000/svg" width="64" height="64"><path d="M0 0h64v64H0z" style="fill:#000;fill-opacity:1;fill-rule:nonzero;stroke:none;stroke-width:.636824"/><path d="M1.525 1.525h60.95v60.95H1.525z" style="fill:none;stroke:#fff;stroke-width:1.04969;stroke-miterlimit:4;stroke-dasharray:none;stroke-opacity:1"/><g aria-label="ARRET DES TRAINS" style="font-style:normal;font-variant:normal;font-weight:400;font-stretch:normal;font-size:9.11409px;line-height:1.55;font-family:Roboto;font-variant-ligatures:normal;font-variant-caps:normal;font-variant-numeric:normal;font-feature-settings:normal;text-align:start;letter-spacing:0;word-spacing:0;writing-mode:lr-tb;text-anchor:start;fill:#fff;fill-opacity:1;stroke:none;stroke-width:1.13926"><path d="m9.49 15.886.652 2.64H8.896Zm1.305 5.385.682 2.73h2.581l-3.19-15.19H8.126L4.935 24H7.68l.593-2.73zm14.641-7.921q0-.831-.386-1.647-.385-.801-1.023-1.484-.668-.652-1.499-1.023-.815-.386-1.646-.386h-4.569V24h2.744v-6.082h1.825q.341 0 .667.163.327.149.594.4.252.268.4.594.149.341.149.668V24h2.744v-4.257q0-.786-.178-1.38-.193-.593-.46-.964-.267-.386-.49-.564l-.385-.282.03-.03q.178-.177.4-.415.208-.237.475-.667.237-.415.43-.95.178-.533.178-1.142zm-4.554 1.839h-1.825v-3.65h1.825q.341 0 .667.164.327.148.594.4.252.267.4.594.149.34.149.667 0 .341-.149.653-.148.341-.4.593-.267.267-.594.43-.326.149-.667.149m16.169-1.839q0-.831-.386-1.647-.385-.801-1.023-1.484-.668-.652-1.498-1.023-.816-.386-1.647-.386h-4.569V24h2.744v-6.082h1.825q.341 0 .667.163.327.149.594.4.252.268.4.594.149.341.149.668V24h2.744v-4.257q0-.786-.178-1.38-.193-.593-.46-.964-.267-.386-.49-.564l-.385-.282.03-.03q.178-.177.4-.415.208-.237.475-.667.237-.415.43-.95.178-.533.178-1.142zm-4.554 1.839h-1.825v-3.65h1.825q.341 0 .667.164.327.148.594.4.252.267.4.594.149.34.149.667 0 .341-.149.653-.148.341-.4.593-.267.267-.594.43-.326.149-.667.149m9.79-.193V11.54h6.38V8.81h-9.124V24h9.123v-2.73h-6.379v-3.545h2.73v-2.73zm13.588-3.456h3.19V8.81h-9.108v2.73h3.189V24h2.73z" style="font-style:normal;font-variant:normal;font-weight:400;font-stretch:normal;font-size:15.1901px;font-family:PoliceSNCF;text-align:center;text-anchor:middle;fill:#fff;stroke-width:1.13926"/><path d="M25.311 33.537q.205 0 .4.098.197.089.357.24.151.16.24.356.09.205.09.4v3.65q0 .204-.09.391-.089.205-.24.356-.16.16-.356.25-.205.089-.4.097h-1.095v-5.838Zm0-1.638H22.57v9.114h2.741q.499 0 .988-.231.49-.232.9-.623.39-.392.613-.89.232-.49.232-.988v-3.65q0-.498-.232-.987-.231-.49-.614-.9-.4-.391-.899-.614-.49-.231-.988-.231m5.875 3.711v-2.073h3.827v-1.638h-5.474v9.114h5.474v-1.638h-3.827v-2.127h1.637v-1.637zm10.253-1.068q0-.498-.214-.987-.222-.472-.587-.855-.383-.374-.863-.587-.481-.214-.98-.214-.498 0-.979.214-.48.222-.854.587-.374.383-.596.855-.223.48-.214.987 0 .499.214.98.222.48.596.854t.854.587q.472.223.98.223.204 0 .4.089t.356.25q.151.16.24.355.09.205.098.4 0 .205-.098.392-.089.205-.24.356-.16.16-.356.25-.205.089-.4.097-.205 0-.392-.097-.205-.09-.356-.25-.16-.151-.258-.356-.09-.196-.09-.391h-1.637q0 .498.223.988.231.49.632.89.391.4.88.623.49.231.998.231.498 0 .987-.231.49-.232.9-.623.391-.392.614-.89.231-.49.231-.988 0-.499-.231-.997-.232-.49-.615-.89-.4-.392-.899-.623-.49-.232-.987-.223-.41 0-.704-.302-.302-.294-.302-.704 0-.409.302-.712.294-.293.704-.293.409 0 .712.293.293.303.284.712zM17.336 47.714h1.914v-1.638h-5.465v1.638H15.7v7.476h1.637zm8.616 1.086q0-.5-.231-.989-.232-.48-.614-.89-.4-.391-.9-.614-.489-.231-.987-.231h-2.742v9.114h1.647v-3.65h1.095q.204 0 .4.099.196.089.356.24.152.16.24.356.09.205.09.4v2.555h1.646v-2.555q0-.471-.107-.827-.115-.356-.276-.579-.16-.231-.293-.338l-.232-.17.018-.017q.107-.107.24-.25.125-.142.285-.4.143-.249.258-.57.107-.32.107-.685zm-2.732 1.103h-1.095v-2.19h1.095q.204 0 .4.098.196.09.356.24.152.16.24.357.09.204.09.4 0 .205-.09.392-.088.205-.24.356-.16.16-.356.258-.196.089-.4.089m6.506.418.392 1.585h-.748zm.783 3.231.41 1.638h1.548l-1.913-9.114h-1.647l-1.914 9.114h1.647l.356-1.638zm3.311 1.638h1.647v-9.114H33.82zm5.109-5.216 2.18 5.216h1.647v-9.114H41.11v5.216l-2.181-5.216h-1.647v9.114h1.647zm10.707-1.254q0-.5-.213-.989-.223-.471-.588-.854-.382-.374-.863-.588-.48-.213-.98-.213-.498 0-.978.213-.48.223-.855.588-.373.383-.596.854-.222.48-.214.988 0 .499.214.98.223.48.596.854.374.374.855.587.472.223.979.223.205 0 .4.089t.356.249q.152.16.24.356.09.205.099.4 0 .205-.098.392-.09.205-.24.356-.16.16-.357.25-.204.088-.4.097-.205 0-.392-.098-.204-.089-.356-.249-.16-.151-.258-.356-.089-.196-.089-.392H44.26q0 .499.223.988.231.49.632.89.391.401.881.624.49.23.997.23.498 0 .988-.23.49-.232.899-.624.391-.391.614-.89.231-.49.231-.988t-.231-.996q-.232-.49-.614-.89-.4-.392-.9-.623-.489-.232-.987-.223-.41 0-.703-.303-.303-.293-.303-.703t.303-.712q.293-.293.703-.293t.712.293q.294.303.285.712z" style="font-style:normal;font-variant:normal;font-weight:400;font-stretch:normal;font-family:PoliceSNCF;text-align:center;text-anchor:middle;fill:#fff;stroke-width:1.13926"/></g></svg>