<svg xmlns="http://www.w3.org/2000/svg" width="64" height="64"><path d="M0 0h64v64H0z" style="fill:#000;fill-opacity:1;fill-rule:nonzero;stroke:none;stroke-width:.636824"/><path d="M1.525 1.525h60.95v60.95H1.525z" style="fill:none;stroke:#fff;stroke-width:1.04969;stroke-miterlimit:4;stroke-dasharray:none;stroke-opacity:1"/><g aria-label="ARRET POUR REFOULEMENT" style="font-style:normal;font-variant:normal;font-weight:400;font-stretch:normal;font-size:9.11409px;line-height:1.55;font-family:Roboto;font-variant-ligatures:normal;font-variant-caps:normal;font-variant-numeric:normal;font-feature-settings:normal;text-align:start;letter-spacing:0;word-spacing:0;writing-mode:lr-tb;text-anchor:start;fill:#fff;fill-opacity:1;stroke:none;stroke-width:1.13926"><path d="m9.49 15.886.652 2.64H8.896Zm1.305 5.385.682 2.73h2.581l-3.19-15.19H8.126L4.935 24H7.68l.593-2.73zM25.436 13.35q0-.831-.386-1.647-.385-.801-1.023-1.484-.668-.652-1.499-1.023-.815-.386-1.646-.386h-4.569V24h2.744v-6.082h1.825q.341 0 .667.163.327.149.594.4.252.268.4.594.149.341.149.668V24h2.744v-4.257q0-.786-.178-1.38-.193-.593-.46-.964-.267-.386-.49-.564l-.385-.282.03-.03q.178-.177.4-.415.208-.237.475-.667.237-.415.43-.95.178-.533.178-1.142zm-4.554 1.839h-1.825v-3.65h1.825q.341 0 .667.164.327.148.594.4.252.267.4.594.149.34.149.667 0 .341-.149.653-.148.341-.4.593-.267.267-.594.43-.326.149-.667.149zM37.051 13.35q0-.831-.386-1.647-.385-.801-1.023-1.484-.668-.652-1.498-1.023-.816-.386-1.647-.386h-4.569V24h2.744v-6.082h1.825q.341 0 .667.163.327.149.594.4.252.268.4.594.149.341.149.668V24h2.744v-4.257q0-.786-.178-1.38-.193-.593-.46-.964-.267-.386-.49-.564l-.385-.282.03-.03q.178-.177.4-.415.208-.237.475-.667.237-.415.43-.95.178-.533.178-1.142zm-4.554 1.839h-1.825v-3.65h1.825q.341 0 .667.164.327.148.594.4.252.267.4.594.149.34.149.667 0 .341-.149.653-.148.341-.4.593-.267.267-.594.43-.326.149-.667.149zM42.287 14.996V11.54h6.38V8.81h-9.124V24h9.123v-2.73h-6.379v-3.545h2.73v-2.73zM55.875 11.54h3.19V8.81h-9.108v2.73h3.189V24h2.73z" style="font-style:normal;font-variant:normal;font-weight:400;font-stretch:normal;font-size:15.1901px;font-family:PoliceSNCF;text-align:center;text-anchor:middle;fill:#fff;stroke-width:1.13926"/><path d="M23.61 37.096v-1.602h.802q.15 0 .292.072.144.065.26.176.112.117.177.26.065.15.065.293 0 .15-.065.287-.065.15-.176.26-.117.117-.26.189-.15.065-.293.065zm0 1.198h.802q.364 0 .722-.163.358-.17.658-.462.286-.287.449-.645.17-.358.17-.729 0-.364-.17-.722-.17-.359-.45-.658-.292-.286-.657-.45-.358-.168-.722-.168h-2.006v6.666h1.205zM31.176 38.964v-2.669q0-.364-.17-.722-.169-.359-.449-.658-.293-.286-.657-.45-.358-.168-.723-.168-.364 0-.729.169-.358.17-.645.449-.293.293-.462.658-.17.358-.163.722v2.67q0 .364.163.722.17.358.462.651.287.293.645.456.358.17.73.17.364 0 .722-.17t.657-.456q.287-.286.45-.65.169-.359.169-.724zm-1.198 0q0 .15-.072.287-.065.15-.175.26-.118.118-.26.183-.15.065-.294.071-.15 0-.286-.071-.15-.065-.26-.183-.118-.11-.19-.26-.065-.143-.065-.287v-2.669q0-.15.065-.293.066-.143.19-.26.11-.11.26-.176.143-.065.286-.072.15 0 .293.072.143.065.26.176.111.117.176.26.065.15.072.293zM36.274 34.297h-1.205v4.667q0 .15-.065.287-.065.15-.176.26-.117.118-.26.183-.15.065-.293.071-.15 0-.287-.071-.15-.065-.26-.183-.117-.11-.189-.26-.065-.143-.065-.287v-4.667H32.27v4.667q0 .365.169.723.17.358.462.651.287.293.645.456.358.17.729.17.364 0 .722-.17.359-.17.658-.456.286-.286.45-.65.169-.359.169-.724zM41.606 36.289q0-.365-.17-.723-.169-.352-.449-.651-.293-.286-.657-.45-.359-.168-.723-.168h-2.005v6.666h1.204v-2.67h.8q.15 0 .294.073.143.065.26.175.11.118.176.26.065.15.065.294v1.868h1.205v-1.868q0-.345-.079-.606-.084-.26-.201-.423-.118-.17-.215-.247l-.17-.124.014-.013q.078-.078.175-.182.091-.105.209-.293.104-.183.188-.417.079-.234.079-.501zm-2 .807h-.8v-1.602h.8q.15 0 .294.072.143.065.26.176.11.117.176.26.065.15.065.293 0 .15-.065.287-.065.15-.176.26-.117.117-.26.189-.143.065-.293.065zM8.23 50.416q0-.365-.17-.723-.169-.352-.449-.651-.293-.287-.657-.45-.358-.169-.723-.169H4.226v6.667H5.43v-2.67h.801q.15 0 .293.072.143.065.26.176.111.117.176.26.065.15.065.294v1.868H8.23v-1.868q0-.346-.078-.606-.085-.26-.202-.423-.117-.17-.215-.248l-.17-.123.014-.013q.078-.078.176-.183.09-.104.208-.292.104-.183.189-.417.078-.235.078-.501zm-1.999.807h-.8V49.62h.8q.15 0 .293.072.143.065.26.176.111.117.176.26.065.15.065.293 0 .15-.065.287-.065.15-.175.26-.118.117-.26.189-.144.065-.294.065zM10.528 51.138v-1.517h2.8v-1.198H9.324v6.667h4.004v-1.198h-2.8v-1.556h1.198v-1.198zM15.528 55.09v-2.754h1.198v-1.198h-1.198v-1.517h2.8v-1.198h-4.004v6.667zM23.093 53.091v-2.669q0-.365-.17-.723-.168-.358-.448-.657-.293-.287-.658-.45-.358-.169-.723-.169-.364 0-.729.17-.358.169-.644.449-.293.293-.462.657-.17.358-.163.723v2.67q0 .364.163.722.169.358.462.651.286.293.644.456.358.169.73.169.364 0 .722-.17.358-.169.658-.455.286-.286.449-.651.17-.358.17-.723zm-1.198 0q0 .15-.071.287-.065.15-.176.26-.117.117-.26.182-.15.066-.294.072-.15 0-.286-.072-.15-.065-.26-.182-.118-.11-.19-.26-.064-.143-.064-.287v-2.669q0-.15.065-.293t.189-.26q.11-.111.26-.176.143-.065.286-.072.15 0 .293.072.144.065.26.176.112.117.177.26.065.15.071.293zM28.19 48.423h-1.204v4.668q0 .15-.065.287-.065.15-.175.26-.118.117-.26.182-.15.066-.294.072-.15 0-.286-.072-.15-.065-.26-.182-.118-.11-.19-.26-.065-.143-.065-.287v-4.668h-1.204v4.668q0 .365.17.723.168.358.461.651.287.293.645.456.358.169.73.169.364 0 .722-.17.358-.169.657-.455.287-.286.45-.651.169-.358.169-.723zM33.523 53.892h-2.8v-5.469H29.52v6.667h4.004zM35.62 51.138v-1.517h2.799v-1.198h-4.004v6.667h4.004v-1.198h-2.8v-1.556h1.198v-1.198zM42.416 55.09l1.126-2.865.007 2.865h1.204v-6.667H43.55l-1.465 4.467-1.465-4.467h-1.204v6.667h1.204v-2.865l1.133 2.865zM47.286 51.138v-1.517h2.8v-1.198H46.08v6.667h4.004v-1.198h-2.8v-1.556h1.199v-1.198zM52.286 51.275l1.595 3.815h1.204v-6.667h-1.204v3.815l-1.595-3.815H51.08v6.667h1.205zM58.581 49.621h1.4v-1.198h-3.997v1.198h1.4v5.469h1.197z" style="font-style:normal;font-variant:normal;font-weight:400;font-stretch:normal;font-size:6.66667px;font-family:PoliceSNCF;text-align:center;text-anchor:middle;fill:#fff;stroke-width:1.13926"/></g></svg>