<svg xmlns="http://www.w3.org/2000/svg" width="64" height="64"><path d="M0 0h64v64H0z" style="fill:#000;fill-opacity:1;fill-rule:nonzero;stroke:none;stroke-width:.636824"/><path d="M1.525 1.525h60.95v60.95H1.525z" style="fill:none;stroke:#fff;stroke-width:1.04969;stroke-miterlimit:4;stroke-dasharray:none;stroke-opacity:1"/><path d="m9.49 15.886.652 2.64H8.896Zm1.305 5.385.682 2.73h2.581l-3.19-15.19H8.126L4.935 24H7.68l.593-2.73zm14.641-7.921q0-.831-.386-1.647-.385-.801-1.023-1.484-.668-.652-1.499-1.023-.815-.386-1.646-.386h-4.569V24h2.744v-6.082h1.825q.341 0 .667.163.327.149.594.4.252.268.4.594.149.341.149.668V24h2.744v-4.257q0-.786-.178-1.38-.193-.593-.46-.964-.267-.386-.49-.564l-.385-.282.03-.03q.178-.177.4-.415.208-.237.475-.667.237-.415.43-.95.178-.533.178-1.142zm-4.554 1.839h-1.825v-3.65h1.825q.341 0 .667.164.327.148.594.4.252.267.4.594.149.34.149.667 0 .341-.149.653-.148.341-.4.593-.267.267-.594.43-.326.149-.667.149m16.169-1.839q0-.831-.386-1.647-.385-.801-1.023-1.484-.668-.652-1.498-1.023-.816-.386-1.647-.386h-4.569V24h2.744v-6.082h1.825q.341 0 .667.163.327.149.594.4.252.268.4.594.149.341.149.668V24h2.744v-4.257q0-.786-.178-1.38-.193-.593-.46-.964-.267-.386-.49-.564l-.385-.282.03-.03q.178-.177.4-.415.208-.237.475-.667.237-.415.43-.95.178-.533.178-1.142zm-4.554 1.839h-1.825v-3.65h1.825q.341 0 .667.164.327.148.594.4.252.267.4.594.149.34.149.667 0 .341-.149.653-.148.341-.4.593-.267.267-.594.43-.326.149-.667.149m9.79-.193V11.54h6.38V8.81h-9.124V24h9.123v-2.73h-6.379v-3.545h2.73v-2.73zm13.588-3.456h3.19V8.81h-9.108v2.73h3.189V24h2.73z" style="font-style:normal;font-variant:normal;font-weight:400;font-stretch:normal;font-size:15.1901px;line-height:1.55;font-family:PoliceSNCF;font-variant-ligatures:normal;font-variant-caps:normal;font-variant-numeric:normal;font-feature-settings:normal;text-align:center;letter-spacing:0;word-spacing:0;writing-mode:lr-tb;text-anchor:middle;fill:#fff;fill-opacity:1;stroke:none;stroke-width:1.13926"/><g style="font-style:normal;font-variant:normal;font-weight:400;font-stretch:normal;font-size:7px;line-height:1.25;font-family:Roboto;font-variant-ligatures:normal;font-variant-caps:normal;font-variant-numeric:normal;font-feature-settings:normal;text-align:start;letter-spacing:0;word-spacing:0;writing-mode:lr-tb;text-anchor:start;fill:#fff;fill-opacity:1;stroke:none;stroke-width:.875"><path d="M11.338 30.504q.157 0 .308.075.15.069.273.185.116.123.185.273.068.157.068.308v2.803q0 .157-.068.3-.069.158-.185.274-.123.123-.273.191-.158.069-.308.075h-.84v-4.484zm0-1.258H9.232v7h2.106q.383 0 .759-.178.376-.177.69-.478.3-.3.472-.684.178-.376.178-.758v-2.803q0-.383-.178-.759t-.472-.69q-.307-.301-.69-.472-.376-.178-.76-.178zm4.512 2.851v-1.593h2.94v-1.258h-4.205v7h4.204v-1.258h-2.94v-1.633h1.258v-1.258zm7.875-.821q0-.382-.164-.758-.171-.363-.452-.657-.294-.287-.663-.45-.369-.165-.752-.165-.382 0-.752.164-.369.171-.656.451-.287.294-.458.657-.17.369-.164.758 0 .383.164.752.171.37.458.657t.656.45q.363.172.752.172.158 0 .308.068t.273.191q.117.124.185.274.068.157.075.308 0 .157-.075.3-.068.158-.185.274-.123.123-.273.191-.157.069-.308.075-.157 0-.3-.075-.158-.068-.274-.191-.123-.116-.198-.274-.068-.15-.068-.3h-1.258q0 .382.17.758.178.376.486.684.3.308.677.478.376.178.765.178.383 0 .76-.178.375-.177.69-.478.3-.3.471-.684.178-.376.178-.758 0-.383-.178-.766-.177-.376-.471-.684-.308-.3-.69-.478-.377-.178-.76-.171-.314 0-.54-.233-.232-.225-.232-.54 0-.314.232-.546.226-.226.54-.226t.547.226q.226.232.219.546zm6.167-.772h1.47v-1.258h-4.198v1.258h1.47v5.742h1.258zm6.617.834q0-.383-.178-.759-.178-.369-.472-.683-.307-.301-.69-.472-.376-.178-.759-.178h-2.105v7h1.264v-2.803h.841q.157 0 .308.076.15.068.273.184.116.123.185.274.068.157.068.307v1.962h1.265v-1.962q0-.362-.082-.635-.09-.274-.212-.445-.123-.178-.226-.26l-.178-.13.014-.013q.082-.082.185-.192.095-.109.218-.307.11-.192.199-.438.082-.246.082-.526m-2.099.848h-.84v-1.682h.84q.157 0 .308.075.15.069.273.185.116.123.185.273.068.157.068.308 0 .157-.068.3-.069.158-.185.274-.123.123-.273.198-.15.069-.308.069m4.997.321.301 1.217h-.574zm.602 2.481.314 1.258h1.19l-1.47-7h-1.265l-1.47 7h1.265l.274-1.258zm2.543 1.258h1.264v-7h-1.264zm3.924-4.006 1.674 4.006h1.265v-7H48.15v4.006l-1.674-4.006H45.21v7h1.265zm8.224-.964q0-.382-.165-.758-.17-.363-.451-.657-.294-.287-.663-.45-.37-.165-.752-.165-.383 0-.752.164-.37.171-.656.451-.287.294-.458.657-.171.369-.164.758 0 .383.164.752.17.37.458.657.287.287.656.45.362.172.752.172.157 0 .308.068.15.068.273.191.116.124.185.274.068.157.075.308 0 .157-.075.3-.069.158-.185.274-.123.123-.273.191-.158.069-.308.075-.157 0-.3-.075-.158-.068-.274-.191-.123-.116-.199-.274-.068-.15-.068-.3H50.57q0 .382.171.758.178.376.486.684.3.308.676.478.376.178.766.178.383 0 .759-.178.376-.177.69-.478.3-.3.472-.684.178-.376.178-.758 0-.383-.178-.766-.178-.376-.472-.684-.307-.3-.69-.478-.376-.178-.76-.171-.314 0-.54-.233-.232-.225-.232-.54 0-.314.233-.546.225-.226.54-.226.314 0 .547.226.225.232.219.546z" aria-label="DES TRAINS" style="font-style:normal;font-variant:normal;font-weight:400;font-stretch:normal;font-family:PoliceSNCF;fill:#fff;stroke-width:.875"/></g><g style="font-style:normal;font-variant:normal;font-weight:400;font-stretch:normal;font-size:7px;line-height:1.25;font-family:Roboto;font-variant-ligatures:normal;font-variant-caps:normal;font-variant-numeric:normal;font-feature-settings:normal;text-align:start;letter-spacing:0;word-spacing:0;writing-mode:lr-tb;text-anchor:start;fill:#fff;fill-opacity:1;stroke:none;stroke-width:.875"><path d="M29.327 41.146q.157 0 .308.076.15.068.273.184.116.123.185.274.068.157.068.307v2.803q0 .157-.068.3-.069.158-.185.274-.123.123-.273.192-.157.068-.308.075h-.84v-4.485zm0-1.257h-2.105v7h2.105q.383 0 .759-.178t.69-.479q.301-.3.472-.683.178-.376.178-.759v-2.803q0-.383-.178-.758-.178-.376-.472-.69-.307-.302-.69-.473-.376-.177-.759-.177m7.451 0h-1.264v4.901q0 .157-.069.3-.068.158-.184.274-.123.123-.274.192-.157.068-.307.075-.158 0-.301-.075-.157-.069-.274-.192-.123-.116-.198-.273-.068-.15-.068-.301v-4.901h-1.265v4.901q0 .383.178.759t.485.683q.301.308.677.479.376.178.766.178.383 0 .758-.178.376-.178.69-.479.302-.3.473-.683.177-.376.177-.759z" aria-label="DU" style="font-style:normal;font-variant:normal;font-weight:400;font-stretch:normal;font-family:PoliceSNCF;fill:#fff;stroke-width:.875"/></g><g style="font-style:normal;font-variant:normal;font-weight:400;font-stretch:normal;font-size:7px;line-height:1.25;font-family:Roboto;font-variant-ligatures:normal;font-variant-caps:normal;font-variant-numeric:normal;font-feature-settings:normal;text-align:start;letter-spacing:0;word-spacing:0;writing-mode:lr-tb;text-anchor:start;fill:#fff;fill-opacity:1;stroke:none;stroke-width:.875"><path d="M17.077 55.057H15.82q0 .157-.075.3-.068.158-.184.274-.123.123-.274.191-.157.069-.307.076-.158 0-.301-.076-.157-.068-.274-.191-.123-.116-.198-.274-.068-.15-.068-.3v-2.803q0-.157.068-.308.069-.15.198-.273.117-.116.274-.185.15-.068.3-.075.158 0 .308.075.15.069.274.185.116.123.184.273.069.158.075.308h1.258q0-.383-.177-.759-.178-.376-.472-.69-.308-.301-.69-.472-.377-.178-.76-.178-.382 0-.765.178-.376.178-.677.472-.307.307-.485.69-.178.376-.171.759v2.803q0 .383.17.758.179.376.486.684.301.308.677.479.376.177.766.177.382 0 .758-.177.376-.178.69-.479.302-.3.473-.684.177-.375.177-.758zm5.353-4.902h-1.265v2.85H19.49v-2.85h-1.264v7h1.264v-2.891h1.675v2.891h1.265zm3.144 3.261.301 1.217h-.574zm.602 2.482.314 1.257h1.19l-1.47-7h-1.265l-1.47 7h1.265l.274-1.257zm3.808-2.748 1.674 4.005h1.265v-7h-1.265v4.006l-1.674-4.006h-1.265v7h1.265zm6.61-1.737h1.47v-1.258h-4.198v1.258h1.47v5.742h1.258zm2.413 5.742h1.265v-7h-1.265zm3.923-4.149v-1.593h2.94v-1.258h-4.204v7h4.204v-1.257h-2.94v-1.634h1.259v-1.258zm8.19-.759q0-.383-.177-.759-.178-.369-.472-.683-.308-.301-.69-.472-.377-.178-.76-.178h-2.105v7h1.265v-2.802h.84q.158 0 .308.075.15.068.274.184.116.123.184.274.069.157.069.307v1.962h1.264v-1.962q0-.362-.082-.635-.089-.274-.212-.445-.123-.177-.225-.26l-.178-.13.014-.013q.082-.082.184-.191.096-.11.219-.308.11-.191.198-.437.082-.247.082-.527m-2.098.848h-.841v-1.682h.84q.158 0 .308.075.15.069.274.185.116.123.184.273.069.158.069.308 0 .157-.069.3-.068.158-.184.274-.123.123-.274.198-.15.069-.307.069" aria-label="CHANTIER" style="font-style:normal;font-variant:normal;font-weight:400;font-stretch:normal;font-family:PoliceSNCF;fill:#fff;stroke-width:.875"/></g></svg>