<?xml version="1.0" encoding="UTF-8" standalone="no"?>
<svg
   width="128px"
   height="128px"
   viewBox="0 0 128 128"
   version="1.1"
   id="svg18"
   sodipodi:docname="CARRE VL.svg"
   inkscape:version="1.2 (dc2aedaf03, 2022-05-15)"
   xmlns:inkscape="http://www.inkscape.org/namespaces/inkscape"
   xmlns:sodipodi="http://sodipodi.sourceforge.net/DTD/sodipodi-0.dtd"
   xmlns="http://www.w3.org/2000/svg"
   xmlns:svg="http://www.w3.org/2000/svg">
  <defs
     id="defs22" />
  <sodipodi:namedview
     id="namedview20"
     pagecolor="#ffffff"
     bordercolor="#666666"
     borderopacity="1.0"
     inkscape:showpageshadow="2"
     inkscape:pageopacity="0.0"
     inkscape:pagecheckerboard="0"
     inkscape:deskcolor="#d1d1d1"
     showgrid="false"
     inkscape:zoom="8.0234375"
     inkscape:cx="63.937683"
     inkscape:cy="63.937683"
     inkscape:window-width="3440"
     inkscape:window-height="1380"
     inkscape:window-x="0"
     inkscape:window-y="32"
     inkscape:window-maximized="1"
     inkscape:current-layer="svg18" />
  <rect
     y="0"
     x="0"
     height="128"
     width="128"
     id="rect842"
     style="fill:#ffffff;fill-opacity:0;stroke:none" />
  <path
     style="fill:none;stroke:#000000;stroke-width:7.99722;stroke-linecap:round;stroke-linejoin:round;stroke-miterlimit:4;stroke-opacity:1"
     d="m 76.999966,46.999995 v 64.007815 c 0,7.17578 -5.81643,12.99219 -12.992162,12.99219 h -0.01512 C 56.81688,124 51.000525,118.18359 51.000525,111.00781 V 46.999995 c 0,-7.175777 5.816355,-12.992184 12.992162,-12.992184 h 0.01512 c 7.175732,0 12.992162,5.816407 12.992162,12.992184 z m 0,0"
     id="path3" />
  <path
     style="fill:#000000;fill-opacity:1;fill-rule:nonzero;stroke:#ffffff;stroke-width:3.99861;stroke-linecap:round;stroke-linejoin:round;stroke-miterlimit:4;stroke-opacity:1"
     d="M 76.999966,46.718747 V 111.28906 C 76.999966,118.30859 71.308558,124 64.288992,124 h -0.578249 c -7.019491,0 -12.710898,-5.69141 -12.710898,-12.71094 V 46.718747 c 0,-7.019529 5.691407,-12.710936 12.710898,-12.710936 h 0.578249 c 7.019566,0 12.710974,5.691407 12.710974,12.710936 z m 0,0"
     id="path5" />
  <path
     style="fill:#333333;fill-opacity:1;fill-rule:nonzero;stroke:none"
     d="m 64.007812,52.003906 c -2.761718,0 -4.996093,-2.238281 -4.996093,-4.996094 0,-2.761718 2.234375,-4.996093 4.996093,-4.996093 2.757813,0 4.996094,2.234375 4.996094,4.996093 0,2.757813 -2.238281,4.996094 -4.996094,4.996094 z m 0,0"
     id="path7" />
  <path
     style="fill:#333333;fill-opacity:1;fill-rule:nonzero;stroke:none"
     d="m 64.007812,68.003906 c -2.761718,0 -4.996093,-2.234375 -4.996093,-4.996094 0,-2.757812 2.234375,-4.996093 4.996093,-4.996093 2.757813,0 4.996094,2.238281 4.996094,4.996093 0,2.761719 -2.238281,4.996094 -4.996094,4.996094 z m 0,0"
     id="path9" />
  <path
     style="fill:#00ff00;fill-opacity:1;fill-rule:nonzero;stroke:none"
     d="m 64.007812,84.007812 c -2.761718,0 -4.996093,-2.238281 -4.996093,-4.996093 0,-2.761719 2.234375,-4.996094 4.996093,-4.996094 2.757813,0 4.996094,2.234375 4.996094,4.996094 0,2.757812 -2.238281,4.996093 -4.996094,4.996093 z m 0,0"
     id="path11" />
  <path
     style="fill:#333333;fill-opacity:1;fill-rule:nonzero;stroke:none"
     d="m 64.007812,100.00391 c -2.761718,0 -4.996093,-2.238285 -4.996093,-5.000004 0,-2.757812 2.234375,-4.996094 4.996093,-4.996094 2.757813,0 4.996094,2.238282 4.996094,4.996094 0,2.761719 -2.238281,5.000004 -4.996094,5.000004 z m 0,0"
     id="path13" />
  <path
     style="fill:#333333;fill-opacity:1;fill-rule:nonzero;stroke:none"
     d="m 64.007812,116.00391 c -2.761718,0 -4.996093,-2.23828 -4.996093,-4.9961 0,-2.75781 2.234375,-4.99609 4.996093,-4.99609 2.757813,0 4.996094,2.23828 4.996094,4.99609 0,2.75782 -2.238281,4.9961 -4.996094,4.9961 z m 0,0"
     id="path15" />
</svg>
