<svg xmlns="http://www.w3.org/2000/svg" width="128" height="128"><path fill="none" d="M0 0h128v128H0z" style="fill:#fff;fill-opacity:0;stroke:none"/><path d="M132.496 114.905a3.984 3.984 0 1 1-7.967 0 3.984 3.984 0 0 1 7.967 0m0 0" style="fill:none;stroke-width:1.028;stroke-linecap:round;stroke-linejoin:round;stroke:#000;stroke-opacity:1;stroke-miterlimit:4" transform="translate(-907.411 -774.557)scale(7.55891)"/><path d="M132.49 114.905a3.977 3.977 0 1 1-7.956 0 3.977 3.977 0 0 1 7.955 0Zm0 0" style="fill-rule:nonzero;fill:#000;fill-opacity:1;stroke-width:.513;stroke-linecap:round;stroke-linejoin:round;stroke:#fff;stroke-opacity:1;stroke-miterlimit:4" transform="translate(-907.411 -774.557)scale(7.55891)"/><path d="M80.004 89.992a4.996 4.996 0 1 1 0-9.992 4.995 4.995 0 1 1 0 9.992m0 0" style="stroke:none;fill-rule:nonzero;fill:#333;fill-opacity:1"/><path d="M80.004 105.996a4.996 4.996 0 1 1 0-9.992 4.995 4.995 0 1 1 0 9.992m0 0" style="stroke:none;fill-rule:nonzero;fill:red;fill-opacity:1"/><path d="M64 97.992A4.995 4.995 0 1 1 63.999 88 4.995 4.995 0 0 1 64 97.992m0 20a4.995 4.995 0 1 1-.001-9.993 4.995 4.995 0 0 1 .001 9.993m-16.004-28a4.995 4.995 0 1 1 0-9.992 4.996 4.996 0 1 1 0 9.992m0 0" style="stroke:none;fill-rule:nonzero;fill:#333;fill-opacity:1"/><path d="M47.996 105.996a4.995 4.995 0 1 1 0-9.992 4.996 4.996 0 1 1 0 9.992m0 0" style="stroke:none;fill-rule:nonzero;fill:#ff0;fill-opacity:1"/></svg>