<svg xmlns="http://www.w3.org/2000/svg" width="64" height="64"><path d="M107.732 4.842h64v64h-64z" style="fill:#000;fill-opacity:1;fill-rule:nonzero;stroke:none;stroke-width:.636824" transform="translate(-107.732 -4.842)"/><path d="M110.699 7.809h58.065v58.065h-58.065z" style="fill:none;stroke:#fff;stroke-width:3.93508;stroke-miterlimit:4;stroke-dasharray:none;stroke-opacity:1" transform="translate(-107.732 -4.842)"/><g style="font-style:normal;font-weight:400;font-size:40px;line-height:125%;font-family:Sans;text-align:center;letter-spacing:0;word-spacing:0;text-anchor:middle;fill:#fff;fill-opacity:1;stroke:none"><path d="M133.728 26.71h21.133c4.765 0 8.398.364 10.898 1.093 3.36.99 6.237 2.747 8.633 5.273 2.396 2.526 4.219 5.619 5.469 9.278 1.25 3.658 1.875 8.17 1.875 13.535 0 4.713-.586 8.776-1.758 12.187-1.432 4.167-3.477 7.54-6.133 10.117-2.005 1.954-4.713 3.477-8.125 4.57-2.552.808-5.963 1.212-10.234 1.212h-21.758Zm11.563 9.687v37.93h8.632c3.23 0 5.56-.183 6.993-.548 1.874-.468 3.43-1.263 4.667-2.382 1.237-1.12 2.247-2.963 3.028-5.528.781-2.565 1.172-6.06 1.172-10.488 0-4.427-.391-7.826-1.172-10.195-.781-2.37-1.875-4.22-3.281-5.547-1.407-1.328-3.19-2.227-5.352-2.696-1.615-.364-4.779-.546-9.492-.546z" style="font-weight:700;font-size:80px;-inkscape-font-specification:&quot;Sans Bold&quot;;fill:#fff" transform="matrix(.56439 0 0 .5588 -57.022 1.075)"/></g></svg>