<svg xmlns="http://www.w3.org/2000/svg" width="128" height="128"><path fill="none" d="M0 0h128v128H0z" style="fill:#fff;fill-opacity:0;stroke:none"/><path d="M77 90.785v20.43C77 118.277 71.277 124 64.215 124h-.43C56.723 124 51 118.277 51 111.215v-20.43c0-7.058 5.723-12.781 12.785-12.781h.43C71.277 78.004 77 83.727 77 90.785zm0 0" style="fill:none;stroke:#000;stroke-width:7.99962;stroke-linecap:round;stroke-linejoin:round;stroke-miterlimit:4;stroke-opacity:1"/><path d="M77 90.785v20.43C77 118.277 71.277 124 64.215 124h-.43C56.723 124 51 118.277 51 111.215v-20.43c0-7.058 5.723-12.781 12.785-12.781h.43C71.277 78.004 77 83.727 77 90.785zm0 0" style="fill:#000;fill-opacity:1;fill-rule:nonzero;stroke:#fff;stroke-width:3.99981;stroke-linecap:round;stroke-linejoin:round;stroke-miterlimit:4;stroke-opacity:1"/><path d="M64 96a4.999 4.999 0 1 1 0-9.996A4.999 4.999 0 1 1 64 96zm0 0" style="fill:#fff;fill-opacity:1;fill-rule:nonzero;stroke:none"/><path d="M64 116a5 5 0 1 1 0-10 5 5 0 0 1 0 10zm0 0" style="fill:#333;fill-opacity:1;fill-rule:nonzero;stroke:none"/></svg>