<?xml version="1.0" encoding="UTF-8" standalone="no"?>
<svg
   width="128px"
   height="128px"
   viewBox="0 0 128 128"
   version="1.1"
   id="svg12"
   sodipodi:docname="Feu Blanc.svg"
   inkscape:version="1.2.2 (b0a8486541, 2022-12-01)"
   xmlns:inkscape="http://www.inkscape.org/namespaces/inkscape"
   xmlns:sodipodi="http://sodipodi.sourceforge.net/DTD/sodipodi-0.dtd"
   xmlns="http://www.w3.org/2000/svg"
   xmlns:svg="http://www.w3.org/2000/svg">
  <defs
     id="defs16" />
  <sodipodi:namedview
     id="namedview14"
     pagecolor="#ffffff"
     bordercolor="#666666"
     borderopacity="1.0"
     inkscape:showpageshadow="2"
     inkscape:pageopacity="0.0"
     inkscape:pagecheckerboard="0"
     inkscape:deskcolor="#d1d1d1"
     showgrid="false"
     inkscape:zoom="8.2265625"
     inkscape:cx="53.546059"
     inkscape:cy="63.939221"
     inkscape:window-width="3440"
     inkscape:window-height="1384"
     inkscape:window-x="0"
     inkscape:window-y="28"
     inkscape:window-maximized="1"
     inkscape:current-layer="svg12" />
  <g
     id="g585">
    <rect
       y="0"
       x="0"
       height="128"
       width="128"
       id="rect842"
       style="fill:#ffffff;fill-opacity:0;stroke:none" />
    <path
       style="fill:none;stroke:#000000;stroke-width:7.99962;stroke-linecap:round;stroke-linejoin:round;stroke-miterlimit:4;stroke-opacity:1"
       d="M 76.99998,90.785154 V 111.21484 C 76.99998,118.27734 71.277332,124 64.214828,124 h -0.42968 c -7.062505,0 -12.785173,-5.72266 -12.785173,-12.78516 V 90.785154 c 0,-7.058593 5.722668,-12.781251 12.785173,-12.781251 h 0.42968 c 7.062504,0 12.785152,5.722658 12.785152,12.781251 z m 0,0"
       id="path3" />
    <path
       style="fill:#000000;fill-opacity:1;fill-rule:nonzero;stroke:#ffffff;stroke-width:3.99981;stroke-linecap:round;stroke-linejoin:round;stroke-miterlimit:4;stroke-opacity:1"
       d="M 76.99998,90.785154 V 111.21484 C 76.99998,118.27734 71.277332,124 64.214828,124 h -0.42968 c -7.062505,0 -12.785173,-5.72266 -12.785173,-12.78516 V 90.785154 c 0,-7.058593 5.722668,-12.781251 12.785173,-12.781251 h 0.42968 c 7.062504,0 12.785152,5.722658 12.785152,12.781251 z m 0,0"
       id="path5" />
    <path
       style="fill:#ffffff;fill-opacity:1;fill-rule:nonzero;stroke:none"
       d="m 64,96 c -2.761719,0 -5,-2.238281 -5,-5 0,-2.757812 2.238281,-4.996094 5,-4.996094 2.761719,0 5,2.238282 5,4.996094 0,2.761719 -2.238281,5 -5,5 z m 0,0"
       id="path7" />
    <path
       style="fill:#333333;fill-opacity:1;fill-rule:nonzero;stroke:none"
       d="m 64,116 c -2.761719,0 -5,-2.23828 -5,-5 0,-2.76172 2.238281,-5 5,-5 2.761719,0 5,2.23828 5,5 0,2.76172 -2.238281,5 -5,5 z m 0,0"
       id="path9" />
  </g>
</svg>
