<?xml version="1.0" encoding="UTF-8" standalone="no"?>
<svg
   xmlns:dc="http://purl.org/dc/elements/1.1/"
   xmlns:cc="http://creativecommons.org/ns#"
   xmlns:rdf="http://www.w3.org/1999/02/22-rdf-syntax-ns#"
   xmlns:svg="http://www.w3.org/2000/svg"
   xmlns="http://www.w3.org/2000/svg"
   xmlns:sodipodi="http://sodipodi.sourceforge.net/DTD/sodipodi-0.dtd"
   xmlns:inkscape="http://www.inkscape.org/namespaces/inkscape"
   sodipodi:docname="sig_fincat.svg"
   height="64"
   width="64"
   inkscape:version="1.0alpha2 (a30573dbe8, 2019-07-23)"
   version="1.1"
   id="svg2">
  <metadata
     id="metadata8">
    <rdf:RDF>
      <cc:Work
         rdf:about="">
        <dc:format>image/svg+xml</dc:format>
        <dc:type
           rdf:resource="http://purl.org/dc/dcmitype/StillImage" />
        <dc:title></dc:title>
      </cc:Work>
    </rdf:RDF>
  </metadata>
  <defs
     id="defs6" />
  <sodipodi:namedview
     inkscape:document-rotation="0"
     inkscape:current-layer="g3769"
     inkscape:window-maximized="1"
     inkscape:window-y="0"
     inkscape:window-x="0"
     inkscape:cy="21.535326"
     inkscape:cx="52.64302"
     inkscape:zoom="9.3465346"
     inkscape:snap-page="true"
     inkscape:snap-center="true"
     inkscape:snap-object-midpoints="true"
     inkscape:snap-midpoints="true"
     inkscape:snap-smooth-nodes="true"
     inkscape:snap-intersection-paths="true"
     inkscape:object-nodes="true"
     inkscape:object-paths="true"
     inkscape:snap-bbox-midpoints="true"
     inkscape:snap-bbox-edge-midpoints="true"
     inkscape:bbox-nodes="true"
     inkscape:bbox-paths="true"
     inkscape:snap-bbox="true"
     showgrid="true"
     id="namedview4"
     inkscape:window-height="1024"
     inkscape:window-width="1920"
     inkscape:pageshadow="2"
     inkscape:pageopacity="0"
     guidetolerance="10"
     gridtolerance="10"
     objecttolerance="10"
     borderopacity="1"
     bordercolor="#666666"
     pagecolor="#ffffff">
    <inkscape:grid
       spacingy="0.64"
       spacingx="0.64"
       type="xygrid"
       id="grid861" />
  </sodipodi:namedview>
  <g
     transform="translate(-107.73191,-4.8418837)"
     id="g3769">
    <g
       transform="matrix(1.9695017,0,0,1.9695017,-129.16794,-23.113008)"
       id="g865">
      <path
         id="rect854"
         style="vector-effect:none;fill:#aa00aa;fill-opacity:1;stroke:#000000;stroke-width:0.5;stroke-linecap:round;stroke-linejoin:round;stroke-miterlimit:4;stroke-dasharray:none;stroke-opacity:1;stop-color:#000000"
         d="m 128.86098,22.114359 c -0.6041,1e-6 -1.20984,0.229897 -1.67273,0.692789 l -5.96201,5.96401 c -0.92577,0.925783 -0.92577,2.41567 0,3.341452 l 5.96201,5.964011 c 0.92578,0.925781 2.41768,0.925781 3.34345,0 l 5.96402,-5.964011 c 0.0138,-0.01378 0.0228,-0.03015 0.0362,-0.04418 0.0134,0.01398 0.0224,0.03044 0.0362,0.04418 l 5.96201,5.964011 c 0.92578,0.925781 2.41767,0.925781 3.34345,0 l 5.96401,-5.964011 c 0.92579,-0.925782 0.92578,-2.41567 0,-3.341452 l -5.96401,-5.96401 c -0.92577,-0.925781 -2.41767,-0.925781 -3.34345,0 l -5.96201,5.96401 c -0.0138,0.01374 -0.0228,0.0302 -0.0362,0.04418 -0.0134,-0.01402 -0.0224,-0.0304 -0.0362,-0.04418 l -5.96402,-5.96401 c -0.46288,-0.462891 -1.06662,-0.69279 -1.67072,-0.692789 z"
         inkscape:connector-curvature="0" />
      <rect
         style="vector-effect:none;fill:#ffffff;fill-opacity:1;stroke-width:1.87431;stroke-linecap:round;stroke-linejoin:round;stop-color:#000000"
         id="rect861"
         width="31.476826"
         height="1.28"
         x="120.74744"
         y="29.801884"
         ry="0.25382352" />
    </g>
  </g>
</svg>
