<svg xmlns="http://www.w3.org/2000/svg" width="64" height="64"><path d="M107.732 4.842h64v64h-64z" style="fill:#000;fill-opacity:1;fill-rule:nonzero;stroke:none;stroke-width:.636824" transform="translate(-107.732 -4.842)"/><path d="M110.699 7.809h58.065v58.065h-58.065z" style="fill:none;stroke:#fff;stroke-width:3.93508;stroke-miterlimit:4;stroke-dasharray:none;stroke-opacity:1" transform="translate(-107.732 -4.842)"/><g style="font-style:normal;font-weight:400;font-size:40px;line-height:125%;font-family:Sans;text-align:center;letter-spacing:0;word-spacing:0;text-anchor:middle;fill:#fff;fill-opacity:1;stroke:none"><path d="M159.587 62.92v-9.648h24.922v22.812q-3.632 3.516-10.527 6.191-6.894 2.676-13.965 2.676-8.984 0-15.664-3.77-6.68-3.768-10.04-10.78-3.358-7.013-3.358-15.254 0-8.946 3.75-15.899t10.976-10.664q5.508-2.85 13.711-2.851 10.665 0 16.66 4.472 5.997 4.473 7.715 12.363l-11.484 2.149q-1.212-4.22-4.551-6.66-3.34-2.442-8.34-2.442-7.578 0-12.05 4.805-4.474 4.805-4.473 14.258 0 10.195 4.53 15.293 4.532 5.097 11.876 5.097 3.633 0 7.285-1.425t6.27-3.457V62.92z" style="font-weight:700;font-size:80px;-inkscape-font-specification:&quot;Sans Bold&quot;;fill:#fff" transform="matrix(.54577 0 0 .54037 -54.086 2.095)"/></g></svg>