<svg xmlns="http://www.w3.org/2000/svg" width="64" height="64"><path d="M107.732 4.842h64v64h-64z" style="fill:#000;fill-opacity:1;fill-rule:nonzero;stroke:none;stroke-width:.636824" transform="translate(-107.732 -4.842)"/><path d="M110.699 7.809h58.065v58.065h-58.065z" style="fill:none;stroke:#fff;stroke-width:3.93508;stroke-miterlimit:4;stroke-dasharray:none;stroke-opacity:1" transform="translate(-107.732 -4.842)"/><g style="font-style:normal;font-weight:400;font-size:40px;line-height:125%;font-family:Sans;text-align:center;letter-spacing:0;word-spacing:0;text-anchor:middle;fill:#fff;fill-opacity:1;stroke:none"><path d="M159.587 62.92v-9.648h24.922v22.812c-2.422 2.344-5.93 4.408-10.527 6.191-4.596 1.784-9.251 2.676-13.965 2.676-5.99 0-11.21-1.256-15.664-3.77-4.453-2.512-7.8-6.106-10.04-10.78-2.239-4.675-3.358-9.76-3.358-15.254 0-5.964 1.25-11.263 3.75-15.899 2.5-4.635 6.158-8.19 10.976-10.664 3.672-1.9 8.242-2.851 13.711-2.851 7.11 0 12.663 1.49 16.66 4.472 3.998 2.982 6.57 7.103 7.715 12.363l-11.484 2.149c-.808-2.813-2.325-5.033-4.551-6.66-2.227-1.628-5.007-2.442-8.34-2.442-5.052 0-9.069 1.602-12.05 4.805-2.983 3.203-4.473 7.956-4.473 14.258 0 6.797 1.51 11.894 4.53 15.293 3.022 3.398 6.98 5.097 11.876 5.097 2.422 0 4.85-.475 7.285-1.425 2.435-.95 4.525-2.103 6.27-3.457V62.92z" style="font-weight:700;font-size:80px;-inkscape-font-specification:&quot;Sans Bold&quot;;fill:#fff" transform="matrix(.54577 0 0 .54037 -54.086 2.095)"/></g></svg>