<?xml version="1.0" encoding="UTF-8" standalone="no"?>
<svg
   xmlns:dc="http://purl.org/dc/elements/1.1/"
   xmlns:cc="http://creativecommons.org/ns#"
   xmlns:rdf="http://www.w3.org/1999/02/22-rdf-syntax-ns#"
   xmlns:svg="http://www.w3.org/2000/svg"
   xmlns="http://www.w3.org/2000/svg"
   id="svg916"
   version="1.1"
   viewBox="0 0 64 63.999999"
   height="64"
   width="64">
  <defs
     id="defs910" />
  <metadata
     id="metadata913">
    <rdf:RDF>
      <cc:Work
         rdf:about="">
        <dc:format>image/svg+xml</dc:format>
        <dc:type
           rdf:resource="http://purl.org/dc/dcmitype/StillImage" />
        <dc:title></dc:title>
      </cc:Work>
    </rdf:RDF>
  </metadata>
  <g
     transform="translate(-84.470781,-25.020833)"
     id="layer1">
    <rect
       style="fill:#ffffff;fill-opacity:0;stroke-width:6.4;stroke-linecap:round;stroke-linejoin:round;paint-order:markers stroke fill;stop-color:#000000"
       id="rect832"
       width="64"
       height="64"
       x="84.470779"
       y="25.020832" />
    <g
       id="g849"
       transform="rotate(90,105.21966,64.776206)">
      <path
         d="m 116.47078,29.536101 c 5.81341,0 10.49351,4.680103 10.49351,10.493505 V 67.02057 c 0,5.813402 -4.6801,10.493505 -10.49351,10.493505 -5.8134,0 -10.4935,-4.680103 -10.4935,-10.493505 V 40.029606 c 0,-5.813402 4.6801,-10.493505 10.4935,-10.493505 z"
         style="opacity:1;fill:#000000;fill-opacity:1;stroke:#000000;stroke-width:5;stroke-miterlimit:4;stroke-dasharray:none;stroke-opacity:1;stop-opacity:1"
         id="path842" />
      <path
         id="rect4299-1-5"
         style="opacity:1;fill:#000000;fill-opacity:1;stroke:#ffffff;stroke-width:2.12881;stroke-miterlimit:4;stroke-dasharray:none;stroke-opacity:1;stop-opacity:1"
         d="m 116.47078,29.536101 c 5.81341,0 10.49351,4.680103 10.49351,10.493505 V 67.02057 c 0,5.813402 -4.6801,10.493505 -10.49351,10.493505 -5.8134,0 -10.4935,-4.680103 -10.4935,-10.493505 V 40.029606 c 0,-5.813402 4.6801,-10.493505 10.4935,-10.493505 z" />
      <circle
         cy="39.792358"
         cx="116.51358"
         id="path4272-2-3"
         style="opacity:1;fill:#ffffff;fill-opacity:1;stroke:none;stroke-width:0.50054;stop-opacity:1"
         r="3.6406033" />
      <circle
         cy="67.020576"
         cx="116.51358"
         id="path4272-7-39-5"
         style="opacity:1;fill:#ffffff;fill-opacity:1;stroke:none;stroke-width:0.50054;stop-opacity:1"
         r="3.6406033" />
      <circle
         r="3.6406033"
         style="opacity:1;fill:#ffffff;fill-opacity:1;stroke:none;stroke-width:0.50054;stop-opacity:1"
         id="circle840"
         cx="116.51358"
         cy="53.406467" />
    </g>
  </g>
</svg>
