<svg xmlns="http://www.w3.org/2000/svg" width="64" height="64"><path d="M107.732 4.842h64v64h-64z" style="fill:#000;fill-opacity:1;fill-rule:nonzero;stroke:none;stroke-width:.636824" transform="translate(-107.732 -4.842)"/><path d="M110.699 7.809h58.065v58.065h-58.065z" style="fill:none;stroke:#fff;stroke-width:3.93508;stroke-miterlimit:4;stroke-dasharray:none;stroke-opacity:1" transform="translate(-107.732 -4.842)"/><g style="font-style:normal;font-variant:normal;font-weight:400;font-stretch:normal;font-size:32px;line-height:1.25;font-family:Roboto;font-variant-ligatures:normal;font-variant-caps:normal;font-variant-numeric:normal;font-feature-settings:normal;text-align:start;letter-spacing:0;word-spacing:0;writing-mode:lr-tb;text-anchor:start;fill:#fff;fill-opacity:1;stroke:none;stroke-width:4"><g aria-label="LM" style="font-style:normal;font-variant:normal;font-weight:400;font-stretch:normal;font-size:23.7399px;line-height:1.25;font-family:Roboto;font-variant-ligatures:normal;font-variant-caps:normal;font-variant-numeric:normal;font-feature-settings:normal;text-align:start;letter-spacing:0;word-spacing:0;writing-mode:lr-tb;text-anchor:start;fill:#fff;fill-opacity:1;stroke:none;stroke-width:11.8699"><path d="M129.485 44.446h-9.97V24.972h-4.288v23.74h14.258zm9.482-2.852h2.851q0 .534-.255 1.02-.231.534-.626.928-.417.417-.927.65-.533.23-1.043.254-.533 0-1.02-.255-.533-.232-.928-.65-.417-.393-.672-.926-.232-.51-.232-1.02v-9.506q0-.533.232-1.043t.672-.927q.395-.394.928-.626.51-.232 1.02-.255.533 0 1.043.255.51.232.927.626.395.417.626.927.232.533.255 1.043h4.266q0-1.298-.603-2.573-.602-1.275-1.6-2.342-1.042-1.02-2.34-1.6-1.276-.602-2.574-.602t-2.597.603q-1.275.602-2.295 1.6-1.043 1.043-1.646 2.34-.603 1.276-.58 2.574v9.505q0 1.299.58 2.574.603 1.275 1.646 2.318 1.02 1.043 2.295 1.623 1.275.603 2.597.603 1.298 0 2.573-.603t2.342-1.623q1.02-1.02 1.6-2.318.602-1.275.602-2.574v-4.288h-7.117zm25.27-9.528q0-1.298-.603-2.573-.603-1.252-1.6-2.319-1.043-1.02-2.341-1.6-1.275-.602-2.573-.602h-7.141v23.74h4.289v-9.505h2.852q.533 0 1.043.255.51.231.927.626.394.417.626.927.232.533.232 1.043v6.654h4.289v-6.654q0-1.229-.278-2.156-.302-.927-.719-1.507-.417-.603-.765-.88-.348-.256-.603-.441l.047-.047q.278-.278.626-.649.324-.37.741-1.043.371-.65.673-1.484.278-.834.278-1.785m-7.117 2.875h-2.852v-5.703h2.852q.533 0 1.043.255.51.232.927.626.394.417.626.927.232.533.232 1.043 0 .533-.232 1.02-.232.534-.626.928-.417.417-.927.672-.51.232-1.043.232" aria-label="LGR" style="font-style:normal;font-variant:normal;font-weight:400;font-stretch:normal;font-family:PoliceSNCF;fill:#fff;stroke-width:11.8699" transform="translate(-107.732 -4.842)"/></g></g></svg>