<svg xmlns="http://www.w3.org/2000/svg" width="64" height="64"><path d="M0 0h64v64H0z" style="fill:#000;fill-opacity:1;fill-rule:nonzero;stroke:none;stroke-width:.636824"/><path d="M1.525 1.525h60.95v60.95H1.525z" style="fill:none;stroke:#fff;stroke-width:1.04969;stroke-miterlimit:4;stroke-dasharray:none;stroke-opacity:1"/><g aria-label="LIMITE DE MANOEUVRE" style="font-style:normal;font-variant:normal;font-weight:400;font-stretch:normal;font-size:9.11409px;line-height:1.55;font-family:Roboto;font-variant-ligatures:normal;font-variant-caps:normal;font-variant-numeric:normal;font-feature-settings:normal;text-align:start;letter-spacing:0;word-spacing:0;writing-mode:lr-tb;text-anchor:start;fill:#fff;fill-opacity:1;stroke:none;stroke-width:1.13926"><path d="M15.131 21.604H9.532V10.667H7.123V24h8.008zM16.915 24h2.409V10.667h-2.41zM27.983 24l2.252-5.729.013 5.73h2.409V10.666h-2.409l-2.93 8.932-2.93-8.932H21.98V24h2.409v-5.729l2.265 5.73zM35.313 24h2.41V10.667h-2.41zM44.714 13.063h2.8v-2.396h-7.995v2.396h2.8V24h2.395zM51.72 16.097v-3.034h5.598v-2.396h-8.007V24h8.007v-2.396H51.72v-3.112h2.396v-2.395z" style="font-style:normal;font-variant:normal;font-weight:400;font-stretch:normal;font-size:13.3333px;font-family:PoliceSNCF;text-align:center;text-anchor:middle;fill:#fff;stroke-width:1.13926"/><path d="M29.51 34.612q.149 0 .292.072.143.065.26.176.111.117.176.26.065.15.065.293v2.67q0 .15-.065.286-.065.15-.175.26-.118.118-.26.183-.15.065-.294.071h-.8v-4.27Zm0-1.197h-2.006v6.666h2.005q.365 0 .723-.17.358-.168.657-.455.287-.286.45-.65.169-.359.169-.723v-2.67q0-.364-.17-.722-.169-.358-.449-.658-.293-.286-.657-.45-.358-.168-.723-.168zM33.806 36.13v-1.518h2.8v-1.197h-4.004v6.666h4.004v-1.198h-2.8v-1.556h1.198V36.13zM12.247 54.208l1.126-2.865.007 2.865h1.204v-6.667H13.38l-1.465 4.467-1.465-4.467H9.246v6.667h1.204v-2.865l1.133 2.865zM17.579 50.647l.286 1.159h-.547zm.573 2.363.3 1.198h1.132l-1.4-6.667H16.98l-1.4 6.667h1.205l.26-1.198zM21.778 50.393l1.595 3.815h1.205v-6.667h-1.205v3.815l-1.595-3.815h-1.204v6.667h1.204zM29.675 52.21v-2.67q0-.365-.17-.723-.168-.358-.448-.657-.293-.287-.658-.45-.358-.169-.722-.169-.365 0-.73.17-.358.169-.644.449-.293.293-.462.657-.17.358-.163.723v2.67q0 .364.163.722.169.358.462.651.286.293.644.456.358.17.73.17.364 0 .722-.17t.658-.456q.286-.286.449-.651.17-.358.17-.723zm-1.198 0q0 .15-.071.286-.065.15-.176.26-.117.117-.26.183-.15.065-.294.071-.15 0-.286-.071-.15-.066-.26-.183-.118-.11-.19-.26-.064-.143-.064-.287V49.54q0-.15.065-.293t.189-.26q.11-.111.26-.176.143-.065.286-.072.15 0 .293.072.144.065.26.176.112.117.177.26.065.15.071.293zM31.973 50.256V48.74h2.8v-1.198h-4.004v6.667h4.004V53.01h-2.8v-1.556h1.198v-1.198zM39.773 47.541h-1.205v4.668q0 .15-.065.287-.065.15-.175.26-.118.117-.26.183-.15.065-.294.071-.15 0-.286-.071-.15-.066-.26-.183-.118-.11-.19-.26-.065-.143-.065-.287v-4.668H35.77v4.668q0 .365.17.723.169.358.461.651.287.293.645.456.358.17.73.17.364 0 .722-.17t.657-.456q.287-.286.45-.651.169-.358.169-.723zM42.768 51.103l-.795-3.562H40.77l1.4 6.667h1.204l1.4-6.667H43.64zM49.766 49.534q0-.365-.169-.723-.17-.352-.45-.651-.292-.287-.657-.45-.358-.169-.722-.169h-2.006v6.667h1.205v-2.67h.8q.15 0 .294.072.143.065.26.176.11.117.176.26.065.15.065.294v1.868h1.204V52.34q0-.345-.078-.606-.084-.26-.202-.423-.117-.17-.214-.247l-.17-.124.013-.013q.078-.078.176-.182.091-.105.208-.293.105-.183.19-.417.077-.234.077-.501zm-1.998.807h-.801v-1.602h.8q.15 0 .294.072.143.065.26.176.11.117.176.26.065.15.065.293 0 .15-.065.287-.065.15-.176.26-.117.117-.26.189-.144.065-.293.065zM52.065 50.256V48.74h2.799v-1.198H50.86v6.667h4.004V53.01h-2.8v-1.556h1.198v-1.198z" style="font-style:normal;font-variant:normal;font-weight:400;font-stretch:normal;font-size:6.66667px;font-family:PoliceSNCF;text-align:center;text-anchor:middle;fill:#fff;stroke-width:1.13926"/></g></svg>