<?xml version="1.0" encoding="UTF-8" standalone="no"?>
<svg
   xmlns:dc="http://purl.org/dc/elements/1.1/"
   xmlns:cc="http://creativecommons.org/ns#"
   xmlns:rdf="http://www.w3.org/1999/02/22-rdf-syntax-ns#"
   xmlns:svg="http://www.w3.org/2000/svg"
   xmlns="http://www.w3.org/2000/svg"
   xmlns:sodipodi="http://sodipodi.sourceforge.net/DTD/sodipodi-0.dtd"
   xmlns:inkscape="http://www.inkscape.org/namespaces/inkscape"
   inkscape:version="1.0alpha2 (a30573dbe8, 2019-07-23)"
   sodipodi:docname="sig_rev.svg"
   height="64"
   width="64"
   version="1.1"
   id="svg2">
  <sodipodi:namedview
     inkscape:current-layer="svg2"
     inkscape:window-maximized="0"
     inkscape:window-y="15"
     inkscape:window-x="23"
     inkscape:cy="30.357906"
     inkscape:cx="30.624791"
     inkscape:zoom="8.8125"
     showgrid="false"
     id="namedview14"
     inkscape:window-height="939"
     inkscape:window-width="1682"
     inkscape:pageshadow="2"
     inkscape:pageopacity="0"
     guidetolerance="10"
     gridtolerance="10"
     objecttolerance="10"
     borderopacity="1"
     inkscape:document-rotation="0"
     bordercolor="#666666"
     pagecolor="#ffffff" />
  <metadata
     id="metadata8">
    <rdf:RDF>
      <cc:Work
         rdf:about="">
        <dc:format>image/svg+xml</dc:format>
        <dc:type
           rdf:resource="http://purl.org/dc/dcmitype/StillImage" />
        <dc:title />
      </cc:Work>
    </rdf:RDF>
  </metadata>
  <defs
     id="defs6" />
  <g
     id="g854">
    <g
       style="opacity:1;stop-opacity:1"
       id="g3761"
       transform="matrix(0.64,0,0,0.63366337,-68.948423,-3.0681245)">
      <rect
         y="4.8418837"
         x="107.73191"
         height="101"
         width="100"
         id="rect2987"
         style="fill:#000000;fill-opacity:1;fill-rule:nonzero;stroke:none" />
      <rect
         y="8.7422323"
         x="111.64691"
         height="93.199303"
         width="92.169991"
         id="rect2989"
         style="fill:none;stroke:#ffffff;stroke-width:5.70225;stroke-miterlimit:4;stroke-dasharray:none;stroke-opacity:1" />
    </g>
    <g
       id="text3765"
       style="font-style:normal;font-weight:normal;font-size:79.8359px;line-height:125%;font-family:Sans;text-align:center;letter-spacing:0px;word-spacing:0px;text-anchor:middle;opacity:1;fill:#ffffff;fill-opacity:1;stroke:none;stop-opacity:1"
       transform="matrix(0.6387763,0,0,0.63487728,-68.948423,-3.0681245)">
      <g
         aria-label="REV"
         transform="matrix(0.84252933,0,0,1.1869023,1.4881634,3.1171885)"
         id="text843"
         style="font-style:normal;font-variant:normal;font-weight:normal;font-stretch:normal;font-size:44.8198px;line-height:1.25;font-family:Roboto;-inkscape-font-specification:Roboto;font-variant-ligatures:normal;font-variant-caps:normal;font-variant-numeric:normal;font-feature-settings:normal;text-align:start;letter-spacing:0px;word-spacing:0px;writing-mode:lr-tb;text-anchor:start;fill:#ffffff;fill-opacity:1;stroke:none;stroke-width:5.60249">
        <path
           id="path845"
           style="font-weight:bold;fill:#ffffff;stroke-width:3.5678"
           d="M 10.439453 19.994141 L 10.439453 44.005859 L 13.974609 44.005859 L 13.974609 35.214844 L 16.789062 35.214844 L 20.003906 44.005859 L 23.796875 44.005859 L 23.796875 43.775391 L 20.085938 33.962891 C 21.114554 33.314248 21.880281 32.445823 22.382812 31.357422 C 22.893197 30.258028 23.148438 28.888098 23.148438 27.25 C 23.148438 24.941272 22.599288 23.154928 21.5 21.890625 C 20.400716 20.626322 18.838328 19.994141 16.8125 19.994141 L 10.439453 19.994141 z M 25.833984 19.994141 L 25.833984 44.005859 L 37.330078 44.005859 L 37.330078 40.03125 L 29.367188 40.03125 L 29.367188 33.599609 L 36.152344 33.599609 L 36.152344 29.724609 L 29.367188 29.724609 L 29.367188 24.001953 L 37.306641 24.001953 L 37.306641 19.994141 L 25.833984 19.994141 z M 37.953125 19.994141 L 43.902344 44.005859 L 47.587891 44.005859 L 53.560547 19.994141 L 49.625 19.994141 L 45.738281 38.052734 L 41.875 19.994141 L 37.953125 19.994141 z M 13.974609 24.001953 L 16.8125 24.001953 C 17.762599 24.001953 18.464504 24.325966 18.919922 24.974609 C 19.38319 25.623252 19.615234 26.514108 19.615234 27.646484 C 19.615234 28.756873 19.371589 29.62993 18.884766 30.267578 C 18.397939 30.894233 17.7115 31.208984 16.824219 31.208984 L 13.974609 31.208984 L 13.974609 24.001953 z "
           transform="matrix(1.8580876,0,0,1.3270743,126.3459,1.4453065)" />
      </g>
    </g>
  </g>
</svg>
