<?xml version="1.0" encoding="UTF-8" standalone="no"?>
<svg
   xmlns:dc="http://purl.org/dc/elements/1.1/"
   xmlns:cc="http://creativecommons.org/ns#"
   xmlns:rdf="http://www.w3.org/1999/02/22-rdf-syntax-ns#"
   xmlns:svg="http://www.w3.org/2000/svg"
   xmlns="http://www.w3.org/2000/svg"
   xmlns:sodipodi="http://sodipodi.sourceforge.net/DTD/sodipodi-0.dtd"
   xmlns:inkscape="http://www.inkscape.org/namespaces/inkscape"
   sodipodi:docname="sig_r.svg"
   height="64"
   width="64"
   inkscape:version="1.0alpha2 (a30573dbe8, 2019-07-23)"
   version="1.1"
   id="svg2">
  <metadata
     id="metadata8">
    <rdf:RDF>
      <cc:Work
         rdf:about="">
        <dc:format>image/svg+xml</dc:format>
        <dc:type
           rdf:resource="http://purl.org/dc/dcmitype/StillImage" />
        <dc:title></dc:title>
      </cc:Work>
    </rdf:RDF>
  </metadata>
  <defs
     id="defs6" />
  <sodipodi:namedview
     inkscape:document-rotation="0"
     inkscape:current-layer="g3769"
     inkscape:window-maximized="1"
     inkscape:window-y="0"
     inkscape:window-x="0"
     inkscape:cy="26.850807"
     inkscape:cx="26.204403"
     inkscape:zoom="9.3465346"
     inkscape:snap-page="true"
     inkscape:snap-center="true"
     inkscape:snap-object-midpoints="true"
     inkscape:snap-midpoints="true"
     inkscape:snap-smooth-nodes="true"
     inkscape:snap-intersection-paths="true"
     inkscape:object-nodes="true"
     inkscape:object-paths="true"
     inkscape:snap-bbox-midpoints="true"
     inkscape:snap-bbox-edge-midpoints="true"
     inkscape:bbox-nodes="true"
     inkscape:bbox-paths="true"
     inkscape:snap-bbox="true"
     showgrid="false"
     id="namedview4"
     inkscape:window-height="1024"
     inkscape:window-width="1920"
     inkscape:pageshadow="2"
     inkscape:pageopacity="0"
     guidetolerance="10"
     gridtolerance="10"
     objecttolerance="10"
     borderopacity="1"
     bordercolor="#666666"
     pagecolor="#ffffff" />
  <g
     transform="translate(-107.73191,-4.8418837)"
     id="g3769">
    <g
       transform="matrix(0.64,0,0,0.63366337,38.783487,1.7737592)"
       style="opacity:1;stop-opacity:1"
       id="g3779">
      <g
         id="g3761">
        <rect
           style="fill:#000000;fill-opacity:1;fill-rule:nonzero;stroke:none"
           id="rect2987"
           width="100"
           height="101"
           x="107.73191"
           y="4.8418837" />
        <rect
           style="fill:none;stroke:#ffffff;stroke-width:5.70225;stroke-miterlimit:4;stroke-dasharray:none;stroke-opacity:1"
           id="rect2989"
           width="92.169991"
           height="93.199303"
           x="111.64691"
           y="8.7422323" />
      </g>
      <g
         transform="scale(0.99808797,1.0019157)"
         style="font-style:normal;font-weight:normal;font-size:79.8359px;line-height:125%;font-family:Sans;text-align:center;letter-spacing:0px;word-spacing:0px;text-anchor:middle;fill:#ffffff;fill-opacity:1;stroke:none"
         id="text3765">
        <path
           inkscape:connector-curvature="0"
           d="M 132.34471,83.810143 V 26.662 h 24.28601 c 6.1072,5.8e-5 10.54469,0.513325 13.31247,1.539804 2.76771,1.02659 4.9832,2.852262 6.6465,5.477022 1.66319,2.624859 2.49481,5.626498 2.49487,9.004925 -6e-5,4.288097 -1.26048,7.828991 -3.78129,10.622694 -2.52091,2.793763 -6.2892,4.554465 -11.30489,5.28211 2.49483,1.455365 4.5544,3.05364 6.17871,4.79483 1.62422,1.741231 3.81372,4.833828 6.56853,9.277802 l 6.97784,11.148956 H 169.9237 l -8.34222,-12.435374 c -2.96269,-4.443972 -4.98978,-7.244202 -6.08125,-8.400699 -1.09154,-1.156454 -2.24801,-1.949095 -3.46943,-2.377924 -1.22147,-0.428782 -3.1576,-0.643185 -5.80837,-0.643209 h -2.33894 v 23.857206 z m 11.53878,-32.979078 h 8.53713 c 5.53547,3.3e-5 8.9919,-0.233861 10.36931,-0.701683 1.37734,-0.467754 2.45585,-1.273389 3.23554,-2.416906 0.7796,-1.143446 1.16943,-2.572797 1.16947,-4.28806 -4e-5,-1.923088 -0.51331,-3.475883 -1.53981,-4.658392 -1.02657,-1.182419 -2.47541,-1.92958 -4.34653,-2.241486 -0.93561,-0.129894 -3.74234,-0.194864 -8.42019,-0.194912 h -9.00492 z"
           style="font-variant:normal;font-weight:bold;font-stretch:normal;font-family:Arial;-inkscape-font-specification:'Arial Bold';fill:#ffffff"
           id="path3777" />
      </g>
    </g>
  </g>
</svg>
