<?xml version="1.0" encoding="UTF-8" standalone="no"?>
<svg
   xmlns:dc="http://purl.org/dc/elements/1.1/"
   xmlns:cc="http://creativecommons.org/ns#"
   xmlns:rdf="http://www.w3.org/1999/02/22-rdf-syntax-ns#"
   xmlns:svg="http://www.w3.org/2000/svg"
   xmlns="http://www.w3.org/2000/svg"
   xmlns:sodipodi="http://sodipodi.sourceforge.net/DTD/sodipodi-0.dtd"
   xmlns:inkscape="http://www.inkscape.org/namespaces/inkscape"
   inkscape:version="1.0alpha2 (a30573dbe8, 2019-07-23)"
   sodipodi:docname="sig_bpfin.svg"
   height="64"
   width="64"
   version="1.1"
   id="svg2">
  <sodipodi:namedview
     inkscape:current-layer="svg2"
     inkscape:window-maximized="1"
     inkscape:window-y="0"
     inkscape:window-x="0"
     inkscape:cy="36.85791"
     inkscape:cx="-0.038446806"
     inkscape:zoom="8"
     showgrid="true"
     id="namedview14"
     inkscape:window-height="1024"
     inkscape:window-width="1920"
     inkscape:pageshadow="2"
     inkscape:pageopacity="0"
     guidetolerance="10"
     gridtolerance="10"
     objecttolerance="10"
     borderopacity="1"
     inkscape:document-rotation="0"
     bordercolor="#666666"
     pagecolor="#ffffff">
    <inkscape:grid
       spacingy="0.64"
       spacingx="0.64"
       id="grid875"
       type="xygrid" />
  </sodipodi:namedview>
  <metadata
     id="metadata8">
    <rdf:RDF>
      <cc:Work
         rdf:about="">
        <dc:format>image/svg+xml</dc:format>
        <dc:type
           rdf:resource="http://purl.org/dc/dcmitype/StillImage" />
        <dc:title />
      </cc:Work>
    </rdf:RDF>
  </metadata>
  <defs
     id="defs6" />
  <g
     transform="matrix(0.64,0,0,0.63366337,-68.948423,-3.0681245)"
     id="g3761"
     style="opacity:1;stop-opacity:1">
    <rect
       style="fill:#000000;fill-opacity:1;fill-rule:nonzero;stroke:none"
       id="rect2987"
       width="100"
       height="101"
       x="107.73191"
       y="4.8418837" />
    <rect
       style="fill:none;stroke:#ffffff;stroke-width:5.70225;stroke-miterlimit:4;stroke-dasharray:none;stroke-opacity:1"
       id="rect2989"
       width="92.169991"
       height="93.199303"
       x="111.64691"
       y="8.7422323" />
  </g>
  <g
     id="g867"
     transform="rotate(90,31.2,31.199999)">
    <path
       inkscape:connector-curvature="0"
       d="m 12.060629,20.479998 c -1.495916,0.256919 -5.8931326,8.34244 -4.9220068,8.34244 H 32.001556 56.861328 c 1.035868,0 -4.034142,-9.200676 -5.178066,-8.285538 -5.179329,4.143464 -12.430644,5.178065 -19.681706,5.178065 -7.251062,0 -14.502377,-1.034601 -19.681706,-5.178065 -0.0715,-0.0572 -0.159493,-0.07403 -0.259221,-0.0569 z"
       style="vector-effect:none;fill:#ffffff;stroke-width:9.71125;stroke-linecap:square;stroke-miterlimit:6;paint-order:markers stroke fill;stop-color:#000000"
       id="rect855" />
    <path
       id="path863"
       style="vector-effect:none;fill:#ffffff;stroke-width:9.71125;stroke-linecap:square;stroke-miterlimit:6;paint-order:markers stroke fill;stop-color:#000000"
       d="M 12.060629,40.32 C 10.564713,40.063081 6.1674964,31.97756 7.1386222,31.97756 H 32.001556 56.861328 c 1.035868,0 -4.034142,9.200676 -5.178066,8.285538 -5.179329,-4.143464 -12.430644,-5.178065 -19.681706,-5.178065 -7.251062,0 -14.502377,1.034601 -19.681706,5.178065 -0.0715,0.0572 -0.159493,0.07403 -0.259221,0.0569 z"
       inkscape:connector-curvature="0" />
  </g>
</svg>
