<?xml version="1.0" encoding="UTF-8" standalone="no"?>
<svg
   xmlns:dc="http://purl.org/dc/elements/1.1/"
   xmlns:cc="http://creativecommons.org/ns#"
   xmlns:rdf="http://www.w3.org/1999/02/22-rdf-syntax-ns#"
   xmlns:svg="http://www.w3.org/2000/svg"
   xmlns="http://www.w3.org/2000/svg"
   xmlns:sodipodi="http://sodipodi.sourceforge.net/DTD/sodipodi-0.dtd"
   xmlns:inkscape="http://www.inkscape.org/namespaces/inkscape"
   id="svg2"
   version="1.1"
   inkscape:version="1.0alpha2 (a30573dbe8, 2019-07-23)"
   width="64"
   height="64"
   sodipodi:docname="sig_gare.svg">
  <metadata
     id="metadata8">
    <rdf:RDF>
      <cc:Work
         rdf:about="">
        <dc:format>image/svg+xml</dc:format>
        <dc:type
           rdf:resource="http://purl.org/dc/dcmitype/StillImage" />
        <dc:title></dc:title>
      </cc:Work>
    </rdf:RDF>
  </metadata>
  <defs
     id="defs6" />
  <sodipodi:namedview
     pagecolor="#ffffff"
     bordercolor="#666666"
     borderopacity="1"
     objecttolerance="10"
     gridtolerance="10"
     guidetolerance="10"
     inkscape:pageopacity="0"
     inkscape:pageshadow="2"
     inkscape:window-width="1920"
     inkscape:window-height="1024"
     id="namedview4"
     showgrid="false"
     inkscape:snap-bbox="true"
     inkscape:bbox-paths="true"
     inkscape:bbox-nodes="true"
     inkscape:snap-bbox-edge-midpoints="true"
     inkscape:snap-bbox-midpoints="true"
     inkscape:object-paths="true"
     inkscape:object-nodes="true"
     inkscape:snap-intersection-paths="true"
     inkscape:snap-smooth-nodes="true"
     inkscape:snap-midpoints="true"
     inkscape:snap-object-midpoints="true"
     inkscape:snap-center="true"
     inkscape:snap-page="true"
     inkscape:zoom="4.6732673"
     inkscape:cx="17.80359"
     inkscape:cy="43.113769"
     inkscape:window-x="0"
     inkscape:window-y="0"
     inkscape:window-maximized="1"
     inkscape:current-layer="g3769"
     inkscape:document-rotation="0">
    <inkscape:grid
       type="xygrid"
       id="grid865" />
  </sodipodi:namedview>
  <g
     id="g3769"
     transform="translate(-107.73191,-4.8418837)">
    <rect
       y="4.8418837"
       x="107.73191"
       height="64"
       width="64"
       id="rect2987"
       style="opacity:1;fill:#ffffff;fill-opacity:1;fill-rule:nonzero;stroke:none;stroke-width:0.636824;stop-opacity:1" />
    <rect
       y="7.3133917"
       x="110.23751"
       height="59.056984"
       width="58.988792"
       id="rect2989"
       style="opacity:1;fill:none;stroke:#000000;stroke-width:3.63133;stroke-miterlimit:4;stroke-dasharray:none;stroke-opacity:1;stop-opacity:1" />
    <path
       transform="translate(107.73191,4.8418837)"
       d="M 16.185547 24.060547 C 15.104954 24.060547 14.175231 24.357651 13.396484 24.951172 C 12.623771 25.544693 11.992886 26.441571 11.503906 27.642578 C 11.02096 28.843585 10.779297 30.288726 10.779297 31.978516 C 10.779297 33.62641 11.017234 35.061248 11.494141 36.283203 C 11.977087 37.498175 12.630159 38.412874 13.451172 39.027344 C 14.272172 39.63483 15.218409 39.939453 16.292969 39.939453 C 17.174342 39.939453 18.054347 39.706115 18.929688 39.238281 C 19.805021 38.770447 20.480118 38.211883 20.957031 37.5625 L 20.957031 31.445312 L 16.220703 31.445312 L 16.220703 34.03125 L 18.738281 34.03125 L 18.738281 35.980469 C 18.376068 36.38546 17.962874 36.705951 17.498047 36.943359 C 17.03924 37.173785 16.594629 37.289062 16.166016 37.289062 C 15.248416 37.289062 14.521648 36.873898 13.984375 36.042969 C 13.356542 35.07937 13.042969 33.672655 13.042969 31.822266 C 13.042969 30.097564 13.332569 28.816428 13.912109 27.978516 C 14.491643 27.133621 15.24984 26.710938 16.185547 26.710938 C 16.789227 26.710937 17.307534 26.920887 17.742188 27.339844 C 18.176841 27.7588 18.475679 28.361357 18.638672 29.150391 L 20.8125 28.574219 C 20.589133 27.093907 20.085568 25.973994 19.300781 25.212891 C 18.522035 24.444805 17.483467 24.060547 16.185547 24.060547 z M 26.119141 24.322266 L 21.880859 39.677734 L 24.216797 39.677734 L 25.113281 36.189453 L 29.460938 36.189453 L 30.410156 39.677734 L 32.800781 39.677734 L 28.445312 24.322266 L 26.119141 24.322266 z M 33.96875 24.322266 L 33.96875 39.677734 L 36.160156 39.677734 L 36.160156 33.267578 L 36.613281 33.267578 C 37.120375 33.267578 37.48935 33.326608 37.71875 33.445312 C 37.94815 33.557034 38.16584 33.766985 38.371094 34.074219 C 38.576347 34.374471 38.965569 35.127947 39.539062 36.335938 L 41.132812 39.677734 L 43.75 39.677734 L 42.427734 36.681641 C 41.896494 35.480633 41.475849 34.650304 41.167969 34.189453 C 40.860089 33.721618 40.470867 33.291416 40 32.900391 C 40.917593 32.71186 41.624121 32.250751 42.119141 31.517578 C 42.620201 30.784405 42.871094 29.818195 42.871094 28.617188 C 42.871094 27.667554 42.706853 26.853094 42.380859 26.175781 C 42.054873 25.491487 41.639906 25.014509 41.132812 24.742188 C 40.625726 24.462884 39.780876 24.322266 38.597656 24.322266 L 33.96875 24.322266 z M 44.945312 24.322266 L 44.945312 39.677734 L 53.220703 39.677734 L 53.220703 37.089844 L 47.136719 37.089844 L 47.136719 32.912109 L 52.605469 32.912109 L 52.605469 30.324219 L 47.136719 30.324219 L 47.136719 26.919922 L 53.021484 26.919922 L 53.021484 24.322266 L 44.945312 24.322266 z M 36.160156 26.919922 L 37.880859 26.919922 C 38.864859 26.919922 39.460762 26.958348 39.666016 27.035156 C 39.955782 27.146878 40.184482 27.354045 40.353516 27.654297 C 40.522542 27.947566 40.607422 28.33739 40.607422 28.826172 C 40.607422 29.335902 40.522542 29.7455 40.353516 30.052734 C 40.184482 30.359969 39.965013 30.565183 39.693359 30.669922 C 39.421699 30.767678 38.787089 30.816406 37.791016 30.816406 L 36.160156 30.816406 L 36.160156 26.919922 z M 27.259766 27.904297 L 28.753906 33.601562 L 25.783203 33.601562 L 27.259766 27.904297 z "
       style="font-style:normal;font-variant:normal;font-weight:bold;font-stretch:condensed;font-size:19.945px;line-height:1.25;font-family:Arial;-inkscape-font-specification:'Arial Bold Condensed';font-variant-ligatures:normal;font-variant-caps:normal;font-variant-numeric:normal;font-feature-settings:normal;text-align:start;letter-spacing:0px;word-spacing:0px;writing-mode:lr-tb;text-anchor:start;opacity:1;fill:#000000;fill-opacity:1;stroke:none;stroke-width:2.49312;stop-opacity:1"
       id="path872" />
  </g>
</svg>
