<?xml version="1.0" encoding="UTF-8" standalone="no"?>
<svg
   xmlns:dc="http://purl.org/dc/elements/1.1/"
   xmlns:cc="http://creativecommons.org/ns#"
   xmlns:rdf="http://www.w3.org/1999/02/22-rdf-syntax-ns#"
   xmlns:svg="http://www.w3.org/2000/svg"
   xmlns="http://www.w3.org/2000/svg"
   id="svg2"
   version="1.1"
   width="64"
   height="64">
  <metadata
     id="metadata8">
    <rdf:RDF>
      <cc:Work
         rdf:about="">
        <dc:format>image/svg+xml</dc:format>
        <dc:type
           rdf:resource="http://purl.org/dc/dcmitype/StillImage" />
        <dc:title></dc:title>
      </cc:Work>
    </rdf:RDF>
  </metadata>
  <defs
     id="defs6" />
  <g
     id="g3769"
     transform="translate(-107.73191,-4.8418837)">
    <rect
       y="4.8418837"
       x="107.73191"
       height="64"
       width="64"
       id="rect2987"
       style="opacity:1;fill:#ffffff;fill-opacity:1;fill-rule:nonzero;stroke:none;stroke-width:0.636824;stop-opacity:1" />
    <rect
       y="7.3133917"
       x="110.23751"
       height="59.056984"
       width="58.988792"
       id="rect2989"
       style="opacity:1;fill:none;stroke:#000000;stroke-width:3.63133;stroke-miterlimit:4;stroke-dasharray:none;stroke-opacity:1;stop-opacity:1" />
    <path
       id="path835"
       style="font-style:normal;font-variant:normal;font-weight:bold;font-stretch:normal;font-size:26.1211px;line-height:1.25;font-family:Arial;-inkscape-font-specification:'Arial Bold';font-variant-ligatures:normal;font-variant-caps:normal;font-variant-numeric:normal;font-feature-settings:normal;text-align:start;letter-spacing:0px;word-spacing:0px;writing-mode:lr-tb;text-anchor:start;opacity:1;fill:#000000;fill-opacity:1;stroke:none;stroke-width:3.26513;stop-opacity:1"
       d="M 15.806641 21.083984 C 13.487034 21.083984 11.6148 22.058986 10.191406 24.007812 C 8.7680129 25.947038 8.0566406 28.673854 8.0566406 32.1875 C 8.0566406 35.509143 8.7638208 38.128803 10.179688 40.048828 C 11.595548 41.959253 13.404409 42.916016 15.603516 42.916016 C 17.380876 42.916016 18.845774 42.357755 19.998047 41.244141 C 21.157847 40.120927 21.985362 38.407546 22.482422 36.103516 L 19.240234 34.792969 C 18.961581 36.338589 18.501475 37.471397 17.861328 38.191406 C 17.221175 38.911416 16.457039 39.271484 15.568359 39.271484 C 14.363366 39.271484 13.383979 38.705081 12.630859 37.572266 C 11.877746 36.439451 11.501953 34.539928 11.501953 31.871094 C 11.501953 29.35586 11.881931 27.535324 12.642578 26.412109 C 13.410758 25.288895 14.409132 24.728516 15.636719 24.728516 C 16.525399 24.728516 17.278924 25.044126 17.896484 25.677734 C 18.521571 26.311343 18.931146 27.175117 19.126953 28.269531 L 22.4375 27.261719 C 22.060933 25.572097 21.495308 24.277411 20.742188 23.375 C 19.476948 21.848579 17.832527 21.083984 15.806641 21.083984 z M 30.119141 21.445312 L 23.667969 42.554688 L 27.214844 42.554688 L 28.582031 37.759766 L 35.203125 37.759766 L 36.648438 42.554688 L 40.287109 42.554688 L 33.654297 21.445312 L 30.119141 21.445312 z M 42.070312 21.445312 L 42.070312 42.554688 L 47.708984 42.554688 C 49.840311 42.535487 51.182928 42.488911 51.740234 42.412109 C 52.628914 42.287309 53.376022 41.955576 53.978516 41.417969 C 54.588542 40.870761 55.065669 40.146552 55.412109 39.244141 C 55.766069 38.332129 55.943359 37.39556 55.943359 36.435547 C 55.943359 35.216331 55.673106 34.154364 55.130859 33.251953 C 54.588613 32.349541 53.811908 31.712295 52.802734 31.337891 C 53.518194 30.925085 54.083827 30.30608 54.498047 29.480469 C 54.919787 28.654858 55.130859 27.746625 55.130859 26.757812 C 55.130859 25.8458 54.959994 25.026484 54.621094 24.296875 C 54.282187 23.557665 53.857823 22.966997 53.345703 22.525391 C 52.84111 22.083785 52.264868 21.794558 51.617188 21.660156 C 50.977041 21.516154 50.001833 21.445312 48.691406 21.445312 L 42.070312 21.445312 z M 45.414062 24.958984 L 47.335938 24.958984 C 48.909951 24.958984 49.861986 24.98325 50.193359 25.03125 C 50.750666 25.117651 51.168606 25.366491 51.447266 25.779297 C 51.733446 26.182502 51.876953 26.710473 51.876953 27.363281 C 51.876953 28.044891 51.71028 28.597127 51.378906 29.019531 C 51.055066 29.432337 50.60753 29.681177 50.035156 29.767578 C 49.71885 29.815578 48.910315 29.839844 47.607422 29.839844 L 45.414062 29.839844 L 45.414062 24.958984 z M 31.847656 26.369141 L 34.128906 34.203125 L 29.611328 34.203125 L 31.847656 26.369141 z M 45.414062 33.353516 L 48.115234 33.353516 C 49.636528 33.353516 50.622345 33.454648 51.074219 33.65625 C 51.533619 33.857853 51.884 34.179488 52.125 34.621094 C 52.365993 35.062699 52.486328 35.600766 52.486328 36.234375 C 52.486328 36.983185 52.328025 37.581997 52.011719 38.033203 C 51.702945 38.474808 51.299801 38.753939 50.802734 38.869141 C 50.478894 38.955542 49.714752 38.998047 48.509766 38.998047 L 45.414062 38.998047 L 45.414062 33.353516 z "
       transform="translate(107.73191,4.8418837)" />
  </g>
</svg>
