<?xml version="1.0" encoding="UTF-8" standalone="no"?>
<svg
   xmlns:dc="http://purl.org/dc/elements/1.1/"
   xmlns:cc="http://creativecommons.org/ns#"
   xmlns:rdf="http://www.w3.org/1999/02/22-rdf-syntax-ns#"
   xmlns:svg="http://www.w3.org/2000/svg"
   xmlns="http://www.w3.org/2000/svg"
   xmlns:sodipodi="http://sodipodi.sourceforge.net/DTD/sodipodi-0.dtd"
   xmlns:inkscape="http://www.inkscape.org/namespaces/inkscape"
   id="svg2"
   version="1.1"
   inkscape:version="1.0alpha2 (a30573dbe8, 2019-07-23)"
   width="64"
   height="64"
   sodipodi:docname="sig_ccdist.svg">
  <metadata
     id="metadata8">
    <rdf:RDF>
      <cc:Work
         rdf:about="">
        <dc:format>image/svg+xml</dc:format>
        <dc:type
           rdf:resource="http://purl.org/dc/dcmitype/StillImage" />
        <dc:title></dc:title>
      </cc:Work>
    </rdf:RDF>
  </metadata>
  <defs
     id="defs6" />
  <sodipodi:namedview
     pagecolor="#ffffff"
     bordercolor="#666666"
     borderopacity="1"
     objecttolerance="10"
     gridtolerance="10"
     guidetolerance="10"
     inkscape:pageopacity="0"
     inkscape:pageshadow="2"
     inkscape:window-width="1920"
     inkscape:window-height="1024"
     id="namedview4"
     showgrid="false"
     inkscape:snap-bbox="true"
     inkscape:bbox-paths="true"
     inkscape:bbox-nodes="true"
     inkscape:snap-bbox-edge-midpoints="true"
     inkscape:snap-bbox-midpoints="true"
     inkscape:object-paths="true"
     inkscape:object-nodes="true"
     inkscape:snap-intersection-paths="true"
     inkscape:snap-smooth-nodes="true"
     inkscape:snap-midpoints="true"
     inkscape:snap-object-midpoints="true"
     inkscape:snap-center="true"
     inkscape:snap-page="true"
     inkscape:zoom="1.6522495"
     inkscape:cx="-60.201106"
     inkscape:cy="66.540173"
     inkscape:window-x="0"
     inkscape:window-y="0"
     inkscape:window-maximized="1"
     inkscape:current-layer="g3769"
     inkscape:document-rotation="0">
    <inkscape:grid
       type="xygrid"
       id="grid865" />
  </sodipodi:namedview>
  <g
     id="g3769"
     transform="translate(-107.73191,-4.8418837)">
    <g
       transform="matrix(0.64,0,0,0.63366337,38.783488,1.7737593)"
       id="g841">
      <rect
         style="opacity:1;fill:#ffffff;fill-opacity:1;fill-rule:nonzero;stroke:none;stop-opacity:1"
         id="rect2987"
         width="100"
         height="101"
         x="107.73191"
         y="4.8418837" />
      <rect
         style="opacity:1;fill:none;stroke:#000000;stroke-width:5.70225;stroke-miterlimit:4;stroke-dasharray:none;stroke-opacity:1;stop-opacity:1"
         id="rect2989"
         width="92.169991"
         height="93.199303"
         x="111.64691"
         y="8.7422323" />
      <g
         transform="matrix(0.34220027,0,0,0.34220027,164.66766,19.78863)"
         id="g889">
        <path
           style="fill:#000000;stroke-width:1.02518"
           d="m -106.20108,201.41503 c -4.10182,-0.47891 -11.5102,-7.94703 -12.89924,-13.00325 -1.99036,-7.24494 -1.7601,-7.68887 3.9879,-7.68887 3.93994,0 5.12594,0.36659 5.12594,1.58437 0,5.65641 11.916776,9.05285 16.318579,4.65103 3.899323,-3.89931 4.184088,-23.14748 0.396976,-26.83173 -2.796462,-2.7205 -11.448595,-2.97747 -14.009965,-0.41609 l -12.87926,-6.1549 -0.10794,-36.71371 h 37 v 13 h -26 c -0.20071,4.95505 -0.60716,10.04464 -0.80788,14.99968 h 7.15443 c 16.45458,0 22.665677,7.79265 22.665677,28.43719 0,12.17214 -1.366544,17.5532 -5.76161,22.68784 -4.973945,5.81095 -8.628699,6.79755 -20.183257,5.44845 z m 41.634408,-11.35519 c -1.701418,-6.21796 -2.16952,-56.35979 0.232738,-61.97441 6.565844,-15.34678 29.056519,-15.12756 36.235862,0.35321 2.073654,4.47143 1.918248,54.9918 -0.186963,60.81833 -3.605113,9.97713 -3.983055,12.58491 -18.983055,12.58491 -15,0 -15,-7 -17.298582,-11.78204 z m 27.298582,-30.21796 c 0,-25 4e-6,-30 -10,-30 -10,0 -9,10 -9,30 0,25 -1,30 9,30 10,0 10,-5 10,-30 z m 80,6 c 3.065483,-0.52939 9,-1 12.278175,1.09292 1.262553,1.23171 1.714748,1.23502 3.075521,0.0226 1.57633,-1.40459 7.126163,-1.34524 10.646304,-1.11552 5.286851,0.34498 6.446115,35.38477 1.200848,35.38477 -1.290953,0 -1.537777,-2.22123 -1.537777,-13.83995 0,-15.48193 -1.286375,-18.91418 -6.383265,-17.03153 -2.260005,0.83479 -2.339368,1.31637 -2.614462,15.8662 -0.267552,14.15825 -0.397911,15.00532 -2.306649,15.00532 -1.917346,0 -2.02298,-0.74816 -2.02298,-14.32891 0,-14.19167 -0.02579,-14.34516 -2.589222,-16.02544 -5.327984,-3.49102 -6.637407,-0.30282 -6.637407,16.1607 0,13.56416 -0.09187,14.19365 -2.074008,14.19365 -4.035078,-0.38481 -2.55604,-33.37551 -1.035078,-35.38481 z M -110.1456,93.027144 c -7.5806,-2.671186 -13.29199,-8.579311 -16.00796,-16.559353 l -1.11453,-3.274708 5.75313,-1.2875 c 4.91247,-1.099363 5.82534,-1.070261 6.24704,0.199181 2.00561,6.037252 11.46069,9.147372 15.507161,5.100877 6.252583,-6.252574 3.951962,-11.953421 -8.703321,-21.566568 -13.97148,-10.612942 -16.90839,-15.429135 -16.8719,-27.668236 0.0751,-25.2223423 30.701477,-30.1926348 40.566039,-6.583393 2.081422,4.981497 1.959444,5.183447 -3.821056,6.326395 l -5.259258,1.039883 -4.30426,-4.492168 c -6.124315,-6.391712 -11.838065,-5.751403 -14.912615,1.671182 -2.54712,6.149298 -0.28496,9.718572 12.01181,18.953601 12.671111,9.516084 14.918383,12.863905 15.49868,23.089065 1.005188,17.71171 -10.925097,29.866533 -24.58896,25.051759 z M -1.3453971,92.914934 C -13.698994,84.665297 -14.506388,82.037661 -14.69838,49.458148 -14.861812,21.732776 -14.316909,18.516914 -8.3616951,12.056259 2.1623006,0.63907305 19.108082,6.0418353 23.841263,22.323413 c 1.920891,6.607654 1.672777,7.244136 -3.178545,8.154253 -2.019757,0.378905 -4.303358,0.931096 -5.074712,1.227088 -0.964411,0.370079 -1.620073,-0.621989 -2.099281,-3.176327 -1.506089,-8.028078 -9.4529832,-10.660929 -14.6008365,-4.837319 -3.7318286,4.221757 -3.1060802,48.802018 0.74247173,52.895364 5.01046717,5.329124 12.16892177,2.403389 13.94897777,-5.70106 0.648378,-2.952119 0.889754,-3.086214 4.427914,-2.460153 8.146333,1.441458 8.34358,1.771691 6.182988,10.352144 C 21.526232,89.357188 6.1088474,97.892847 -1.3453971,92.914934 Z M 65.73191,92.841884 c 0,0 9,-34 11,-34 2,0 10,34 10,34 h -4 l -2,-5 h -9 l -2,5 z m 14,-9 -3,-16 -4,16 z m -149,-76.0000003 h 40 V 21.841884 l -28.100522,-0.02215 0.100522,21.022154 h 14 v 14 h -14 v 21 h 28 v 15 h -40 V 7.8418877 Z m 115,6.0000003 h -12 V 5.8418837 l 30.049773,0.087541 -0.04977,7.9124593 h -11 V 50.524808 H 45.73191 Z"
           id="path863"
           inkscape:connector-curvature="0"
           sodipodi:nodetypes="ccsscscccccccssccccccccccccccccccssccsscscccscsccsccsccccsccccssccccccscccsccccccccccccccccccccccccccccccccc" />
        <path
           sodipodi:nodetypes="ccccccccccc"
           inkscape:connector-curvature="0"
           id="path863-9"
           d="m -10.56667,190.05984 c -1.70142,-6.21796 -2.16952,-56.35979 0.23274,-61.97441 6.56584,-15.34678 29.05651,-15.12756 36.23586,0.35321 2.07365,4.47143 1.91825,54.9918 -0.18697,60.81833 -3.60511,9.97713 -3.98305,12.58491 -18.98305,12.58491 -15.0000001,0 -15.0000001,-7 -17.29858,-11.78204 z m 27.29858,-30.21796 c 0,-25 0,-30 -10,-30 -10,0 -9,10 -9,30 0,25 -1,30 9,30 10,0 10,-5 10,-30 z"
           style="fill:#000000;stroke-width:1.02518" />
      </g>
    </g>
  </g>
</svg>
