<?xml version="1.0" encoding="UTF-8" standalone="no"?>
<svg
   xmlns:dc="http://purl.org/dc/elements/1.1/"
   xmlns:cc="http://creativecommons.org/ns#"
   xmlns:rdf="http://www.w3.org/1999/02/22-rdf-syntax-ns#"
   xmlns:svg="http://www.w3.org/2000/svg"
   xmlns="http://www.w3.org/2000/svg"
   xmlns:sodipodi="http://sodipodi.sourceforge.net/DTD/sodipodi-0.dtd"
   xmlns:inkscape="http://www.inkscape.org/namespaces/inkscape"
   id="svg2"
   version="1.1"
   width="64"
   height="64"
   sodipodi:docname="sig_cab_exe.svg"
   inkscape:version="1.0alpha2 (a30573dbe8, 2019-07-23)">
  <sodipodi:namedview
     pagecolor="#ffffff"
     bordercolor="#666666"
     inkscape:document-rotation="0"
     borderopacity="1"
     objecttolerance="10"
     gridtolerance="10"
     guidetolerance="10"
     inkscape:pageopacity="0"
     inkscape:pageshadow="2"
     inkscape:window-width="1568"
     inkscape:window-height="650"
     id="namedview9"
     showgrid="false"
     inkscape:zoom="4.6875"
     inkscape:cx="33.1175"
     inkscape:cy="29.573333"
     inkscape:window-x="23"
     inkscape:window-y="15"
     inkscape:window-maximized="0"
     inkscape:current-layer="svg2" />
  <metadata
     id="metadata8">
    <rdf:RDF>
      <cc:Work
         rdf:about="">
        <dc:format>image/svg+xml</dc:format>
        <dc:type
           rdf:resource="http://purl.org/dc/dcmitype/StillImage" />
        <dc:title />
      </cc:Work>
    </rdf:RDF>
  </metadata>
  <defs
     id="defs6" />
  <g
     style="opacity:1;stop-opacity:1"
     id="g3761"
     transform="matrix(0.64,0,0,0.63366337,-68.948423,-3.0681245)">
    <rect
       y="4.8418837"
       x="107.73191"
       height="101"
       width="100"
       id="rect2987"
       style="fill:#000000;fill-opacity:1;fill-rule:nonzero;stroke:none" />
    <rect
       y="8.7422323"
       x="111.64691"
       height="93.199303"
       width="92.169991"
       id="rect2989"
       style="fill:none;stroke:#ffffff;stroke-width:5.70225;stroke-miterlimit:4;stroke-dasharray:none;stroke-opacity:1" />
  </g>
  <path
     id="path835"
     style="fill:#ffffff;fill-opacity:1;stroke:none;stroke-width:3.26513;stop-opacity:1"
     d="m 15.806642,21.083984 c -2.319607,0 -4.191841,0.975002 -5.615235,2.923828 -1.4233932,1.939226 -2.1347662,4.666042 -2.1347662,8.179688 0,3.321643 0.707181,5.941303 2.1230482,7.861328 1.41586,1.910425 3.224721,2.867188 5.423828,2.867188 1.77736,0 3.242257,-0.558261 4.39453,-1.671875 1.1598,-1.123214 1.987315,-2.836595 2.484375,-5.140625 l -3.242188,-1.310547 c -0.278653,1.54562 -0.738759,2.678428 -1.378905,3.398437 -0.640153,0.72001 -1.404289,1.080078 -2.292969,1.080078 -1.204993,0 -2.18438,-0.566403 -2.9375,-1.699218 -0.753113,-1.132815 -1.128906,-3.032338 -1.128906,-5.701172 0,-2.515234 0.379978,-4.33577 1.140625,-5.458985 0.76818,-1.123214 1.766554,-1.683593 2.994141,-1.683593 0.88868,0 1.642205,0.31561 2.259765,0.949218 0.625086,0.633609 1.034661,1.497383 1.230468,2.591797 L 22.4375,27.261719 C 22.060933,25.572097 21.495308,24.277411 20.742188,23.375 c -1.26524,-1.526421 -2.90966,-2.291016 -4.935546,-2.291016 z m 14.312499,0.361328 -6.451172,21.109376 h 3.546875 l 1.367187,-4.794922 h 6.621094 l 1.445313,4.794922 h 3.638671 L 33.654297,21.445312 Z m 11.951171,0 v 21.109376 h 5.638672 c 2.131327,-0.0192 3.473944,-0.06578 4.03125,-0.142579 0.88868,-0.1248 1.635788,-0.456533 2.238282,-0.99414 0.610026,-0.547208 1.087153,-1.271417 1.433593,-2.173828 0.35396,-0.912012 0.53125,-1.848581 0.53125,-2.808594 0,-1.219216 -0.270253,-2.281183 -0.8125,-3.183594 -0.542246,-0.902412 -1.318951,-1.539658 -2.328125,-1.914062 0.71546,-0.412806 1.281093,-1.031811 1.695313,-1.857422 0.42174,-0.825611 0.632812,-1.733844 0.632812,-2.722657 0,-0.912012 -0.170865,-1.731328 -0.509765,-2.460937 -0.338907,-0.73921 -0.763271,-1.329878 -1.275391,-1.771484 -0.504593,-0.441606 -1.080835,-0.730833 -1.728515,-0.865235 -0.640147,-0.144002 -1.615355,-0.214844 -2.925782,-0.214844 z m 3.34375,3.513672 h 1.921876 c 1.574013,0 2.526048,0.02427 2.857421,0.07227 0.557307,0.0864 0.975247,0.335241 1.253907,0.748047 0.28618,0.403205 0.429687,0.931176 0.429687,1.583984 0,0.68161 -0.166673,1.233846 -0.498047,1.65625 -0.32384,0.412806 -0.771376,0.661646 -1.34375,0.748047 -0.316306,0.048 -1.124841,0.07227 -2.427734,0.07227 h -2.19336 z m -13.566406,1.410157 2.28125,7.833984 h -4.517578 z m 13.566406,6.984375 h 2.701172 c 1.521294,0 2.507111,0.101132 2.958985,0.302734 0.4594,0.201603 0.809781,0.523238 1.050781,0.964844 0.240993,0.441605 0.361328,0.979672 0.361328,1.613281 0,0.74881 -0.158303,1.347622 -0.474609,1.798828 -0.308774,0.441605 -0.711918,0.720736 -1.208985,0.835938 -0.32384,0.0864 -1.087982,0.128906 -2.292968,0.128906 h -3.095704 z"
     inkscape:connector-curvature="0" />
</svg>
