<svg xmlns="http://www.w3.org/2000/svg" width="64" height="64"><path d="M-42.268-5.158h64v64h-64z" style="fill:#fff;fill-opacity:1;fill-rule:nonzero;stroke:none;stroke-width:.636824" transform="translate(42.268 5.158)"/><path d="M-39.281-2.171h58.026v58.026h-58.026z" style="fill:none;stroke:#000;stroke-width:3.97394;stroke-miterlimit:4;stroke-dasharray:none;stroke-opacity:1" transform="translate(42.268 5.158)"/><g aria-label="SEC À" style="font-style:normal;font-variant:normal;font-weight:400;font-stretch:normal;font-size:15.6472px;line-height:1.25;font-family:Roboto;font-variant-ligatures:normal;font-variant-caps:normal;font-variant-numeric:normal;font-feature-settings:normal;text-align:start;letter-spacing:0;word-spacing:0;writing-mode:lr-tb;text-anchor:start;fill:#000;fill-opacity:1;stroke:none;stroke-width:1.9559"><g style="font-style:normal;font-variant:normal;font-weight:400;font-stretch:normal;font-size:13px;line-height:1.25;font-family:Roboto;font-variant-ligatures:normal;font-variant-caps:normal;font-variant-numeric:normal;font-feature-settings:normal;text-align:start;letter-spacing:0;word-spacing:0;writing-mode:lr-tb;text-anchor:start;fill:#000;fill-opacity:1;stroke:none;stroke-width:3.17834"><path d="M133.302 20.59v-3.123h1.561q.292 0 .572.14.279.126.507.342.216.229.343.508.127.292.127.571 0 .292-.127.559-.127.292-.343.508-.228.228-.507.368-.292.127-.572.127zm0 2.336h1.561q.711 0 1.41-.318.698-.33 1.282-.901.558-.559.876-1.257.33-.698.33-1.422 0-.71-.33-1.409-.33-.698-.876-1.282-.572-.559-1.283-.876-.698-.33-1.409-.33h-3.91v13h2.349zm9.75-2.235 3.11 7.44h2.349v-13h-2.349v7.44l-3.11-7.44h-2.349v13h2.349z" aria-label="PN" style="font-style:normal;font-variant:normal;font-weight:400;font-stretch:normal;font-family:PoliceSNCF;stroke-width:3.17834" transform="translate(-107.732 -6.443)"/></g><g style="font-style:normal;font-variant:normal;font-weight:400;font-stretch:normal;font-size:13px;line-height:1.25;font-family:Roboto;font-variant-ligatures:normal;font-variant-caps:normal;font-variant-numeric:normal;font-feature-settings:normal;text-align:start;letter-spacing:0;word-spacing:0;writing-mode:lr-tb;text-anchor:start;fill:#000;fill-opacity:1;stroke:none;stroke-width:3.17834"><path d="M133.587 45.205h2.349v-13h-2.349zm8.392 0q.71 0 1.41-.33.697-.33 1.281-.889.559-.558.876-1.27.33-.697.33-1.408v-5.205q0-.711-.33-1.41-.33-.698-.876-1.282-.57-.558-1.282-.876-.698-.33-1.409-.33t-1.422.33q-.698.33-1.257.876-.571.571-.901 1.282-.33.699-.317 1.41v5.205q0 .71.317 1.409.33.698.901 1.27.559.57 1.257.888.711.33 1.422.33m0-2.336q-.292 0-.559-.14-.292-.126-.507-.355-.229-.216-.369-.508-.127-.28-.127-.558v-5.205q0-.292.127-.572t.369-.508q.215-.215.507-.342.28-.127.559-.14.292 0 .571.14.28.127.508.342.216.229.343.508.127.292.14.572v5.205q0 .292-.14.558-.127.292-.343.508-.228.229-.508.356-.279.14-.571.14z" aria-label="10" style="font-style:normal;font-variant:normal;font-weight:400;font-stretch:normal;font-family:PoliceSNCF;stroke-width:3.17834" transform="translate(-107.732 -6.443)"/></g><g style="font-style:normal;font-variant:normal;font-weight:400;font-stretch:normal;font-size:13px;line-height:1.25;font-family:Roboto;font-variant-ligatures:normal;font-variant-caps:normal;font-variant-numeric:normal;font-feature-settings:normal;text-align:start;letter-spacing:0;word-spacing:0;writing-mode:lr-tb;text-anchor:start;fill:#000;fill-opacity:1;stroke:none;stroke-width:3.17834"><path d="M118.638 57.463q-2.146 0-2.146 2.146t2.146 2.145h2.145v-5.002q0-2.145-2.145-2.145t-2.146 2.145h1.435q0-.279.216-.495.203-.216.495-.228.292 0 .508.215.203.216.215.508 0 .28-.215.495-.216.216-.508.216m.723.711v1.435q0 .279-.215.495-.216.216-.508.216t-.495-.216q-.216-.216-.216-.495 0-.28.216-.495.203-.216.495-.216t.508-.229q.215-.216.215-.495m0-4.29-.723-1.423h-1.168l1.168 1.422zm11.847-1.232q-.444 0-.61.025t-.304.089V51.09h4.164v-2.336h-6.5v5.827l2.336.762q.012-.114.203-.228.19-.115.71-.115.293 0 .572.127.28.127.508.343.216.229.343.508.127.292.14.571v1.308q0 .292-.14.558-.127.292-.343.508-.229.229-.508.356-.292.127-.571.14-.292 0-.559-.14-.292-.127-.508-.356-.228-.216-.368-.508-.127-.279-.127-.558h-2.336q0 .71.318 1.409.33.698.901 1.27.559.57 1.257.888.698.33 1.422.33.71 0 1.409-.33.698-.33 1.282-.889.559-.558.876-1.27.33-.697.33-1.408v-1.308q0-.71-.33-1.409-.33-.698-.876-1.282-.571-.559-1.282-.876-.698-.33-1.41-.33zm9.483 9.102q.711 0 1.41-.33.698-.33 1.282-.889.558-.558.876-1.27.33-.697.33-1.408v-5.205q0-.711-.33-1.41-.33-.698-.876-1.282-.572-.558-1.283-.876-.698-.33-1.409-.33-.71 0-1.422.33-.698.33-1.256.876-.572.572-.902 1.283-.33.698-.317 1.409v5.205q0 .71.317 1.409.33.698.902 1.27.558.57 1.256.888.711.33 1.422.33m0-2.336q-.292 0-.558-.14-.292-.126-.508-.355-.229-.216-.368-.508-.127-.279-.127-.558v-5.205q0-.292.127-.572t.368-.507q.216-.216.508-.343.279-.127.558-.14.292 0 .572.14.279.127.507.343.216.228.343.507.127.292.14.572v5.205q0 .292-.14.558-.127.292-.343.508-.228.229-.507.356-.28.14-.572.14zm9.484 2.336q.71 0 1.409-.33.698-.33 1.282-.889.559-.558.876-1.27.33-.697.33-1.408v-5.205q0-.711-.33-1.41-.33-.698-.876-1.282-.571-.558-1.282-.876-.698-.33-1.41-.33-.71 0-1.421.33-.698.33-1.257.876-.571.572-.901 1.283-.33.698-.318 1.409v5.205q0 .71.318 1.409.33.698.9 1.27.56.57 1.258.888.71.33 1.422.33m0-2.336q-.292 0-.559-.14-.292-.126-.508-.355-.228-.216-.368-.508-.127-.279-.127-.558v-5.205q0-.292.127-.572t.368-.507q.216-.216.508-.343.28-.127.559-.14.292 0 .57.14.28.127.509.343.216.228.343.507.126.292.14.572v5.205q0 .292-.14.558-.127.292-.343.508-.229.229-.508.356-.28.14-.571.14zm10.651-4.811q-.508 0-.85.101-.343.115-.585.292-.203-.165-.545-.292-.356-.101-.876-.101-.292 0-.432.012-.152.026-.292.064v-.076h-1.422v7.147h1.422v-5.002q0-.279.228-.495.204-.216.496-.228.292 0 .507.215.204.216.204.508v5.002h1.434v-5.002q0-.279.216-.495.203-.216.495-.228.292 0 .508.215.203.216.203.508v5.002h1.435v-5.002q0-2.145-2.146-2.145" aria-label="à 500m" style="font-style:normal;font-variant:normal;font-weight:400;font-stretch:normal;font-family:PoliceSNCF;stroke-width:3.17834" transform="translate(-107.732 -6.443)"/></g></g></svg>