<svg xmlns="http://www.w3.org/2000/svg" width="64" height="64"><path d="M107.732 4.842h64v64h-64z" style="fill:#000;fill-opacity:1;fill-rule:nonzero;stroke:none;stroke-width:.636824" transform="translate(-107.732 -4.842)"/><path d="M110.719 7.829h58.026v58.026h-58.026z" style="fill:none;stroke:#fff;stroke-width:3.97394;stroke-miterlimit:4;stroke-dasharray:none;stroke-opacity:1" transform="translate(-107.732 -4.842)"/><path d="M125.259 52.842v-32h13.682q5.162 0 7.5.862 2.34.862 3.745 3.067t1.405 5.042q0 3.602-2.13 5.948t-6.369 2.958q2.109 1.222 3.481 2.685 1.373 1.463 3.7 5.195l3.932 6.243h-7.775l-4.7-6.963q-2.503-3.733-3.426-4.704-.922-.972-1.954-1.332c-1.032-.36-1.78-.36-3.273-.36h-1.317v13.359zm6.5-18.467h4.81q4.678 0 5.842-.393t1.823-1.353q.66-.96.659-2.401 0-1.615-.867-2.608-.868-.994-2.45-1.256-.79-.108-4.743-.109h-5.073z" style="font-style:normal;font-variant:normal;font-weight:700;font-stretch:normal;font-size:79.8359px;line-height:125%;font-family:Arial;text-align:center;letter-spacing:0;word-spacing:0;text-anchor:middle;fill:#fff;fill-opacity:1;stroke:none;stroke-width:.561665" transform="translate(-107.732 -4.842)"/></svg>