<svg xmlns="http://www.w3.org/2000/svg" width="64" height="64"><path d="M107.732 4.842h64v64h-64z" style="fill:#000;fill-opacity:1;fill-rule:nonzero;stroke:none;stroke-width:.636824" transform="translate(-107.732 -4.842)"/><path d="M110.719 7.829h58.026v58.026h-58.026z" style="fill:none;stroke:#fff;stroke-width:3.97394;stroke-miterlimit:4;stroke-dasharray:none;stroke-opacity:1" transform="translate(-107.732 -4.842)"/><path d="M125.259 52.842v-32h13.682c3.441 0 5.941.287 7.5.862 1.56.575 2.808 1.597 3.745 3.067.937 1.47 1.405 3.15 1.405 5.042 0 2.401-.71 4.384-2.13 5.948-1.42 1.565-3.543 2.55-6.369 2.958 1.406.815 2.566 1.71 3.481 2.685.915.975 2.149 2.707 3.7 5.195l3.932 6.243h-7.775l-4.7-6.963c-1.669-2.489-2.81-4.057-3.426-4.704-.615-.648-1.266-1.092-1.954-1.332s-1.78-.36-3.273-.36h-1.317v13.359zm6.5-18.467h4.81c3.119 0 5.066-.13 5.842-.393.776-.262 1.384-.713 1.823-1.353.44-.64.659-1.44.659-2.401 0-1.077-.29-1.946-.867-2.608-.579-.663-1.395-1.081-2.45-1.256-.526-.072-2.108-.109-4.743-.109h-5.073z" style="font-style:normal;font-variant:normal;font-weight:700;font-stretch:normal;font-size:79.8359px;line-height:125%;font-family:Arial;text-align:center;letter-spacing:0;word-spacing:0;text-anchor:middle;fill:#fff;fill-opacity:1;stroke:none;stroke-width:.561665" transform="translate(-107.732 -4.842)"/></svg>