<svg xmlns="http://www.w3.org/2000/svg" width="64" height="64"><path d="M-42.268-5.158h64v64h-64z" style="fill:#fff;fill-opacity:1;fill-rule:nonzero;stroke:none;stroke-width:.636824" transform="translate(42.268 5.158)"/><path d="M-39.281-2.171h58.026v58.026h-58.026z" style="fill:none;stroke:#000;stroke-width:3.97394;stroke-miterlimit:4;stroke-dasharray:none;stroke-opacity:1" transform="translate(42.268 5.158)"/><g aria-label="SEC À" style="font-style:normal;font-variant:normal;font-weight:400;font-stretch:normal;font-size:15.6472px;line-height:1.25;font-family:Roboto;font-variant-ligatures:normal;font-variant-caps:normal;font-variant-numeric:normal;font-feature-settings:normal;text-align:start;letter-spacing:0;word-spacing:0;writing-mode:lr-tb;text-anchor:start;fill:#000;fill-opacity:1;stroke:none;stroke-width:1.9559"><path d="M126.658 23.042q0-.856-.366-1.696-.382-.81-1.009-1.467-.657-.642-1.482-1.009t-1.68-.366q-.857 0-1.682.366-.825.383-1.467 1.009-.641.657-1.023 1.467-.382.825-.367 1.696 0 .856.367 1.68.382.826 1.023 1.468.642.642 1.467 1.008.81.382 1.681.382.352 0 .688.153t.611.428q.26.275.413.611.152.352.168.688 0 .351-.168.672-.153.352-.413.611-.275.275-.611.428-.352.153-.688.168-.351 0-.672-.168-.352-.153-.611-.428-.275-.26-.444-.61-.152-.337-.152-.673h-2.812q0 .856.382 1.696.397.84 1.085 1.528.672.688 1.513 1.07.84.397 1.711.397.856 0 1.696-.397.84-.398 1.544-1.07.672-.672 1.054-1.528.397-.84.397-1.696t-.397-1.712q-.397-.84-1.054-1.528-.688-.672-1.544-1.07-.84-.397-1.696-.381-.703 0-1.207-.52-.52-.504-.52-1.207t.52-1.222q.504-.505 1.207-.505t1.223.505q.504.52.489 1.222zm5.547 1.834v-3.56h6.57v-2.812h-9.397V34.15h9.398v-2.812h-6.57v-3.652h2.81v-2.811zm17.756 4.584h-2.811q0 .351-.169.672-.152.352-.412.611-.275.275-.611.428-.352.153-.688.168-.351 0-.672-.168-.352-.153-.612-.428-.275-.26-.443-.61-.152-.337-.152-.673v-6.265q0-.352.152-.688.153-.336.444-.611.26-.26.61-.413.337-.152.673-.168.352 0 .688.168.336.153.61.413.26.275.413.611.153.352.169.688h2.811q0-.856-.397-1.696t-1.054-1.544q-.688-.672-1.544-1.054-.84-.397-1.696-.397t-1.711.397q-.84.397-1.513 1.054-.688.688-1.085 1.544-.397.84-.382 1.696v6.265q0 .856.382 1.696.397.84 1.085 1.528.672.688 1.513 1.07.84.397 1.711.397.856 0 1.696-.397.84-.398 1.544-1.07.672-.672 1.054-1.528.397-.84.397-1.696" style="font-style:normal;font-variant:normal;font-weight:400;font-stretch:normal;font-family:PoliceSNCF;stroke-width:1.9559" transform="translate(-107.732 -4.842)"/><path d="m160.354 32.745.351 1.406h1.33l-1.643-7.824h-1.413l-1.643 7.824h1.413l.306-1.406zm-.672-2.773.336 1.36h-.642zm-.566-6.464.741 1.414h1.093l-.703-1.414z" style="font-size:7.8236px;stroke-width:1.9559" transform="translate(-107.732 -4.842)"/></g><g style="font-style:normal;font-variant:normal;font-weight:400;font-stretch:normal;font-size:15.6472px;line-height:1.25;font-family:Roboto;font-variant-ligatures:normal;font-variant-caps:normal;font-variant-numeric:normal;font-feature-settings:normal;text-align:start;letter-spacing:0;word-spacing:0;writing-mode:lr-tb;text-anchor:start;fill:#000;fill-opacity:1;stroke:none;stroke-width:1.9559"><path d="M122.12 44.224q-.535 0-.733.03-.199.031-.367.107v-2.017h5.012v-2.811h-7.824v7.014l2.812.916q.015-.137.244-.275.23-.137.856-.137.352 0 .688.153.336.152.611.412.26.275.413.611.152.352.168.688v1.574q0 .351-.168.672-.153.352-.413.611-.275.276-.611.428-.352.153-.688.168-.351 0-.672-.168-.352-.152-.611-.428-.275-.26-.444-.61-.152-.337-.152-.673h-2.812q0 .856.382 1.696.397.84 1.085 1.528.672.688 1.513 1.07.84.397 1.711.397.856 0 1.696-.397.84-.398 1.544-1.07.672-.672 1.054-1.528.397-.84.397-1.696v-1.574q0-.856-.397-1.696t-1.054-1.543q-.688-.673-1.544-1.055-.84-.397-1.696-.397m11.415 10.956q.855 0 1.696-.397.84-.398 1.543-1.07.672-.672 1.054-1.528.398-.84.398-1.696v-6.265q0-.856-.398-1.696-.397-.84-1.054-1.544-.687-.672-1.543-1.054-.84-.397-1.696-.397t-1.712.397q-.84.397-1.513 1.054-.687.688-1.084 1.544-.398.84-.382 1.696v6.265q0 .856.382 1.696.397.84 1.084 1.528.673.688 1.513 1.07.856.397 1.712.397m0-2.812q-.352 0-.673-.168-.351-.152-.61-.428-.276-.26-.444-.61-.153-.337-.153-.673v-6.265q0-.352.153-.688t.443-.61q.26-.26.611-.414.336-.152.673-.168.351 0 .687.168.336.153.612.413.26.275.412.611.153.352.168.688v6.265q0 .351-.168.672-.153.352-.413.611-.275.276-.61.428-.337.168-.688.168m11.415 2.812q.855 0 1.695-.397.84-.398 1.544-1.07.672-.672 1.054-1.528.397-.84.397-1.696v-6.265q0-.856-.397-1.696t-1.054-1.544q-.688-.672-1.544-1.054-.84-.397-1.696-.397t-1.711.397q-.84.397-1.513 1.054-.688.688-1.085 1.544-.397.84-.382 1.696v6.265q0 .856.382 1.696.397.84 1.085 1.528.672.688 1.513 1.07.855.397 1.711.397zm0-2.812q-.352 0-.673-.168-.352-.152-.611-.428-.275-.26-.444-.61-.152-.337-.152-.673v-6.265q0-.352.152-.688.153-.336.444-.61.26-.26.61-.414.337-.152.673-.168.352 0 .688.168.336.153.611.413.26.275.413.611.152.352.168.688v6.265q0 .351-.168.672-.153.352-.413.611-.275.276-.611.428-.336.168-.688.168zm12.82-5.791q-.612 0-1.024.122-.413.138-.703.352-.245-.199-.657-.352-.428-.122-1.055-.122-.351 0-.52.015-.183.03-.35.077v-.092h-1.712v8.603h1.711v-6.02q0-.337.275-.596.245-.26.596-.275.352 0 .612.26.244.259.244.61v6.021h1.727v-6.02q0-.337.26-.596.244-.26.595-.275.352 0 .612.26.244.259.244.61v6.021h1.727v-6.02q0-2.583-2.583-2.583z" aria-label="500m" style="font-style:normal;font-variant:normal;font-weight:400;font-stretch:normal;font-family:PoliceSNCF;stroke-width:1.9559" transform="translate(-107.732 -4.842)"/></g><g style="font-style:normal;font-variant:normal;font-weight:400;font-stretch:normal;font-size:7.8236px;line-height:1.25;font-family:Roboto;font-variant-ligatures:normal;font-variant-caps:normal;font-variant-numeric:normal;font-feature-settings:normal;text-align:start;letter-spacing:0;word-spacing:0;writing-mode:lr-tb;text-anchor:start;fill:#000;fill-opacity:1;stroke:none;stroke-width:1.9559"><path d="M153.638 19.91h1.643v-1.406h-4.691v1.406h1.642v6.417h1.406z" aria-label="T" style="font-style:normal;font-variant:normal;font-weight:400;font-stretch:normal;font-family:PoliceSNCF;stroke-width:1.9559" transform="translate(-107.732 -4.842)"/></g></svg>