<svg xmlns="http://www.w3.org/2000/svg" width="64" height="64"><g aria-label="60" style="font-style:normal;font-variant:normal;font-weight:400;font-stretch:normal;font-size:30px;line-height:1.25;font-family:Roboto;font-variant-ligatures:normal;font-variant-caps:normal;font-variant-numeric:normal;font-feature-settings:normal;text-align:start;letter-spacing:0;word-spacing:0;writing-mode:lr-tb;text-anchor:start;fill:#000;fill-opacity:1;stroke:none;stroke-width:3.75"><path d="M119.732 4.842h40v46.545l-20 17.455-20-17.455z" style="fill:#000;fill-opacity:1;stroke:none;stroke-width:1.17004px;stroke-linecap:butt;stroke-linejoin:miter;stroke-opacity:1" transform="translate(-107.732 -4.842)"/><path d="M120.732 5.842h38v45l-19 16.489-19-16.49z" style="fill:#fff;fill-opacity:1;stroke:none;stroke-width:1.11154px;stroke-linecap:butt;stroke-linejoin:miter;stroke-opacity:1" transform="translate(-107.732 -4.842)"/><path d="M121.732 6.842h36v43.534l-18 15.755-18-15.739z" style="fill:#000;fill-opacity:1;stroke:none;stroke-width:1.05304px;stroke-linecap:butt;stroke-linejoin:miter;stroke-opacity:1" transform="translate(-107.732 -4.842)"/><g style="font-style:normal;font-variant:normal;font-weight:400;font-stretch:normal;font-size:38px;line-height:1.25;font-family:Roboto;font-variant-ligatures:normal;font-variant-caps:normal;font-variant-numeric:normal;font-feature-settings:normal;text-align:start;letter-spacing:0;word-spacing:0;writing-mode:lr-tb;text-anchor:start;fill:#fff;fill-opacity:1;stroke:none;stroke-width:17.8125"><path d="M139.732 23.234q-1.299 0-1.781.075-.483.074-.891.26V18.67h12.172v-6.828h-19v17.033l6.828 2.227q.037-.334.594-.668.556-.334 2.078-.334.853 0 1.67.37.816.372 1.484 1.003.631.668 1.002 1.484.371.854.408 1.67v3.822q0 .854-.408 1.633-.37.854-1.002 1.484-.668.668-1.484 1.04-.854.37-1.67.408-.854 0-1.633-.408-.853-.372-1.484-1.04-.668-.63-1.076-1.484-.372-.816-.372-1.633h-6.828q0 2.078.928 4.12.965 2.04 2.635 3.71 1.633 1.67 3.674 2.598 2.04.965 4.156.965 2.078 0 4.119-.965t3.748-2.598q1.633-1.632 2.56-3.71.965-2.042.965-4.12v-3.822q0-2.078-.964-4.12-.965-2.04-2.56-3.747-1.67-1.633-3.749-2.56-2.041-.966-4.12-.966z" aria-label="5" style="font-style:normal;font-variant:normal;font-weight:400;font-stretch:normal;font-family:PoliceSNCF;fill:#fff;stroke-width:17.8125" transform="translate(-107.732 -1.842)"/></g></g></svg>