<svg xmlns="http://www.w3.org/2000/svg" width="64" height="64"><path fill="none" d="M0 0h64v64H0z" style="fill:#fff;fill-opacity:0;stroke-width:6.4;stroke-linecap:round;stroke-linejoin:round;paint-order:markers stroke fill;stop-color:#000"/><g aria-label="60" style="font-style:normal;font-variant:normal;font-weight:400;font-stretch:normal;font-size:30px;line-height:1.25;font-family:Roboto;font-variant-ligatures:normal;font-variant-caps:normal;font-variant-numeric:normal;font-feature-settings:normal;text-align:start;letter-spacing:0;word-spacing:0;writing-mode:lr-tb;text-anchor:start;fill:#000;fill-opacity:1;stroke:none;stroke-width:3.75"><path d="M108.716 16.851h62.032V31.39c0 33.923-62.032 33.923-62.032 0z" style="fill:#fff;fill-opacity:1;stroke:#000;stroke-width:1.96876;stroke-linecap:butt;stroke-linejoin:miter;stroke-miterlimit:4;stroke-dasharray:none;stroke-opacity:1" transform="translate(-107.732 6.183)"/><path d="M130.854 29.737h4.731q0-1.44-.668-2.855-.669-1.414-1.775-2.597-1.157-1.132-2.597-1.775-1.414-.668-2.854-.668t-2.88.668q-1.415.67-2.546 1.775-1.158 1.157-1.826 2.597-.669 1.415-.643 2.855V40.28q0 1.44.643 2.854.668 1.415 1.826 2.572 1.131 1.157 2.545 1.8 1.415.669 2.88.669 1.44 0 2.855-.669 1.414-.668 2.597-1.8 1.132-1.131 1.775-2.572.668-1.414.668-2.854t-.668-2.88q-.669-1.414-1.775-2.572-1.157-1.131-2.597-1.8-1.414-.668-2.854-.643-1.21 0-2.032.283-.823.309-1.132.515v-3.446q0-.592.258-1.158.257-.565.745-1.028.438-.437 1.029-.695.566-.257 1.132-.282.591 0 1.157.282.565.258 1.028.695.438.463.695 1.028.283.566.283 1.158m0 10.543q0 .591-.283 1.132-.257.591-.695 1.028-.463.463-1.028.72-.592.257-1.157.283-.592 0-1.132-.283-.591-.257-1.029-.72-.462-.437-.745-1.028-.258-.566-.258-1.132 0-.591.258-1.157.257-.566.745-1.029.438-.437 1.029-.72.566-.257 1.132-.257.591 0 1.157.257.565.257 1.028.72.438.463.695 1.029.283.566.283 1.157m16.046 7.895q1.44 0 2.855-.669 1.414-.668 2.597-1.8 1.131-1.131 1.774-2.572.669-1.414.669-2.854V29.737q0-1.44-.669-2.855-.668-1.414-1.774-2.597-1.157-1.132-2.597-1.775-1.415-.668-2.855-.668t-2.88.668q-1.414.67-2.546 1.775-1.157 1.157-1.826 2.597-.668 1.415-.643 2.855V40.28q0 1.44.643 2.854.669 1.415 1.826 2.572 1.132 1.157 2.546 1.8 1.44.669 2.88.669m0-4.732q-.591 0-1.131-.283-.592-.257-1.029-.72-.463-.437-.746-1.028-.257-.566-.257-1.132V29.737q0-.592.257-1.158.257-.565.746-1.028.437-.437 1.029-.695.565-.257 1.131-.282.592 0 1.157.282.566.258 1.029.695.437.463.694 1.028.257.592.283 1.158V40.28q0 .591-.283 1.132-.257.591-.694 1.028-.463.463-1.029.72-.565.283-1.157.283" style="font-style:normal;font-variant:normal;font-weight:400;font-stretch:normal;font-family:PoliceSNCF;stroke-width:3.29161" transform="translate(-105.295 8.017)"/></g></svg>