<svg xmlns="http://www.w3.org/2000/svg" width="128" height="128"><path fill="none" d="M0 0h128v128H0z" style="fill:#fff;fill-opacity:0;stroke:none"/><path d="M-26.343 30.786h4.305c.93 0 1.684.754 1.684 1.684v.072c0 .93-.754 1.684-1.684 1.684h-4.305c-.93 0-1.684-.754-1.684-1.684v-.072c0-.93.754-1.684 1.684-1.684m0 0" style="fill:none;stroke:#000;stroke-width:1.058;stroke-linecap:round;stroke-linejoin:round;stroke-miterlimit:4;stroke-opacity:1" transform="rotate(90 15.927 293.783)scale(7.55891)"/><path d="M-26.316 30.786h4.25a1.71 1.71 0 0 1 1.712 1.711v.018a1.71 1.71 0 0 1-1.711 1.71h-4.251a1.71 1.71 0 0 1-1.711-1.71v-.018c0-.945.766-1.71 1.71-1.71zm0 0" style="fill:#000;fill-opacity:1;fill-rule:nonzero;stroke:#fff;stroke-width:.529;stroke-linecap:round;stroke-linejoin:round;stroke-miterlimit:4;stroke-opacity:1" transform="rotate(90 15.927 293.783)scale(7.55891)"/><path d="M15.827 108.236c-.474-.125-.896-.687-.896-1.195 0-.284-.15-.601-.39-.817-1.103-.998.322-2.711 1.537-1.846.133.094.323.172.424.172.218.001 3.739-1.634 3.69-1.714-.05-.079-3.587-1.715-3.71-1.715-.055 0-.24.096-.41.214-1.286.891-2.582-.804-1.481-1.937.216-.223.285-.37.33-.702.218-1.608 2.426-1.655 2.426-.051q0 .267.175.423c.202.179 5.195 2.52 5.375 2.52.152 0 5.284-2.389 5.419-2.522.055-.054.129-.283.165-.508.106-.674.562-1.1 1.177-1.1.588 0 1.168.526 1.168 1.059 0 .359.107.601.417.944 1.05 1.164-.132 2.637-1.51 1.88l-.45-.248-1.196.554c-2.1.974-2.572 1.2-2.546 1.224.149.128 3.625 1.678 3.766 1.678.103 0 .321-.09.484-.202l.295-.202.447.032c1.069.075 1.493 1.4.68 2.125-.213.19-.386.582-.387.874-.001 1.305-2.127 1.427-2.307.132a3 3 0 0 0-.12-.508l-.076-.203-2.714-1.264-2.715-1.264-2.637 1.225c-2.805 1.303-2.91 1.369-2.91 1.823 0 .698-.823 1.304-1.52 1.12m4.771-10.654a1.3 1.3 0 0 1-.209-.348c-.054-.13-.163-.258-.242-.284-.264-.083-.515-.482-.721-1.143-.29-.928-.624-1.154-1.681-1.14-.908.013-1.578-1.291-1.204-2.344l.13-.364-.383-1.672-.383-1.672.005-.974c.017-3.465 2.587-5.765 6.595-5.902 3.536-.12 6.219 1.401 7.11 4.034l.224.66.034 1.013.034 1.013-.358 1.591c-.397 1.763-.415 1.949-.233 2.505l.126.385-.092.37c-.235.944-.664 1.317-1.585 1.377-.973.063-1.135.204-1.449 1.26l-.164.553-.39.359c-.214.197-.39.412-.39.477 0 .392-.634.398-.732.008q-.099-.388-.315.027c-.202.392-.591.374-.747-.034-.04-.104-.109-.19-.154-.19s-.114.086-.154.19c-.155.408-.543.429-.705.038-.119-.286-.197-.287-.343-.004-.064.123-.17.245-.236.27-.184.07-.348-.023-.476-.27-.114-.22-.267-.303-.267-.143 0 .103-.357.464-.459.464-.041 0-.125-.05-.186-.11m1.886-2.783.444-.244.339.214c1.026.648 1.5-.058.717-1.07-.902-1.167-1.074-1.227-1.67-.584-.623.672-.838 1.046-.838 1.46 0 .567.274.628 1.008.224m-1.904-2.112c.592-.31 1.13-1.072 1.13-1.6 0-.807-1.126-1.703-2.474-1.968-1.015-.2-1.344.163-1.344 1.483 0 1.703 1.378 2.772 2.688 2.085m6.17.005c.75-.349 1.19-1.105 1.191-2.051.002-.764-.091-1.123-.355-1.37l-.202-.189-.48.012c-1.526.039-3.102 1.346-2.784 2.31.389 1.178 1.597 1.77 2.63 1.288" style="fill:#fff;stroke-width:.326954" transform="translate(41.105)"/></svg>