<svg xmlns="http://www.w3.org/2000/svg" width="64" height="64"><path d="M1 1h62v62H1z" style="fill:#405cb1;fill-opacity:1;stroke:#e4eaf6;stroke-width:2.00014;stroke-miterlimit:4;stroke-dasharray:none;stroke-opacity:1"/><g aria-label="110" style="font-style:normal;font-weight:400;font-size:36.031px;line-height:1.25;font-family:saxMono;letter-spacing:0;word-spacing:0;fill:#e4eaf6;fill-opacity:1;stroke:none;stroke-width:4.8718"><path d="M-7.996 41.685V22.28h-3.484q-1.32 0-1.32-1.144 0-1.161 1.32-1.161h4.68q1.196 0 1.196 1.161v20.55h3.695q1.355 0 1.355 1.23 0 1.091-1.355 1.091h-10.503q-1.355 0-1.355-1.16 0-1.162 1.355-1.162zM11.76 41.685V22.28H8.278q-1.32 0-1.32-1.144 0-1.161 1.32-1.161h4.68q1.197 0 1.197 1.161v20.55h3.694q1.355 0 1.355 1.23 0 1.091-1.355 1.091H7.345q-1.355 0-1.355-1.16 0-1.162 1.355-1.162zM24.797 37.093V26.89q0-3.255 1.988-5.313 2.006-2.076 5.507-2.076t5.454 2.076q1.953 2.076 1.953 5.313v10.204q0 3.59-1.9 5.49-1.9 1.9-5.507 1.9-3.5 0-5.507-1.953-1.988-1.953-1.988-5.437zm12.492 0V26.89q0-2.234-1.355-3.642-1.337-1.425-3.818-1.425-4.908 0-4.908 5.067v10.204q0 2.41 1.337 3.748 1.337 1.337 3.765 1.337 4.979 0 4.979-5.085z" style="font-style:normal;font-weight:400;font-size:36.031px;line-height:1.25;font-family:saxMono;letter-spacing:0;word-spacing:0;fill:#e4eaf6;fill-opacity:1;stroke:none;stroke-width:4.8718" transform="translate(19.034)"/></g></svg>