<?xml version="1.0" encoding="UTF-8" standalone="no"?>
<svg
   xmlns:dc="http://purl.org/dc/elements/1.1/"
   xmlns:cc="http://creativecommons.org/ns#"
   xmlns:rdf="http://www.w3.org/1999/02/22-rdf-syntax-ns#"
   xmlns:svg="http://www.w3.org/2000/svg"
   xmlns="http://www.w3.org/2000/svg"
   height="64"
   width="64"
   version="1.1"
   id="svg2">
  <metadata
     id="metadata8">
    <rdf:RDF>
      <cc:Work
         rdf:about="">
        <dc:format>image/svg+xml</dc:format>
        <dc:type
           rdf:resource="http://purl.org/dc/dcmitype/StillImage" />
        <dc:title></dc:title>
      </cc:Work>
    </rdf:RDF>
  </metadata>
  <defs
     id="defs6" />
  <rect
     y="0"
     x="0"
     height="64"
     width="64"
     id="rect832"
     style="fill:#405CB1;fill-opacity:0;stroke-width:6.4;stroke-linecap:round;stroke-linejoin:round;paint-order:markers stroke fill;stop-color:#E4EAF6" />
  <path
     id="path839"
     d="m 0.98438,63.01562 h 62.03124 c 0,0 0,-9.69238 0,-14.538571 0,-33.923335 -62.03124,-33.923335 -62.03124,0 0,4.846191 0,14.538571 0,14.538571 z"
     style="font-style:normal;font-variant:normal;font-weight:normal;font-stretch:normal;font-size:30px;line-height:1.25;font-family:Roboto;font-variant-ligatures:normal;font-variant-caps:normal;font-variant-numeric:normal;font-feature-settings:normal;text-align:start;letter-spacing:0px;word-spacing:0px;writing-mode:lr-tb;text-anchor:start;fill:#405CB1;fill-opacity:1;stroke:#E4EAF6;stroke-width:1.96876;stroke-linecap:butt;stroke-linejoin:miter;stroke-miterlimit:4;stroke-dasharray:none;stroke-opacity:1" />
  <g
     style="font-style:normal;font-variant:normal;font-weight:normal;font-stretch:normal;font-size:29.404px;line-height:1.25;font-family:saxMono;-inkscape-font-specification:saxMono;font-variant-ligatures:normal;font-variant-caps:normal;font-variant-numeric:normal;font-feature-settings:normal;text-align:start;letter-spacing:0px;word-spacing:0px;writing-mode:lr-tb;text-anchor:start;fill:#E4EAF6;fill-opacity:1;stroke:none;stroke-width:3.6755"
     id="text838"
     aria-label="135">
    <path
       id="path840"
       style="stroke-width:3.6755"
       d="M 14.993634,52.716877 V 36.880641 h -2.842769 q -1.076807,0 -1.076807,-0.933232 0,-0.94759 1.076807,-0.94759 h 3.819074 q 0.976304,0 0.976304,0.94759 v 16.769468 h 3.015059 q 1.105521,0 1.105521,1.00502 0,0.89016 -1.105521,0.89016 h -8.571381 q -1.105521,0 -1.105521,-0.94759 0,-0.94759 1.105521,-0.94759 z" />
    <path
       id="path842"
       style="stroke-width:3.6755"
       d="m 34.534085,36.894999 h -7.465859 q -1.249096,0 -1.249096,-0.961948 0,-0.918875 1.249096,-0.918875 h 9.203107 q 1.119879,0 1.119879,0.760944 0,0.402007 -0.272791,0.732228 l -4.465158,5.45582 q 0.416365,-0.08614 0.818373,-0.08614 1.895179,0 3.000701,1.191666 1.119879,1.177308 1.119879,3.072488 0,3.646785 -3.747287,6.360338 -3.431424,2.498191 -7.207426,2.498191 -1.407027,0 -1.407027,-0.847088 0,-0.861445 1.177308,-0.861445 2.167971,0 3.919576,-0.775301 2.038754,-0.89016 3.531926,-2.440761 1.78032,-1.83775 1.78032,-3.761645 0,-1.048092 -0.689156,-1.794678 -0.674799,-0.760943 -1.708533,-0.760943 -0.804016,0 -1.952609,0.488152 -1.148594,0.488153 -1.435742,0.488153 -0.674799,0 -0.674799,-0.818373 0,-0.459438 0.344578,-0.875803 z" />
    <path
       id="path844"
       style="stroke-width:3.6755"
       d="m 45.129862,42.034955 q 1.880822,-0.847087 3.259135,-0.847087 2.325902,0 3.847789,1.636746 1.478814,1.593673 1.478814,3.933933 0,3.905219 -3.761644,6.231121 -3.23042,2.010039 -7.365357,2.010039 -1.033735,0 -1.033735,-0.847088 0,-0.847088 1.263453,-0.961947 3.445781,-0.330221 5.240459,-1.249096 3.689857,-1.895179 3.689857,-5.168671 0,-1.550602 -0.875802,-2.613051 -0.94759,-1.134236 -2.469477,-1.134236 -0.976304,0 -2.455119,0.631726 -1.464457,0.631727 -1.880822,0.631727 -0.775301,0 -0.732229,-1.105522 l 0.229719,-6.446482 q 0.02871,-0.832731 0.244076,-1.162951 0.287149,-0.574297 1.06245,-0.574297 h 7.379714 q 1.062449,0 1.062449,0.918875 0,0.402008 -0.33022,0.689156 -0.315864,0.272791 -0.732229,0.272791 h -6.90592 z" />
  </g>
</svg>
