<svg xmlns="http://www.w3.org/2000/svg" width="64" height="64"><path d="M1 1h62v62H1z" style="fill:#405cb1;fill-opacity:1;stroke:#e4eaf6;stroke-width:2.00014;stroke-miterlimit:4;stroke-dasharray:none;stroke-opacity:1"/><g aria-label="120" style="font-style:normal;font-weight:400;font-size:36.031px;line-height:1.25;font-family:saxMono;letter-spacing:0;word-spacing:0;fill:#e4eaf6;fill-opacity:1;stroke:none;stroke-width:4.8718"><path d="M-7.996 41.685V22.28h-3.484q-1.32 0-1.32-1.144 0-1.161 1.32-1.161h4.68q1.196 0 1.196 1.161v20.55h3.695q1.355 0 1.355 1.23 0 1.091-1.355 1.091h-10.503q-1.355 0-1.355-1.16 0-1.162 1.355-1.162zM8.506 41.685h9.747q1.689 0 1.689 1.179 0 1.143-1.373 1.143H6.342q-1.302 0-1.302-1.02 0-.457.493-1.056l10.38-12.544q1.618-1.952 1.618-3.659 0-1.882-1.513-2.956-1.354-.95-3.307-.95-2.446 0-3.765 1.53-.633.74-1.496 2.851-.615 1.53-1.354 1.53-1.056 0-1.056-1.248 0-1.426.933-3.114Q8.119 19.5 12.834 19.5q2.938 0 4.926 1.495 2.182 1.654 2.182 4.504 0 2.463-2.463 5.419zM24.797 37.093V26.89q0-3.255 1.988-5.313 2.006-2.076 5.507-2.076t5.454 2.076q1.953 2.076 1.953 5.313v10.204q0 3.59-1.9 5.49-1.9 1.9-5.507 1.9-3.5 0-5.507-1.953-1.988-1.953-1.988-5.437zm12.492 0V26.89q0-2.234-1.355-3.642-1.337-1.425-3.818-1.425-4.908 0-4.908 5.067v10.204q0 2.41 1.337 3.748 1.337 1.337 3.765 1.337 4.979 0 4.979-5.085z" style="font-style:normal;font-weight:400;font-size:36.031px;line-height:1.25;font-family:saxMono;letter-spacing:0;word-spacing:0;fill:#e4eaf6;fill-opacity:1;stroke:none;stroke-width:4.8718" transform="translate(19.034)"/></g></svg>