<svg xmlns="http://www.w3.org/2000/svg" width="64" height="64"><path d="M3 3h58v58H3z" style="fill:#405cb1;fill-opacity:1;stroke:#e4eaf6;stroke-width:5.99978;stroke-miterlimit:4;stroke-dasharray:none;stroke-opacity:1"/><g aria-label="R" style="font-style:normal;font-variant:normal;font-weight:400;font-stretch:normal;font-size:51.4204px;line-height:1.25;font-family:Roboto;-inkscape-font-specification:Roboto;font-variant-ligatures:normal;font-variant-caps:normal;font-variant-numeric:normal;font-feature-settings:normal;text-align:start;letter-spacing:0;word-spacing:0;writing-mode:lr-tb;text-anchor:start;fill:#e4eaf6;fill-opacity:1;stroke:none;stroke-width:6.42755"><path d="m36.394 33.356 7.331 13.156q.452.804.452 1.507 0 1.481-1.556 1.481-1.105 0-1.833-1.28l-7.934-14.161h-9.591v13.483q0 1.958-1.708 1.958-1.732 0-1.732-1.958V16.358q0-1.055.351-1.456.352-.402 1.406-.402h12.63q4.343 0 6.703 2.737 2.21 2.586 2.21 7.005 0 4.017-1.457 6-1.43 1.984-5.272 3.114zm-13.131-2.611h9.44q7.005 0 7.005-6.478 0-2.812-1.23-4.52-1.381-1.958-4.093-1.958H23.263Z" style="font-style:normal;font-variant:normal;font-weight:400;font-stretch:normal;font-family:saxMono;-inkscape-font-specification:saxMono;stroke-width:6.42755"/></g></svg>