<svg xmlns="http://www.w3.org/2000/svg" width="128" height="128"><path fill="none" d="M0 0h128v128H0z" style="fill:#405cb1;fill-opacity:0;stroke:none;stroke-width:9.14344"/><path d="M26.5 48.49h11v15.02l-11-.01Zm0 0" style="fill-rule:nonzero;fill:#405cb1;fill-opacity:1;stroke-width:1;stroke-linecap:round;stroke-linejoin:round;stroke:#e4eaf6;stroke-opacity:1;stroke-miterlimit:4" transform="scale(2)"/><path d="m64.305 105.895 2.285-5.485c.11-.273.293-.41.539-.41.305 0 .46.21.46.633v8.847c0 .348-.155.52-.464.52-.336 0-.5-.215-.5-.648v-6.942l-1.89 4.434c-.118.277-.266.418-.45.418-.203 0-.363-.14-.484-.418l-1.98-4.434v7.07c0 .348-.16.52-.481.52-.324 0-.485-.195-.485-.586v-8.773c0-.426.172-.641.516-.641.219 0 .383.125.492.375ZM57.035 121.027v-3.941c0-2.059 1.09-3.086 3.274-3.086.886 0 1.601.195 2.14.59.621.484.93 1.129.93 1.937 0 .391-.156.586-.473.586-.222 0-.386-.183-.484-.55a2.74 2.74 0 0 0-.352-.895c-.273-.492-.883-.738-1.832-.738-.812 0-1.394.203-1.746.613-.328.367-.492.965-.492 1.797v3.285c0 .855.172 1.465.52 1.832.37.414.964.621 1.777.621 1.223 0 1.933-.433 2.125-1.297.07-.32.11-.484.113-.492.07-.18.195-.27.371-.27.317 0 .473.196.473.586 0 .774-.324 1.399-.977 1.875-.527.348-1.215.52-2.066.52-1.008 0-1.8-.238-2.371-.719-.621-.511-.93-1.261-.93-2.254ZM68.012 122.484l2.297-5.527c.097-.234.254-.352.464-.352.309 0 .465.133.465.403 0 .082-.035.21-.105.379l-2.555 6.113c-.129.3-.312.45-.558.45-.243 0-.43-.15-.555-.45l-2.578-6.121a.924.924 0 0 1-.09-.352c0-.113.039-.21.125-.297a.444.444 0 0 1 .308-.125c.22 0 .38.133.489.395Zm0 0" style="stroke:none;fill-rule:nonzero;fill:#e4eaf6;fill-opacity:1"/></svg>