<?xml version="1.0" encoding="UTF-8" standalone="no"?>
<svg
   xmlns:dc="http://purl.org/dc/elements/1.1/"
   xmlns:cc="http://creativecommons.org/ns#"
   xmlns:rdf="http://www.w3.org/1999/02/22-rdf-syntax-ns#"
   xmlns:svg="http://www.w3.org/2000/svg"
   xmlns="http://www.w3.org/2000/svg"
   id="svg2"
   version="1.1"
   width="64"
   height="64">
  <metadata
     id="metadata8">
    <rdf:RDF>
      <cc:Work
         rdf:about="">
        <dc:format>image/svg+xml</dc:format>
        <dc:type
           rdf:resource="http://purl.org/dc/dcmitype/StillImage" />
        <dc:title />
      </cc:Work>
    </rdf:RDF>
  </metadata>
  <defs
     id="defs6" />
  <rect
     style="fill:#405CB1;fill-opacity:0;stroke-width:6.4;stroke-linecap:round;stroke-linejoin:round;paint-order:markers stroke fill;stop-color:#E4EAF6"
     id="rect832"
     width="64"
     height="64"
     x="0"
     y="0" />
  <path
     style="font-style:normal;font-variant:normal;font-weight:normal;font-stretch:normal;font-size:30px;line-height:1.25;font-family:Roboto;font-variant-ligatures:normal;font-variant-caps:normal;font-variant-numeric:normal;font-feature-settings:normal;text-align:start;letter-spacing:0px;word-spacing:0px;writing-mode:lr-tb;text-anchor:start;fill:#405CB1;fill-opacity:1;stroke:#E4EAF6;stroke-width:1.96876;stroke-linecap:butt;stroke-linejoin:miter;stroke-miterlimit:4;stroke-dasharray:none;stroke-opacity:1"
     d="m 0.98438,1 h 62.03124 l 0,36.573015 c 0,33.923473 -62.03124,33.923473 -62.03124,0 z"
     id="path839" />
  <path
     style="fill:none;stroke:#E4EAF6;stroke-width:2;stroke-linecap:butt;stroke-linejoin:miter;stroke-miterlimit:4;stroke-dasharray:none;stroke-opacity:1"
     d="M 13.166865,32 H 50"
     id="path1392" />
  <g
     transform="translate(-0.4800365)"
     style="font-style:normal;font-variant:normal;font-weight:normal;font-stretch:normal;font-size:28.8248px;line-height:0.95;font-family:saxMono;-inkscape-font-specification:saxMono;font-variant-ligatures:normal;font-variant-caps:normal;font-variant-numeric:normal;font-feature-settings:normal;text-align:center;letter-spacing:0px;word-spacing:0px;writing-mode:lr-tb;text-anchor:middle;fill:#E4EAF6;fill-opacity:1;stroke:none;stroke-width:3.6031"
     id="texte"
     aria-label="145155">
    <path
       id="path13"
       style="text-align:center;text-anchor:middle;stroke-width:3.6031"
       d="M 15.808662,26.06333 V 10.539036 H 13.02189 q -1.055596,0 -1.055596,-0.9148497 0,-0.9289242 1.055596,-0.9289242 h 3.743846 q 0.957073,0 0.957073,0.9289242 V 26.06333 h 2.955668 q 1.083745,0 1.083745,0.985223 0,0.872626 -1.083745,0.872626 h -8.402542 q -1.083745,0 -1.083745,-0.928924 0,-0.928925 1.083745,-0.928925 z" />
    <path
       id="path15"
       style="text-align:center;text-anchor:middle;stroke-width:3.6031"
       d="m 33.345625,24.275855 h -6.432096 q -0.872626,0 -0.872626,-0.647432 0,-0.351865 0.323716,-1.337088 l 4.15201,-12.6812233 q 0.239268,-0.7318797 0.323716,-0.8726258 0.253343,-0.4222383 0.73188,-0.4222383 0.872625,0 0.872625,0.830402 0,0.1970445 -0.140746,0.647432 L 28.32099,22.418006 h 5.024635 v -7.811408 q 0,-1.083745 0.971148,-1.083745 0.942999,0 0.942999,1.083745 v 7.811408 h 2.012669 q 1.069671,0 1.069671,0.928925 0,0.928924 -1.069671,0.928924 h -2.012669 v 2.941593 q 0,1.083745 -0.957073,1.083745 -0.957074,0 -0.957074,-1.083745 z" />
    <path
       id="path17"
       style="text-align:center;text-anchor:middle;stroke-width:3.6031"
       d="m 45.351267,15.591821 q 1.843774,-0.830402 3.194936,-0.830402 2.280087,0 3.771996,1.604505 1.449684,1.562282 1.449684,3.856443 0,3.828294 -3.687547,6.108381 -3.166787,1.970445 -7.220275,1.970445 -1.013372,0 -1.013372,-0.830402 0,-0.830402 1.238566,-0.942999 3.377906,-0.323716 5.137232,-1.224491 3.617175,-1.857848 3.617175,-5.066859 0,-1.520058 -0.858551,-2.561579 -0.928924,-1.111894 -2.420833,-1.111894 -0.957074,0 -2.406758,0.619283 -1.435611,0.619283 -1.843774,0.619283 -0.760029,0 -0.717805,-1.083745 l 0.225193,-6.3195 q 0.02815,-0.8163275 0.239269,-1.1400435 0.281492,-0.5629844 1.041521,-0.5629844 h 7.234349 q 1.041521,0 1.041521,0.900775 0,0.3940891 -0.323716,0.6755809 -0.309641,0.267418 -0.717805,0.267418 h -6.769887 z" />
    <path
       id="path19"
       style="text-align:center;text-anchor:middle;stroke-width:3.6031"
       d="M 15.808662,53.446889 V 37.922594 H 13.02189 q -1.055596,0 -1.055596,-0.914849 0,-0.928925 1.055596,-0.928925 h 3.743846 q 0.957073,0 0.957073,0.928925 v 16.439144 h 2.955668 q 1.083745,0 1.083745,0.985222 0,0.872626 -1.083745,0.872626 h -8.402542 q -1.083745,0 -1.083745,-0.928924 0,-0.928924 1.083745,-0.928924 z" />
    <path
       id="path21"
       style="text-align:center;text-anchor:middle;stroke-width:3.6031"
       d="m 29.545481,42.975379 q 1.843774,-0.830402 3.194936,-0.830402 2.280087,0 3.771996,1.604506 1.449684,1.562281 1.449684,3.856443 0,3.828293 -3.687547,6.10838 -3.166788,1.970446 -7.220275,1.970446 -1.013372,0 -1.013372,-0.830402 0,-0.830402 1.238566,-0.942999 3.377906,-0.323716 5.137232,-1.224491 3.617175,-1.857849 3.617175,-5.06686 0,-1.520058 -0.858551,-2.561579 -0.928925,-1.111894 -2.420833,-1.111894 -0.957074,0 -2.406758,0.619283 -1.435611,0.619283 -1.843774,0.619283 -0.760029,0 -0.717805,-1.083745 l 0.225193,-6.3195 q 0.02815,-0.816327 0.239269,-1.140043 0.281492,-0.562985 1.041521,-0.562985 h 7.234349 q 1.041521,0 1.041521,0.900775 0,0.394089 -0.323716,0.675582 -0.309641,0.267417 -0.717805,0.267417 H 29.7566 Z" />
    <path
       id="path23"
       style="text-align:center;text-anchor:middle;stroke-width:3.6031"
       d="m 45.351267,42.975379 q 1.843774,-0.830402 3.194936,-0.830402 2.280087,0 3.771996,1.604506 1.449684,1.562281 1.449684,3.856443 0,3.828293 -3.687547,6.10838 -3.166787,1.970446 -7.220275,1.970446 -1.013372,0 -1.013372,-0.830402 0,-0.830402 1.238566,-0.942999 3.377906,-0.323716 5.137232,-1.224491 3.617175,-1.857849 3.617175,-5.06686 0,-1.520058 -0.858551,-2.561579 -0.928924,-1.111894 -2.420833,-1.111894 -0.957074,0 -2.406758,0.619283 -1.435611,0.619283 -1.843774,0.619283 -0.760029,0 -0.717805,-1.083745 l 0.225193,-6.3195 q 0.02815,-0.816327 0.239269,-1.140043 0.281492,-0.562985 1.041521,-0.562985 h 7.234349 q 1.041521,0 1.041521,0.900775 0,0.394089 -0.323716,0.675582 -0.309641,0.267417 -0.717805,0.267417 h -6.769887 z" />
  </g>
</svg>
