<svg xmlns="http://www.w3.org/2000/svg" width="64" height="64"><path d="M3 3h58v58H3z" style="fill:#405cb1;fill-opacity:1;stroke:#e4eaf6;stroke-width:5.99978;stroke-miterlimit:4;stroke-dasharray:none;stroke-opacity:1"/><g aria-label="Z50 1" style="font-style:normal;font-weight:400;font-size:22.6692px;line-height:1.25;font-family:sans-serif;text-align:center;letter-spacing:0;word-spacing:0;text-anchor:middle;fill:#e4eaf6;fill-opacity:1;stroke:none;stroke-width:.56673"><path d="M23.134 11.463h-7.317q-1.018 0-1.018-.72 0-.73 1.018-.73h8.28q.985 0 .985.62 0 .332-.343.84l-8.29 12.199h7.913q1.019 0 1.019.753 0 .464-.3.608-.187.1-.719.1h-8.888q-.974 0-.974-.587 0-.431.41-1.03zM30.295 15.437q1.45-.653 2.513-.653 1.793 0 2.967 1.261 1.14 1.229 1.14 3.033 0 3.011-2.9 4.804-2.491 1.55-5.679 1.55-.797 0-.797-.653t.974-.742q2.657-.254 4.04-.963 2.845-1.461 2.845-3.985 0-1.195-.675-2.014-.73-.875-1.904-.875-.753 0-1.893.487-1.129.487-1.45.487-.597 0-.564-.852l.177-4.97q.022-.642.188-.896.221-.443.82-.443h5.689q.819 0 .819.708 0 .31-.255.532-.243.21-.564.21H30.46zM40.125 20.783v-6.42q0-2.048 1.25-3.343 1.262-1.306 3.465-1.306t3.431 1.306q1.229 1.306 1.229 3.343v6.42q0 2.258-1.195 3.453-1.196 1.196-3.465 1.196-2.203 0-3.465-1.229-1.25-1.228-1.25-3.42zm7.859 0v-6.42q0-1.406-.853-2.291-.841-.897-2.402-.897-3.088 0-3.088 3.188v6.42q0 1.516.841 2.358.842.84 2.369.84 3.133 0 3.133-3.198zM31.923 52.825v-12.21H29.73q-.83 0-.83-.719 0-.73.83-.73h2.944q.753 0 .753.73v12.929h2.324q.853 0 .853.775 0 .686-.853.686h-6.608q-.852 0-.852-.73 0-.731.852-.731z" style="font-style:normal;font-variant:normal;font-weight:400;font-stretch:normal;font-family:saxMono;-inkscape-font-specification:saxMono;stroke-width:.56673"/></g></svg>