<svg xmlns="http://www.w3.org/2000/svg" width="64" height="64"><path d="M1 1h62v62H1z" style="fill:#405cb1;fill-opacity:1;stroke:#e4eaf6;stroke-width:2.00014;stroke-miterlimit:4;stroke-dasharray:none;stroke-opacity:1"/><g aria-label="90" style="font-style:normal;font-weight:400;font-size:36.031px;line-height:1.25;font-family:saxMono;letter-spacing:0;word-spacing:0;fill:#e4eaf6;fill-opacity:1;stroke:none;stroke-width:4.8718"><path d="M-2.56 31.481q-2.446 2.2-5.085 2.2-3.043 0-5.066-1.989-2.006-2.006-2.006-5.032 0-3.096 2.111-5.12 2.111-2.04 5.208-2.04 3.66 0 5.682 2.41 1.9 2.252 1.9 5.982 0 4.029-1.776 7.706-1.742 3.606-4.856 6.245-3.114 2.64-4.346 2.64-.932 0-.932-.968 0-.757 1.108-1.478 6.422-4.187 8.058-10.556zm-4.838-.123q2.217 0 3.642-1.179 1.53-1.267 1.53-3.448 0-2.182-1.442-3.536-1.426-1.373-3.625-1.373-2.181 0-3.571 1.302-1.443 1.337-1.443 3.501 0 2.147 1.373 3.449 1.372 1.284 3.536 1.284zM5.04 37.093V26.89q0-3.255 1.988-5.313Q9.034 19.5 12.535 19.5t5.454 2.076q1.953 2.076 1.953 5.313v10.204q0 3.59-1.9 5.49-1.9 1.9-5.507 1.9-3.501 0-5.507-1.953-1.988-1.953-1.988-5.437zm12.491 0V26.89q0-2.234-1.354-3.642-1.337-1.425-3.818-1.425-4.909 0-4.909 5.067v10.204q0 2.41 1.338 3.748 1.337 1.337 3.765 1.337 4.978 0 4.978-5.085z" style="font-style:normal;font-weight:400;font-size:36.031px;line-height:1.25;font-family:saxMono;letter-spacing:0;word-spacing:0;fill:#e4eaf6;fill-opacity:1;stroke:none;stroke-width:4.8718" transform="translate(29.388)"/></g></svg>