<svg xmlns="http://www.w3.org/2000/svg" width="64" height="64"><path d="M12 64h40V17.455L32 0 12 17.455Z" style="font-style:normal;font-variant:normal;font-weight:400;font-stretch:normal;font-size:30px;line-height:1.25;font-family:Roboto;font-variant-ligatures:normal;font-variant-caps:normal;font-variant-numeric:normal;font-feature-settings:normal;text-align:start;letter-spacing:0;word-spacing:0;writing-mode:lr-tb;text-anchor:start;fill:#e4eaf6;fill-opacity:1;stroke:none;stroke-width:1.17004px;stroke-linecap:butt;stroke-linejoin:miter;stroke-opacity:1"/><path d="M14 62h36V18.615L32 2.385 14 18.572Z" style="font-style:normal;font-variant:normal;font-weight:400;font-stretch:normal;font-size:30px;line-height:1.25;font-family:Roboto;font-variant-ligatures:normal;font-variant-caps:normal;font-variant-numeric:normal;font-feature-settings:normal;text-align:start;letter-spacing:0;word-spacing:0;writing-mode:lr-tb;text-anchor:start;fill:#405cb1;fill-opacity:1;stroke:none;stroke-width:1.05304px;stroke-linecap:butt;stroke-linejoin:miter;stroke-opacity:1"/><path d="M-32.619 37.275q-4.947-2.433-4.947-7.488 0-4.225 2.915-7.006Q-31.736 20-27.511 20q4.172 0 6.926 2.674 2.755 2.674 2.755 6.846 0 4.814-4.6 7.702 6.07 2.834 6.07 9.573 0 5.054-3.021 8.13-3.022 3.048-8.076 3.048-4.948 0-8.183-2.995-3.37-3.075-3.37-7.969 0-6.872 6.391-9.734zm5.135-1.524q2.754 0 4.359-1.578 1.631-1.604 1.631-4.359 0-2.754-1.685-4.52-1.684-1.764-4.412-1.764-2.755 0-4.546 1.818-1.765 1.819-1.765 4.6 0 2.674 1.898 4.279 1.792 1.524 4.52 1.524zm-.027 3.262q-3.503 0-5.67 2.166-2.165 2.14-2.165 5.643 0 3.503 2.353 5.83 2.38 2.3 5.91 2.3 3.316 0 5.241-2.3 1.819-2.193 1.819-5.67 0-3.423-2.006-5.642-2.086-2.327-5.482-2.327z" aria-label="8" style="font-style:normal;font-variant:normal;font-weight:400;font-stretch:normal;font-size:54.7671px;line-height:1.25;font-family:saxMono;-inkscape-font-specification:saxMono;font-variant-ligatures:normal;font-variant-caps:normal;font-variant-numeric:normal;font-feature-settings:normal;text-align:start;letter-spacing:0;word-spacing:0;writing-mode:lr-tb;text-anchor:start;fill:#e4eaf6;fill-opacity:1;stroke:none;stroke-width:6.84588" transform="translate(59.685)"/></svg>