<?xml version="1.0" encoding="UTF-8" standalone="no"?>
<svg
   xmlns:dc="http://purl.org/dc/elements/1.1/"
   xmlns:cc="http://creativecommons.org/ns#"
   xmlns:rdf="http://www.w3.org/1999/02/22-rdf-syntax-ns#"
   xmlns:svg="http://www.w3.org/2000/svg"
   xmlns="http://www.w3.org/2000/svg"
   height="64"
   width="64"
   version="1.1"
   id="svg2">
  <metadata
     id="metadata8">
    <rdf:RDF>
      <cc:Work
         rdf:about="">
        <dc:format>image/svg+xml</dc:format>
        <dc:type
           rdf:resource="http://purl.org/dc/dcmitype/StillImage" />
        <dc:title />
      </cc:Work>
    </rdf:RDF>
  </metadata>
  <defs
     id="defs6" />
  <rect
     y="0"
     x="0"
     height="64"
     width="64"
     id="rect832"
     style="fill:#405CB1;fill-opacity:0;stroke-width:6.4;stroke-linecap:round;stroke-linejoin:round;paint-order:markers stroke fill;stop-color:#E4EAF6" />
  <path
     id="path839"
     d="m 0.98438,23.034384 h 62.03124 c 0,0 0,9.692419 0,14.538631 0,33.923473 -62.03124,33.923473 -62.03124,0 0,-4.846212 0,-14.538631 0,-14.538631 z"
     style="font-style:normal;font-variant:normal;font-weight:normal;font-stretch:normal;font-size:30px;line-height:1.25;font-family:Roboto;font-variant-ligatures:normal;font-variant-caps:normal;font-variant-numeric:normal;font-feature-settings:normal;text-align:start;letter-spacing:0px;word-spacing:0px;writing-mode:lr-tb;text-anchor:start;fill:#405CB1;fill-opacity:1;stroke:#E4EAF6;stroke-width:1.96876;stroke-linecap:butt;stroke-linejoin:miter;stroke-miterlimit:4;stroke-dasharray:none;stroke-opacity:1" />
  <g
     transform="translate(23.608656)"
     style="font-style:normal;font-variant:normal;font-weight:normal;font-stretch:normal;font-size:28.8248px;line-height:1.25;font-family:saxMono;-inkscape-font-specification:saxMono;letter-spacing:0px;word-spacing:0px;fill:#E4EAF6;fill-opacity:1;stroke:none;stroke-width:0.720619"
     id="texte"
     aria-label="70">
    <path
       id="path10"
       style="font-style:normal;font-variant:normal;font-weight:normal;font-stretch:normal;font-size:28.8248px;line-height:1.25;font-family:saxMono;-inkscape-font-specification:saxMono;letter-spacing:0px;word-spacing:0px;fill:#E4EAF6;fill-opacity:1;stroke:none;stroke-width:0.720619"
       d="m 4.5349016,34.223787 h -8.9092279 q -1.1963418,0 -1.1963418,-0.942998 0,-0.900775 1.1963418,-0.900775 H 5.6467958 q 1.0978195,0 1.0978195,0.774103 0,0.323716 -0.4222383,1.393386 l -6.47432039,16.467294 q -0.38001446,0.971148 -1.06967031,0.971148 -0.830402,0 -0.830402,-0.844477 0,-0.267417 0.2955668,-1.013372 z" />
    <path
       id="path12"
       style="font-style:normal;font-variant:normal;font-weight:normal;font-stretch:normal;font-size:28.8248px;line-height:1.25;font-family:saxMono;-inkscape-font-specification:saxMono;letter-spacing:0px;word-spacing:0px;fill:#E4EAF6;fill-opacity:1;stroke:none;stroke-width:0.720619"
       d="m 10.432163,46.074609 v -8.163274 q 0,-2.603803 1.59043,-4.250532 1.604506,-1.660804 4.405353,-1.660804 2.800848,0 4.363129,1.660804 1.562282,1.660804 1.562282,4.250532 v 8.163274 q 0,2.87122 -1.520058,4.391278 -1.520058,1.520058 -4.405353,1.520058 -2.800847,0 -4.405353,-1.562282 -1.59043,-1.562282 -1.59043,-4.349054 z m 9.992972,0 v -8.163274 q 0,-1.787475 -1.083745,-2.913444 -1.06967,-1.140043 -3.05419,-1.140043 -3.926816,0 -3.926816,4.053487 v 8.163274 q 0,1.928221 1.06967,2.997892 1.069671,1.06967 3.011967,1.06967 3.983114,0 3.983114,-4.067562 z" />
  </g>
</svg>
