<svg xmlns="http://www.w3.org/2000/svg" width="64" height="64"><path d="M3 3h58v58H3z" style="fill:#405cb1;fill-opacity:1;stroke:#e4eaf6;stroke-width:5.99978;stroke-miterlimit:4;stroke-dasharray:none;stroke-opacity:1"/><g aria-label="S" style="font-style:normal;font-variant:normal;font-weight:400;font-stretch:normal;font-size:51.4204px;line-height:1.25;font-family:Roboto;-inkscape-font-specification:Roboto;font-variant-ligatures:normal;font-variant-caps:normal;font-variant-numeric:normal;font-feature-settings:normal;text-align:start;letter-spacing:0;word-spacing:0;writing-mode:lr-tb;text-anchor:start;fill:#e4eaf6;fill-opacity:1;stroke:none;stroke-width:6.42755"><path d="M20.2 23.35q0-4.695 3.414-7.105 2.963-2.084 7.859-2.084 7.582 0 10.846 3.716.854.98.854 1.783 0 1.406-1.481 1.406-.603 0-1.833-.829-1.205-.828-2.762-1.557-2.662-1.205-5.9-1.205-3.164 0-5.173 1.28-2.41 1.507-2.41 4.495 0 3.54 5.323 5.172l9.641 3.013q5.6 2.46 5.6 8.687 0 4.821-3.968 7.583-3.34 2.134-8.662 2.134-3.264 0-6.905-1.105-4.82-1.481-4.82-3.917 0-1.43 1.456-1.43.703 0 3.264 1.405 3.164 1.733 7.281 1.733 3.566 0 6.026-1.557 2.913-1.833 2.913-5.197 0-4.72-5.625-6.126l-7.28-2.31q-7.659-2.034-7.659-7.985z" style="font-style:normal;font-variant:normal;font-weight:400;font-stretch:normal;font-family:saxMono;-inkscape-font-specification:saxMono;stroke-width:6.42755"/></g></svg>