<svg xmlns="http://www.w3.org/2000/svg" width="64" height="64"><path d="M12 0h40v46.545L32 64 12 46.545Z" style="font-style:normal;font-variant:normal;font-weight:400;font-stretch:normal;font-size:30px;line-height:1.25;font-family:Roboto;font-variant-ligatures:normal;font-variant-caps:normal;font-variant-numeric:normal;font-feature-settings:normal;text-align:start;letter-spacing:0;word-spacing:0;writing-mode:lr-tb;text-anchor:start;fill:#e4eaf6;fill-opacity:1;stroke:none;stroke-width:1.17004px;stroke-linecap:butt;stroke-linejoin:miter;stroke-opacity:1"/><path d="M16 4h32v41L32 59 16 45Z" style="font-style:normal;font-variant:normal;font-weight:400;font-stretch:normal;font-size:30px;line-height:1.25;font-family:Roboto;font-variant-ligatures:normal;font-variant-caps:normal;font-variant-numeric:normal;font-feature-settings:normal;text-align:start;letter-spacing:0;word-spacing:0;writing-mode:lr-tb;text-anchor:start;fill:#405cb1;fill-opacity:1;stroke:none;stroke-width:1.11154px;stroke-linecap:butt;stroke-linejoin:miter;stroke-opacity:1"/><path d="M-20.531 26.211q-3.717 3.343-7.729 3.343-4.626 0-7.701-3.022-3.049-3.049-3.049-7.648 0-4.707 3.21-7.782Q-32.593 8-27.886 8q5.562 0 8.637 3.664 2.888 3.423 2.888 9.092 0 6.124-2.7 11.713-2.648 5.482-7.381 9.493-4.734 4.011-6.605 4.011-1.418 0-1.418-1.47 0-1.15 1.685-2.247 9.76-6.364 12.248-16.045zm-7.354-.187q3.37 0 5.535-1.792 2.327-1.925 2.327-5.241t-2.193-5.375q-2.166-2.086-5.509-2.086-3.316 0-5.428 1.979-2.193 2.032-2.193 5.321 0 3.263 2.086 5.242 2.085 1.952 5.375 1.952z" aria-label="9" style="font-style:normal;font-variant:normal;font-weight:400;font-stretch:normal;font-size:54.7671px;line-height:1.25;font-family:saxMono;-inkscape-font-specification:saxMono;font-variant-ligatures:normal;font-variant-caps:normal;font-variant-numeric:normal;font-feature-settings:normal;text-align:start;letter-spacing:0;word-spacing:0;writing-mode:lr-tb;text-anchor:start;fill:#e4eaf6;fill-opacity:1;stroke:none;stroke-width:6.84588" transform="translate(59.685)"/></svg>