<svg xmlns="http://www.w3.org/2000/svg" width="64" height="64"><path d="M3 3h58v58H3z" style="fill:#405cb1;fill-opacity:1;stroke:#e4eaf6;stroke-width:5.99978;stroke-miterlimit:4;stroke-dasharray:none;stroke-opacity:1"/><g aria-label="130" style="font-style:normal;font-variant:normal;font-weight:400;font-stretch:normal;font-size:28.8248px;line-height:1.25;font-family:saxMono;-inkscape-font-specification:saxMono;letter-spacing:0;word-spacing:0;fill:#e4eaf6;fill-opacity:1;stroke:none;stroke-width:.720619"><path d="M.003 39.748V24.224h-2.787q-1.055 0-1.055-.915 0-.929 1.055-.929H.96q.957 0 .957.929v16.44h2.956q1.083 0 1.083.984 0 .873-1.083.873H-3.53q-1.084 0-1.084-.929t1.084-.929zM19.158 24.238H11.84q-1.225 0-1.225-.943 0-.9 1.225-.9h9.021q1.098 0 1.098.745 0 .394-.267.718l-4.377 5.348q.408-.084.802-.084 1.858 0 2.941 1.168 1.098 1.154 1.098 3.012 0 3.575-3.673 6.235-3.364 2.449-7.066 2.449-1.379 0-1.379-.83 0-.845 1.154-.845 2.125 0 3.843-.76 1.998-.873 3.462-2.393 1.745-1.801 1.745-3.687 0-1.028-.675-1.76-.662-.745-1.675-.745-.788 0-1.914.478-1.126.479-1.408.479-.661 0-.661-.803 0-.45.337-.858zM26.238 36.075V27.91q0-2.603 1.59-4.25Q29.433 22 32.234 22q2.8 0 4.363 1.66 1.562 1.662 1.562 4.251v8.164q0 2.87-1.52 4.39-1.52 1.52-4.405 1.52-2.801 0-4.406-1.561-1.59-1.563-1.59-4.35zm9.993 0V27.91q0-1.787-1.084-2.913-1.07-1.14-3.054-1.14-3.927 0-3.927 4.053v8.164q0 1.928 1.07 2.997 1.07 1.07 3.012 1.07 3.983 0 3.983-4.067z" style="font-style:normal;font-variant:normal;font-weight:400;font-stretch:normal;font-size:28.8248px;line-height:1.25;font-family:saxMono;-inkscape-font-specification:saxMono;letter-spacing:0;word-spacing:0;fill:#e4eaf6;fill-opacity:1;stroke:none;stroke-width:.720619" transform="translate(15.227)"/></g></svg>