<?xml version="1.0" encoding="UTF-8" standalone="no"?>
<svg
   xmlns:dc="http://purl.org/dc/elements/1.1/"
   xmlns:cc="http://creativecommons.org/ns#"
   xmlns:rdf="http://www.w3.org/1999/02/22-rdf-syntax-ns#"
   xmlns:svg="http://www.w3.org/2000/svg"
   xmlns="http://www.w3.org/2000/svg"
   id="svg2"
   version="1.1"
   width="64"
   height="64">
  <metadata
     id="metadata8">
    <rdf:RDF>
      <cc:Work
         rdf:about="">
        <dc:format>image/svg+xml</dc:format>
        <dc:type
           rdf:resource="http://purl.org/dc/dcmitype/StillImage" />
        <dc:title />
      </cc:Work>
    </rdf:RDF>
  </metadata>
  <defs
     id="defs6" />
  <rect
     y="2.9998899"
     x="2.9998899"
     height="57.999866"
     width="58.000221"
     id="rect2989-6"
     style="fill:#405CB1;fill-opacity:1;stroke:#E4EAF6;stroke-width:5.99978;stroke-miterlimit:4;stroke-dasharray:none;stroke-opacity:1" />
  <g
     transform="translate(23.510133)"
     style="font-style:normal;font-variant:normal;font-weight:normal;font-stretch:normal;font-size:28.8248px;line-height:1.25;font-family:saxMono;-inkscape-font-specification:saxMono;letter-spacing:0px;word-spacing:0px;fill:#E4EAF6;fill-opacity:1;stroke:none;stroke-width:0.720619"
     id="texte"
     aria-label="20">
    <path
       id="path9"
       style="font-style:normal;font-variant:normal;font-weight:normal;font-stretch:normal;font-size:28.8248px;line-height:1.25;font-family:saxMono;-inkscape-font-specification:saxMono;letter-spacing:0px;word-spacing:0px;fill:#E4EAF6;fill-opacity:1;stroke:none;stroke-width:0.720619"
       d="m -2.6009255,39.748074 h 7.7973338 q 1.3511625,0 1.3511625,0.942999 0,0.91485 -1.0978196,0.91485 h -9.7818536 q -1.0415212,0 -1.0415212,-0.816328 0,-0.36594 0.3940891,-0.844476 L 3.3244852,29.909922 q 1.2948641,-1.562282 1.2948641,-2.927519 0,-1.505983 -1.2104165,-2.364534 -1.0837449,-0.760029 -2.64602656,-0.760029 -1.95637074,0 -3.01196644,1.224491 -0.506686,0.591134 -1.1963418,2.280087 -0.4926114,1.224491 -1.083745,1.224491 -0.8444766,0 -0.8444766,-0.999297 0,-1.140044 0.7459544,-2.491206 1.7171023,-3.096414 5.4890977,-3.096414 2.3504598,0 3.9408907,1.196341 1.7452516,1.323014 1.7452516,3.6031 0,1.970446 -1.9704454,4.33498 z" />
    <path
       id="path11"
       style="font-style:normal;font-variant:normal;font-weight:normal;font-stretch:normal;font-size:28.8248px;line-height:1.25;font-family:saxMono;-inkscape-font-specification:saxMono;letter-spacing:0px;word-spacing:0px;fill:#E4EAF6;fill-opacity:1;stroke:none;stroke-width:0.720619"
       d="m 10.432163,36.074601 v -8.163273 q 0,-2.603803 1.59043,-4.250533 1.604506,-1.660803 4.405353,-1.660803 2.800848,0 4.363129,1.660803 1.562282,1.660804 1.562282,4.250533 v 8.163273 q 0,2.87122 -1.520058,4.391278 -1.520058,1.520058 -4.405353,1.520058 -2.800847,0 -4.405353,-1.562282 -1.59043,-1.562281 -1.59043,-4.349054 z m 9.992972,0 v -8.163273 q 0,-1.787476 -1.083745,-2.913445 -1.06967,-1.140043 -3.05419,-1.140043 -3.926816,0 -3.926816,4.053488 v 8.163273 q 0,1.928222 1.06967,2.997892 1.069671,1.06967 3.011967,1.06967 3.983114,0 3.983114,-4.067562 z" />
  </g>
</svg>
