<svg xmlns="http://www.w3.org/2000/svg" width="64" height="64"><g style="fill:#405cb1;fill-opacity:1"><path d="m109.272 67.89 30.46-60.92 30.46 60.92z" style="fill:#405cb1;fill-opacity:1;stroke:#e4eaf6;stroke-width:1.90374;stroke-linecap:butt;stroke-linejoin:miter;stroke-miterlimit:4;stroke-dasharray:none;stroke-opacity:1" transform="translate(-107.732 -4.842)"/></g><g style="font-style:normal;font-variant:normal;font-weight:400;font-stretch:normal;font-size:25.9606px;line-height:1.25;font-family:saxMono;-inkscape-font-specification:saxMono;letter-spacing:0;word-spacing:0;fill:#e4eaf6;fill-opacity:1;stroke:none;stroke-width:.649014"><path d="m32.152 31.61 4.107-9.875q.304-.735.976-.735.824 0 .824 1.14v15.922q0 .938-.836.938-.9 0-.9-1.166V25.335l-3.398 7.986q-.317.748-.81.748-.546 0-.876-.748l-3.562-7.986v12.727q0 .938-.862.938-.874 0-.874-1.052V22.154q0-1.154.925-1.154.596 0 .888.672z" aria-label="M" style="stroke-width:.649014"/></g><g aria-label="Nf" style="font-style:normal;font-variant:normal;font-weight:400;font-stretch:normal;font-size:25.9606px;line-height:1.25;font-family:saxMono;-inkscape-font-specification:saxMono;letter-spacing:0;word-spacing:0;fill:#e4eaf6;fill-opacity:1;stroke:none;stroke-width:.649014"><path d="M29.123 55.148V41.965q0-1.192.836-1.192.887 0 .887 1.192v15.908q0 .9-.861.9-.596 0-.926-.545l-8.24-13.817v13.386q0 .976-.912.976-.824 0-.824-.976V41.965q0-1.192.837-1.192.52 0 .912.66zM36.424 47.34h-1.8q-.963 0-.963-.824 0-.8.963-.8h1.8v-1.584q0-4.132 4.221-4.132 1.699 0 2.84.621 1.432.887 1.432 2.523 0 1.064-.837 1.064-.557 0-.862-.633-.355-1.065-.608-1.319-.507-.633-1.978-.633-2.56 0-2.56 2.547v1.547h3.334q1.077 0 1.077.811t-1.077.811h-3.334v10.382q0 .964-.837.964-.811 0-.811-.964z" style="stroke-width:.649014"/></g></svg>