<svg xmlns="http://www.w3.org/2000/svg" width="64" height="64"><path d="M1 1h62v62H1z" style="fill:#405cb1;fill-opacity:1;stroke:#e4eaf6;stroke-width:2.00014;stroke-miterlimit:4;stroke-dasharray:none;stroke-opacity:1"/><g aria-label="125" style="font-style:normal;font-weight:400;font-size:36.031px;line-height:1.25;font-family:saxMono;letter-spacing:0;word-spacing:0;fill:#e4eaf6;fill-opacity:1;stroke:none;stroke-width:4.8718"><path d="M-7.996 41.685V22.28h-3.484q-1.32 0-1.32-1.144 0-1.161 1.32-1.161h4.68q1.196 0 1.196 1.161v20.55h3.695q1.355 0 1.355 1.23 0 1.091-1.355 1.091h-10.503q-1.355 0-1.355-1.16 0-1.162 1.355-1.162zM8.506 41.685h9.747q1.689 0 1.689 1.179 0 1.143-1.373 1.143H6.342q-1.302 0-1.302-1.02 0-.457.493-1.056l10.38-12.544q1.618-1.952 1.618-3.659 0-1.882-1.513-2.956-1.354-.95-3.307-.95-2.446 0-3.765 1.53-.633.74-1.496 2.851-.615 1.53-1.354 1.53-1.056 0-1.056-1.248 0-1.426.933-3.114Q8.119 19.5 12.834 19.5q2.938 0 4.926 1.495 2.182 1.654 2.182 4.504 0 2.463-2.463 5.419zM28.932 28.596q2.305-1.038 3.994-1.038 2.85 0 4.715 2.005 1.812 1.953 1.812 4.82 0 4.786-4.61 7.636-3.958 2.463-9.025 2.463-1.267 0-1.267-1.038t1.548-1.178q4.223-.405 6.422-1.53 4.521-2.323 4.521-6.335 0-1.9-1.073-3.201-1.161-1.39-3.026-1.39-1.196 0-3.008.774-1.795.774-2.305.774-.95 0-.897-1.355l.281-7.9q.035-1.02.3-1.424.351-.704 1.301-.704h9.043q1.302 0 1.302 1.126 0 .493-.405.844-.387.335-.897.335h-8.462z" style="font-style:normal;font-weight:400;font-size:36.031px;line-height:1.25;font-family:saxMono;letter-spacing:0;word-spacing:0;fill:#e4eaf6;fill-opacity:1;stroke:none;stroke-width:4.8718" transform="translate(19.157)"/></g></svg>