<?xml version="1.0" encoding="UTF-8"?>
<svg xmlns="http://www.w3.org/2000/svg" xmlns:xlink="http://www.w3.org/1999/xlink" width="128px" height="128px" viewBox="0 0 128 128" version="1.1">
<g id="surface1">
<rect y="0" x="0" height="128" width="128" id="rect842" style="fill:#405CB1;fill-opacity:0;stroke:none;" />
<path style="fill-rule:nonzero;fill:#405CB1;fill-opacity:1;stroke-width:0.999924;stroke-linecap:round;stroke-linejoin:round;stroke:#E4EAF6;stroke-opacity:1;stroke-miterlimit:4;" d="M 26.5 27.5 L 37.5 27.5 L 37.5 63.5 L 26.5 63.5 Z M 26.5 27.5 " transform="matrix(2,0,0,2,0,0)"/>
<path style=" stroke:none;fill-rule:nonzero;fill:#E4EAF6;fill-opacity:1;" d="M 60.015625 66.175781 L 62.492188 58.394531 C 62.578125 58.132812 62.730469 58 62.949219 58 C 63.257812 58 63.410156 58.132812 63.410156 58.394531 C 63.410156 58.484375 63.390625 58.578125 63.359375 58.683594 L 60.464844 67.691406 C 60.398438 67.894531 60.246094 68 60.007812 68 C 59.769531 68 59.617188 67.894531 59.550781 67.691406 L 56.632812 58.683594 C 56.601562 58.578125 56.585938 58.484375 56.585938 58.394531 C 56.585938 58.132812 56.734375 58 57.035156 58 C 57.246094 58 57.394531 58.132812 57.480469 58.394531 Z M 60.015625 66.175781 "/>
<path style=" stroke:none;fill-rule:nonzero;fill:#E4EAF6;fill-opacity:1;" d="M 65.746094 66.878906 L 70.808594 66.878906 C 71.214844 66.878906 71.414062 67.035156 71.414062 67.351562 C 71.414062 67.65625 71.214844 67.808594 70.808594 67.808594 L 65.289062 67.808594 C 65.160156 67.808594 65.046875 67.773438 64.945312 67.695312 C 64.839844 67.617188 64.789062 67.492188 64.789062 67.324219 L 64.789062 58.65625 C 64.789062 58.21875 64.949219 58 65.265625 58 C 65.585938 58 65.746094 58.230469 65.746094 58.695312 Z M 65.746094 66.878906 "/>
<path style=" stroke:none;fill-rule:nonzero;fill:#E4EAF6;fill-opacity:1;" d="M 65.878906 79.019531 L 62.0625 79.019531 L 61.519531 81.714844 C 61.480469 81.902344 61.34375 81.996094 61.101562 81.996094 C 60.769531 81.996094 60.613281 81.867188 60.632812 81.601562 C 60.644531 81.417969 60.886719 80.15625 61.355469 77.808594 C 61.789062 75.667969 62.082031 74.265625 62.238281 73.605469 C 62.457031 72.535156 63.042969 72 63.996094 72 C 64.949219 72 65.535156 72.535156 65.757812 73.605469 C 66.046875 74.980469 66.339844 76.355469 66.628906 77.730469 C 67.125 80.078125 67.371094 81.34375 67.371094 81.523438 C 67.371094 81.84375 67.203125 82.003906 66.871094 82.003906 C 66.605469 82.003906 66.453125 81.890625 66.40625 81.660156 Z M 62.222656 78.089844 L 65.695312 78.089844 L 64.914062 74.125 C 64.757812 73.328125 64.4375 72.929688 63.949219 72.929688 C 63.65625 72.929688 63.4375 73.039062 63.285156 73.257812 C 63.164062 73.441406 63.0625 73.753906 62.976562 74.195312 Z M 62.222656 78.089844 "/>
<path style=" stroke:none;fill-rule:nonzero;fill:#E4EAF6;fill-opacity:1;" d="M 60.691406 88.578125 C 60.691406 87.699219 61.011719 87.035156 61.648438 86.585938 C 62.203125 86.195312 62.9375 86 63.851562 86 C 65.269531 86 66.285156 86.347656 66.894531 87.042969 C 67.054688 87.226562 67.132812 87.390625 67.132812 87.542969 C 67.132812 87.804688 66.996094 87.9375 66.71875 87.9375 C 66.605469 87.9375 66.433594 87.859375 66.203125 87.703125 C 65.976562 87.550781 65.71875 87.402344 65.429688 87.265625 C 64.933594 87.042969 64.378906 86.929688 63.773438 86.929688 C 63.183594 86.929688 62.699219 87.050781 62.324219 87.289062 C 61.875 87.570312 61.648438 87.988281 61.648438 88.546875 C 61.648438 89.210938 62.144531 89.695312 63.140625 90 L 65.84375 90.84375 C 66.890625 91.304688 67.414062 92.117188 67.414062 93.28125 C 67.414062 94.179688 67.042969 94.890625 66.300781 95.40625 C 65.679688 95.804688 64.867188 96.003906 63.875 96.003906 C 63.261719 96.003906 62.617188 95.902344 61.9375 95.695312 C 61.035156 95.417969 60.585938 95.050781 60.585938 94.597656 C 60.585938 94.328125 60.722656 94.195312 60.992188 94.195312 C 61.125 94.195312 61.429688 94.328125 61.910156 94.589844 C 62.5 94.914062 63.179688 95.074219 63.949219 95.074219 C 64.617188 95.074219 65.179688 94.929688 65.640625 94.640625 C 66.183594 94.296875 66.457031 93.8125 66.457031 93.179688 C 66.457031 92.300781 65.929688 91.726562 64.878906 91.464844 L 62.839844 90.816406 C 61.40625 90.4375 60.691406 89.6875 60.691406 88.578125 Z M 60.691406 88.578125 "/>
<path style=" stroke:none;fill-rule:nonzero;fill:#E4EAF6;fill-opacity:1;" d="M 60.691406 102.578125 C 60.691406 101.699219 61.007812 101.035156 61.648438 100.585938 C 62.203125 100.195312 62.9375 100 63.851562 100 C 65.269531 100 66.285156 100.347656 66.894531 101.042969 C 67.054688 101.226562 67.132812 101.390625 67.132812 101.542969 C 67.132812 101.804688 66.996094 101.9375 66.71875 101.9375 C 66.605469 101.9375 66.433594 101.859375 66.203125 101.703125 C 65.980469 101.550781 65.71875 101.402344 65.429688 101.265625 C 64.933594 101.042969 64.378906 100.929688 63.773438 100.929688 C 63.183594 100.929688 62.699219 101.050781 62.324219 101.289062 C 61.875 101.570312 61.648438 101.992188 61.648438 102.550781 C 61.648438 103.210938 62.144531 103.695312 63.140625 104 L 65.84375 104.84375 C 66.890625 105.304688 67.414062 106.117188 67.414062 107.28125 C 67.414062 108.183594 67.042969 108.890625 66.300781 109.40625 C 65.679688 109.808594 64.867188 110.007812 63.875 110.007812 C 63.261719 110.007812 62.617188 109.902344 61.9375 109.695312 C 61.035156 109.417969 60.585938 109.054688 60.585938 108.597656 C 60.585938 108.332031 60.722656 108.195312 60.992188 108.195312 C 61.125 108.195312 61.429688 108.328125 61.910156 108.589844 C 62.5 108.914062 63.179688 109.078125 63.949219 109.078125 C 64.617188 109.078125 65.179688 108.929688 65.640625 108.640625 C 66.183594 108.296875 66.457031 107.8125 66.457031 107.183594 C 66.457031 106.300781 65.933594 105.726562 64.878906 105.464844 L 62.839844 104.816406 C 61.40625 104.4375 60.691406 103.691406 60.691406 102.578125 Z M 60.691406 102.578125 "/>
<path style=" stroke:none;fill-rule:nonzero;fill:#E4EAF6;fill-opacity:1;" d="M 60.828125 121.027344 L 60.828125 117.085938 C 60.828125 115.027344 61.917969 114 64.101562 114 C 64.988281 114 65.703125 114.195312 66.242188 114.589844 C 66.863281 115.074219 67.171875 115.71875 67.171875 116.527344 C 67.171875 116.917969 67.015625 117.113281 66.699219 117.113281 C 66.476562 117.113281 66.3125 116.929688 66.214844 116.5625 C 66.152344 116.25 66.035156 115.949219 65.863281 115.667969 C 65.589844 115.175781 64.980469 114.929688 64.03125 114.929688 C 63.21875 114.929688 62.636719 115.132812 62.285156 115.542969 C 61.957031 115.910156 61.792969 116.507812 61.792969 117.335938 L 61.792969 120.625 C 61.792969 121.480469 61.964844 122.089844 62.3125 122.457031 C 62.683594 122.871094 63.277344 123.078125 64.089844 123.078125 C 65.3125 123.078125 66.023438 122.644531 66.214844 121.78125 C 66.285156 121.460938 66.324219 121.296875 66.328125 121.289062 C 66.398438 121.109375 66.523438 121.019531 66.699219 121.019531 C 67.015625 121.019531 67.171875 121.214844 67.171875 121.605469 C 67.171875 122.378906 66.847656 123.003906 66.195312 123.476562 C 65.667969 123.824219 64.980469 124 64.128906 124 C 63.121094 124 62.328125 123.761719 61.757812 123.28125 C 61.136719 122.769531 60.828125 122.019531 60.828125 121.027344 Z M 60.828125 121.027344 "/>
<path style="fill:none;stroke-width:0.5;stroke-linecap:round;stroke-linejoin:round;stroke:#E4EAF6;stroke-opacity:1;stroke-miterlimit:4;" d="M 35.5 45.501953 C 35.5 47.433594 33.933594 49.001953 32 49.001953 C 30.066406 49.001953 28.5 47.433594 28.5 45.501953 C 28.5 43.568359 30.066406 42.001953 32 42.001953 C 33.933594 42.001953 35.5 43.568359 35.5 45.501953 Z M 35.5 45.501953 " transform="matrix(2,0,0,2,0,0)"/>
</g>
</svg>
