<svg xmlns="http://www.w3.org/2000/svg" width="64" height="64"><path d="M1 1h62v62H1z" style="fill:#405cb1;fill-opacity:1;stroke:#e4eaf6;stroke-width:2.00014;stroke-miterlimit:4;stroke-dasharray:none;stroke-opacity:1"/><g aria-label="85" style="font-style:normal;font-weight:400;font-size:36.031px;line-height:1.25;font-family:saxMono;letter-spacing:0;word-spacing:0;fill:#e4eaf6;fill-opacity:1;stroke:none;stroke-width:4.8718"><path d="M-10.512 30.865q-3.255-1.6-3.255-4.926 0-2.78 1.918-4.61Q-9.932 19.5-7.152 19.5q2.745 0 4.557 1.76 1.812 1.759 1.812 4.503 0 3.167-3.026 5.067Q.184 32.695.184 37.128q0 3.326-1.988 5.349-1.988 2.005-5.313 2.005-3.254 0-5.383-1.97-2.217-2.023-2.217-5.243 0-4.521 4.205-6.404zm3.378-1.003q1.812 0 2.867-1.038 1.074-1.055 1.074-2.867t-1.109-2.974q-1.108-1.16-2.903-1.16-1.812 0-2.99 1.196-1.162 1.196-1.162 3.026 0 1.759 1.25 2.815 1.178 1.002 2.973 1.002zm-.018 2.147q-2.305 0-3.73 1.425-1.425 1.407-1.425 3.712t1.548 3.835q1.566 1.513 3.889 1.513 2.181 0 3.448-1.513 1.196-1.442 1.196-3.73 0-2.251-1.32-3.712-1.372-1.53-3.606-1.53zM9.175 28.596q2.304-1.038 3.993-1.038 2.85 0 4.715 2.005 1.812 1.953 1.812 4.82 0 4.786-4.609 7.636-3.959 2.463-9.025 2.463-1.267 0-1.267-1.038t1.548-1.178q4.222-.405 6.422-1.53 4.521-2.323 4.521-6.335 0-1.9-1.073-3.201-1.161-1.39-3.026-1.39-1.196 0-3.009.774-1.794.774-2.304.774-.95 0-.898-1.355l.282-7.9q.035-1.02.299-1.424.352-.704 1.302-.704H17.9q1.302 0 1.302 1.126 0 .493-.405.844-.387.335-.897.335H9.439Z" style="font-style:normal;font-weight:400;font-size:36.031px;line-height:1.25;font-family:saxMono;letter-spacing:0;word-spacing:0;fill:#e4eaf6;fill-opacity:1;stroke:none;stroke-width:4.8718" transform="translate(29.51)"/></g></svg>