<svg xmlns="http://www.w3.org/2000/svg" width="64" height="64"><path d="M1 1h62v62H1z" style="fill:#405cb1;fill-opacity:1;stroke:#e4eaf6;stroke-width:2.00014;stroke-miterlimit:4;stroke-dasharray:none;stroke-opacity:1"/><g aria-label="20" style="font-style:normal;font-weight:400;font-size:36.031px;line-height:1.25;font-family:saxMono;letter-spacing:0;word-spacing:0;fill:#e4eaf6;fill-opacity:1;stroke:none;stroke-width:4.8718"><path d="M-11.251 41.685h9.747q1.688 0 1.688 1.179 0 1.143-1.372 1.143h-12.227q-1.302 0-1.302-1.02 0-.457.493-1.056l10.38-12.544q1.618-1.952 1.618-3.659 0-1.882-1.513-2.956-1.355-.95-3.307-.95-2.446 0-3.765 1.53-.634.74-1.496 2.851-.616 1.53-1.354 1.53-1.056 0-1.056-1.248 0-1.426.932-3.114 2.147-3.871 6.862-3.871 2.938 0 4.926 1.495Q.184 22.65.184 25.5q0 2.463-2.463 5.419zM5.04 37.093V26.89q0-3.255 1.988-5.313Q9.034 19.5 12.535 19.5t5.454 2.076q1.953 2.076 1.953 5.313v10.204q0 3.59-1.9 5.49-1.9 1.9-5.507 1.9-3.501 0-5.507-1.953-1.988-1.953-1.988-5.437zm12.491 0V26.89q0-2.234-1.354-3.642-1.337-1.425-3.818-1.425-4.909 0-4.909 5.067v10.204q0 2.41 1.338 3.748 1.337 1.337 3.765 1.337 4.978 0 4.978-5.085z" style="font-style:normal;font-weight:400;font-size:36.031px;line-height:1.25;font-family:saxMono;letter-spacing:0;word-spacing:0;fill:#e4eaf6;fill-opacity:1;stroke:none;stroke-width:4.8718" transform="translate(29.388)"/></g></svg>