<svg xmlns="http://www.w3.org/2000/svg" width="64" height="64"><path d="M23.335-21.92h43.84v43.84h-43.84Z" style="fill:#405cb1;fill-opacity:1;stroke:#e4eaf6;stroke-width:1.41431;stroke-miterlimit:4;stroke-dasharray:none;stroke-opacity:1" transform="rotate(45)"/><path d="M3.353 24.238h-7.32q-1.224 0-1.224-.943 0-.9 1.225-.9h9.022q1.097 0 1.097.745 0 .394-.267.718L1.51 29.206q.408-.084.802-.084 1.858 0 2.942 1.168 1.098 1.154 1.098 3.012 0 3.575-3.674 6.235-3.364 2.449-7.065 2.449-1.38 0-1.38-.83 0-.845 1.154-.845 2.126 0 3.843-.76 1.998-.873 3.462-2.393 1.745-1.801 1.745-3.687 0-1.028-.675-1.76-.662-.745-1.675-.745-.788 0-1.914.478-1.126.479-1.408.479-.661 0-.661-.803 0-.45.338-.858z" aria-label="3" style="font-style:normal;font-variant:normal;font-weight:400;font-stretch:normal;font-size:28.8248px;line-height:1.25;font-family:saxMono;-inkscape-font-specification:saxMono;letter-spacing:0;word-spacing:0;fill:#e4eaf6;fill-opacity:1;stroke:none;stroke-width:.720619" transform="translate(31.709)"/></svg>