<svg xmlns="http://www.w3.org/2000/svg" width="64" height="64"><path fill="none" d="M0 0h64v64H0z" style="fill:#405cb1;fill-opacity:0;stroke-width:6.4;stroke-linecap:round;stroke-linejoin:round;paint-order:markers stroke fill;stop-color:#e4eaf6"/><path d="M.984 63.016h62.032V48.477c0-33.923-62.032-33.923-62.032 0v14.539z" style="font-style:normal;font-variant:normal;font-weight:400;font-stretch:normal;font-size:30px;line-height:1.25;font-family:Roboto;font-variant-ligatures:normal;font-variant-caps:normal;font-variant-numeric:normal;font-feature-settings:normal;text-align:start;letter-spacing:0;word-spacing:0;writing-mode:lr-tb;text-anchor:start;fill:#405cb1;fill-opacity:1;stroke:#e4eaf6;stroke-width:1.96876;stroke-linecap:butt;stroke-linejoin:miter;stroke-miterlimit:4;stroke-dasharray:none;stroke-opacity:1"/><g aria-label="80" style="font-style:normal;font-variant:normal;font-weight:400;font-stretch:normal;font-size:28.8248px;line-height:1.25;font-family:saxMono;-inkscape-font-specification:saxMono;letter-spacing:0;word-spacing:0;fill:#e4eaf6;fill-opacity:1;stroke:none;stroke-width:.720619"><path d="M-2.01 44.092q-2.604-1.28-2.604-3.94 0-2.224 1.535-3.688Q-1.545 35 .678 35q2.196 0 3.646 1.407 1.45 1.408 1.45 3.604 0 2.533-2.421 4.053 3.195 1.492 3.195 5.039 0 2.66-1.59 4.278-1.591 1.605-4.251 1.605-2.604 0-4.307-1.576-1.774-1.619-1.774-4.195 0-3.617 3.364-5.123zm2.703-.802q1.45 0 2.294-.83.858-.845.858-2.295t-.886-2.378q-.887-.93-2.323-.93-1.45 0-2.392.958-.93.957-.93 2.42 0 1.408 1 2.253.943.802 2.379.802zm-.015 1.717q-1.843 0-2.983 1.14-1.14 1.126-1.14 2.97 0 1.844 1.238 3.068 1.253 1.21 3.11 1.21 1.746 0 2.76-1.21.956-1.154.956-2.984 0-1.801-1.055-2.97-1.098-1.224-2.886-1.224ZM10.432 49.075V40.91q0-2.603 1.59-4.25Q13.628 35 16.429 35q2.8 0 4.363 1.66 1.562 1.662 1.562 4.251v8.164q0 2.87-1.52 4.39-1.52 1.52-4.405 1.52-2.8 0-4.405-1.561-1.59-1.563-1.59-4.35zm9.993 0V40.91q0-1.787-1.084-2.913-1.07-1.14-3.054-1.14-3.927 0-3.927 4.053v8.164q0 1.928 1.07 2.998 1.07 1.07 3.012 1.07 3.983 0 3.983-4.068z" style="font-style:normal;font-variant:normal;font-weight:400;font-stretch:normal;font-size:28.8248px;line-height:1.25;font-family:saxMono;-inkscape-font-specification:saxMono;letter-spacing:0;word-spacing:0;fill:#e4eaf6;fill-opacity:1;stroke:none;stroke-width:.720619" transform="translate(23.51)"/></g></svg>