<?xml version="1.0" encoding="UTF-8" standalone="no"?>
<svg
   xmlns:dc="http://purl.org/dc/elements/1.1/"
   xmlns:cc="http://creativecommons.org/ns#"
   xmlns:rdf="http://www.w3.org/1999/02/22-rdf-syntax-ns#"
   xmlns:svg="http://www.w3.org/2000/svg"
   xmlns="http://www.w3.org/2000/svg"
   id="svg2"
   version="1.1"
   width="64"
   height="64">
  <metadata
     id="metadata8">
    <rdf:RDF>
      <cc:Work
         rdf:about="">
        <dc:format>image/svg+xml</dc:format>
        <dc:type
           rdf:resource="http://purl.org/dc/dcmitype/StillImage" />
        <dc:title />
      </cc:Work>
    </rdf:RDF>
  </metadata>
  <defs
     id="defs6" />
  <rect
     y="1.00007"
     x="1.0000679"
     height="61.999863"
     width="61.999863"
     id="rect2989-6"
     style="fill:#405CB1;fill-opacity:1;stroke:#E4EAF6;stroke-width:2.00014;stroke-miterlimit:4;stroke-dasharray:none;stroke-opacity:1" />
  <g
     transform="translate(29.387667)"
     style="font-style:normal;font-weight:normal;font-size:36.031px;line-height:1.25;font-family:saxMono;letter-spacing:0px;word-spacing:0px;fill:#E4EAF6;fill-opacity:1;stroke:none;stroke-width:4.8718"
     id="texte"
     aria-label="20">
    <path
       id="path9"
       style="font-style:normal;font-weight:normal;font-size:36.031px;line-height:1.25;font-family:saxMono;letter-spacing:0px;word-spacing:0px;fill:#E4EAF6;fill-opacity:1;stroke:none;stroke-width:4.8718"
       d="m -11.251157,41.68509 h 9.7466667 q 1.688953,0 1.688953,1.178749 0,1.143562 -1.3722744,1.143562 H -13.415128 q -1.301901,0 -1.301901,-1.02041 0,-0.457424 0.492611,-1.055595 L -3.844394,29.387401 q 1.61858,-1.952852 1.61858,-3.659399 0,-1.882478 -1.5130205,-2.955667 -1.3546811,-0.950036 -3.307533,-0.950036 -2.4454633,0 -3.7649575,1.530613 -0.633358,0.738917 -1.495428,2.850109 -0.615764,1.530613 -1.354681,1.530613 -1.055595,0 -1.055595,-1.249121 0,-1.425054 0.932443,-3.114007 2.146377,-3.870518 6.8613713,-3.870518 2.9380746,0 4.9261131,1.495427 2.1815643,1.653767 2.1815643,4.503875 0,2.463057 -2.4630565,5.418724 z" />
    <path
       id="path11"
       style="font-style:normal;font-weight:normal;font-size:36.031px;line-height:1.25;font-family:saxMono;letter-spacing:0px;word-spacing:0px;fill:#E4EAF6;fill-opacity:1;stroke:none;stroke-width:4.8718"
       d="M 5.0402034,37.093249 V 26.889158 q 0,-3.254754 1.9880385,-5.313165 2.0056317,-2.076005 5.5066911,-2.076005 3.501058,0 5.45391,2.076005 1.952852,2.076005 1.952852,5.313165 v 10.204091 q 0,3.589025 -1.900072,5.489097 -1.900072,1.900073 -5.50669,1.900073 -3.5010594,0 -5.5066911,-1.952852 -1.9880385,-1.952852 -1.9880385,-5.436318 z m 12.4912156,0 V 26.889158 q 0,-2.234344 -1.354681,-3.641805 -1.337088,-1.425054 -3.817738,-1.425054 -4.9085198,0 -4.9085198,5.066859 v 10.204091 q 0,2.410277 1.3370878,3.747365 1.337088,1.337087 3.764958,1.337087 4.978893,0 4.978893,-5.084452 z" />
  </g>
</svg>
