<?xml version="1.0" encoding="UTF-8" standalone="no"?>
<svg
   xmlns:dc="http://purl.org/dc/elements/1.1/"
   xmlns:cc="http://creativecommons.org/ns#"
   xmlns:rdf="http://www.w3.org/1999/02/22-rdf-syntax-ns#"
   xmlns:svg="http://www.w3.org/2000/svg"
   xmlns="http://www.w3.org/2000/svg"
   id="svg2"
   version="1.1"
   width="64"
   height="64">
  <metadata
     id="metadata8">
    <rdf:RDF>
      <cc:Work
         rdf:about="">
        <dc:format>image/svg+xml</dc:format>
        <dc:type
           rdf:resource="http://purl.org/dc/dcmitype/StillImage" />
        <dc:title />
      </cc:Work>
    </rdf:RDF>
  </metadata>
  <defs
     id="defs6" />
  <rect
     y="2.9998899"
     x="2.9998899"
     height="57.999866"
     width="58.000221"
     id="rect2989-6"
     style="fill:#405CB1;fill-opacity:1;stroke:#E4EAF6;stroke-width:5.99978;stroke-miterlimit:4;stroke-dasharray:none;stroke-opacity:1" />
  <g
     transform="translate(23.608656)"
     style="font-style:normal;font-variant:normal;font-weight:normal;font-stretch:normal;font-size:28.8248px;line-height:1.25;font-family:saxMono;-inkscape-font-specification:saxMono;letter-spacing:0px;word-spacing:0px;fill:#E4EAF6;fill-opacity:1;stroke:none;stroke-width:0.720619"
     id="texte"
     aria-label="50">
    <path
       id="path9"
       style="font-style:normal;font-variant:normal;font-weight:normal;font-stretch:normal;font-size:28.8248px;line-height:1.25;font-family:saxMono;-inkscape-font-specification:saxMono;letter-spacing:0px;word-spacing:0px;fill:#E4EAF6;fill-opacity:1;stroke:none;stroke-width:0.720619"
       d="m -2.0660903,29.276565 q 1.84377386,-0.830402 3.1949364,-0.830402 2.2800867,0 3.7719954,1.604505 1.4496848,1.562282 1.4496848,3.856443 0,3.828294 -3.6875478,6.108381 -3.16678713,1.970445 -7.2202747,1.970445 -1.0133719,0 -1.0133719,-0.830402 0,-0.830402 1.2385657,-0.942999 3.37790626,-0.323716 5.13723246,-1.224491 3.61717464,-1.857848 3.61717464,-5.066859 0,-1.520058 -0.8585512,-2.561579 -0.9289242,-1.111894 -2.4208328,-1.111894 -0.95707346,0 -2.4067582,0.619283 -1.4356102,0.619282 -1.8437739,0.619282 -0.7600289,0 -0.7178051,-1.083745 l 0.2251938,-6.319499 q 0.028149,-0.816328 0.2392683,-1.140044 0.2814922,-0.562984 1.0415211,-0.562984 h 7.2343494 q 1.0415211,0 1.0415211,0.900775 0,0.394089 -0.323716,0.675581 -0.3096414,0.267418 -0.7178051,0.267418 h -6.7698873 z" />
    <path
       id="path11"
       style="font-style:normal;font-variant:normal;font-weight:normal;font-stretch:normal;font-size:28.8248px;line-height:1.25;font-family:saxMono;-inkscape-font-specification:saxMono;letter-spacing:0px;word-spacing:0px;fill:#E4EAF6;fill-opacity:1;stroke:none;stroke-width:0.720619"
       d="m 10.432163,36.074601 v -8.163273 q 0,-2.603803 1.59043,-4.250533 1.604506,-1.660803 4.405353,-1.660803 2.800848,0 4.363129,1.660803 1.562282,1.660804 1.562282,4.250533 v 8.163273 q 0,2.87122 -1.520058,4.391278 -1.520058,1.520058 -4.405353,1.520058 -2.800847,0 -4.405353,-1.562282 -1.59043,-1.562281 -1.59043,-4.349054 z m 9.992972,0 v -8.163273 q 0,-1.787476 -1.083745,-2.913445 -1.06967,-1.140043 -3.05419,-1.140043 -3.926816,0 -3.926816,4.053488 v 8.163273 q 0,1.928222 1.06967,2.997892 1.069671,1.06967 3.011967,1.06967 3.983114,0 3.983114,-4.067562 z" />
  </g>
</svg>
