<svg xmlns="http://www.w3.org/2000/svg" width="64" height="64"><path fill="none" d="M0 0h64v64H0z" style="fill:#405cb1;fill-opacity:0;stroke-width:6.4;stroke-linecap:round;stroke-linejoin:round;paint-order:markers stroke fill;stop-color:#e4eaf6"/><path d="M.984 63h62.032V26.427c0-33.923-62.032-33.923-62.032 0z" style="font-style:normal;font-variant:normal;font-weight:400;font-stretch:normal;font-size:30px;line-height:1.25;font-family:Roboto;font-variant-ligatures:normal;font-variant-caps:normal;font-variant-numeric:normal;font-feature-settings:normal;text-align:start;letter-spacing:0;word-spacing:0;writing-mode:lr-tb;text-anchor:start;fill:#405cb1;fill-opacity:1;stroke:#e4eaf6;stroke-width:1.96876;stroke-linecap:butt;stroke-linejoin:miter;stroke-miterlimit:4;stroke-dasharray:none;stroke-opacity:1"/><path d="M14 32h36" style="fill:none;stroke:#e4eaf6;stroke-width:2;stroke-linecap:butt;stroke-linejoin:miter;stroke-miterlimit:4;stroke-dasharray:none;stroke-opacity:1"/><g aria-label="130120" style="font-style:normal;font-variant:normal;font-weight:400;font-stretch:normal;font-size:28.8248px;line-height:.95;font-family:saxMono;-inkscape-font-specification:saxMono;font-variant-ligatures:normal;font-variant-caps:normal;font-variant-numeric:normal;font-feature-settings:normal;text-align:center;letter-spacing:0;word-spacing:0;writing-mode:lr-tb;text-anchor:middle;fill:#e4eaf6;fill-opacity:1;stroke:none;stroke-width:3.6031"><path d="M15.809 26.063V10.54h-2.787q-1.056 0-1.056-.915 0-.929 1.056-.929h3.744q.957 0 .957.93v16.438h2.955q1.084 0 1.084.986 0 .872-1.084.872h-8.402q-1.084 0-1.084-.929t1.084-.929zM34.964 10.553h-7.319q-1.224 0-1.224-.943 0-.9 1.224-.9h9.022q1.098 0 1.098.745 0 .394-.267.718l-4.378 5.348q.409-.084.803-.084 1.858 0 2.941 1.168 1.098 1.154 1.098 3.012 0 3.575-3.673 6.235-3.364 2.45-7.066 2.45-1.38 0-1.38-.831 0-.845 1.155-.845 2.125 0 3.842-.76 1.999-.872 3.463-2.392 1.745-1.802 1.745-3.688 0-1.027-.676-1.76-.661-.745-1.675-.745-.788 0-1.914.478-1.126.479-1.407.479-.662 0-.662-.802 0-.45.338-.859zM42.044 22.39v-8.163q0-2.604 1.59-4.25 1.605-1.662 4.406-1.662 2.8 0 4.363 1.661 1.562 1.66 1.562 4.25v8.164q0 2.871-1.52 4.391t-4.405 1.52q-2.801 0-4.406-1.562-1.59-1.562-1.59-4.35zm9.993 0v-8.163q0-1.788-1.084-2.914-1.07-1.14-3.054-1.14-3.927 0-3.927 4.054v8.163q0 1.928 1.07 2.998 1.07 1.07 3.012 1.07 3.983 0 3.983-4.068zM15.809 53.447V37.923h-2.787q-1.056 0-1.056-.915 0-.93 1.056-.93h3.744q.957 0 .957.93v16.439h2.955q1.084 0 1.084.985 0 .873-1.084.873h-8.402q-1.084 0-1.084-.93 0-.928 1.084-.928zM29.01 53.447h7.798q1.351 0 1.351.943 0 .915-1.098.915H27.28q-1.041 0-1.041-.817 0-.366.394-.844l8.304-10.035q1.295-1.563 1.295-2.928 0-1.506-1.21-2.364-1.084-.76-2.647-.76-1.956 0-3.011 1.224-.507.591-1.197 2.28-.492 1.225-1.084 1.225-.844 0-.844-1 0-1.14.746-2.49 1.717-3.097 5.489-3.097 2.35 0 3.94 1.196 1.746 1.323 1.746 3.603 0 1.97-1.97 4.335zM42.044 49.773V41.61q0-2.604 1.59-4.25 1.605-1.661 4.406-1.661 2.8 0 4.363 1.66 1.562 1.661 1.562 4.251v8.163q0 2.872-1.52 4.392-1.52 1.52-4.405 1.52-2.801 0-4.406-1.563-1.59-1.562-1.59-4.349zm9.993 0V41.61q0-1.787-1.084-2.913-1.07-1.14-3.054-1.14-3.927 0-3.927 4.053v8.163q0 1.929 1.07 2.998 1.07 1.07 3.012 1.07 3.983 0 3.983-4.068z" style="text-align:center;text-anchor:middle;stroke-width:3.6031" transform="translate(-.579)"/></g></svg>