<svg xmlns="http://www.w3.org/2000/svg" width="64" height="64"><path d="M3 3h58v58H3z" style="fill:#405cb1;fill-opacity:1;stroke:#e4eaf6;stroke-width:5.99978;stroke-miterlimit:4;stroke-dasharray:none;stroke-opacity:1"/><g aria-label="6 8" style="font-style:normal;font-weight:400;font-size:21.5713px;line-height:1.25;font-family:sans-serif;text-align:center;letter-spacing:0;word-spacing:0;text-anchor:middle;fill:#e4eaf6;fill-opacity:1;stroke:none;stroke-width:.539282"><path d="M16.99 18.445q1.17-1.327 3.087-1.327 1.77 0 2.949 1.222 1.19 1.211 1.19 2.991 0 1.844-1.264 3.065-1.264 1.212-3.117 1.212-2.223 0-3.424-1.454-1.116-1.348-1.116-3.602 0-4.771 3.992-8.152 2.064-1.749 3.086-1.749.548 0 .548.58 0 .305-.285.537-.042.031-.558.337-4.224 2.496-5.087 6.34zm2.845.074q-1.338 0-2.191.706-.917.748-.917 2.064 0 1.306.854 2.128.863.81 2.18.81 1.306 0 2.16-.789.852-.79.852-2.086 0-1.285-.821-2.053-.822-.78-2.117-.78zM17.812 45.196q-1.948-.958-1.948-2.949 0-1.664 1.148-2.76 1.148-1.095 2.812-1.095 1.643 0 2.728 1.054 1.085 1.053 1.085 2.696 0 1.896-1.812 3.033 2.391 1.117 2.391 3.771 0 1.99-1.19 3.202-1.19 1.2-3.18 1.2-1.95 0-3.224-1.179-1.327-1.211-1.327-3.139 0-2.706 2.517-3.834zm2.023-.6q1.084 0 1.716-.621.643-.632.643-1.717t-.664-1.78q-.663-.695-1.738-.695-1.084 0-1.79.716-.695.716-.695 1.811 0 1.054.748 1.686.705.6 1.78.6zm-.01 1.285q-1.38 0-2.234.853-.853.843-.853 2.223t.927 2.296q.937.906 2.328.906 1.306 0 2.064-.906.716-.864.716-2.233 0-1.348-.79-2.223-.821-.916-2.159-.916z" style="font-style:normal;font-variant:normal;font-weight:400;font-stretch:normal;font-family:saxMono;-inkscape-font-specification:saxMono;text-align:center;text-anchor:middle;stroke-width:.539282"/></g><g aria-label="V" style="font-style:normal;font-weight:400;font-size:21.5713px;line-height:1.25;font-family:sans-serif;text-align:center;letter-spacing:0;word-spacing:0;text-anchor:middle;fill:#e4eaf6;fill-opacity:1;stroke:none;stroke-width:.539282"><path d="m42.13 36.75 3.707-11.638q.19-.59.685-.59.684 0 .684.59 0 .2-.073.431l-4.33 13.472q-.147.463-.684.463t-.685-.463l-4.36-13.472Q37 25.312 37 25.112q0-.59.674-.59.474 0 .664.59z" style="font-style:normal;font-variant:normal;font-weight:400;font-stretch:normal;font-family:saxMono;-inkscape-font-specification:saxMono;text-align:center;text-anchor:middle;stroke-width:.539282"/></g></svg>