<svg xmlns="http://www.w3.org/2000/svg" width="64" height="64"><path d="M3 3h58v58H3z" style="fill:#405cb1;fill-opacity:1;stroke:#e4eaf6;stroke-width:5.99978;stroke-miterlimit:4;stroke-dasharray:none;stroke-opacity:1"/><g aria-label="CAB" style="font-style:normal;font-variant:normal;font-weight:400;font-stretch:normal;font-size:28.8248px;line-height:1.25;font-family:saxMono;-inkscape-font-specification:saxMono;letter-spacing:0;word-spacing:0;fill:#e4eaf6;fill-opacity:1;stroke:none;stroke-width:.720619"><path d="M9.664 36.046v-7.881Q9.664 22 16.208 22q2.66 0 4.279 1.182 1.858 1.45 1.858 3.87 0 1.169-.943 1.169-.676 0-.971-1.098-.183-.943-.704-1.787-.816-1.478-3.66-1.478-2.434 0-3.49 1.224-.985 1.098-.985 3.59v6.572q0 2.562 1.041 3.66 1.112 1.238 3.547 1.238 3.674 0 4.25-2.59.212-.957.226-.985.211-.535.746-.535.943 0 .943 1.169 0 2.322-1.957 3.743-1.576 1.042-4.123 1.042-3.026 0-4.744-1.436-1.857-1.534-1.857-4.504zM35.392 36.032h-7.628l-1.084 5.391q-.113.563-.83.563-1 0-.944-.788.043-.55 1.45-7.586 1.295-6.418 1.76-8.403Q28.775 22 31.633 22q2.857 0 3.519 3.209l1.745 8.248q1.478 7.037 1.478 7.586 0 .957-1 .957-.788 0-.928-.69zm-7.305-1.857h6.939l-1.562-7.924q-.465-2.393-1.928-2.393-.873 0-1.323.661-.366.55-.62 1.872zM51.324 31.543q3.012.985 3.012 4.546 0 5.517-5.475 5.517h-6.755q-1.028 0-1.028-.943v-17.27q0-1.027 1.028-1.027h5.953q5.7 0 5.7 4.8 0 3.025-2.435 4.377zm-8.318 8.205h5.686q1.915 0 2.815-.83.915-.83.915-2.73 0-1.676-.943-2.647-.929-.971-2.59-.971h-5.883zm0-9.022h5.855q1.408 0 2.224-1.013.76-.929.76-2.379 0-1.492-.929-2.322-.9-.788-2.406-.788h-5.504z" style="stroke-width:.720619"/></g></svg>