<svg xmlns="http://www.w3.org/2000/svg" width="64" height="64"><path d="M3 3h58v58H3z" style="fill:#405cb1;fill-opacity:1;stroke:#e4eaf6;stroke-width:5.99978;stroke-miterlimit:4;stroke-dasharray:none;stroke-opacity:1"/><g aria-label="13V" style="font-style:normal;font-weight:400;font-size:28.8451px;line-height:1.25;font-family:sans-serif;letter-spacing:0;word-spacing:0;fill:#e4eaf6;fill-opacity:1;stroke:none;stroke-width:.721129"><path d="M14.845 39.76V24.226h-2.789Q11 24.225 11 23.31q0-.93 1.056-.93h3.747q.958 0 .958.93v16.45h2.957q1.085 0 1.085.986 0 .874-1.085.874H11.31q-1.085 0-1.085-.93t1.085-.93zM34.014 24.24H26.69q-1.225 0-1.225-.944 0-.902 1.225-.902h9.028q1.099 0 1.099.747 0 .394-.268.718l-4.38 5.352q.408-.084.803-.084 1.859 0 2.943 1.169 1.1 1.155 1.1 3.014 0 3.577-3.677 6.24Q29.972 42 26.268 42q-1.38 0-1.38-.831 0-.845 1.154-.845 2.127 0 3.845-.76 2-.874 3.465-2.395 1.747-1.803 1.747-3.69 0-1.028-.676-1.76-.662-.747-1.677-.747-.788 0-1.915.479t-1.408.479q-.662 0-.662-.803 0-.45.338-.86zM46.986 38.352l4.958-15.563q.253-.789.915-.789.916 0 .916.789 0 .267-.099.577L47.887 41.38q-.197.62-.915.62t-.916-.62l-5.83-18.014q-.1-.31-.1-.577 0-.789.902-.789.634 0 .888.789z" style="font-style:normal;font-variant:normal;font-weight:400;font-stretch:normal;font-family:saxMono;-inkscape-font-specification:saxMono;stroke-width:.721129"/></g></svg>