<svg xmlns="http://www.w3.org/2000/svg" width="64" height="64"><path d="M1 1h62v62H1z" style="fill:#405cb1;fill-opacity:1;stroke:#e4eaf6;stroke-width:2.00014;stroke-miterlimit:4;stroke-dasharray:none;stroke-opacity:1"/><g aria-label="80" style="font-style:normal;font-weight:400;font-size:36.031px;line-height:1.25;font-family:saxMono;letter-spacing:0;word-spacing:0;fill:#e4eaf6;fill-opacity:1;stroke:none;stroke-width:4.8718"><path d="M-10.512 30.865q-3.255-1.6-3.255-4.926 0-2.78 1.918-4.61Q-9.932 19.5-7.152 19.5q2.745 0 4.557 1.76 1.812 1.759 1.812 4.503 0 3.167-3.026 5.067Q.184 32.695.184 37.128q0 3.326-1.988 5.349-1.988 2.005-5.313 2.005-3.254 0-5.383-1.97-2.217-2.023-2.217-5.243 0-4.521 4.205-6.404zm3.378-1.003q1.812 0 2.867-1.038 1.074-1.055 1.074-2.867t-1.109-2.974q-1.108-1.16-2.903-1.16-1.812 0-2.99 1.196-1.162 1.196-1.162 3.026 0 1.759 1.25 2.815 1.178 1.002 2.973 1.002zm-.018 2.147q-2.305 0-3.73 1.425-1.425 1.407-1.425 3.712t1.548 3.835q1.566 1.513 3.889 1.513 2.181 0 3.448-1.513 1.196-1.442 1.196-3.73 0-2.251-1.32-3.712-1.372-1.53-3.606-1.53zM5.04 37.093V26.89q0-3.255 1.988-5.313Q9.034 19.5 12.535 19.5t5.454 2.076q1.953 2.076 1.953 5.313v10.204q0 3.59-1.9 5.49-1.9 1.9-5.507 1.9-3.501 0-5.507-1.953-1.988-1.953-1.988-5.437zm12.491 0V26.89q0-2.234-1.354-3.642-1.337-1.425-3.818-1.425-4.909 0-4.909 5.067v10.204q0 2.41 1.338 3.748 1.337 1.337 3.765 1.337 4.978 0 4.978-5.085z" style="font-style:normal;font-weight:400;font-size:36.031px;line-height:1.25;font-family:saxMono;letter-spacing:0;word-spacing:0;fill:#e4eaf6;fill-opacity:1;stroke:none;stroke-width:4.8718" transform="translate(29.388)"/></g></svg>