<svg xmlns="http://www.w3.org/2000/svg" width="64" height="64"><path d="M1 1h62v62H1z" style="fill:#405cb1;fill-opacity:1;stroke:#e4eaf6;stroke-width:2.00014;stroke-miterlimit:4;stroke-dasharray:none;stroke-opacity:1"/><path d="M15 32h34" style="fill:none;stroke:#e4eaf6;stroke-width:2;stroke-linecap:butt;stroke-linejoin:miter;stroke-miterlimit:4;stroke-dasharray:none;stroke-opacity:1"/><g aria-label="3035" style="font-style:normal;font-variant:normal;font-weight:400;font-stretch:normal;font-size:28.8248px;line-height:.95;font-family:saxMono;-inkscape-font-specification:saxMono;font-variant-ligatures:normal;font-variant-caps:normal;font-variant-numeric:normal;font-feature-settings:normal;text-align:center;letter-spacing:0;word-spacing:0;writing-mode:lr-tb;text-anchor:middle;fill:#e4eaf6;fill-opacity:1;stroke:none;stroke-width:3.6031"><path d="M27.061 10.553h-7.318q-1.225 0-1.225-.943 0-.9 1.225-.9h9.021q1.098 0 1.098.745 0 .394-.267.718l-4.377 5.348q.408-.084.802-.084 1.858 0 2.941 1.168 1.098 1.154 1.098 3.012 0 3.575-3.673 6.235-3.364 2.45-7.066 2.45-1.379 0-1.379-.831 0-.845 1.154-.845 2.125 0 3.842-.76 1.999-.872 3.463-2.392 1.745-1.802 1.745-3.688 0-1.027-.676-1.76-.661-.745-1.674-.745-.789 0-1.915.478-1.126.479-1.407.479-.662 0-.662-.802 0-.45.338-.859zM34.14 22.39v-8.163q0-2.604 1.591-4.25 1.605-1.662 4.406-1.662 2.8 0 4.363 1.661 1.562 1.66 1.562 4.25v8.164q0 2.871-1.52 4.391t-4.405 1.52q-2.801 0-4.406-1.562-1.59-1.562-1.59-4.35zm9.994 0v-8.163q0-1.788-1.084-2.914-1.07-1.14-3.054-1.14-3.927 0-3.927 4.054v8.163q0 1.928 1.07 2.998 1.07 1.07 3.012 1.07 3.983 0 3.983-4.068zM27.061 37.937h-7.318q-1.225 0-1.225-.943 0-.901 1.225-.901h9.021q1.098 0 1.098.746 0 .394-.267.718l-4.377 5.348q.408-.084.802-.084 1.858 0 2.941 1.168Q30.06 45.143 30.06 47q0 3.575-3.673 6.235-3.364 2.449-7.066 2.449-1.379 0-1.379-.83 0-.845 1.154-.845 2.125 0 3.842-.76 1.999-.873 3.463-2.393 1.745-1.801 1.745-3.687 0-1.028-.676-1.76-.661-.746-1.674-.746-.789 0-1.915.479-1.126.478-1.407.478-.662 0-.662-.802 0-.45.338-.858zM37.448 42.975q1.844-.83 3.195-.83 2.28 0 3.772 1.604 1.45 1.563 1.45 3.857 0 3.828-3.688 6.108-3.166 1.97-7.22 1.97-1.013 0-1.013-.83t1.238-.943q3.378-.323 5.138-1.224 3.617-1.858 3.617-5.067 0-1.52-.859-2.562-.929-1.111-2.42-1.111-.958 0-2.407.619-1.436.62-1.844.62-.76 0-.718-1.085l.225-6.32q.028-.815.24-1.14.281-.562 1.041-.562h7.234q1.042 0 1.042.9 0 .395-.324.676-.31.268-.718.268h-6.77z" style="text-align:center;text-anchor:middle;stroke-width:3.6031" transform="translate(-.002)"/></g></svg>