<svg xmlns="http://www.w3.org/2000/svg" width="64" height="64"><path d="M1 1h62v62H1z" style="fill:#405cb1;fill-opacity:1;stroke:#e4eaf6;stroke-width:2.00014;stroke-miterlimit:4;stroke-dasharray:none;stroke-opacity:1"/><g aria-label="50" style="font-style:normal;font-weight:400;font-size:36.031px;line-height:1.25;font-family:saxMono;letter-spacing:0;word-spacing:0;fill:#e4eaf6;fill-opacity:1;stroke:none;stroke-width:4.8718"><path d="M-10.583 28.596q2.305-1.038 3.994-1.038 2.85 0 4.715 2.005 1.812 1.953 1.812 4.82 0 4.786-4.61 7.636-3.958 2.463-9.025 2.463-1.266 0-1.266-1.038t1.548-1.178q4.222-.405 6.421-1.53 4.522-2.323 4.522-6.335 0-1.9-1.073-3.201-1.161-1.39-3.026-1.39-1.197 0-3.009.774-1.794.774-2.305.774-.95 0-.897-1.355l.282-7.9q.035-1.02.299-1.424.352-.704 1.302-.704h9.043q1.302 0 1.302 1.126 0 .493-.405.844-.387.335-.897.335h-8.463zM5.04 37.093V26.89q0-3.255 1.988-5.313Q9.034 19.5 12.535 19.5t5.454 2.076q1.953 2.076 1.953 5.313v10.204q0 3.59-1.9 5.49-1.9 1.9-5.507 1.9-3.501 0-5.507-1.953-1.988-1.953-1.988-5.437zm12.491 0V26.89q0-2.234-1.354-3.642-1.337-1.425-3.818-1.425-4.909 0-4.909 5.067v10.204q0 2.41 1.338 3.748 1.337 1.337 3.765 1.337 4.978 0 4.978-5.085z" style="font-style:normal;font-weight:400;font-size:36.031px;line-height:1.25;font-family:saxMono;letter-spacing:0;word-spacing:0;fill:#e4eaf6;fill-opacity:1;stroke:none;stroke-width:4.8718" transform="translate(29.51)"/></g></svg>