<svg xmlns="http://www.w3.org/2000/svg" width="64" height="64"><path d="M3 3h58v58H3z" style="fill:#405cb1;fill-opacity:1;stroke:#e4eaf6;stroke-width:5.99978;stroke-miterlimit:4;stroke-dasharray:none;stroke-opacity:1"/><g aria-label="TT" style="font-style:normal;font-weight:400;font-size:44.0746px;line-height:1.25;font-family:sans-serif;letter-spacing:0;word-spacing:0;fill:#e4eaf6;fill-opacity:1;stroke:none;stroke-width:1.10187"><path d="M18.453 19.82h-7.877q-1.528 0-1.528-1.357Q9.048 17 10.791 17h18.207q1.786 0 1.786 1.399 0 1.42-1.786 1.42h-7.619v25.502Q21.38 47 19.938 47q-1.485 0-1.485-1.679zM42.62 19.82h-7.876q-1.528 0-1.528-1.357 0-1.463 1.743-1.463h18.207q1.786 0 1.786 1.399 0 1.42-1.786 1.42h-7.619v25.502q0 1.679-1.442 1.679-1.484 0-1.484-1.679z" style="font-style:normal;font-variant:normal;font-weight:400;font-stretch:normal;font-family:saxMono;-inkscape-font-specification:saxMono;stroke-width:1.10187"/></g></svg>