<svg xmlns="http://www.w3.org/2000/svg" width="64" height="64"><path d="M3 3h58v58H3z" style="fill:#405cb1;fill-opacity:1;stroke:#e4eaf6;stroke-width:5.99978;stroke-miterlimit:4;stroke-dasharray:none;stroke-opacity:1"/><g aria-label="6V" style="font-style:normal;font-weight:400;font-size:28.8451px;line-height:1.25;font-family:sans-serif;letter-spacing:0;word-spacing:0;fill:#e4eaf6;fill-opacity:1;stroke:none;stroke-width:.721129"><path d="M20.021 32.423q1.563-1.775 4.127-1.775 2.366 0 3.944 1.634 1.591 1.62 1.591 4 0 2.464-1.69 4.098-1.69 1.62-4.17 1.62-2.97 0-4.577-1.944-1.492-1.802-1.492-4.817 0-6.38 5.338-10.901Q25.852 22 27.218 22q.733 0 .733.775 0 .408-.38.718-.057.042-.747.45-5.648 3.339-6.803 8.48zm3.803.098q-1.789 0-2.93.944-1.225 1-1.225 2.76 0 1.747 1.14 2.845 1.156 1.085 2.916 1.085 1.747 0 2.888-1.056 1.14-1.057 1.14-2.79 0-1.717-1.098-2.746-1.099-1.042-2.831-1.042zM39.458 38.352l4.958-15.563q.253-.789.915-.789.915 0 .915.789 0 .267-.098.577L40.359 41.38q-.197.62-.915.62-.719 0-.916-.62l-5.83-18.014q-.1-.31-.1-.577 0-.789.902-.789.634 0 .887.789z" style="font-style:normal;font-variant:normal;font-weight:400;font-stretch:normal;font-family:saxMono;-inkscape-font-specification:saxMono;stroke-width:.721129"/></g></svg>