<?xml version="1.0" encoding="UTF-8" standalone="no"?>
<svg
   xmlns:dc="http://purl.org/dc/elements/1.1/"
   xmlns:cc="http://creativecommons.org/ns#"
   xmlns:rdf="http://www.w3.org/1999/02/22-rdf-syntax-ns#"
   xmlns:svg="http://www.w3.org/2000/svg"
   xmlns="http://www.w3.org/2000/svg"
   height="64"
   width="64"
   version="1.1"
   id="svg2">
  <metadata
     id="metadata8">
    <rdf:RDF>
      <cc:Work
         rdf:about="">
        <dc:format>image/svg+xml</dc:format>
        <dc:type
           rdf:resource="http://purl.org/dc/dcmitype/StillImage" />
        <dc:title />
      </cc:Work>
    </rdf:RDF>
  </metadata>
  <defs
     id="defs6" />
  <rect
     y="1.0000699"
     x="1.0000699"
     height="61.999863"
     width="61.999866"
     id="rect2989-6"
     style="fill:#405CB1;fill-opacity:1;stroke:#E4EAF6;stroke-width:2.00014;stroke-miterlimit:4;stroke-dasharray:none;stroke-opacity:1" />
  <path
     style="fill:none;stroke:#E4EAF6;stroke-width:2;stroke-linecap:butt;stroke-linejoin:miter;stroke-miterlimit:4;stroke-dasharray:none;stroke-opacity:1"
     d="M 15,32 H 49"
     id="path1192" />
  <g
     transform="translate(-0.1000225)"
     style="font-style:normal;font-variant:normal;font-weight:normal;font-stretch:normal;font-size:28.8248px;line-height:0.95;font-family:saxMono;-inkscape-font-specification:saxMono;font-variant-ligatures:normal;font-variant-caps:normal;font-variant-numeric:normal;font-feature-settings:normal;text-align:center;letter-spacing:0px;word-spacing:0px;writing-mode:lr-tb;text-anchor:middle;fill:#E4EAF6;fill-opacity:1;stroke:none;stroke-width:3.6031"
     id="texte"
     aria-label="4060">
    <path
       id="path12"
       style="text-align:center;text-anchor:middle;stroke-width:3.6031"
       d="m 25.442733,24.275855 h -6.432097 q -0.872626,0 -0.872626,-0.647432 0,-0.351865 0.323716,-1.337088 l 4.15201,-12.6812233 q 0.239268,-0.7318797 0.323716,-0.8726258 0.253343,-0.4222383 0.73188,-0.4222383 0.872626,0 0.872626,0.830402 0,0.1970445 -0.140747,0.647432 L 20.418097,22.418006 h 5.024636 v -7.811408 q 0,-1.083745 0.971148,-1.083745 0.942998,0 0.942998,1.083745 v 7.811408 h 2.01267 q 1.06967,0 1.06967,0.928925 0,0.928924 -1.06967,0.928924 h -2.01267 v 2.941593 q 0,1.083745 -0.957073,1.083745 -0.957073,0 -0.957073,-1.083745 z" />
    <path
       id="path14"
       style="text-align:center;text-anchor:middle;stroke-width:3.6031"
       d="m 34.140841,22.389857 v -8.163273 q 0,-2.603803 1.590431,-4.2505324 1.604505,-1.660804 4.405353,-1.660804 2.800847,0 4.363129,1.660804 1.562281,1.6608034 1.562281,4.2505324 v 8.163273 q 0,2.871221 -1.520058,4.391278 -1.520057,1.520058 -4.405352,1.520058 -2.800848,0 -4.405353,-1.562281 -1.590431,-1.562282 -1.590431,-4.349055 z m 9.992973,0 v -8.163273 q 0,-1.787476 -1.083745,-2.913445 -1.069671,-1.140043 -3.054191,-1.140043 -3.926816,0 -3.926816,4.053488 v 8.163273 q 0,1.928222 1.069671,2.997892 1.06967,1.06967 3.011966,1.06967 3.983115,0 3.983115,-4.067562 z" />
    <path
       id="path16"
       style="text-align:center;text-anchor:middle;stroke-width:3.6031"
       d="m 20.601067,46.114017 q 1.562282,-1.773401 4.12386,-1.773401 2.364535,0 3.940891,1.632655 1.590431,1.61858 1.590431,3.997189 0,2.463057 -1.688953,4.095711 -1.688953,1.618581 -4.166085,1.618581 -2.969742,0 -4.574248,-1.942297 -1.491908,-1.80155 -1.491908,-4.813516 0,-6.375798 5.334277,-10.893748 2.758623,-2.336385 4.12386,-2.336385 0.73188,0 0.73188,0.774103 0,0.408164 -0.380014,0.717806 -0.0563,0.04222 -0.745955,0.450387 -5.643918,3.335683 -6.798036,8.472915 z m 3.800144,0.09852 q -1.787475,0 -2.927518,0.942999 -1.224491,0.999297 -1.224491,2.758624 0,1.745251 1.140043,2.843071 1.154118,1.083745 2.913444,1.083745 1.745252,0 2.885295,-1.055596 1.140044,-1.055596 1.140044,-2.786773 0,-1.717102 -1.09782,-2.744549 -1.09782,-1.041521 -2.828997,-1.041521 z" />
    <path
       id="path18"
       style="text-align:center;text-anchor:middle;stroke-width:3.6031"
       d="m 34.140841,49.773416 v -8.163274 q 0,-2.603803 1.590431,-4.250532 1.604505,-1.660804 4.405353,-1.660804 2.800847,0 4.363129,1.660804 1.562281,1.660804 1.562281,4.250532 v 8.163274 q 0,2.87122 -1.520058,4.391278 -1.520057,1.520058 -4.405352,1.520058 -2.800848,0 -4.405353,-1.562282 -1.590431,-1.562282 -1.590431,-4.349054 z m 9.992973,0 v -8.163274 q 0,-1.787475 -1.083745,-2.913444 -1.069671,-1.140044 -3.054191,-1.140044 -3.926816,0 -3.926816,4.053488 v 8.163274 q 0,1.928221 1.069671,2.997891 1.06967,1.069671 3.011966,1.069671 3.983115,0 3.983115,-4.067562 z" />
  </g>
</svg>
