<?xml version="1.0" encoding="UTF-8" standalone="no"?>
<svg
   xmlns:dc="http://purl.org/dc/elements/1.1/"
   xmlns:cc="http://creativecommons.org/ns#"
   xmlns:rdf="http://www.w3.org/1999/02/22-rdf-syntax-ns#"
   xmlns:svg="http://www.w3.org/2000/svg"
   xmlns="http://www.w3.org/2000/svg"
   xmlns:sodipodi="http://sodipodi.sourceforge.net/DTD/sodipodi-0.dtd"
   xmlns:inkscape="http://www.inkscape.org/namespaces/inkscape"
   inkscape:version="1.0 (4035a4fb49, 2020-05-01)"
   sodipodi:docname="SCH DD.svg"
   height="64"
   width="64"
   version="1.1"
   id="svg2">
  <sodipodi:namedview
     inkscape:current-layer="svg2"
     inkscape:window-maximized="0"
     inkscape:window-y="259"
     inkscape:window-x="589"
     inkscape:cy="29.247159"
     inkscape:cx="9.6753288"
     inkscape:zoom="3.2773438"
     showgrid="false"
     id="namedview6"
     inkscape:window-height="787"
     inkscape:window-width="1329"
     inkscape:pageshadow="2"
     inkscape:pageopacity="0"
     guidetolerance="10"
     gridtolerance="10"
     objecttolerance="10"
     borderopacity="1"
     bordercolor="#666666"
     pagecolor="#405CB1" />
  <metadata
     id="metadata8">
    <rdf:RDF>
      <cc:Work
         rdf:about="">
        <dc:format>image/svg+xml</dc:format>
        <dc:type
           rdf:resource="http://purl.org/dc/dcmitype/StillImage" />
        <dc:title></dc:title>
      </cc:Work>
    </rdf:RDF>
  </metadata>
  <defs
     id="defs6" />
  <rect
     style="fill:#405CB1;fill-opacity:1;stroke:#E4EAF6;stroke-width:2.00014;stroke-miterlimit:4;stroke-dasharray:none;stroke-opacity:1"
     id="rect2989-6"
     width="61.999863"
     height="61.999863"
     x="1.0000679"
     y="1.00007" />
  <g
     style="font-style:normal;font-variant:normal;font-weight:normal;font-stretch:normal;font-size:44.978px;line-height:1.25;font-family:Roboto;-inkscape-font-specification:Roboto;font-variant-ligatures:normal;font-variant-caps:normal;font-variant-numeric:normal;font-feature-settings:normal;text-align:start;letter-spacing:0px;word-spacing:0px;writing-mode:lr-tb;text-anchor:start;fill:#E4EAF6;fill-opacity:1;stroke:none;stroke-width:5.62225"
     id="text833"
     aria-label="DD">
    <path
       id="path835"
       style="font-style:normal;font-variant:normal;font-weight:normal;font-stretch:normal;font-family:saxMono;-inkscape-font-specification:saxMono;stroke-width:5.62225"
       d="M 9.6317906,45.462655 V 18.80089 q 0,-1.800876 1.4934104,-1.800876 h 7.840403 q 5.292822,0 8.081985,2.679353 2.657391,2.920935 2.657391,7.423127 v 9.816976 q 0,10.080519 -10.980957,10.080519 h -7.598822 q -1.4934104,0 -1.4934104,-1.537334 z m 2.9868204,-1.361639 h 6.105412 q 4.150802,0 6.061489,-1.800877 1.910686,-1.800877 1.910686,-5.424593 v -9.773052 q 0,-7.22547 -7.972175,-7.22547 h -6.105412 z" />
    <path
       id="path837"
       style="font-style:normal;font-variant:normal;font-weight:normal;font-stretch:normal;font-family:saxMono;-inkscape-font-specification:saxMono;stroke-width:5.62225"
       d="M 34.29502,45.462655 V 18.80089 q 0,-1.800876 1.49341,-1.800876 h 7.840403 q 5.292822,0 8.081985,2.679353 2.657391,2.920935 2.657391,7.423127 v 9.816976 q 0,10.080519 -10.980957,10.080519 H 35.78843 q -1.49341,0 -1.49341,-1.537334 z m 2.98682,-1.361639 h 6.105412 q 4.150802,0 6.061489,-1.800877 1.910686,-1.800877 1.910686,-5.424593 v -9.773052 q 0,-7.22547 -7.972175,-7.22547 H 37.28184 Z" />
  </g>
</svg>
