<svg xmlns="http://www.w3.org/2000/svg" width="64" height="64"><path d="M1 1h62v62H1z" style="fill:#405cb1;fill-opacity:1;stroke:#e4eaf6;stroke-width:2.00014;stroke-miterlimit:4;stroke-dasharray:none;stroke-opacity:1"/><g aria-label="DD" style="font-style:normal;font-variant:normal;font-weight:400;font-stretch:normal;font-size:44.978px;line-height:1.25;font-family:Roboto;-inkscape-font-specification:Roboto;font-variant-ligatures:normal;font-variant-caps:normal;font-variant-numeric:normal;font-feature-settings:normal;text-align:start;letter-spacing:0;word-spacing:0;writing-mode:lr-tb;text-anchor:start;fill:#e4eaf6;fill-opacity:1;stroke:none;stroke-width:5.62225"><path d="M9.632 45.463V18.8Q9.632 17 11.125 17h7.84q5.293 0 8.083 2.68 2.657 2.92 2.657 7.422v9.817Q29.705 47 18.724 47h-7.599q-1.493 0-1.493-1.537zm2.987-1.362h6.105q4.15 0 6.062-1.8 1.91-1.802 1.91-5.425v-9.774q0-7.225-7.972-7.225h-6.105zM34.295 45.463V18.8q0-1.801 1.493-1.801h7.84q5.294 0 8.083 2.68 2.657 2.92 2.657 7.422v9.817Q54.368 47 43.388 47h-7.6q-1.493 0-1.493-1.537zm2.987-1.362h6.105q4.151 0 6.062-1.8 1.91-1.802 1.91-5.425v-9.774q0-7.225-7.972-7.225h-6.105Z" style="font-style:normal;font-variant:normal;font-weight:400;font-stretch:normal;font-family:saxMono;-inkscape-font-specification:saxMono;stroke-width:5.62225"/></g></svg>