<svg xmlns="http://www.w3.org/2000/svg" width="64" height="64"><path fill="none" d="M0 0h64v64H0z" style="fill:#405cb1;fill-opacity:0;stroke-width:6.4;stroke-linecap:round;stroke-linejoin:round;paint-order:markers stroke fill;stop-color:#e4eaf6"/><path d="M.984 23.034h62.032v14.539c0 33.923-62.032 33.923-62.032 0V23.034z" style="font-style:normal;font-variant:normal;font-weight:400;font-stretch:normal;font-size:30px;line-height:1.25;font-family:Roboto;font-variant-ligatures:normal;font-variant-caps:normal;font-variant-numeric:normal;font-feature-settings:normal;text-align:start;letter-spacing:0;word-spacing:0;writing-mode:lr-tb;text-anchor:start;fill:#405cb1;fill-opacity:1;stroke:#e4eaf6;stroke-width:1.96876;stroke-linecap:butt;stroke-linejoin:miter;stroke-miterlimit:4;stroke-dasharray:none;stroke-opacity:1"/><g aria-label="200" style="font-style:normal;font-variant:normal;font-weight:400;font-stretch:normal;font-size:28.8248px;line-height:1.25;font-family:saxMono;-inkscape-font-specification:saxMono;letter-spacing:0;word-spacing:0;fill:#e4eaf6;fill-opacity:1;stroke:none;stroke-width:.720619"><path d="M-2.6 49.748h7.796q1.352 0 1.352.943 0 .915-1.098.915h-9.782q-1.042 0-1.042-.816 0-.366.394-.845L3.324 39.91q1.295-1.562 1.295-2.928 0-1.506-1.21-2.364-1.084-.76-2.646-.76-1.956 0-3.012 1.224-.507.591-1.196 2.28-.493 1.225-1.084 1.225-.845 0-.845-1 0-1.14.746-2.49Q-2.91 32 .862 32q2.35 0 3.94 1.196Q6.548 34.52 6.548 36.8q0 1.97-1.97 4.335zM10.432 46.075V37.91q0-2.603 1.59-4.25Q13.628 32 16.429 32q2.8 0 4.363 1.66 1.562 1.662 1.562 4.251v8.164q0 2.87-1.52 4.39-1.52 1.52-4.405 1.52-2.8 0-4.405-1.561-1.59-1.563-1.59-4.35zm9.993 0V37.91q0-1.787-1.084-2.913-1.07-1.14-3.054-1.14-3.927 0-3.927 4.053v8.164q0 1.928 1.07 2.998 1.07 1.07 3.012 1.07 3.983 0 3.983-4.068zM26.238 46.075V37.91q0-2.603 1.59-4.25Q29.433 32 32.234 32q2.8 0 4.363 1.66 1.562 1.662 1.562 4.251v8.164q0 2.87-1.52 4.39-1.52 1.52-4.405 1.52-2.801 0-4.406-1.561-1.59-1.563-1.59-4.35zm9.993 0V37.91q0-1.787-1.084-2.913-1.07-1.14-3.054-1.14-3.927 0-3.927 4.053v8.164q0 1.928 1.07 2.998 1.07 1.07 3.012 1.07 3.983 0 3.983-4.068z" style="font-style:normal;font-variant:normal;font-weight:400;font-stretch:normal;font-size:28.8248px;line-height:1.25;font-family:saxMono;-inkscape-font-specification:saxMono;letter-spacing:0;word-spacing:0;fill:#e4eaf6;fill-opacity:1;stroke:none;stroke-width:.720619" transform="translate(15.607)"/></g></svg>