<?xml version="1.0" encoding="UTF-8" standalone="no"?>
<svg
   xmlns:dc="http://purl.org/dc/elements/1.1/"
   xmlns:cc="http://creativecommons.org/ns#"
   xmlns:rdf="http://www.w3.org/1999/02/22-rdf-syntax-ns#"
   xmlns:svg="http://www.w3.org/2000/svg"
   xmlns="http://www.w3.org/2000/svg"
   id="svg12"
   version="1.1"
   viewBox="0 0 128 128"
   height="128px"
   width="128px">
  <metadata
     id="metadata18">
    <rdf:RDF>
      <cc:Work
         rdf:about="">
        <dc:format>image/svg+xml</dc:format>
        <dc:type
           rdf:resource="http://purl.org/dc/dcmitype/StillImage" />
        <dc:title></dc:title>
      </cc:Work>
    </rdf:RDF>
  </metadata>
  <defs
     id="defs16" />
  <rect
     y="0"
     x="0"
     height="128"
     width="128"
     id="rect842"
     style="fill:#405CB1;fill-opacity:0;stroke:none;stroke-width:9.14344" />
  <path
     style="fill:#405CB1;fill-opacity:1;fill-rule:nonzero;stroke:#E4EAF6;stroke-width:1.99987;stroke-linecap:round;stroke-linejoin:round;stroke-miterlimit:4;stroke-opacity:1"
     d="m 78.710938,111.71094 c 0,8.28125 -6.71875,15 -15,15 -8.285156,0 -15,-6.71875 -15,-15 0,-8.28516 6.714844,-15.000002 15,-15.000002 8.28125,0 15,6.714842 15,15.000002 z m 0,0"
     id="path3" />
  <path
     style="fill:#E4EAF6;fill-opacity:1;fill-rule:nonzero;stroke:none"
     d="m 60.015625,108.17578 2.476563,-7.78125 C 62.578125,100.13281 62.730469,100 62.949219,100 c 0.308593,0 0.460937,0.13281 0.460937,0.39453 0,0.0898 -0.01953,0.1836 -0.05078,0.28906 l -2.894531,9.00782 C 60.398438,109.89844 60.246094,110 60.007812,110 c -0.238281,0 -0.394531,-0.10156 -0.457031,-0.30859 l -2.917969,-9.00782 c -0.03125,-0.10546 -0.04687,-0.19921 -0.04687,-0.28906 0,-0.26172 0.148437,-0.39453 0.449218,-0.39453 0.210938,0 0.359375,0.13281 0.445313,0.39453 z m 0,0"
     id="path5" />
  <path
     style="fill:#E4EAF6;fill-opacity:1;fill-rule:nonzero;stroke:none"
     d="m 65.746094,108.87891 h 5.0625 c 0.40625,0 0.605468,0.16015 0.605468,0.47265 0,0.30469 -0.199218,0.45703 -0.605468,0.45703 h -5.519532 c -0.128906,0 -0.242187,-0.0352 -0.34375,-0.11328 -0.105468,-0.0781 -0.15625,-0.20312 -0.15625,-0.37109 v -8.66797 c 0,-0.4375 0.160157,-0.65625 0.480469,-0.65625 0.316407,0 0.476563,0.23047 0.476563,0.69531 z m 0,0"
     id="path7" />
  <g
     style="font-style:normal;font-weight:normal;font-size:14.9927px;line-height:1.25;font-family:sans-serif;letter-spacing:0px;word-spacing:0px;fill:#E4EAF6;fill-opacity:1;stroke:none;stroke-width:0.374817"
     id="text850"
     aria-label="D">
    <path
       id="path852"
       style="font-style:normal;font-variant:normal;font-weight:normal;font-stretch:normal;font-family:saxMono;-inkscape-font-specification:saxMono;stroke-width:0.374817"
       d="m 60.654462,123.48758 v -8.88728 q 0,-0.60029 0.497804,-0.60029 h 2.613474 q 1.764277,0 2.694,0.89312 0.8858,0.97365 0.8858,2.47438 v 3.27233 q 0,3.36018 -3.660327,3.36018 h -2.532947 q -0.497804,0 -0.497804,-0.51244 z m 0.995609,-0.45388 h 2.035142 q 1.383603,0 2.0205,-0.6003 0.636897,-0.60029 0.636897,-1.8082 v -3.25769 q 0,-2.40849 -2.657397,-2.40849 h -2.035142 z" />
  </g>
</svg>
