<?xml version="1.0" encoding="UTF-8" standalone="no"?>
<svg
   xmlns:dc="http://purl.org/dc/elements/1.1/"
   xmlns:cc="http://creativecommons.org/ns#"
   xmlns:rdf="http://www.w3.org/1999/02/22-rdf-syntax-ns#"
   xmlns:svg="http://www.w3.org/2000/svg"
   xmlns="http://www.w3.org/2000/svg"
   height="64"
   width="64"
   version="1.1"
   id="svg2">
  <metadata
     id="metadata8">
    <rdf:RDF>
      <cc:Work
         rdf:about="">
        <dc:format>image/svg+xml</dc:format>
        <dc:type
           rdf:resource="http://purl.org/dc/dcmitype/StillImage" />
        <dc:title></dc:title>
      </cc:Work>
    </rdf:RDF>
  </metadata>
  <defs
     id="defs6" />
  <rect
     style="fill:#405CB1;fill-opacity:1;stroke:#E4EAF6;stroke-width:5.99978;stroke-miterlimit:4;stroke-dasharray:none;stroke-opacity:1"
     id="rect2989-6"
     width="58.000221"
     height="57.999866"
     x="2.9998899"
     y="2.9998899" />
  <g
     style="font-style:normal;font-weight:normal;font-size:28.8451px;line-height:1.25;font-family:sans-serif;letter-spacing:0px;word-spacing:0px;fill:#E4EAF6;fill-opacity:1;stroke:none;stroke-width:0.721129"
     id="text833"
     aria-label="5V">
    <path
       id="path966"
       style="font-style:normal;font-variant:normal;font-weight:normal;font-stretch:normal;font-family:saxMono;-inkscape-font-specification:saxMono;stroke-width:0.721129"
       d="m 21.161961,29.281687 q 1.845072,-0.830987 3.197186,-0.830987 2.281693,0 3.774652,1.605636 1.450706,1.563382 1.450706,3.859159 0,3.83099 -3.690145,6.112682 -3.169017,1.971833 -7.22536,1.971833 -1.014085,0 -1.014085,-0.830987 0,-0.830986 1.239438,-0.943663 3.380285,-0.323944 5.14085,-1.225353 3.619722,-1.859157 3.619722,-5.070428 0,-1.521128 -0.859156,-2.563383 -0.929578,-1.112677 -2.422537,-1.112677 -0.957748,0 -2.408453,0.619719 -1.436622,0.619719 -1.845073,0.619719 -0.760564,0 -0.71831,-1.084508 l 0.225352,-6.32395 q 0.02817,-0.816903 0.239437,-1.140847 0.28169,-0.563381 1.042254,-0.563381 h 7.239445 q 1.042254,0 1.042254,0.90141 0,0.394366 -0.323944,0.676057 -0.309859,0.267606 -0.71831,0.267606 h -6.774655 z" />
    <path
       id="path968"
       style="font-style:normal;font-variant:normal;font-weight:normal;font-stretch:normal;font-family:saxMono;-inkscape-font-specification:saxMono;stroke-width:0.721129"
       d="m 39.556346,38.352119 4.957751,-15.563396 q 0.253522,-0.788734 0.915494,-0.788734 0.915494,0 0.915494,0.788734 0,0.267606 -0.09859,0.577465 l -5.788738,18.014103 q -0.197183,0.619719 -0.915494,0.619719 -0.71831,0 -0.915494,-0.619719 L 32.795775,23.366188 q -0.09859,-0.309859 -0.09859,-0.577465 0,-0.788734 0.901409,-0.788734 0.633803,0 0.887325,0.788734 z" />
  </g>
</svg>
