<svg xmlns="http://www.w3.org/2000/svg" width="64" height="64"><path fill="none" d="M0 0h64v64H0z" style="fill:#405cb1;fill-opacity:0;stroke-width:6.4;stroke-linecap:round;stroke-linejoin:round;paint-order:markers stroke fill;stop-color:#e4eaf6"/><path d="M.984 63.016h62.032V48.477c0-33.923-62.032-33.923-62.032 0v14.539z" style="font-style:normal;font-variant:normal;font-weight:400;font-stretch:normal;font-size:30px;line-height:1.25;font-family:Roboto;font-variant-ligatures:normal;font-variant-caps:normal;font-variant-numeric:normal;font-feature-settings:normal;text-align:start;letter-spacing:0;word-spacing:0;writing-mode:lr-tb;text-anchor:start;fill:#405cb1;fill-opacity:1;stroke:#e4eaf6;stroke-width:1.96876;stroke-linecap:butt;stroke-linejoin:miter;stroke-miterlimit:4;stroke-dasharray:none;stroke-opacity:1"/><g aria-label="135" style="font-style:normal;font-variant:normal;font-weight:400;font-stretch:normal;font-size:29.404px;line-height:1.25;font-family:saxMono;-inkscape-font-specification:saxMono;font-variant-ligatures:normal;font-variant-caps:normal;font-variant-numeric:normal;font-feature-settings:normal;text-align:start;letter-spacing:0;word-spacing:0;writing-mode:lr-tb;text-anchor:start;fill:#e4eaf6;fill-opacity:1;stroke:none;stroke-width:3.6755"><path d="M14.994 52.717V36.88H12.15q-1.077 0-1.077-.934 0-.947 1.077-.947h3.819q.976 0 .976.947v16.77h3.015q1.106 0 1.106 1.005 0 .89-1.106.89H11.39q-1.106 0-1.106-.948 0-.947 1.106-.947zM34.534 36.895h-7.466q-1.249 0-1.249-.962 0-.919 1.25-.919h9.202q1.12 0 1.12.761 0 .402-.273.732l-4.465 5.456q.417-.086.819-.086 1.895 0 3 1.192 1.12 1.177 1.12 3.072 0 3.647-3.747 6.36Q30.414 55 26.638 55q-1.408 0-1.408-.847 0-.862 1.178-.862 2.168 0 3.92-.775 2.038-.89 3.531-2.44 1.78-1.839 1.78-3.763 0-1.048-.689-1.794-.674-.761-1.708-.761-.804 0-1.953.488-1.148.488-1.435.488-.675 0-.675-.818 0-.46.344-.876zM45.13 42.035q1.88-.847 3.259-.847 2.326 0 3.848 1.637 1.479 1.593 1.479 3.934 0 3.905-3.762 6.23Q46.724 55 42.589 55q-1.034 0-1.034-.846 0-.847 1.263-.962 3.446-.33 5.24-1.25 3.69-1.895 3.69-5.168 0-1.55-.875-2.613-.948-1.134-2.47-1.134-.976 0-2.455.631-1.464.632-1.88.632-.776 0-.733-1.105l.23-6.447q.029-.833.244-1.163.287-.574 1.062-.574h7.38q1.063 0 1.063.919 0 .402-.33.689-.316.273-.733.273h-6.906z" style="stroke-width:3.6755"/></g></svg>