<svg xmlns="http://www.w3.org/2000/svg" width="64" height="64"><g aria-label="60" style="font-style:normal;font-variant:normal;font-weight:400;font-stretch:normal;font-size:30px;line-height:1.25;font-family:Roboto;font-variant-ligatures:normal;font-variant-caps:normal;font-variant-numeric:normal;font-feature-settings:normal;text-align:start;letter-spacing:0;word-spacing:0;writing-mode:lr-tb;text-anchor:start;fill:#000;fill-opacity:1;stroke:none;stroke-width:3.75"><path d="M119.732 4.842h40v46.545l-20 17.455-20-17.455z" style="fill:#000;fill-opacity:1;stroke:none;stroke-width:1.17004px;stroke-linecap:butt;stroke-linejoin:miter;stroke-opacity:1" transform="translate(-107.732 -4.842)"/><path d="M120.732 5.842h38v45l-19 16.489-19-16.49z" style="fill:#fff;fill-opacity:1;stroke:none;stroke-width:1.11154px;stroke-linecap:butt;stroke-linejoin:miter;stroke-opacity:1" transform="translate(-107.732 -4.842)"/><path d="M121.732 6.842h36v43.534l-18 15.755-18-15.739z" style="fill:#000;fill-opacity:1;stroke:none;stroke-width:1.05304px;stroke-linecap:butt;stroke-linejoin:miter;stroke-opacity:1" transform="translate(-107.732 -4.842)"/><g aria-label="5" style="font-style:normal;font-variant:normal;font-weight:400;font-stretch:normal;font-size:38px;line-height:1.25;font-family:Roboto;font-variant-ligatures:normal;font-variant-caps:normal;font-variant-numeric:normal;font-feature-settings:normal;text-align:start;letter-spacing:0;word-spacing:0;writing-mode:lr-tb;text-anchor:start;fill:#fff;fill-opacity:1;stroke:none;stroke-width:17.8125"><g aria-label="9" style="font-style:normal;font-variant:normal;font-weight:400;font-stretch:normal;font-size:38px;line-height:1.25;font-family:Roboto;font-variant-ligatures:normal;font-variant-caps:normal;font-variant-numeric:normal;font-feature-settings:normal;text-align:start;letter-spacing:0;word-spacing:0;writing-mode:lr-tb;text-anchor:start;fill:#fff;fill-opacity:1;stroke:none;stroke-width:84.6094"><path d="M139.733 34.627q1.744 0 2.968-.445 1.188-.408 1.596-.705v4.972q0 .854-.408 1.633-.371.854-1.002 1.484-.668.668-1.484 1.04-.854.37-1.67.408-.854 0-1.633-.408-.854-.372-1.485-1.04-.668-.63-1.076-1.484-.37-.816-.37-1.633h-6.829q0 2.078.928 4.12.965 2.04 2.635 3.71 1.632 1.67 3.673 2.598 2.041.965 4.157.965 2.078 0 4.119-.965 2.04-.965 3.748-2.598 1.633-1.632 2.56-3.71.965-2.042.965-4.12V23.234q0-2.078-.965-4.119-.965-2.04-2.56-3.748-1.67-1.633-3.748-2.56-2.041-.965-4.12-.965-2.078 0-4.156.965-2.04.965-3.673 2.56-1.67 1.67-2.635 3.748-.965 2.041-.928 4.12 0 2.078.928 4.156.965 2.04 2.635 3.674 1.632 1.67 3.673 2.634 2.078.928 4.157.928zm4.564-11.393q0 .854-.408 1.633-.371.854-1.002 1.485-.668.668-1.484 1.076-.854.37-1.67.37-.854 0-1.633-.37-.854-.371-1.485-1.076-.668-.631-1.076-1.485-.37-.816-.37-1.633 0-.853.37-1.67.371-.816 1.076-1.484.631-.63 1.485-1.002.816-.37 1.633-.408.853 0 1.67.408.816.371 1.484 1.002.63.668 1.002 1.485.408.816.408 1.67z" style="font-style:normal;font-variant:normal;font-weight:400;font-stretch:normal;font-family:PoliceSNCF;fill:#fff;stroke-width:84.6094" transform="translate(-107.732 -1.842)"/></g></g></g></svg>