<svg xmlns="http://www.w3.org/2000/svg" width="64" height="64"><path d="M-42.268-5.158h64v64h-64z" style="fill:#fff;fill-opacity:1;fill-rule:nonzero;stroke:none;stroke-width:.636824" transform="rotate(44 -4.213 72.462)scale(.7)"/><path d="M-39.281-2.171h58.026v58.026h-58.026z" style="fill:none;stroke:#000;stroke-width:3.97394;stroke-miterlimit:4;stroke-dasharray:none;stroke-opacity:1" transform="rotate(44 -4.213 72.462)scale(.7)"/><g style="font-style:normal;font-variant:normal;font-weight:400;font-stretch:normal;font-size:18px;line-height:1.25;font-family:Roboto;font-variant-ligatures:normal;font-variant-caps:normal;font-variant-numeric:normal;font-feature-settings:normal;text-align:start;letter-spacing:0;word-spacing:0;writing-mode:lr-tb;text-anchor:start;fill:#000;fill-opacity:1;stroke:none;stroke-width:2.25"><path d="M133.167 38.635q.826 0 1.406-.211.563-.193.756-.334v2.355q0 .405-.193.774-.176.404-.475.703-.316.316-.703.492-.404.176-.791.194-.404 0-.774-.194-.404-.176-.703-.492-.316-.299-.51-.703-.175-.387-.175-.774h-3.235q0 .985.44 1.952.457.966 1.248 1.757.773.791 1.74 1.23.967.458 1.969.458.984 0 1.951-.457t1.775-1.23q.774-.774 1.213-1.758.457-.967.457-1.952v-7.207q0-.984-.457-1.95-.457-.968-1.213-1.776-.79-.774-1.775-1.213-.967-.457-1.951-.457t-1.969.457q-.967.457-1.74 1.213-.791.79-1.248 1.775-.457.967-.44 1.951 0 .985.44 1.97.457.966 1.248 1.74.773.79 1.74 1.247.984.44 1.969.44m2.162-5.397q0 .405-.193.774-.176.404-.475.703-.316.316-.703.51-.404.175-.791.175-.404 0-.774-.175-.404-.176-.703-.51-.316-.299-.51-.703-.175-.387-.175-.774 0-.404.175-.79.176-.387.51-.704.3-.299.703-.474.387-.176.774-.194.404 0 .79.194.388.175.704.474.299.317.475.703.193.387.193.791m10.969 12.604q.984 0 1.95-.457.968-.457 1.776-1.23.774-.774 1.213-1.758.457-.967.457-1.952v-7.207q0-.984-.457-1.95-.457-.968-1.213-1.776-.79-.774-1.775-1.213-.967-.457-1.951-.457t-1.97.457q-.966.457-1.74 1.213-.79.79-1.247 1.775-.457.967-.44 1.951v7.207q0 .985.44 1.952.457.966 1.248 1.757.773.791 1.74 1.23.984.458 1.969.458m0-3.234q-.405 0-.774-.194-.404-.176-.703-.492-.316-.299-.51-.703-.175-.387-.175-.774v-7.207q0-.404.175-.79.176-.387.51-.704.299-.299.703-.474.387-.176.774-.194.404 0 .79.194.387.175.704.474.299.317.474.703.176.405.194.791v7.207q0 .405-.194.774-.175.404-.474.703-.317.316-.703.492-.387.194-.791.194" aria-label="90" style="font-style:normal;font-variant:normal;font-weight:400;font-stretch:normal;font-family:PoliceSNCF;stroke-width:2.25" transform="translate(-107.732 -4.842)"/></g></svg>