<svg xmlns="http://www.w3.org/2000/svg" width="64" height="64"><g aria-label="60" style="font-style:normal;font-variant:normal;font-weight:400;font-stretch:normal;font-size:30px;line-height:1.25;font-family:Roboto;font-variant-ligatures:normal;font-variant-caps:normal;font-variant-numeric:normal;font-feature-settings:normal;text-align:start;letter-spacing:0;word-spacing:0;writing-mode:lr-tb;text-anchor:start;fill:#000;fill-opacity:1;stroke:none;stroke-width:3.75"><path d="M119.732 4.842h40v46.545l-20 17.455-20-17.455z" style="fill:#000;fill-opacity:1;stroke:none;stroke-width:1.17004px;stroke-linecap:butt;stroke-linejoin:miter;stroke-opacity:1" transform="translate(-107.732 -4.842)"/><path d="M120.732 5.842h38v45l-19 16.489-19-16.49z" style="fill:#fff;fill-opacity:1;stroke:none;stroke-width:1.11154px;stroke-linecap:butt;stroke-linejoin:miter;stroke-opacity:1" transform="translate(-107.732 -4.842)"/><path d="M121.732 6.842h36v43.534l-18 15.755-18-15.739z" style="fill:#000;fill-opacity:1;stroke:none;stroke-width:1.05304px;stroke-linecap:butt;stroke-linejoin:miter;stroke-opacity:1" transform="translate(-107.732 -4.842)"/><g style="font-style:normal;font-variant:normal;font-weight:400;font-stretch:normal;font-size:38px;line-height:1.25;font-family:Roboto;font-variant-ligatures:normal;font-variant-caps:normal;font-variant-numeric:normal;font-feature-settings:normal;text-align:start;letter-spacing:0;word-spacing:0;writing-mode:lr-tb;text-anchor:start;fill:#fff;fill-opacity:1;stroke:none;stroke-width:17.8125"><g aria-label="5" style="font-style:normal;font-variant:normal;font-weight:400;font-stretch:normal;font-size:38px;line-height:1.25;font-family:Roboto;font-variant-ligatures:normal;font-variant-caps:normal;font-variant-numeric:normal;font-feature-settings:normal;text-align:start;letter-spacing:0;word-spacing:0;writing-mode:lr-tb;text-anchor:start;fill:#fff;fill-opacity:1;stroke:none;stroke-width:84.6094"><path d="m141.18 28.95-12.84 14.064v6.828h22.785v-6.828H137.21l6.754-7.608q.482-.52 1.559-1.67 1.373-1.447 2.19-2.375.853-1.002 1.632-2.226.816-1.262 1.299-2.783.482-1.485.482-3.118 0-2.078-.965-4.119t-2.56-3.748q-1.67-1.633-3.748-2.56-2.041-.965-4.12-.965-2.078 0-4.156.965-2.04.965-3.673 2.56-1.67 1.67-2.635 3.748-.965 2.041-.928 4.12h6.828q0-.854.371-1.67.371-.817 1.076-1.485.631-.63 1.485-1.002.816-.37 1.633-.408.853 0 1.67.408.816.371 1.484 1.002.63.668 1.002 1.485.37.853.408 1.67 0 .816-.334 1.632-.334.854-.78 1.559-.482.742-.964 1.336-.557.668-1.04 1.187z" aria-label="2" style="font-style:normal;font-variant:normal;font-weight:400;font-stretch:normal;font-family:PoliceSNCF;fill:#fff;stroke-width:84.6094" transform="translate(-107.732 -1.842)"/></g></g></g></svg>