<svg xmlns="http://www.w3.org/2000/svg" width="64" height="64"><path d="M-42.268-5.158h64v64h-64z" style="fill:#fff;fill-opacity:1;fill-rule:nonzero;stroke:none;stroke-width:.636824" transform="translate(42.268 5.158)"/><path d="M-39.281-2.171h58.026v58.026h-58.026z" style="fill:none;stroke:#000;stroke-width:3.97394;stroke-miterlimit:4;stroke-dasharray:none;stroke-opacity:1" transform="translate(42.268 5.158)"/><g style="font-style:normal;font-variant:normal;font-weight:400;font-stretch:normal;font-size:30px;line-height:1.25;font-family:Roboto;font-variant-ligatures:normal;font-variant-caps:normal;font-variant-numeric:normal;font-feature-settings:normal;text-align:start;letter-spacing:0;word-spacing:0;writing-mode:lr-tb;text-anchor:start;fill:#000;fill-opacity:1;stroke:none;stroke-width:3.75"><path d="M136.29 27.233v-5.391h-15v5.39h8.203l-5.713 5.333 2.9 4.482q.059-.059.235-.264.205-.293.556-.41.322-.117 1.319-.117.673 0 1.318.293.644.293 1.172.79.498.528.79 1.173.294.674.323 1.318v3.018q0 .674-.322 1.289-.293.674-.791 1.172-.528.527-1.172.82-.674.293-1.318.322-.674 0-1.29-.322-.673-.293-1.171-.82-.528-.498-.85-1.172-.293-.645-.293-1.29h-5.39q0 1.641.732 3.253.762 1.611 2.08 2.93 1.289 1.318 2.9 2.05 1.612.762 3.282.762 1.64 0 3.251-.762 1.612-.762 2.96-2.05 1.289-1.29 2.021-2.93.762-1.612.762-3.252V39.83q0-1.64-.616-3.076-.644-1.406-1.552-2.46-.967-1.056-1.875-1.7-.938-.674-1.7-1.055zm14.384 3.603q-1.025 0-1.406.059-.38.058-.703.205v-3.867h9.61v-5.391h-15v13.447l5.39 1.758q.03-.264.469-.527.44-.264 1.64-.264.674 0 1.319.293t1.172.79q.498.528.79 1.173.294.674.323 1.318v3.018q0 .674-.322 1.289-.293.674-.791 1.172-.528.527-1.172.82-.674.293-1.319.322-.674 0-1.289-.322-.674-.293-1.172-.82-.527-.498-.85-1.172-.292-.645-.292-1.29h-5.39q0 1.641.732 3.253.761 1.611 2.08 2.93 1.289 1.318 2.9 2.05 1.611.762 3.281.762 1.64 0 3.252-.762t2.96-2.05q1.288-1.29 2.02-2.93.762-1.612.762-3.252V39.83q0-1.64-.761-3.252-.762-1.611-2.022-2.959-1.318-1.289-2.959-2.021-1.611-.762-3.252-.762" aria-label="35" style="font-style:normal;font-variant:normal;font-weight:400;font-stretch:normal;font-family:PoliceSNCF;stroke-width:3.75" transform="translate(-107.732 -4.842)"/></g></svg>