<svg xmlns="http://www.w3.org/2000/svg" width="64" height="64"><path d="M-42.268-5.158h64v64h-64z" style="fill:#fff;fill-opacity:1;fill-rule:nonzero;stroke:none;stroke-width:.636824" transform="translate(42.268 5.158)"/><path d="M-39.281-2.171h58.026v58.026h-58.026z" style="fill:none;stroke:#000;stroke-width:3.97394;stroke-miterlimit:4;stroke-dasharray:none;stroke-opacity:1" transform="translate(42.268 5.158)"/><g style="font-style:normal;font-variant:normal;font-weight:400;font-stretch:normal;font-size:19.9514px;line-height:1.45;font-family:Roboto;font-variant-ligatures:normal;font-variant-caps:normal;font-variant-numeric:normal;font-feature-settings:normal;text-align:start;letter-spacing:0;word-spacing:0;writing-mode:lr-tb;text-anchor:start;fill:#000;fill-opacity:1;stroke:none;stroke-width:2.49393"><path d="m133.215 21.329-6.741 7.384v3.585h11.963v-3.585h-7.307l3.546-3.994.819-.877q.72-.76 1.15-1.247.447-.526.856-1.169.429-.662.682-1.461.254-.78.254-1.637 0-1.09-.507-2.162t-1.344-1.968q-.877-.858-1.968-1.345-1.072-.506-2.163-.506t-2.182.506q-1.072.507-1.929 1.345-.877.876-1.383 1.968-.507 1.071-.487 2.162h3.585q0-.448.194-.876.195-.43.565-.78.332-.331.78-.526.428-.195.857-.214.448 0 .877.214.428.195.78.526.33.35.525.78.195.448.215.876 0 .429-.176.858-.175.448-.409.818-.253.39-.507.701-.292.351-.545.624m13.795 10.969q1.09 0 2.162-.506 1.072-.507 1.968-1.364.857-.858 1.344-1.949.507-1.071.507-2.162v-7.989q0-1.09-.507-2.162-.506-1.072-1.344-1.968-.877-.858-1.968-1.345-1.071-.506-2.163-.506-1.09 0-2.182.506-1.071.507-1.929 1.345-.876.876-1.383 1.968-.507 1.071-.487 2.162v7.989q0 1.09.487 2.162.507 1.072 1.383 1.949.858.876 1.93 1.364 1.09.506 2.181.506zm0-3.585q-.449 0-.858-.214-.448-.195-.78-.546-.35-.331-.564-.78-.195-.428-.195-.856v-7.989q0-.448.195-.876.195-.43.565-.78.331-.331.78-.526.428-.195.856-.214.449 0 .877.214.429.195.78.526.33.35.526.78.194.448.214.876v7.989q0 .448-.214.857-.195.448-.526.78-.351.35-.78.545-.428.214-.877.214zm-9.567 16.257v-3.584h-9.976v3.585h5.456l-3.8 3.546 1.93 2.98q.038-.038.155-.175.136-.194.37-.272.215-.078.877-.078.448 0 .877.194.428.195.78.527.33.35.525.779.195.448.215.877v2.006q0 .449-.215.858-.195.448-.526.78-.35.35-.78.545-.447.195-.876.214-.448 0-.857-.214-.448-.195-.78-.546-.35-.331-.565-.78-.194-.428-.194-.857h-3.585q0 1.092.487 2.163.506 1.072 1.383 1.949.857.876 1.929 1.363 1.071.507 2.182.507 1.091 0 2.163-.507 1.071-.506 1.968-1.363.857-.858 1.344-1.949.507-1.071.507-2.163V53.35q0-1.091-.41-2.046-.428-.935-1.032-1.637-.643-.701-1.247-1.13-.624-.448-1.13-.701zm9.567 2.397q-.682 0-.936.04-.253.038-.467.135v-2.571h6.39v-3.585h-9.975v8.943l3.585 1.169q.02-.176.311-.351.293-.175 1.091-.175.449 0 .877.194.429.195.78.527.33.35.526.779.194.448.214.877v2.006q0 .449-.214.858-.195.448-.526.78-.351.35-.78.545-.448.195-.877.214-.448 0-.857-.214-.448-.195-.78-.546-.35-.331-.564-.78-.195-.428-.195-.857h-3.585q0 1.092.487 2.163.507 1.072 1.383 1.949.858.876 1.93 1.363 1.07.507 2.181.507 1.092 0 2.163-.507 1.072-.506 1.968-1.363.857-.858 1.344-1.949.507-1.071.507-2.163V53.35q0-1.091-.507-2.163-.506-1.072-1.344-1.968-.877-.857-1.968-1.344-1.071-.507-2.163-.507z" aria-label="20 35" style="font-style:normal;font-variant:normal;font-weight:400;font-stretch:normal;font-family:PoliceSNCF;text-align:center;text-anchor:middle;stroke-width:2.49393" transform="translate(-107.732 -4.842)"/></g><path d="M122.732 36.842h34" style="fill:none;stroke:#000;stroke-width:2;stroke-linecap:butt;stroke-linejoin:miter;stroke-miterlimit:4;stroke-dasharray:none;stroke-opacity:1" transform="translate(-107.732 -4.842)"/></svg>