<svg xmlns="http://www.w3.org/2000/svg" width="64" height="64"><path d="M-42.268-5.158h64v64h-64z" style="fill:#fff;fill-opacity:1;fill-rule:nonzero;stroke:none;stroke-width:.636824" transform="rotate(44 -4.213 72.462) scale(.7)"/><path d="M-39.281-2.171h58.026v58.026h-58.026z" style="fill:none;stroke:#000;stroke-width:3.97394;stroke-miterlimit:4;stroke-dasharray:none;stroke-opacity:1" transform="rotate(44 -4.213 72.462) scale(.7)"/><g aria-label="3" style="font-style:normal;font-variant:normal;font-weight:400;font-stretch:normal;font-size:18px;line-height:1.25;font-family:PoliceSNCF;-inkscape-font-specification:PoliceSNCF;font-variant-ligatures:normal;font-variant-caps:normal;font-variant-numeric:normal;font-feature-settings:normal;text-align:start;letter-spacing:0;word-spacing:0;writing-mode:lr-tb;text-anchor:start;fill:#000;fill-opacity:1;stroke:none;stroke-width:2.25"><path d="M144.232 31.076v-3.234h-9v3.234h4.922l-3.428 3.2 1.74 2.689q.035-.035.14-.158.124-.176.335-.246.193-.07.79-.07.405 0 .792.175.387.176.703.475.299.316.475.703.175.404.193.79v1.811q0 .405-.193.774-.176.404-.475.703-.316.316-.703.492-.404.176-.791.194-.404 0-.774-.194-.404-.176-.703-.492-.316-.299-.51-.703-.175-.387-.175-.774h-3.235q0 .985.44 1.952.457.966 1.248 1.757.773.791 1.74 1.23.967.458 1.969.458.984 0 1.951-.457.967-.457 1.775-1.23.774-.774 1.213-1.758.457-.967.457-1.952v-1.81q0-.985-.369-1.846-.386-.844-.931-1.476-.58-.633-1.125-1.02-.563-.404-1.02-.633z" style="stroke-width:2.25" transform="translate(-107.732 -4.842)"/></g></svg>