<svg xmlns="http://www.w3.org/2000/svg" width="64" height="64"><path d="M-42.268-5.158h64v64h-64z" style="fill:#fff;fill-opacity:1;fill-rule:nonzero;stroke:none;stroke-width:.636824" transform="translate(42.268 5.158)"/><path d="M-39.281-2.171h58.026v58.026h-58.026z" style="fill:none;stroke:#000;stroke-width:3.97394;stroke-miterlimit:4;stroke-dasharray:none;stroke-opacity:1" transform="translate(42.268 5.158)"/><g style="font-style:normal;font-variant:normal;font-weight:400;font-stretch:normal;font-size:30px;line-height:1.25;font-family:Roboto;font-variant-ligatures:normal;font-variant-caps:normal;font-variant-numeric:normal;font-feature-settings:normal;text-align:start;letter-spacing:0;word-spacing:0;writing-mode:lr-tb;text-anchor:start;fill:#000;fill-opacity:1;stroke:none;stroke-width:3.75"><path d="M137.491 30.543q0-1.64-.703-3.252-.732-1.553-1.934-2.812-1.26-1.23-2.841-1.934-1.582-.703-3.223-.703t-3.223.703q-1.582.732-2.812 1.934-1.23 1.26-1.963 2.812-.732 1.582-.703 3.252 0 1.025.322 2.05.293 1.056.762 1.876.44.879.879 1.406.44.557.703.674-1.23 1.142-2.11 2.754-.878 1.64-.85 3.545 0 1.64.733 3.252.762 1.611 2.08 2.93 1.29 1.318 2.9 2.05 1.612.762 3.282.762 1.64 0 3.252-.762t2.959-2.05q1.289-1.29 2.021-2.93.762-1.612.762-3.252 0-1.905-.879-3.545-.879-1.612-2.08-2.754.235-.088.674-.674.44-.527.908-1.406.44-.85.762-1.875.322-1.026.322-2.05zm-5.42 0q0 1.348-.937 2.315-.996.996-2.344.996t-2.314-.996q-.997-.967-.997-2.315t.997-2.344q.966-.966 2.314-.966t2.344.966q.937.996.937 2.344m-6.885 12.305q0-.674.293-1.319t.85-1.171q.498-.499 1.172-.82.644-.294 1.289-.294.674 0 1.318.293.645.293 1.172.82.498.528.791 1.172.293.674.323 1.319 0 .674-.323 1.289-.293.674-.79 1.172-.528.527-1.173.82-.673.293-1.318.322-.674 0-1.29-.322-.673-.293-1.17-.82-.528-.498-.85-1.172-.294-.615-.294-1.29zm25.489-12.012q-1.026 0-1.406.059-.381.058-.704.205v-3.867h9.61v-5.391h-15v13.447l5.39 1.758q.03-.264.47-.527.439-.264 1.64-.264.674 0 1.318.293.645.293 1.172.79.498.528.791 1.173.293.674.322 1.318v3.018q0 .674-.322 1.289-.293.674-.791 1.172-.527.527-1.172.82-.674.293-1.318.322-.674 0-1.29-.322-.673-.293-1.171-.82-.528-.498-.85-1.172-.293-.645-.293-1.29h-5.39q0 1.641.732 3.253.762 1.611 2.08 2.93 1.29 1.318 2.9 2.05 1.612.762 3.282.762 1.64 0 3.252-.762t2.959-2.05q1.289-1.29 2.021-2.93.762-1.612.762-3.252V39.83q0-1.64-.762-3.252t-2.021-2.959q-1.319-1.289-2.96-2.021-1.61-.762-3.251-.762" aria-label="85" style="font-style:normal;font-variant:normal;font-weight:400;font-stretch:normal;font-family:PoliceSNCF;stroke-width:3.75" transform="translate(-107.732 -4.842)"/></g></svg>