<svg xmlns="http://www.w3.org/2000/svg" width="64" height="64"><path d="M-42.268-5.158h64v64h-64z" style="fill:#fff;fill-opacity:1;fill-rule:nonzero;stroke:none;stroke-width:.636824" transform="rotate(44 -4.213 72.462) scale(.7)"/><path d="M-39.281-2.171h58.026v58.026h-58.026z" style="fill:none;stroke:#000;stroke-width:3.97394;stroke-miterlimit:4;stroke-dasharray:none;stroke-opacity:1" transform="rotate(44 -4.213 72.462) scale(.7)"/><g aria-label="80" style="font-style:normal;font-variant:normal;font-weight:400;font-stretch:normal;font-size:18px;line-height:1.25;font-family:Roboto;font-variant-ligatures:normal;font-variant-caps:normal;font-variant-numeric:normal;font-feature-settings:normal;text-align:start;letter-spacing:0;word-spacing:0;writing-mode:lr-tb;text-anchor:start;fill:#000;fill-opacity:1;stroke:none;stroke-width:2.25"><path d="M138.387 33.063q0-.985-.421-1.952-.44-.931-1.16-1.687-.756-.738-1.706-1.16-.949-.422-1.933-.422-.985 0-1.934.422-.95.44-1.687 1.16-.739.756-1.178 1.687-.44.95-.422 1.952 0 .615.193 1.23.176.633.457 1.125.264.527.528.844.263.334.422.404-.739.686-1.266 1.652-.527.985-.51 2.127 0 .985.44 1.952.457.966 1.248 1.757.773.791 1.74 1.23.967.458 1.969.458.984 0 1.95-.457.968-.457 1.776-1.23.774-.774 1.213-1.758.457-.967.457-1.952 0-1.142-.527-2.127-.527-.966-1.248-1.652.14-.053.404-.404.264-.317.545-.844.264-.51.457-1.125t.193-1.23zm-3.251 0q0 .808-.563 1.388-.598.598-1.406.598-.809 0-1.389-.598-.598-.58-.598-1.388 0-.809.598-1.407.58-.58 1.389-.58.808 0 1.406.58.563.598.563 1.407zm-4.131 7.382q0-.404.175-.79.176-.387.51-.704.299-.299.703-.492.387-.176.774-.176.404 0 .79.176.387.176.704.492.299.317.475.703.175.405.193.791 0 .405-.193.774-.176.404-.475.703-.317.316-.703.492-.405.176-.791.194-.405 0-.774-.194-.404-.176-.703-.492-.316-.299-.51-.703-.175-.37-.175-.774zM146.298 45.842q.984 0 1.95-.457.968-.457 1.776-1.23.774-.774 1.213-1.758.457-.967.457-1.952v-7.207q0-.984-.457-1.95-.457-.968-1.213-1.776-.79-.774-1.775-1.213-.967-.457-1.951-.457-.985 0-1.97.457-.966.457-1.74 1.213-.79.79-1.247 1.775-.457.967-.44 1.951v7.207q0 .985.44 1.952.457.966 1.248 1.757.773.791 1.74 1.23.984.458 1.969.458zm0-3.234q-.405 0-.774-.194-.404-.176-.703-.492-.316-.299-.51-.703-.175-.387-.175-.774v-7.207q0-.404.175-.79.176-.387.51-.704.299-.299.703-.474.387-.176.774-.194.404 0 .79.194.387.175.704.474.299.317.474.703.176.405.194.791v7.207q0 .405-.194.774-.175.404-.474.703-.317.316-.703.492-.387.194-.791.194z" style="font-style:normal;font-variant:normal;font-weight:400;font-stretch:normal;font-family:PoliceSNCF;stroke-width:2.25" transform="translate(-107.732 -4.842)"/></g></svg>