<svg xmlns="http://www.w3.org/2000/svg" width="64" height="64"><path d="M-42.268-5.158h64v64h-64z" style="fill:#fff;fill-opacity:1;fill-rule:nonzero;stroke:none;stroke-width:.636824" transform="rotate(44 -4.213 72.462) scale(.7)"/><path d="M-39.281-2.171h58.026v58.026h-58.026z" style="fill:none;stroke:#000;stroke-width:3.97394;stroke-miterlimit:4;stroke-dasharray:none;stroke-opacity:1" transform="rotate(44 -4.213 72.462) scale(.7)"/><g aria-label="140" style="font-style:normal;font-variant:normal;font-weight:400;font-stretch:normal;font-size:18px;line-height:1.25;font-family:Roboto;font-variant-ligatures:normal;font-variant-caps:normal;font-variant-numeric:normal;font-feature-settings:normal;text-align:start;letter-spacing:0;word-spacing:0;writing-mode:lr-tb;text-anchor:start;fill:#000;fill-opacity:1;stroke:none;stroke-width:2.25"><path d="M125.195 45.842h3.252v-18h-3.252zM136.814 39.356h-2.338l2.338-5.028zm-5.941 0v3.252h5.94v3.234h3.235v-3.234h1.617v-3.252h-1.617V27.842h-3.216zM148.873 45.842q.984 0 1.95-.457.967-.457 1.776-1.23.774-.774 1.213-1.758.457-.967.457-1.952v-7.207q0-.984-.457-1.95-.457-.968-1.213-1.776-.79-.774-1.775-1.213-.967-.457-1.951-.457-.985 0-1.97.457-.966.457-1.74 1.213-.79.79-1.248 1.775-.457.967-.439 1.951v7.207q0 .985.44 1.952.457.966 1.248 1.757.773.791 1.74 1.23.984.458 1.969.458zm0-3.234q-.405 0-.774-.194-.404-.176-.703-.492-.316-.299-.51-.703-.176-.387-.176-.774v-7.207q0-.404.176-.79.176-.387.51-.704.299-.299.703-.474.387-.176.774-.194.404 0 .79.194.387.175.704.474.298.317.474.703.176.405.194.791v7.207q0 .405-.194.774-.176.404-.474.703-.317.316-.703.492-.387.194-.791.194z" style="font-style:normal;font-variant:normal;font-weight:400;font-stretch:normal;font-family:PoliceSNCF;stroke-width:2.25" transform="translate(-107.732 -4.842)"/></g></svg>