<svg xmlns="http://www.w3.org/2000/svg" width="64" height="64"><path d="M107.732 4.842h64v64h-64z" style="fill:#000;fill-opacity:1;fill-rule:nonzero;stroke:none;stroke-width:.636824" transform="translate(-107.732 -4.842)"/><path d="M110.699 7.809h58.065v58.065h-58.065z" style="fill:none;stroke:#fff;stroke-width:3.93508;stroke-miterlimit:4;stroke-dasharray:none;stroke-opacity:1" transform="translate(-107.732 -4.842)"/><g style="font-style:normal;font-variant:normal;font-weight:400;font-stretch:normal;font-size:30px;line-height:1.25;font-family:PoliceSNCF;-inkscape-font-specification:PoliceSNCF;font-variant-ligatures:normal;font-variant-caps:normal;font-variant-numeric:normal;font-feature-settings:normal;text-align:start;letter-spacing:0;word-spacing:0;writing-mode:lr-tb;text-anchor:start;fill:#fff;fill-opacity:1;stroke:none;stroke-width:3.75"><path d="M125.552 51.842h5.42v-30h-5.42zm20.508-16.494L135.923 46.45v5.39h17.989v-5.39h-10.987l5.332-6.006q.381-.41 1.23-1.318 1.085-1.143 1.73-1.875.673-.791 1.288-1.758.645-.996 1.026-2.197.38-1.172.38-2.461 0-1.64-.761-3.252-.762-1.611-2.022-2.959-1.318-1.289-2.959-2.021-1.61-.762-3.252-.762-1.64 0-3.28.762-1.612.761-2.901 2.021-1.319 1.318-2.08 2.96-.762 1.61-.733 3.251h5.39q0-.674.294-1.318.293-.645.85-1.172.498-.498 1.171-.791.645-.293 1.29-.322.673 0 1.318.322.644.293 1.172.79.498.528.79 1.173.294.673.323 1.318 0 .645-.264 1.29-.263.673-.615 1.23-.38.585-.762 1.054-.44.528-.82.938z" aria-label="12" style="fill:#fff;stroke-width:3.75" transform="translate(-107.732 -4.842)"/></g></svg>