<svg xmlns="http://www.w3.org/2000/svg" width="64" height="64"><path fill="none" d="M0 0h64v64H0z" style="fill:#fff;fill-opacity:0;stroke-width:6.4;stroke-linecap:round;stroke-linejoin:round;paint-order:markers stroke fill;stop-color:#000"/><path d="M.984 23.034h62.032v14.539c0 33.923-62.032 33.923-62.032 0z" style="font-style:normal;font-variant:normal;font-weight:400;font-stretch:normal;font-size:30px;line-height:1.25;font-family:Roboto;font-variant-ligatures:normal;font-variant-caps:normal;font-variant-numeric:normal;font-feature-settings:normal;text-align:start;letter-spacing:0;word-spacing:0;writing-mode:lr-tb;text-anchor:start;fill:#fff;fill-opacity:1;stroke:#000;stroke-width:1.96876;stroke-linecap:butt;stroke-linejoin:miter;stroke-miterlimit:4;stroke-dasharray:none;stroke-opacity:1"/><g style="font-style:normal;font-variant:normal;font-weight:400;font-stretch:normal;font-size:20px;line-height:1.25;font-family:Roboto;font-variant-ligatures:normal;font-variant-caps:normal;font-variant-numeric:normal;font-feature-settings:normal;text-align:start;letter-spacing:0;word-spacing:0;writing-mode:lr-tb;text-anchor:start;fill:#000;fill-opacity:1;stroke:none;stroke-width:2.5"><path d="m18.172 41.004-6.758 7.402V52h11.993v-3.594h-7.325l3.555-4.004.82-.879q.723-.761 1.153-1.25.449-.527.86-1.171.429-.664.683-1.465.254-.782.254-1.64 0-1.095-.508-2.169t-1.348-1.973q-.879-.859-1.973-1.347Q18.504 32 17.411 32q-1.094 0-2.188.508-1.074.508-1.934 1.347-.878.88-1.386 1.973-.508 1.074-.489 2.168h3.594q0-.45.195-.879.196-.43.567-.781.332-.332.781-.527.43-.196.86-.215.449 0 .878.215.43.195.782.527.332.352.527.781.195.45.215.88 0 .429-.176.858-.176.45-.41.82-.254.391-.508.704-.293.351-.547.625M32 52q1.094 0 2.168-.508t1.973-1.367q.86-.86 1.348-1.953.507-1.074.507-2.168v-8.008q0-1.094-.507-2.168-.508-1.074-1.348-1.973-.879-.859-1.973-1.347Q33.094 32 32 32q-1.093 0-2.187.508-1.074.508-1.934 1.347-.879.88-1.386 1.973-.508 1.074-.489 2.168v8.008q0 1.094.489 2.168.507 1.074 1.386 1.953.86.879 1.934 1.367Q30.907 52 32 52m0-3.594q-.449 0-.859-.215-.45-.195-.781-.546-.352-.333-.567-.782-.195-.43-.195-.86v-8.007q0-.45.195-.879.196-.43.567-.781.332-.332.781-.527.43-.196.86-.215.449 0 .878.215.43.195.782.527.332.352.527.781.195.45.215.88v8.007q0 .45-.215.86-.195.449-.527.78-.352.352-.782.547-.43.215-.879.215M46.59 52q1.094 0 2.168-.508t1.973-1.367q.86-.86 1.347-1.953.508-1.074.508-2.168v-8.008q0-1.094-.508-2.168-.507-1.074-1.347-1.973-.88-.859-1.973-1.347Q47.684 32 46.59 32t-2.187.508q-1.075.508-1.934 1.347-.879.88-1.387 1.973-.507 1.074-.488 2.168v8.008q0 1.094.488 2.168.508 1.074 1.387 1.953.86.879 1.934 1.367Q45.496 52 46.59 52m0-3.594q-.449 0-.86-.215-.448-.195-.78-.546-.352-.333-.567-.782-.195-.43-.195-.86v-8.007q0-.45.195-.879.195-.43.567-.781.332-.332.78-.527.43-.196.86-.215.45 0 .88.215.429.195.78.527.332.352.528.781.195.45.215.88v8.007q0 .45-.215.86-.196.449-.528.78-.351.352-.78.547-.43.215-.88.215" aria-label="200" style="font-style:normal;font-variant:normal;font-weight:400;font-stretch:normal;font-family:PoliceSNCF;stroke-width:2.5"/></g></svg>