<svg xmlns="http://www.w3.org/2000/svg" width="64" height="64"><path fill="none" d="M0 0h64v64H0z" style="fill:#fff;fill-opacity:0;stroke-width:6.4;stroke-linecap:round;stroke-linejoin:round;paint-order:markers stroke fill;stop-color:#000"/><path d="M.984 63h62.032V26.427c0-33.923-62.032-33.923-62.032 0z" style="font-style:normal;font-variant:normal;font-weight:400;font-stretch:normal;font-size:30px;line-height:1.25;font-family:Roboto;font-variant-ligatures:normal;font-variant-caps:normal;font-variant-numeric:normal;font-feature-settings:normal;text-align:start;letter-spacing:0;word-spacing:0;writing-mode:lr-tb;text-anchor:start;fill:#fff;fill-opacity:1;stroke:#000;stroke-width:1.96876;stroke-linecap:butt;stroke-linejoin:miter;stroke-miterlimit:4;stroke-dasharray:none;stroke-opacity:1"/><g aria-label="120 130" style="font-style:normal;font-variant:normal;font-weight:400;font-stretch:normal;font-size:20px;line-height:1.45;font-family:Roboto;font-variant-ligatures:normal;font-variant-caps:normal;font-variant-numeric:normal;font-feature-settings:normal;text-align:start;letter-spacing:0;word-spacing:0;writing-mode:lr-tb;text-anchor:start;fill:#000;fill-opacity:1;stroke:none;stroke-width:2.5"><path d="M15.252 27.445h3.613v-20h-3.613zM28.924 16.45l-6.758 7.401v3.594h11.992v-3.594h-7.324l3.555-4.003.82-.88q.723-.761 1.152-1.25.45-.527.86-1.171.43-.664.683-1.465.254-.781.254-1.64 0-1.094-.508-2.169-.507-1.074-1.347-1.972-.88-.86-1.973-1.348-1.074-.508-2.168-.508t-2.187.508q-1.075.508-1.934 1.348-.879.879-1.387 1.972-.508 1.075-.488 2.168h3.594q0-.449.195-.879t.566-.78q.333-.333.782-.528.43-.196.86-.215.448 0 .878.215.43.195.781.527.332.352.528.781.195.45.214.88 0 .429-.175.859-.176.449-.41.82-.254.39-.508.703-.293.352-.547.625zM42.752 27.445q1.094 0 2.168-.508 1.074-.507 1.973-1.367.859-.86 1.347-1.953.508-1.074.508-2.168v-8.008q0-1.093-.508-2.168-.508-1.074-1.347-1.972-.88-.86-1.973-1.348-1.074-.508-2.168-.508t-2.188.508q-1.074.508-1.933 1.348-.879.879-1.387 1.972-.508 1.075-.488 2.168v8.008q0 1.094.488 2.168.508 1.074 1.387 1.953.86.88 1.933 1.367 1.094.508 2.188.508zm0-3.594q-.45 0-.86-.214-.449-.196-.78-.547-.352-.332-.567-.782-.195-.43-.195-.859v-8.008q0-.449.195-.879t.566-.78q.332-.333.782-.528.43-.196.859-.215.45 0 .879.215.43.195.781.527.332.352.527.781.196.45.215.88v8.007q0 .45-.215.86-.195.449-.527.78-.351.352-.781.548-.43.214-.879.214zM15.252 56.555h3.613v-20h-3.613zM33.162 40.149v-3.594h-10v3.594h5.469l-3.809 3.554 1.934 2.989q.039-.04.156-.176.137-.196.371-.274.215-.078.88-.078.448 0 .878.195.43.196.781.528.332.351.528.781.195.45.214.879v2.012q0 .449-.214.86-.196.448-.528.78-.351.352-.781.547-.45.196-.879.215-.45 0-.86-.215-.448-.195-.78-.547-.352-.332-.567-.78-.195-.43-.195-.86h-3.594q0 1.093.488 2.168.508 1.074 1.387 1.953.86.879 1.934 1.367 1.074.508 2.187.508 1.094 0 2.168-.508t1.973-1.367q.86-.86 1.347-1.953.508-1.075.508-2.168v-2.012q0-1.094-.41-2.05-.43-.938-1.035-1.641-.645-.704-1.25-1.133-.625-.45-1.133-.703zM42.752 56.555q1.094 0 2.168-.508t1.973-1.367q.859-.86 1.347-1.953.508-1.075.508-2.168V42.55q0-1.094-.508-2.168t-1.347-1.973q-.88-.86-1.973-1.347-1.074-.508-2.168-.508t-2.188.508q-1.074.507-1.933 1.347-.879.88-1.387 1.973-.508 1.074-.488 2.168v8.008q0 1.093.488 2.168.508 1.074 1.387 1.953.86.879 1.933 1.367 1.094.508 2.188.508zm0-3.594q-.45 0-.86-.215-.449-.195-.78-.547-.352-.332-.567-.78-.195-.43-.195-.86V42.55q0-.45.195-.879.195-.43.566-.781.332-.332.782-.528.43-.195.859-.214.45 0 .879.214.43.196.781.528.332.351.527.781.196.45.215.879v8.008q0 .449-.215.86-.195.448-.527.78-.351.352-.781.547-.43.215-.879.215z" style="font-style:normal;font-variant:normal;font-weight:400;font-stretch:normal;font-family:PoliceSNCF;text-align:center;text-anchor:middle;stroke-width:2.5"/></g><path d="M14 32h36" style="fill:none;stroke:#000;stroke-width:2;stroke-linecap:butt;stroke-linejoin:miter;stroke-miterlimit:4;stroke-dasharray:none;stroke-opacity:1"/></svg>