<svg xmlns="http://www.w3.org/2000/svg" width="64" height="64"><path fill="none" d="M0 0h64v64H0z" style="fill:#fff;fill-opacity:0;stroke-width:6.4;stroke-linecap:round;stroke-linejoin:round;paint-order:markers stroke fill;stop-color:#000"/><path d="M.984 63.016h62.032V48.477c0-33.923-62.032-33.923-62.032 0v14.539z" style="font-style:normal;font-variant:normal;font-weight:400;font-stretch:normal;font-size:30px;line-height:1.25;font-family:Roboto;font-variant-ligatures:normal;font-variant-caps:normal;font-variant-numeric:normal;font-feature-settings:normal;text-align:start;letter-spacing:0;word-spacing:0;writing-mode:lr-tb;text-anchor:start;fill:#fff;fill-opacity:1;stroke:#000;stroke-width:1.96876;stroke-linecap:butt;stroke-linejoin:miter;stroke-miterlimit:4;stroke-dasharray:none;stroke-opacity:1"/><g aria-label="115" style="font-style:normal;font-variant:normal;font-weight:400;font-stretch:normal;font-size:20px;line-height:1.25;font-family:Roboto;font-variant-ligatures:normal;font-variant-caps:normal;font-variant-numeric:normal;font-feature-settings:normal;text-align:start;letter-spacing:0;word-spacing:0;writing-mode:lr-tb;text-anchor:start;fill:#000;fill-opacity:1;stroke:none;stroke-width:2.5"><path d="M18.748 55h3.613V35h-3.613zM26.346 55h3.613V35h-3.613zM39.256 40.996q-.684 0-.938.04-.254.038-.468.136v-2.578h6.406V35h-10v8.965l3.594 1.172q.02-.176.312-.352.293-.176 1.094-.176.45 0 .879.196.43.195.781.527.332.352.527.781.196.45.215.88v2.01q0 .45-.215.86-.195.45-.527.782-.352.351-.781.546-.45.196-.88.215-.448 0-.859-.215-.449-.195-.78-.546-.352-.333-.567-.782-.195-.43-.195-.86H33.26q0 1.095.488 2.169.508 1.074 1.387 1.953.86.879 1.933 1.367 1.075.508 2.188.508 1.094 0 2.168-.508t1.972-1.367q.86-.86 1.348-1.953.508-1.074.508-2.168v-2.012q0-1.094-.508-2.168t-1.348-1.972q-.878-.86-1.972-1.348-1.074-.508-2.168-.508Z" style="font-style:normal;font-variant:normal;font-weight:400;font-stretch:normal;font-family:PoliceSNCF;stroke-width:2.5"/></g></svg>