<?xml version="1.0" encoding="utf-8"?><svg version="1.1" viewBox="0 0 1220 1270" xmlns="http://www.w3.org/2000/svg"><style type="text/css">@keyframes blink { 0%, 100% { fill: #0f0; } 50% { fill: #333; }} .VL { animation: blink 1.4s infinite; }</style><path d="m609.99 0.00828a610 610 0 0 0-610 610 610 610 0 0 0 104.64 340.21h-0.95117l6e-3 0.0117c206.31 319.77-7e-3 -0.0105 206.31 319.77h600l206.28-320h-0.7558a610 610 0 0 0 104.48-340 610 610 0 0 0-610-610z" /><circle cx="610" cy="610" r="570" fill="none" stroke="#fff" stroke-width="30" /><g fill="#333"><circle class="R" cx="310" cy="460" r="85" /><circle class="R" cx="910" cy="460" r="85" /><circle class="VL" cx="610" cy="585" r="85" /><circle class="A" cx="610" cy="950" r="85" /><rect x="225" y="645" width="170" height="170" rx="20" ry="20" /><rect x="825" y="645" width="170" height="170" rx="20" ry="20" /></g></svg>