<?xml version="1.0" encoding="utf-8"?><svg version="1.1" viewBox="0 0 1220 1270" xmlns="http://www.w3.org/2000/svg"><style type="text/css">.A { fill: #ff0; }</style><path d="m610 0a610 610 0 0 0-610 610 610 610 0 0 0 104.64 340.21h-0.95117l0.00586 0.01172c206.31 319.77-0.00634-0.01019 206.31 319.77h600l206.28-320h-0.7558a610 610 0 0 0 104.48-340 610 610 0 0 0-610-610zm-300 375a85 85 0 0 1 85 85 85 85 0 0 1-85 85 85 85 0 0 1-85-85 85 85 0 0 1 85-85zm600 0a85 85 0 0 1 85 85 85 85 0 0 1-85 85 85 85 0 0 1-85-85 85 85 0 0 1 85-85z" /><circle cx="610" cy="610" r="570" fill="none" stroke="#fff" stroke-width="30" /><g fill="#333"><circle class="D DJ" cx="310" cy="730" r="85" /><circle class="D DR" cx="910" cy="730" r="85" /><circle class="VL" cx="610" cy="585" r="85" /><circle class="A" cx="610" cy="950" r="85" /><rect x="225" y="375" width="170" height="170" rx="20" ry="20" /><rect x="825" y="375" width="170" height="170" rx="20" ry="20" /></g></svg>