<?xml version="1.0" encoding="utf-8"?><svg version="1.1" viewBox="0 0 1200 1720" xmlns="http://www.w3.org/2000/svg"><style type="text/css">.Cv { fill: #FF00FF; }</style><rect width="1200" height="600" rx="300" ry="300" /><rect width="600" height="1700" rx="300" ry="300" /><rect y="1400" width="600" height="320" /><path d="m300 30c-9.3487 0-18.583 0.47017-27.682 1.3887s-18.061 2.2857-26.865 4.0781-17.449 4.011-25.914 6.6328c-8.4648 2.6218-16.749 5.6461-24.83 9.0527s-15.959 7.1949-23.611 11.342c-7.6527 4.1469-15.082 8.6535-22.262 13.496-28.719 19.37-53.475 44.127-72.846 72.846-4.8426 7.1798-9.3492 14.609-13.496 22.262-4.1469 7.6527-7.9352 15.53-11.342 23.611-3.4066 8.081-6.4309 16.365-9.0527 24.83-2.6218 8.4648-4.8404 17.11-6.6328 25.914s-3.1596 17.767-4.0781 26.865-1.3887 18.333-1.3887 27.682v1100c0 149.58 120.42 270 270 270s270-120.42 270-270v-830h330c149.58 0 270-120.42 270-270s-120.42-270-270-270h-600z" fill="none" stroke="#fff" stroke-width="30" /><g fill="#333"><circle class="R" cx="300" cy="300" r="85" /><circle class="Cv" cx="300" cy="520" r="85" /><circle class="VL" cx="300" cy="960" r="85" /><circle class="S" cx="300" cy="1180" r="85" /><circle class="A" cx="300" cy="1400" r="85" /><circle class="R" cx="900" cy="300" r="85" /><rect x="215" y="655" width="170" height="170" rx="20" ry="20" /></g></svg>