<?xml version="1.0" encoding="utf-8"?><svg version="1.1" viewBox="0 0 1200 2020" xmlns="http://www.w3.org/2000/svg"><style type="text/css">.RR { fill: #ff0; } .A { fill: #ff0; }</style><rect y="300" width="600" height="1700" rx="300" ry="300" /><rect x="600" width="600" height="1200" rx="300" ry="300" /><rect y="1700" width="600" height="320" /><rect y="300" width="1200" height="900" rx="300" ry="300" /><path d="m900 30c-149.58 0-270 120.42-270 270v30h-330c-149.58 0-270 120.42-270 270v1100c0 149.58 120.42 270 270 270s270-120.42 270-270v-530h330c9.3487 0 18.583-0.4702 27.682-1.3887s18.061-2.2857 26.865-4.0781 17.449-4.011 25.914-6.6328 16.749-5.6461 24.83-9.0527c8.081-3.4067 15.959-7.1949 23.611-11.342 7.6522-4.1467 15.08-8.6539 22.26-13.496 28.719-19.37 53.477-44.129 72.848-72.848 4.8422-7.1793 9.3494-14.608 13.496-22.26 4.1469-7.6526 7.9351-15.53 11.342-23.611 3.4066-8.081 6.4309-16.365 9.0527-24.83s4.8404-17.11 6.6328-25.914 3.1596-17.767 4.0781-26.865 1.3887-18.333 1.3887-27.682v-600c0-149.58-120.42-270-270-270z" fill="none" stroke="#fff" stroke-width="30" /><g fill="#333"><circle class="R" cx="300" cy="600" r="85" /><circle class="C" cx="300" cy="820" r="85" /><circle class="VL" cx="300" cy="1260" r="85" /><circle class="S C" cx="300" cy="1480" r="85" /><circle class="A" cx="300" cy="1700" r="85" /><circle class="R" cx="900" cy="600" r="85" /><circle class="RR" cx="900" cy="900" r="85" /><circle class="RR" cx="900" cy="300" r="85" /><rect x="215" y="955" width="170" height="170" rx="20" ry="20" /></g></svg>