<svg xmlns="http://www.w3.org/2000/svg" width="64" height="64"><path d="M116.47 36.709a10.47 10.47 0 0 1 10.494 10.493V66.84a10.47 10.47 0 0 1-10.493 10.493 10.47 10.47 0 0 1-10.494-10.493V47.202a10.47 10.47 0 0 1 10.494-10.493z" style="opacity:1;fill:#0f0;fill-opacity:1;stroke:#000;stroke-width:5.32204;stroke-miterlimit:4;stroke-dasharray:none;stroke-opacity:1;stop-opacity:1" transform="translate(-84.47 -25.02)"/><path d="M116.47 36.709a10.47 10.47 0 0 1 10.494 10.493V66.84a10.47 10.47 0 0 1-10.493 10.493 10.47 10.47 0 0 1-10.494-10.493V47.202a10.47 10.47 0 0 1 10.494-10.493z" style="opacity:1;fill:#000;fill-opacity:1;stroke:#fff;stroke-width:2.12881;stroke-miterlimit:4;stroke-dasharray:none;stroke-opacity:1;stop-opacity:1" transform="translate(-84.47 -25.02)"/><g transform="translate(-84.514 -34.444)"><circle cx="116.514" cy="57.021" r="3.641" style="opacity:1;fill:#404040;fill-opacity:1;stroke:none;stroke-width:.50054;stop-opacity:1"/><circle cx="116.514" cy="66.444" r="3.641" style="opacity:1;fill:red;fill-opacity:1;stroke:none;stroke-width:.50054;stop-opacity:1"/><circle cx="116.514" cy="75.866" r="3.641" style="opacity:1;fill:#404040;fill-opacity:1;stroke:none;stroke-width:.50054;stop-opacity:1"/></g></svg>