<svg xmlns="http://www.w3.org/2000/svg" width="64" height="64"><g transform="rotate(90 84.998 .527)"><path d="M116.47 29.536a10.47 10.47 0 0 1 10.494 10.494v26.99a10.47 10.47 0 0 1-10.493 10.494 10.47 10.47 0 0 1-10.494-10.493V40.03a10.47 10.47 0 0 1 10.494-10.494z" style="opacity:1;fill:#000;fill-opacity:1;stroke:#000;stroke-width:5;stroke-miterlimit:4;stroke-dasharray:none;stroke-opacity:1;stop-opacity:1"/><path d="M116.47 29.536a10.47 10.47 0 0 1 10.494 10.494v26.99a10.47 10.47 0 0 1-10.493 10.494 10.47 10.47 0 0 1-10.494-10.493V40.03a10.47 10.47 0 0 1 10.494-10.494z" style="opacity:1;fill:#000;fill-opacity:1;stroke:#fff;stroke-width:2.12881;stroke-miterlimit:4;stroke-dasharray:none;stroke-opacity:1;stop-opacity:1"/><circle cx="116.514" cy="39.792" r="3.641" style="opacity:1;fill:#fff;fill-opacity:1;stroke:none;stroke-width:.50054;stop-opacity:1"/><circle cx="116.514" cy="67.021" r="3.641" style="opacity:1;fill:#fff;fill-opacity:1;stroke:none;stroke-width:.50054;stop-opacity:1"/><circle cx="116.514" cy="53.406" r="3.641" style="opacity:1;fill:#fff;fill-opacity:1;stroke:none;stroke-width:.50054;stop-opacity:1"/></g></svg>