<svg xmlns="http://www.w3.org/2000/svg" width="64" height="64"><g transform="translate(-84.47 -25.02)"><path d="M136.036 57.02a19.565 19.565 0 0 1-19.565 19.566 19.565 19.565 0 0 1-19.565-19.565 19.565 19.565 0 0 1 19.565-19.565 19.565 19.565 0 0 1 19.565 19.565" style="opacity:1;vector-effect:none;fill:#000;stroke:#000;stroke-width:5.86957;stroke-linecap:round;stroke-linejoin:round;stroke-miterlimit:4;stroke-dasharray:none;stroke-opacity:1;paint-order:markers stroke fill;stop-color:#000;stop-opacity:1"/><path d="M136.036 57.02a19.565 19.565 0 0 1-19.565 19.566 19.565 19.565 0 0 1-19.565-19.565 19.565 19.565 0 0 1 19.565-19.565 19.565 19.565 0 0 1 19.565 19.565" style="opacity:1;vector-effect:none;fill:#000;stroke:#fff;stroke-width:2;stroke-linecap:round;stroke-opacity:1;paint-order:markers stroke fill;stop-color:#000;stop-opacity:1;stroke-miterlimit:4;stroke-dasharray:none"/><circle cx="116.471" cy="65.358" r="3.641" style="opacity:1;fill:#fc0;fill-opacity:1;stroke:none;stroke-width:.50054;stop-opacity:1"/></g></svg>