<svg xmlns="http://www.w3.org/2000/svg" width="64" height="64"><g transform="translate(-84.47 -25.02)"><rect width="29" height="13" x="-90.529" y="-18.979" ry="6.352" style="fill:none;stroke:#000;stroke-width:4;stroke-linecap:round;stroke-linejoin:round;stroke-opacity:1;paint-order:markers stroke fill;stop-color:#000"/><rect width="13" height="53" x="-90.529" y="-18.979" ry="7.5" style="fill:none;stroke:#000;stroke-width:4;stroke-linecap:round;stroke-linejoin:round;stroke-opacity:1;paint-order:markers stroke fill;stop-color:#000;stroke-miterlimit:4;stroke-dasharray:none"/><path d="M-168.648-44A6.337 6.337 0 0 0-175-37.648v.296c0 .133.012.261.02.391-.008.153-.02.305-.02.461v38c0 4.155 2.899 7.5 6.5 7.5s6.5-3.345 6.5-7.5V-31h9.648A6.337 6.337 0 0 0-146-37.352v-.296A6.337 6.337 0 0 0-152.352-44h-16.296z" style="fill:#000;stroke:#fff;stroke-width:2;stroke-linecap:round;stroke-linejoin:round;stroke-miterlimit:4;stroke-dasharray:none;stroke-opacity:1;paint-order:markers stroke fill;stop-color:#000" transform="translate(84.47 25.02)"/><circle cx="-84.029" cy="-12.479" r="2.5" style="fill:#fc0;stroke:none;stroke-width:4;stroke-linecap:round;stroke-linejoin:round;stroke-opacity:1;paint-order:markers stroke fill;stop-color:#000"/><circle cx="-84.029" cy="-4.479" r="2.5" style="fill:red;stroke:none;stroke-width:4;stroke-linecap:round;stroke-linejoin:round;stroke-opacity:1;paint-order:markers stroke fill;stop-color:#000"/><circle cx="-84.029" cy="3.521" r="2.5" style="fill:#fff;stroke:none;stroke-width:4;stroke-linecap:round;stroke-linejoin:round;stroke-opacity:1;paint-order:markers stroke fill;stop-color:#000"/><circle cx="-84.029" cy="11.521" r="2.5" style="fill:#0f0;stroke:none;stroke-width:4;stroke-linecap:round;stroke-linejoin:round;stroke-opacity:1;paint-order:markers stroke fill;stop-color:#000"/><circle cx="-84.029" cy="19.521" r="2.5" style="fill:red;stroke:none;stroke-width:4;stroke-linecap:round;stroke-linejoin:round;stroke-opacity:1;paint-order:markers stroke fill;stop-color:#000"/><circle cx="-84.029" cy="27.521" r="2.5" style="fill:#fc0;stroke:none;stroke-width:4;stroke-linecap:round;stroke-linejoin:round;stroke-opacity:1;paint-order:markers stroke fill;stop-color:#000"/><circle cx="-68.029" cy="-12.479" r="2.5" style="fill:#fc0;stroke:none;stroke-width:4;stroke-linecap:round;stroke-linejoin:round;stroke-opacity:1;paint-order:markers stroke fill;stop-color:#000"/><rect width="29" height="13" x="-43.979" y="132.529" ry="6.365" style="fill:none;stroke:#000;stroke-width:4;stroke-linecap:round;stroke-linejoin:round;stroke-miterlimit:4;stroke-dasharray:none;stroke-opacity:1;paint-order:markers stroke fill;stop-color:#000" transform="rotate(90)"/><rect width="29" height="13" x="-43.979" y="132.529" ry="6.466" style="fill:#000;stroke:#fff;stroke-width:2;stroke-linecap:round;stroke-linejoin:round;stroke-miterlimit:4;stroke-dasharray:none;stroke-opacity:1;paint-order:markers stroke fill;stop-color:#000" transform="rotate(90)"/><circle cx="-29.479" cy="139.029" r="2.5" style="fill:#0f0;stroke:none;stroke-width:4;stroke-linecap:round;stroke-linejoin:round;stroke-opacity:1;paint-order:markers stroke fill;stop-color:#000" transform="rotate(90)"/><circle cx="-37.479" cy="139.029" r="2.5" style="fill:red;stroke:none;stroke-width:4;stroke-linecap:round;stroke-linejoin:round;stroke-opacity:1;paint-order:markers stroke fill;stop-color:#000" transform="rotate(90)"/><circle cx="-21.479" cy="139.029" r="2.5" style="fill:#fc0;stroke:none;stroke-width:4;stroke-linecap:round;stroke-linejoin:round;stroke-opacity:1;paint-order:markers stroke fill;stop-color:#000" transform="rotate(90)"/><rect width="45" height="13" x="-59.979" y="107.529" ry="6.495" style="fill:none;stroke:#000;stroke-width:4;stroke-linecap:round;stroke-linejoin:round;stroke-miterlimit:4;stroke-dasharray:none;stroke-opacity:1;paint-order:markers stroke fill;stop-color:#000" transform="rotate(90)"/><rect width="45" height="13" x="-59.979" y="107.529" ry="6.357" style="fill:#000;stroke:#fff;stroke-width:2;stroke-linecap:round;stroke-linejoin:round;stroke-miterlimit:4;stroke-dasharray:none;stroke-opacity:1;paint-order:markers stroke fill;stop-color:#000" transform="rotate(90)"/><circle cx="-29.479" cy="114.029" r="2.5" style="fill:red;stroke:none;stroke-width:4;stroke-linecap:round;stroke-linejoin:round;stroke-opacity:1;paint-order:markers stroke fill;stop-color:#000" transform="rotate(90)"/><circle cx="-37.479" cy="114.029" r="2.5" style="fill:#0f0;stroke:none;stroke-width:4;stroke-linecap:round;stroke-linejoin:round;stroke-opacity:1;paint-order:markers stroke fill;stop-color:#000" transform="rotate(90)"/><circle cx="-21.479" cy="114.029" r="2.5" style="fill:#fc0;stroke:none;stroke-width:4;stroke-linecap:round;stroke-linejoin:round;stroke-opacity:1;paint-order:markers stroke fill;stop-color:#000" transform="rotate(90)"/><circle cx="-45.479" cy="114.029" r="2.5" style="fill:#fff;stroke:none;stroke-width:4;stroke-linecap:round;stroke-linejoin:round;stroke-opacity:1;paint-order:markers stroke fill;stop-color:#000" transform="rotate(90)"/><circle cx="-53.479" cy="114.029" r="2.5" style="fill:red;stroke:none;stroke-width:4;stroke-linecap:round;stroke-linejoin:round;stroke-opacity:1;paint-order:markers stroke fill;stop-color:#000" transform="rotate(90)"/><rect width="23" height="13" x="-36.979" y="162.529" ry="6.392" style="fill:none;stroke:#000;stroke-width:4;stroke-linecap:round;stroke-linejoin:round;stroke-miterlimit:4;stroke-dasharray:none;stroke-opacity:1;paint-order:markers stroke fill;stop-color:#000" transform="rotate(90)"/><rect width="23" height="13" x="-36.979" y="162.529" ry="6.392" style="fill:#000;stroke:#fff;stroke-width:2;stroke-linecap:round;stroke-linejoin:round;stroke-miterlimit:4;stroke-dasharray:none;stroke-opacity:1;paint-order:markers stroke fill;stop-color:#000" transform="rotate(90)"/><circle cx="-30.479" cy="169.029" r="2.5" style="fill:#fff;stroke:none;stroke-width:4;stroke-linecap:round;stroke-linejoin:round;stroke-opacity:1;paint-order:markers stroke fill;stop-color:#000" transform="rotate(90)"/><circle cx="-20.479" cy="169.029" r="2.5" style="fill:#f0f;stroke:none;stroke-width:4;stroke-linecap:round;stroke-linejoin:round;stroke-opacity:1;paint-order:markers stroke fill;stop-color:#000" transform="rotate(90)"/><path d="M-152.648-120a6.337 6.337 0 0 0-6.352 6.352V-110h-9.648a6.337 6.337 0 0 0-6.352 6.352v.296c0 .133.012.261.02.391-.008.153-.02.305-.02.461v38c0 4.155 2.899 7.5 6.5 7.5s6.5-3.345 6.5-7.5V-87h9.648A6.337 6.337 0 0 0-146-93.352v-20.296a6.337 6.337 0 0 0-6.352-6.352h-.296z" style="fill:#666;stroke:#000;stroke-width:4;stroke-linecap:round;stroke-linejoin:round;stroke-miterlimit:4;stroke-dasharray:none;stroke-opacity:1;paint-order:markers stroke fill;stop-color:#000" transform="translate(84.47 25.02)"/><path d="M-152.648-120a6.337 6.337 0 0 0-6.352 6.352V-110h-9.648a6.337 6.337 0 0 0-6.352 6.352v.296c0 .133.012.261.02.391-.008.153-.02.305-.02.461v38c0 4.155 2.899 7.5 6.5 7.5s6.5-3.345 6.5-7.5V-87h9.648A6.337 6.337 0 0 0-146-93.352v-20.296a6.337 6.337 0 0 0-6.352-6.352h-.296z" style="fill:#000;stroke:#fff;stroke-width:2;stroke-linecap:round;stroke-linejoin:round;stroke-miterlimit:4;stroke-dasharray:none;stroke-opacity:1;paint-order:markers stroke fill;stop-color:#000" transform="translate(84.47 25.02)"/><circle cx="-84.029" cy="-78.479" r="2.5" style="fill:#fc0;stroke:none;stroke-width:4;stroke-linecap:round;stroke-linejoin:round;stroke-opacity:1;paint-order:markers stroke fill;stop-color:#000"/><circle cx="-84.029" cy="-70.479" r="2.5" style="fill:red;stroke:none;stroke-width:4;stroke-linecap:round;stroke-linejoin:round;stroke-opacity:1;paint-order:markers stroke fill;stop-color:#000"/><circle cx="-84.029" cy="-62.479" r="2.5" style="fill:#fff;stroke:none;stroke-width:4;stroke-linecap:round;stroke-linejoin:round;stroke-opacity:1;paint-order:markers stroke fill;stop-color:#000"/><circle cx="-84.029" cy="-54.479" r="2.5" style="fill:#0f0;stroke:none;stroke-width:4;stroke-linecap:round;stroke-linejoin:round;stroke-opacity:1;paint-order:markers stroke fill;stop-color:#000"/><circle cx="-84.029" cy="-46.479" r="2.5" style="fill:red;stroke:none;stroke-width:4;stroke-linecap:round;stroke-linejoin:round;stroke-opacity:1;paint-order:markers stroke fill;stop-color:#000"/><circle cx="-84.029" cy="-38.479" r="2.5" style="fill:#fc0;stroke:none;stroke-width:4;stroke-linecap:round;stroke-linejoin:round;stroke-opacity:1;paint-order:markers stroke fill;stop-color:#000"/><circle cx="-68.029" cy="-78.479" r="2.5" style="fill:#fc0;stroke:none;stroke-width:4;stroke-linecap:round;stroke-linejoin:round;stroke-opacity:1;paint-order:markers stroke fill;stop-color:#000"/><circle cx="-68.029" cy="-88.479" r="2.5" style="fill:#fc0;stroke:none;stroke-width:4;stroke-linecap:round;stroke-linejoin:round;stroke-opacity:1;paint-order:markers stroke fill;stop-color:#000"/><circle cx="-68.029" cy="-68.479" r="2.5" style="fill:#fc0;stroke:none;stroke-width:4;stroke-linecap:round;stroke-linejoin:round;stroke-opacity:1;paint-order:markers stroke fill;stop-color:#000"/><circle cx="-218.029" cy="-31.979" r="15.057" style="fill:none;stroke:#000;stroke-width:3.88571;stroke-linecap:round;stroke-linejoin:round;stroke-miterlimit:4;stroke-dasharray:none;stroke-opacity:1;paint-order:markers stroke fill;stop-color:#000"/><circle cx="-218.029" cy="-31.979" r="15.03" style="fill:#000;stroke:#fff;stroke-width:1.93939;stroke-linecap:round;stroke-linejoin:round;stroke-miterlimit:4;stroke-dasharray:none;stroke-opacity:1;paint-order:markers stroke fill;stop-color:#000"/><circle cx="-22.479" cy="218.029" r="2.5" style="fill:#fc0;stroke:none;stroke-width:4;stroke-linecap:round;stroke-linejoin:round;stroke-opacity:1;paint-order:markers stroke fill;stop-color:#000" transform="rotate(90)"/><circle cx="-32.479" cy="218.029" r="2.5" style="fill:#0f0;stroke:none;stroke-width:4;stroke-linecap:round;stroke-linejoin:round;stroke-opacity:1;paint-order:markers stroke fill;stop-color:#000" transform="rotate(90)"/><circle cx="-28.479" cy="210.029" r="2.5" style="fill:red;stroke:none;stroke-width:4;stroke-linecap:round;stroke-linejoin:round;stroke-opacity:1;paint-order:markers stroke fill;stop-color:#000" transform="rotate(90)"/><circle cx="-28.479" cy="226.029" r="2.5" style="fill:#fc0;stroke:none;stroke-width:4;stroke-linecap:round;stroke-linejoin:round;stroke-opacity:1;paint-order:markers stroke fill;stop-color:#000" transform="rotate(90)"/><circle cx="-36.479" cy="210.029" r="2.5" style="fill:#fc0;stroke:none;stroke-width:4;stroke-linecap:round;stroke-linejoin:round;stroke-opacity:1;paint-order:markers stroke fill;stop-color:#000" transform="rotate(90)"/><circle cx="-36.479" cy="226.029" r="2.5" style="fill:#fc0;stroke:none;stroke-width:4;stroke-linecap:round;stroke-linejoin:round;stroke-opacity:1;paint-order:markers stroke fill;stop-color:#000" transform="rotate(90)"/><rect width="7" height="7" x="-177.529" y="-6.979" ry="1" style="fill:#000;fill-opacity:1;stroke:none;stroke-width:4;stroke-linecap:round;stroke-linejoin:round;stroke-miterlimit:4;stroke-dasharray:none;stroke-opacity:1;paint-order:markers stroke fill;stop-color:#000"/><circle cx="-3.479" cy="174.029" r="1.5" style="fill:#fff;stroke:none;stroke-width:2.4;stroke-linecap:round;stroke-linejoin:round;stroke-opacity:1;paint-order:markers stroke fill;stop-color:#000" transform="rotate(90)"/><rect width="7" height="10" x="-145.529" y="-9.979" ry="0" style="fill:#000;fill-opacity:1;stroke:none;stroke-width:3.52767;stroke-linecap:round;stroke-linejoin:round;stroke-miterlimit:4;stroke-dasharray:none;stroke-opacity:1;paint-order:markers stroke fill;stop-color:#000"/><text xml:space="preserve" x="-145.326" y="-.979" style="font-style:normal;font-variant:normal;font-weight:400;font-stretch:normal;font-size:8px;line-height:1.25;font-family:Roboto;-inkscape-font-specification:Roboto;font-variant-ligatures:normal;font-variant-caps:normal;font-variant-numeric:normal;font-feature-settings:normal;text-align:start;letter-spacing:0;word-spacing:0;writing-mode:lr-tb;text-anchor:start;fill:#fff;fill-opacity:1;stroke:none"><tspan x="-145.326" y="-.979" style="font-style:normal;font-variant:normal;font-weight:400;font-stretch:normal;font-family:PoliceSNCF;-inkscape-font-specification:PoliceSNCF;fill:#fff">F</tspan></text><rect width="9.805" height="10" x="-134.334" y="-9.979" ry="0" style="fill:#000;fill-opacity:1;stroke:none;stroke-width:4.17499;stroke-linecap:round;stroke-linejoin:round;stroke-miterlimit:4;stroke-dasharray:none;stroke-opacity:1;paint-order:markers stroke fill;stop-color:#000"/><text xml:space="preserve" x="-134.131" y="-.979" style="font-style:normal;font-variant:normal;font-weight:400;font-stretch:normal;font-size:8px;line-height:1.25;font-family:Roboto;-inkscape-font-specification:Roboto;font-variant-ligatures:normal;font-variant-caps:normal;font-variant-numeric:normal;font-feature-settings:normal;text-align:start;letter-spacing:-.8px;word-spacing:0;writing-mode:lr-tb;text-anchor:start;fill:#fff;fill-opacity:1;stroke:none"><tspan x="-134.131" y="-.979" dx="0" style="font-style:normal;font-variant:normal;font-weight:400;font-stretch:normal;font-family:PoliceSNCF;-inkscape-font-specification:PoliceSNCF;fill:#fff">Nf</tspan></text><rect width="29" height="13" x="243.529" y="64.979" ry="6.365" style="fill:none;stroke:#000;stroke-width:4;stroke-linecap:round;stroke-linejoin:round;stroke-miterlimit:4;stroke-dasharray:none;stroke-opacity:1;paint-order:markers stroke fill;stop-color:#000" transform="scale(-1)"/><rect width="29" height="13" x="243.529" y="64.979" ry="6.466" style="fill:#000;stroke:#fff;stroke-width:2;stroke-linecap:round;stroke-linejoin:round;stroke-miterlimit:4;stroke-dasharray:none;stroke-opacity:1;paint-order:markers stroke fill;stop-color:#000" transform="scale(-1)"/><circle cx="258.029" cy="71.479" r="2.5" style="fill:#fff;stroke:none;stroke-width:4;stroke-linecap:round;stroke-linejoin:round;stroke-opacity:1;paint-order:markers stroke fill;stop-color:#000" transform="scale(-1)"/><circle cx="250.029" cy="71.479" r="2.5" style="fill:#fff;stroke:none;stroke-width:4;stroke-linecap:round;stroke-linejoin:round;stroke-opacity:1;paint-order:markers stroke fill;stop-color:#000" transform="scale(-1)"/><circle cx="266.029" cy="71.479" r="2.5" style="fill:#fff;stroke:none;stroke-width:4;stroke-linecap:round;stroke-linejoin:round;stroke-opacity:1;paint-order:markers stroke fill;stop-color:#000" transform="scale(-1)"/><rect width="21" height="13" x="286.529" y="64.979" ry="6.365" style="fill:none;stroke:#000;stroke-width:4;stroke-linecap:round;stroke-linejoin:round;stroke-miterlimit:4;stroke-dasharray:none;stroke-opacity:1;paint-order:markers stroke fill;stop-color:#000" transform="scale(-1)"/><rect width="21" height="13" x="286.529" y="64.979" ry="6.466" style="fill:#000;stroke:#fff;stroke-width:2;stroke-linecap:round;stroke-linejoin:round;stroke-miterlimit:4;stroke-dasharray:none;stroke-opacity:1;paint-order:markers stroke fill;stop-color:#000" transform="scale(-1)"/><circle cx="293.029" cy="71.479" r="2.5" style="fill:#fff;stroke:none;stroke-width:4;stroke-linecap:round;stroke-linejoin:round;stroke-opacity:1;paint-order:markers stroke fill;stop-color:#000" transform="scale(-1)"/><circle cx="301.029" cy="71.479" r="2.5" style="fill:#fff;stroke:none;stroke-width:4;stroke-linecap:round;stroke-linejoin:round;stroke-opacity:1;paint-order:markers stroke fill;stop-color:#000" transform="scale(-1)"/><rect width="37" height="13" x="192.529" y="64.979" ry="6.365" style="fill:none;stroke:#000;stroke-width:4;stroke-linecap:round;stroke-linejoin:round;stroke-miterlimit:4;stroke-dasharray:none;stroke-opacity:1;paint-order:markers stroke fill;stop-color:#000" transform="scale(-1)"/><rect width="37" height="13" x="192.529" y="64.979" ry="6.466" style="fill:#000;stroke:#fff;stroke-width:2;stroke-linecap:round;stroke-linejoin:round;stroke-miterlimit:4;stroke-dasharray:none;stroke-opacity:1;paint-order:markers stroke fill;stop-color:#000" transform="scale(-1)"/><circle cx="215.029" cy="71.479" r="2.5" style="fill:#fff;stroke:none;stroke-width:4;stroke-linecap:round;stroke-linejoin:round;stroke-opacity:1;paint-order:markers stroke fill;stop-color:#000" transform="scale(-1)"/><circle cx="207.029" cy="71.479" r="2.5" style="fill:#fff;stroke:none;stroke-width:4;stroke-linecap:round;stroke-linejoin:round;stroke-opacity:1;paint-order:markers stroke fill;stop-color:#000" transform="scale(-1)"/><circle cx="223.029" cy="71.479" r="2.5" style="fill:#fff;stroke:none;stroke-width:4;stroke-linecap:round;stroke-linejoin:round;stroke-opacity:1;paint-order:markers stroke fill;stop-color:#000" transform="scale(-1)"/><circle cx="199.029" cy="71.479" r="2.5" style="fill:#fff;stroke:none;stroke-width:4;stroke-linecap:round;stroke-linejoin:round;stroke-opacity:1;paint-order:markers stroke fill;stop-color:#000" transform="scale(-1)"/><rect width="45" height="13" x="133.529" y="64.979" ry="6.495" style="fill:none;stroke:#000;stroke-width:4;stroke-linecap:round;stroke-linejoin:round;stroke-miterlimit:4;stroke-dasharray:none;stroke-opacity:1;paint-order:markers stroke fill;stop-color:#000" transform="scale(-1)"/><rect width="45" height="13" x="133.529" y="64.979" ry="6.357" style="fill:#000;stroke:#fff;stroke-width:2;stroke-linecap:round;stroke-linejoin:round;stroke-miterlimit:4;stroke-dasharray:none;stroke-opacity:1;paint-order:markers stroke fill;stop-color:#000" transform="scale(-1)"/><circle cx="164.029" cy="71.479" r="2.5" style="fill:#fff;stroke:none;stroke-width:4;stroke-linecap:round;stroke-linejoin:round;stroke-opacity:1;paint-order:markers stroke fill;stop-color:#000" transform="scale(-1)"/><circle cx="156.029" cy="71.479" r="2.5" style="fill:#fff;stroke:none;stroke-width:4;stroke-linecap:round;stroke-linejoin:round;stroke-opacity:1;paint-order:markers stroke fill;stop-color:#000" transform="scale(-1)"/><circle cx="172.029" cy="71.479" r="2.5" style="fill:#fff;stroke:none;stroke-width:4;stroke-linecap:round;stroke-linejoin:round;stroke-opacity:1;paint-order:markers stroke fill;stop-color:#000" transform="scale(-1)"/><circle cx="148.029" cy="71.479" r="2.5" style="fill:#fff;stroke:none;stroke-width:4;stroke-linecap:round;stroke-linejoin:round;stroke-opacity:1;paint-order:markers stroke fill;stop-color:#000" transform="scale(-1)"/><circle cx="140.029" cy="71.479" r="2.5" style="fill:#fff;stroke:none;stroke-width:4;stroke-linecap:round;stroke-linejoin:round;stroke-opacity:1;paint-order:markers stroke fill;stop-color:#000" transform="scale(-1)"/></g></svg>