<svg xmlns="http://www.w3.org/2000/svg" width="128" height="128"><path fill="none" d="M0 0h128v128H0z" style="fill:#fff;fill-opacity:0;stroke:none;stroke-width:9.14344"/><path d="M78.71 111.71c0 8.282-6.718 15-15 15-8.284 0-15-6.718-15-15 0-8.284 6.716-15 15-15 8.282 0 15 6.716 15 15zm0 0" style="fill:#fff;fill-opacity:1;fill-rule:nonzero;stroke:#000;stroke-width:1.99987;stroke-linecap:round;stroke-linejoin:round;stroke-miterlimit:4;stroke-opacity:1"/><path d="m60.016 108.176 2.476-7.781c.086-.262.238-.395.457-.395.309 0 .461.133.461.395 0 .09-.02.183-.05.289l-2.895 9.007c-.067.207-.219.309-.457.309-.238 0-.395-.102-.457-.309l-2.918-9.007a1.01 1.01 0 0 1-.047-.29c0-.261.148-.394.45-.394.21 0 .359.133.444.395zM65.746 108.879h5.063c.406 0 .605.16.605.473 0 .304-.2.457-.605.457h-5.52a.543.543 0 0 1-.344-.114c-.105-.078-.156-.203-.156-.37v-8.669c0-.437.16-.656.48-.656.317 0 .477.23.477.695zm0 0" style="fill:#000;fill-opacity:1;fill-rule:nonzero;stroke:none"/><g aria-label="D" style="font-style:normal;font-weight:400;font-size:14.9927px;line-height:1.25;font-family:sans-serif;letter-spacing:0;word-spacing:0;fill:#000;fill-opacity:1;stroke:none;stroke-width:.374817"><path d="M60.654 123.488V114.6q0-.6.498-.6h2.614q1.764 0 2.694.893.886.974.886 2.475v3.272q0 3.36-3.66 3.36h-2.534q-.498 0-.498-.512zm.996-.454h2.035q1.384 0 2.02-.6.638-.6.638-1.809v-3.257q0-2.409-2.658-2.409H61.65z" style="font-style:normal;font-variant:normal;font-weight:400;font-stretch:normal;font-family:saxMono;-inkscape-font-specification:saxMono;stroke-width:.374817"/></g></svg>