<?xml version="1.0" encoding="UTF-8"?>
<svg xmlns="http://www.w3.org/2000/svg" xmlns:xlink="http://www.w3.org/1999/xlink" width="128px" height="128px" viewBox="0 0 128 128" version="1.1">
<g id="surface1">
<rect y="0" x="0" height="128" width="128" id="rect842" style="fill:#ffffff;fill-opacity:0;stroke:none;" />
<path style="fill-rule:nonzero;fill:rgb(100%,100%,100%);fill-opacity:1;stroke-width:0.999924;stroke-linecap:round;stroke-linejoin:round;stroke:rgb(0%,0%,0%);stroke-opacity:1;stroke-miterlimit:4;" d="M 26.5 20.5 L 37.5 20.5 L 37.5 63.5 L 26.5 63.5 Z M 26.5 20.5 " transform="matrix(2,0,0,2,0,0)"/>
<path style=" stroke:none;fill-rule:nonzero;fill:rgb(0%,0%,0%);fill-opacity:1;" d="M 60.015625 52.175781 L 62.492188 44.394531 C 62.578125 44.132812 62.730469 44 62.949219 44 C 63.257812 44 63.410156 44.132812 63.410156 44.394531 C 63.410156 44.484375 63.390625 44.578125 63.359375 44.683594 L 60.464844 53.691406 C 60.398438 53.894531 60.246094 54 60.007812 54 C 59.769531 54 59.617188 53.894531 59.550781 53.691406 L 56.632812 44.683594 C 56.601562 44.578125 56.585938 44.484375 56.585938 44.394531 C 56.585938 44.132812 56.734375 44 57.035156 44 C 57.246094 44 57.394531 44.132812 57.480469 44.394531 Z M 60.015625 52.175781 "/>
<path style=" stroke:none;fill-rule:nonzero;fill:rgb(0%,0%,0%);fill-opacity:1;" d="M 65.746094 52.878906 L 70.808594 52.878906 C 71.214844 52.878906 71.414062 53.035156 71.414062 53.351562 C 71.414062 53.65625 71.214844 53.808594 70.808594 53.808594 L 65.289062 53.808594 C 65.160156 53.808594 65.046875 53.773438 64.945312 53.695312 C 64.839844 53.617188 64.789062 53.492188 64.789062 53.324219 L 64.789062 44.65625 C 64.789062 44.21875 64.949219 44 65.265625 44 C 65.585938 44 65.746094 44.230469 65.746094 44.695312 Z M 65.746094 52.878906 "/>
<path style=" stroke:none;fill-rule:nonzero;fill:rgb(0%,0%,0%);fill-opacity:1;" d="M 65.878906 65.019531 L 62.0625 65.019531 L 61.519531 67.714844 C 61.480469 67.902344 61.34375 67.996094 61.101562 67.996094 C 60.769531 67.996094 60.613281 67.867188 60.632812 67.601562 C 60.644531 67.417969 60.886719 66.15625 61.355469 63.808594 C 61.789062 61.667969 62.082031 60.265625 62.238281 59.605469 C 62.457031 58.535156 63.042969 58 63.996094 58 C 64.949219 58 65.535156 58.535156 65.757812 59.605469 C 66.046875 60.980469 66.339844 62.355469 66.628906 63.730469 C 67.125 66.078125 67.371094 67.34375 67.371094 67.523438 C 67.371094 67.84375 67.203125 68.003906 66.871094 68.003906 C 66.605469 68.003906 66.453125 67.890625 66.40625 67.660156 Z M 62.222656 64.089844 L 65.695312 64.089844 L 64.914062 60.125 C 64.757812 59.328125 64.4375 58.929688 63.949219 58.929688 C 63.65625 58.929688 63.4375 59.039062 63.285156 59.257812 C 63.164062 59.441406 63.0625 59.753906 62.976562 60.195312 Z M 62.222656 64.089844 "/>
<path style=" stroke:none;fill-rule:nonzero;fill:rgb(0%,0%,0%);fill-opacity:1;" d="M 64.085938 77.894531 L 66.367188 72.410156 C 66.480469 72.136719 66.660156 72 66.910156 72 C 67.214844 72 67.367188 72.210938 67.367188 72.632812 L 67.367188 81.480469 C 67.367188 81.828125 67.210938 82 66.902344 82 C 66.566406 82 66.402344 81.785156 66.402344 81.351562 L 66.402344 74.410156 L 64.515625 78.84375 C 64.398438 79.121094 64.246094 79.261719 64.0625 79.261719 C 63.863281 79.261719 63.699219 79.121094 63.578125 78.84375 L 61.597656 74.410156 L 61.597656 81.480469 C 61.597656 81.828125 61.4375 82 61.121094 82 C 60.796875 82 60.632812 81.804688 60.632812 81.414062 L 60.632812 72.640625 C 60.632812 72.214844 60.804688 72 61.148438 72 C 61.367188 72 61.53125 72.125 61.640625 72.375 Z M 64.085938 77.894531 "/>
<path style=" stroke:none;fill-rule:nonzero;fill:rgb(0%,0%,0%);fill-opacity:1;" d="M 60.691406 102.578125 C 60.691406 101.699219 61.007812 101.035156 61.648438 100.585938 C 62.203125 100.195312 62.9375 100 63.851562 100 C 65.269531 100 66.285156 100.347656 66.894531 101.042969 C 67.054688 101.226562 67.132812 101.390625 67.132812 101.542969 C 67.132812 101.804688 66.996094 101.9375 66.71875 101.9375 C 66.605469 101.9375 66.433594 101.859375 66.203125 101.703125 C 65.980469 101.550781 65.71875 101.402344 65.429688 101.265625 C 64.933594 101.042969 64.378906 100.929688 63.773438 100.929688 C 63.183594 100.929688 62.699219 101.050781 62.324219 101.289062 C 61.875 101.570312 61.648438 101.992188 61.648438 102.550781 C 61.648438 103.210938 62.144531 103.695312 63.140625 104 L 65.84375 104.84375 C 66.890625 105.304688 67.414062 106.117188 67.414062 107.28125 C 67.414062 108.183594 67.042969 108.890625 66.300781 109.40625 C 65.679688 109.808594 64.867188 110.007812 63.875 110.007812 C 63.261719 110.007812 62.617188 109.902344 61.9375 109.695312 C 61.035156 109.417969 60.585938 109.054688 60.585938 108.597656 C 60.585938 108.332031 60.722656 108.195312 60.992188 108.195312 C 61.125 108.195312 61.429688 108.328125 61.910156 108.589844 C 62.5 108.914062 63.179688 109.078125 63.949219 109.078125 C 64.617188 109.078125 65.179688 108.929688 65.640625 108.640625 C 66.183594 108.296875 66.457031 107.8125 66.457031 107.183594 C 66.457031 106.300781 65.933594 105.726562 64.878906 105.464844 L 62.839844 104.816406 C 61.40625 104.4375 60.691406 103.691406 60.691406 102.578125 Z M 60.691406 102.578125 "/>
<path style="fill:none;stroke-width:0.5;stroke-linecap:round;stroke-linejoin:round;stroke:rgb(0%,0%,0%);stroke-opacity:1;stroke-miterlimit:4;" d="M 35.5 45.501953 C 35.5 47.433594 33.933594 49.001953 32 49.001953 C 30.066406 49.001953 28.5 47.433594 28.5 45.501953 C 28.5 43.568359 30.066406 42.001953 32 42.001953 C 33.933594 42.001953 35.5 43.568359 35.5 45.501953 Z M 35.5 45.501953 " transform="matrix(2,0,0,2,0,0)"/>
<path style=" stroke:none;fill-rule:nonzero;fill:rgb(0%,0%,0%);fill-opacity:1;" d="M 64.085938 91.894531 L 66.367188 86.410156 C 66.480469 86.136719 66.660156 86 66.910156 86 C 67.214844 86 67.367188 86.210938 67.367188 86.632812 L 67.367188 95.480469 C 67.367188 95.828125 67.210938 96 66.902344 96 C 66.566406 96 66.402344 95.785156 66.402344 95.351562 L 66.402344 88.410156 L 64.515625 92.84375 C 64.398438 93.121094 64.246094 93.261719 64.0625 93.261719 C 63.863281 93.261719 63.699219 93.121094 63.578125 92.84375 L 61.597656 88.410156 L 61.597656 95.480469 C 61.597656 95.828125 61.4375 96 61.121094 96 C 60.796875 96 60.632812 95.804688 60.632812 95.414062 L 60.632812 86.640625 C 60.632812 86.214844 60.804688 86 61.148438 86 C 61.367188 86 61.53125 86.125 61.640625 86.375 Z M 64.085938 91.894531 "/>
<path style=" stroke:none;fill-rule:nonzero;fill:rgb(0%,0%,0%);fill-opacity:1;" d="M 56.898438 121.027344 L 56.898438 117.085938 C 56.898438 115.027344 57.988281 114 60.171875 114 C 61.058594 114 61.773438 114.195312 62.3125 114.589844 C 62.933594 115.074219 63.242188 115.71875 63.242188 116.527344 C 63.242188 116.917969 63.085938 117.113281 62.769531 117.113281 C 62.546875 117.113281 62.382812 116.929688 62.285156 116.5625 C 62.222656 116.25 62.105469 115.949219 61.933594 115.667969 C 61.660156 115.175781 61.050781 114.929688 60.101562 114.929688 C 59.289062 114.929688 58.707031 115.132812 58.355469 115.542969 C 58.027344 115.910156 57.863281 116.507812 57.863281 117.339844 L 57.863281 120.625 C 57.863281 121.480469 58.035156 122.089844 58.382812 122.457031 C 58.753906 122.871094 59.347656 123.078125 60.160156 123.078125 C 61.382812 123.078125 62.09375 122.644531 62.285156 121.78125 C 62.355469 121.460938 62.394531 121.296875 62.398438 121.289062 C 62.46875 121.109375 62.59375 121.019531 62.769531 121.019531 C 63.085938 121.019531 63.242188 121.214844 63.242188 121.605469 C 63.242188 122.378906 62.917969 123.003906 62.265625 123.480469 C 61.738281 123.828125 61.050781 124 60.199219 124 C 59.191406 124 58.402344 123.761719 57.828125 123.28125 C 57.207031 122.769531 56.898438 122.019531 56.898438 121.027344 Z M 56.898438 121.027344 "/>
<path style=" stroke:none;fill-rule:nonzero;fill:rgb(0%,0%,0%);fill-opacity:1;" d="M 67.875 122.484375 L 70.171875 116.957031 C 70.269531 116.722656 70.425781 116.605469 70.636719 116.605469 C 70.945312 116.605469 71.101562 116.738281 71.101562 117.007812 C 71.101562 117.089844 71.066406 117.21875 70.996094 117.386719 L 68.441406 123.5 C 68.3125 123.800781 68.128906 123.949219 67.882812 123.949219 C 67.640625 123.949219 67.453125 123.800781 67.328125 123.5 L 64.75 117.378906 C 64.6875 117.234375 64.660156 117.117188 64.660156 117.027344 C 64.660156 116.914062 64.699219 116.816406 64.785156 116.730469 C 64.875 116.648438 64.976562 116.605469 65.09375 116.605469 C 65.3125 116.605469 65.472656 116.738281 65.582031 117 Z M 67.875 122.484375 "/>
</g>
</svg>
