<svg xmlns="http://www.w3.org/2000/svg" width="128" height="128"><path fill="none" d="M0 0h128v128H0z" style="fill:#fff;fill-opacity:0;stroke:none"/><path d="M26.5 27.5h11v36h-11Zm0 0" style="fill-rule:nonzero;fill:#fff;fill-opacity:1;stroke-width:.999915;stroke-linecap:round;stroke-linejoin:round;stroke:#000;stroke-opacity:1;stroke-miterlimit:4" transform="scale(2)"/><path d="m60.016 66.176 2.476-7.781c.086-.262.238-.395.457-.395.309 0 .461.133.461.395 0 .09-.02.183-.05.289l-2.895 9.007c-.067.204-.219.309-.457.309-.238 0-.39-.105-.457-.309l-2.918-9.007a1.011 1.011 0 0 1-.047-.29c0-.261.148-.394.45-.394.21 0 .359.133.444.395ZM65.746 66.879h5.063c.406 0 .605.156.605.473 0 .304-.2.457-.605.457h-5.52a.543.543 0 0 1-.344-.114c-.105-.078-.156-.203-.156-.37v-8.669c0-.437.16-.656.477-.656.32 0 .48.23.48.695ZM65.879 79.02h-3.817l-.542 2.695c-.04.187-.176.281-.418.281-.332 0-.489-.129-.47-.394.013-.184.255-1.446.723-3.793.434-2.141.727-3.543.883-4.204.219-1.07.805-1.605 1.758-1.605s1.54.535 1.762 1.605c.289 1.375.582 2.75.87 4.125.497 2.348.743 3.614.743 3.793 0 .32-.168.48-.5.48-.266 0-.418-.112-.465-.343Zm-3.656-.93h3.472l-.78-3.965c-.157-.797-.478-1.195-.966-1.195-.293 0-.511.11-.664.328-.12.183-.222.496-.308.937ZM64.086 91.89l2.281-5.484c.113-.273.293-.406.543-.406.305 0 .457.21.457.633v8.844c0 .347-.156.52-.465.52-.336 0-.5-.216-.5-.645v-6.946l-1.886 4.438c-.118.277-.27.414-.454.414-.199 0-.363-.137-.484-.414l-1.98-4.438v7.07c0 .348-.16.52-.477.52-.324 0-.488-.195-.488-.582v-8.773c0-.43.172-.641.515-.641.22 0 .383.121.493.371ZM60.691 102.574c0-.879.32-1.543.957-1.992.555-.39 1.29-.586 2.204-.586 1.418 0 2.433.348 3.043 1.043.16.184.238.352.238.5 0 .262-.137.395-.414.395-.114 0-.285-.079-.516-.235a5.93 5.93 0 0 0-.773-.433 3.95 3.95 0 0 0-1.657-.34c-.59 0-1.074.12-1.449.36-.449.28-.676.702-.676 1.26 0 .661.497 1.145 1.493 1.45l2.703.844c1.047.46 1.57 1.273 1.57 2.437 0 .903-.371 1.61-1.113 2.125-.621.399-1.434.602-2.426.602a6.651 6.651 0 0 1-1.938-.313c-.902-.277-1.351-.64-1.351-1.097 0-.266.137-.403.406-.403.133 0 .438.133.918.395.59.324 1.27.488 2.04.488.667 0 1.23-.148 1.69-.437.544-.344.817-.828.817-1.457 0-.883-.527-1.457-1.578-1.72l-2.04-.647c-1.433-.38-2.148-1.126-2.148-2.239ZM56.898 121.023v-3.941c0-2.059 1.09-3.086 3.274-3.086.887 0 1.601.2 2.14.59.622.484.93 1.133.93 1.937 0 .391-.156.586-.472.586-.223 0-.387-.183-.485-.55a2.74 2.74 0 0 0-.351-.895c-.274-.492-.883-.738-1.832-.738-.813 0-1.395.203-1.747.613-.328.367-.492.965-.492 1.797v3.285c0 .856.172 1.465.52 1.832.37.414.965.621 1.777.621 1.223 0 1.934-.433 2.125-1.297.07-.32.11-.484.113-.492.07-.18.196-.27.372-.27.316 0 .472.196.472.587 0 .773-.324 1.398-.976 1.87-.528.348-1.215.524-2.067.524-1.008 0-1.797-.238-2.37-.719-.622-.511-.93-1.261-.93-2.254ZM67.875 122.48l2.297-5.527c.098-.234.254-.351.465-.351.308 0 .465.132.465.402 0 .082-.036.21-.106.379l-2.555 6.113c-.129.3-.312.45-.558.45-.242 0-.43-.15-.555-.45l-2.578-6.121a.924.924 0 0 1-.09-.352c0-.113.04-.21.125-.296a.444.444 0 0 1 .309-.125c.219 0 .379.132.488.394Zm0 0" style="stroke:none;fill-rule:nonzero;fill:#000;fill-opacity:1"/></svg>