<?xml version="1.0" encoding="UTF-8" standalone="no"?>
<svg
   xmlns:dc="http://purl.org/dc/elements/1.1/"
   xmlns:cc="http://creativecommons.org/ns#"
   xmlns:rdf="http://www.w3.org/1999/02/22-rdf-syntax-ns#"
   xmlns:svg="http://www.w3.org/2000/svg"
   xmlns="http://www.w3.org/2000/svg"
   id="svg2"
   version="1.1"
   width="64"
   height="64">
  <metadata
     id="metadata8">
    <rdf:RDF>
      <cc:Work
         rdf:about="">
        <dc:format>image/svg+xml</dc:format>
        <dc:type
           rdf:resource="http://purl.org/dc/dcmitype/StillImage" />
        <dc:title></dc:title>
      </cc:Work>
    </rdf:RDF>
  </metadata>
  <defs
     id="defs6" />
  <rect
     y="2.9998899"
     x="2.9998899"
     height="57.999866"
     width="58.000221"
     id="rect2989-6"
     style="fill:#ffffff;fill-opacity:1;stroke:#000000;stroke-width:5.99978;stroke-miterlimit:4;stroke-dasharray:none;stroke-opacity:1" />
  <g
     style="font-style:normal;font-variant:normal;font-weight:normal;font-stretch:normal;font-size:51.4204px;line-height:1.25;font-family:Roboto;-inkscape-font-specification:Roboto;font-variant-ligatures:normal;font-variant-caps:normal;font-variant-numeric:normal;font-feature-settings:normal;text-align:start;letter-spacing:0px;word-spacing:0px;writing-mode:lr-tb;text-anchor:start;fill:#000000;fill-opacity:1;stroke:none;stroke-width:6.42755"
     id="text845"
     aria-label="R">
    <path
       id="path865"
       style="font-style:normal;font-variant:normal;font-weight:normal;font-stretch:normal;font-family:saxMono;-inkscape-font-specification:saxMono;stroke-width:6.42755"
       d="m 36.393832,33.355813 7.331424,13.156391 q 0.451937,0.803444 0.451937,1.506457 0,1.481349 -1.556672,1.481349 -1.104735,0 -1.832856,-1.280488 L 32.853658,34.058826 h -9.591109 v 13.48279 q 0,1.958394 -1.707318,1.958394 -1.732426,0 -1.732426,-1.958394 v -31.18366 q 0,-1.054519 0.351507,-1.456241 0.351506,-0.401722 1.406026,-0.401722 h 12.629131 q 4.343618,0 6.703734,2.73673 2.20947,2.586085 2.20947,7.005025 0,4.017219 -1.456242,6.00072 -1.431134,1.983502 -5.272599,3.113345 z M 23.262549,30.744621 h 9.440463 q 7.005025,0 7.005025,-6.477765 0,-2.812053 -1.230273,-4.519371 -1.380919,-1.958394 -4.092541,-1.958394 H 23.262549 Z" />
  </g>
</svg>
