<?xml version="1.0" encoding="UTF-8" standalone="no"?>
<svg
   xmlns:dc="http://purl.org/dc/elements/1.1/"
   xmlns:cc="http://creativecommons.org/ns#"
   xmlns:rdf="http://www.w3.org/1999/02/22-rdf-syntax-ns#"
   xmlns:svg="http://www.w3.org/2000/svg"
   xmlns="http://www.w3.org/2000/svg"
   xmlns:sodipodi="http://sodipodi.sourceforge.net/DTD/sodipodi-0.dtd"
   xmlns:inkscape="http://www.inkscape.org/namespaces/inkscape"
   id="svg2"
   version="1.1"
   width="64"
   height="64"
   sodipodi:docname="SCH VL S.svg"
   inkscape:version="1.0 (4035a4fb49, 2020-05-01)">
  <sodipodi:namedview
     inkscape:document-rotation="0"
     pagecolor="#ffffff"
     bordercolor="#666666"
     borderopacity="1"
     objecttolerance="10"
     gridtolerance="10"
     guidetolerance="10"
     inkscape:pageopacity="0"
     inkscape:pageshadow="2"
     inkscape:window-width="1355"
     inkscape:window-height="812"
     id="namedview17"
     showgrid="true"
     inkscape:zoom="9.269728"
     inkscape:cx="29.295801"
     inkscape:cy="54.311408"
     inkscape:window-x="481"
     inkscape:window-y="178"
     inkscape:window-maximized="0"
     inkscape:current-layer="svg2">
    <inkscape:grid
       type="xygrid"
       id="grid842" />
  </sodipodi:namedview>
  <metadata
     id="metadata8">
    <rdf:RDF>
      <cc:Work
         rdf:about="">
        <dc:format>image/svg+xml</dc:format>
        <dc:type
           rdf:resource="http://purl.org/dc/dcmitype/StillImage" />
        <dc:title></dc:title>
      </cc:Work>
    </rdf:RDF>
  </metadata>
  <defs
     id="defs6" />
  <path
     sodipodi:nodetypes="ccccc"
     d="m 26.500021,48.489893 h 10.999958 l 0,15.020214 -10.999958,-0.01013 z"
     style="fill:#ffffff;fill-opacity:1;stroke:#000000;stroke-width:1;stroke-linecap:round;stroke-linejoin:round;stroke-miterlimit:4;stroke-dasharray:none;stroke-opacity:1;paint-order:markers stroke fill;stop-color:#000000"
     id="rect1043" />
  <g
     style="font-style:normal;font-variant:normal;font-weight:normal;font-stretch:normal;font-size:7.21127px;line-height:1.25;font-family:saxMono;-inkscape-font-specification:saxMono;font-variant-ligatures:normal;font-variant-caps:normal;font-variant-numeric:normal;font-feature-settings:normal;text-align:start;letter-spacing:0px;word-spacing:0px;writing-mode:lr-tb;text-anchor:start;fill:#000000;fill-opacity:1;stroke:none;stroke-width:0.901408"
     id="text844"
     aria-label="VL">
    <path
       id="path876"
       style="stroke-width:0.901408"
       d="m 30.007042,54.088028 1.239437,-3.890846 q 0.06338,-0.197183 0.228874,-0.197183 0.228873,0 0.228873,0.197183 0,0.0669 -0.02465,0.144366 l -1.447183,4.503523 q -0.0493,0.15493 -0.228874,0.15493 -0.179577,0 -0.228873,-0.15493 l -1.457747,-4.503523 q -0.02465,-0.07746 -0.02465,-0.144366 0,-0.197183 0.225352,-0.197183 0.158451,0 0.221831,0.197183 z" />
    <path
       id="path878"
       style="stroke-width:0.901408"
       d="m 32.87324,54.440141 h 2.531691 q 0.302817,0 0.302817,0.235916 0,0.228873 -0.302817,0.228873 h -2.760564 q -0.09507,0 -0.172535,-0.05634 -0.07746,-0.05986 -0.07746,-0.18662 v -4.334508 q 0,-0.327465 0.239437,-0.327465 0.239436,0 0.239436,0.348592 z" />
  </g>
  <g
     style="font-style:normal;font-variant:normal;font-weight:normal;font-stretch:normal;font-size:7.21127px;line-height:1.25;font-family:saxMono;-inkscape-font-specification:saxMono;font-variant-ligatures:normal;font-variant-caps:normal;font-variant-numeric:normal;font-feature-settings:normal;text-align:start;letter-spacing:0px;word-spacing:0px;writing-mode:lr-tb;text-anchor:start;fill:#000000;fill-opacity:1;stroke:none;stroke-width:0.901408"
     id="text848"
     aria-label="S">
    <path
       id="path881"
       style="stroke-width:0.901408"
       d="m 30.345069,58.288732 q 0,-0.658451 0.478874,-0.996479 0.415493,-0.292254 1.102113,-0.292254 1.06338,0 1.521127,0.521127 0.119718,0.137324 0.119718,0.25 0,0.197183 -0.207746,0.197183 -0.08451,0 -0.257043,-0.116197 -0.169014,-0.116197 -0.387324,-0.21831 -0.373239,-0.169014 -0.827465,-0.169014 -0.443662,0 -0.725352,0.179577 -0.338028,0.211268 -0.338028,0.630282 0,0.496479 0.746479,0.725353 l 1.352113,0.422535 q 0.785211,0.345071 0.785211,1.21831 0,0.676057 -0.556338,1.063381 -0.46831,0.299296 -1.214789,0.299296 -0.457747,0 -0.96831,-0.15493 -0.676057,-0.207746 -0.676057,-0.549296 0,-0.200704 0.204226,-0.200704 0.09859,0 0.457746,0.197183 0.443662,0.242958 1.021127,0.242958 0.500001,0 0.845071,-0.21831 0.408451,-0.257042 0.408451,-0.728874 0,-0.661972 -0.788733,-0.859155 L 31.419013,59.40845 q -1.073944,-0.285211 -1.073944,-1.119718 z" />
  </g>
</svg>
