<?xml version="1.0" encoding="UTF-8" standalone="no"?>
<svg
   xmlns:dc="http://purl.org/dc/elements/1.1/"
   xmlns:cc="http://creativecommons.org/ns#"
   xmlns:rdf="http://www.w3.org/1999/02/22-rdf-syntax-ns#"
   xmlns:svg="http://www.w3.org/2000/svg"
   xmlns="http://www.w3.org/2000/svg"
   height="64"
   width="64"
   version="1.1"
   id="svg2">
  <metadata
     id="metadata8">
    <rdf:RDF>
      <cc:Work
         rdf:about="">
        <dc:format>image/svg+xml</dc:format>
        <dc:type
           rdf:resource="http://purl.org/dc/dcmitype/StillImage" />
        <dc:title></dc:title>
      </cc:Work>
    </rdf:RDF>
  </metadata>
  <defs
     id="defs6" />
  <rect
     style="fill:#ffffff;fill-opacity:1;stroke:#000000;stroke-width:5.99978;stroke-miterlimit:4;stroke-dasharray:none;stroke-opacity:1"
     id="rect2989-6"
     width="58.000221"
     height="57.999866"
     x="2.9998899"
     y="2.9998899" />
  <g
     style="font-style:normal;font-variant:normal;font-weight:normal;font-stretch:normal;font-size:28.8248px;line-height:1.25;font-family:saxMono;-inkscape-font-specification:saxMono;letter-spacing:0px;word-spacing:0px;fill:#000000;fill-opacity:1;stroke:none;stroke-width:0.720619"
     id="text833"
     aria-label="CAB">
    <path
       id="path835"
       style="stroke-width:0.720619"
       d="m 9.6635949,36.046452 v -7.881781 q 0,-6.164679 6.5446931,-6.164679 2.660102,0 4.278682,1.182267 1.857848,1.449685 1.857848,3.870517 0,1.168193 -0.942999,1.168193 -0.675581,0 -0.971148,-1.09782 -0.18297,-0.942998 -0.70373,-1.787475 -0.816328,-1.477834 -3.659399,-1.477834 -2.434907,0 -3.490503,1.224491 -0.985223,1.09782 -0.985223,3.589025 v 6.572843 q 0,2.561579 1.041521,3.659399 1.111895,1.238565 3.546802,1.238565 3.673473,0 4.250532,-2.589728 0.211119,-0.957073 0.225194,-0.985223 0.211119,-0.534835 0.745954,-0.534835 0.942999,0 0.942999,1.168193 0,2.32231 -1.956371,3.743846 -1.576356,1.041521 -4.12386,1.041521 -3.026041,0 -4.743144,-1.43561 -1.8578481,-1.534132 -1.8578481,-4.503875 z" />
    <path
       id="path837"
       style="stroke-width:0.720619"
       d="m 35.391981,36.032377 h -7.628439 l -1.083745,5.390576 q -0.112596,0.562984 -0.830402,0.562984 -0.999297,0 -0.942998,-0.788178 0.04222,-0.54891 1.449684,-7.586215 1.294864,-6.418022 1.759327,-8.402542 0.661506,-3.20901 3.518652,-3.20901 2.857146,0 3.518652,3.20901 0.872626,4.123861 1.745252,8.247722 1.477834,7.037305 1.477834,7.586214 0,0.957074 -0.999297,0.957074 -0.788178,0 -0.928925,-0.689656 z m -7.304723,-1.857848 h 6.938783 l -1.562282,-7.924005 q -0.464462,-2.392684 -1.928221,-2.392684 -0.872626,0 -1.323014,0.661507 -0.365939,0.548909 -0.619282,1.871923 z" />
    <path
       id="path839"
       style="stroke-width:0.720619"
       d="m 51.324438,31.542577 q 3.011967,0.985222 3.011967,4.546099 0,5.517247 -5.475023,5.517247 h -6.755813 q -1.027446,0 -1.027446,-0.942999 V 23.393378 q 0,-1.027447 1.027446,-1.027447 h 5.95356 q 5.700217,0 5.700217,4.799442 0,3.026041 -2.434908,4.377204 z m -8.318094,8.205497 h 5.686142 q 1.914147,0 2.814922,-0.830402 0.91485,-0.830402 0.91485,-2.730474 0,-1.674879 -0.942999,-2.646027 -0.928924,-0.971148 -2.589728,-0.971148 h -5.883187 z m 0,-9.021825 h 5.855038 q 1.407461,0 2.223788,-1.013371 0.760029,-0.928925 0.760029,-2.378609 0,-1.491909 -0.928924,-2.322311 Q 50.0155,24.22378 48.509516,24.22378 h -5.503172 z" />
  </g>
  <path
     id="path870"
     d="M 5,59 59,5"
     style="fill:none;stroke:#000000;stroke-width:2;stroke-linecap:butt;stroke-linejoin:miter;stroke-opacity:1;stroke-miterlimit:4;stroke-dasharray:none" />
</svg>
