<?xml version="1.0" encoding="UTF-8" standalone="no"?>
<svg
   xmlns:dc="http://purl.org/dc/elements/1.1/"
   xmlns:cc="http://creativecommons.org/ns#"
   xmlns:rdf="http://www.w3.org/1999/02/22-rdf-syntax-ns#"
   xmlns:svg="http://www.w3.org/2000/svg"
   xmlns="http://www.w3.org/2000/svg"
   id="svg2"
   version="1.1"
   width="64"
   height="64">
  <metadata
     id="metadata8">
    <rdf:RDF>
      <cc:Work
         rdf:about="">
        <dc:format>image/svg+xml</dc:format>
        <dc:type
           rdf:resource="http://purl.org/dc/dcmitype/StillImage" />
        <dc:title></dc:title>
      </cc:Work>
    </rdf:RDF>
  </metadata>
  <defs
     id="defs6" />
  <path
     d="m 26.500021,55.5 h 10.999958 v 8.010107 l -10.999958,-0.01013 z"
     style="fill:#ffffff;fill-opacity:1;stroke:#000000;stroke-width:1;stroke-linecap:round;stroke-linejoin:round;stroke-miterlimit:4;stroke-dasharray:none;stroke-opacity:1;paint-order:markers stroke fill;stop-color:#000000"
     id="rect1043" />
  <g
     aria-label="3"
     id="text838"
     style="font-style:normal;font-weight:normal;font-size:7.35632px;line-height:1.25;font-family:sans-serif;letter-spacing:0px;word-spacing:0px;fill:#000000;fill-opacity:1;stroke:none;stroke-width:0.183908">
    <path
       d="m 32.78125,57.470545 h -1.867816 q -0.3125,0 -0.3125,-0.240661 0,-0.229885 0.3125,-0.229885 h 2.302442 q 0.280173,0 0.280173,0.190374 0,0.100574 -0.06825,0.183189 l -1.117097,1.364942 q 0.104167,-0.02155 0.204741,-0.02155 0.474138,0 0.750719,0.298132 0.280172,0.29454 0.280172,0.768678 0,0.912356 -0.9375,1.591235 -0.858477,0.625 -1.80316,0.625 -0.352012,0 -0.352012,-0.211925 0,-0.215518 0.29454,-0.215518 0.542385,0 0.980604,-0.193965 0.510057,-0.222701 0.88362,-0.610632 0.445402,-0.45977 0.445402,-0.941092 0,-0.262212 -0.172413,-0.448994 -0.168822,-0.190373 -0.427443,-0.190373 -0.201149,0 -0.488505,0.122126 -0.287357,0.122126 -0.359196,0.122126 -0.168822,0 -0.168822,-0.204741 0,-0.114942 0.08621,-0.219109 z"
       style="font-style:normal;font-variant:normal;font-weight:normal;font-stretch:normal;font-family:saxMono;-inkscape-font-specification:saxMono;stroke-width:0.183908"
       id="path858" />
  </g>
  <rect
     style="fill:#ffffff;fill-opacity:0;stroke-width:16"
     id="rect836"
     width="64"
     height="64"
     x="-7.1054274e-15"
     y="-1.4210855e-14" />
</svg>
