<svg xmlns="http://www.w3.org/2000/svg" width="128" height="128"><path fill="none" d="M0 0h128v128H0z" style="fill:#fff;fill-opacity:0;stroke:none;stroke-width:9.14344"/><path d="M26.5 41.5h11v22.01l-11-.01Zm0 0" style="fill-rule:nonzero;fill:#fff;fill-opacity:1;stroke-width:1;stroke-linecap:round;stroke-linejoin:round;stroke:#000;stroke-opacity:1;stroke-miterlimit:4" transform="scale(2)"/><path d="m60.016 94.176 2.476-7.781c.086-.262.238-.395.457-.395.309 0 .461.133.461.395 0 .09-.02.183-.05.289l-2.895 9.007c-.067.207-.219.309-.457.309-.238 0-.395-.102-.457-.309l-2.918-9.007a1.011 1.011 0 0 1-.047-.29c0-.261.148-.394.45-.394.21 0 .359.133.444.395ZM65.746 94.879h5.063c.406 0 .605.16.605.473 0 .304-.2.457-.605.457h-5.52a.543.543 0 0 1-.344-.114c-.105-.078-.156-.203-.156-.37v-8.669c0-.437.16-.656.48-.656.317 0 .477.23.477.695ZM60.691 116.578c0-.879.317-1.543.957-1.992.555-.39 1.29-.586 2.204-.586 1.418 0 2.433.348 3.043 1.043.16.184.238.348.238.5 0 .262-.137.394-.414.394-.114 0-.285-.078-.516-.234a5.294 5.294 0 0 0-.773-.433 3.95 3.95 0 0 0-1.657-.34c-.59 0-1.074.12-1.449.36-.449.28-.676.702-.676 1.26 0 .66.497 1.145 1.493 1.45l2.703.844c1.047.46 1.57 1.273 1.57 2.437 0 .903-.371 1.61-1.11 2.13-.624.398-1.437.597-2.429.597a6.651 6.651 0 0 1-1.938-.313c-.902-.273-1.351-.64-1.351-1.097 0-.266.133-.403.406-.403.133 0 .438.133.918.395.59.324 1.27.488 2.04.488.667 0 1.23-.144 1.69-.437.544-.344.817-.829.817-1.457 0-.883-.523-1.457-1.578-1.72l-2.04-.648c-1.433-.379-2.148-1.125-2.148-2.238ZM65.875 107.016h-3.813l-.542 2.695c-.036.187-.176.281-.415.281-.332 0-.492-.129-.472-.394.015-.184.258-1.446.726-3.793.43-2.137.723-3.54.88-4.2.218-1.07.804-1.605 1.757-1.605.953 0 1.54.535 1.762 1.605.289 1.375.582 2.75.87 4.122.493 2.347.74 3.613.74 3.793 0 .32-.165.48-.5.48-.263 0-.419-.113-.466-.344Zm-3.652-.93h3.468l-.78-3.961c-.153-.797-.474-1.195-.962-1.195-.293 0-.511.11-.664.328-.12.183-.222.496-.308.937Zm0 0" style="stroke:none;fill-rule:nonzero;fill:#000;fill-opacity:1"/></svg>