<?xml version="1.0" encoding="UTF-8" standalone="no"?>
<svg
   xmlns:dc="http://purl.org/dc/elements/1.1/"
   xmlns:cc="http://creativecommons.org/ns#"
   xmlns:rdf="http://www.w3.org/1999/02/22-rdf-syntax-ns#"
   xmlns:svg="http://www.w3.org/2000/svg"
   xmlns="http://www.w3.org/2000/svg"
   xmlns:sodipodi="http://sodipodi.sourceforge.net/DTD/sodipodi-0.dtd"
   xmlns:inkscape="http://www.inkscape.org/namespaces/inkscape"
   id="svg2"
   version="1.1"
   width="64"
   height="64"
   sodipodi:docname="SCH M Cv.svg"
   inkscape:version="1.0 (4035a4fb49, 2020-05-01)">
  <sodipodi:namedview
     inkscape:document-rotation="0"
     pagecolor="#ffffff"
     bordercolor="#666666"
     borderopacity="1"
     objecttolerance="10"
     gridtolerance="10"
     guidetolerance="10"
     inkscape:pageopacity="0"
     inkscape:pageshadow="2"
     inkscape:window-width="1355"
     inkscape:window-height="812"
     id="namedview17"
     showgrid="true"
     inkscape:zoom="9.269728"
     inkscape:cx="29.295801"
     inkscape:cy="54.311408"
     inkscape:window-x="481"
     inkscape:window-y="178"
     inkscape:window-maximized="0"
     inkscape:current-layer="svg2">
    <inkscape:grid
       type="xygrid"
       id="grid842" />
  </sodipodi:namedview>
  <metadata
     id="metadata8">
    <rdf:RDF>
      <cc:Work
         rdf:about="">
        <dc:format>image/svg+xml</dc:format>
        <dc:type
           rdf:resource="http://purl.org/dc/dcmitype/StillImage" />
        <dc:title></dc:title>
      </cc:Work>
    </rdf:RDF>
  </metadata>
  <defs
     id="defs6" />
  <path
     sodipodi:nodetypes="ccccc"
     d="m 26.500021,48.489893 h 10.999958 l 0,15.020214 -10.999958,-0.01013 z"
     style="fill:#ffffff;fill-opacity:1;stroke:#000000;stroke-width:1;stroke-linecap:round;stroke-linejoin:round;stroke-miterlimit:4;stroke-dasharray:none;stroke-opacity:1;paint-order:markers stroke fill;stop-color:#000000"
     id="rect1043" />
  <g
     style="font-style:normal;font-variant:normal;font-weight:normal;font-stretch:normal;font-size:7.21127px;line-height:1.25;font-family:saxMono;-inkscape-font-specification:saxMono;font-variant-ligatures:normal;font-variant-caps:normal;font-variant-numeric:normal;font-feature-settings:normal;text-align:start;letter-spacing:0px;word-spacing:0px;writing-mode:lr-tb;text-anchor:start;fill:#000000;fill-opacity:1;stroke:none;stroke-width:0.901408"
     id="text844"
     aria-label="M">
    <path
       id="path850"
       style="stroke-width:0.901408"
       d="m 32.153152,52.947183 1.140845,-2.742959 q 0.08451,-0.204225 0.271127,-0.204225 0.228873,0 0.228873,0.316902 v 4.422536 q 0,0.260564 -0.232394,0.260564 -0.25,0 -0.25,-0.323944 v -3.471832 l -0.943662,2.21831 q -0.08803,0.207747 -0.225353,0.207747 -0.151408,0 -0.242957,-0.207747 l -0.989437,-2.21831 v 3.535212 q 0,0.260564 -0.239437,0.260564 -0.242958,0 -0.242958,-0.292254 v -4.387325 q 0,-0.320423 0.257043,-0.320423 0.165493,0 0.246478,0.18662 z" />
  </g>
  <g
     style="font-style:normal;font-variant:normal;font-weight:normal;font-stretch:normal;font-size:7.21127px;line-height:1.25;font-family:saxMono;-inkscape-font-specification:saxMono;font-variant-ligatures:normal;font-variant-caps:normal;font-variant-numeric:normal;font-feature-settings:normal;text-align:start;letter-spacing:0px;word-spacing:0px;writing-mode:lr-tb;text-anchor:start;fill:#000000;fill-opacity:1;stroke:none;stroke-width:0.901408"
     id="text848"
     aria-label="Cv">
    <path
       id="path853"
       style="stroke-width:0.901408"
       d="m 28.517203,60.514085 v -1.971832 q 0,-1.542254 1.637325,-1.542254 0.665493,0 1.070423,0.295775 0.464788,0.362676 0.464788,0.96831 0,0.292254 -0.235915,0.292254 -0.169014,0 -0.242958,-0.274648 -0.04577,-0.235916 -0.176056,-0.447184 -0.204226,-0.369718 -0.915494,-0.369718 -0.609155,0 -0.873239,0.306338 -0.246479,0.274648 -0.246479,0.897888 v 1.644366 q 0,0.640846 0.260563,0.915494 0.278169,0.309859 0.887324,0.309859 0.919015,0 1.063381,-0.647888 0.05282,-0.239436 0.05634,-0.246479 0.05282,-0.133803 0.18662,-0.133803 0.235915,0 0.235915,0.292254 0,0.580986 -0.489436,0.93662 -0.394367,0.260564 -1.031691,0.260564 -0.757042,0 -1.18662,-0.359155 -0.464789,-0.383803 -0.464789,-1.126761 z" />
    <path
       id="path855"
       style="stroke-width:0.901408"
       d="m 34.006642,61.242958 1.147887,-2.764085 q 0.07394,-0.176057 0.232395,-0.176057 0.232394,0 0.232394,0.200705 0,0.06338 -0.05282,0.190141 L 34.288332,61.75 q -0.09507,0.225353 -0.278169,0.225353 -0.183099,0 -0.278169,-0.225353 l -1.288733,-3.05986 q -0.04577,-0.109155 -0.04577,-0.176056 0,-0.08451 0.06338,-0.147887 0.0669,-0.06338 0.15493,-0.06338 0.161972,0 0.242958,0.197183 z" />
  </g>
</svg>
