<svg xmlns="http://www.w3.org/2000/svg" width="128" height="128"><path fill="none" d="M0 0h128v128H0z" style="fill:#fff;fill-opacity:0;stroke:none;stroke-width:9.14344"/><path d="M26.5 34.5h11v29h-11Zm0 0" style="fill-rule:nonzero;fill:#fff;fill-opacity:1;stroke-width:1.00004;stroke-linecap:round;stroke-linejoin:round;stroke:#000;stroke-opacity:1;stroke-miterlimit:4" transform="scale(2)"/><path d="M60.828 121.023v-3.941c0-2.059 1.09-3.086 3.274-3.086.886 0 1.601.2 2.14.59.621.484.93 1.133.93 1.937 0 .391-.156.586-.473.586-.222 0-.386-.183-.484-.55a2.74 2.74 0 0 0-.352-.895c-.273-.492-.883-.738-1.832-.738-.812 0-1.394.203-1.746.613-.328.367-.492.965-.492 1.797v3.285c0 .856.172 1.465.52 1.832.37.414.964.621 1.777.621 1.222 0 1.933-.433 2.125-1.297.07-.32.11-.484.113-.492.07-.18.195-.27.371-.27.317 0 .473.196.473.587 0 .773-.324 1.398-.977 1.87-.527.348-1.215.524-2.066.524-1.008 0-1.8-.238-2.371-.719-.621-.511-.93-1.261-.93-2.254Zm0 0" style="stroke:none;fill-rule:nonzero;fill:#000;fill-opacity:1"/></svg>