<?xml version="1.0" encoding="UTF-8" standalone="no"?>
<svg
   xmlns:dc="http://purl.org/dc/elements/1.1/"
   xmlns:cc="http://creativecommons.org/ns#"
   xmlns:rdf="http://www.w3.org/1999/02/22-rdf-syntax-ns#"
   xmlns:svg="http://www.w3.org/2000/svg"
   xmlns="http://www.w3.org/2000/svg"
   xmlns:sodipodi="http://sodipodi.sourceforge.net/DTD/sodipodi-0.dtd"
   xmlns:inkscape="http://www.inkscape.org/namespaces/inkscape"
   id="svg2"
   version="1.1"
   width="64"
   height="64"
   sodipodi:docname="SCH VL A.svg"
   inkscape:version="1.0 (4035a4fb49, 2020-05-01)">
  <sodipodi:namedview
     inkscape:document-rotation="0"
     pagecolor="#ffffff"
     bordercolor="#666666"
     borderopacity="1"
     objecttolerance="10"
     gridtolerance="10"
     guidetolerance="10"
     inkscape:pageopacity="0"
     inkscape:pageshadow="2"
     inkscape:window-width="1355"
     inkscape:window-height="812"
     id="namedview17"
     showgrid="true"
     inkscape:zoom="9.269728"
     inkscape:cx="13.33084"
     inkscape:cy="58.082217"
     inkscape:window-x="481"
     inkscape:window-y="178"
     inkscape:window-maximized="0"
     inkscape:current-layer="svg2">
    <inkscape:grid
       type="xygrid"
       id="grid842" />
  </sodipodi:namedview>
  <metadata
     id="metadata8">
    <rdf:RDF>
      <cc:Work
         rdf:about="">
        <dc:format>image/svg+xml</dc:format>
        <dc:type
           rdf:resource="http://purl.org/dc/dcmitype/StillImage" />
        <dc:title></dc:title>
      </cc:Work>
    </rdf:RDF>
  </metadata>
  <defs
     id="defs6" />
  <path
     d="M 39.354765,55.854733 A 7.5000329,7.5000329 0 0 1 31.854733,63.354765 7.5000329,7.5000329 0 0 1 24.3547,55.854733 7.5000329,7.5000329 0 0 1 31.854733,48.3547 7.5000329,7.5000329 0 0 1 39.354765,55.854733 Z"
     style="fill:#ffffff;stroke:#000000;stroke-width:0.999935;stroke-linecap:round;stroke-linejoin:round;stroke-miterlimit:4;stroke-dasharray:none;paint-order:markers stroke fill;stop-color:#000000"
     id="path838" />
  <g
     style="font-style:normal;font-variant:normal;font-weight:normal;font-stretch:normal;font-size:7.21127px;line-height:1.25;font-family:saxMono;-inkscape-font-specification:saxMono;font-variant-ligatures:normal;font-variant-caps:normal;font-variant-numeric:normal;font-feature-settings:normal;text-align:start;letter-spacing:0px;word-spacing:0px;writing-mode:lr-tb;text-anchor:start;fill:#000000;fill-opacity:1;stroke:none;stroke-width:0.901408"
     id="text844"
     aria-label="VL">
    <path
       id="path876"
       style="stroke-width:0.901408"
       d="m 30.007042,54.088028 1.239437,-3.890846 q 0.06338,-0.197183 0.228874,-0.197183 0.228873,0 0.228873,0.197183 0,0.0669 -0.02465,0.144366 l -1.447183,4.503523 q -0.0493,0.15493 -0.228874,0.15493 -0.179577,0 -0.228873,-0.15493 l -1.457747,-4.503523 q -0.02465,-0.07746 -0.02465,-0.144366 0,-0.197183 0.225352,-0.197183 0.158451,0 0.221831,0.197183 z" />
    <path
       id="path878"
       style="stroke-width:0.901408"
       d="m 32.87324,54.440141 h 2.531691 q 0.302817,0 0.302817,0.235916 0,0.228873 -0.302817,0.228873 h -2.760564 q -0.09507,0 -0.172535,-0.05634 -0.07746,-0.05986 -0.07746,-0.18662 v -4.334508 q 0,-0.327465 0.239437,-0.327465 0.239436,0 0.239436,0.348592 z" />
  </g>
  <g
     transform="translate(0,7)"
     aria-label="A"
     id="text838"
     style="font-style:normal;font-variant:normal;font-weight:normal;font-stretch:normal;font-size:7.20619px;line-height:1.25;font-family:saxMono;-inkscape-font-specification:saxMono;font-variant-ligatures:normal;font-variant-caps:normal;font-variant-numeric:normal;font-feature-settings:normal;text-align:start;letter-spacing:0px;word-spacing:0px;writing-mode:lr-tb;text-anchor:start;fill:#000000;fill-opacity:1;stroke:none;stroke-width:0.900774">
    <path
       d="m 32.938095,53.508093 h -1.907107 l -0.270936,1.347642 q -0.02815,0.140746 -0.2076,0.140746 -0.249824,0 -0.23575,-0.197044 0.01056,-0.137227 0.362421,-1.896551 0.323715,-1.604503 0.439831,-2.100633 0.165376,-0.802251 0.879662,-0.802251 0.714285,0 0.879662,0.802251 0.218156,1.030964 0.436312,2.061928 0.369458,1.759324 0.369458,1.896551 Q 33.684048,55 33.434224,55 33.23718,55 33.201993,54.827586 Z m -1.826179,-0.464461 h 1.734694 l -0.39057,-1.980999 q -0.116116,-0.59817 -0.482055,-0.59817 -0.218156,0 -0.330753,0.165377 -0.09149,0.137227 -0.15482,0.46798 z"
       style="stroke-width:0.900774"
       id="path840" />
  </g>
</svg>
