<svg xmlns="http://www.w3.org/2000/svg" width="64" height="64"><path d="M3 3h58v58H3z" style="fill:#fff;fill-opacity:1;stroke:#000;stroke-width:5.99978;stroke-miterlimit:4;stroke-dasharray:none;stroke-opacity:1"/><g aria-label="LGR" style="font-style:normal;font-weight:400;font-size:28.8248px;line-height:1.25;font-family:sans-serif;letter-spacing:0;word-spacing:0;fill:#000;fill-opacity:1;stroke:none;stroke-width:.720619"><path d="M11.388 39.748h10.12q1.21 0 1.21.943 0 .915-1.21.915H10.472q-.38 0-.69-.225-.31-.24-.31-.746V23.309q0-1.309.958-1.309.957 0 .957 1.393zM36.075 35.075h-2.59q-1.154 0-1.154-.915 0-.943 1.154-.943h3.504q.958 0 .958 1.155v6.6q0 1.014-.873 1.014-.9 0-.9-.732v-1.492q-1.788 2.224-4.885 2.224-2.8 0-4.56-1.534-1.844-1.619-1.844-4.377v-7.896Q24.885 22 31.12 22q4.504 0 6.137 3.195.507 1 .507 1.9 0 1.042-.986 1.042-.605 0-.999-1.112-.535-1.492-1.098-2.055-1.098-1.112-3.406-1.112-4.461 0-4.461 4.32v7.897q0 2.04 1.393 3.11 1.253.957 3.35.957 2.04 0 3.237-1 1.28-1.055 1.28-3.067zM50.163 32.95l4.11 7.375q.253.45.253.845 0 .83-.872.83-.62 0-1.028-.718l-4.447-7.938h-5.377v7.558q0 1.098-.957 1.098-.971 0-.971-1.098v-17.48q0-.592.197-.817.197-.225.788-.225h7.08q2.435 0 3.758 1.534 1.238 1.45 1.238 3.927 0 2.252-.816 3.364-.802 1.112-2.956 1.745zm-7.36-1.464h5.291q3.927 0 3.927-3.631 0-1.576-.69-2.533-.774-1.098-2.294-1.098h-6.235z" style="font-style:normal;font-variant:normal;font-weight:400;font-stretch:normal;font-family:saxMono;-inkscape-font-specification:saxMono;stroke-width:.720619"/></g></svg>