<svg xmlns="http://www.w3.org/2000/svg" width="128" height="128"><path fill="none" d="M0 0h128v128H0z" style="fill:#fff;fill-opacity:0;stroke:none;stroke-width:9.14344"/><path d="M26.5 55.5h11v8.01l-11-.01Zm0 0" style="fill-rule:nonzero;fill:#fff;fill-opacity:1;stroke-width:1;stroke-linecap:round;stroke-linejoin:round;stroke:#000;stroke-opacity:1;stroke-miterlimit:4" transform="scale(2)"/><path d="M65.563 114.941h-3.735c-.418 0-.625-.16-.625-.48 0-.309.207-.461.625-.461h4.606c.37 0 .558.125.558.379a.563.563 0 0 1-.137.367l-2.234 2.73c.14-.027.277-.042.41-.042.633 0 1.133.199 1.5.597.375.39.563.903.563 1.535 0 1.22-.625 2.278-1.875 3.184-1.145.832-2.348 1.25-3.606 1.25-.472 0-.707-.14-.707-.426 0-.285.2-.43.59-.43.723 0 1.379-.128 1.961-.386a5.458 5.458 0 0 0 1.77-1.223c.593-.613.89-1.238.89-1.883 0-.347-.117-.648-.347-.898a1.085 1.085 0 0 0-.856-.379c-.266 0-.594.082-.977.246-.382.16-.62.242-.718.242-.223 0-.336-.136-.336-.41a.69.69 0 0 1 .172-.437Zm0 0" style="stroke:none;fill-rule:nonzero;fill:#000;fill-opacity:1"/></svg>