<?xml version="1.0" encoding="UTF-8"?>
<svg version="1.1" viewBox="0 0 64 64" xmlns="http://www.w3.org/2000/svg"><path transform="translate(-107.73 -4.842)" d="m107.73 4.842h64v64h-64z"/><path transform="translate(-107.73 -4.842)" d="m110.7 7.809h58.065v58.065h-58.065z" fill="none" stroke="#fff" stroke-width="3.9351"/><g transform="translate(0 -1.3153)" fill="#fff" stroke-linejoin="round" stroke-width="3.2"><path d="m25.137 15.558h5.8789v-5.0312h-16.789v5.0312h5.8789v22.969h5.0312zm18.758 0h5.8789v-5.0312h-16.789v5.0312h5.8789v22.969h5.0312z" aria-label="TT"/><path d="m20.427 47.805v-3.1855h5.8789v-2.5156h-8.4082v14h8.4082v-2.5156h-5.8789v-3.2676h2.5156v-2.5156zm11.471 0.82031 0.60156 2.4336h-1.1484zm1.2031 4.9629 0.62891 2.5156h2.3789l-2.9395-14h-2.5293l-2.9395 14h2.5293l0.54688-2.5156zm12.865-7.4238q0-0.76562-0.32812-1.5176-0.3418-0.72461-0.90234-1.3125-0.58789-0.57422-1.3262-0.90234-0.73828-0.32812-1.5039-0.32812t-1.5039 0.32812q-0.73828 0.3418-1.3125 0.90234-0.57422 0.58789-0.91602 1.3125-0.3418 0.73828-0.32812 1.5176 0 0.76562 0.32812 1.5039 0.3418 0.73828 0.91602 1.3125t1.3125 0.90234q0.72461 0.3418 1.5039 0.3418 0.31445 0 0.61524 0.13672 0.30078 0.13672 0.54688 0.38281 0.23242 0.24609 0.36914 0.54688 0.13672 0.31445 0.15039 0.61523 0 0.31445-0.15039 0.60156-0.13672 0.31445-0.36914 0.54688-0.24609 0.24609-0.54688 0.38281-0.31445 0.13672-0.61524 0.15039-0.31445 0-0.60156-0.15039-0.31445-0.13672-0.54688-0.38281-0.24609-0.23242-0.39648-0.54688-0.13672-0.30078-0.13672-0.60156h-2.5156q0 0.76562 0.3418 1.5176 0.35547 0.75195 0.9707 1.3672 0.60156 0.61523 1.3535 0.95703 0.75195 0.35547 1.5312 0.35547 0.76562 0 1.5176-0.35547 0.75195-0.35547 1.3809-0.95703 0.60156-0.60156 0.94336-1.3672 0.35547-0.75195 0.35547-1.5176t-0.35547-1.5312q-0.35547-0.75195-0.94336-1.3672-0.61523-0.60156-1.3809-0.95703-0.75195-0.35547-1.5176-0.3418-0.62891 0-1.0801-0.46484-0.46484-0.45117-0.46484-1.0801t0.46484-1.0938q0.45117-0.45117 1.0801-0.45117 0.62891 0 1.0938 0.45117 0.45117 0.46484 0.4375 1.0938z" aria-label="EAS"/></g></svg>
