<?xml version="1.0" encoding="UTF-8"?>
<svg version="1.1" viewBox="0 0 64 64" xmlns="http://www.w3.org/2000/svg"><path transform="translate(-107.73 -4.842)" d="m107.73 4.842h64v64h-64z"/><path transform="translate(-107.73 -4.842)" d="m110.7 7.809h58.065v58.065h-58.065z" fill="none" stroke="#fff" stroke-width="3.9351"/><path d="m11.253 31.544 0.60156 2.4336h-1.1484zm1.2031 4.9629 0.62891 2.5156h2.3789l-2.9395-14h-2.5293l-2.9395 14h2.5293l0.54688-2.5156zm13.494-7.3008q0-0.76562-0.35547-1.5176-0.35547-0.73828-0.94336-1.3672-0.61523-0.60156-1.3809-0.94336-0.75195-0.35547-1.5176-0.35547h-4.2109v14h2.5293v-5.6055h1.6816q0.31445 0 0.61523 0.15039 0.30078 0.13672 0.54688 0.36914 0.23242 0.24609 0.36914 0.54688 0.13672 0.31445 0.13672 0.61524v3.9238h2.5293v-3.9238q0-0.72461-0.16406-1.2715-0.17774-0.54688-0.42383-0.88867-0.24609-0.35547-0.45117-0.51953-0.20508-0.15039-0.35547-0.25976l0.02734-0.02734q0.16406-0.16406 0.36914-0.38281 0.19141-0.21875 0.4375-0.61523 0.21875-0.38281 0.39648-0.875 0.16406-0.49219 0.16406-1.0527zm-4.1973 1.6953h-1.6816v-3.3633h1.6816q0.31445 0 0.61523 0.15039 0.30078 0.13672 0.54688 0.36914 0.23242 0.24609 0.36914 0.54688 0.13672 0.31445 0.13672 0.61524 0 0.31445-0.13672 0.60156-0.13672 0.31445-0.36914 0.54688-0.24609 0.24609-0.54688 0.39648-0.30078 0.13672-0.61523 0.13672zm14.902-1.6953q0-0.76562-0.35547-1.5176-0.35547-0.73828-0.94336-1.3672-0.61523-0.60156-1.3809-0.94336-0.75195-0.35547-1.5176-0.35547h-4.2109v14h2.5293v-5.6055h1.6816q0.31445 0 0.61523 0.15039 0.30078 0.13672 0.54688 0.36914 0.23242 0.24609 0.36914 0.54688 0.13672 0.31445 0.13672 0.61524v3.9238h2.5293v-3.9238q0-0.72461-0.16406-1.2715-0.17773-0.54688-0.42383-0.88867-0.24609-0.35547-0.45117-0.51953-0.20508-0.15039-0.35547-0.25976l0.02734-0.02734q0.16406-0.16406 0.36914-0.38281 0.19141-0.21875 0.4375-0.61523 0.21875-0.38281 0.39648-0.875 0.16406-0.49219 0.16406-1.0527zm-4.1973 1.6953h-1.6816v-3.3633h1.6816q0.31445 0 0.61523 0.15039 0.30078 0.13672 0.54688 0.36914 0.23242 0.24609 0.36914 0.54688 0.13672 0.31445 0.13672 0.61524 0 0.31445-0.13672 0.60156-0.13672 0.31445-0.36914 0.54688-0.24609 0.24609-0.54688 0.39648-0.30078 0.13672-0.61523 0.13672zm9.0234-0.17773v-3.1855h5.8789v-2.5156h-8.4082v14h8.4082v-2.5156h-5.8789v-3.2676h2.5156v-2.5156zm1.3262-9.0645 0.31445 0.84766h1.9551l-1.2578-2.5293h-2.0371l-1.2578 2.5293h1.9551zm11.197 5.8789h2.9395v-2.5156h-8.3945v2.5156h2.9395v11.484h2.5156z" fill="#fff" stroke-linejoin="round" stroke-width="3.2" aria-label="ARRÊT"/></svg>
