<?xml version="1.0" encoding="UTF-8"?>
<svg version="1.1" viewBox="0 0 75 100" xmlns="http://www.w3.org/2000/svg"><path d="m0 0h75v100h-75z"/><path d="m2.9723 2.9723h69.055v94.055h-69.055z" fill="none" stroke="#fff" stroke-width="3.935"/><g transform="matrix(1 0 0 1.0171 -2.5 -12.477)" fill="#fff"><path d="m22.116 33.105 1.036 4.1918h-1.9783zm2.0721 8.548 1.0836 4.3318h4.0966l-5.0619-24.112h-4.3563l-5.0633 24.112h4.3563l0.94222-4.3318z" style="font-feature-settings:normal;font-variant-caps:normal;font-variant-ligatures:normal;font-variant-numeric:normal"/><g transform="translate(0,20)"><path d="m37.686 18.505q0-0.583-0.27-1.156-0.272-0.562-0.72-1.042-0.468-0.458-1.052-0.718-0.573-0.271-1.156-0.271h-3.208v10.666h1.927v-4.27h1.281q0.24 0 0.469 0.114 0.23 0.104 0.417 0.281 0.177 0.188 0.28 0.417 0.105 0.24 0.105 0.469v2.99h1.927v-2.99q0-0.552-0.125-0.969-0.135-0.417-0.323-0.677-0.187-0.27-0.344-0.396l-0.27-0.198 0.02-0.02q0.125-0.126 0.282-0.292 0.145-0.167 0.333-0.469 0.167-0.292 0.302-0.667 0.125-0.375 0.125-0.802m-3.198 1.292h-1.281v-2.563h1.281q0.24 0 0.469 0.115 0.23 0.104 0.417 0.281 0.177 0.188 0.28 0.417 0.105 0.24 0.105 0.469 0 0.24-0.104 0.458-0.104 0.24-0.281 0.417-0.188 0.187-0.417 0.302-0.23 0.104-0.469 0.104m11.355-1.292q0-0.583-0.271-1.156-0.271-0.562-0.72-1.042-0.468-0.458-1.051-0.718-0.573-0.271-1.157-0.271h-3.208v10.666h1.927v-4.27h1.281q0.24 0 0.47 0.114 0.228 0.104 0.416 0.281 0.177 0.188 0.281 0.417 0.104 0.24 0.104 0.469v2.99h1.927v-2.99q0-0.552-0.125-0.969-0.135-0.417-0.323-0.677-0.187-0.27-0.343-0.396l-0.271-0.198 0.02-0.02q0.126-0.126 0.282-0.292 0.146-0.167 0.333-0.469 0.167-0.292 0.302-0.667 0.125-0.375 0.125-0.802zm-3.199 1.292h-1.28v-2.563h1.28q0.24 0 0.47 0.115 0.228 0.104 0.416 0.281 0.177 0.188 0.281 0.417 0.104 0.24 0.104 0.469 0 0.24-0.104 0.458-0.104 0.24-0.281 0.417-0.188 0.187-0.417 0.302-0.229 0.104-0.469 0.104m6.875-0.135v-2.428h4.48v-1.916h-6.407v10.666h6.407v-1.916h-4.48v-2.49h1.917v-1.916zm1.01-6.907 0.24 0.646h1.49l-0.958-1.927h-1.552l-0.959 1.927h1.49zm8.532 4.479h2.24v-1.916h-6.396v1.916h2.24v8.75h1.916z" style="font-feature-settings:normal;font-variant-caps:normal;font-variant-ligatures:normal;font-variant-numeric:normal"/><g stroke-linejoin="round" stroke-width=".13333" aria-label="
DES
TRAINS
DU
CHANTIER"><path d="m32.056 30.711q0.24707 0 0.4834 0.11816 0.23633 0.10742 0.42969 0.29004 0.18262 0.19336 0.29004 0.42969 0.10742 0.24707 0.10742 0.4834v4.4043q0 0.24707-0.10742 0.47266-0.10742 0.24707-0.29004 0.42969-0.19336 0.19336-0.42969 0.30078-0.24707 0.10742-0.4834 0.11816h-1.3213v-7.0469zm0-1.9766h-3.3086v11h3.3086q0.60156 0 1.1924-0.2793 0.59082-0.2793 1.085-0.75195 0.47266-0.47266 0.74121-1.0742 0.2793-0.59082 0.2793-1.1924v-4.4043q0-0.60156-0.2793-1.1924-0.2793-0.59082-0.74121-1.085-0.4834-0.47266-1.085-0.74121-0.59082-0.2793-1.1924-0.2793z"/><path d="m39.146 33.213v-2.5029h4.6191v-1.9766h-6.6064v11h6.6064v-1.9766h-4.6191v-2.5674h1.9766v-1.9766zm12.375-1.2891q0-0.60156-0.25781-1.1924-0.26856-0.56934-0.70898-1.0312-0.46191-0.45117-1.042-0.70898-0.58008-0.25781-1.1816-0.25781-0.60156 0-1.1816 0.25781-0.58008 0.26855-1.0312 0.70898-0.45117 0.46191-0.71973 1.0312-0.26856 0.58008-0.25781 1.1924 0 0.60156 0.25781 1.1816 0.26855 0.58008 0.71973 1.0312 0.45117 0.45117 1.0312 0.70898 0.56934 0.26856 1.1816 0.26856 0.24707 0 0.4834 0.10742 0.23633 0.10742 0.42969 0.30078 0.18262 0.19336 0.29004 0.42969 0.10742 0.24707 0.11816 0.4834 0 0.24707-0.11816 0.47266-0.10742 0.24707-0.29004 0.42969-0.19336 0.19336-0.42969 0.30078-0.24707 0.10742-0.4834 0.11816-0.24707 0-0.47266-0.11816-0.24707-0.10742-0.42969-0.30078-0.19336-0.18262-0.31152-0.42969-0.10742-0.23633-0.10742-0.47266h-1.9766q0 0.60156 0.26856 1.1924 0.2793 0.59082 0.7627 1.0742 0.47266 0.4834 1.0635 0.75195 0.59082 0.2793 1.2031 0.2793 0.60156 0 1.1924-0.2793 0.59082-0.2793 1.085-0.75195 0.47266-0.47266 0.74121-1.0742 0.2793-0.59082 0.2793-1.1924 0-0.60156-0.2793-1.2031-0.2793-0.59082-0.74121-1.0742-0.4834-0.47266-1.085-0.75195-0.59082-0.2793-1.1924-0.26856-0.49414 0-0.84863-0.36523-0.36523-0.35449-0.36523-0.84863t0.36523-0.85938q0.35449-0.35449 0.84863-0.35449 0.49414 0 0.85938 0.35449 0.35449 0.36523 0.34375 0.85938z"/><path d="m22.431 44.461h2.3096v-1.9766h-6.5957v1.9766h2.3096v9.0234h1.9766zm10.398 1.3105q0-0.60156-0.2793-1.1924-0.2793-0.58008-0.74121-1.0742-0.4834-0.47266-1.085-0.74121-0.59082-0.2793-1.1924-0.2793h-3.3086v11h1.9873v-4.4043h1.3213q0.24707 0 0.4834 0.11816 0.23633 0.10742 0.42969 0.29004 0.18262 0.19336 0.29004 0.42969 0.10742 0.24707 0.10742 0.4834v3.083h1.9873v-3.083q0-0.56934-0.12891-0.99902-0.13965-0.42969-0.33301-0.69824-0.19336-0.2793-0.35449-0.4082-0.16113-0.11816-0.2793-0.2041l0.02148-0.02148q0.12891-0.12891 0.29004-0.30078 0.15039-0.17188 0.34375-0.4834 0.17188-0.30078 0.31152-0.6875 0.12891-0.38672 0.12891-0.82715zm-3.2979 1.332h-1.3213v-2.6426h1.3213q0.24707 0 0.4834 0.11816 0.23633 0.10742 0.42969 0.29004 0.18262 0.19336 0.29004 0.42969 0.10742 0.24707 0.10742 0.4834 0 0.24707-0.10742 0.47266-0.10742 0.24707-0.29004 0.42969-0.19336 0.19336-0.42969 0.31152-0.23633 0.10742-0.4834 0.10742zm7.8525 0.50488 0.47266 1.9121h-0.90234zm0.94531 3.8994 0.49414 1.9766h1.8691l-2.3096-11h-1.9873l-2.3096 11h1.9873l0.42969-1.9766zm3.9961 1.9766h1.9873v-11h-1.9873zm6.166-6.2949 2.6318 6.2949h1.9873v-11h-1.9873v6.2949l-2.6318-6.2949h-1.9873v11h1.9873zm12.923-1.5146q0-0.60156-0.25781-1.1924-0.26856-0.56934-0.70898-1.0312-0.46191-0.45117-1.042-0.70898-0.58008-0.25781-1.1816-0.25781-0.60156 0-1.1816 0.25781-0.58008 0.26855-1.0312 0.70898-0.45117 0.46191-0.71973 1.0312-0.26855 0.58008-0.25781 1.1924 0 0.60156 0.25781 1.1816 0.26856 0.58008 0.71973 1.0312 0.45117 0.45117 1.0312 0.70898 0.56934 0.26856 1.1816 0.26856 0.24707 0 0.4834 0.10742 0.23633 0.10742 0.42969 0.30078 0.18262 0.19336 0.29004 0.42969 0.10742 0.24707 0.11816 0.4834 0 0.24707-0.11816 0.47266-0.10742 0.24707-0.29004 0.42969-0.19336 0.19336-0.42969 0.30078-0.24707 0.10742-0.4834 0.11816-0.24707 0-0.47266-0.11816-0.24707-0.10742-0.42969-0.30078-0.19336-0.18262-0.31152-0.42969-0.10742-0.23633-0.10742-0.47266h-1.9766q0 0.60156 0.26856 1.1924 0.2793 0.59082 0.7627 1.0742 0.47266 0.4834 1.0635 0.75195 0.59082 0.2793 1.2031 0.2793 0.60156 0 1.1924-0.2793 0.59082-0.2793 1.085-0.75195 0.47266-0.47266 0.74121-1.0742 0.2793-0.59082 0.2793-1.1924 0-0.60156-0.2793-1.2031-0.2793-0.59082-0.74121-1.0742-0.4834-0.47266-1.085-0.75195-0.59082-0.2793-1.1924-0.26856-0.49414 0-0.84863-0.36523-0.36524-0.35449-0.36524-0.84863t0.36524-0.85938q0.35449-0.35449 0.84863-0.35449 0.49414 0 0.85938 0.35449 0.35449 0.36523 0.34375 0.85938z"/><path d="m35.795 58.211q0.24707 0 0.4834 0.11816 0.23633 0.10742 0.42969 0.29004 0.18262 0.19336 0.29004 0.42969 0.10742 0.24707 0.10742 0.4834v4.4043q0 0.24707-0.10742 0.47266-0.10742 0.24707-0.29004 0.42969-0.19336 0.19336-0.42969 0.30078-0.24707 0.10742-0.4834 0.11816h-1.3213v-7.0469zm0-1.9766h-3.3086v11h3.3086q0.60156 0 1.1924-0.2793 0.59082-0.2793 1.085-0.75195 0.47266-0.47266 0.74121-1.0742 0.2793-0.59082 0.2793-1.1924v-4.4043q0-0.60156-0.2793-1.1924t-0.74121-1.085q-0.4834-0.47266-1.085-0.74121-0.59082-0.2793-1.1924-0.2793zm11.709 0h-1.9873v7.7021q0 0.24707-0.10742 0.47266-0.10742 0.24707-0.29004 0.42969-0.19336 0.19336-0.42969 0.30078-0.24707 0.10742-0.4834 0.11816-0.24707 0-0.47266-0.11816-0.24707-0.10742-0.42969-0.30078-0.19336-0.18262-0.31152-0.42969-0.10742-0.23633-0.10742-0.47266v-7.7021h-1.9873v7.7021q0 0.60156 0.2793 1.1924 0.2793 0.59082 0.7627 1.0742 0.47266 0.4834 1.0635 0.75195 0.59082 0.2793 1.2031 0.2793 0.60156 0 1.1924-0.2793 0.59082-0.2793 1.085-0.75195 0.47266-0.47266 0.74121-1.0742 0.2793-0.59082 0.2793-1.1924z"/><path d="m16.55 77.686h-1.9766q0 0.24707-0.11816 0.47266-0.10742 0.24707-0.29004 0.42969-0.19336 0.19336-0.42969 0.30078-0.24707 0.10742-0.4834 0.11816-0.24707 0-0.47266-0.11816-0.24707-0.10742-0.42969-0.30078-0.19336-0.18262-0.31152-0.42969-0.10742-0.23633-0.10742-0.47266v-4.4043q0-0.24707 0.10742-0.4834 0.10742-0.23633 0.31152-0.42969 0.18262-0.18262 0.42969-0.29004 0.23633-0.10742 0.47266-0.11816 0.24707 0 0.4834 0.11816 0.23633 0.10742 0.42969 0.29004 0.18262 0.19336 0.29004 0.42969 0.10742 0.24707 0.11816 0.4834h1.9766q0-0.60156-0.2793-1.1924t-0.74121-1.085q-0.4834-0.47266-1.085-0.74121-0.59082-0.2793-1.1924-0.2793-0.60156 0-1.2031 0.2793-0.59082 0.2793-1.0635 0.74121-0.4834 0.4834-0.7627 1.085-0.2793 0.59082-0.26856 1.1924v4.4043q0 0.60156 0.26856 1.1924 0.2793 0.59082 0.7627 1.0742 0.47266 0.4834 1.0635 0.75195 0.59082 0.2793 1.2031 0.2793 0.60156 0 1.1924-0.2793 0.59082-0.2793 1.085-0.75195 0.47266-0.47266 0.74121-1.0742 0.2793-0.59082 0.2793-1.1924zm8.4111-7.7021h-1.9873v4.4795h-2.6318v-4.4795h-1.9873v11h1.9873v-4.5439h2.6318v4.5439h1.9873zm4.9414 5.124 0.47266 1.9121h-0.90234zm0.94531 3.8994 0.49414 1.9766h1.8691l-2.3096-11h-1.9873l-2.3096 11h1.9873l0.42969-1.9766zm5.9834-4.3184 2.6318 6.2949h1.9873v-11h-1.9873v6.2949l-2.6318-6.2949h-1.9873v11h1.9873zm10.388-2.7285h2.3096v-1.9766h-6.5957v1.9766h2.3096v9.0234h1.9766zm3.792 9.0234h1.9873v-11h-1.9873zm6.166-6.5205v-2.5029h4.6191v-1.9766h-6.6064v11h6.6064v-1.9766h-4.6191v-2.5674h1.9766v-1.9766zm12.869-1.1924q0-0.60156-0.2793-1.1924-0.2793-0.58008-0.74121-1.0742-0.4834-0.47266-1.085-0.74121-0.59082-0.2793-1.1924-0.2793h-3.3086v11h1.9873v-4.4043h1.3213q0.24707 0 0.4834 0.11816 0.23633 0.10742 0.42969 0.29004 0.18262 0.19336 0.29004 0.42969 0.10742 0.24707 0.10742 0.4834v3.083h1.9873v-3.083q0-0.56934-0.12891-0.99902-0.13965-0.42969-0.33301-0.69824-0.19336-0.2793-0.35449-0.4082-0.16113-0.11816-0.2793-0.2041l0.02148-0.02148q0.12891-0.12891 0.29004-0.30078 0.15039-0.17188 0.34375-0.4834 0.17188-0.30078 0.31152-0.6875 0.12891-0.38672 0.12891-0.82715zm-3.2979 1.332h-1.3213v-2.6426h1.3213q0.24707 0 0.4834 0.11816 0.23633 0.10742 0.42969 0.29004 0.18262 0.19336 0.29004 0.42969 0.10742 0.24707 0.10742 0.4834 0 0.24707-0.10742 0.47266-0.10742 0.24707-0.29004 0.42969-0.19336 0.19336-0.42969 0.31152-0.23633 0.10742-0.4834 0.10742z"/></g></g></g></svg>
