<svg version="1.1" viewBox="0 0 512 176" xmlns="http://www.w3.org/2000/svg"><path d="m1.8028 1.8028h508.39v172.39h-508.39z" fill="#fff" stroke="#000" stroke-width="3.6055"/><path d="m99.187 66.676q0-5.834-2.4141-11.366-2.5146-5.4316-6.7393-9.7568-4.3252-4.2246-9.6562-6.6387-5.3311-2.4141-10.964-2.4141h-30.98v103h30.98q5.6328 0 11.165-2.6152 5.4316-2.6152 10.059-7.041 4.4258-4.4258 6.9404-10.059 2.6152-5.4316 2.6152-11.064 0-3.5205-0.90527-6.9404-0.90527-3.3193-2.4141-6.0352-1.5088-2.8164-3.2188-4.8281-1.6094-2.0117-3.3193-3.2188 1.3076-1.4082 2.8164-3.6211 1.4082-2.0117 2.917-4.8281 1.3076-2.7158 2.2129-5.9346 0.90527-3.2188 0.90527-6.6387zm-29.773 29.572q2.3135 0 4.5264 1.0059 2.2129 1.1064 4.0234 2.917 1.71 1.8106 2.7158 4.0234 1.0059 2.3135 1.0059 4.4258 0 2.3135-1.0059 4.4258-1.0059 2.3135-2.7158 4.0234-1.8105 1.8105-4.0234 2.8164-2.3135 1.0059-4.5264 1.1064h-12.372v-24.744zm0-18.508h-12.372v-22.732h12.372q4.627 0 7.9463 3.3193 3.3193 3.4199 3.3193 8.0469 0 4.627-3.3193 7.9463-3.3193 3.4199-7.9463 3.4199zm46.27 61.76h18.608v-103h-18.608zm85.498 0 17.401-44.258 0.10059 44.258h18.608v-103h-18.608l-22.632 69.002-22.632-69.002h-18.608v103h18.608v-44.258l17.502 44.258zm114.87-30.88v-41.24q0-5.6328-2.6152-11.165-2.6152-5.5322-6.9404-10.159-4.5264-4.4258-10.159-6.9404-5.5322-2.6152-11.165-2.6152-5.6328 0-11.266 2.6152-5.5322 2.6152-9.958 6.9404-4.5264 4.5264-7.1416 10.159-2.6152 5.5322-2.5146 11.165v41.24q0 5.6328 2.5146 11.165 2.6152 5.5322 7.1416 10.059 4.4258 4.5264 9.958 7.041 5.5322 2.6152 11.266 2.6152 5.6328 0 11.165-2.6152 5.5322-2.6152 10.159-7.041 4.4258-4.4258 6.9404-10.059 2.6152-5.5322 2.6152-11.165zm-18.508 0q0 2.3135-1.1064 4.4258-1.0059 2.3135-2.7158 4.0234-1.8106 1.8105-4.0234 2.8164-2.3135 1.0059-4.5264 1.1064-2.3135 0-4.4258-1.1064-2.3135-1.0059-4.0234-2.8164-1.8106-1.71-2.917-4.0234-1.0059-2.2129-1.0059-4.4258v-41.24q0-2.3135 1.0059-4.5264 1.0059-2.2129 2.917-4.0234 1.71-1.71 4.0234-2.7158 2.2129-1.0059 4.4258-1.1064 2.3135 0 4.5264 1.1064 2.2129 1.0059 4.0234 2.7158 1.71 1.8105 2.7158 4.0234 1.0059 2.3135 1.1064 4.5264zm66.387-53.612q2.3135 0 4.5264 1.1064 2.2129 1.0059 4.0234 2.7158 1.71 1.8105 2.7158 4.0234 1.0059 2.3135 1.0059 4.5264v41.24q0 2.3135-1.0059 4.4258-1.0059 2.3135-2.7158 4.0234-1.8106 1.8105-4.0234 2.8164-2.3135 1.0059-4.5264 1.1064h-12.372v-65.984zm0-18.508h-30.98v103h30.98q5.6328 0 11.165-2.6152 5.5322-2.6152 10.159-7.041 4.4258-4.4258 6.9404-10.059 2.6152-5.5322 2.6152-11.165v-41.24q0-5.6328-2.6152-11.165-2.6152-5.5322-6.9404-10.159-4.5264-4.4258-10.159-6.9404-5.5322-2.6152-11.165-2.6152zm66.387 41.944v-23.437h43.252v-18.508h-61.86v103h61.86v-18.508h-43.252v-24.04h18.508v-18.508z" stroke-width="5.54" aria-label="BIMODE"/></svg>
