<svg version="1.1" viewBox="0 0 512 300" xmlns="http://www.w3.org/2000/svg"><path d="m1.7654 1.7654h508.47v296.47h-508.47z" fill="#fff" stroke="#000" stroke-width="3.5307"/><path d="m105.97 56.998q0-5.5816-2.3096-10.875-2.4059-5.1967-6.4477-9.3348-4.1381-4.0419-9.2385-6.3515-5.1004-2.3096-10.49-2.3096h-29.64v98.544h29.64q5.3891 0 10.682-2.5021 5.1967-2.5021 9.6235-6.7364 4.2343-4.2343 6.6402-9.6235 2.5021-5.1967 2.5021-10.586 0-3.3682-0.86612-6.6402-0.86611-3.1757-2.3096-5.7741-1.4435-2.6946-3.0795-4.6193-1.5398-1.9247-3.1757-3.0795 1.2511-1.3473 2.6946-3.4645 1.3473-1.9247 2.7908-4.6193 1.251-2.5983 2.1172-5.6779 0.86611-3.0795 0.86611-6.3515zm-28.485 28.293q2.2134 0 4.3306 0.96235 2.1172 1.0586 3.8494 2.7908 1.636 1.7322 2.5983 3.8494 0.96235 2.2134 0.96235 4.2343 0 2.2134-0.96235 4.2343-0.96235 2.2134-2.5983 3.8494-1.7322 1.7322-3.8494 2.6946-2.2134 0.96235-4.3306 1.0586h-11.837v-23.674zm0-17.707h-11.837v-21.749h11.837q4.4268 0 7.6025 3.1757 3.1757 3.272 3.1757 7.6988 0 4.4268-3.1757 7.6025-3.1757 3.272-7.6025 3.272zm44.268 59.088h17.803v-98.544h-17.803zm81.8 0 16.649-42.343 0.0962 42.343h17.803v-98.544h-17.803l-21.653 66.017-21.653-66.017h-17.803v98.544h17.803v-42.343l16.745 42.343zm109.9-29.544v-39.456q0-5.3891-2.5021-10.682-2.5021-5.2929-6.6402-9.7197-4.3306-4.2343-9.7197-6.6402-5.2929-2.5021-10.682-2.5021-5.3892 0-10.778 2.5021-5.2929 2.5021-9.5272 6.6402-4.3306 4.3306-6.8327 9.7197-2.5021 5.2929-2.4059 10.682v39.456q0 5.3891 2.4059 10.682 2.5021 5.2929 6.8327 9.6235 4.2343 4.3306 9.5272 6.7364 5.2929 2.5021 10.778 2.5021 5.3891 0 10.682-2.5021 5.2929-2.5021 9.7197-6.7364 4.2343-4.2343 6.6402-9.6235 2.5021-5.2929 2.5021-10.682zm-17.707 0q0 2.2134-1.0586 4.2343-0.96235 2.2134-2.5983 3.8494-1.7322 1.7322-3.8494 2.6946-2.2134 0.96235-4.3306 1.0586-2.2134 0-4.2343-1.0586-2.2134-0.96234-3.8494-2.6946-1.7322-1.636-2.7908-3.8494-0.96235-2.1172-0.96235-4.2343v-39.456q0-2.2134 0.96235-4.3306t2.7908-3.8494q1.636-1.636 3.8494-2.5983 2.1172-0.96235 4.2343-1.0586 2.2134 0 4.3306 1.0586 2.1172 0.96235 3.8494 2.5983 1.636 1.7322 2.5983 3.8494 0.96235 2.2134 1.0586 4.3306zm63.515-51.293q2.2134 0 4.3306 1.0586 2.1172 0.96235 3.8494 2.5983 1.636 1.7322 2.5983 3.8494 0.96235 2.2134 0.96235 4.3306v39.456q0 2.2134-0.96235 4.2343-0.96235 2.2134-2.5983 3.8494-1.7322 1.7322-3.8494 2.6946-2.2134 0.96235-4.3306 1.0586h-11.837v-63.13zm0-17.707h-29.64v98.544h29.64q5.3891 0 10.682-2.5021 5.2929-2.5021 9.7197-6.7364 4.2343-4.2343 6.6402-9.6235 2.5021-5.2929 2.5021-10.682v-39.456q0-5.3891-2.5021-10.682-2.5021-5.2929-6.6402-9.7197-4.3306-4.2343-9.7197-6.6402-5.2929-2.5021-10.682-2.5021zm63.515 40.13v-22.423h41.381v-17.707h-59.184v98.544h59.184v-17.707h-41.381v-23h17.707v-17.707z" aria-label="BIMODE"/><path d="m193.04 175.54-6.7292-29.99h-10.204l11.859 56.142h10.204l11.859-56.142h-9.5974zm35.577-7.1273v-12.774h23.718v-10.088h-33.922v56.142h33.922v-10.088h-23.718v-13.103h10.149v-10.088zm66.079-6.0857q0-3.0702-1.4341-6.0856-1.4341-2.9606-3.8059-5.4826-2.4821-2.4123-5.5709-3.783-3.0336-1.4255-6.1225-1.4255h-16.988v56.142h10.204v-22.479h6.7844q1.2686 0 2.4821 0.60309 1.2135 0.54825 2.2063 1.4803 0.93768 0.98687 1.4892 2.193 0.55157 1.261 0.55157 2.4672v15.735h10.204v-15.735q0-2.9058-0.66189-5.0988-0.71705-2.193-1.7099-3.5637-0.99283-1.4255-1.8202-2.0834-0.82736-0.60309-1.4341-1.0417l0.11031-0.10965q0.6619-0.65792 1.4893-1.5351 0.7722-0.87721 1.765-2.4672 0.88252-1.5351 1.5996-3.5088 0.66189-1.9737 0.66189-4.2216zm-16.933 6.7984h-6.7844v-13.487h6.7844q1.2686 0 2.4821 0.60308 1.2135 0.54826 2.2063 1.4803 0.93768 0.98686 1.4892 2.193 0.55157 1.261 0.55157 2.4672 0 1.261-0.55157 2.4123-0.55157 1.261-1.4892 2.193-0.99284 0.98687-2.2063 1.59-1.2135 0.54825-2.4821 0.54825zm57.584-7.2918q0-3.0702-1.3238-6.0856-1.3789-2.9058-3.6404-5.2633-2.3718-2.3027-5.3503-3.6185-2.9785-1.3158-6.0673-1.3158-3.0888 0-6.0673 1.3158-2.9785 1.3706-5.2951 3.6185-2.3166 2.3575-3.6955 5.2633-1.379 2.9606-1.3238 6.0856 0 3.0702 1.3238 6.0308 1.3789 2.9606 3.6955 5.2633t5.2951 3.6185q2.9233 1.3706 6.0673 1.3706 1.2686 0 2.4821 0.54825 1.2135 0.54826 2.2063 1.5351 0.93768 0.98686 1.4892 2.193 0.55158 1.261 0.60673 2.4672 0 1.261-0.60673 2.4123-0.55157 1.261-1.4892 2.193-0.99283 0.98685-2.2063 1.5351-1.2686 0.54826-2.4821 0.60309-1.2686 0-2.4269-0.60309-1.2686-0.54826-2.2063-1.5351-0.99283-0.93204-1.5996-2.193-0.55158-1.2062-0.55158-2.4123h-10.149q0 3.0702 1.3789 6.0856 1.4341 3.0154 3.9162 5.4826 2.4269 2.4672 5.4606 3.8378 3.0337 1.4255 6.1776 1.4255 3.0888 0 6.1225-1.4255 3.0337-1.4255 5.5709-3.8378 2.4269-2.4123 3.8059-5.4826 1.4341-3.0154 1.4341-6.0856 0-3.0702-1.4341-6.1405-1.4341-3.0154-3.8059-5.4826-2.4821-2.4123-5.5709-3.8378-3.0337-1.4255-6.1225-1.3706-2.5372 0-4.3574-1.8641-1.8753-1.8092-1.8753-4.3312t1.8753-4.3861q1.8202-1.8092 4.3574-1.8092t4.4126 1.8092q1.8202 1.8641 1.765 4.3861z"/><path d="m212.29 261.78h-23.718v-46.054h-10.204v56.142h33.922zm21.677-29.99-6.7292-16.064h-10.204l11.859 28.071v28.071h10.204v-28.071l11.859-28.071h-10.204zm57.309 23.246v-22.479q0-3.0702-1.4341-6.0856t-3.8059-5.5374q-2.4821-2.4123-5.5709-3.783-3.0336-1.4255-6.1225-1.4255t-6.1776 1.4255q-3.0337 1.4255-5.4606 3.783-2.4821 2.4672-3.9162 5.5374-1.4341 3.0154-1.3789 6.0856v22.479q0 3.0702 1.3789 6.0856 1.4341 3.0154 3.9162 5.4826 2.4269 2.4672 5.4606 3.8378 3.0337 1.4255 6.1776 1.4255 3.0888 0 6.1225-1.4255 3.0337-1.4255 5.5709-3.8378 2.4269-2.4123 3.8059-5.4826 1.4341-3.0154 1.4341-6.0856zm-10.149 0q0 1.261-0.60674 2.4123-0.55157 1.261-1.4892 2.193-0.99284 0.98686-2.2063 1.5351-1.2686 0.54825-2.4821 0.60308-1.2686 0-2.4269-0.60308-1.2686-0.54826-2.2063-1.5351-0.99284-0.93204-1.5996-2.193-0.55158-1.2062-0.55158-2.4123v-22.479q0-1.261 0.55158-2.4672 0.55157-1.2062 1.5996-2.193 0.93767-0.93204 2.2063-1.4803 1.2135-0.54825 2.4269-0.60307 1.2686 0 2.4821 0.60307 1.2135 0.54826 2.2063 1.4803 0.93767 0.98686 1.4892 2.193 0.55158 1.261 0.60674 2.4672zm29.62-15.296 13.514 32.128h10.204v-56.142h-10.204v32.128l-13.514-32.128h-10.204v56.142h10.204z"/></svg>
