<?xml version="1.0" encoding="UTF-8"?>
<svg version="1.1" viewBox="0 0 64 64" xmlns="http://www.w3.org/2000/svg"><g transform="translate(1.7321 -1.5271)"><path transform="matrix(.50354 -.48626 .48626 .50354 -19.127 -54.751)" d="m-68.842 107.73h64v64h-64z" fill="#fff"/><g fill="#00a6ff"><path d="m30.828 1.8569 1.5554 1.612-16.12 15.554-1.5554-1.612zm13.432 46.181 1.5554 1.612-16.12 15.554-1.5554-1.612z"/><path transform="matrix(.50354 -.48626 .48626 .50354 -19.127 -54.751)" d="m-68.842 139.73h3.2v32h-3.2zm60.8-32h3.2v32h-3.2z"/><path transform="matrix(.50354 -.48626 .48626 .50354 -19.127 -54.751)" d="m-36.842 139.73h28.8v28.8h-28.8zm-28.8-28.8h28.8v28.8h-28.8z"/></g></g></svg>
