<?xml version="1.0" encoding="UTF-8"?>
<svg version="1.1" viewBox="0 0 512 512" xmlns="http://www.w3.org/2000/svg"><path d="m0 0h512v512h-512z"/><path d="m23.744 23.744h464.52v464.52h-464.52z" fill="none" stroke="#fff" stroke-width="31.481"/><g transform="matrix(8 0 0 8 -.004 5.644)" fill="#fff" style="font-feature-settings:normal;font-variant-caps:normal;font-variant-ligatures:normal;font-variant-numeric:normal"><path d="m24.58 18.723v-3.604h1.802q0.337 0 0.66 0.161 0.322 0.147 0.585 0.396 0.25 0.264 0.396 0.586 0.146 0.337 0.146 0.66 0 0.336-0.146 0.644-0.147 0.337-0.396 0.586-0.263 0.263-0.585 0.424-0.337 0.147-0.66 0.147zm0 2.695h1.802q0.82 0 1.626-0.366 0.806-0.38 1.48-1.04 0.644-0.645 1.01-1.45 0.381-0.806 0.381-1.64 0-0.821-0.38-1.627-0.381-0.806-1.011-1.48-0.66-0.644-1.48-1.01-0.805-0.381-1.626-0.381h-4.511v15h2.71zm11.25-2.578 3.59 8.584h2.71v-15h-2.71v8.584l-3.59-8.584h-2.71v15h2.71z" fill="#fff" stroke-width="1.875" aria-label="PN"/></g><g transform="matrix(8 0 0 8 .004 5.644)" fill="#fff" style="font-feature-settings:normal;font-variant-caps:normal;font-variant-ligatures:normal;font-variant-numeric:normal"><path d="m24.91 50.165h2.71v-15h-2.71zm9.683 0q0.82 0 1.626-0.381t1.48-1.026q0.644-0.644 1.01-1.465 0.38-0.805 0.38-1.626v-6.005q0-0.82-0.38-1.626t-1.01-1.48q-0.66-0.644-1.48-1.01-0.806-0.381-1.626-0.381t-1.64 0.38q-0.807 0.381-1.451 1.011-0.66 0.66-1.04 1.48-0.38 0.805-0.366 1.626v6.005q0 0.82 0.366 1.626 0.38 0.806 1.04 1.465 0.644 0.66 1.45 1.026 0.82 0.38 1.64 0.38zm0-2.696q-0.337 0-0.645-0.16-0.337-0.147-0.586-0.411-0.263-0.25-0.425-0.586-0.146-0.322-0.146-0.645v-6.005q0-0.337 0.147-0.66 0.146-0.322 0.424-0.585 0.25-0.25 0.586-0.396 0.323-0.146 0.645-0.161 0.337 0 0.659 0.161 0.322 0.146 0.586 0.396 0.249 0.263 0.395 0.585 0.147 0.337 0.162 0.66v6.005q0 0.337-0.162 0.645-0.146 0.337-0.395 0.586-0.264 0.264-0.586 0.41-0.322 0.161-0.66 0.161z" fill="#fff" stroke-width="1.875" aria-label="10"/></g></svg>
