<?xml version="1.0" encoding="UTF-8"?>
<svg version="1.1" viewBox="0 0 64 64" xmlns="http://www.w3.org/2000/svg"><path transform="translate(42.268 5.158)" d="m-42.268-5.158h64v64h-64z" fill="#fff"/><path transform="translate(42.268 5.158)" d="m-39.281-2.171h58.026v58.026h-58.026z" fill="none" stroke="#000" stroke-width="3.9739"/><path d="m24.289 26.203q0-1.5859-0.65625-3.0898-0.68359-1.4766-1.832-2.6523-1.1758-1.1484-2.625-1.8047t-2.9805-0.65625h-8.4219v28h8.4219q1.5312 0 3.0352-0.71094 1.4766-0.71094 2.7344-1.9141 1.2031-1.2031 1.8867-2.7344 0.71094-1.4766 0.71094-3.0078 0-0.95703-0.24609-1.8867-0.24609-0.90234-0.65625-1.6406-0.41016-0.76562-0.875-1.3125-0.4375-0.54688-0.90234-0.875 0.35547-0.38281 0.76562-0.98438 0.38281-0.54688 0.79297-1.3125 0.35547-0.73828 0.60156-1.6133 0.24609-0.875 0.24609-1.8047zm-8.0938 8.0391q0.62891 0 1.2305 0.27344 0.60156 0.30078 1.0938 0.79297 0.46484 0.49219 0.73828 1.0938 0.27344 0.62891 0.27344 1.2031 0 0.62891-0.27344 1.2031-0.27344 0.62891-0.73828 1.0938-0.49219 0.49219-1.0938 0.76562-0.62891 0.27344-1.2305 0.30078h-3.3633v-6.7266zm0-5.0312h-3.3633v-6.1797h3.3633q1.2578 0 2.1602 0.90234 0.90234 0.92969 0.90234 2.1875 0 1.2578-0.90234 2.1602-0.90234 0.92969-2.1602 0.92969zm12.578 16.789h5.0586v-28h-5.0586zm15.695 0v-11.566h5.0312v-5.0312h-5.0312v-6.3711h11.758v-5.0312h-16.816v28z" stroke-linejoin="round" stroke-width="1.5118" aria-label="BIF"/></svg>
