<?xml version="1.0" encoding="UTF-8"?>
<svg version="1.1" viewBox="0 0 320 290" xmlns="http://www.w3.org/2000/svg"><rect width="320" height="265"/><g fill="#92949b"><rect width="320" height="12"/><rect x="315" y="12" width="5" height="253"/><rect y="12" width="5" height="253"/></g><g><rect x="170.5" y="47" width="125" height="185" fill="#464b64"/><path d="m25.5 139.5v-92.5h125v185h-125z" fill="#464b64"/><path d="m45.826 58 72.205 72.406-0.0488 0.0488 28.408 28.408v69.445h-23v-60l-93.781-94.045z" fill="#ffb380"/></g><g><rect x="5" y="265" width="310" height="25" fill="#92949b"/><g><circle cx="15" cy="270.5" r="2.5"/><circle cx="15" cy="284.5" r="2.5"/><circle cx="305" cy="270.5" r="2.5"/><circle cx="305" cy="284.5" r="2.5"/></g></g><g fill="#666"><circle cx="303" cy="214.5" r="2.5"/><circle cx="303" cy="139.5" r="2.5"/><circle cx="303" cy="64.5" r="2.5"/><circle cx="18" cy="214.5" r="2.5"/><circle cx="43" cy="239.5" r="2.5"/><circle cx="133" cy="239.5" r="2.5"/><circle cx="188" cy="239.5" r="2.5"/><circle cx="278" cy="239.5" r="2.5"/><circle cx="160.5" cy="214.5" r="2.5"/><circle cx="160.5" cy="139.5" r="2.5"/><circle cx="160.5" cy="64.5" r="2.5"/><circle cx="43" cy="39.5" r="2.5"/><circle cx="133" cy="39.5" r="2.5"/><circle cx="188" cy="39.5" r="2.5"/><circle cx="278" cy="39.5" r="2.5"/><circle cx="18" cy="139.5" r="2.5"/><circle cx="18" cy="64.5" r="2.5"/></g></svg>
