<?xml version="1.0" encoding="UTF-8" standalone="no"?>
<svg
   width="128px"
   height="128px"
   viewBox="0 0 128 128"
   version="1.1"
   id="svg20"
   sodipodi:docname="A.svg"
   inkscape:version="1.2 (dc2aedaf03, 2022-05-15)"
   xmlns:inkscape="http://www.inkscape.org/namespaces/inkscape"
   xmlns:sodipodi="http://sodipodi.sourceforge.net/DTD/sodipodi-0.dtd"
   xmlns="http://www.w3.org/2000/svg"
   xmlns:svg="http://www.w3.org/2000/svg">
  <defs
     id="defs24" />
  <sodipodi:namedview
     id="namedview22"
     pagecolor="#ffffff"
     bordercolor="#666666"
     borderopacity="1.0"
     inkscape:showpageshadow="2"
     inkscape:pageopacity="0.0"
     inkscape:pagecheckerboard="0"
     inkscape:deskcolor="#d1d1d1"
     showgrid="false"
     inkscape:zoom="6.609375"
     inkscape:cx="64"
     inkscape:cy="64"
     inkscape:window-width="1920"
     inkscape:window-height="1020"
     inkscape:window-x="0"
     inkscape:window-y="32"
     inkscape:window-maximized="1"
     inkscape:current-layer="svg20" />
  <rect
     y="0"
     x="0"
     height="128"
     width="128"
     id="rect842"
     style="fill:#ffffff;fill-opacity:0;stroke:none" />
  <path
     style="fill:none;stroke:#000000;stroke-width:7.77056;stroke-linecap:round;stroke-linejoin:round;stroke-miterlimit:4;stroke-opacity:1"
     d="m 94.113296,94.000008 c 0,16.632792 -13.480494,30.113282 -30.113282,30.113282 -16.632863,0 -30.113281,-13.48049 -30.113281,-30.113282 0,-16.632863 13.480418,-30.113281 30.113281,-30.113281 16.632788,0 30.113282,13.480418 30.113282,30.113281 z m 0,0"
     id="path3" />
  <path
     style="fill:#000000;fill-opacity:1;fill-rule:nonzero;stroke:#ffffff;stroke-width:3.87772;stroke-linecap:round;stroke-linejoin:round;stroke-miterlimit:4;stroke-opacity:1"
     d="m 94.0625,94.000008 c 0,16.601572 -13.460992,30.062482 -30.062486,30.062482 -16.601569,0 -30.06256,-13.46091 -30.06256,-30.062482 0,-16.601569 13.460991,-30.062561 30.06256,-30.062561 16.601494,0 30.062486,13.460992 30.062486,30.062561 z m 0,0"
     id="path5" />
  <path
     style="fill:#333333;fill-opacity:1;fill-rule:nonzero;stroke:none"
     d="m 64,97.992188 c -2.757812,0 -4.996094,-2.238282 -4.996094,-4.996094 C 59.003906,90.234375 61.242188,88 64,88 c 2.757812,0 4.996094,2.234375 4.996094,4.996094 0,2.757812 -2.238282,4.996094 -4.996094,4.996094 z m 0,0"
     id="path11" />
  <path
     style="fill:#ffff00;fill-opacity:1;fill-rule:nonzero;stroke:none"
     d="m 64,117.99219 c -2.757812,0 -4.996094,-2.23828 -4.996094,-4.9961 C 59.003906,110.23438 61.242188,108 64,108 c 2.757812,0 4.996094,2.23438 4.996094,4.99609 0,2.75782 -2.238282,4.9961 -4.996094,4.9961 z m 0,0"
     id="path13" />
</svg>
