<svg xmlns="http://www.w3.org/2000/svg" width="64" height="64"><path d="M-42.268-5.158h64v64h-64z" style="fill:#fff;fill-opacity:1;fill-rule:nonzero;stroke:none;stroke-width:.636824" transform="translate(42.268 5.158)"/><path d="M-39.281-2.171h58.026v58.026h-58.026z" style="fill:none;stroke:#000;stroke-width:3.97394;stroke-miterlimit:4;stroke-dasharray:none;stroke-opacity:1" transform="translate(42.268 5.158)"/><g style="font-style:normal;font-variant:normal;font-weight:400;font-stretch:normal;font-size:12px;line-height:1.25;font-family:Roboto;font-variant-ligatures:normal;font-variant-caps:normal;font-variant-numeric:normal;font-feature-settings:normal;text-align:start;letter-spacing:0;word-spacing:0;writing-mode:lr-tb;text-anchor:start;fill:#000;fill-opacity:1;stroke:none;stroke-width:1.5"><path d="M126.361 28.244h1.441q0 .27-.128.516-.118.27-.317.469-.21.21-.469.328-.27.117-.527.129-.27 0-.516-.13-.27-.116-.468-.327-.211-.2-.34-.47-.117-.257-.117-.515V23.44q0-.27.117-.528t.34-.469q.199-.199.468-.316.258-.117.516-.129.27 0 .527.129.258.117.47.316.198.211.316.47.117.269.128.527h2.157q0-.657-.305-1.301-.305-.645-.809-1.184-.527-.515-1.183-.808-.645-.305-1.301-.305t-1.312.305q-.645.304-1.16.808-.528.528-.833 1.184-.304.644-.293 1.3v4.805q0 .656.293 1.301.305.645.832 1.172.516.527 1.16.82.645.305 1.313.305.656 0 1.3-.305.645-.304 1.184-.82.516-.516.809-1.172.305-.645.305-1.3v-2.169h-3.598zm8.566-2.812.516 2.086h-.984zm1.032 4.254.539 2.156h2.039l-2.52-12h-2.168l-2.52 12h2.169l.469-2.156zm11.566-6.258q0-.656-.305-1.301-.304-.633-.808-1.172-.528-.515-1.184-.808-.644-.305-1.3-.305h-3.61v12h2.168v-4.805h1.441q.27 0 .528.13.258.116.469.316.199.21.316.468.117.27.117.528v3.363h2.168v-3.363q0-.621-.14-1.09-.153-.469-.364-.762-.21-.305-.387-.445-.175-.13-.304-.223l.023-.023q.14-.141.317-.328.164-.188.375-.528.187-.328.34-.75.14-.422.14-.902m-3.598 1.453h-1.441v-2.883h1.441q.27 0 .528.129.258.117.469.316.199.211.316.47.117.269.117.527 0 .27-.117.515-.117.27-.316.469-.211.21-.47.34-.257.117-.527.117m7.735-.152v-2.73h5.039v-2.157h-7.207v12h7.207v-2.156h-5.04v-2.801h2.157v-2.156z" aria-label="GARE" style="font-style:normal;font-variant:normal;font-weight:400;font-stretch:normal;font-family:PoliceSNCF;text-align:center;text-anchor:middle;stroke-width:1.5" transform="translate(-107.732 -4.842)"/></g><g aria-label="À 500m" style="font-style:normal;font-variant:normal;font-weight:400;font-stretch:normal;font-size:12px;line-height:1.25;font-family:Roboto;font-variant-ligatures:normal;font-variant-caps:normal;font-variant-numeric:normal;font-feature-settings:normal;text-align:start;letter-spacing:0;word-spacing:0;writing-mode:lr-tb;text-anchor:start;fill:#000;fill-opacity:1;stroke:none;stroke-width:1.5"><path d="m120.955 52.764.27 1.078h1.019l-1.26-6H119.9l-1.26 6h1.084l.235-1.078zm-.516-2.127.258 1.043h-.492zm-.433-4.957.568 1.084h.838l-.54-1.084z" style="font-size:6px;stroke-width:1.5" transform="translate(-107.732 -4.842)"/><path d="M131.503 45.44q-.41 0-.562.023t-.282.082v-1.547h3.844v-2.156h-6v5.379l2.156.703q.012-.106.188-.211t.656-.105q.27 0 .528.117.257.117.468.316.2.211.317.469.117.27.129.527v1.207q0 .27-.13.516-.117.27-.316.469-.21.21-.468.328-.27.117-.528.129-.27 0-.515-.13-.27-.116-.47-.327-.21-.2-.339-.47-.117-.257-.117-.515h-2.156q0 .656.292 1.301.305.645.833 1.172.515.527 1.16.82.644.305 1.312.305.656 0 1.301-.305.644-.304 1.184-.82.515-.516.808-1.172.305-.645.305-1.3v-1.208q0-.656-.305-1.3-.305-.645-.808-1.184-.528-.516-1.184-.809-.645-.304-1.3-.304zm8.754 8.402q.656 0 1.3-.305.645-.304 1.184-.82.516-.516.81-1.172.304-.645.304-1.3V45.44q0-.657-.305-1.301-.305-.645-.809-1.184-.527-.515-1.183-.808-.645-.305-1.3-.305-.657 0-1.313.305-.645.304-1.16.808-.528.528-.833 1.184-.304.644-.293 1.3v4.805q0 .656.293 1.301.305.645.832 1.172.516.527 1.16.82.657.305 1.313.305m0-2.156q-.27 0-.516-.13-.27-.116-.468-.327-.211-.2-.34-.47-.117-.257-.117-.515V45.44q0-.27.117-.528t.34-.469q.199-.199.468-.316.258-.117.516-.129.27 0 .527.129.258.117.47.316.198.211.316.47.117.269.129.527v4.804q0 .27-.13.516-.117.27-.316.469-.21.21-.469.328-.257.129-.527.129m8.754 2.156q.656 0 1.3-.305.645-.304 1.184-.82.516-.516.809-1.172.305-.645.305-1.3V45.44q0-.657-.305-1.301-.305-.645-.809-1.184-.527-.515-1.183-.808-.645-.305-1.301-.305t-1.313.305q-.644.304-1.16.808-.527.528-.832 1.184-.304.644-.293 1.3v4.805q0 .656.293 1.301.305.645.832 1.172.516.527 1.16.82.657.305 1.313.305m0-2.156q-.27 0-.516-.13-.27-.116-.468-.327-.211-.2-.34-.47-.117-.257-.117-.515V45.44q0-.27.117-.528t.34-.469q.199-.199.468-.316.258-.117.516-.129.27 0 .527.129.258.117.47.316.198.211.315.47.118.269.13.527v4.804q0 .27-.13.516-.117.27-.316.469-.21.21-.469.328-.257.129-.527.129m9.832-4.442q-.469 0-.785.094-.317.105-.54.27-.187-.153-.503-.27-.328-.094-.809-.094-.27 0-.398.012-.14.023-.27.059v-.07h-1.312v6.597h1.312v-4.617q0-.258.211-.457.188-.2.457-.211.27 0 .47.199.187.2.187.469v4.617h1.324v-4.617q0-.258.199-.457.188-.2.457-.211.27 0 .469.199.187.2.187.469v4.617h1.325v-4.617q0-1.98-1.981-1.98z" style="font-style:normal;font-variant:normal;font-weight:400;font-stretch:normal;font-family:PoliceSNCF;stroke-width:1.5" transform="translate(-107.732 -4.842)"/></g></svg>