<svg xmlns="http://www.w3.org/2000/svg" width="64" height="64"><path d="M107.732 4.842h64v64h-64z" style="fill:#000;fill-opacity:1;fill-rule:nonzero;stroke:none;stroke-width:.636824" transform="translate(-107.732 -4.842)"/><path d="M110.699 7.809h58.065v58.065h-58.065z" style="fill:none;stroke:#fff;stroke-width:3.93508;stroke-miterlimit:4;stroke-dasharray:none;stroke-opacity:1" transform="translate(-107.732 -4.842)"/><g style="font-style:normal;font-variant:normal;font-weight:400;font-stretch:normal;font-size:32px;line-height:1.25;font-family:Roboto;font-variant-ligatures:normal;font-variant-caps:normal;font-variant-numeric:normal;font-feature-settings:normal;text-align:start;letter-spacing:0;word-spacing:0;writing-mode:lr-tb;text-anchor:start;fill:#fff;fill-opacity:1;stroke:none;stroke-width:4"><g aria-label="TT" style="font-style:normal;font-variant:normal;font-weight:400;font-stretch:normal;font-size:24.3441px;line-height:1.25;font-family:Roboto;font-variant-ligatures:normal;font-variant-caps:normal;font-variant-numeric:normal;font-feature-settings:normal;text-align:start;letter-spacing:0;word-spacing:0;writing-mode:lr-tb;text-anchor:start;fill:#f9f9f9;fill-opacity:1;stroke:none;stroke-width:12.172"><path d="m131.958 35.63-8.225 9.01v4.374h14.597V44.64h-8.915l4.326-4.874.999-1.07q.88-.927 1.403-1.521.546-.642 1.046-1.427.523-.808.832-1.783.309-.95.309-1.997 0-1.331-.618-2.639-.619-1.307-1.64-2.4-1.07-1.047-2.402-1.641-1.307-.618-2.639-.618t-2.662.618q-1.308.618-2.354 1.64-1.07 1.07-1.688 2.401-.618 1.308-.594 2.64h4.374q0-.547.238-1.07.238-.524.69-.951.403-.405.95-.642.523-.238 1.046-.262.547 0 1.07.262.523.237.951.642.404.427.642.95.238.547.261 1.07 0 .523-.214 1.046-.214.547-.499.999-.309.475-.618.856-.357.428-.666.76zm16.452 2.044-2.9-13.004h-4.399l5.112 24.344h4.398l5.11-24.344h-4.136z" aria-label="2V" style="font-style:normal;font-variant:normal;font-weight:400;font-stretch:normal;font-family:PoliceSNCF;fill:#f9f9f9;stroke-width:12.172" transform="translate(-107.732 -4.842)"/></g></g></svg>