<svg xmlns="http://www.w3.org/2000/svg" width="64" height="64"><path d="M-42.268-5.158h64v64h-64z" style="fill:#fff;fill-opacity:1;fill-rule:nonzero;stroke:none;stroke-width:.636824" transform="translate(42.268 5.158)"/><path d="M-39.281-2.171h58.026v58.026h-58.026z" style="fill:none;stroke:#000;stroke-width:3.97394;stroke-miterlimit:4;stroke-dasharray:none;stroke-opacity:1" transform="translate(42.268 5.158)"/><g aria-label="GARE" style="font-style:normal;font-variant:normal;font-weight:400;font-stretch:normal;font-size:16px;line-height:1.25;font-family:Roboto;font-variant-ligatures:normal;font-variant-caps:normal;font-variant-numeric:normal;font-feature-settings:normal;text-align:start;letter-spacing:0;word-spacing:0;writing-mode:lr-tb;text-anchor:start;fill:#000;fill-opacity:1;stroke:none;stroke-width:2"><g aria-label="ARRÊT 100m" style="font-style:normal;font-variant:normal;font-weight:400;font-stretch:normal;font-size:17.7346px;line-height:1.25;font-family:Roboto;font-variant-ligatures:normal;font-variant-caps:normal;font-variant-numeric:normal;font-feature-settings:normal;text-align:start;letter-spacing:0;word-spacing:0;writing-mode:lr-tb;text-anchor:start;fill:#000;fill-opacity:1;stroke:none;stroke-width:4.43365"><path d="m123.864 25.103.762 3.083h-1.455zm1.524 6.287.797 3.186h3.013l-3.723-17.734h-3.204l-3.724 17.734h3.204l.693-3.186z" style="font-style:normal;font-variant:normal;font-weight:400;font-stretch:normal;font-family:PoliceSNCF;text-align:center;text-anchor:middle;stroke-width:4.43365" transform="translate(-107.732 -4.842)"/><path d="M137.533 27.097q0-.583-.27-1.156-.272-.562-.72-1.042-.468-.458-1.052-.718-.573-.271-1.156-.271h-3.208v10.666h1.927v-4.27h1.281q.24 0 .469.114.23.104.417.281.177.188.28.417.105.24.105.469v2.99h1.927v-2.99q0-.552-.125-.969-.135-.417-.323-.677-.187-.27-.344-.396l-.27-.198.02-.02q.125-.126.282-.292.145-.167.333-.469.167-.292.302-.667.125-.375.125-.802m-3.198 1.292h-1.281v-2.563h1.281q.24 0 .469.115.23.104.417.281.177.188.28.417.105.24.105.469 0 .24-.104.458-.104.24-.281.417-.188.187-.417.302-.23.104-.469.104m11.355-1.292q0-.583-.271-1.156-.271-.562-.72-1.042-.468-.458-1.051-.718-.573-.271-1.157-.271h-3.208v10.666h1.927v-4.27h1.281q.24 0 .47.114.228.104.416.281.177.188.281.417.104.24.104.469v2.99h1.927v-2.99q0-.552-.125-.969-.135-.417-.323-.677-.187-.27-.343-.396l-.271-.198.02-.02q.126-.126.282-.292.146-.167.333-.469.167-.292.302-.667.125-.375.125-.802zm-3.199 1.292h-1.28v-2.563h1.28q.24 0 .47.115.228.104.416.281.177.188.281.417.104.24.104.469 0 .24-.104.458-.104.24-.281.417-.188.187-.417.302-.229.104-.469.104m6.875-.135v-2.428h4.48V23.91h-6.407v10.666h6.407V32.66h-4.48v-2.49h1.917v-1.916zm1.01-6.907.24.646h1.49l-.958-1.927h-1.552l-.959 1.927h1.49zm8.532 4.479h2.24V23.91h-6.396v1.916h2.24v8.75h1.916z" style="font-size:10.6667px" transform="translate(-107.732 -4.842)"/><path d="M119.07 56.842h3.204V39.107h-3.204zm11.448 0q.97 0 1.923-.45.952-.45 1.749-1.213.762-.762 1.195-1.732.45-.952.45-1.922v-7.1q0-.97-.45-1.923t-1.195-1.75q-.78-.761-1.75-1.194-.952-.45-1.922-.45t-1.94.45q-.952.45-1.714 1.195-.78.779-1.23 1.749-.45.952-.433 1.922v7.101q0 .97.433 1.922.45.953 1.23 1.732.762.78 1.714 1.213.97.45 1.94.45m0-3.187q-.398 0-.762-.19-.398-.173-.693-.485-.311-.295-.502-.693-.173-.381-.173-.762v-7.1q0-.4.173-.78.173-.381.502-.693.295-.294.693-.468.381-.173.762-.19.399 0 .78.19.38.174.692.468.295.312.468.693.173.398.19.78v7.1q0 .398-.19.762-.173.398-.468.693-.311.312-.692.485-.381.19-.78.19m12.937 3.187q.97 0 1.923-.45.952-.45 1.75-1.213.761-.762 1.194-1.732.45-.952.45-1.922v-7.1q0-.97-.45-1.923t-1.195-1.75q-.78-.761-1.75-1.194-.952-.45-1.922-.45t-1.94.45q-.952.45-1.714 1.195-.78.779-1.23 1.749-.45.952-.432 1.922v7.101q0 .97.433 1.922.45.953 1.23 1.732.761.78 1.714 1.213.97.45 1.94.45zm0-3.187q-.398 0-.762-.19-.398-.173-.692-.485-.312-.295-.503-.693-.173-.381-.173-.762v-7.1q0-.4.173-.78.174-.381.503-.693.294-.294.692-.468.381-.173.762-.19.399 0 .78.19.38.174.693.468.294.312.467.693.173.398.19.78v7.1q0 .398-.19.762-.173.398-.467.693-.312.312-.693.485-.381.19-.78.19m14.531-6.564q-.693 0-1.16.139-.468.156-.797.398-.277-.225-.745-.398-.485-.139-1.195-.139-.398 0-.589.018-.207.034-.398.086v-.104h-1.94v9.75h1.94v-6.823q0-.38.312-.675.277-.295.675-.312.399 0 .693.294.277.295.277.693v6.824h1.957v-6.824q0-.38.295-.675.277-.295.675-.312.398 0 .693.294.277.295.277.693v6.824h1.957v-6.824q0-2.927-2.927-2.927" style="font-style:normal;font-variant:normal;font-weight:400;font-stretch:normal;font-family:PoliceSNCF;text-align:center;text-anchor:middle;stroke-width:4.43365" transform="translate(-107.732 -4.842)"/></g></g></svg>