<svg xmlns="http://www.w3.org/2000/svg" width="64" height="64"><path d="M107.732 4.842h64v64h-64z" style="fill:#000;fill-opacity:1;fill-rule:nonzero;stroke:none;stroke-width:.636824" transform="translate(-107.732 -4.842)"/><path d="M110.699 7.809h58.065v58.065h-58.065z" style="fill:none;stroke:#fff;stroke-width:3.93508;stroke-miterlimit:4;stroke-dasharray:none;stroke-opacity:1" transform="translate(-107.732 -4.842)"/><g aria-label="TT" style="font-style:normal;font-variant:normal;font-weight:400;font-stretch:normal;font-size:32px;line-height:1.25;font-family:Roboto;font-variant-ligatures:normal;font-variant-caps:normal;font-variant-numeric:normal;font-feature-settings:normal;text-align:start;letter-spacing:0;word-spacing:0;writing-mode:lr-tb;text-anchor:start;fill:#fff;fill-opacity:1;stroke:none;stroke-width:4"><g style="font-style:normal;font-variant:normal;font-weight:400;font-stretch:normal;font-size:15.8837px;line-height:1.25;font-family:Roboto;font-variant-ligatures:normal;font-variant-caps:normal;font-variant-numeric:normal;font-feature-settings:normal;text-align:start;letter-spacing:0;word-spacing:0;writing-mode:lr-tb;text-anchor:start;fill:#fff;fill-opacity:1;stroke:none;stroke-width:7.94187"><path d="M129.92 21.348h3.336v-2.854h-9.524v2.854h3.335v13.03h2.854zm9.696 8.268h1.907q0 .357-.17.682-.155.357-.419.62-.28.28-.62.435-.357.155-.698.17-.357 0-.683-.17-.357-.155-.62-.434-.28-.264-.45-.62-.155-.342-.155-.683v-6.36q0-.356.155-.698t.45-.62q.263-.264.62-.419.341-.155.683-.17.356 0 .698.17.34.155.62.419.264.279.419.62.155.357.17.698h2.855q0-.868-.404-1.721-.403-.854-1.07-1.567-.698-.683-1.567-1.07-.853-.404-1.721-.404-.87 0-1.738.404-.853.403-1.535 1.07-.698.698-1.102 1.567-.403.853-.387 1.721v6.36q0 .869.387 1.722.404.853 1.102 1.55.682.699 1.535 1.087.853.403 1.738.403.868 0 1.721-.403.853-.404 1.567-1.086.682-.683 1.07-1.551.404-.853.404-1.722v-2.87h-4.762zm11.338-2.637-1.892-8.485h-2.87l3.335 15.884h2.87l3.335-15.884h-2.699z" aria-label="TGV" style="font-style:normal;font-variant:normal;font-weight:400;font-stretch:normal;font-family:PoliceSNCF;fill:#fff;stroke-width:7.94187" transform="translate(-107.732 -4.842)"/></g><g style="font-style:normal;font-variant:normal;font-weight:400;font-stretch:normal;font-size:15.8837px;line-height:1.25;font-family:Roboto;font-variant-ligatures:normal;font-variant-caps:normal;font-variant-numeric:normal;font-feature-settings:normal;text-align:start;letter-spacing:0;word-spacing:0;writing-mode:lr-tb;text-anchor:start;fill:#fff;fill-opacity:1;stroke:none;stroke-width:7.94187"><path d="M138.297 55.19h2.87V39.305h-2.87z" aria-label="1" style="font-style:normal;font-variant:normal;font-weight:400;font-stretch:normal;font-family:PoliceSNCF;fill:#fff;stroke-width:7.94187" transform="translate(-107.732 -4.842)"/></g></g></svg>