<svg xmlns="http://www.w3.org/2000/svg" width="64" height="64"><path d="M0 0h64v64H0z" style="fill:#000;fill-opacity:1;fill-rule:nonzero;stroke:none;stroke-width:.636824"/><path d="M1.525 1.525h60.95v60.95H1.525z" style="fill:none;stroke:#fff;stroke-width:1.04969;stroke-miterlimit:4;stroke-dasharray:none;stroke-opacity:1"/><g aria-label="ARRET POUR DESSERTE" style="font-style:normal;font-variant:normal;font-weight:400;font-stretch:normal;font-size:9.11409px;line-height:1.55;font-family:Roboto;font-variant-ligatures:normal;font-variant-caps:normal;font-variant-numeric:normal;font-feature-settings:normal;text-align:start;letter-spacing:0;word-spacing:0;writing-mode:lr-tb;text-anchor:start;fill:#fff;fill-opacity:1;stroke:none;stroke-width:1.13926"><path d="m9.49 15.886.652 2.64H8.896Zm1.305 5.385.682 2.73h2.581l-3.19-15.19H8.126L4.935 24H7.68l.593-2.73zM25.436 13.35q0-.831-.386-1.647-.385-.801-1.023-1.484-.668-.652-1.499-1.023-.815-.386-1.646-.386h-4.569V24h2.744v-6.082h1.825q.341 0 .667.163.327.149.594.4.252.268.4.594.149.341.149.668V24h2.744v-4.257q0-.786-.178-1.38-.193-.593-.46-.964-.267-.386-.49-.564l-.385-.282.03-.03q.178-.177.4-.415.208-.237.475-.667.237-.415.43-.95.178-.533.178-1.142zm-4.554 1.839h-1.825v-3.65h1.825q.341 0 .667.164.327.148.594.4.252.267.4.594.149.34.149.667 0 .341-.149.653-.148.341-.4.593-.267.267-.594.43-.326.149-.667.149zM37.051 13.35q0-.831-.386-1.647-.385-.801-1.023-1.484-.668-.652-1.498-1.023-.816-.386-1.647-.386h-4.569V24h2.744v-6.082h1.825q.341 0 .667.163.327.149.594.4.252.268.4.594.149.341.149.668V24h2.744v-4.257q0-.786-.178-1.38-.193-.593-.46-.964-.267-.386-.49-.564l-.385-.282.03-.03q.178-.177.4-.415.208-.237.475-.667.237-.415.43-.95.178-.533.178-1.142zm-4.554 1.839h-1.825v-3.65h1.825q.341 0 .667.164.327.148.594.4.252.267.4.594.149.34.149.667 0 .341-.149.653-.148.341-.4.593-.267.267-.594.43-.326.149-.667.149zM42.287 14.996V11.54h6.38V8.81h-9.124V24h9.123v-2.73h-6.379v-3.545h2.73v-2.73zM55.875 11.54h3.19V8.81h-9.108v2.73h3.189V24h2.73z" style="font-style:normal;font-variant:normal;font-weight:400;font-stretch:normal;font-size:15.1901px;font-family:PoliceSNCF;text-align:center;text-anchor:middle;fill:#fff;stroke-width:1.13926"/><path d="M20.572 35.726v-2.19h1.095q.204 0 .4.099.196.089.356.24.151.16.24.356.09.205.09.4 0 .205-.09.392-.089.205-.24.356-.16.16-.356.258-.205.09-.4.09zm0 1.638h1.095q.498 0 .987-.223.49-.231.9-.632.391-.391.614-.88.231-.49.231-.998 0-.498-.231-.987-.232-.49-.615-.9-.4-.391-.899-.614-.489-.231-.987-.231h-2.742v9.114h1.647zM30.914 38.28v-3.649q0-.498-.231-.987-.232-.49-.614-.9-.4-.391-.9-.614-.489-.231-.987-.231-.499 0-.997.231-.49.232-.881.615-.4.4-.632.899-.232.49-.223.987v3.65q0 .498.223.988.231.49.632.89.391.4.88.623.49.231.998.231.498 0 .988-.231.49-.232.899-.623.391-.392.614-.89.231-.49.231-.988zm-1.638 0q0 .205-.097.392-.09.205-.24.356-.161.16-.357.25-.204.089-.4.097-.205 0-.392-.097-.205-.09-.356-.25-.16-.151-.258-.356-.09-.196-.09-.391v-3.65q0-.204.09-.4.089-.196.258-.356.151-.151.356-.24.196-.09.392-.098.204 0 .4.098.196.089.356.24.152.16.24.356.09.205.098.4zM37.883 31.899h-1.646v6.382q0 .204-.09.391-.088.205-.24.356-.16.16-.356.25-.204.089-.4.097-.205 0-.392-.097-.205-.09-.356-.25-.16-.151-.258-.356-.089-.196-.089-.391v-6.382h-1.647v6.382q0 .498.232.988.231.49.632.89.391.4.88.623.49.231.998.231.498 0 .988-.231.49-.232.899-.623.391-.392.614-.89.231-.49.231-.988zM45.173 34.623q0-.499-.232-.988-.231-.481-.614-.89-.4-.392-.899-.615-.49-.231-.988-.231H39.7v9.114h1.647v-3.65h1.094q.205 0 .4.099.197.089.357.24.151.16.24.356.09.205.09.4v2.555h1.646V38.46q0-.472-.107-.828-.116-.356-.276-.579-.16-.231-.294-.338l-.231-.169.018-.018q.106-.107.24-.249.125-.142.285-.4.142-.25.258-.57.107-.32.107-.685zm-2.733 1.103h-1.094v-2.19h1.094q.205 0 .4.099.197.089.357.24.151.16.24.356.09.205.09.4 0 .205-.09.392-.089.205-.24.356-.16.16-.356.258-.196.09-.4.09zM8.614 47.714q.205 0 .4.097.196.09.357.24.15.16.24.357.089.204.089.4v3.65q0 .204-.09.391-.088.205-.24.356-.16.16-.355.25-.205.088-.401.097H7.519v-5.838Zm0-1.638H5.873v9.114h2.741q.498 0 .988-.232.49-.23.899-.623.392-.391.614-.89.231-.49.231-.988v-3.649q0-.498-.231-.988t-.614-.899q-.4-.391-.9-.614-.489-.231-.987-.231ZM14.488 49.787v-2.073h3.828v-1.638h-5.474v9.114h5.474v-1.638h-3.828v-2.127h1.638v-1.638zM24.742 48.72q0-.5-.214-.989-.222-.471-.587-.854-.383-.374-.864-.588-.48-.213-.979-.213-.498 0-.979.213-.48.223-.854.588-.374.383-.597.854-.222.48-.213.988 0 .499.213.98.223.48.597.854t.854.587q.472.223.98.223.204 0 .4.089.196.089.356.249.151.16.24.356.09.205.098.4 0 .205-.098.392-.089.205-.24.356-.16.16-.356.25-.205.088-.4.097-.205 0-.392-.098-.205-.089-.356-.249-.16-.151-.259-.356-.089-.196-.089-.392h-1.637q0 .499.222.988.232.49.632.89.392.401.881.624.49.23.997.23.499 0 .988-.23.49-.232.9-.624.39-.391.613-.89.232-.49.232-.988t-.232-.996q-.231-.49-.614-.89-.4-.392-.899-.623-.49-.232-.988-.223-.41 0-.703-.303-.303-.293-.303-.703t.303-.712q.294-.293.703-.293.41 0 .712.293.294.303.285.712zM31.39 48.72q0-.5-.213-.989-.223-.471-.588-.854-.382-.374-.863-.588-.48-.213-.98-.213-.498 0-.978.213-.48.223-.855.588-.373.383-.596.854-.222.48-.214.988 0 .499.214.98.223.48.596.854.374.374.855.587.472.223.979.223.205 0 .4.089.196.089.356.249.152.16.24.356.09.205.099.4 0 .205-.098.392-.09.205-.24.356-.16.16-.357.25-.204.088-.4.097-.205 0-.392-.098-.204-.089-.356-.249-.16-.151-.258-.356-.089-.196-.089-.392h-1.638q0 .499.223.988.231.49.632.89.392.401.881.624.49.23.997.23.498 0 .988-.23.49-.232.899-.624.391-.391.614-.89.231-.49.231-.988t-.231-.996q-.231-.49-.614-.89-.4-.392-.9-.623-.489-.232-.987-.223-.41 0-.703-.303-.303-.293-.303-.703t.303-.712q.293-.293.703-.293t.712.293q.294.303.285.712zM34.621 49.787v-2.073h3.827v-1.638h-5.473v9.114h5.473v-1.638h-3.827v-2.127h1.638v-1.638zM45.284 48.8q0-.5-.231-.989-.232-.48-.615-.89-.4-.391-.899-.614-.49-.231-.987-.231H39.81v9.114h1.647v-3.65h1.095q.204 0 .4.099.196.089.356.24.151.16.24.356.09.205.09.4v2.555h1.646v-2.555q0-.471-.107-.827-.116-.356-.276-.579-.16-.231-.293-.338l-.232-.17.018-.017q.107-.107.24-.25.125-.142.285-.4.142-.249.258-.57.107-.32.107-.685zm-2.732 1.103h-1.095v-2.19h1.095q.204 0 .4.098.196.09.356.24.151.16.24.357.09.204.09.4 0 .205-.09.392-.089.205-.24.356-.16.16-.356.258-.196.089-.4.089zM49.743 47.714h1.914v-1.638h-5.465v1.638h1.913v7.476h1.638zM54.532 49.787v-2.073h3.827v-1.638h-5.474v9.114h5.474v-1.638h-3.827v-2.127h1.637v-1.638z" style="font-style:normal;font-variant:normal;font-weight:400;font-stretch:normal;font-family:PoliceSNCF;text-align:center;text-anchor:middle;fill:#fff;stroke-width:1.13926"/></g></svg>