<svg xmlns="http://www.w3.org/2000/svg" width="64" height="64"><path fill="none" d="M0 0h64v64H0z" style="fill:#fff;fill-opacity:0;stroke-width:6.4;stroke-linecap:round;stroke-linejoin:round;paint-order:markers stroke fill;stop-color:#000"/><path d="M0 21h64v22H0z" style="fill:#000;fill-opacity:1;fill-rule:nonzero;stroke:none;stroke-width:.373372" transform="translate(0 21)"/><path d="M1.297 22.297h61.406v19.405H1.297z" style="fill:none;stroke:#fff;stroke-width:.594499;stroke-miterlimit:4;stroke-dasharray:none;stroke-opacity:1" transform="translate(0 21)"/><g style="font-style:normal;font-variant:normal;font-weight:400;font-stretch:normal;font-size:10.2534px;line-height:1.55;font-family:Roboto;font-variant-ligatures:normal;font-variant-caps:normal;font-variant-numeric:normal;font-feature-settings:normal;text-align:start;letter-spacing:0;word-spacing:0;writing-mode:lr-tb;text-anchor:start;fill:#fff;fill-opacity:1;stroke:none;stroke-width:1.28167"><path d="m9.771 31.487.645 2.608h-1.23Zm1.29 5.318.673 2.695h2.549l-3.15-15h-2.71l-3.15 15h2.71l.587-2.695zm14.457-7.823q0-.82-.38-1.626-.382-.79-1.012-1.464-.659-.645-1.479-1.011-.806-.381-1.626-.381h-4.512v15h2.71v-6.006h1.802q.337 0 .66.161.321.147.585.396.25.263.396.586.146.337.146.659V39.5h2.71v-4.204q0-.776-.176-1.362-.19-.586-.454-.953-.263-.38-.483-.556l-.381-.279.03-.029q.175-.176.395-.41.205-.234.468-.66.235-.41.425-.937.176-.527.176-1.128M21.021 30.8h-1.802v-3.604h1.802q.337 0 .66.161.321.147.585.396.25.264.396.586.146.337.146.66 0 .336-.146.644-.147.337-.396.586-.264.263-.586.424-.322.147-.659.147m15.967-1.818q0-.82-.381-1.626-.38-.79-1.01-1.464-.66-.645-1.48-1.011-.806-.381-1.626-.381h-4.512v15h2.71v-6.006h1.802q.337 0 .659.161.322.147.586.396.249.263.395.586.147.337.147.659V39.5h2.71v-4.204q0-.776-.176-1.362-.19-.586-.454-.953-.264-.38-.483-.556l-.381-.279.029-.029q.176-.176.395-.41.206-.234.47-.66.234-.41.424-.937.176-.527.176-1.128M32.49 30.8h-1.802v-3.604h1.802q.337 0 .659.161.322.147.586.396.249.264.395.586.147.337.147.66 0 .336-.147.644-.146.337-.395.586-.264.263-.586.424-.322.147-.66.147zm9.669-.192v-3.413h6.299V24.5h-9.01v15h9.01v-2.695h-6.3v-3.501h2.696v-2.696zm13.418-3.413h3.15V24.5h-8.995v2.695h3.15V39.5h2.695z" aria-label="ARRET" style="font-style:normal;font-variant:normal;font-weight:400;font-stretch:normal;font-size:15px;font-family:PoliceSNCF;text-align:center;text-anchor:middle;fill:#fff;stroke-width:1.28167" transform="translate(0 21)"/></g></svg>