<svg xmlns="http://www.w3.org/2000/svg" width="64" height="64"><path d="M0 0h64v64H0z" style="fill:#000;fill-opacity:1;fill-rule:nonzero;stroke:none;stroke-width:.636824"/><path d="M2.968 2.968h58.065v58.065H2.968z" style="fill:none;stroke:#fff;stroke-width:3.93508;stroke-miterlimit:4;stroke-dasharray:none;stroke-opacity:1"/><path d="M21.195 20.962h-2.438l2.438-5.242zm-6.195 0v3.391h6.195v3.373h3.373v-3.373h1.686v-3.39h-1.686V8.956h-3.355zm8.45 20.939h3.372q0-1.026-.477-2.034-.476-1.008-1.264-1.851-.825-.807-1.851-1.265-1.008-.477-2.035-.477-1.026 0-2.053.477-1.008.476-1.814 1.265-.825.824-1.302 1.85-.476 1.009-.458 2.035v7.515q0 1.026.458 2.035.477 1.008 1.302 1.832.806.825 1.814 1.283 1.008.477 2.053.477 1.027 0 2.035-.477 1.008-.476 1.85-1.283.807-.806 1.265-1.832.477-1.009.477-2.035t-.477-2.053q-.476-1.008-1.264-1.833-.825-.806-1.851-1.283-1.008-.476-2.035-.458-.861 0-1.448.202-.586.22-.806.366v-2.456q0-.421.183-.825t.532-.733q.311-.311.733-.495.403-.183.806-.201.422 0 .825.201.403.184.733.495.312.33.495.733.202.404.202.825m0 7.515q0 .422-.202.807-.183.421-.495.733-.33.33-.733.513-.422.183-.825.201-.421 0-.806-.201-.422-.183-.733-.513-.33-.312-.532-.733-.183-.404-.183-.807 0-.422.183-.825t.532-.733q.311-.311.733-.513.403-.183.806-.183.422 0 .825.183t.733.513q.312.33.495.733.202.403.202.825m19.177-16.774L40.39 22.616H37l3.94 18.768h3.391l3.941-18.768h-3.189z" style="font-style:normal;font-variant:normal;font-weight:400;font-stretch:normal;font-size:18.7686px;line-height:1.45;font-family:PoliceSNCF;font-variant-ligatures:normal;font-variant-caps:normal;font-variant-numeric:normal;font-feature-settings:normal;text-align:start;letter-spacing:0;word-spacing:0;writing-mode:lr-tb;text-anchor:start;fill:#fff;fill-opacity:1;stroke:none;stroke-width:2.34607"/></svg>