<svg xmlns="http://www.w3.org/2000/svg" width="64" height="64"><path d="M14.08-32h64v64h-64z" style="fill:#000;fill-opacity:1;fill-rule:nonzero;stroke:none;stroke-width:.636824" transform="translate(-14.08 32)"/><path d="M17.048-29.032h58.065v58.065H17.048z" style="fill:none;stroke:#fff;stroke-width:3.93508;stroke-miterlimit:4;stroke-dasharray:none;stroke-opacity:1" transform="translate(-14.08 32)"/><path d="M28.8 6.4h6.4v51.2h-6.4z" style="vector-effect:none;fill:#fff;stroke-width:.408248;stroke-linecap:round;stroke-linejoin:round;stop-color:#000"/><path d="M3.2 73.6h38.4v3.2H3.2z" style="vector-effect:none;fill:#000;stroke:none;stroke-width:5.55492;stroke-linecap:square;stroke-linejoin:miter;stroke-miterlimit:6;stroke-dasharray:none;stroke-opacity:1;paint-order:markers stroke fill;stop-color:#000" transform="translate(13.718 -54.4)"/><path d="M0 70.4V80h41.6v-3.2H3.2v-3.2h38.4v-3.2z" style="vector-effect:none;fill:#fff;stroke:none;stroke-width:5.5857;stroke-linecap:square;stroke-linejoin:miter;stroke-miterlimit:6;stroke-dasharray:none;stroke-opacity:1;paint-order:markers stroke fill;stop-color:#000" transform="translate(13.718 -54.4)"/><path d="M3.2 73.6h38.4v3.2H3.2z" style="vector-effect:none;fill:#000;stroke:none;stroke-width:5.55492;stroke-linecap:square;stroke-linejoin:miter;stroke-miterlimit:6;stroke-dasharray:none;stroke-opacity:1;paint-order:markers stroke fill;stop-color:#000" transform="matrix(-1 0 0 1 50.282 -32)"/><path d="M0 70.4V80h41.6v-3.2H3.2v-3.2h38.4v-3.2z" style="vector-effect:none;fill:#fff;stroke:none;stroke-width:5.5857;stroke-linecap:square;stroke-linejoin:miter;stroke-miterlimit:6;stroke-dasharray:none;stroke-opacity:1;paint-order:markers stroke fill;stop-color:#000" transform="matrix(-1 0 0 1 50.282 -32)"/></svg>