<svg xmlns="http://www.w3.org/2000/svg" width="64" height="64"><path d="M-42.268-5.158h64v64h-64z" style="fill:#fff;fill-opacity:1;fill-rule:nonzero;stroke:none;stroke-width:.636824" transform="translate(42.268 5.158)"/><path d="M-39.281-2.171h58.026v58.026h-58.026z" style="fill:none;stroke:#000;stroke-width:3.97394;stroke-miterlimit:4;stroke-dasharray:none;stroke-opacity:1" transform="translate(42.268 5.158)"/><g style="font-style:normal;font-variant:normal;font-weight:400;font-stretch:normal;font-size:24px;line-height:1.25;font-family:Roboto;font-variant-ligatures:normal;font-variant-caps:normal;font-variant-numeric:normal;font-feature-settings:normal;text-align:start;letter-spacing:0;word-spacing:0;writing-mode:lr-tb;text-anchor:start;fill:#000;fill-opacity:1;stroke:none;stroke-width:3"><path d="M21.641 36.805H17.33q0 .539-.258 1.03-.235.54-.633.938-.422.422-.938.657-.539.234-1.054.258-.54 0-1.032-.258-.539-.235-.937-.657-.422-.398-.68-.937-.234-.516-.234-1.031v-9.61q0-.539.234-1.054.235-.516.68-.938.398-.398.937-.633.516-.234 1.032-.257.539 0 1.054.257.516.235.938.633.398.422.633.938.234.539.258 1.054h4.312q0-1.312-.61-2.601-.609-1.29-1.617-2.367-1.054-1.032-2.367-1.618Q15.758 20 14.446 20q-1.313 0-2.625.61-1.29.609-2.32 1.617-1.055 1.054-1.665 2.367-.609 1.289-.586 2.601v9.61q0 1.312.586 2.601.61 1.29 1.664 2.344 1.032 1.055 2.32 1.64 1.29.61 2.626.61 1.312 0 2.601-.61 1.29-.609 2.367-1.64 1.032-1.031 1.618-2.344.61-1.289.61-2.601zm9.938-5.625 1.03 4.172h-1.968zm2.062 8.508L34.72 44h4.078l-5.039-24h-4.336l-5.039 24h4.336l.938-4.313zm22.875-12.657q0-1.36-.562-2.648-.586-1.266-1.57-2.274-1.009-.984-2.25-1.547Q50.89 20 49.578 20h-7.22v24h7.22q1.312 0 2.601-.61 1.266-.609 2.344-1.64 1.031-1.031 1.617-2.344.61-1.265.61-2.578 0-.82-.212-1.617-.21-.773-.562-1.406-.352-.657-.75-1.125-.375-.47-.773-.75.304-.328.656-.844.328-.469.68-1.125.304-.633.515-1.383t.211-1.547zm-6.937 6.89q.539 0 1.054.235.516.258.938.68.398.422.633.937.234.54.234 1.032 0 .539-.234 1.03-.235.54-.633.938-.422.422-.938.657-.539.234-1.054.258h-2.883v-5.766zm0-4.312h-2.883v-5.297h2.883q1.078 0 1.851.774.774.797.774 1.875t-.774 1.852q-.773.796-1.851.796" aria-label="CAB" style="font-style:normal;font-variant:normal;font-weight:400;font-stretch:normal;font-family:PoliceSNCF;stroke-width:3"/></g></svg>