<svg xmlns="http://www.w3.org/2000/svg" width="64" height="64"><path d="M107.732 4.842h64v64h-64z" style="fill:#000;fill-opacity:1;fill-rule:nonzero;stroke:none;stroke-width:.636824" transform="translate(-107.732 -4.842)"/><path d="M108.732 5.842h62v62h-62z" style="fill:#fff;stroke:none;stroke-width:.984127;stroke-linecap:round;stroke-linejoin:round;stroke-miterlimit:4;stroke-dasharray:none;paint-order:markers stroke fill;stop-color:#000" transform="translate(-107.732 -4.842)"/><g aria-label="D" style="font-style:normal;font-variant:normal;font-weight:400;font-stretch:normal;font-size:20px;line-height:1.25;font-family:Roboto;font-variant-ligatures:normal;font-variant-caps:normal;font-variant-numeric:normal;font-feature-settings:normal;text-align:start;letter-spacing:0;word-spacing:0;writing-mode:lr-tb;text-anchor:start;fill:#000;fill-opacity:1;stroke:none;stroke-width:2.5"><path d="M118.748 13.436q.449 0 .878.214.43.196.782.528.332.351.527.781.195.45.195.879v8.008q0 .449-.195.86-.195.448-.527.78-.352.352-.782.547-.449.196-.878.215h-2.403V13.436zm0-3.594h-6.016v20h6.016q1.093 0 2.167-.508 1.075-.508 1.973-1.367.86-.86 1.348-1.953.508-1.074.508-2.168v-8.008q0-1.094-.508-2.168t-1.348-1.973q-.879-.859-1.973-1.347-1.074-.508-2.167-.508z" style="font-style:normal;font-variant:normal;font-weight:400;font-stretch:normal;font-family:PoliceSNCF;stroke-width:2.5" transform="translate(-100.738 .658)"/></g><g aria-label="D" style="font-style:normal;font-variant:normal;font-weight:400;font-stretch:normal;font-size:20px;line-height:1.25;font-family:Roboto;font-variant-ligatures:normal;font-variant-caps:normal;font-variant-numeric:normal;font-feature-settings:normal;text-align:start;letter-spacing:0;word-spacing:0;writing-mode:lr-tb;text-anchor:start;fill:#000;fill-opacity:1;stroke:none;stroke-width:2.5"><path d="M118.748 36.436q.449 0 .878.214.43.196.782.528.332.351.527.781.195.45.195.879v8.008q0 .449-.195.86-.195.448-.527.78-.352.352-.782.547-.449.196-.878.215h-2.403V36.436zm0-3.594h-6.016v20h6.016q1.093 0 2.167-.508 1.075-.508 1.973-1.367.86-.86 1.348-1.953.508-1.074.508-2.168v-8.008q0-1.094-.508-2.168t-1.348-1.973q-.879-.859-1.973-1.347-1.074-.508-2.167-.508z" style="font-style:normal;font-variant:normal;font-weight:400;font-stretch:normal;font-family:PoliceSNCF;stroke-width:2.5" transform="translate(-100.738 .658)"/></g><path d="M163.732 36.838c0-.024-.024-13.176-3-17.992-1.96-3.17-6.04-.83-8-4-.526-.85-.145-2.384-1-3-1.352-.975-5-1.667-5 0v15c0 1.666 3.582.876 5 0 .634-.392.586-1.38 1-2 2-3 3-1 3-1v25.992s-1 2-3-1c-.414-.62-.366-1.608-1-2-1.418-.876-5-1.667-5 0v15c0 1.667 3.648.974 5 0 .855-.616.474-2.15 1-3 1.96-3.17 6.04-.83 8-4 2.976-4.816 3-17.968 3-17.992v-.008z" style="fill:#000;fill-opacity:1;stroke:none;stroke-width:1px;stroke-linecap:butt;stroke-linejoin:miter;stroke-opacity:1" transform="translate(-107.732 -4.842)"/></svg>