<svg xmlns="http://www.w3.org/2000/svg" width="64" height="64"><path d="M107.732 4.842h64v64h-64z" style="fill:#000;fill-opacity:1;fill-rule:nonzero;stroke:none;stroke-width:.636824" transform="translate(-107.732 -4.842)"/><path d="M110.699 7.809h58.065v58.065h-58.065z" style="fill:none;stroke:#fff;stroke-width:3.93508;stroke-miterlimit:4;stroke-dasharray:none;stroke-opacity:1" transform="translate(-107.732 -4.842)"/><g style="font-style:normal;font-weight:400;font-size:40px;line-height:125%;font-family:Sans;text-align:center;letter-spacing:0;word-spacing:0;text-anchor:middle;fill:#fff;fill-opacity:1;stroke:none"><path d="M133.728 26.71h21.133q7.148 0 10.898 1.093 5.04 1.485 8.633 5.273 3.594 3.79 5.469 9.278 1.875 5.487 1.875 13.535 0 7.07-1.758 12.187-2.149 6.251-6.133 10.117-3.007 2.93-8.125 4.57-3.828 1.212-10.234 1.212h-21.758Zm11.563 9.687v37.93h8.632q4.844 0 6.993-.548 2.811-.703 4.667-2.382t3.028-5.528q1.172-3.847 1.172-10.488t-1.172-10.195q-1.172-3.556-3.281-5.547-2.11-1.992-5.352-2.696-2.422-.546-9.492-.546z" style="font-weight:700;font-size:80px;-inkscape-font-specification:&quot;Sans Bold&quot;;fill:#fff" transform="matrix(.56439 0 0 .5588 -57.022 1.075)"/></g></svg>