<svg xmlns="http://www.w3.org/2000/svg" width="64" height="64"><path fill="none" d="M107.732 4.842h64v64h-64z" style="fill:#fff;fill-opacity:0;stroke-width:6.4;stroke-linecap:round;stroke-linejoin:round;paint-order:markers stroke fill;stop-color:#000" transform="translate(-107.732 -4.842)"/><g transform="translate(-236.9 -12.848) scale(1.9695)"><path d="M128.861 22.114c-.604 0-1.21.23-1.673.693l-5.962 5.964a2.357 2.357 0 0 0 0 3.342l5.962 5.964a2.36 2.36 0 0 0 3.344 0l5.964-5.964c.014-.014.023-.03.036-.045.013.014.022.03.036.045l5.962 5.964a2.36 2.36 0 0 0 3.344 0l5.964-5.964a2.357 2.357 0 0 0 0-3.342l-5.964-5.964a2.36 2.36 0 0 0-3.344 0l-5.962 5.964c-.014.014-.023.03-.036.044-.013-.014-.022-.03-.036-.044l-5.964-5.964a2.353 2.353 0 0 0-1.671-.693z" style="vector-effect:none;fill:#a0a;fill-opacity:1;stroke:#000;stroke-width:.5;stroke-linecap:round;stroke-linejoin:round;stroke-miterlimit:4;stroke-dasharray:none;stroke-opacity:1;stop-color:#000"/><rect width="31.477" height="1.28" x="120.747" y="29.802" ry=".254" style="vector-effect:none;fill:#fff;fill-opacity:1;stroke-width:1.87431;stroke-linecap:round;stroke-linejoin:round;stop-color:#000"/></g></svg>