<svg xmlns="http://www.w3.org/2000/svg" width="64" height="64"><path d="M-42.268-5.158h64v64h-64z" style="fill:#fff;fill-opacity:1;fill-rule:nonzero;stroke:none;stroke-width:.636824" transform="translate(42.268 5.158)"/><path d="M-39.281-2.171h58.026v58.026h-58.026z" style="fill:none;stroke:#000;stroke-width:3.97394;stroke-miterlimit:4;stroke-dasharray:none;stroke-opacity:1" transform="translate(42.268 5.158)"/><g style="font-style:normal;font-variant:normal;font-weight:400;font-stretch:normal;font-size:16px;line-height:1.25;font-family:Roboto;font-variant-ligatures:normal;font-variant-caps:normal;font-variant-numeric:normal;font-feature-settings:normal;text-align:start;letter-spacing:0;word-spacing:0;writing-mode:lr-tb;text-anchor:start;fill:#000;fill-opacity:1;stroke:none;stroke-width:2"><path d="M121.904 40.045h1.922q0 .36-.172.688-.156.359-.422.625-.281.28-.625.437-.36.156-.703.172-.36 0-.687-.172-.36-.156-.625-.437-.282-.266-.454-.625-.156-.344-.156-.688v-6.406q0-.36.156-.703.157-.344.454-.625.265-.266.625-.422.343-.156.687-.172.36 0 .703.172.344.156.625.422.266.28.422.625.156.359.172.703h2.875q0-.875-.406-1.735-.407-.859-1.078-1.578-.704-.687-1.579-1.078-.859-.406-1.734-.406t-1.75.406q-.86.406-1.547 1.078-.703.703-1.11 1.578-.405.86-.39 1.735v6.406q0 .875.39 1.734.407.86 1.11 1.563.688.703 1.547 1.094.86.406 1.75.406.875 0 1.734-.406.86-.407 1.579-1.094.687-.688 1.078-1.563.406-.859.406-1.734v-2.89h-4.797zm11.422-3.75.687 2.781h-1.312zm1.375 5.672.719 2.875h2.718l-3.359-16h-2.89l-3.36 16h2.89l.626-2.875zm15.422-8.344q0-.875-.406-1.734-.407-.844-1.079-1.563-.703-.687-1.578-1.078-.859-.406-1.734-.406h-4.813v16h2.891v-6.406h1.922q.36 0 .703.172.344.156.625.421.266.282.422.625.156.36.156.704v4.484h2.89v-4.484q0-.829-.187-1.454-.203-.625-.484-1.015-.281-.406-.516-.594l-.406-.297.031-.031q.188-.188.422-.438.219-.25.5-.703.25-.437.453-1 .188-.562.188-1.203m-4.797 1.938h-1.922v-3.844h1.922q.36 0 .703.172.344.156.625.422.266.28.422.625.156.359.156.703 0 .36-.156.687-.156.36-.422.625-.281.282-.625.453-.344.157-.703.157m10.312-.203v-3.641h6.72v-2.875h-9.61v16h9.61v-2.875h-6.72v-3.734h2.875v-2.875z" aria-label="GARE" style="font-style:normal;font-variant:normal;font-weight:400;font-stretch:normal;font-family:PoliceSNCF;stroke-width:2" transform="translate(-107.732 -4.842)"/></g></svg>