<svg xmlns="http://www.w3.org/2000/svg" width="64" height="64"><path d="M0 0h64v64H0z" style="fill:#000;fill-opacity:1;fill-rule:nonzero;stroke:none;stroke-width:.636824"/><path d="M1.525 1.525h60.95v60.95H1.525z" style="fill:none;stroke:#fff;stroke-width:1.04969;stroke-miterlimit:4;stroke-dasharray:none;stroke-opacity:1"/><g aria-label="Heurtoir" style="font-style:normal;font-variant:normal;font-weight:400;font-stretch:normal;font-size:15.5242px;line-height:1.25;font-family:Roboto;font-variant-ligatures:normal;font-variant-caps:normal;font-variant-numeric:normal;font-feature-settings:normal;text-align:start;letter-spacing:0;word-spacing:0;writing-mode:lr-tb;text-anchor:start;fill:#fff;fill-opacity:1;stroke:none;stroke-width:1.94052"><path d="M13.436 10.965h-2.804v6.322H6.917v-6.322H4.113v15.524h2.804v-6.413h3.715v6.413h2.804zM19.258 21.365h-1.713v-.85q0-.333.257-.59.243-.258.592-.273.348 0 .606.257.243.258.258.607zm1.698 1.713v-2.562q0-2.562-2.562-2.562t-2.562 2.562v3.41q0 2.563 2.562 2.563t2.562-2.562h-1.698q0 .333-.258.591-.258.258-.606.258-.35 0-.592-.258-.257-.258-.257-.591v-.85zM25.216 26.489q.348 0 .53-.03.167-.015.334-.061v.091h1.698v-8.535H26.08v5.973q0 .333-.258.591-.258.258-.606.258-.349 0-.591-.258-.258-.258-.258-.591v-5.973h-1.713v5.973q0 2.562 2.562 2.562zM35.07 20.516q0-2.562-2.562-2.562-.349 0-.516.015-.181.03-.348.076v-.091h-1.698v8.535h1.698v-5.973q0-.334.273-.591.242-.258.59-.273.35 0 .607.257.243.258.243.607zM39.785 26.489q.652 0 1.137-.167.47-.151.803-.485l-1.334-1.319q-.257.258-.621.258-.334 0-.576-.258-.258-.258-.258-.591v-4.275h.697v-1.698h-.697v-3.881l-1.713.849v3.032h-.698v1.698h.698v4.275q0 2.562 2.562 2.562zM48.942 20.516q0-2.562-2.562-2.562t-2.562 2.562v3.41q0 2.563 2.562 2.563t2.562-2.562zm-1.698 3.41q0 .334-.258.592-.258.258-.606.258-.349 0-.592-.258-.257-.258-.257-.591v-3.411q0-.334.257-.591.243-.258.592-.273.348 0 .606.257.243.258.258.607zM50.882 26.489h1.698v-8.535h-1.698zm0-9.4h1.698v-1.697h-1.698zM59.888 20.516q0-2.562-2.563-2.562-.348 0-.515.015-.182.03-.349.076v-.091h-1.698v8.535h1.698v-5.973q0-.334.273-.591.243-.258.591-.273.35 0 .607.257.242.258.242.607z" style="font-style:normal;font-variant:normal;font-weight:400;font-stretch:normal;font-family:PoliceSNCF;fill:#fff;stroke-width:1.94052" transform="translate(0 1.999)"/></g><g aria-label="500m" style="font-style:normal;font-variant:normal;font-weight:400;font-stretch:normal;font-size:15.5242px;line-height:1.25;font-family:Roboto;font-variant-ligatures:normal;font-variant-caps:normal;font-variant-numeric:normal;font-feature-settings:normal;text-align:start;letter-spacing:0;word-spacing:0;writing-mode:lr-tb;text-anchor:start;fill:#fff;fill-opacity:1;stroke:none;stroke-width:1.94052"><path d="M15.362 38.167q-.531 0-.728.03-.197.031-.364.107v-2.001h4.973v-2.79H11.48v6.959l2.79.91q.015-.137.243-.273.227-.137.849-.137.348 0 .682.152.333.151.606.41.258.272.41.605.151.35.166.683v1.561q0 .349-.167.667-.151.349-.409.607-.273.273-.606.424-.349.152-.682.167-.35 0-.668-.167-.348-.151-.606-.424-.273-.258-.44-.607-.151-.333-.151-.667h-2.79q0 .85.38 1.683.393.834 1.076 1.516.667.682 1.5 1.061.834.394 1.699.394.848 0 1.682-.394t1.532-1.06q.667-.668 1.046-1.517.394-.834.394-1.683v-1.561q0-.85-.394-1.683-.395-.834-1.046-1.531-.683-.667-1.532-1.046-.834-.395-1.682-.395ZM26.686 49.037q.85 0 1.683-.394.834-.394 1.531-1.06.667-.668 1.046-1.517.395-.834.395-1.683v-6.216q0-.848-.395-1.682-.394-.834-1.046-1.532-.682-.667-1.53-1.046-.835-.394-1.684-.394t-1.698.394q-.833.395-1.5 1.046-.683.683-1.077 1.532-.394.834-.379 1.682v6.216q0 .85.38 1.683.393.834 1.075 1.516.668.682 1.501 1.061.85.394 1.698.394zm0-2.79q-.348 0-.667-.166-.348-.151-.606-.424-.273-.258-.44-.607-.151-.333-.151-.667v-6.216q0-.348.151-.682.152-.333.44-.606.258-.258.606-.41.334-.151.667-.166.349 0 .683.167.333.151.606.409.258.273.41.606.15.349.166.682v6.216q0 .349-.167.667-.151.349-.41.607-.272.273-.605.424-.334.167-.683.167zM38.011 49.037q.85 0 1.683-.394.834-.394 1.531-1.06.667-.668 1.046-1.517.394-.834.394-1.683v-6.216q0-.848-.394-1.682t-1.046-1.532q-.682-.667-1.531-1.046-.834-.394-1.683-.394-.849 0-1.698.394-.834.395-1.5 1.046-.683.683-1.077 1.532-.394.834-.38 1.682v6.216q0 .85.38 1.683.394.834 1.076 1.516.667.682 1.501 1.061.85.394 1.698.394zm0-2.79q-.349 0-.667-.166-.349-.151-.606-.424-.273-.258-.44-.607-.152-.333-.152-.667v-6.216q0-.348.152-.682.152-.333.44-.606.257-.258.606-.41.334-.151.667-.166.349 0 .682.167.334.151.607.409.257.273.409.606.152.349.167.682v6.216q0 .349-.167.667-.152.349-.41.607-.272.273-.606.424-.333.167-.682.167zM50.73 40.502q-.606 0-1.015.121-.41.137-.698.35-.242-.198-.651-.35-.425-.12-1.046-.12-.35 0-.516.014-.182.03-.349.076v-.09h-1.698v8.534h1.698v-5.973q0-.333.273-.591.243-.258.592-.273.348 0 .606.258.243.258.243.606v5.973h1.713v-5.973q0-.333.257-.591.243-.258.592-.273.348 0 .606.258.243.258.243.606v5.973h1.713v-5.973q0-2.562-2.562-2.562z" style="font-style:normal;font-variant:normal;font-weight:400;font-stretch:normal;font-family:PoliceSNCF;fill:#fff;stroke-width:1.94052" transform="translate(0 1.999)"/></g></svg>