<svg xmlns="http://www.w3.org/2000/svg" width="128" height="128"><path fill="none" d="M0 0h128v128H0z" style="fill:#fff;fill-opacity:0;stroke:none;stroke-width:9.14344"/><path d="M111.977 102.012A20.94 20.94 0 0 1 90.992 123H37.008a20.94 20.94 0 0 1-20.985-20.988 20.94 20.94 0 0 1 20.985-20.985h53.984a20.94 20.94 0 0 1 20.985 20.985zm0 0" style="fill:#000;fill-opacity:1;fill-rule:nonzero;stroke:#000;stroke-width:10;stroke-linecap:butt;stroke-linejoin:miter;stroke-miterlimit:4;stroke-opacity:1" transform="translate(22.132 44.264)scale(.65419)"/><path d="M111.977 102.012A20.94 20.94 0 0 1 90.992 123H37.008a20.94 20.94 0 0 1-20.985-20.988 20.94 20.94 0 0 1 20.985-20.985h53.984a20.94 20.94 0 0 1 20.985 20.985zm0 0" style="fill:#000;fill-opacity:1;fill-rule:nonzero;stroke:#fff;stroke-width:4.25762;stroke-linecap:butt;stroke-linejoin:miter;stroke-miterlimit:4;stroke-opacity:1" transform="translate(22.132 44.264)scale(.65419)"/><path d="M91.465 109.379a7.281 7.281 0 1 1 7.281-7.281 7.28 7.28 0 0 1-7.281 7.28zm-54.457 0a7.281 7.281 0 1 1 7.281-7.281 7.28 7.28 0 0 1-7.281 7.28zm27.23 0a7.28 7.28 0 0 1-7.281-7.281 7.281 7.281 0 1 1 7.281 7.28zm0 0" style="fill:#fff;fill-opacity:1;fill-rule:nonzero;stroke:none" transform="translate(22.132 44.264)scale(.65419)"/></svg>