<svg xmlns="http://www.w3.org/2000/svg" width="64" height="64"><path d="M107.732 4.842h64v64h-64z" style="fill:#000;fill-opacity:1;fill-rule:nonzero;stroke:none;stroke-width:.636824" transform="translate(-107.732 -4.842)"/><path d="M110.699 7.809h58.065v58.065h-58.065z" style="fill:none;stroke:#fff;stroke-width:3.93508;stroke-miterlimit:4;stroke-dasharray:none;stroke-opacity:1" transform="translate(-107.732 -4.842)"/><g style="font-style:normal;font-weight:400;font-size:40px;line-height:125%;font-family:Sans;text-align:center;letter-spacing:0;word-spacing:0;text-anchor:middle;fill:#fff;fill-opacity:1;stroke:none"><g style="font-style:normal;font-variant:normal;font-weight:400;font-stretch:normal;font-size:38.765px;line-height:1.25;font-family:Roboto;font-variant-ligatures:normal;font-variant-caps:normal;font-variant-numeric:normal;font-feature-settings:normal;text-align:start;letter-spacing:0;word-spacing:0;writing-mode:lr-tb;text-anchor:start;fill:#fff;fill-opacity:1;stroke:none;stroke-width:4.84562"><path d="M132.246 69.604h7.004V30.84h-7.004zm28.506-21.314q-1.514 0-2.536.304-1.022.34-1.742.87-.605-.492-1.627-.87-1.06-.303-2.613-.303-.87 0-1.287.038-.454.075-.87.19v-.228h-4.24v21.313h4.24V54.69q0-.833.681-1.477.606-.643 1.476-.681.871 0 1.515.643.605.644.605 1.515v14.915h4.278V54.69q0-.833.644-1.477.605-.643 1.476-.681.87 0 1.514.643.606.644.606 1.515v14.915h4.278V54.69q0-6.398-6.398-6.398zm15.483 31.005v-9.918q.379.114.871.151.417.076 1.287.076 6.398 0 6.398-6.398V54.69q0-6.398-6.398-6.398-.87 0-1.287.038-.454.075-.87.19v-.228h-4.24v31.004zm2.158-26.764q.87 0 1.514.643.606.644.606 1.515v8.517q0 .833-.606 1.477-.643.643-1.514.643-.87 0-1.476-.643-.644-.644-.682-1.477V54.69q0-.833.682-1.477.606-.681 1.476-.681z" aria-label="Imp" style="font-style:normal;font-variant:normal;font-weight:400;font-stretch:normal;font-family:PoliceSNCF;fill:#fff;stroke-width:4.84562" transform="translate(-72.684 -4.366)scale(.66039)"/></g></g></svg>