<svg xmlns="http://www.w3.org/2000/svg" width="64" height="64"><path d="M-68.842 107.732h64v64h-64z" style="fill:#fff;fill-opacity:1;stroke:none;stroke-width:5.34543419;stroke-miterlimit:4;stroke-dasharray:none;stroke-opacity:1" transform="matrix(.5 -.5 .5 .5 -19.445 -56.287)"/><path d="M107.732 4.842h3.2v32h-3.2zM168.532 36.842h3.2v32h-3.2z" style="fill:#00a6ff;fill-opacity:1;stroke:none;stroke-width:.84518713;stroke-miterlimit:4;stroke-dasharray:none;stroke-opacity:1" transform="matrix(.5 .5 -.5 .5 -19.445 -56.287)"/><path d="M-68.842 139.732h3.2v32h-3.2zM-8.042 107.732h3.2v32h-3.2z" style="fill:#00a6ff;fill-opacity:1;stroke:none;stroke-width:.84518713;stroke-miterlimit:4;stroke-dasharray:none;stroke-opacity:1" transform="matrix(.5 -.5 .5 .5 -19.445 -56.287)"/><path d="M-36.842 139.732h28.8v28.8h-28.8zM-65.642 110.932h28.8v28.8h-28.8z" style="fill:#00a6ff;fill-opacity:1;stroke:none;stroke-width:2.40544534;stroke-miterlimit:4;stroke-dasharray:none;stroke-opacity:1" transform="matrix(.5 -.5 .5 .5 -19.445 -56.287)"/></svg>