<svg xmlns="http://www.w3.org/2000/svg" width="64" height="64"><path d="M107.732 4.842h64v64h-64z" style="fill:#000;fill-opacity:1;fill-rule:nonzero;stroke:none;stroke-width:.636824" transform="translate(-107.732 -4.842)"/><path d="M108.732 5.842h62v62h-62z" style="fill:#fff;stroke:none;stroke-width:.984127;stroke-linecap:round;stroke-linejoin:round;stroke-miterlimit:4;stroke-dasharray:none;paint-order:markers stroke fill;stop-color:#000" transform="translate(-107.732 -4.842)"/><g style="font-style:normal;font-variant:normal;font-weight:400;font-stretch:normal;font-size:50px;line-height:1.25;font-family:Roboto;font-variant-ligatures:normal;font-variant-caps:normal;font-variant-numeric:normal;font-feature-settings:normal;text-align:start;letter-spacing:0;word-spacing:0;writing-mode:lr-tb;text-anchor:start;fill:#000;fill-opacity:1;stroke:none;stroke-width:6.25"><path d="M133.75 32.838V20.826h6.006q1.123 0 2.198.537 1.074.489 1.953 1.319.83.879 1.318 1.953.488 1.123.488 2.197 0 1.123-.488 2.149-.488 1.123-1.318 1.953-.88.879-1.953 1.416-1.123.488-2.198.488zm0 8.984h6.006q2.735 0 5.42-1.22 2.686-1.27 4.932-3.467 2.148-2.149 3.369-4.834 1.27-2.686 1.27-5.469 0-2.734-1.27-5.42t-3.37-4.931q-2.196-2.149-4.93-3.37-2.686-1.27-5.42-1.27h-15.04v50h9.033z" aria-label="P" style="font-style:normal;font-variant:normal;font-weight:400;font-stretch:normal;font-family:PoliceSNCF;stroke-width:6.25" transform="translate(-107.732 -4.842)"/></g></svg>