<svg xmlns="http://www.w3.org/2000/svg" width="64" height="64"><path d="M0 0h64v64H0z" style="fill:#000;fill-opacity:1;fill-rule:nonzero;stroke:none;stroke-width:.636824"/><path d="M1.525 1.525h60.95v60.95H1.525z" style="fill:none;stroke:#fff;stroke-width:1.04969;stroke-miterlimit:4;stroke-dasharray:none;stroke-opacity:1"/><g style="font-style:normal;font-variant:normal;font-weight:400;font-stretch:normal;font-size:15px;line-height:1.25;font-family:Roboto;font-variant-ligatures:normal;font-variant-caps:normal;font-variant-numeric:normal;font-feature-settings:normal;text-align:start;letter-spacing:0;word-spacing:0;writing-mode:lr-tb;text-anchor:start;fill:#fff;fill-opacity:1;stroke:none;stroke-width:1.875"><path d="M24.58 18.723v-3.604h1.802q.337 0 .66.161.322.147.585.396.25.264.396.586.146.337.146.66 0 .336-.146.644-.147.337-.396.586-.263.263-.585.424-.337.147-.66.147zm0 2.695h1.802q.82 0 1.626-.366.806-.38 1.48-1.04.644-.645 1.01-1.45.381-.806.381-1.64 0-.821-.38-1.627-.381-.806-1.011-1.48-.66-.644-1.48-1.01-.805-.381-1.626-.381h-4.511v15h2.71zm11.25-2.578 3.59 8.584h2.71v-15h-2.71v8.584l-3.59-8.584h-2.71v15h2.71z" aria-label="PN" style="font-style:normal;font-variant:normal;font-weight:400;font-stretch:normal;font-family:PoliceSNCF;fill:#fff;stroke-width:1.875"/></g><g style="font-style:normal;font-variant:normal;font-weight:400;font-stretch:normal;font-size:15px;line-height:1.25;font-family:Roboto;font-variant-ligatures:normal;font-variant-caps:normal;font-variant-numeric:normal;font-feature-settings:normal;text-align:start;letter-spacing:0;word-spacing:0;writing-mode:lr-tb;text-anchor:start;fill:#fff;fill-opacity:1;stroke:none;stroke-width:1.875"><path d="M24.91 50.165h2.71v-15h-2.71zm9.683 0q.82 0 1.626-.381t1.48-1.026q.644-.644 1.01-1.465.38-.805.38-1.626v-6.005q0-.82-.38-1.626t-1.01-1.48q-.66-.644-1.48-1.01-.806-.381-1.626-.381t-1.64.38q-.807.381-1.451 1.011-.66.66-1.04 1.48-.38.805-.366 1.626v6.005q0 .82.366 1.626.38.806 1.04 1.465.644.66 1.45 1.026.82.38 1.64.38zm0-2.696q-.337 0-.645-.16-.337-.147-.586-.411-.263-.25-.425-.586-.146-.322-.146-.645v-6.005q0-.337.147-.66.146-.322.424-.585.25-.25.586-.396.323-.146.645-.161.337 0 .659.161.322.146.586.396.249.263.395.585.147.337.162.66v6.005q0 .337-.162.645-.146.337-.395.586-.264.264-.586.41-.322.161-.66.161z" aria-label="10" style="font-style:normal;font-variant:normal;font-weight:400;font-stretch:normal;font-family:PoliceSNCF;fill:#fff;stroke-width:1.875"/></g></svg>