<svg xmlns="http://www.w3.org/2000/svg" width="64" height="64"><path d="M0 0h64v64H0z" style="fill:#000;fill-opacity:1;fill-rule:nonzero;stroke:none;stroke-width:.636824"/><path d="M1.525 1.525h60.95v60.95H1.525z" style="fill:none;stroke:#fff;stroke-width:1.04969;stroke-miterlimit:4;stroke-dasharray:none;stroke-opacity:1"/><g aria-label="SAS" style="font-style:normal;font-variant:normal;font-weight:400;font-stretch:normal;font-size:16.4054px;line-height:1.55;font-family:Roboto;font-variant-ligatures:normal;font-variant-caps:normal;font-variant-numeric:normal;font-feature-settings:normal;text-align:start;letter-spacing:0;word-spacing:0;writing-mode:lr-tb;text-anchor:start;fill:#fff;fill-opacity:1;stroke:none;stroke-width:2.05067"><path d="M21.816 26.96q0-1.312-.562-2.6-.586-1.243-1.547-2.25-1.008-.985-2.273-1.547Q16.168 20 14.855 20q-1.312 0-2.578.563-1.265.585-2.25 1.546-.984 1.008-1.57 2.25-.586 1.266-.562 2.602 0 1.312.562 2.578.586 1.266 1.57 2.25.985.984 2.25 1.547 1.243.586 2.578.586.54 0 1.055.234.516.235.938.657.398.421.632.937.235.54.258 1.055 0 .539-.258 1.03-.234.54-.632.938-.422.422-.938.657-.539.234-1.055.258-.539 0-1.03-.258-.54-.235-.938-.657-.422-.398-.68-.937-.234-.516-.234-1.031H7.66q0 1.312.586 2.601.61 1.29 1.664 2.344 1.031 1.055 2.32 1.64 1.29.61 2.625.61 1.313 0 2.602-.61 1.29-.609 2.367-1.64 1.031-1.031 1.617-2.344.61-1.289.61-2.601 0-1.313-.61-2.625-.609-1.29-1.617-2.344-1.054-1.031-2.367-1.64-1.289-.61-2.602-.587-1.078 0-1.851-.797-.797-.773-.797-1.851 0-1.078.797-1.875.773-.773 1.851-.773 1.079 0 1.875.773.774.797.75 1.875zM31.988 31.18l1.032 4.172h-1.97zm2.063 8.508L35.129 44h4.078l-5.039-24h-4.336l-5.039 24h4.336l.937-4.313zM56.105 26.96q0-1.312-.562-2.6-.586-1.243-1.547-2.25-1.008-.985-2.273-1.547Q50.457 20 49.145 20q-1.313 0-2.579.563-1.265.585-2.25 1.546-.984 1.008-1.57 2.25-.586 1.266-.562 2.602 0 1.312.562 2.578.586 1.266 1.57 2.25.985.984 2.25 1.547 1.243.586 2.579.586.539 0 1.054.234.516.235.938.657.398.421.633.937.234.54.257 1.055 0 .539-.257 1.03-.235.54-.633.938-.422.422-.938.657-.539.234-1.054.258-.54 0-1.032-.258-.539-.235-.937-.657-.422-.398-.68-.937-.234-.516-.234-1.031h-4.313q0 1.312.586 2.601.61 1.29 1.664 2.344 1.031 1.055 2.32 1.64 1.29.61 2.626.61 1.312 0 2.601-.61 1.29-.609 2.367-1.64 1.032-1.031 1.617-2.344.61-1.289.61-2.601 0-1.313-.61-2.625-.609-1.29-1.617-2.344-1.054-1.031-2.367-1.64-1.289-.61-2.601-.587-1.079 0-1.852-.797-.797-.773-.797-1.851 0-1.078.797-1.875.773-.773 1.852-.773 1.078 0 1.875.773.773.797.75 1.875z" style="font-style:normal;font-variant:normal;font-weight:400;font-stretch:normal;font-size:24px;font-family:PoliceSNCF;text-align:center;text-anchor:middle;fill:#fff;stroke-width:2.05067"/></g></svg>