<?xml version="1.0" encoding="UTF-8" standalone="no"?>
<svg
   xmlns:dc="http://purl.org/dc/elements/1.1/"
   xmlns:cc="http://creativecommons.org/ns#"
   xmlns:rdf="http://www.w3.org/1999/02/22-rdf-syntax-ns#"
   xmlns:svg="http://www.w3.org/2000/svg"
   xmlns="http://www.w3.org/2000/svg"
   id="svg2"
   version="1.1"
   width="64"
   height="64">
  <metadata
     id="metadata8">
    <rdf:RDF>
      <cc:Work
         rdf:about="">
        <dc:format>image/svg+xml</dc:format>
        <dc:type
           rdf:resource="http://purl.org/dc/dcmitype/StillImage" />
        <dc:title />
      </cc:Work>
    </rdf:RDF>
  </metadata>
  <defs
     id="defs6" />
  <rect
     y="1.00007"
     x="1.0000679"
     height="61.999863"
     width="61.999863"
     id="rect2989-6"
     style="fill:#f2f2f2;fill-opacity:1;stroke:#333333;stroke-width:2.00014;stroke-miterlimit:4;stroke-dasharray:none;stroke-opacity:1" />
  <g
     transform="translate(19.157185)"
     style="font-style:normal;font-weight:normal;font-size:36.031px;line-height:1.25;font-family:saxMono;letter-spacing:0px;word-spacing:0px;fill:#333333;fill-opacity:1;stroke:none;stroke-width:4.8718"
     id="texte"
     aria-label="125">
    <path
       id="path9"
       style="font-style:normal;font-weight:normal;font-size:36.031px;line-height:1.25;font-family:saxMono;letter-spacing:0px;word-spacing:0px;fill:#333333;fill-opacity:1;stroke:none;stroke-width:4.8718"
       d="M -7.9964036,41.68509 V 22.279723 h -3.4834654 q -1.319495,0 -1.319495,-1.143562 0,-1.161155 1.319495,-1.161155 h 4.6798071 q 1.1963418,0 1.1963418,1.161155 V 41.68509 h 3.6945848 q 1.35468104,0 1.35468104,1.231528 0,1.090783 -1.35468104,1.090783 H -12.412312 q -1.354681,0 -1.354681,-1.161156 0,-1.161155 1.354681,-1.161155 z" />
    <path
       id="path11"
       style="font-style:normal;font-weight:normal;font-size:36.031px;line-height:1.25;font-family:saxMono;letter-spacing:0px;word-spacing:0px;fill:#333333;fill-opacity:1;stroke:none;stroke-width:4.8718"
       d="m 8.5060758,41.68509 h 9.7466662 q 1.688953,0 1.688953,1.178749 0,1.143562 -1.372274,1.143562 H 6.3421047 q -1.3019013,0 -1.3019013,-1.02041 0,-0.457424 0.4926113,-1.055595 L 15.912839,29.387401 q 1.61858,-1.952852 1.61858,-3.659399 0,-1.882478 -1.513021,-2.955667 -1.354681,-0.950036 -3.307533,-0.950036 -2.445463,0 -3.7649577,1.530613 -0.6333574,0.738917 -1.4954271,2.850109 -0.6157642,1.530613 -1.3546811,1.530613 -1.0555957,0 -1.0555957,-1.249121 0,-1.425054 0.9324428,-3.114007 2.1463779,-3.870518 6.8613718,-3.870518 2.938075,0 4.926113,1.495427 2.181564,1.653767 2.181564,4.503875 0,2.463057 -2.463056,5.418724 z" />
    <path
       id="path13"
       style="font-style:normal;font-weight:normal;font-size:36.031px;line-height:1.25;font-family:saxMono;letter-spacing:0px;word-spacing:0px;fill:#333333;fill-opacity:1;stroke:none;stroke-width:4.8718"
       d="m 28.931852,28.595704 q 2.304718,-1.038002 3.993671,-1.038002 2.850108,0 4.714994,2.005631 1.812105,1.952852 1.812105,4.820554 0,4.785367 -4.609434,7.635475 -3.958484,2.463057 -9.025343,2.463057 -1.266715,0 -1.266715,-1.038003 0,-1.038002 1.548207,-1.178748 4.222383,-0.404645 6.421541,-1.530614 4.521468,-2.32231 4.521468,-6.333574 0,-1.900072 -1.073189,-3.201973 -1.161155,-1.389868 -3.026041,-1.389868 -1.196342,0 -3.008448,0.774103 -1.794512,0.774104 -2.304717,0.774104 -0.950036,0 -0.897256,-1.354681 l 0.281492,-7.899374 q 0.03519,-1.020409 0.299085,-1.425054 0.351866,-0.703731 1.301902,-0.703731 h 9.042936 q 1.301901,0 1.301901,1.125969 0,0.492611 -0.404645,0.844476 -0.387052,0.334272 -0.897256,0.334272 h -8.462359 z" />
  </g>
</svg>
