<?xml version="1.0" encoding="UTF-8" standalone="no"?>
<svg
   xmlns:dc="http://purl.org/dc/elements/1.1/"
   xmlns:cc="http://creativecommons.org/ns#"
   xmlns:rdf="http://www.w3.org/1999/02/22-rdf-syntax-ns#"
   xmlns:svg="http://www.w3.org/2000/svg"
   xmlns="http://www.w3.org/2000/svg"
   height="64"
   width="64"
   version="1.1"
   id="svg2">
  <metadata
     id="metadata8">
    <rdf:RDF>
      <cc:Work
         rdf:about="">
        <dc:format>image/svg+xml</dc:format>
        <dc:type
           rdf:resource="http://purl.org/dc/dcmitype/StillImage" />
        <dc:title />
      </cc:Work>
    </rdf:RDF>
  </metadata>
  <defs
     id="defs6" />
  <path
     id="path836"
     d="M 12,0 H 52 V 46.545454 L 32,64 12,46.545454 Z"
     style="font-style:normal;font-variant:normal;font-weight:normal;font-stretch:normal;font-size:30px;line-height:1.25;font-family:Roboto;font-variant-ligatures:normal;font-variant-caps:normal;font-variant-numeric:normal;font-feature-settings:normal;text-align:start;letter-spacing:0px;word-spacing:0px;writing-mode:lr-tb;text-anchor:start;fill:#333333;fill-opacity:1;stroke:none;stroke-width:1.17004px;stroke-linecap:butt;stroke-linejoin:miter;stroke-opacity:1" />
  <path
     style="font-style:normal;font-variant:normal;font-weight:normal;font-stretch:normal;font-size:30px;line-height:1.25;font-family:Roboto;font-variant-ligatures:normal;font-variant-caps:normal;font-variant-numeric:normal;font-feature-settings:normal;text-align:start;letter-spacing:0px;word-spacing:0px;writing-mode:lr-tb;text-anchor:start;fill:#f2f2f2;fill-opacity:1;stroke:none;stroke-width:1.11154px;stroke-linecap:butt;stroke-linejoin:miter;stroke-opacity:1"
     d="M 16,4 H 48 V 45 L 32,59 16,45 Z"
     id="path858" />
  <g
     transform="translate(59.68473)"
     style="font-style:normal;font-variant:normal;font-weight:normal;font-stretch:normal;font-size:54.7671px;line-height:1.25;font-family:saxMono;-inkscape-font-specification:saxMono;font-variant-ligatures:normal;font-variant-caps:normal;font-variant-numeric:normal;font-feature-settings:normal;text-align:start;letter-spacing:0px;word-spacing:0px;writing-mode:lr-tb;text-anchor:start;fill:#333333;fill-opacity:1;stroke:none;stroke-width:6.84588"
     id="texte"
     aria-label="2">
    <path
       id="path10"
       style="font-style:normal;font-variant:normal;font-weight:normal;font-stretch:normal;font-size:54.7671px;line-height:1.25;font-family:saxMono;-inkscape-font-specification:saxMono;font-variant-ligatures:normal;font-variant-caps:normal;font-variant-numeric:normal;font-feature-settings:normal;text-align:start;letter-spacing:0px;word-spacing:0px;writing-mode:lr-tb;text-anchor:start;fill:#333333;fill-opacity:1;stroke:none;stroke-width:6.84588"
       d="m -33.741737,41.721344 h 14.814929 q 2.567208,0 2.567208,1.791697 0,1.738214 -2.085857,1.738214 h -18.585515 q -1.978889,0 -1.978889,-1.551021 0,-0.695286 0.748769,-1.604505 l 15.777631,-19.066867 q 2.460241,-2.968334 2.460241,-5.562284 0,-2.861367 -2.29979,-4.492614 -2.059115,-1.444054 -5.027449,-1.444054 -3.717103,0 -5.722734,2.326532 -0.962703,1.123154 -2.273049,4.332163 -0.935961,2.326533 -2.059114,2.326533 -1.604505,0 -1.604505,-1.898665 0,-2.166081 1.417312,-4.733289 3.262494,-5.8831849 10.429282,-5.8831849 4.465872,0 7.48769,2.2730489 3.315977,2.513724 3.315977,6.845887 0,3.743845 -3.743845,8.236459 z" />
  </g>
</svg>
