<?xml version="1.0" encoding="UTF-8" standalone="no"?>
<svg
   xmlns:dc="http://purl.org/dc/elements/1.1/"
   xmlns:cc="http://creativecommons.org/ns#"
   xmlns:rdf="http://www.w3.org/1999/02/22-rdf-syntax-ns#"
   xmlns:svg="http://www.w3.org/2000/svg"
   xmlns="http://www.w3.org/2000/svg"
   height="64"
   width="64"
   version="1.1"
   id="svg2">
  <metadata
     id="metadata8">
    <rdf:RDF>
      <cc:Work
         rdf:about="">
        <dc:format>image/svg+xml</dc:format>
        <dc:type
           rdf:resource="http://purl.org/dc/dcmitype/StillImage" />
        <dc:title />
      </cc:Work>
    </rdf:RDF>
  </metadata>
  <defs
     id="defs6" />
  <rect
     y="1.0000699"
     x="1.0000699"
     height="61.999863"
     width="61.999866"
     id="rect2989-6"
     style="fill:#f2f2f2;fill-opacity:1;stroke:#333333;stroke-width:2.00014;stroke-miterlimit:4;stroke-dasharray:none;stroke-opacity:1" />
  <path
     style="fill:none;stroke:#333333;stroke-width:2;stroke-linecap:butt;stroke-linejoin:miter;stroke-miterlimit:4;stroke-dasharray:none;stroke-opacity:1"
     d="M 15,32 H 49"
     id="path1192" />
  <g
     transform="translate(-0.1000225)"
     style="font-style:normal;font-variant:normal;font-weight:normal;font-stretch:normal;font-size:28.8248px;line-height:0.95;font-family:saxMono;-inkscape-font-specification:saxMono;font-variant-ligatures:normal;font-variant-caps:normal;font-variant-numeric:normal;font-feature-settings:normal;text-align:center;letter-spacing:0px;word-spacing:0px;writing-mode:lr-tb;text-anchor:middle;fill:#333333;fill-opacity:1;stroke:none;stroke-width:3.6031"
     id="texte"
     aria-label="7050">
    <path
       id="path12"
       style="text-align:center;text-anchor:middle;stroke-width:3.6031"
       d="m 28.24358,10.539036 h -8.909228 q -1.196342,0 -1.196342,-0.9429989 0,-0.900775 1.196342,-0.900775 h 10.021122 q 1.09782,0 1.09782,0.7741035 0,0.323716 -0.422239,1.3933864 l -6.47432,16.467293 q -0.380015,0.971148 -1.06967,0.971148 -0.830402,0 -0.830402,-0.844476 0,-0.267418 0.295566,-1.013372 z" />
    <path
       id="path14"
       style="text-align:center;text-anchor:middle;stroke-width:3.6031"
       d="m 34.140841,22.389857 v -8.163273 q 0,-2.603803 1.590431,-4.2505324 1.604505,-1.660804 4.405353,-1.660804 2.800847,0 4.363129,1.660804 1.562281,1.6608034 1.562281,4.2505324 v 8.163273 q 0,2.871221 -1.520058,4.391278 -1.520057,1.520058 -4.405352,1.520058 -2.800848,0 -4.405353,-1.562281 -1.590431,-1.562282 -1.590431,-4.349055 z m 9.992973,0 v -8.163273 q 0,-1.787476 -1.083745,-2.913445 -1.069671,-1.140043 -3.054191,-1.140043 -3.926816,0 -3.926816,4.053488 v 8.163273 q 0,1.928222 1.069671,2.997892 1.06967,1.06967 3.011966,1.06967 3.983115,0 3.983115,-4.067562 z" />
    <path
       id="path16"
       style="text-align:center;text-anchor:middle;stroke-width:3.6031"
       d="m 21.642588,42.975379 q 1.843774,-0.830402 3.194936,-0.830402 2.280087,0 3.771996,1.604506 1.449685,1.562281 1.449685,3.856443 0,3.828293 -3.687548,6.10838 -3.166787,1.970446 -7.220275,1.970446 -1.013372,0 -1.013372,-0.830402 0,-0.830402 1.238566,-0.942999 3.377906,-0.323716 5.137232,-1.224491 3.617175,-1.857849 3.617175,-5.06686 0,-1.520058 -0.858551,-2.561579 -0.928924,-1.111894 -2.420833,-1.111894 -0.957074,0 -2.406758,0.619283 -1.43561,0.619283 -1.843774,0.619283 -0.760029,0 -0.717805,-1.083745 l 0.225194,-6.3195 q 0.02815,-0.816327 0.239268,-1.140043 0.281492,-0.562985 1.041521,-0.562985 h 7.234349 q 1.041521,0 1.041521,0.900775 0,0.394089 -0.323716,0.675582 -0.309641,0.267417 -0.717805,0.267417 h -6.769887 z" />
    <path
       id="path18"
       style="text-align:center;text-anchor:middle;stroke-width:3.6031"
       d="m 34.140841,49.773416 v -8.163274 q 0,-2.603803 1.590431,-4.250532 1.604505,-1.660804 4.405353,-1.660804 2.800847,0 4.363129,1.660804 1.562281,1.660804 1.562281,4.250532 v 8.163274 q 0,2.87122 -1.520058,4.391278 -1.520057,1.520058 -4.405352,1.520058 -2.800848,0 -4.405353,-1.562282 -1.590431,-1.562282 -1.590431,-4.349054 z m 9.992973,0 v -8.163274 q 0,-1.787475 -1.083745,-2.913444 -1.069671,-1.140044 -3.054191,-1.140044 -3.926816,0 -3.926816,4.053488 v 8.163274 q 0,1.928221 1.069671,2.997891 1.06967,1.069671 3.011966,1.069671 3.983115,0 3.983115,-4.067562 z" />
  </g>
</svg>
