<?xml version="1.0" encoding="UTF-8" standalone="no"?>
<svg
   xmlns:dc="http://purl.org/dc/elements/1.1/"
   xmlns:cc="http://creativecommons.org/ns#"
   xmlns:rdf="http://www.w3.org/1999/02/22-rdf-syntax-ns#"
   xmlns:svg="http://www.w3.org/2000/svg"
   xmlns="http://www.w3.org/2000/svg"
   xmlns:sodipodi="http://sodipodi.sourceforge.net/DTD/sodipodi-0.dtd"
   xmlns:inkscape="http://www.inkscape.org/namespaces/inkscape"
   id="svg2"
   version="1.1"
   width="64"
   height="64"
   sodipodi:docname="SCH VL A S C.svg"
   inkscape:version="1.0 (4035a4fb49, 2020-05-01)">
  <sodipodi:namedview
     inkscape:document-rotation="0"
     pagecolor="#ffffff"
     bordercolor="#666666"
     borderopacity="1"
     objecttolerance="10"
     gridtolerance="10"
     guidetolerance="10"
     inkscape:pageopacity="0"
     inkscape:pageshadow="2"
     inkscape:window-width="1355"
     inkscape:window-height="812"
     id="namedview17"
     showgrid="true"
     inkscape:zoom="13.109375"
     inkscape:cx="21.30297"
     inkscape:cy="41.024924"
     inkscape:window-x="481"
     inkscape:window-y="178"
     inkscape:window-maximized="0"
     inkscape:current-layer="svg2">
    <inkscape:grid
       type="xygrid"
       id="grid842" />
  </sodipodi:namedview>
  <metadata
     id="metadata8">
    <rdf:RDF>
      <cc:Work
         rdf:about="">
        <dc:format>image/svg+xml</dc:format>
        <dc:type
           rdf:resource="http://purl.org/dc/dcmitype/StillImage" />
        <dc:title></dc:title>
      </cc:Work>
    </rdf:RDF>
  </metadata>
  <defs
     id="defs6" />
  <path
     sodipodi:nodetypes="ccccc"
     d="M 26.500021,34.5 H 37.499979 V 63.49998 H 26.500021 Z"
     style="fill:#ffffff;fill-opacity:1;stroke:#000000;stroke-width:1.00004;stroke-linecap:round;stroke-linejoin:round;stroke-miterlimit:4;stroke-dasharray:none;stroke-opacity:1;paint-order:markers stroke fill;stop-color:#000000"
     id="rect1043" />
  <g
     transform="translate(0,7.000003)"
     style="font-style:normal;font-variant:normal;font-weight:normal;font-stretch:normal;font-size:7.21079px;line-height:1.25;font-family:Roboto;-inkscape-font-specification:Roboto;font-variant-ligatures:normal;font-variant-caps:normal;font-variant-numeric:normal;font-feature-settings:normal;text-align:start;letter-spacing:0px;word-spacing:0px;writing-mode:lr-tb;text-anchor:start;fill:#000000;fill-opacity:1;stroke:none;stroke-width:0.901348"
     id="text1047"
     aria-label="VL">
    <path
       id="path1104"
       style="font-style:normal;font-variant:normal;font-weight:normal;font-stretch:normal;font-family:saxMono;-inkscape-font-specification:saxMono;stroke-width:0.901348"
       d="m 30.007174,33.087755 1.239354,-3.890588 q 0.06338,-0.19717 0.228858,-0.19717 0.228858,0 0.228858,0.19717 0,0.0669 -0.02465,0.144357 l -1.447087,4.503223 q -0.04929,0.154919 -0.228858,0.154919 -0.179566,0 -0.228858,-0.154919 l -1.45765,-4.503223 q -0.02465,-0.07746 -0.02465,-0.144357 0,-0.19717 0.225338,-0.19717 0.15844,0 0.221816,0.19717 z" />
    <path
       id="path1106"
       style="font-style:normal;font-variant:normal;font-weight:normal;font-stretch:normal;font-family:saxMono;-inkscape-font-specification:saxMono;stroke-width:0.901348"
       d="m 32.873181,33.439844 h 2.531523 q 0.302796,0 0.302796,0.2359 0,0.228858 -0.302796,0.228858 h -2.760381 q -0.09506,0 -0.172524,-0.05633 -0.07746,-0.05985 -0.07746,-0.186608 v -4.33422 q 0,-0.327443 0.239421,-0.327443 0.239421,0 0.239421,0.348569 z" />
  </g>
  <g
     style="font-style:normal;font-variant:normal;font-weight:normal;font-stretch:normal;font-size:7.21079px;line-height:1.25;font-family:Roboto;-inkscape-font-specification:Roboto;font-variant-ligatures:normal;font-variant-caps:normal;font-variant-numeric:normal;font-feature-settings:normal;text-align:start;letter-spacing:0px;word-spacing:0px;writing-mode:lr-tb;text-anchor:start;fill:#000000;fill-opacity:1;stroke:none;stroke-width:0.901348"
     id="text1055"
     aria-label="A">
    <path
       id="path1112"
       style="font-style:normal;font-variant:normal;font-weight:normal;font-stretch:normal;font-family:saxMono;-inkscape-font-specification:saxMono;stroke-width:0.901348"
       d="m 32.938694,46.509394 h -1.908325 l -0.271109,1.348502 q -0.02817,0.140836 -0.207732,0.140836 -0.249984,0 -0.2359,-0.19717 0.01056,-0.137315 0.362652,-1.897762 0.323922,-1.605528 0.440112,-2.101974 0.165482,-0.802763 0.880223,-0.802763 0.714741,0 0.880223,0.802763 0.218296,1.031622 0.436591,2.063244 0.369694,1.760447 0.369694,1.897762 0,0.23942 -0.249983,0.23942 -0.19717,0 -0.232379,-0.172523 z M 31.11135,46.044636 h 1.7358 l -0.390819,-1.982264 q -0.116189,-0.598551 -0.482362,-0.598551 -0.218296,0 -0.330964,0.165482 -0.09154,0.137314 -0.15492,0.468278 z" />
  </g>
  <g
     style="font-style:normal;font-variant:normal;font-weight:normal;font-stretch:normal;font-size:7.20975px;line-height:1.25;font-family:Roboto;-inkscape-font-specification:Roboto;font-variant-ligatures:normal;font-variant-caps:normal;font-variant-numeric:normal;font-feature-settings:normal;text-align:start;letter-spacing:0px;word-spacing:0px;writing-mode:lr-tb;text-anchor:start;fill:#000000;fill-opacity:1;stroke:none;stroke-width:0.901218"
     id="text1059"
     aria-label="S">
    <path
       id="path1115"
       style="font-style:normal;font-variant:normal;font-weight:normal;font-stretch:normal;font-family:saxMono;-inkscape-font-specification:saxMono;stroke-width:0.901218"
       d="m 30.345418,51.287052 q 0,-0.658312 0.478773,-0.996269 0.415405,-0.292192 1.10188,-0.292192 1.063157,0 1.520807,0.521017 0.119693,0.137295 0.119693,0.249948 0,0.197141 -0.207702,0.197141 -0.08449,0 -0.256989,-0.116172 -0.168978,-0.116173 -0.387242,-0.218264 -0.373161,-0.168979 -0.827291,-0.168979 -0.443568,0 -0.725199,0.17954 -0.337957,0.211223 -0.337957,0.630149 0,0.496374 0.746322,0.725199 l 1.351828,0.422447 q 0.785046,0.344998 0.785046,1.218053 0,0.675914 -0.556221,1.063157 -0.468212,0.299233 -1.214533,0.299233 -0.457651,0 -0.968106,-0.154897 -0.675915,-0.207703 -0.675915,-0.549181 0,-0.200662 0.204183,-0.200662 0.09857,0 0.45765,0.197142 0.443569,0.242907 1.020912,0.242907 0.499895,0 0.844892,-0.218264 0.408365,-0.256989 0.408365,-0.72872 0,-0.661833 -0.788566,-0.858974 l -1.020912,-0.323876 q -1.073718,-0.285151 -1.073718,-1.119483 z" />
  </g>
  <g
     style="font-style:normal;font-variant:normal;font-weight:normal;font-stretch:normal;font-size:7.21079px;line-height:1.25;font-family:Roboto;-inkscape-font-specification:Roboto;font-variant-ligatures:normal;font-variant-caps:normal;font-variant-numeric:normal;font-feature-settings:normal;text-align:start;letter-spacing:0px;word-spacing:0px;writing-mode:lr-tb;text-anchor:start;fill:#000000;fill-opacity:1;stroke:none;stroke-width:0.901348"
     id="text1063"
     aria-label="C">
    <path
       id="path1118"
       style="font-style:normal;font-variant:normal;font-weight:normal;font-stretch:normal;font-family:saxMono;-inkscape-font-specification:saxMono;stroke-width:0.901348"
       d="m 30.413838,60.51198 v -1.971701 q 0,-1.542151 1.637216,-1.542151 0.665449,0 1.070351,0.295755 0.464758,0.362652 0.464758,0.968246 0,0.292234 -0.2359,0.292234 -0.169002,0 -0.242941,-0.27463 -0.04577,-0.2359 -0.176045,-0.447153 -0.204212,-0.369694 -0.915432,-0.369694 -0.609115,0 -0.873182,0.306318 -0.246462,0.274629 -0.246462,0.897828 v 1.644257 q 0,0.640803 0.260546,0.915432 0.27815,0.309839 0.887265,0.309839 0.918953,0 1.06331,-0.647845 0.05281,-0.23942 0.05633,-0.246462 0.05281,-0.133794 0.186607,-0.133794 0.2359,0 0.2359,0.292234 0,0.580948 -0.489404,0.936558 -0.39434,0.260546 -1.031622,0.260546 -0.756992,0 -1.186541,-0.359131 -0.464758,-0.383778 -0.464758,-1.126686 z" />
  </g>
</svg>
