<?xml version="1.0" encoding="UTF-8" standalone="no"?>
<svg
   xmlns:dc="http://purl.org/dc/elements/1.1/"
   xmlns:cc="http://creativecommons.org/ns#"
   xmlns:rdf="http://www.w3.org/1999/02/22-rdf-syntax-ns#"
   xmlns:svg="http://www.w3.org/2000/svg"
   xmlns="http://www.w3.org/2000/svg"
   id="svg2"
   version="1.1"
   width="64"
   height="64">
  <metadata
     id="metadata8">
    <rdf:RDF>
      <cc:Work
         rdf:about="">
        <dc:format>image/svg+xml</dc:format>
        <dc:type
           rdf:resource="http://purl.org/dc/dcmitype/StillImage" />
        <dc:title />
      </cc:Work>
    </rdf:RDF>
  </metadata>
  <defs
     id="defs6" />
  <rect
     y="1.00007"
     x="1.0000679"
     height="61.999863"
     width="61.999863"
     id="rect2989-6"
     style="fill:#f2f2f2;fill-opacity:1;stroke:#333333;stroke-width:2.00014;stroke-miterlimit:4;stroke-dasharray:none;stroke-opacity:1" />
  <g
     transform="translate(29.633972)"
     style="font-style:normal;font-weight:normal;font-size:36.031px;line-height:1.25;font-family:saxMono;letter-spacing:0px;word-spacing:0px;fill:#333333;fill-opacity:1;stroke:none;stroke-width:4.8718"
     id="texte"
     aria-label="45">
    <path
       id="path9"
       style="font-style:normal;font-weight:normal;font-size:36.031px;line-height:1.25;font-family:saxMono;letter-spacing:0px;word-spacing:0px;fill:#333333;fill-opacity:1;stroke:none;stroke-width:4.8718"
       d="m -5.8324325,39.450746 h -8.0401205 q -1.090782,0 -1.090782,-0.80929 0,-0.439832 0.404645,-1.67136 l 5.1900121,-15.851528 q 0.2990854,-0.914849 0.404645,-1.090782 0.3166786,-0.527798 0.9148495,-0.527798 1.0907822,0 1.0907822,1.038003 0,0.246305 -0.1759326,0.80929 l -4.9788932,15.781155 h 6.2807945 v -9.76426 q 0,-1.354681 1.213935,-1.354681 1.1787485,0 1.1787485,1.354681 v 9.76426 h 2.51583626 q 1.33708783,0 1.33708783,1.161155 0,1.161155 -1.33708783,1.161155 H -3.439749 v 3.676991 q 0,1.354682 -1.1963418,1.354682 -1.1963417,0 -1.1963417,-1.354682 z" />
    <path
       id="path11"
       style="font-style:normal;font-weight:normal;font-size:36.031px;line-height:1.25;font-family:saxMono;letter-spacing:0px;word-spacing:0px;fill:#333333;fill-opacity:1;stroke:none;stroke-width:4.8718"
       d="m 9.1746197,28.595704 q 2.3047173,-1.038002 3.9936703,-1.038002 2.850108,0 4.714994,2.005631 1.812106,1.952852 1.812106,4.820554 0,4.785367 -4.609435,7.635475 -3.958483,2.463057 -9.0253425,2.463057 -1.2667147,0 -1.2667147,-1.038003 0,-1.038002 1.5482069,-1.178748 4.2223823,-0.404645 6.4215403,-1.530614 4.521468,-2.32231 4.521468,-6.333574 0,-1.900072 -1.073189,-3.201973 -1.161155,-1.389868 -3.026041,-1.389868 -1.196342,0 -3.008447,0.774103 -1.794513,0.774104 -2.3047176,0.774104 -0.9500361,0 -0.8972563,-1.354681 l 0.2814922,-7.899374 q 0.035187,-1.020409 0.2990854,-1.425054 0.3518652,-0.703731 1.3019013,-0.703731 h 9.042936 q 1.301901,0 1.301901,1.125969 0,0.492611 -0.404645,0.844476 -0.387051,0.334272 -0.897256,0.334272 H 9.4385186 Z" />
  </g>
</svg>
