<?xml version="1.0" encoding="UTF-8"?>
<svg xmlns="http://www.w3.org/2000/svg" xmlns:xlink="http://www.w3.org/1999/xlink" width="128px" height="128px" viewBox="0 0 128 128" version="1.1">
<g id="surface1">
<rect y="0" x="0" height="128" width="128" id="rect842" style="fill:#ffffff;fill-opacity:0;stroke:none;stroke-width:9.14344" />
<path style="fill-rule:nonzero;fill:rgb(100%,100%,100%);fill-opacity:1;stroke-width:1.00004;stroke-linecap:round;stroke-linejoin:round;stroke:rgb(0%,0%,0%);stroke-opacity:1;stroke-miterlimit:4;" d="M 26.5 34.5 L 37.5 34.5 L 37.5 63.5 L 26.5 63.5 Z M 26.5 34.5 " transform="matrix(2,0,0,2,0,0)"/>
<path style=" stroke:none;fill-rule:nonzero;fill:rgb(0%,0%,0%);fill-opacity:1;" d="M 60.828125 121.023438 L 60.828125 117.082031 C 60.828125 115.023438 61.917969 113.996094 64.101562 113.996094 C 64.988281 113.996094 65.703125 114.195312 66.242188 114.585938 C 66.863281 115.070312 67.171875 115.71875 67.171875 116.523438 C 67.171875 116.914062 67.015625 117.109375 66.699219 117.109375 C 66.476562 117.109375 66.3125 116.925781 66.214844 116.558594 C 66.152344 116.246094 66.035156 115.945312 65.863281 115.664062 C 65.589844 115.171875 64.980469 114.925781 64.03125 114.925781 C 63.21875 114.925781 62.636719 115.128906 62.285156 115.539062 C 61.957031 115.90625 61.792969 116.503906 61.792969 117.335938 L 61.792969 120.621094 C 61.792969 121.476562 61.964844 122.085938 62.3125 122.453125 C 62.683594 122.867188 63.277344 123.074219 64.089844 123.074219 C 65.3125 123.074219 66.023438 122.640625 66.214844 121.777344 C 66.285156 121.457031 66.324219 121.292969 66.328125 121.285156 C 66.398438 121.105469 66.523438 121.015625 66.699219 121.015625 C 67.015625 121.015625 67.171875 121.210938 67.171875 121.601562 C 67.171875 122.375 66.847656 123 66.195312 123.472656 C 65.667969 123.820312 64.980469 123.996094 64.128906 123.996094 C 63.121094 123.996094 62.328125 123.757812 61.757812 123.277344 C 61.136719 122.765625 60.828125 122.015625 60.828125 121.023438 Z M 60.828125 121.023438 "/>
</g>
</svg>
