<?xml version="1.0" encoding="UTF-8" standalone="no"?>
<svg
   xmlns:dc="http://purl.org/dc/elements/1.1/"
   xmlns:cc="http://creativecommons.org/ns#"
   xmlns:rdf="http://www.w3.org/1999/02/22-rdf-syntax-ns#"
   xmlns:svg="http://www.w3.org/2000/svg"
   xmlns="http://www.w3.org/2000/svg"
   height="64"
   width="64"
   version="1.1"
   id="svg2">
  <metadata
     id="metadata8">
    <rdf:RDF>
      <cc:Work
         rdf:about="">
        <dc:format>image/svg+xml</dc:format>
        <dc:type
           rdf:resource="http://purl.org/dc/dcmitype/StillImage" />
        <dc:title />
      </cc:Work>
    </rdf:RDF>
  </metadata>
  <defs
     id="defs6" />
  <path
     d="M 23.334572,-21.920263 H 67.175095 V 21.920259 H 23.334572 Z"
     transform="rotate(45.000001)"
     style="fill:#f2f2f2;fill-opacity:1;stroke:#333333;stroke-width:1.41431;stroke-miterlimit:4;stroke-dasharray:none;stroke-opacity:1"
     id="rect2989-6" />
  <g
     transform="translate(31.708593)"
     style="font-style:normal;font-variant:normal;font-weight:normal;font-stretch:normal;font-size:28.8248px;line-height:1.25;font-family:saxMono;-inkscape-font-specification:saxMono;letter-spacing:0px;word-spacing:0px;fill:#333333;fill-opacity:1;stroke:none;stroke-width:0.720619"
     id="texte"
     aria-label="3">
    <path
       id="path9"
       style="font-style:normal;font-variant:normal;font-weight:normal;font-stretch:normal;font-size:28.8248px;line-height:1.25;font-family:saxMono;-inkscape-font-specification:saxMono;letter-spacing:0px;word-spacing:0px;fill:#333333;fill-opacity:1;stroke:none;stroke-width:0.720619"
       d="m 3.3526344,24.237843 h -7.318797 q -1.224491,0 -1.224491,-0.942999 0,-0.900775 1.224491,-0.900775 h 9.0218248 q 1.0978195,0 1.0978195,0.745954 0,0.39409 -0.2674176,0.717806 L 1.5088605,29.20618 q 0.4081637,-0.08445 0.8022528,-0.08445 1.8578485,0 2.9415934,1.168192 1.0978196,1.154118 1.0978196,3.011967 0,3.57495 -3.6734732,6.235052 -3.36383165,2.448982 -7.065454,2.448982 -1.3793117,0 -1.3793117,-0.830402 0,-0.844477 1.154118,-0.844477 2.125266,0 3.84236839,-0.760029 1.99859461,-0.872626 3.46235401,-2.392683 1.7452515,-1.80155 1.7452515,-3.687548 0,-1.027447 -0.6755812,-1.759326 -0.6615067,-0.745955 -1.6748786,-0.745955 -0.7881781,0 -1.91414687,0.478537 -1.12596877,0.478537 -1.40746093,0.478537 -0.6615067,0 -0.6615067,-0.802253 0,-0.450387 0.3377906,-0.858551 z" />
  </g>
</svg>
