<?xml version="1.0" encoding="UTF-8" standalone="no"?>
<svg
   xmlns:dc="http://purl.org/dc/elements/1.1/"
   xmlns:cc="http://creativecommons.org/ns#"
   xmlns:rdf="http://www.w3.org/1999/02/22-rdf-syntax-ns#"
   xmlns:svg="http://www.w3.org/2000/svg"
   xmlns="http://www.w3.org/2000/svg"
   id="svg2"
   version="1.1"
   width="64"
   height="64">
  <metadata
     id="metadata8">
    <rdf:RDF>
      <cc:Work
         rdf:about="">
        <dc:format>image/svg+xml</dc:format>
        <dc:type
           rdf:resource="http://purl.org/dc/dcmitype/StillImage" />
        <dc:title></dc:title>
      </cc:Work>
    </rdf:RDF>
  </metadata>
  <defs
     id="defs6" />
  <path
     d="M 26.499962,20.499961 H 37.500038 V 63.500038 H 26.499962 Z"
     style="fill:#ffffff;fill-opacity:1;stroke:#000000;stroke-width:0.999924;stroke-linecap:round;stroke-linejoin:round;stroke-miterlimit:4;stroke-dasharray:none;stroke-opacity:1;paint-order:markers stroke fill;stop-color:#000000"
     id="rect1043" />
  <g
     style="font-style:normal;font-variant:normal;font-weight:normal;font-stretch:normal;font-size:7.21079px;line-height:1.25;font-family:Roboto;-inkscape-font-specification:Roboto;font-variant-ligatures:normal;font-variant-caps:normal;font-variant-numeric:normal;font-feature-settings:normal;text-align:start;letter-spacing:0px;word-spacing:0px;writing-mode:lr-tb;text-anchor:start;fill:#000000;fill-opacity:1;stroke:none;stroke-width:0.901348"
     id="text1047"
     aria-label="VL">
    <path
       id="path1146"
       style="font-style:normal;font-variant:normal;font-weight:normal;font-stretch:normal;font-family:saxMono;-inkscape-font-specification:saxMono;stroke-width:0.901348"
       d="m 30.007174,26.087757 1.239354,-3.890588 q 0.06338,-0.19717 0.228858,-0.19717 0.228858,0 0.228858,0.19717 0,0.0669 -0.02465,0.144357 l -1.447087,4.503223 q -0.04929,0.154919 -0.228858,0.154919 -0.179566,0 -0.228858,-0.154919 l -1.45765,-4.503223 q -0.02465,-0.07746 -0.02465,-0.144357 0,-0.19717 0.225338,-0.19717 0.15844,0 0.221816,0.19717 z" />
    <path
       id="path1148"
       style="font-style:normal;font-variant:normal;font-weight:normal;font-stretch:normal;font-family:saxMono;-inkscape-font-specification:saxMono;stroke-width:0.901348"
       d="m 32.873181,26.439846 h 2.531523 q 0.302796,0 0.302796,0.2359 0,0.228858 -0.302796,0.228858 h -2.760381 q -0.09506,0 -0.172524,-0.05633 -0.07746,-0.05986 -0.07746,-0.186608 v -4.33422 q 0,-0.327443 0.239421,-0.327443 0.239421,0 0.239421,0.348569 z" />
  </g>
  <g
     style="font-style:normal;font-variant:normal;font-weight:normal;font-stretch:normal;font-size:7.20978px;line-height:1.25;font-family:Roboto;-inkscape-font-specification:Roboto;font-variant-ligatures:normal;font-variant-caps:normal;font-variant-numeric:normal;font-feature-settings:normal;text-align:start;letter-spacing:0px;word-spacing:0px;writing-mode:lr-tb;text-anchor:start;fill:#000000;fill-opacity:1;stroke:none;stroke-width:0.901222"
     id="text1051"
     aria-label="A">
    <path
       id="path1151"
       style="font-style:normal;font-variant:normal;font-weight:normal;font-stretch:normal;font-family:saxMono;-inkscape-font-specification:saxMono;stroke-width:0.901222"
       d="m 32.938562,32.509375 h -1.908057 l -0.271071,1.348314 q -0.02816,0.140816 -0.207704,0.140816 -0.249948,0 -0.235867,-0.197143 0.01056,-0.137295 0.362602,-1.897496 0.323877,-1.605302 0.44005,-2.101679 0.165459,-0.802651 0.8801,-0.802651 0.714641,0 0.8801,0.802651 0.218265,1.031478 0.43653,2.062955 0.369642,1.7602 0.369642,1.897496 0,0.239387 -0.249949,0.239387 -0.197142,0 -0.232346,-0.1725 z m -1.827088,-0.464693 h 1.735557 l -0.390764,-1.981985 q -0.116173,-0.598468 -0.482295,-0.598468 -0.218265,0 -0.330918,0.165459 -0.09153,0.137295 -0.154897,0.468213 z" />
  </g>
  <g
     style="font-style:normal;font-variant:normal;font-weight:normal;font-stretch:normal;font-size:7.21079px;line-height:1.25;font-family:Roboto;-inkscape-font-specification:Roboto;font-variant-ligatures:normal;font-variant-caps:normal;font-variant-numeric:normal;font-feature-settings:normal;text-align:start;letter-spacing:0px;word-spacing:0px;writing-mode:lr-tb;text-anchor:start;fill:#000000;fill-opacity:1;stroke:none;stroke-width:0.901348"
     id="text1055"
     aria-label="RR"
     transform="translate(1.002e-4)">
    <g
       aria-label="M"
       transform="scale(0.99997055,1.0000294)"
       id="text848"
       style="font-style:normal;font-variant:normal;font-weight:normal;font-stretch:normal;font-size:7.21106px;line-height:1.25;font-family:saxMono;-inkscape-font-specification:saxMono;font-variant-ligatures:normal;font-variant-caps:normal;font-variant-numeric:normal;font-feature-settings:normal;text-align:start;letter-spacing:0px;word-spacing:0px;writing-mode:lr-tb;text-anchor:start;fill:#000000;fill-opacity:1;stroke:none;stroke-width:0.812459">
      <path
         d="m 32.043095,38.946038 1.140812,-2.742878 q 0.0845,-0.20422 0.271119,-0.20422 0.228866,0 0.228866,0.316892 v 4.422408 q 0,0.260556 -0.232387,0.260556 -0.249993,0 -0.249993,-0.323934 v -3.471731 l -0.943635,2.218246 q -0.08803,0.20774 -0.225346,0.20774 -0.151404,0 -0.24295,-0.20774 l -0.989408,-2.218246 v 3.535109 q 0,0.260556 -0.23943,0.260556 -0.242951,0 -0.242951,-0.292245 v -4.387198 q 0,-0.320413 0.257035,-0.320413 0.165488,0 0.246472,0.186614 z"
         style="stroke-width:0.812459"
         id="path862" />
    </g>
  </g>
  <g
     style="font-style:normal;font-variant:normal;font-weight:normal;font-stretch:normal;font-size:7.21079px;line-height:1.25;font-family:Roboto;-inkscape-font-specification:Roboto;font-variant-ligatures:normal;font-variant-caps:normal;font-variant-numeric:normal;font-feature-settings:normal;text-align:start;letter-spacing:0px;word-spacing:0px;writing-mode:lr-tb;text-anchor:start;fill:#000000;fill-opacity:1;stroke:none;stroke-width:0.901348"
     id="text1063"
     aria-label="S">
    <path
       id="path1162"
       style="font-style:normal;font-variant:normal;font-weight:normal;font-stretch:normal;font-family:saxMono;-inkscape-font-specification:saxMono;stroke-width:0.901348"
       d="m 30.34518,51.288652 q 0,-0.658407 0.478841,-0.996413 0.415466,-0.292234 1.10204,-0.292234 1.06331,0 1.521026,0.521092 0.11971,0.137315 0.11971,0.249984 0,0.19717 -0.207732,0.19717 -0.0845,0 -0.257026,-0.11619 -0.169002,-0.116189 -0.387298,-0.218295 -0.373215,-0.169003 -0.82741,-0.169003 -0.443632,0 -0.725304,0.179565 -0.338006,0.211254 -0.338006,0.63024 0,0.496446 0.74643,0.725304 l 1.352023,0.422508 q 0.785159,0.345047 0.785159,1.218229 0,0.676011 -0.556301,1.06331 -0.468279,0.299276 -1.214708,0.299276 -0.457716,0 -0.968246,-0.15492 -0.676012,-0.207732 -0.676012,-0.549259 0,-0.200691 0.204212,-0.200691 0.09858,0 0.457716,0.19717 0.443633,0.242942 1.02106,0.242942 0.499966,0 0.845014,-0.218296 0.408424,-0.257025 0.408424,-0.728825 0,-0.661928 -0.788681,-0.859098 L 31.419052,52.408296 Q 30.34518,52.123104 30.34518,51.288652 Z" />
  </g>
  <path
     d="m 35.5,45.501237 a 3.5,3.5 0 0 1 -3.5,3.5 3.5,3.5 0 0 1 -3.5,-3.5 3.5,3.5 0 0 1 3.5,-3.5 3.5,3.5 0 0 1 3.5,3.5 z"
     style="fill:none;fill-opacity:1;stroke:#000000;stroke-width:0.5;stroke-linecap:round;stroke-linejoin:round;stroke-miterlimit:4;stroke-dasharray:none;stroke-opacity:1;paint-order:markers stroke fill;stop-color:#000000"
     id="path1143" />
  <g
     aria-label="RR"
     id="g854"
     style="font-style:normal;font-variant:normal;font-weight:normal;font-stretch:normal;font-size:7.21079px;line-height:1.25;font-family:Roboto;-inkscape-font-specification:Roboto;font-variant-ligatures:normal;font-variant-caps:normal;font-variant-numeric:normal;font-feature-settings:normal;text-align:start;letter-spacing:0px;word-spacing:0px;writing-mode:lr-tb;text-anchor:start;fill:#000000;fill-opacity:1;stroke:none;stroke-width:0.901348"
     transform="translate(1.002e-4,7.0000015)">
    <g
       aria-label="M"
       transform="scale(0.99997055,1.0000294)"
       id="text852"
       style="font-style:normal;font-variant:normal;font-weight:normal;font-stretch:normal;font-size:7.21106px;line-height:1.25;font-family:saxMono;-inkscape-font-specification:saxMono;font-variant-ligatures:normal;font-variant-caps:normal;font-variant-numeric:normal;font-feature-settings:normal;text-align:start;letter-spacing:0px;word-spacing:0px;writing-mode:lr-tb;text-anchor:start;fill:#000000;fill-opacity:1;stroke:none;stroke-width:0.812459">
      <path
         d="m 32.043095,38.946038 1.140812,-2.742878 q 0.0845,-0.20422 0.271119,-0.20422 0.228866,0 0.228866,0.316892 v 4.422408 q 0,0.260556 -0.232387,0.260556 -0.249993,0 -0.249993,-0.323934 v -3.471731 l -0.943635,2.218246 q -0.08803,0.20774 -0.225346,0.20774 -0.151404,0 -0.24295,-0.20774 l -0.989408,-2.218246 v 3.535109 q 0,0.260556 -0.23943,0.260556 -0.242951,0 -0.242951,-0.292245 v -4.387198 q 0,-0.320413 0.257035,-0.320413 0.165488,0 0.246472,0.186614 z"
         style="stroke-width:0.812459"
         id="path865" />
    </g>
  </g>
  <g
     transform="translate(0,21.000002)"
     style="font-style:normal;font-variant:normal;font-weight:normal;font-stretch:normal;font-size:7.21079px;line-height:1.25;font-family:Roboto;-inkscape-font-specification:Roboto;font-variant-ligatures:normal;font-variant-caps:normal;font-variant-numeric:normal;font-feature-settings:normal;text-align:start;letter-spacing:0px;word-spacing:0px;writing-mode:lr-tb;text-anchor:start;fill:#000000;fill-opacity:1;stroke:none;stroke-width:0.901348"
     id="g860"
     aria-label="RR">
    <g
       aria-label="Cv"
       transform="scale(0.99997059,1.0000294)"
       id="text858"
       style="font-style:normal;font-variant:normal;font-weight:normal;font-stretch:normal;font-size:7.21106px;line-height:1.25;font-family:saxMono;-inkscape-font-specification:saxMono;font-variant-ligatures:normal;font-variant-caps:normal;font-variant-numeric:normal;font-feature-settings:normal;text-align:start;letter-spacing:0px;word-spacing:0px;writing-mode:lr-tb;text-anchor:start;fill:#000000;fill-opacity:1;stroke:none;stroke-width:0.812459">
      <path
         d="m 28.449987,39.512923 v -1.971774 q 0,-1.542209 1.637277,-1.542209 0.665474,0 1.070392,0.295766 0.464775,0.362666 0.464775,0.968282 0,0.292245 -0.235909,0.292245 -0.169009,0 -0.24295,-0.27464 -0.04577,-0.235908 -0.176052,-0.44717 -0.204219,-0.369708 -0.915466,-0.369708 -0.609138,0 -0.873215,0.30633 -0.246471,0.27464 -0.246471,0.897861 v 1.644319 q 0,0.640827 0.260556,0.915467 0.278161,0.30985 0.887298,0.30985 0.918988,0 1.06335,-0.647869 0.05282,-0.23943 0.05634,-0.246472 0.05281,-0.133799 0.186614,-0.133799 0.235909,0 0.235909,0.292246 0,0.580969 -0.489422,0.936592 -0.394355,0.260556 -1.031661,0.260556 -0.75702,0 -1.186586,-0.359144 -0.464775,-0.383792 -0.464775,-1.126729 z"
         style="stroke-width:0.812459"
         id="path868" />
      <path
         d="m 33.939266,40.241776 1.147854,-2.764005 q 0.07394,-0.176052 0.232388,-0.176052 0.232387,0 0.232387,0.200699 0,0.06338 -0.05282,0.190135 l -1.278132,3.05625 q -0.09507,0.225346 -0.278161,0.225346 -0.183093,0 -0.278161,-0.225346 l -1.288695,-3.059771 q -0.04577,-0.109152 -0.04577,-0.176051 0,-0.08451 0.06338,-0.147883 0.0669,-0.06338 0.154925,-0.06338 0.161967,0 0.242951,0.197178 z"
         style="stroke-width:0.812459"
         id="path870" />
    </g>
    <rect
       style="fill:#ffffff;fill-opacity:0;stroke-width:16"
       id="rect836"
       width="64"
       height="64"
       x="0"
       y="-21.000002" />
  </g>
</svg>
