<?xml version="1.0" encoding="UTF-8" standalone="no"?>
<svg
   xmlns:dc="http://purl.org/dc/elements/1.1/"
   xmlns:cc="http://creativecommons.org/ns#"
   xmlns:rdf="http://www.w3.org/1999/02/22-rdf-syntax-ns#"
   xmlns:svg="http://www.w3.org/2000/svg"
   xmlns="http://www.w3.org/2000/svg"
   height="64"
   width="64"
   version="1.1"
   id="svg2">
  <metadata
     id="metadata8">
    <rdf:RDF>
      <cc:Work
         rdf:about="">
        <dc:format>image/svg+xml</dc:format>
        <dc:type
           rdf:resource="http://purl.org/dc/dcmitype/StillImage" />
        <dc:title></dc:title>
      </cc:Work>
    </rdf:RDF>
  </metadata>
  <defs
     id="defs6" />
  <g
     style="fill:#ffffff;fill-opacity:1"
     transform="translate(-107.73191,-4.8418837)"
     id="g3769">
    <path
       id="path851"
       d="m 109.27223,67.889986 30.45975,-60.91981 30.45975,60.91981 z"
       style="fill:#ffffff;fill-opacity:1;stroke:#000000;stroke-width:1.90374;stroke-linecap:butt;stroke-linejoin:miter;stroke-miterlimit:4;stroke-dasharray:none;stroke-opacity:1" />
  </g>
  <g
     aria-label="M"
     id="text834"
     style="font-style:normal;font-variant:normal;font-weight:normal;font-stretch:normal;font-size:25.9606px;line-height:1.25;font-family:saxMono;-inkscape-font-specification:saxMono;letter-spacing:0px;word-spacing:0px;fill:#000000;fill-opacity:1;stroke:none;stroke-width:0.649014">
    <path
       d="m 32.152112,31.609875 4.107048,-9.874662 q 0.304226,-0.735212 0.976058,-0.735212 0.823945,0 0.823945,1.140846 v 15.92115 q 0,0.938029 -0.836621,0.938029 -0.900001,0 -0.900001,-1.166199 V 25.335218 l -3.397188,7.985927 q -0.316902,0.747888 -0.811269,0.747888 -0.545071,0 -0.874649,-0.747888 l -3.561977,-7.985927 v 12.726779 q 0,0.938029 -0.861973,0.938029 -0.874649,0 -0.874649,-1.052114 V 22.153523 q 0,-1.153522 0.925353,-1.153522 0.595776,0 0.887325,0.671832 z"
       style="stroke-width:0.649014"
       id="path858" />
  </g>
  <g
     aria-label="Nf"
     id="text838"
     style="font-style:normal;font-variant:normal;font-weight:normal;font-stretch:normal;font-size:25.9606px;line-height:1.25;font-family:saxMono;-inkscape-font-specification:saxMono;letter-spacing:0px;word-spacing:0px;fill:#000000;fill-opacity:1;stroke:none;stroke-width:0.649014">
    <path
       d="M 29.12253,55.147908 V 41.964791 q 0,-1.191551 0.836621,-1.191551 0.887326,0 0.887326,1.191551 v 15.908473 q 0,0.900001 -0.861973,0.900001 -0.595776,0 -0.925354,-0.545071 L 20.819702,44.411273 v 13.385934 q 0,0.976058 -0.912677,0.976058 -0.823945,0 -0.823945,-0.976058 V 41.964791 q 0,-1.191551 0.836621,-1.191551 0.519719,0 0.912677,0.659156 z"
       style="stroke-width:0.649014"
       id="path861" />
    <path
       d="m 36.423949,47.339446 h -1.800002 q -0.963382,0 -0.963382,-0.823945 0,-0.798592 0.963382,-0.798592 h 1.800002 V 44.1324 q 0,-4.132401 4.221133,-4.132401 1.698594,0 2.839441,0.621128 1.432396,0.887325 1.432396,2.522539 0,1.06479 -0.836621,1.06479 -0.557747,0 -0.861973,-0.633804 -0.35493,-1.06479 -0.608452,-1.318311 -0.507042,-0.633804 -1.977467,-0.633804 -2.560567,0 -2.560567,2.547891 v 1.546481 h 3.333807 q 1.077467,0 1.077467,0.811269 0,0.811268 -1.077467,0.811268 h -3.333807 v 10.381705 q 0,0.963382 -0.836621,0.963382 -0.811269,0 -0.811269,-0.963382 z"
       style="stroke-width:0.649014"
       id="path863" />
  </g>
</svg>
