<?xml version="1.0" encoding="UTF-8" standalone="no"?>
<svg
   xmlns:dc="http://purl.org/dc/elements/1.1/"
   xmlns:cc="http://creativecommons.org/ns#"
   xmlns:rdf="http://www.w3.org/1999/02/22-rdf-syntax-ns#"
   xmlns:svg="http://www.w3.org/2000/svg"
   xmlns="http://www.w3.org/2000/svg"
   height="64"
   width="64"
   version="1.1"
   id="svg2">
  <metadata
     id="metadata8">
    <rdf:RDF>
      <cc:Work
         rdf:about="">
        <dc:format>image/svg+xml</dc:format>
        <dc:type
           rdf:resource="http://purl.org/dc/dcmitype/StillImage" />
        <dc:title />
      </cc:Work>
    </rdf:RDF>
  </metadata>
  <defs
     id="defs6" />
  <rect
     y="1.0000699"
     x="1.0000699"
     height="61.999863"
     width="61.999866"
     id="rect2989-6"
     style="fill:#f2f2f2;fill-opacity:1;stroke:#333333;stroke-width:2.00014;stroke-miterlimit:4;stroke-dasharray:none;stroke-opacity:1" />
  <path
     style="fill:none;stroke:#333333;stroke-width:2;stroke-linecap:butt;stroke-linejoin:miter;stroke-miterlimit:4;stroke-dasharray:none;stroke-opacity:1"
     d="M 15,32 H 49"
     id="path1192" />
  <g
     transform="translate(-0.0015005)"
     style="font-style:normal;font-variant:normal;font-weight:normal;font-stretch:normal;font-size:28.8248px;line-height:0.95;font-family:saxMono;-inkscape-font-specification:saxMono;font-variant-ligatures:normal;font-variant-caps:normal;font-variant-numeric:normal;font-feature-settings:normal;text-align:center;letter-spacing:0px;word-spacing:0px;writing-mode:lr-tb;text-anchor:middle;fill:#333333;fill-opacity:1;stroke:none;stroke-width:3.6031"
     id="texte"
     aria-label="3035">
    <path
       id="path12"
       style="text-align:center;text-anchor:middle;stroke-width:3.6031"
       d="m 27.061313,10.553111 h -7.318797 q -1.224491,0 -1.224491,-0.9429993 0,-0.900775 1.224491,-0.900775 h 9.021824 q 1.09782,0 1.09782,0.7459543 0,0.3940891 -0.267418,0.717805 l -4.377203,5.348352 q 0.408163,-0.08445 0.802253,-0.08445 1.857848,0 2.941593,1.168193 1.09782,1.154118 1.09782,3.011966 0,3.574951 -3.673474,6.235052 -3.363831,2.448982 -7.065454,2.448982 -1.379311,0 -1.379311,-0.830402 0,-0.844476 1.154118,-0.844476 2.125266,0 3.842368,-0.760029 1.998595,-0.872626 3.462354,-2.392684 1.745252,-1.80155 1.745252,-3.687548 0,-1.027446 -0.675582,-1.759326 -0.661506,-0.745954 -1.674878,-0.745954 -0.788178,0 -1.914147,0.478537 -1.125969,0.478536 -1.407461,0.478536 -0.661507,0 -0.661507,-0.802252 0,-0.450388 0.337791,-0.858552 z" />
    <path
       id="path14"
       style="text-align:center;text-anchor:middle;stroke-width:3.6031"
       d="m 34.140841,22.389857 v -8.163273 q 0,-2.603803 1.590431,-4.2505324 1.604505,-1.660804 4.405353,-1.660804 2.800847,0 4.363129,1.660804 1.562281,1.6608034 1.562281,4.2505324 v 8.163273 q 0,2.871221 -1.520058,4.391278 -1.520057,1.520058 -4.405352,1.520058 -2.800848,0 -4.405353,-1.562281 -1.590431,-1.562282 -1.590431,-4.349055 z m 9.992973,0 v -8.163273 q 0,-1.787476 -1.083745,-2.913445 -1.069671,-1.140043 -3.054191,-1.140043 -3.926816,0 -3.926816,4.053488 v 8.163273 q 0,1.928222 1.069671,2.997892 1.06967,1.06967 3.011966,1.06967 3.983115,0 3.983115,-4.067562 z" />
    <path
       id="path16"
       style="text-align:center;text-anchor:middle;stroke-width:3.6031"
       d="m 27.061313,37.936669 h -7.318797 q -1.224491,0 -1.224491,-0.942999 0,-0.900775 1.224491,-0.900775 h 9.021824 q 1.09782,0 1.09782,0.745954 0,0.394089 -0.267418,0.717805 l -4.377203,5.348352 q 0.408163,-0.08445 0.802253,-0.08445 1.857848,0 2.941593,1.168193 1.09782,1.154118 1.09782,3.011966 0,3.574951 -3.673474,6.235052 -3.363831,2.448983 -7.065454,2.448983 -1.379311,0 -1.379311,-0.830402 0,-0.844477 1.154118,-0.844477 2.125266,0 3.842368,-0.760029 1.998595,-0.872626 3.462354,-2.392684 1.745252,-1.80155 1.745252,-3.687547 0,-1.027447 -0.675582,-1.759326 -0.661506,-0.745955 -1.674878,-0.745955 -0.788178,0 -1.914147,0.478537 -1.125969,0.478537 -1.407461,0.478537 -0.661507,0 -0.661507,-0.802253 0,-0.450388 0.337791,-0.858551 z" />
    <path
       id="path18"
       style="text-align:center;text-anchor:middle;stroke-width:3.6031"
       d="m 37.448374,42.975379 q 1.843774,-0.830402 3.194936,-0.830402 2.280087,0 3.771996,1.604506 1.449685,1.562281 1.449685,3.856443 0,3.828293 -3.687548,6.10838 -3.166787,1.970446 -7.220275,1.970446 -1.013372,0 -1.013372,-0.830402 0,-0.830402 1.238566,-0.942999 3.377906,-0.323716 5.137232,-1.224491 3.617175,-1.857849 3.617175,-5.06686 0,-1.520058 -0.858551,-2.561579 -0.928924,-1.111894 -2.420833,-1.111894 -0.957073,0 -2.406758,0.619283 -1.43561,0.619283 -1.843774,0.619283 -0.760029,0 -0.717805,-1.083745 l 0.225194,-6.3195 q 0.02815,-0.816327 0.239268,-1.140043 0.281492,-0.562985 1.041521,-0.562985 h 7.234349 q 1.041522,0 1.041522,0.900775 0,0.394089 -0.323716,0.675582 -0.309642,0.267417 -0.717806,0.267417 h -6.769887 z" />
  </g>
</svg>
