<?xml version="1.0" encoding="UTF-8" standalone="no"?>
<svg
   xmlns:dc="http://purl.org/dc/elements/1.1/"
   xmlns:cc="http://creativecommons.org/ns#"
   xmlns:rdf="http://www.w3.org/1999/02/22-rdf-syntax-ns#"
   xmlns:svg="http://www.w3.org/2000/svg"
   xmlns="http://www.w3.org/2000/svg"
   height="64"
   width="64"
   version="1.1"
   id="svg2">
  <metadata
     id="metadata8">
    <rdf:RDF>
      <cc:Work
         rdf:about="">
        <dc:format>image/svg+xml</dc:format>
        <dc:type
           rdf:resource="http://purl.org/dc/dcmitype/StillImage" />
        <dc:title></dc:title>
      </cc:Work>
    </rdf:RDF>
  </metadata>
  <defs
     id="defs6" />
  <rect
     style="fill:#f2f2f2;fill-opacity:1;stroke:#333333;stroke-width:2.00014;stroke-miterlimit:4;stroke-dasharray:none;stroke-opacity:1"
     id="rect2989-6"
     width="61.999863"
     height="61.999863"
     x="1.0000679"
     y="1.00007" />
  <g
     style="font-style:normal;font-variant:normal;font-weight:normal;font-stretch:normal;font-size:36.0563px;line-height:1.25;font-family:Roboto;-inkscape-font-specification:Roboto;font-variant-ligatures:normal;font-variant-caps:normal;font-variant-numeric:normal;font-feature-settings:normal;text-align:start;letter-spacing:0px;word-spacing:0px;writing-mode:lr-tb;text-anchor:start;fill:#333333;fill-opacity:1;stroke:none;stroke-width:4.50704"
     id="text836"
     aria-label="65">
    <path
       id="path838"
       style="font-style:normal;font-variant:normal;font-weight:normal;font-stretch:normal;font-family:saxMono;-inkscape-font-specification:saxMono;stroke-width:4.50704"
       d="m 17.616212,32.528168 q 1.954223,-2.218307 5.158446,-2.218307 2.957743,0 4.929572,2.042251 1.989435,2.024646 1.989435,4.999995 0,3.080983 -2.112674,5.123234 -2.112674,2.024646 -5.211263,2.024646 -3.714785,0 -5.721825,-2.429575 -1.866195,-2.253519 -1.866195,-6.021121 0,-7.975344 6.672528,-13.626746 3.450701,-2.922532 5.158446,-2.922532 0.915492,0 0.915492,0.968308 0,0.510563 -0.475352,0.897887 -0.07042,0.05282 -0.933097,0.56338 -7.059852,4.17253 -8.503513,10.59858 z m 4.753516,0.12324 q -2.235913,0 -3.661968,1.179576 -1.531688,1.249998 -1.531688,3.4507 0,2.183097 1.426055,3.556335 1.44366,1.355632 3.644362,1.355632 2.183096,0 3.609151,-1.320421 1.426055,-1.320421 1.426055,-3.485912 0,-2.147885 -1.373238,-3.433095 -1.373238,-1.302815 -3.538729,-1.302815 z" />
    <path
       id="path840"
       style="font-style:normal;font-variant:normal;font-weight:normal;font-stretch:normal;font-family:saxMono;-inkscape-font-specification:saxMono;stroke-width:4.50704"
       d="m 38.690134,28.602116 q 2.306336,-1.038731 3.996475,-1.038731 2.85211,0 4.718305,2.00704 1.813379,1.954223 1.813379,4.823938 0,4.788728 -4.612672,7.640838 -3.961263,2.464786 -9.031681,2.464786 -1.267604,0 -1.267604,-1.038731 0,-1.038732 1.549294,-1.179577 4.225348,-0.404929 6.42605,-1.531688 4.524643,-2.323942 4.524643,-6.338022 0,-1.901406 -1.073942,-3.204222 -1.161971,-1.390844 -3.028166,-1.390844 -1.197182,0 -3.010561,0.774647 -1.795772,0.774648 -2.306335,0.774648 -0.950703,0 -0.897887,-1.355633 l 0.28169,-7.904921 q 0.03521,-1.021126 0.299296,-1.426055 0.352112,-0.704225 1.302815,-0.704225 h 9.049287 q 1.302815,0 1.302815,1.12676 0,0.492957 -0.404929,0.845069 Q 47.933083,22.2817 47.42252,22.2817 h -8.468301 z" />
  </g>
</svg>
