<?xml version="1.0" encoding="UTF-8" standalone="no"?>
<svg
   xmlns:dc="http://purl.org/dc/elements/1.1/"
   xmlns:cc="http://creativecommons.org/ns#"
   xmlns:rdf="http://www.w3.org/1999/02/22-rdf-syntax-ns#"
   xmlns:svg="http://www.w3.org/2000/svg"
   xmlns="http://www.w3.org/2000/svg"
   height="64"
   width="64"
   version="1.1"
   id="svg2">
  <metadata
     id="metadata8">
    <rdf:RDF>
      <cc:Work
         rdf:about="">
        <dc:format>image/svg+xml</dc:format>
        <dc:type
           rdf:resource="http://purl.org/dc/dcmitype/StillImage" />
        <dc:title />
      </cc:Work>
    </rdf:RDF>
  </metadata>
  <defs
     id="defs6" />
  <path
     d="M 23.334572,-21.920263 H 67.175095 V 21.920259 H 23.334572 Z"
     transform="rotate(45.000001)"
     style="fill:#f2f2f2;fill-opacity:1;stroke:#333333;stroke-width:1.41431;stroke-miterlimit:4;stroke-dasharray:none;stroke-opacity:1"
     id="rect2989-6" />
  <g
     transform="translate(15.227226)"
     style="font-style:normal;font-variant:normal;font-weight:normal;font-stretch:normal;font-size:28.8248px;line-height:1.25;font-family:saxMono;-inkscape-font-specification:saxMono;letter-spacing:0px;word-spacing:0px;fill:#333333;fill-opacity:1;stroke:none;stroke-width:0.720619"
     id="texte"
     aria-label="160">
    <path
       id="path9"
       style="font-style:normal;font-variant:normal;font-weight:normal;font-stretch:normal;font-size:28.8248px;line-height:1.25;font-family:saxMono;-inkscape-font-specification:saxMono;letter-spacing:0px;word-spacing:0px;fill:#333333;fill-opacity:1;stroke:none;stroke-width:0.720619"
       d="M 0.00287732,39.748063 V 24.223768 H -2.7838954 q -1.0555957,0 -1.0555957,-0.914849 0,-0.928924 1.0555957,-0.928924 h 3.74384617 q 0.95707343,0 0.95707343,0.928924 v 16.439144 h 2.955668 q 1.083745,0 1.083745,0.985222 0,0.872626 -1.083745,0.872626 h -8.4025419 q -1.0837449,0 -1.0837449,-0.928924 0,-0.928924 1.0837449,-0.928924 z" />
    <path
       id="path11"
       style="font-style:normal;font-variant:normal;font-weight:normal;font-stretch:normal;font-size:28.8248px;line-height:1.25;font-family:saxMono;-inkscape-font-specification:saxMono;letter-spacing:0px;word-spacing:0px;fill:#333333;fill-opacity:1;stroke:none;stroke-width:0.720619"
       d="m 12.698175,32.415191 q 1.562281,-1.773401 4.12386,-1.773401 2.364535,0 3.940891,1.632655 1.590431,1.61858 1.590431,3.997189 0,2.463057 -1.688953,4.095712 -1.688953,1.61858 -4.166085,1.61858 -2.969742,0 -4.574248,-1.942296 -1.491908,-1.80155 -1.491908,-4.813517 0,-6.375798 5.334277,-10.893748 2.758623,-2.336385 4.12386,-2.336385 0.73188,0 0.73188,0.774104 0,0.408163 -0.380015,0.717805 -0.0563,0.04222 -0.745954,0.450387 -5.643918,3.335683 -6.798036,8.472915 z m 3.800144,0.09852 q -1.787475,0 -2.927518,0.942999 -1.224492,0.999298 -1.224492,2.758624 0,1.745251 1.140044,2.843071 1.154118,1.083745 2.913444,1.083745 1.745252,0 2.885295,-1.055596 1.140043,-1.055596 1.140043,-2.786773 0,-1.717102 -1.097819,-2.744548 -1.09782,-1.041522 -2.828997,-1.041522 z" />
    <path
       id="path13"
       style="font-style:normal;font-variant:normal;font-weight:normal;font-stretch:normal;font-size:28.8248px;line-height:1.25;font-family:saxMono;-inkscape-font-specification:saxMono;letter-spacing:0px;word-spacing:0px;fill:#333333;fill-opacity:1;stroke:none;stroke-width:0.720619"
       d="m 26.237949,36.07459 v -8.163274 q 0,-2.603803 1.590431,-4.250532 1.604505,-1.660804 4.405352,-1.660804 2.800848,0 4.363129,1.660804 1.562282,1.660804 1.562282,4.250532 v 8.163274 q 0,2.87122 -1.520058,4.391278 -1.520058,1.520058 -4.405353,1.520058 -2.800847,0 -4.405352,-1.562282 -1.590431,-1.562282 -1.590431,-4.349054 z m 9.992973,0 v -8.163274 q 0,-1.787475 -1.083745,-2.913444 -1.069671,-1.140043 -3.054191,-1.140043 -3.926816,0 -3.926816,4.053487 v 8.163274 q 0,1.928221 1.069671,2.997892 1.06967,1.06967 3.011966,1.06967 3.983115,0 3.983115,-4.067562 z" />
  </g>
</svg>
