<?xml version="1.0" encoding="UTF-8" standalone="no"?>
<svg
   xmlns:dc="http://purl.org/dc/elements/1.1/"
   xmlns:cc="http://creativecommons.org/ns#"
   xmlns:rdf="http://www.w3.org/1999/02/22-rdf-syntax-ns#"
   xmlns:svg="http://www.w3.org/2000/svg"
   xmlns="http://www.w3.org/2000/svg"
   id="svg2"
   version="1.1"
   width="64"
   height="64">
  <metadata
     id="metadata8">
    <rdf:RDF>
      <cc:Work
         rdf:about="">
        <dc:format>image/svg+xml</dc:format>
        <dc:type
           rdf:resource="http://purl.org/dc/dcmitype/StillImage" />
        <dc:title></dc:title>
      </cc:Work>
    </rdf:RDF>
  </metadata>
  <defs
     id="defs6" />
  <path
     d="M 26.500021,34.5 H 37.499979 V 63.49998 H 26.500021 Z"
     style="fill:#ffffff;fill-opacity:1;stroke:#000000;stroke-width:1.00004;stroke-linecap:round;stroke-linejoin:round;stroke-miterlimit:4;stroke-dasharray:none;stroke-opacity:1;paint-order:markers stroke fill;stop-color:#000000"
     id="rect1043" />
  <g
     style="font-style:normal;font-variant:normal;font-weight:normal;font-stretch:normal;font-size:7.21079px;line-height:1.25;font-family:Roboto;-inkscape-font-specification:Roboto;font-variant-ligatures:normal;font-variant-caps:normal;font-variant-numeric:normal;font-feature-settings:normal;text-align:start;letter-spacing:0px;word-spacing:0px;writing-mode:lr-tb;text-anchor:start;fill:#000000;fill-opacity:1;stroke:none;stroke-width:0.901348"
     id="text1063"
     aria-label="C">
    <path
       id="path1118"
       style="font-style:normal;font-variant:normal;font-weight:normal;font-stretch:normal;font-family:saxMono;-inkscape-font-specification:saxMono;stroke-width:0.901348"
       d="m 30.413838,60.51198 v -1.971701 q 0,-1.542151 1.637216,-1.542151 0.665449,0 1.070351,0.295755 0.464758,0.362652 0.464758,0.968246 0,0.292234 -0.2359,0.292234 -0.169002,0 -0.242941,-0.27463 -0.04577,-0.2359 -0.176045,-0.447153 -0.204212,-0.369694 -0.915432,-0.369694 -0.609115,0 -0.873182,0.306318 -0.246462,0.274629 -0.246462,0.897828 v 1.644257 q 0,0.640803 0.260546,0.915432 0.27815,0.309839 0.887265,0.309839 0.918953,0 1.06331,-0.647845 0.05281,-0.23942 0.05633,-0.246462 0.05281,-0.133794 0.186607,-0.133794 0.2359,0 0.2359,0.292234 0,0.580948 -0.489404,0.936558 -0.39434,0.260546 -1.031622,0.260546 -0.756992,0 -1.186541,-0.359131 -0.464758,-0.383778 -0.464758,-1.126686 z" />
  </g>
  <rect
     style="fill:#ffffff;fill-opacity:0;stroke-width:16"
     id="rect836"
     width="64"
     height="64"
     x="0"
     y="0" />
</svg>
