<?xml version="1.0" encoding="UTF-8" standalone="no"?>
<svg
   xmlns:dc="http://purl.org/dc/elements/1.1/"
   xmlns:cc="http://creativecommons.org/ns#"
   xmlns:rdf="http://www.w3.org/1999/02/22-rdf-syntax-ns#"
   xmlns:svg="http://www.w3.org/2000/svg"
   xmlns="http://www.w3.org/2000/svg"
   height="64"
   width="64"
   version="1.1"
   id="svg2">
  <metadata
     id="metadata8">
    <rdf:RDF>
      <cc:Work
         rdf:about="">
        <dc:format>image/svg+xml</dc:format>
        <dc:type
           rdf:resource="http://purl.org/dc/dcmitype/StillImage" />
        <dc:title></dc:title>
      </cc:Work>
    </rdf:RDF>
  </metadata>
  <defs
     id="defs6" />
  <rect
     style="fill:#405CB1;fill-opacity:1;stroke:#E4EAF6;stroke-width:5.99978;stroke-miterlimit:4;stroke-dasharray:none;stroke-opacity:1"
     id="rect2989-6"
     width="58.000221"
     height="57.999866"
     x="2.9998899"
     y="2.9998899" />
  <g
     style="font-style:normal;font-weight:normal;font-size:44.0746px;line-height:1.25;font-family:sans-serif;letter-spacing:0px;word-spacing:0px;fill:#E4EAF6;fill-opacity:1;stroke:none;stroke-width:1.10187"
     id="text833"
     aria-label="TT">
    <path
       id="path1208"
       style="font-style:normal;font-variant:normal;font-weight:normal;font-stretch:normal;font-family:saxMono;stroke-width:1.10187"
       d="m 18.452655,19.819226 h -7.876613 q -1.5279766,0 -1.5279766,-1.35581 0,-1.463415 1.7431846,-1.463415 h 18.206598 q 1.786226,0 1.786226,1.398852 0,1.420373 -1.786226,1.420373 h -7.618364 v 25.502149 q 0,1.678623 -1.441893,1.678623 -1.484936,0 -1.484936,-1.678623 z" />
    <path
       id="path1210"
       style="font-style:normal;font-variant:normal;font-weight:normal;font-stretch:normal;font-family:saxMono;stroke-width:1.10187"
       d="m 42.620515,19.819226 h -7.876613 q -1.527977,0 -1.527977,-1.35581 0,-1.463415 1.743185,-1.463415 h 18.206598 q 1.786226,0 1.786226,1.398852 0,1.420373 -1.786226,1.420373 h -7.618364 v 25.502149 q 0,1.678623 -1.441893,1.678623 -1.484936,0 -1.484936,-1.678623 z" />
  </g>
</svg>
