<?xml version="1.0" encoding="UTF-8" standalone="no"?>
<svg
   xmlns:dc="http://purl.org/dc/elements/1.1/"
   xmlns:cc="http://creativecommons.org/ns#"
   xmlns:rdf="http://www.w3.org/1999/02/22-rdf-syntax-ns#"
   xmlns:svg="http://www.w3.org/2000/svg"
   xmlns="http://www.w3.org/2000/svg"
   height="64"
   width="64"
   version="1.1"
   id="svg2">
  <metadata
     id="metadata8">
    <rdf:RDF>
      <cc:Work
         rdf:about="">
        <dc:format>image/svg+xml</dc:format>
        <dc:type
           rdf:resource="http://purl.org/dc/dcmitype/StillImage" />
        <dc:title />
      </cc:Work>
    </rdf:RDF>
  </metadata>
  <defs
     id="defs6" />
  <path
     d="M 23.334572,-21.920263 H 67.175095 V 21.920259 H 23.334572 Z"
     transform="rotate(45.000001)"
     style="fill:#405CB1;fill-opacity:1;stroke:#E4EAF6;stroke-width:1.41431;stroke-miterlimit:4;stroke-dasharray:none;stroke-opacity:1"
     id="rect2989-6" />
  <g
     transform="translate(23.510133)"
     style="font-style:normal;font-variant:normal;font-weight:normal;font-stretch:normal;font-size:28.8248px;line-height:1.25;font-family:saxMono;letter-spacing:0px;word-spacing:0px;fill:#E4EAF6;fill-opacity:1;stroke:none;stroke-width:0.720619"
     id="texte"
     aria-label="80">
    <path
       id="path9"
       style="font-style:normal;font-variant:normal;font-weight:normal;font-stretch:normal;font-size:28.8248px;line-height:1.25;font-family:saxMono;letter-spacing:0px;word-spacing:0px;fill:#E4EAF6;fill-opacity:1;stroke:none;stroke-width:0.720619"
       d="m -2.0097919,31.092178 q -2.6038027,-1.28079 -2.6038027,-3.940891 0,-2.223788 1.5341324,-3.687548 1.5341325,-1.463759 3.75792078,-1.463759 2.19563912,0 3.64532392,1.407461 1.4496848,1.407461 1.4496848,3.6031 0,2.53343 -2.4208329,4.053488 3.1949364,1.491908 3.1949364,5.03871 0,2.660101 -1.5904309,4.278681 -1.5904309,1.604506 -4.2505321,1.604506 -2.6038028,0 -4.3068305,-1.576357 -1.7734009,-1.61858 -1.7734009,-4.194233 0,-3.617175 3.3638317,-5.123158 z m 2.70232509,-0.802253 q 1.44968481,0 2.29416141,-0.830402 0.8585511,-0.844476 0.8585511,-2.294161 0,-1.449685 -0.8867004,-2.378609 -0.8867004,-0.928924 -2.32231055,-0.928924 -1.44968479,0 -2.39268365,0.957073 -0.9289242,0.957073 -0.9289242,2.420833 0,1.407461 0.9992973,2.251937 0.94299881,0.802253 2.37860899,0.802253 z m -0.0140746,1.717102 q -1.84377389,0 -2.98381729,1.140044 -1.1400433,1.125969 -1.1400433,2.969743 0,1.843773 1.2385656,3.068264 1.25264027,1.210417 3.11048874,1.210417 1.74525156,0 2.75862346,-1.210417 0.9570735,-1.154118 0.9570735,-2.983817 0,-1.80155 -1.0555958,-2.969742 Q 2.465934,32.007027 0.67845859,32.007027 Z" />
    <path
       id="path11"
       style="font-style:normal;font-variant:normal;font-weight:normal;font-stretch:normal;font-size:28.8248px;line-height:1.25;font-family:saxMono;letter-spacing:0px;word-spacing:0px;fill:#E4EAF6;fill-opacity:1;stroke:none;stroke-width:0.720619"
       d="m 10.432163,36.07459 v -8.163274 q 0,-2.603803 1.59043,-4.250532 1.604506,-1.660804 4.405353,-1.660804 2.800848,0 4.363129,1.660804 1.562282,1.660804 1.562282,4.250532 v 8.163274 q 0,2.87122 -1.520058,4.391278 -1.520058,1.520058 -4.405353,1.520058 -2.800847,0 -4.405353,-1.562282 -1.59043,-1.562282 -1.59043,-4.349054 z m 9.992972,0 v -8.163274 q 0,-1.787475 -1.083745,-2.913444 -1.06967,-1.140043 -3.05419,-1.140043 -3.926816,0 -3.926816,4.053487 v 8.163274 q 0,1.928221 1.06967,2.997892 1.069671,1.06967 3.011967,1.06967 3.983114,0 3.983114,-4.067562 z" />
  </g>
</svg>
