<?xml version="1.0" encoding="UTF-8" standalone="no"?>
<svg
   xmlns:dc="http://purl.org/dc/elements/1.1/"
   xmlns:cc="http://creativecommons.org/ns#"
   xmlns:rdf="http://www.w3.org/1999/02/22-rdf-syntax-ns#"
   xmlns:svg="http://www.w3.org/2000/svg"
   xmlns="http://www.w3.org/2000/svg"
   id="svg2"
   version="1.1"
   width="64"
   height="64">
  <metadata
     id="metadata8">
    <rdf:RDF>
      <cc:Work
         rdf:about="">
        <dc:format>image/svg+xml</dc:format>
        <dc:type
           rdf:resource="http://purl.org/dc/dcmitype/StillImage" />
        <dc:title />
      </cc:Work>
    </rdf:RDF>
  </metadata>
  <defs
     id="defs6" />
  <rect
     y="1.00007"
     x="1.0000679"
     height="61.999863"
     width="61.999863"
     id="rect2989-6"
     style="fill:#405CB1;fill-opacity:1;stroke:#E4EAF6;stroke-width:2.00014;stroke-miterlimit:4;stroke-dasharray:none;stroke-opacity:1" />
  <g
     transform="translate(29.51082)"
     style="font-style:normal;font-weight:normal;font-size:36.031px;line-height:1.25;font-family:saxMono;letter-spacing:0px;word-spacing:0px;fill:#E4EAF6;fill-opacity:1;stroke:none;stroke-width:4.8718"
     id="texte"
     aria-label="70">
    <path
       id="path9"
       style="font-style:normal;font-weight:normal;font-size:36.031px;line-height:1.25;font-family:saxMono;letter-spacing:0px;word-spacing:0px;fill:#E4EAF6;fill-opacity:1;stroke:none;stroke-width:4.8718"
       d="M -2.3313736,22.279723 H -13.467908 q -1.495427,0 -1.495427,-1.178748 0,-1.125969 1.495427,-1.125969 h 12.526402 q 1.37227435,0 1.37227435,0.96763 0,0.404645 -0.52779783,1.741732 L -8.1899295,43.268484 q -0.475018,1.213935 -1.3370878,1.213935 -1.0380027,0 -1.0380027,-1.055596 0,-0.334272 0.369459,-1.266715 z" />
    <path
       id="path11"
       style="font-style:normal;font-weight:normal;font-size:36.031px;line-height:1.25;font-family:saxMono;letter-spacing:0px;word-spacing:0px;fill:#E4EAF6;fill-opacity:1;stroke:none;stroke-width:4.8718"
       d="M 5.0402034,37.093249 V 26.889158 q 0,-3.254754 1.9880385,-5.313165 2.0056317,-2.076005 5.5066911,-2.076005 3.501058,0 5.45391,2.076005 1.952852,2.076005 1.952852,5.313165 v 10.204091 q 0,3.589025 -1.900072,5.489097 -1.900072,1.900073 -5.50669,1.900073 -3.5010594,0 -5.5066911,-1.952852 -1.9880385,-1.952852 -1.9880385,-5.436318 z m 12.4912156,0 V 26.889158 q 0,-2.234344 -1.354681,-3.641805 -1.337088,-1.425054 -3.817738,-1.425054 -4.9085198,0 -4.9085198,5.066859 v 10.204091 q 0,2.410277 1.3370878,3.747365 1.337088,1.337087 3.764958,1.337087 4.978893,0 4.978893,-5.084452 z" />
  </g>
</svg>
