<?xml version="1.0" encoding="UTF-8" standalone="no"?>
<svg
   xmlns:dc="http://purl.org/dc/elements/1.1/"
   xmlns:cc="http://creativecommons.org/ns#"
   xmlns:rdf="http://www.w3.org/1999/02/22-rdf-syntax-ns#"
   xmlns:svg="http://www.w3.org/2000/svg"
   xmlns="http://www.w3.org/2000/svg"
   id="svg2"
   version="1.1"
   width="64"
   height="64">
  <metadata
     id="metadata8">
    <rdf:RDF>
      <cc:Work
         rdf:about="">
        <dc:format>image/svg+xml</dc:format>
        <dc:type
           rdf:resource="http://purl.org/dc/dcmitype/StillImage" />
        <dc:title />
      </cc:Work>
    </rdf:RDF>
  </metadata>
  <defs
     id="defs6" />
  <rect
     style="fill:#405CB1;fill-opacity:0;stroke-width:6.4;stroke-linecap:round;stroke-linejoin:round;paint-order:markers stroke fill;stop-color:#E4EAF6"
     id="rect832"
     width="64"
     height="64"
     x="0"
     y="0" />
  <path
     style="font-style:normal;font-variant:normal;font-weight:normal;font-stretch:normal;font-size:30px;line-height:1.25;font-family:Roboto;font-variant-ligatures:normal;font-variant-caps:normal;font-variant-numeric:normal;font-feature-settings:normal;text-align:start;letter-spacing:0px;word-spacing:0px;writing-mode:lr-tb;text-anchor:start;fill:#405CB1;fill-opacity:1;stroke:#E4EAF6;stroke-width:1.96876;stroke-linecap:butt;stroke-linejoin:miter;stroke-miterlimit:4;stroke-dasharray:none;stroke-opacity:1"
     d="m 0.98438,63.01562 h 62.03124 c 0,0 0,-9.69238 0,-14.538571 0,-33.923335 -62.03124,-33.923335 -62.03124,0 0,4.846191 0,14.538571 0,14.538571 z"
     id="path839" />
  <g
     transform="translate(23.707178)"
     style="font-style:normal;font-variant:normal;font-weight:normal;font-stretch:normal;font-size:28.8248px;line-height:1.25;font-family:saxMono;letter-spacing:0px;word-spacing:0px;fill:#E4EAF6;fill-opacity:1;stroke:none;stroke-width:0.720619"
     id="texte"
     aria-label="55">
    <path
       id="path10"
       style="font-style:normal;font-variant:normal;font-weight:normal;font-stretch:normal;font-size:28.8248px;line-height:1.25;font-family:saxMono;letter-spacing:0px;word-spacing:0px;fill:#E4EAF6;fill-opacity:1;stroke:none;stroke-width:0.720619"
       d="m -2.0660903,42.276572 q 1.84377386,-0.830402 3.1949364,-0.830402 2.2800867,0 3.7719954,1.604506 1.4496848,1.562282 1.4496848,3.856443 0,3.828294 -3.6875478,6.10838 -3.16678713,1.970446 -7.2202747,1.970446 -1.0133719,0 -1.0133719,-0.830402 0,-0.830402 1.2385657,-0.942999 3.37790626,-0.323716 5.13723246,-1.224491 3.61717464,-1.857849 3.61717464,-5.06686 0,-1.520057 -0.8585512,-2.561578 -0.9289242,-1.111895 -2.4208328,-1.111895 -0.95707346,0 -2.4067582,0.619283 -1.4356102,0.619283 -1.8437739,0.619283 -0.7600289,0 -0.7178051,-1.083745 l 0.2251938,-6.3195 q 0.028149,-0.816327 0.2392683,-1.140043 0.2814922,-0.562984 1.0415211,-0.562984 h 7.2343494 q 1.0415211,0 1.0415211,0.900775 0,0.394089 -0.323716,0.675581 -0.3096414,0.267417 -0.7178051,0.267417 h -6.7698873 z" />
    <path
       id="path12"
       style="font-style:normal;font-variant:normal;font-weight:normal;font-stretch:normal;font-size:28.8248px;line-height:1.25;font-family:saxMono;letter-spacing:0px;word-spacing:0px;fill:#E4EAF6;fill-opacity:1;stroke:none;stroke-width:0.720619"
       d="m 13.739696,42.276572 q 1.843774,-0.830402 3.194936,-0.830402 2.280087,0 3.771996,1.604506 1.449684,1.562282 1.449684,3.856443 0,3.828294 -3.687547,6.10838 -3.166787,1.970446 -7.220275,1.970446 -1.013372,0 -1.013372,-0.830402 0,-0.830402 1.238566,-0.942999 3.377906,-0.323716 5.137232,-1.224491 3.617175,-1.857849 3.617175,-5.06686 0,-1.520057 -0.858551,-2.561578 -0.928925,-1.111895 -2.420833,-1.111895 -0.957074,0 -2.406758,0.619283 -1.435611,0.619283 -1.843774,0.619283 -0.760029,0 -0.717805,-1.083745 l 0.225193,-6.3195 q 0.02815,-0.816327 0.239269,-1.140043 0.281492,-0.562984 1.041521,-0.562984 h 7.234349 q 1.041521,0 1.041521,0.900775 0,0.394089 -0.323716,0.675581 -0.309641,0.267417 -0.717805,0.267417 h -6.769887 z" />
  </g>
</svg>
