<?xml version="1.0" encoding="UTF-8" standalone="no"?>
<svg
   xmlns:dc="http://purl.org/dc/elements/1.1/"
   xmlns:cc="http://creativecommons.org/ns#"
   xmlns:rdf="http://www.w3.org/1999/02/22-rdf-syntax-ns#"
   xmlns:svg="http://www.w3.org/2000/svg"
   xmlns="http://www.w3.org/2000/svg"
   id="svg2"
   version="1.1"
   width="64"
   height="64">
  <metadata
     id="metadata8">
    <rdf:RDF>
      <cc:Work
         rdf:about="">
        <dc:format>image/svg+xml</dc:format>
        <dc:type
           rdf:resource="http://purl.org/dc/dcmitype/StillImage" />
        <dc:title />
      </cc:Work>
    </rdf:RDF>
  </metadata>
  <defs
     id="defs6" />
  <rect
     y="1.00007"
     x="1.0000679"
     height="61.999863"
     width="61.999863"
     id="rect2989-6"
     style="fill:#405CB1;fill-opacity:1;stroke:#E4EAF6;stroke-width:2.00014;stroke-miterlimit:4;stroke-dasharray:none;stroke-opacity:1" />
  <g
     transform="translate(29.387667)"
     style="font-style:normal;font-weight:normal;font-size:36.031px;line-height:1.25;font-family:saxMono;letter-spacing:0px;word-spacing:0px;fill:#E4EAF6;fill-opacity:1;stroke:none;stroke-width:4.8718"
     id="texte"
     aria-label="60">
    <path
       id="path9"
       style="font-style:normal;font-weight:normal;font-size:36.031px;line-height:1.25;font-family:saxMono;letter-spacing:0px;word-spacing:0px;fill:#E4EAF6;fill-opacity:1;stroke:none;stroke-width:4.8718"
       d="m -11.884514,32.519001 q 1.9528517,-2.216751 5.1548252,-2.216751 2.9556678,0 4.926113,2.040819 1.9880385,2.023225 1.9880385,4.996486 0,3.07882 -2.1111913,5.119639 -2.1111913,2.023225 -5.2076052,2.023225 -3.7121782,0 -5.7178102,-2.42787 -1.864885,-2.251938 -1.864885,-6.016896 0,-7.969747 6.6678456,-13.617184 3.4482791,-2.920481 5.1548254,-2.920481 0.9148496,0 0.9148496,0.967629 0,0.510205 -0.475018,0.897257 -0.070373,0.05278 -0.9324429,0.562984 -7.0548977,4.169603 -8.4975447,10.591143 z m 4.7501802,0.123153 q -2.2343441,0 -3.6593982,1.178748 -1.530614,1.249122 -1.530614,3.44828 0,2.181564 1.425054,3.553838 1.4426477,1.354681 3.6418054,1.354681 2.1815643,0 3.6066184,-1.319494 1.4250542,-1.319495 1.4250542,-3.483466 0,-2.146378 -1.3722744,-3.430686 -1.3722743,-1.301901 -3.5362454,-1.301901 z" />
    <path
       id="path11"
       style="font-style:normal;font-weight:normal;font-size:36.031px;line-height:1.25;font-family:saxMono;letter-spacing:0px;word-spacing:0px;fill:#E4EAF6;fill-opacity:1;stroke:none;stroke-width:4.8718"
       d="M 5.0402034,37.093249 V 26.889158 q 0,-3.254754 1.9880385,-5.313165 2.0056317,-2.076005 5.5066911,-2.076005 3.501058,0 5.45391,2.076005 1.952852,2.076005 1.952852,5.313165 v 10.204091 q 0,3.589025 -1.900072,5.489097 -1.900072,1.900073 -5.50669,1.900073 -3.5010594,0 -5.5066911,-1.952852 -1.9880385,-1.952852 -1.9880385,-5.436318 z m 12.4912156,0 V 26.889158 q 0,-2.234344 -1.354681,-3.641805 -1.337088,-1.425054 -3.817738,-1.425054 -4.9085198,0 -4.9085198,5.066859 v 10.204091 q 0,2.410277 1.3370878,3.747365 1.337088,1.337087 3.764958,1.337087 4.978893,0 4.978893,-5.084452 z" />
  </g>
</svg>
