<?xml version="1.0" encoding="UTF-8" standalone="no"?>
<svg
   xmlns:dc="http://purl.org/dc/elements/1.1/"
   xmlns:cc="http://creativecommons.org/ns#"
   xmlns:rdf="http://www.w3.org/1999/02/22-rdf-syntax-ns#"
   xmlns:svg="http://www.w3.org/2000/svg"
   xmlns="http://www.w3.org/2000/svg"
   height="64"
   width="64"
   version="1.1"
   id="svg2">
  <metadata
     id="metadata8">
    <rdf:RDF>
      <cc:Work
         rdf:about="">
        <dc:format>image/svg+xml</dc:format>
        <dc:type
           rdf:resource="http://purl.org/dc/dcmitype/StillImage" />
        <dc:title />
      </cc:Work>
    </rdf:RDF>
  </metadata>
  <defs
     id="defs6" />
  <path
     id="path836"
     d="M 12,0 H 52 V 46.545454 L 32,64 12,46.545454 Z"
     style="font-style:normal;font-variant:normal;font-weight:normal;font-stretch:normal;font-size:30px;line-height:1.25;font-family:Roboto;font-variant-ligatures:normal;font-variant-caps:normal;font-variant-numeric:normal;font-feature-settings:normal;text-align:start;letter-spacing:0px;word-spacing:0px;writing-mode:lr-tb;text-anchor:start;fill:#E4EAF6;fill-opacity:1;stroke:none;stroke-width:1.17004px;stroke-linecap:butt;stroke-linejoin:miter;stroke-opacity:1" />
  <path
     style="font-style:normal;font-variant:normal;font-weight:normal;font-stretch:normal;font-size:30px;line-height:1.25;font-family:Roboto;font-variant-ligatures:normal;font-variant-caps:normal;font-variant-numeric:normal;font-feature-settings:normal;text-align:start;letter-spacing:0px;word-spacing:0px;writing-mode:lr-tb;text-anchor:start;fill:#405CB1;fill-opacity:1;stroke:none;stroke-width:1.11154px;stroke-linecap:butt;stroke-linejoin:miter;stroke-opacity:1"
     d="M 16,4 H 48 V 45 L 32,59 16,45 Z"
     id="path858" />
  <g
     transform="translate(59.68473)"
     style="font-style:normal;font-variant:normal;font-weight:normal;font-stretch:normal;font-size:54.7671px;line-height:1.25;font-family:saxMono;font-variant-ligatures:normal;font-variant-caps:normal;font-variant-numeric:normal;font-feature-settings:normal;text-align:start;letter-spacing:0px;word-spacing:0px;writing-mode:lr-tb;text-anchor:start;fill:#E4EAF6;fill-opacity:1;stroke:none;stroke-width:6.84588"
     id="texte"
     aria-label="6">
    <path
       id="path10"
       style="font-style:normal;font-variant:normal;font-weight:normal;font-stretch:normal;font-size:54.7671px;line-height:1.25;font-family:saxMono;font-variant-ligatures:normal;font-variant-caps:normal;font-variant-numeric:normal;font-feature-settings:normal;text-align:start;letter-spacing:0px;word-spacing:0px;writing-mode:lr-tb;text-anchor:start;fill:#E4EAF6;fill-opacity:1;stroke:none;stroke-width:6.84588"
       d="m -34.70444,27.788893 q 2.968334,-3.36946 7.835332,-3.36946 4.492614,0 7.48769,3.102043 3.021818,3.075301 3.021818,7.594656 0,4.679806 -3.20901,7.781849 -3.20901,3.075301 -7.915558,3.075301 -5.642509,0 -8.691068,-3.690361 -2.834625,-3.422944 -2.834625,-9.145678 0,-12.114012 10.135122,-20.698114 5.241383,-4.4391299 7.835333,-4.4391299 1.390571,0 1.390571,1.4707962 0,0.7755107 -0.722028,1.3638287 -0.106967,0.08023 -1.417312,0.855736 -10.723441,6.337795 -12.916265,16.098533 z m 7.220272,0.187192 q -3.396202,0 -5.562283,1.791698 -2.326533,1.898664 -2.326533,5.241382 0,3.315977 2.166082,5.401834 2.192823,2.059114 5.535542,2.059114 3.315977,0 5.482058,-2.005631 2.166082,-2.005631 2.166082,-5.294866 0,-3.262494 -2.085856,-5.214641 -2.085857,-1.97889 -5.375092,-1.97889 z" />
  </g>
</svg>
