<?xml version="1.0" encoding="UTF-8"?>
<svg xmlns="http://www.w3.org/2000/svg" xmlns:xlink="http://www.w3.org/1999/xlink" width="128px" height="128px" viewBox="0 0 128 128" version="1.1">
<g id="surface1">
<rect y="0" x="0" height="128" width="128" id="rect842" style="fill:#405CB1;fill-opacity:0;stroke:none;" />
<path style="fill-rule:nonzero;fill:#405CB1;fill-opacity:1;stroke-width:0.999915;stroke-linecap:round;stroke-linejoin:round;stroke:#E4EAF6;stroke-opacity:1;stroke-miterlimit:4;" d="M 26.5 27.5 L 37.5 27.5 L 37.5 63.5 L 26.5 63.5 Z M 26.5 27.5 " transform="matrix(2,0,0,2,0,0)"/>
<path style=" stroke:none;fill-rule:nonzero;fill:#E4EAF6;fill-opacity:1;" d="M 60.015625 66.175781 L 62.492188 58.394531 C 62.578125 58.132812 62.730469 58 62.949219 58 C 63.257812 58 63.410156 58.132812 63.410156 58.394531 C 63.410156 58.484375 63.390625 58.578125 63.359375 58.683594 L 60.464844 67.691406 C 60.398438 67.894531 60.246094 68 60.007812 68 C 59.769531 68 59.617188 67.894531 59.550781 67.691406 L 56.632812 58.683594 C 56.601562 58.578125 56.585938 58.484375 56.585938 58.394531 C 56.585938 58.132812 56.734375 58 57.035156 58 C 57.246094 58 57.394531 58.132812 57.480469 58.394531 Z M 60.015625 66.175781 "/>
<path style=" stroke:none;fill-rule:nonzero;fill:#E4EAF6;fill-opacity:1;" d="M 65.746094 66.878906 L 70.808594 66.878906 C 71.214844 66.878906 71.414062 67.035156 71.414062 67.351562 C 71.414062 67.65625 71.214844 67.808594 70.808594 67.808594 L 65.289062 67.808594 C 65.160156 67.808594 65.046875 67.773438 64.945312 67.695312 C 64.839844 67.617188 64.789062 67.492188 64.789062 67.324219 L 64.789062 58.65625 C 64.789062 58.21875 64.949219 58 65.265625 58 C 65.585938 58 65.746094 58.230469 65.746094 58.695312 Z M 65.746094 66.878906 "/>
<path style=" stroke:none;fill-rule:nonzero;fill:#E4EAF6;fill-opacity:1;" d="M 65.878906 79.019531 L 62.0625 79.019531 L 61.519531 81.714844 C 61.480469 81.902344 61.34375 81.996094 61.101562 81.996094 C 60.769531 81.996094 60.613281 81.867188 60.632812 81.601562 C 60.644531 81.417969 60.886719 80.15625 61.355469 77.808594 C 61.789062 75.667969 62.082031 74.265625 62.238281 73.605469 C 62.457031 72.535156 63.042969 72 63.996094 72 C 64.949219 72 65.535156 72.535156 65.757812 73.605469 C 66.046875 74.980469 66.339844 76.355469 66.628906 77.730469 C 67.125 80.078125 67.371094 81.34375 67.371094 81.523438 C 67.371094 81.84375 67.203125 82.003906 66.871094 82.003906 C 66.605469 82.003906 66.453125 81.890625 66.40625 81.660156 Z M 62.222656 78.089844 L 65.695312 78.089844 L 64.914062 74.125 C 64.757812 73.328125 64.4375 72.929688 63.949219 72.929688 C 63.65625 72.929688 63.4375 73.039062 63.285156 73.257812 C 63.164062 73.441406 63.0625 73.753906 62.976562 74.195312 Z M 62.222656 78.089844 "/>
<path style=" stroke:none;fill-rule:nonzero;fill:#E4EAF6;fill-opacity:1;" d="M 64.085938 91.890625 L 66.367188 86.40625 C 66.480469 86.132812 66.660156 86 66.910156 86 C 67.214844 86 67.367188 86.210938 67.367188 86.632812 L 67.367188 95.476562 C 67.367188 95.824219 67.210938 95.996094 66.902344 95.996094 C 66.566406 95.996094 66.402344 95.78125 66.402344 95.351562 L 66.402344 88.40625 L 64.515625 92.84375 C 64.398438 93.121094 64.246094 93.257812 64.0625 93.257812 C 63.863281 93.257812 63.699219 93.121094 63.578125 92.84375 L 61.597656 88.40625 L 61.597656 95.476562 C 61.597656 95.824219 61.4375 95.996094 61.121094 95.996094 C 60.796875 95.996094 60.632812 95.800781 60.632812 95.414062 L 60.632812 86.640625 C 60.632812 86.210938 60.804688 86 61.148438 86 C 61.367188 86 61.53125 86.121094 61.640625 86.371094 Z M 64.085938 91.890625 "/>
<path style=" stroke:none;fill-rule:nonzero;fill:#E4EAF6;fill-opacity:1;" d="M 60.691406 102.574219 C 60.691406 101.695312 61.011719 101.03125 61.648438 100.582031 C 62.203125 100.191406 62.9375 99.996094 63.851562 99.996094 C 65.269531 99.996094 66.285156 100.34375 66.894531 101.039062 C 67.054688 101.222656 67.132812 101.390625 67.132812 101.539062 C 67.132812 101.800781 66.996094 101.933594 66.71875 101.933594 C 66.605469 101.933594 66.433594 101.855469 66.203125 101.699219 C 65.976562 101.546875 65.71875 101.402344 65.429688 101.265625 C 64.933594 101.039062 64.378906 100.925781 63.773438 100.925781 C 63.183594 100.925781 62.699219 101.046875 62.324219 101.285156 C 61.875 101.566406 61.648438 101.988281 61.648438 102.546875 C 61.648438 103.207031 62.144531 103.691406 63.140625 103.996094 L 65.84375 104.839844 C 66.890625 105.300781 67.414062 106.113281 67.414062 107.277344 C 67.414062 108.179688 67.042969 108.886719 66.300781 109.402344 C 65.679688 109.800781 64.867188 110.003906 63.875 110.003906 C 63.261719 110.003906 62.617188 109.898438 61.9375 109.691406 C 61.035156 109.414062 60.585938 109.050781 60.585938 108.59375 C 60.585938 108.328125 60.722656 108.191406 60.992188 108.191406 C 61.125 108.191406 61.429688 108.324219 61.910156 108.585938 C 62.5 108.910156 63.179688 109.074219 63.949219 109.074219 C 64.617188 109.074219 65.179688 108.925781 65.640625 108.636719 C 66.183594 108.292969 66.457031 107.808594 66.457031 107.179688 C 66.457031 106.296875 65.929688 105.722656 64.878906 105.460938 L 62.839844 104.8125 C 61.40625 104.433594 60.691406 103.6875 60.691406 102.574219 Z M 60.691406 102.574219 "/>
<path style=" stroke:none;fill-rule:nonzero;fill:#E4EAF6;fill-opacity:1;" d="M 56.898438 121.023438 L 56.898438 117.082031 C 56.898438 115.023438 57.988281 113.996094 60.171875 113.996094 C 61.058594 113.996094 61.773438 114.195312 62.3125 114.585938 C 62.933594 115.070312 63.242188 115.71875 63.242188 116.523438 C 63.242188 116.914062 63.085938 117.109375 62.769531 117.109375 C 62.546875 117.109375 62.382812 116.925781 62.285156 116.558594 C 62.222656 116.246094 62.105469 115.945312 61.933594 115.664062 C 61.660156 115.171875 61.050781 114.925781 60.101562 114.925781 C 59.289062 114.925781 58.707031 115.128906 58.355469 115.539062 C 58.027344 115.90625 57.863281 116.503906 57.863281 117.335938 L 57.863281 120.621094 C 57.863281 121.476562 58.035156 122.085938 58.382812 122.453125 C 58.753906 122.867188 59.347656 123.074219 60.160156 123.074219 C 61.382812 123.074219 62.09375 122.640625 62.285156 121.777344 C 62.355469 121.457031 62.394531 121.292969 62.398438 121.285156 C 62.46875 121.105469 62.59375 121.015625 62.769531 121.015625 C 63.085938 121.015625 63.242188 121.210938 63.242188 121.601562 C 63.242188 122.375 62.917969 123 62.265625 123.472656 C 61.738281 123.820312 61.050781 123.996094 60.199219 123.996094 C 59.191406 123.996094 58.402344 123.757812 57.828125 123.277344 C 57.207031 122.765625 56.898438 122.015625 56.898438 121.023438 Z M 56.898438 121.023438 "/>
<path style=" stroke:none;fill-rule:nonzero;fill:#E4EAF6;fill-opacity:1;" d="M 67.875 122.480469 L 70.171875 116.953125 C 70.269531 116.71875 70.425781 116.601562 70.636719 116.601562 C 70.945312 116.601562 71.101562 116.734375 71.101562 117.003906 C 71.101562 117.085938 71.066406 117.214844 70.996094 117.382812 L 68.441406 123.496094 C 68.3125 123.796875 68.128906 123.945312 67.882812 123.945312 C 67.640625 123.945312 67.453125 123.796875 67.328125 123.496094 L 64.75 117.375 C 64.6875 117.230469 64.660156 117.113281 64.660156 117.023438 C 64.660156 116.910156 64.699219 116.8125 64.785156 116.726562 C 64.875 116.644531 64.976562 116.601562 65.09375 116.601562 C 65.3125 116.601562 65.472656 116.734375 65.582031 116.996094 Z M 67.875 122.480469 "/>
</g>
</svg>
