<?xml version="1.0" encoding="UTF-8" standalone="no"?>
<svg
   xmlns:dc="http://purl.org/dc/elements/1.1/"
   xmlns:cc="http://creativecommons.org/ns#"
   xmlns:rdf="http://www.w3.org/1999/02/22-rdf-syntax-ns#"
   xmlns:svg="http://www.w3.org/2000/svg"
   xmlns="http://www.w3.org/2000/svg"
   height="64"
   width="64"
   version="1.1"
   id="svg2">
  <metadata
     id="metadata8">
    <rdf:RDF>
      <cc:Work
         rdf:about="">
        <dc:format>image/svg+xml</dc:format>
        <dc:type
           rdf:resource="http://purl.org/dc/dcmitype/StillImage" />
        <dc:title></dc:title>
      </cc:Work>
    </rdf:RDF>
  </metadata>
  <defs
     id="defs6" />
  <rect
     style="fill:#405CB1;fill-opacity:1;stroke:#E4EAF6;stroke-width:5.99978;stroke-miterlimit:4;stroke-dasharray:none;stroke-opacity:1"
     id="rect2989-6"
     width="58.000221"
     height="57.999866"
     x="2.9998899"
     y="2.9998899" />
  <g
     style="font-style:normal;font-weight:normal;font-size:28.8451px;line-height:1.25;font-family:sans-serif;letter-spacing:0px;word-spacing:0px;fill:#E4EAF6;fill-opacity:1;stroke:none;stroke-width:0.721129"
     id="text833"
     aria-label="TTL">
    <path
       id="path1183"
       style="font-style:normal;font-variant:normal;font-weight:normal;font-stretch:normal;font-family:saxMono;stroke-width:0.721129"
       d="M 15.225335,24.218302 H 10.0704 q -1.0000007,0 -1.0000007,-0.887325 0,-0.957747 1.1408467,-0.957747 h 11.915505 q 1.169015,0 1.169015,0.915493 0,0.929579 -1.169015,0.929579 H 17.14083 V 40.90846 q 0,1.098593 -0.943663,1.098593 -0.971832,0 -0.971832,-1.098593 z" />
    <path
       id="path1185"
       style="font-style:normal;font-variant:normal;font-weight:normal;font-stretch:normal;font-family:saxMono;stroke-width:0.721129"
       d="m 31.042253,24.218302 h -5.154935 q -1.000001,0 -1.000001,-0.887325 0,-0.957747 1.140846,-0.957747 h 11.915505 q 1.169016,0 1.169016,0.915493 0,0.929579 -1.169016,0.929579 h -4.98592 V 40.90846 q 0,1.098593 -0.943663,1.098593 -0.971832,0 -0.971832,-1.098593 z" />
    <path
       id="path1187"
       style="font-style:normal;font-variant:normal;font-weight:normal;font-stretch:normal;font-family:saxMono;stroke-width:0.721129"
       d="m 43.591561,39.753529 h 10.126771 q 1.211269,0 1.211269,0.943663 0,0.915494 -1.211269,0.915494 H 42.676067 q -0.380282,0 -0.690141,-0.225352 -0.30986,-0.239437 -0.30986,-0.74648 V 23.302808 q 0,-1.309861 0.957748,-1.309861 0.957747,0 0.957747,1.394368 z" />
  </g>
</svg>
