<?xml version="1.0" encoding="UTF-8" standalone="no"?>
<svg
   xmlns:dc="http://purl.org/dc/elements/1.1/"
   xmlns:cc="http://creativecommons.org/ns#"
   xmlns:rdf="http://www.w3.org/1999/02/22-rdf-syntax-ns#"
   xmlns:svg="http://www.w3.org/2000/svg"
   xmlns="http://www.w3.org/2000/svg"
   id="svg2"
   version="1.1"
   width="64"
   height="64">
  <metadata
     id="metadata8">
    <rdf:RDF>
      <cc:Work
         rdf:about="">
        <dc:format>image/svg+xml</dc:format>
        <dc:type
           rdf:resource="http://purl.org/dc/dcmitype/StillImage" />
        <dc:title />
      </cc:Work>
    </rdf:RDF>
  </metadata>
  <defs
     id="defs6" />
  <rect
     style="fill:#405CB1;fill-opacity:0;stroke-width:6.4;stroke-linecap:round;stroke-linejoin:round;paint-order:markers stroke fill;stop-color:#E4EAF6"
     id="rect832"
     width="64"
     height="64"
     x="0"
     y="0" />
  <path
     style="font-style:normal;font-variant:normal;font-weight:normal;font-stretch:normal;font-size:30px;line-height:1.25;font-family:Roboto;font-variant-ligatures:normal;font-variant-caps:normal;font-variant-numeric:normal;font-feature-settings:normal;text-align:start;letter-spacing:0px;word-spacing:0px;writing-mode:lr-tb;text-anchor:start;fill:#405CB1;fill-opacity:1;stroke:#E4EAF6;stroke-width:1.96876;stroke-linecap:butt;stroke-linejoin:miter;stroke-miterlimit:4;stroke-dasharray:none;stroke-opacity:1"
     d="m 0.98438,63.01562 h 62.03124 c 0,0 0,-9.69238 0,-14.538571 0,-33.923335 -62.03124,-33.923335 -62.03124,0 0,4.846191 0,14.538571 0,14.538571 z"
     id="path839" />
  <g
     transform="translate(23.510133)"
     style="font-style:normal;font-variant:normal;font-weight:normal;font-stretch:normal;font-size:28.8248px;line-height:1.25;font-family:saxMono;letter-spacing:0px;word-spacing:0px;fill:#E4EAF6;fill-opacity:1;stroke:none;stroke-width:0.720619"
     id="texte"
     aria-label="60">
    <path
       id="path10"
       style="font-style:normal;font-variant:normal;font-weight:normal;font-stretch:normal;font-size:28.8248px;line-height:1.25;font-family:saxMono;letter-spacing:0px;word-spacing:0px;fill:#E4EAF6;fill-opacity:1;stroke:none;stroke-width:0.720619"
       d="m -3.1076114,45.41521 q 1.5622817,-1.773401 4.1238606,-1.773401 2.3645344,0 3.9408907,1.632655 1.5904309,1.61858 1.5904309,3.997189 0,2.463057 -1.6889532,4.095712 -1.6889531,1.61858 -4.16608441,1.61858 -2.96974259,0 -4.57424809,-1.942296 -1.4919087,-1.80155 -1.4919087,-4.813517 0,-6.375798 5.33427709,-10.893748 2.75862351,-2.336385 4.12386061,-2.336385 0.7318797,0 0.7318797,0.774104 0,0.408163 -0.3800145,0.717805 -0.056298,0.04222 -0.7459543,0.450387 -5.6439184,3.335683 -6.7980364,8.472915 z m 3.80014459,0.09852 q -1.78747539,0 -2.92751879,0.942998 -1.224491,0.999298 -1.224491,2.758624 0,1.745251 1.1400433,2.843071 1.154118,1.083745 2.91344422,1.083745 1.74525158,0 2.88529498,-1.055596 1.1400434,-1.055596 1.1400434,-2.786772 0,-1.717103 -1.0978196,-2.744549 Q 2.4237102,45.51373 0.69253319,45.51373 Z" />
    <path
       id="path12"
       style="font-style:normal;font-variant:normal;font-weight:normal;font-stretch:normal;font-size:28.8248px;line-height:1.25;font-family:saxMono;letter-spacing:0px;word-spacing:0px;fill:#E4EAF6;fill-opacity:1;stroke:none;stroke-width:0.720619"
       d="m 10.432163,49.074609 v -8.163274 q 0,-2.603803 1.59043,-4.250532 1.604506,-1.660804 4.405353,-1.660804 2.800848,0 4.363129,1.660804 1.562282,1.660804 1.562282,4.250532 v 8.163274 q 0,2.87122 -1.520058,4.391278 -1.520058,1.520058 -4.405353,1.520058 -2.800847,0 -4.405353,-1.562282 -1.59043,-1.562282 -1.59043,-4.349054 z m 9.992972,0 v -8.163274 q 0,-1.787475 -1.083745,-2.913444 -1.06967,-1.140043 -3.05419,-1.140043 -3.926816,0 -3.926816,4.053487 v 8.163274 q 0,1.928221 1.06967,2.997892 1.069671,1.06967 3.011967,1.06967 3.983114,0 3.983114,-4.067562 z" />
  </g>
</svg>
