<?xml version="1.0" encoding="UTF-8" standalone="no"?>
<svg
   xmlns:dc="http://purl.org/dc/elements/1.1/"
   xmlns:cc="http://creativecommons.org/ns#"
   xmlns:rdf="http://www.w3.org/1999/02/22-rdf-syntax-ns#"
   xmlns:svg="http://www.w3.org/2000/svg"
   xmlns="http://www.w3.org/2000/svg"
   id="svg2"
   version="1.1"
   width="64"
   height="64">
  <metadata
     id="metadata8">
    <rdf:RDF>
      <cc:Work
         rdf:about="">
        <dc:format>image/svg+xml</dc:format>
        <dc:type
           rdf:resource="http://purl.org/dc/dcmitype/StillImage" />
        <dc:title></dc:title>
      </cc:Work>
    </rdf:RDF>
  </metadata>
  <defs
     id="defs6" />
  <rect
     y="2.9998899"
     x="2.9998899"
     height="57.999866"
     width="58.000221"
     id="rect2989-6"
     style="fill:#405CB1;fill-opacity:1;stroke:#E4EAF6;stroke-width:5.99978;stroke-miterlimit:4;stroke-dasharray:none;stroke-opacity:1" />
  <g
     style="font-style:normal;font-weight:normal;font-size:22.6692px;line-height:1.25;font-family:sans-serif;text-align:center;letter-spacing:0px;word-spacing:0px;text-anchor:middle;fill:#E4EAF6;fill-opacity:1;stroke:none;stroke-width:0.56673"
     id="text840"
     aria-label="Z50
2">
    <path
       id="path871"
       style="font-style:normal;font-variant:normal;font-weight:normal;font-stretch:normal;font-family:saxMono;stroke-width:0.56673"
       d="m 23.133775,11.462823 h -7.316573 q -1.018343,0 -1.018343,-0.719482 0,-0.73055 1.018343,-0.73055 h 8.279571 q 0.985136,0 0.985136,0.619861 0,0.332068 -0.343137,0.84124 l -8.29064,12.197978 h 7.914296 q 1.018343,0 1.018343,0.752688 0,0.464896 -0.298862,0.608792 -0.188172,0.09962 -0.719481,0.09962 h -8.888363 q -0.974068,0 -0.974068,-0.586654 0,-0.431689 0.409551,-1.029412 z" />
    <path
       id="path873"
       style="font-style:normal;font-variant:normal;font-weight:normal;font-stretch:normal;font-family:saxMono;stroke-width:0.56673"
       d="m 30.295382,15.436574 q 1.450032,-0.653067 2.512651,-0.653067 1.793169,0 2.966478,1.261859 1.140101,1.228653 1.140101,3.032891 0,3.010754 -2.900064,4.803923 -2.490513,1.549652 -5.678369,1.549652 -0.796964,0 -0.796964,-0.653067 0,-0.653068 0.974067,-0.74162 2.656547,-0.254586 4.040165,-0.962998 2.844719,-1.461101 2.844719,-3.984821 0,-1.195446 -0.675205,-2.014548 -0.730551,-0.874446 -1.903859,-0.874446 -0.752688,0 -1.89279,0.487033 -1.129032,0.487034 -1.450031,0.487034 -0.597724,0 -0.564517,-0.852309 l 0.177103,-4.969957 q 0.02214,-0.641999 0.188172,-0.896584 0.221379,-0.442758 0.819102,-0.442758 h 5.689439 q 0.819102,0 0.819102,0.708412 0,0.309931 -0.254586,0.53131 -0.243517,0.21031 -0.564516,0.21031 h -5.324163 z" />
    <path
       id="path875"
       style="font-style:normal;font-variant:normal;font-weight:normal;font-stretch:normal;font-family:saxMono;stroke-width:0.56673"
       d="m 40.124606,20.782875 v -6.419988 q 0,-2.047755 1.250791,-3.342822 1.26186,-1.3061356 3.46458,-1.3061356 2.20272,0 3.431373,1.3061356 1.228653,1.306136 1.228653,3.342822 v 6.419988 q 0,2.258065 -1.195446,3.453511 -1.195446,1.195446 -3.46458,1.195446 -2.20272,0 -3.46458,-1.228653 -1.250791,-1.228653 -1.250791,-3.420304 z m 7.858951,0 v -6.419988 q 0,-1.405757 -0.852308,-2.291272 -0.84124,-0.896585 -2.401962,-0.896585 -3.088236,0 -3.088236,3.187857 v 6.419988 q 0,1.516446 0.84124,2.357686 0.84124,0.841239 2.368755,0.841239 3.132511,0 3.132511,-3.198925 z" />
    <path
       id="path877"
       style="font-style:normal;font-variant:normal;font-weight:normal;font-stretch:normal;font-family:saxMono;stroke-width:0.56673"
       d="m 29.874763,52.824972 h 6.132196 q 1.062619,0 1.062619,0.741619 0,0.719482 -0.863378,0.719482 h -7.692917 q -0.819102,0 -0.819102,-0.641999 0,-0.287793 0.30993,-0.664137 l 6.530678,-7.892158 q 1.018343,-1.228653 1.018343,-2.302341 0,-1.184377 -0.951929,-1.859583 -0.852309,-0.597723 -2.080962,-0.597723 -1.538583,0 -2.368754,0.962998 -0.398482,0.464896 -0.940861,1.793169 -0.387413,0.962999 -0.852309,0.962999 -0.664136,0 -0.664136,-0.785895 0,-0.896585 0.586654,-1.959204 1.350411,-2.435168 4.316889,-2.435168 1.848514,0 3.099304,0.94086 1.37255,1.040481 1.37255,2.833651 0,1.549652 -1.549653,3.409235 z" />
  </g>
</svg>
