<?xml version="1.0" encoding="UTF-8" standalone="no"?>
<svg
   xmlns:dc="http://purl.org/dc/elements/1.1/"
   xmlns:cc="http://creativecommons.org/ns#"
   xmlns:rdf="http://www.w3.org/1999/02/22-rdf-syntax-ns#"
   xmlns:svg="http://www.w3.org/2000/svg"
   xmlns="http://www.w3.org/2000/svg"
   height="64"
   width="64"
   version="1.1"
   id="svg2">
  <metadata
     id="metadata8">
    <rdf:RDF>
      <cc:Work
         rdf:about="">
        <dc:format>image/svg+xml</dc:format>
        <dc:type
           rdf:resource="http://purl.org/dc/dcmitype/StillImage" />
        <dc:title></dc:title>
      </cc:Work>
    </rdf:RDF>
  </metadata>
  <defs
     id="defs6" />
  <g
     transform="translate(-107.73191,-4.8418837)"
     id="g3769">
    <g
       transform="matrix(0.5,0.5,-0.5,0.5,158.2869,28.554987)"
       id="g854">
      <rect
         style="fill:#405CB1;fill-opacity:1;fill-rule:nonzero;stroke:none;stroke-width:0.636824"
         id="rect2987-3"
         width="64"
         height="64"
         x="-42.268089"
         y="-5.1581163" />
      <rect
         style="fill:none;stroke:#E4EAF6;stroke-width:3.97394;stroke-miterlimit:4;stroke-dasharray:none;stroke-opacity:1"
         id="rect2989-6"
         width="58.026062"
         height="58.026058"
         x="-39.28112"
         y="-2.1711454" />
    </g>
    <g
       style="font-style:normal;font-variant:normal;font-weight:normal;font-stretch:normal;font-size:18px;line-height:1.25;font-family:Roboto;font-variant-ligatures:normal;font-variant-caps:normal;font-variant-numeric:normal;font-feature-settings:normal;text-align:start;letter-spacing:0px;word-spacing:0px;writing-mode:lr-tb;text-anchor:start;fill:#E4EAF6;fill-opacity:1;stroke:none;stroke-width:2.25"
       id="text840"
       aria-label="190">
      <path
         id="path960"
         style="font-style:normal;font-variant:normal;font-weight:normal;font-stretch:normal;font-family:PoliceSNCF;stroke-width:2.25"
         d="m 124.65867,45.841885 h 3.25195 v -18 h -3.25195 z" />
      <path
         id="path962"
         style="font-style:normal;font-variant:normal;font-weight:normal;font-stretch:normal;font-family:PoliceSNCF;stroke-width:2.25"
         d="m 136.27781,38.634853 q 0.82617,0 1.40625,-0.210937 0.5625,-0.19336 0.75586,-0.333985 V 40.4454 q 0,0.404297 -0.19336,0.773438 -0.17578,0.404297 -0.47461,0.703125 -0.31641,0.316406 -0.70313,0.492187 -0.40429,0.175781 -0.79101,0.19336 -0.4043,0 -0.77344,-0.19336 -0.4043,-0.175781 -0.70312,-0.492187 -0.31641,-0.298828 -0.50977,-0.703125 -0.17578,-0.386719 -0.17578,-0.773438 h -3.23438 q 0,0.984375 0.43946,1.951172 0.45703,0.966797 1.24804,1.757813 0.77344,0.791015 1.74024,1.230468 0.9668,0.457032 1.96875,0.457032 0.98437,0 1.95117,-0.457032 0.9668,-0.457031 1.77539,-1.230468 0.77344,-0.773438 1.21289,-1.757813 0.45703,-0.966797 0.45703,-1.951172 v -7.207031 q 0,-0.984375 -0.45703,-1.951172 -0.45703,-0.966797 -1.21289,-1.775391 -0.79101,-0.773437 -1.77539,-1.21289 -0.9668,-0.457031 -1.95117,-0.457031 -0.98438,0 -1.96875,0.457031 -0.9668,0.457031 -1.74024,1.21289 -0.79101,0.791016 -1.24804,1.775391 -0.45703,0.966797 -0.43946,1.951172 0,0.984375 0.43946,1.96875 0.45703,0.966797 1.24804,1.740234 0.77344,0.791016 1.74024,1.248047 0.98437,0.439453 1.96875,0.439453 z m 2.16211,-5.396484 q 0,0.404297 -0.19336,0.773437 -0.17578,0.404297 -0.47461,0.703125 -0.31641,0.316407 -0.70313,0.509766 -0.40429,0.175781 -0.79101,0.175781 -0.4043,0 -0.77344,-0.175781 -0.4043,-0.175781 -0.70312,-0.509766 -0.31641,-0.298828 -0.50977,-0.703125 -0.17578,-0.386718 -0.17578,-0.773437 0,-0.404297 0.17578,-0.791016 0.17578,-0.386718 0.50977,-0.703125 0.29882,-0.298828 0.70312,-0.474609 0.38672,-0.175781 0.77344,-0.193359 0.4043,0 0.79101,0.193359 0.38672,0.175781 0.70313,0.474609 0.29883,0.316407 0.47461,0.703125 0.19336,0.386719 0.19336,0.791016 z" />
      <path
         id="path964"
         style="font-style:normal;font-variant:normal;font-weight:normal;font-stretch:normal;font-family:PoliceSNCF;stroke-width:2.25"
         d="m 149.40867,45.841885 q 0.98437,0 1.95117,-0.457032 0.9668,-0.457031 1.77539,-1.230468 0.77344,-0.773438 1.21289,-1.757813 0.45703,-0.966797 0.45703,-1.951172 v -7.207031 q 0,-0.984375 -0.45703,-1.951172 -0.45703,-0.966797 -1.21289,-1.775391 -0.79101,-0.773437 -1.77539,-1.21289 -0.9668,-0.457031 -1.95117,-0.457031 -0.98438,0 -1.96875,0.457031 -0.9668,0.457031 -1.74024,1.21289 -0.79101,0.791016 -1.24804,1.775391 -0.45703,0.966797 -0.43946,1.951172 V 40.4454 q 0,0.984375 0.43946,1.951172 0.45703,0.966797 1.24804,1.757813 0.77344,0.791015 1.74024,1.230468 0.98437,0.457032 1.96875,0.457032 z m 0,-3.234375 q -0.4043,0 -0.77344,-0.19336 -0.4043,-0.175781 -0.70312,-0.492187 -0.31641,-0.298828 -0.50977,-0.703125 -0.17578,-0.386719 -0.17578,-0.773438 v -7.207031 q 0,-0.404297 0.17578,-0.791016 0.17578,-0.386718 0.50977,-0.703125 0.29882,-0.298828 0.70312,-0.474609 0.38672,-0.175781 0.77344,-0.193359 0.4043,0 0.79101,0.193359 0.38672,0.175781 0.70313,0.474609 0.29883,0.316407 0.47461,0.703125 0.17578,0.404297 0.19336,0.791016 V 40.4454 q 0,0.404297 -0.19336,0.773438 -0.17578,0.404297 -0.47461,0.703125 -0.31641,0.316406 -0.70313,0.492187 -0.38671,0.19336 -0.79101,0.19336 z" />
    </g>
  </g>
</svg>
