<?xml version="1.0" encoding="UTF-8" standalone="no"?>
<svg
   xmlns:dc="http://purl.org/dc/elements/1.1/"
   xmlns:cc="http://creativecommons.org/ns#"
   xmlns:rdf="http://www.w3.org/1999/02/22-rdf-syntax-ns#"
   xmlns:svg="http://www.w3.org/2000/svg"
   xmlns="http://www.w3.org/2000/svg"
   id="svg2"
   version="1.1"
   width="64"
   height="64">
  <metadata
     id="metadata8">
    <rdf:RDF>
      <cc:Work
         rdf:about="">
        <dc:format>image/svg+xml</dc:format>
        <dc:type
           rdf:resource="http://purl.org/dc/dcmitype/StillImage" />
        <dc:title />
      </cc:Work>
    </rdf:RDF>
  </metadata>
  <defs
     id="defs6" />
  <rect
     y="1.00007"
     x="1.0000679"
     height="61.999863"
     width="61.999863"
     id="rect2989-6"
     style="fill:#405CB1;fill-opacity:1;stroke:#E4EAF6;stroke-width:2.00014;stroke-miterlimit:4;stroke-dasharray:none;stroke-opacity:1" />
  <g
     transform="translate(29.51082)"
     style="font-style:normal;font-weight:normal;font-size:36.031px;line-height:1.25;font-family:saxMono;letter-spacing:0px;word-spacing:0px;fill:#E4EAF6;fill-opacity:1;stroke:none;stroke-width:4.8718"
     id="texte"
     aria-label="50">
    <path
       id="path9"
       style="font-style:normal;font-weight:normal;font-size:36.031px;line-height:1.25;font-family:saxMono;letter-spacing:0px;word-spacing:0px;fill:#E4EAF6;fill-opacity:1;stroke:none;stroke-width:4.8718"
       d="m -10.582613,28.595704 q 2.3047172,-1.038002 3.9936703,-1.038002 2.8501082,0 4.7149939,2.005631 1.81210584,1.952852 1.81210584,4.820554 0,4.785367 -4.60943434,7.635475 -3.9584837,2.463057 -9.0253427,2.463057 -1.266715,0 -1.266715,-1.038003 0,-1.038002 1.548207,-1.178748 4.2223827,-0.404645 6.4215403,-1.530614 4.521468,-2.32231 4.521468,-6.333574 0,-1.900072 -1.0731889,-3.201973 -1.1611552,-1.389868 -3.0260409,-1.389868 -1.1963417,0 -3.0084476,0.774103 -1.7945129,0.774104 -2.3047169,0.774104 -0.950036,0 -0.897257,-1.354681 l 0.281493,-7.899374 q 0.03519,-1.020409 0.299085,-1.425054 0.351865,-0.703731 1.301901,-0.703731 h 9.0429364 q 1.30190134,0 1.30190134,1.125969 0,0.492611 -0.404645,0.844476 -0.38705174,0.334272 -0.89725634,0.334272 h -8.4623584 z" />
    <path
       id="path11"
       style="font-style:normal;font-weight:normal;font-size:36.031px;line-height:1.25;font-family:saxMono;letter-spacing:0px;word-spacing:0px;fill:#E4EAF6;fill-opacity:1;stroke:none;stroke-width:4.8718"
       d="M 5.0402034,37.093249 V 26.889158 q 0,-3.254754 1.9880385,-5.313165 2.0056317,-2.076005 5.5066911,-2.076005 3.501058,0 5.45391,2.076005 1.952852,2.076005 1.952852,5.313165 v 10.204091 q 0,3.589025 -1.900072,5.489097 -1.900072,1.900073 -5.50669,1.900073 -3.5010594,0 -5.5066911,-1.952852 -1.9880385,-1.952852 -1.9880385,-5.436318 z m 12.4912156,0 V 26.889158 q 0,-2.234344 -1.354681,-3.641805 -1.337088,-1.425054 -3.817738,-1.425054 -4.9085198,0 -4.9085198,5.066859 v 10.204091 q 0,2.410277 1.3370878,3.747365 1.337088,1.337087 3.764958,1.337087 4.978893,0 4.978893,-5.084452 z" />
  </g>
</svg>
