<?xml version="1.0" encoding="UTF-8" standalone="no"?>
<svg
   xmlns:dc="http://purl.org/dc/elements/1.1/"
   xmlns:cc="http://creativecommons.org/ns#"
   xmlns:rdf="http://www.w3.org/1999/02/22-rdf-syntax-ns#"
   xmlns:svg="http://www.w3.org/2000/svg"
   xmlns="http://www.w3.org/2000/svg"
   id="svg2"
   version="1.1"
   width="64"
   height="64">
  <metadata
     id="metadata8">
    <rdf:RDF>
      <cc:Work
         rdf:about="">
        <dc:format>image/svg+xml</dc:format>
        <dc:type
           rdf:resource="http://purl.org/dc/dcmitype/StillImage" />
        <dc:title></dc:title>
      </cc:Work>
    </rdf:RDF>
  </metadata>
  <defs
     id="defs6" />
  <rect
     style="fill:#405CB1;fill-opacity:0;stroke-width:6.4;stroke-linecap:round;stroke-linejoin:round;paint-order:markers stroke fill;stop-color:#E4EAF6"
     id="rect832"
     width="64"
     height="64"
     x="0"
     y="0" />
  <path
     style="font-style:normal;font-variant:normal;font-weight:normal;font-stretch:normal;font-size:30px;line-height:1.25;font-family:Roboto;font-variant-ligatures:normal;font-variant-caps:normal;font-variant-numeric:normal;font-feature-settings:normal;text-align:start;letter-spacing:0px;word-spacing:0px;writing-mode:lr-tb;text-anchor:start;fill:#405CB1;fill-opacity:1;stroke:#E4EAF6;stroke-width:1.96876;stroke-linecap:butt;stroke-linejoin:miter;stroke-miterlimit:4;stroke-dasharray:none;stroke-opacity:1"
     d="m 0.98438,23.034384 h 62.03124 c 0,0 0,9.692419 0,14.538631 0,33.923473 -62.03124,33.923473 -62.03124,0 0,-4.846212 0,-14.538631 0,-14.538631 z"
     id="path839" />
  <g
     style="font-style:normal;font-variant:normal;font-weight:normal;font-stretch:normal;font-size:29.4042px;line-height:1.25;font-family:saxMono;font-variant-ligatures:normal;font-variant-caps:normal;font-variant-numeric:normal;font-feature-settings:normal;text-align:start;letter-spacing:0px;word-spacing:0px;writing-mode:lr-tb;text-anchor:start;fill:#E4EAF6;fill-opacity:1;stroke:none;stroke-width:3.67552"
     id="text838"
     aria-label="135">
    <path
       id="path840"
       style="stroke-width:3.67552"
       d="M 14.993518,49.717177 V 33.880833 h -2.842789 q -1.076814,0 -1.076814,-0.933239 0,-0.947596 1.076814,-0.947596 h 3.8191 q 0.976311,0 0.976311,0.947596 v 16.769583 h 3.015079 q 1.105529,0 1.105529,1.005026 0,0.890167 -1.105529,0.890167 H 11.38978 q -1.105529,0 -1.105529,-0.947597 0,-0.947596 1.105529,-0.947596 z" />
    <path
       id="path842"
       style="stroke-width:3.67552"
       d="m 34.534102,33.895191 h -7.46591 q -1.249104,0 -1.249104,-0.961954 0,-0.918881 1.249104,-0.918881 h 9.20317 q 1.119887,0 1.119887,0.760948 0,0.402011 -0.272793,0.732234 l -4.465189,5.455857 q 0.416368,-0.08615 0.818379,-0.08615 1.895192,0 3.000721,1.191674 1.119887,1.177317 1.119887,3.072509 0,3.64681 -3.747313,6.360381 -3.431447,2.498209 -7.207474,2.498209 -1.407037,0 -1.407037,-0.847094 0,-0.861451 1.177316,-0.861451 2.167986,0 3.919603,-0.775306 2.038768,-0.890166 3.53195,-2.440779 1.780332,-1.837762 1.780332,-3.76167 0,-1.048099 -0.689161,-1.79469 -0.674803,-0.760948 -1.708544,-0.760948 -0.804022,0 -1.952623,0.488156 -1.148602,0.488155 -1.435752,0.488155 -0.674803,0 -0.674803,-0.818378 0,-0.459441 0.34458,-0.875809 z" />
    <path
       id="path844"
       style="stroke-width:3.67552"
       d="m 45.129952,39.035183 q 1.880835,-0.847094 3.259157,-0.847094 2.325918,0 3.847815,1.636757 1.478825,1.593685 1.478825,3.93396 0,3.905246 -3.76167,6.231164 -3.230442,2.010053 -7.365408,2.010053 -1.033741,0 -1.033741,-0.847094 0,-0.847094 1.263462,-0.961954 3.445804,-0.330223 5.240494,-1.249104 3.689883,-1.895193 3.689883,-5.168707 0,-1.550612 -0.875809,-2.613069 -0.947596,-1.134244 -2.469493,-1.134244 -0.976312,0 -2.455136,0.631731 -1.464467,0.631731 -1.880835,0.631731 -0.775306,0 -0.732234,-1.105529 l 0.229721,-6.446526 q 0.02872,-0.832736 0.244078,-1.162959 0.28715,-0.574301 1.062456,-0.574301 h 7.379765 q 1.062456,0 1.062456,0.918881 0,0.402011 -0.330223,0.689161 -0.315865,0.272793 -0.732233,0.272793 h -6.905967 z" />
  </g>
</svg>
