<?xml version="1.0" encoding="UTF-8" standalone="no"?>
<svg
   xmlns:dc="http://purl.org/dc/elements/1.1/"
   xmlns:cc="http://creativecommons.org/ns#"
   xmlns:rdf="http://www.w3.org/1999/02/22-rdf-syntax-ns#"
   xmlns:svg="http://www.w3.org/2000/svg"
   xmlns="http://www.w3.org/2000/svg"
   id="svg2"
   version="1.1"
   width="64"
   height="64">
  <metadata
     id="metadata8">
    <rdf:RDF>
      <cc:Work
         rdf:about="">
        <dc:format>image/svg+xml</dc:format>
        <dc:type
           rdf:resource="http://purl.org/dc/dcmitype/StillImage" />
        <dc:title />
      </cc:Work>
    </rdf:RDF>
  </metadata>
  <defs
     id="defs6" />
  <rect
     y="2.9998899"
     x="2.9998899"
     height="57.999866"
     width="58.000221"
     id="rect2989-6"
     style="fill:#405CB1;fill-opacity:1;stroke:#E4EAF6;stroke-width:5.99978;stroke-miterlimit:4;stroke-dasharray:none;stroke-opacity:1" />
  <g
     transform="translate(15.227226)"
     style="font-style:normal;font-variant:normal;font-weight:normal;font-stretch:normal;font-size:28.8248px;line-height:1.25;font-family:saxMono;letter-spacing:0px;word-spacing:0px;fill:#E4EAF6;fill-opacity:1;stroke:none;stroke-width:0.720619"
     id="texte"
     aria-label="120">
    <path
       id="path9"
       style="font-style:normal;font-variant:normal;font-weight:normal;font-stretch:normal;font-size:28.8248px;line-height:1.25;font-family:saxMono;letter-spacing:0px;word-spacing:0px;fill:#E4EAF6;fill-opacity:1;stroke:none;stroke-width:0.720619"
       d="M 0.00287732,39.748074 V 24.22378 H -2.7838954 q -1.0555957,0 -1.0555957,-0.91485 0,-0.928924 1.0555957,-0.928924 h 3.74384617 q 0.95707343,0 0.95707343,0.928924 v 16.439144 h 2.955668 q 1.083745,0 1.083745,0.985223 0,0.872626 -1.083745,0.872626 h -8.4025419 q -1.0837449,0 -1.0837449,-0.928925 0,-0.928924 1.0837449,-0.928924 z" />
    <path
       id="path11"
       style="font-style:normal;font-variant:normal;font-weight:normal;font-stretch:normal;font-size:28.8248px;line-height:1.25;font-family:saxMono;letter-spacing:0px;word-spacing:0px;fill:#E4EAF6;fill-opacity:1;stroke:none;stroke-width:0.720619"
       d="m 13.204861,39.748074 h 7.797333 q 1.351163,0 1.351163,0.942999 0,0.91485 -1.09782,0.91485 h -9.781853 q -1.041521,0 -1.041521,-0.816328 0,-0.36594 0.394089,-0.844476 l 8.304019,-10.035197 q 1.294864,-1.562282 1.294864,-2.927519 0,-1.505983 -1.210416,-2.364534 -1.083745,-0.760029 -2.646027,-0.760029 -1.95637,0 -3.011966,1.224491 -0.506686,0.591134 -1.196342,2.280087 -0.492611,1.224491 -1.083745,1.224491 -0.844476,0 -0.844476,-0.999297 0,-1.140044 0.745954,-2.491206 1.717102,-3.096414 5.489098,-3.096414 2.350459,0 3.94089,1.196341 1.745252,1.323014 1.745252,3.6031 0,1.970446 -1.970445,4.33498 z" />
    <path
       id="path13"
       style="font-style:normal;font-variant:normal;font-weight:normal;font-stretch:normal;font-size:28.8248px;line-height:1.25;font-family:saxMono;letter-spacing:0px;word-spacing:0px;fill:#E4EAF6;fill-opacity:1;stroke:none;stroke-width:0.720619"
       d="m 26.237949,36.074601 v -8.163273 q 0,-2.603803 1.590431,-4.250533 1.604505,-1.660803 4.405352,-1.660803 2.800848,0 4.363129,1.660803 1.562282,1.660804 1.562282,4.250533 v 8.163273 q 0,2.87122 -1.520058,4.391278 -1.520058,1.520058 -4.405353,1.520058 -2.800847,0 -4.405352,-1.562282 -1.590431,-1.562281 -1.590431,-4.349054 z m 9.992973,0 v -8.163273 q 0,-1.787476 -1.083745,-2.913445 -1.069671,-1.140043 -3.054191,-1.140043 -3.926816,0 -3.926816,4.053488 v 8.163273 q 0,1.928222 1.069671,2.997892 1.06967,1.06967 3.011966,1.06967 3.983115,0 3.983115,-4.067562 z" />
  </g>
</svg>
