<?xml version="1.0" encoding="UTF-8" standalone="no"?>
<svg
   xmlns:dc="http://purl.org/dc/elements/1.1/"
   xmlns:cc="http://creativecommons.org/ns#"
   xmlns:rdf="http://www.w3.org/1999/02/22-rdf-syntax-ns#"
   xmlns:svg="http://www.w3.org/2000/svg"
   xmlns="http://www.w3.org/2000/svg"
   height="64"
   width="64"
   version="1.1"
   id="svg2">
  <metadata
     id="metadata8">
    <rdf:RDF>
      <cc:Work
         rdf:about="">
        <dc:format>image/svg+xml</dc:format>
        <dc:type
           rdf:resource="http://purl.org/dc/dcmitype/StillImage" />
        <dc:title />
      </cc:Work>
    </rdf:RDF>
  </metadata>
  <defs
     id="defs6" />
  <rect
     y="0"
     x="0"
     height="64"
     width="64"
     id="rect832"
     style="fill:#405CB1;fill-opacity:0;stroke-width:6.4;stroke-linecap:round;stroke-linejoin:round;paint-order:markers stroke fill;stop-color:#E4EAF6" />
  <path
     id="path839"
     d="m 0.98438,23.034384 h 62.03124 c 0,0 0,9.692419 0,14.538631 0,33.923473 -62.03124,33.923473 -62.03124,0 0,-4.846212 0,-14.538631 0,-14.538631 z"
     style="font-style:normal;font-variant:normal;font-weight:normal;font-stretch:normal;font-size:30px;line-height:1.25;font-family:Roboto;font-variant-ligatures:normal;font-variant-caps:normal;font-variant-numeric:normal;font-feature-settings:normal;text-align:start;letter-spacing:0px;word-spacing:0px;writing-mode:lr-tb;text-anchor:start;fill:#405CB1;fill-opacity:1;stroke:#E4EAF6;stroke-width:1.96876;stroke-linecap:butt;stroke-linejoin:miter;stroke-miterlimit:4;stroke-dasharray:none;stroke-opacity:1" />
  <g
     transform="translate(23.707178)"
     style="font-style:normal;font-variant:normal;font-weight:normal;font-stretch:normal;font-size:28.8248px;line-height:1.25;font-family:saxMono;letter-spacing:0px;word-spacing:0px;fill:#E4EAF6;fill-opacity:1;stroke:none;stroke-width:0.720619"
     id="texte"
     aria-label="30">
    <path
       id="path10"
       style="font-style:normal;font-variant:normal;font-weight:normal;font-stretch:normal;font-size:28.8248px;line-height:1.25;font-family:saxMono;letter-spacing:0px;word-spacing:0px;fill:#E4EAF6;fill-opacity:1;stroke:none;stroke-width:0.720619"
       d="m 3.3526344,34.237862 h -7.318797 q -1.224491,0 -1.224491,-0.942999 0,-0.900775 1.224491,-0.900775 h 9.0218248 q 1.0978195,0 1.0978195,0.745955 0,0.394089 -0.2674176,0.717805 l -4.3772036,5.348351 q 0.4081637,-0.08445 0.8022528,-0.08445 1.8578485,0 2.9415934,1.168192 1.0978196,1.154118 1.0978196,3.011967 0,3.57495 -3.6734732,6.235052 -3.36383165,2.448982 -7.065454,2.448982 -1.3793117,0 -1.3793117,-0.830402 0,-0.844477 1.154118,-0.844477 2.125266,0 3.84236839,-0.760029 1.99859461,-0.872625 3.46235401,-2.392683 1.7452515,-1.80155 1.7452515,-3.687548 0,-1.027447 -0.6755812,-1.759326 -0.6615067,-0.745955 -1.6748786,-0.745955 -0.7881781,0 -1.91414687,0.478537 -1.12596877,0.478537 -1.40746093,0.478537 -0.6615067,0 -0.6615067,-0.802253 0,-0.450387 0.3377906,-0.858551 z" />
    <path
       id="path12"
       style="font-style:normal;font-variant:normal;font-weight:normal;font-stretch:normal;font-size:28.8248px;line-height:1.25;font-family:saxMono;letter-spacing:0px;word-spacing:0px;fill:#E4EAF6;fill-opacity:1;stroke:none;stroke-width:0.720619"
       d="m 10.432163,46.074609 v -8.163274 q 0,-2.603803 1.59043,-4.250532 1.604506,-1.660804 4.405353,-1.660804 2.800848,0 4.363129,1.660804 1.562282,1.660804 1.562282,4.250532 v 8.163274 q 0,2.87122 -1.520058,4.391278 -1.520058,1.520058 -4.405353,1.520058 -2.800847,0 -4.405353,-1.562282 -1.59043,-1.562282 -1.59043,-4.349054 z m 9.992972,0 v -8.163274 q 0,-1.787475 -1.083745,-2.913444 -1.06967,-1.140043 -3.05419,-1.140043 -3.926816,0 -3.926816,4.053487 v 8.163274 q 0,1.928221 1.06967,2.997892 1.069671,1.06967 3.011967,1.06967 3.983114,0 3.983114,-4.067562 z" />
  </g>
</svg>
