<?xml version="1.0" encoding="UTF-8" standalone="no"?>
<svg
   xmlns:dc="http://purl.org/dc/elements/1.1/"
   xmlns:cc="http://creativecommons.org/ns#"
   xmlns:rdf="http://www.w3.org/1999/02/22-rdf-syntax-ns#"
   xmlns:svg="http://www.w3.org/2000/svg"
   xmlns="http://www.w3.org/2000/svg"
   id="svg2"
   version="1.1"
   width="64"
   height="64">
  <metadata
     id="metadata8">
    <rdf:RDF>
      <cc:Work
         rdf:about="">
        <dc:format>image/svg+xml</dc:format>
        <dc:type
           rdf:resource="http://purl.org/dc/dcmitype/StillImage" />
        <dc:title />
      </cc:Work>
    </rdf:RDF>
  </metadata>
  <defs
     id="defs6" />
  <rect
     y="1.00007"
     x="1.0000679"
     height="61.999863"
     width="61.999863"
     id="rect2989-6"
     style="fill:#405CB1;fill-opacity:1;stroke:#E4EAF6;stroke-width:2.00014;stroke-miterlimit:4;stroke-dasharray:none;stroke-opacity:1" />
  <g
     transform="translate(19.034032)"
     style="font-style:normal;font-weight:normal;font-size:36.031px;line-height:1.25;font-family:saxMono;letter-spacing:0px;word-spacing:0px;fill:#E4EAF6;fill-opacity:1;stroke:none;stroke-width:4.8718"
     id="texte"
     aria-label="160">
    <path
       id="path9"
       style="font-style:normal;font-weight:normal;font-size:36.031px;line-height:1.25;font-family:saxMono;letter-spacing:0px;word-spacing:0px;fill:#E4EAF6;fill-opacity:1;stroke:none;stroke-width:4.8718"
       d="M -7.9964036,41.68509 V 22.279723 h -3.4834654 q -1.319495,0 -1.319495,-1.143562 0,-1.161155 1.319495,-1.161155 h 4.6798071 q 1.1963418,0 1.1963418,1.161155 V 41.68509 h 3.6945848 q 1.35468104,0 1.35468104,1.231528 0,1.090783 -1.35468104,1.090783 H -12.412312 q -1.354681,0 -1.354681,-1.161156 0,-1.161155 1.354681,-1.161155 z" />
    <path
       id="path11"
       style="font-style:normal;font-weight:normal;font-size:36.031px;line-height:1.25;font-family:saxMono;letter-spacing:0px;word-spacing:0px;fill:#E4EAF6;fill-opacity:1;stroke:none;stroke-width:4.8718"
       d="m 7.8727184,32.519001 q 1.952852,-2.216751 5.1548256,-2.216751 2.955668,0 4.926113,2.040819 1.988038,2.023225 1.988038,4.996486 0,3.07882 -2.111191,5.119639 -2.111191,2.023225 -5.207605,2.023225 -3.7121782,0 -5.7178099,-2.42787 -1.8648857,-2.251938 -1.8648857,-6.016896 0,-7.969747 6.6678456,-13.617184 3.448279,-2.920481 5.154826,-2.920481 0.914849,0 0.914849,0.967629 0,0.510205 -0.475018,0.897257 -0.07037,0.05278 -0.932443,0.562984 -7.0548972,4.169603 -8.4975446,10.591143 z m 4.7501806,0.123153 q -2.234344,0 -3.6593984,1.178748 -1.5306137,1.249122 -1.5306137,3.44828 0,2.181564 1.4250541,3.553838 1.442647,1.354681 3.641805,1.354681 2.181564,0 3.606618,-1.319494 1.425055,-1.319495 1.425055,-3.483466 0,-2.146378 -1.372275,-3.430686 -1.372274,-1.301901 -3.536245,-1.301901 z" />
    <path
       id="path13"
       style="font-style:normal;font-weight:normal;font-size:36.031px;line-height:1.25;font-family:saxMono;letter-spacing:0px;word-spacing:0px;fill:#E4EAF6;fill-opacity:1;stroke:none;stroke-width:4.8718"
       d="M 24.797436,37.093249 V 26.889158 q 0,-3.254754 1.988039,-5.313165 2.005631,-2.076005 5.50669,-2.076005 3.501059,0 5.453911,2.076005 1.952852,2.076005 1.952852,5.313165 v 10.204091 q 0,3.589025 -1.900072,5.489097 -1.900072,1.900073 -5.506691,1.900073 -3.501059,0 -5.50669,-1.952852 -1.988039,-1.952852 -1.988039,-5.436318 z m 12.491215,0 V 26.889158 q 0,-2.234344 -1.354681,-3.641805 -1.337088,-1.425054 -3.817737,-1.425054 -4.90852,0 -4.90852,5.066859 v 10.204091 q 0,2.410277 1.337088,3.747365 1.337087,1.337087 3.764957,1.337087 4.978893,0 4.978893,-5.084452 z" />
  </g>
</svg>
