<?xml version="1.0" encoding="UTF-8" standalone="no"?>
<svg
   xmlns:dc="http://purl.org/dc/elements/1.1/"
   xmlns:cc="http://creativecommons.org/ns#"
   xmlns:rdf="http://www.w3.org/1999/02/22-rdf-syntax-ns#"
   xmlns:svg="http://www.w3.org/2000/svg"
   xmlns="http://www.w3.org/2000/svg"
   height="64"
   width="64"
   version="1.1"
   id="svg2">
  <metadata
     id="metadata8">
    <rdf:RDF>
      <cc:Work
         rdf:about="">
        <dc:format>image/svg+xml</dc:format>
        <dc:type
           rdf:resource="http://purl.org/dc/dcmitype/StillImage" />
        <dc:title></dc:title>
      </cc:Work>
    </rdf:RDF>
  </metadata>
  <defs
     id="defs6" />
  <rect
     style="fill:#405CB1;fill-opacity:1;stroke:#E4EAF6;stroke-width:5.99978;stroke-miterlimit:4;stroke-dasharray:none;stroke-opacity:1"
     id="rect2989-6"
     width="58.000221"
     height="57.999866"
     x="2.9998899"
     y="2.9998899" />
  <g
     style="font-style:normal;font-weight:normal;font-size:21.5713px;line-height:1.25;font-family:sans-serif;text-align:center;letter-spacing:0px;word-spacing:0px;text-anchor:middle;fill:#E4EAF6;fill-opacity:1;stroke:none;stroke-width:0.539282"
     id="text833"
     aria-label="8
10">
    <path
       id="path1433"
       style="font-style:normal;font-variant:normal;font-weight:normal;font-stretch:normal;font-family:saxMono;text-align:center;text-anchor:middle;stroke-width:0.539282"
       d="m 17.812273,17.455309 q -1.948579,-0.95849 -1.948579,-2.949201 0,-1.664192 1.148082,-2.75961 1.148082,-1.095418 2.812274,-1.095418 1.643126,0 2.728011,1.053287 1.084885,1.053286 1.084885,2.696412 0,1.895915 -1.811653,3.033464 2.39096,1.116484 2.39096,3.770765 0,1.990711 -1.190213,3.20199 -1.190214,1.200746 -3.180925,1.200746 -1.948579,0 -3.223055,-1.179681 -1.327141,-1.211279 -1.327141,-3.138792 0,-2.706946 2.517354,-3.833962 z m 2.02231,-0.600373 q 1.084884,0 1.716856,-0.621439 0.642505,-0.631972 0.642505,-1.716856 0,-1.084885 -0.663571,-1.780054 -0.66357,-0.695169 -1.737922,-0.695169 -1.084885,0 -1.790586,0.716235 -0.695169,0.716234 -0.695169,1.811652 0,1.053286 0.747833,1.685258 0.705702,0.600373 1.780054,0.600373 z m -0.01053,1.285009 q -1.379805,0 -2.232967,0.853162 -0.853162,0.842629 -0.853162,2.222434 0,1.379804 0.926892,2.296163 0.937425,0.905827 2.327763,0.905827 1.306074,0 2.06444,-0.905827 0.716235,-0.863694 0.716235,-2.232966 0,-1.348206 -0.789965,-2.222434 -0.821563,-0.916359 -2.159236,-0.916359 z" />
    <path
       id="path1435"
       style="font-style:normal;font-variant:normal;font-weight:normal;font-stretch:normal;font-family:saxMono;text-align:center;text-anchor:middle;stroke-width:0.539282"
       d="M 13.404271,51.674196 V 40.05645 h -2.085507 q -0.789965,0 -0.789965,-0.684636 0,-0.695169 0.789965,-0.695169 h 2.801741 q 0.716235,0 0.716235,0.695169 v 12.302382 h 2.211901 q 0.81103,0 0.81103,0.7373 0,0.653038 -0.81103,0.653038 h -6.288119 q -0.81103,0 -0.81103,-0.695169 0,-0.695169 0.81103,-0.695169 z" />
    <path
       id="path1437"
       style="font-style:normal;font-variant:normal;font-weight:normal;font-stretch:normal;font-family:saxMono;text-align:center;text-anchor:middle;stroke-width:0.539282"
       d="m 21.209121,48.925119 v -6.10906 q 0,-1.948579 1.190213,-3.180924 1.200747,-1.242877 3.296786,-1.242877 2.096039,0 3.265187,1.242877 1.169148,1.242878 1.169148,3.180924 v 6.10906 q 0,2.148704 -1.137549,3.286253 -1.137549,1.137549 -3.296786,1.137549 -2.096039,0 -3.296786,-1.169148 -1.190213,-1.169147 -1.190213,-3.254654 z m 7.478332,0 v -6.10906 q 0,-1.337673 -0.811031,-2.180302 -0.800497,-0.853162 -2.285631,-0.853162 -2.938668,0 -2.938668,3.033464 v 6.10906 q 0,1.443002 0.800497,2.2435 0.800498,0.800497 2.254033,0.800497 2.9808,0 2.9808,-3.043997 z" />
  </g>
  <g
     style="font-style:normal;font-weight:normal;font-size:21.5713px;line-height:1.25;font-family:sans-serif;text-align:center;letter-spacing:0px;word-spacing:0px;text-anchor:middle;fill:#E4EAF6;fill-opacity:1;stroke:none;stroke-width:0.539282"
     id="text1326"
     aria-label="V">
    <path
       id="path1357"
       style="font-style:normal;font-variant:normal;font-weight:normal;font-stretch:normal;font-family:saxMono;text-align:center;text-anchor:middle;stroke-width:0.539282"
       d="m 42.129503,36.750319 3.707568,-11.638812 q 0.189591,-0.58984 0.684636,-0.58984 0.684636,0 0.684636,0.58984 0,0.200124 -0.07373,0.431847 l -4.329006,13.47153 q -0.14746,0.463446 -0.684636,0.463446 -0.537176,0 -0.684636,-0.463446 L 37.07373,25.543354 Q 37,25.311631 37,25.111507 q 0,-0.58984 0.674103,-0.58984 0.473979,0 0.66357,0.58984 z" />
  </g>
</svg>
