<?xml version="1.0" encoding="UTF-8" standalone="no"?>
<svg
   xmlns:dc="http://purl.org/dc/elements/1.1/"
   xmlns:cc="http://creativecommons.org/ns#"
   xmlns:rdf="http://www.w3.org/1999/02/22-rdf-syntax-ns#"
   xmlns:svg="http://www.w3.org/2000/svg"
   xmlns="http://www.w3.org/2000/svg"
   id="svg2"
   version="1.1"
   width="64"
   height="64">
  <metadata
     id="metadata8">
    <rdf:RDF>
      <cc:Work
         rdf:about="">
        <dc:format>image/svg+xml</dc:format>
        <dc:type
           rdf:resource="http://purl.org/dc/dcmitype/StillImage" />
        <dc:title />
      </cc:Work>
    </rdf:RDF>
  </metadata>
  <defs
     id="defs6" />
  <rect
     style="fill:#405CB1;fill-opacity:0;stroke-width:6.4;stroke-linecap:round;stroke-linejoin:round;paint-order:markers stroke fill;stop-color:#E4EAF6"
     id="rect832"
     width="64"
     height="64"
     x="0"
     y="0" />
  <path
     style="font-style:normal;font-variant:normal;font-weight:normal;font-stretch:normal;font-size:30px;line-height:1.25;font-family:Roboto;font-variant-ligatures:normal;font-variant-caps:normal;font-variant-numeric:normal;font-feature-settings:normal;text-align:start;letter-spacing:0px;word-spacing:0px;writing-mode:lr-tb;text-anchor:start;fill:#405CB1;fill-opacity:1;stroke:#E4EAF6;stroke-width:1.96876;stroke-linecap:butt;stroke-linejoin:miter;stroke-miterlimit:4;stroke-dasharray:none;stroke-opacity:1"
     d="m 0.98438,63.01562 h 62.03124 c 0,0 0,-9.69238 0,-14.538571 0,-33.923335 -62.03124,-33.923335 -62.03124,0 0,4.846191 0,14.538571 0,14.538571 z"
     id="path839" />
  <g
     transform="translate(15.60724)"
     style="font-style:normal;font-variant:normal;font-weight:normal;font-stretch:normal;font-size:28.8248px;line-height:1.25;font-family:saxMono;letter-spacing:0px;word-spacing:0px;fill:#E4EAF6;fill-opacity:1;stroke:none;stroke-width:0.720619"
     id="texte"
     aria-label="210">
    <path
       id="path10"
       style="font-style:normal;font-variant:normal;font-weight:normal;font-stretch:normal;font-size:28.8248px;line-height:1.25;font-family:saxMono;letter-spacing:0px;word-spacing:0px;fill:#E4EAF6;fill-opacity:1;stroke:none;stroke-width:0.720619"
       d="m -2.6009255,52.748082 h 7.7973338 q 1.3511625,0 1.3511625,0.942999 0,0.914849 -1.0978196,0.914849 h -9.7818536 q -1.0415212,0 -1.0415212,-0.816327 0,-0.36594 0.3940891,-0.844477 L 3.3244852,42.90993 q 1.2948641,-1.562282 1.2948641,-2.927519 0,-1.505983 -1.2104165,-2.364534 -1.0837449,-0.760029 -2.64602656,-0.760029 -1.95637074,0 -3.01196644,1.224491 -0.506686,0.591133 -1.1963418,2.280086 -0.4926114,1.224491 -1.083745,1.224491 -0.8444766,0 -0.8444766,-0.999297 0,-1.140043 0.7459544,-2.491206 1.7171023,-3.096414 5.4890977,-3.096414 2.3504598,0 3.9408907,1.196342 1.7452516,1.323013 1.7452516,3.6031 0,1.970445 -1.9704454,4.33498 z" />
    <path
       id="path12"
       style="font-style:normal;font-variant:normal;font-weight:normal;font-stretch:normal;font-size:28.8248px;line-height:1.25;font-family:saxMono;letter-spacing:0px;word-spacing:0px;fill:#E4EAF6;fill-opacity:1;stroke:none;stroke-width:0.720619"
       d="M 15.808663,52.748082 V 37.223787 h -2.786772 q -1.055596,0 -1.055596,-0.914849 0,-0.928924 1.055596,-0.928924 h 3.743846 q 0.957073,0 0.957073,0.928924 v 16.439144 h 2.955668 q 1.083745,0 1.083745,0.985223 0,0.872625 -1.083745,0.872625 h -8.402542 q -1.083745,0 -1.083745,-0.928924 0,-0.928924 1.083745,-0.928924 z" />
    <path
       id="path14"
       style="font-style:normal;font-variant:normal;font-weight:normal;font-stretch:normal;font-size:28.8248px;line-height:1.25;font-family:saxMono;letter-spacing:0px;word-spacing:0px;fill:#E4EAF6;fill-opacity:1;stroke:none;stroke-width:0.720619"
       d="m 26.237949,49.074609 v -8.163274 q 0,-2.603803 1.590431,-4.250532 1.604505,-1.660804 4.405352,-1.660804 2.800848,0 4.363129,1.660804 1.562282,1.660804 1.562282,4.250532 v 8.163274 q 0,2.87122 -1.520058,4.391278 -1.520058,1.520058 -4.405353,1.520058 -2.800847,0 -4.405352,-1.562282 -1.590431,-1.562282 -1.590431,-4.349054 z m 9.992973,0 v -8.163274 q 0,-1.787475 -1.083745,-2.913444 -1.069671,-1.140043 -3.054191,-1.140043 -3.926816,0 -3.926816,4.053487 v 8.163274 q 0,1.928221 1.069671,2.997892 1.06967,1.06967 3.011966,1.06967 3.983115,0 3.983115,-4.067562 z" />
  </g>
</svg>
