<?xml version="1.0" encoding="UTF-8" standalone="no"?>
<svg
   xmlns:dc="http://purl.org/dc/elements/1.1/"
   xmlns:cc="http://creativecommons.org/ns#"
   xmlns:rdf="http://www.w3.org/1999/02/22-rdf-syntax-ns#"
   xmlns:svg="http://www.w3.org/2000/svg"
   xmlns="http://www.w3.org/2000/svg"
   height="64"
   width="64"
   version="1.1"
   id="svg2">
  <metadata
     id="metadata8">
    <rdf:RDF>
      <cc:Work
         rdf:about="">
        <dc:format>image/svg+xml</dc:format>
        <dc:type
           rdf:resource="http://purl.org/dc/dcmitype/StillImage" />
        <dc:title></dc:title>
      </cc:Work>
    </rdf:RDF>
  </metadata>
  <defs
     id="defs6" />
  <rect
     style="fill:#405CB1;fill-opacity:1;stroke:#E4EAF6;stroke-width:5.99978;stroke-miterlimit:4;stroke-dasharray:none;stroke-opacity:1"
     id="rect2989-6"
     width="58.000221"
     height="57.999866"
     x="2.9998899"
     y="2.9998899" />
  <g
     style="font-style:normal;font-weight:normal;font-size:28.8451px;line-height:1.25;font-family:sans-serif;letter-spacing:0px;word-spacing:0px;fill:#E4EAF6;fill-opacity:1;stroke:none;stroke-width:0.721129"
     id="text833"
     aria-label="9V">
    <path
       id="path1060"
       style="font-style:normal;font-variant:normal;font-weight:normal;font-stretch:normal;font-family:saxMono;stroke-width:0.721129"
       d="m 27.485911,31.591549 q -1.957749,1.760565 -4.070427,1.760565 -2.436622,0 -4.056342,-1.591551 -1.605636,-1.605636 -1.605636,-4.028173 0,-2.478876 1.690143,-4.098596 1.690143,-1.633805 4.169018,-1.633805 2.929581,0 4.549301,1.92958 1.521128,1.802819 1.521128,4.788737 0,3.225356 -1.422536,6.169021 -1.394368,2.887327 -3.887328,5.000005 -2.492961,2.112678 -3.478877,2.112678 -0.74648,0 -0.74648,-0.774649 0,-0.605634 0.887325,-1.183099 5.14085,-3.352116 6.450711,-8.450713 z m -3.873244,-0.09859 q 1.77465,0 2.915496,-0.943663 1.225354,-1.014086 1.225354,-2.760566 0,-1.746481 -1.154931,-2.830989 -1.140846,-1.098593 -2.901411,-1.098593 -1.746481,0 -2.859158,1.042255 -1.154931,1.070424 -1.154931,2.80282 0,1.718311 1.098593,2.760566 1.098592,1.02817 2.830988,1.02817 z" />
    <path
       id="path1062"
       style="font-style:normal;font-variant:normal;font-weight:normal;font-stretch:normal;font-family:saxMono;stroke-width:0.721129"
       d="m 39.457754,38.352119 4.957752,-15.563396 q 0.253521,-0.788734 0.915493,-0.788734 0.915494,0 0.915494,0.788734 0,0.267606 -0.09859,0.577465 l -5.788739,18.014103 q -0.197183,0.619719 -0.915494,0.619719 -0.71831,0 -0.915494,-0.619719 L 32.697183,23.366188 q -0.09859,-0.309859 -0.09859,-0.577465 0,-0.788734 0.901409,-0.788734 0.633804,0 0.887325,0.788734 z" />
  </g>
</svg>
