<svg xmlns="http://www.w3.org/2000/svg" width="64" height="64"><path d="M1.968 1.968h60.064v60.064H1.968Z" style="fill:#000;fill-opacity:1;stroke:#fff;stroke-width:3.93585;stroke-miterlimit:4;stroke-dasharray:none;stroke-opacity:1"/><g style="font-style:normal;font-variant:normal;font-weight:400;font-stretch:normal;font-size:16px;line-height:1.25;font-family:Roboto;font-variant-ligatures:normal;font-variant-caps:normal;font-variant-numeric:normal;font-feature-settings:normal;text-align:start;letter-spacing:0;word-spacing:0;writing-mode:lr-tb;text-anchor:start;fill:#fff;fill-opacity:1;stroke:none;stroke-width:2"><g aria-label="GARE" style="font-style:normal;font-variant:normal;font-weight:400;font-stretch:normal;font-size:9.11432px;line-height:1.25;font-family:Roboto;font-variant-ligatures:normal;font-variant-caps:normal;font-variant-numeric:normal;font-feature-settings:normal;text-align:start;letter-spacing:0;word-spacing:0;writing-mode:lr-tb;text-anchor:start;fill:#fff;fill-opacity:1;stroke:none;stroke-width:2.27858"><path d="M16.23 18.567q0-.486-.21-.965-.216-.46-.573-.834-.374-.365-.843-.574-.47-.208-.957-.208-.486 0-.956.208-.469.218-.834.574-.365.374-.582.834-.218.47-.21.965 0 .488.21.957.217.47.582.834.365.366.834.574.461.218.957.218.2 0 .391.087.191.086.348.244.147.156.234.346.088.2.096.391 0 .2-.096.383-.087.2-.234.348-.157.156-.348.244-.2.087-.39.095-.201 0-.384-.095-.2-.088-.347-.244-.157-.148-.252-.348-.088-.19-.088-.382h-1.6q0 .487.219.965.224.479.616.87.383.39.861.608.48.226.974.226.487 0 .964-.226.479-.227.88-.609.381-.382.6-.869.225-.478.225-.965t-.226-.974q-.227-.478-.6-.869-.391-.383-.879-.608-.477-.227-.964-.218-.4 0-.687-.295-.295-.287-.295-.688t.295-.695q.287-.286.687-.286t.696.286q.286.296.277.695zm1.547 6.32h1.609v-8.901h-1.61Zm5.747-2.668h1.07q0 .2-.096.382-.088.2-.235.348-.156.156-.348.244-.2.087-.391.095-.2 0-.383-.095-.2-.088-.348-.244-.156-.148-.252-.348-.088-.19-.088-.382v-3.565q0-.2.088-.39.087-.192.252-.348.148-.148.348-.235.192-.088.383-.095.2 0 .39.095.192.087.348.235.149.156.235.347.088.2.096.391h1.6q0-.486-.226-.965-.227-.479-.6-.878-.39-.382-.879-.6-.478-.225-.964-.225-.487 0-.974.225-.478.227-.86.6-.391.392-.618.88-.226.477-.217.963v3.565q0 .487.217.965.226.479.618.87.382.39.86.608.478.226.974.226.486 0 .965-.226.479-.227.878-.609.382-.382.6-.869.225-.478.225-.965V20.61h-2.668zm5.737-2.426 2.13 5.095h1.608v-8.902h-1.608v5.094l-2.129-5.094h-1.608v8.902h1.607zm7.738.34.382 1.547h-.73zm.765 3.155.4 1.6h1.512l-1.868-8.902h-1.609l-1.87 8.902h1.61l.347-1.6zm8.58-7.302h-1.608v6.233q0 .2-.087.382-.087.2-.235.348-.156.156-.348.244-.2.087-.39.095-.2 0-.383-.095-.2-.088-.348-.244-.156-.148-.252-.348-.088-.19-.088-.382v-6.233h-1.607v6.233q0 .487.226.965.226.479.617.87.382.39.86.608.479.226.975.226.486 0 .965-.226.478-.227.878-.609.382-.382.6-.869.225-.478.225-.965zm3.2 4.45-1.87 4.452h1.61l1.059-2.548 1.07 2.548h1.608l-1.87-4.45 1.87-4.451h-1.609l-1.07 2.547-1.059-2.547h-1.608zM31.926 31.31l.383 1.548h-.73zm.766 3.155.399 1.6h1.513l-1.87-8.902h-1.608l-1.869 8.902h1.608l.348-1.6zm-15.267 5.474q.2 0 .391.096.191.088.348.234.148.156.234.349.088.199.088.39v3.566q0 .199-.088.381-.086.2-.234.348-.157.156-.348.244-.2.086-.39.095h-1.07v-5.703zm0-1.599h-2.678v8.902h2.678q.487 0 .965-.227.479-.225.878-.608.382-.382.6-.87.226-.478.226-.964v-3.565q0-.486-.226-.965-.226-.478-.6-.878-.39-.382-.879-.6-.477-.225-.964-.225M26.901 41q0-.487-.226-.965-.226-.47-.6-.87-.39-.382-.878-.6-.479-.225-.965-.225h-2.677v8.902h1.608v-3.565h1.07q.2 0 .39.097.191.087.348.234.148.156.235.348.087.2.087.39v2.496H26.9v-2.496q0-.46-.104-.807-.113-.348-.27-.566-.156-.225-.287-.33l-.225-.166.017-.017q.104-.104.235-.244.12-.139.278-.39.139-.244.252-.557.104-.313.104-.67m-2.669 1.078h-1.07v-2.139h1.07q.2 0 .39.096.192.088.35.234.147.156.234.349.087.199.087.39 0 .2-.087.383-.087.2-.235.348-.156.156-.347.252-.192.087-.39.087zm9.163 2.496v-3.566q0-.486-.225-.965-.226-.478-.6-.878-.391-.382-.88-.6-.477-.225-.964-.225-.486 0-.973.226-.479.225-.86.6-.392.39-.618.878-.226.478-.218.964v3.566q0 .486.218.964.225.478.617.869.383.39.86.608.48.227.974.227.487 0 .965-.227.479-.225.878-.608.383-.382.6-.87.226-.478.226-.964zm-1.6 0q0 .199-.095.381-.088.2-.234.348-.157.156-.349.244-.2.086-.39.095-.2 0-.384-.096-.199-.087-.347-.243-.157-.147-.252-.348-.087-.191-.087-.382v-3.565q0-.2.088-.39.086-.192.25-.348.15-.148.348-.234.192-.088.383-.097.2 0 .391.096.191.088.349.234.146.156.234.349.087.199.096.39zm3.061 2.668h1.608v-8.902h-1.608Zm6.276-7.303h1.87v-1.599h-5.338v1.599h1.869v7.303h1.6Zm4.677 2.027v-2.027h3.739v-1.599H44.2v8.902h5.347v-1.6H45.81v-2.077h1.599v-1.6z" aria-label="SIGNAUX ADROITE" style="font-style:normal;font-variant:normal;font-weight:400;font-stretch:normal;font-family:PoliceSNCF;text-align:center;text-anchor:middle;fill:#fff;stroke-width:2.22555" transform="translate(-7.58 -7.101)scale(1.23685)"/></g></g></svg>