<svg xmlns="http://www.w3.org/2000/svg" width="64" height="64"><path d="M1.968 1.968h60.064v60.064H1.968Z" style="fill:#000;fill-opacity:1;stroke:#fff;stroke-width:3.93585;stroke-miterlimit:4;stroke-dasharray:none;stroke-opacity:1"/><g style="font-style:normal;font-variant:normal;font-weight:400;font-stretch:normal;font-size:16px;line-height:1.25;font-family:Roboto;font-variant-ligatures:normal;font-variant-caps:normal;font-variant-numeric:normal;font-feature-settings:normal;text-align:start;letter-spacing:0;word-spacing:0;writing-mode:lr-tb;text-anchor:start;fill:#fff;fill-opacity:1;stroke:none;stroke-width:2"><g aria-label="GARE" style="font-style:normal;font-variant:normal;font-weight:400;font-stretch:normal;font-size:9.11432px;line-height:1.25;font-family:Roboto;font-variant-ligatures:normal;font-variant-caps:normal;font-variant-numeric:normal;font-feature-settings:normal;text-align:start;letter-spacing:0;word-spacing:0;writing-mode:lr-tb;text-anchor:start;fill:#fff;fill-opacity:1;stroke:none;stroke-width:2.27858"><path d="M123.586 23.485q0-.498-.214-.988-.222-.471-.587-.854-.383-.374-.863-.588-.481-.213-.98-.213-.498 0-.979.213-.48.223-.854.588-.374.383-.596.854-.223.481-.214.988 0 .499.214.98.222.48.596.854t.854.587q.472.223.98.223.204 0 .4.089t.356.25q.151.16.24.355.09.205.098.4 0 .205-.098.392-.089.205-.24.356-.16.16-.356.25-.205.089-.4.097-.205 0-.392-.097-.205-.09-.356-.25-.16-.151-.258-.356-.09-.195-.09-.391h-1.637q0 .498.223.988.23.49.631.89.392.4.882.623.49.231.997.231.498 0 .987-.231.49-.232.9-.623.391-.392.614-.89.231-.49.231-.988 0-.499-.231-.997-.232-.49-.615-.89-.4-.392-.899-.623-.489-.232-.987-.223-.41 0-.704-.302-.302-.294-.302-.704 0-.409.302-.712.294-.293.704-.293.409 0 .712.293.293.303.284.712zm1.584 6.471h1.647v-9.114h-1.647zm5.884-2.732h1.095q0 .204-.098.391-.09.205-.24.356-.16.16-.357.25-.204.089-.4.097-.205 0-.392-.097-.205-.09-.356-.25-.16-.151-.258-.356-.09-.195-.09-.391v-3.65q0-.204.09-.4.089-.196.258-.356.151-.151.356-.24.196-.09.392-.098.204 0 .4.098.196.089.356.24.152.16.24.356.09.205.099.4h1.637q0-.498-.231-.988-.232-.49-.614-.899-.4-.391-.9-.614-.489-.231-.987-.231-.499 0-.997.231-.49.232-.881.614-.4.401-.632.9-.232.489-.223.987v3.65q0 .498.223.988.231.49.632.89.391.4.88.623.49.231.998.231.498 0 .988-.231.49-.232.899-.623.391-.392.614-.89.231-.49.231-.988v-1.647h-2.732zm5.874-2.484 2.18 5.216h1.647v-9.114h-1.646v5.216l-2.18-5.216h-1.647v9.114h1.646zm7.922.348.391 1.584h-.747zm.783 3.23.41 1.638h1.548l-1.913-9.114h-1.647l-1.914 9.114h1.647l.356-1.638zm8.785-7.476h-1.647v6.382q0 .204-.089.391-.089.205-.24.356-.16.16-.356.25-.205.089-.4.097-.205 0-.392-.097-.205-.09-.356-.25-.16-.151-.258-.356-.09-.195-.09-.391v-6.382h-1.646v6.382q0 .498.232.988.231.49.632.89.391.4.88.623.49.231.998.231.498 0 .988-.231.49-.232.899-.623.391-.392.614-.89.231-.49.231-.988zm3.276 4.557-1.914 4.557h1.647l1.085-2.608 1.095 2.608h1.647L159.34 25.4l1.914-4.557h-1.647l-1.095 2.608-1.085-2.608h-1.647zM139.656 36.53l.392 1.585h-.748Zm.784 3.231.409 1.638h1.549l-1.914-9.114h-1.647l-1.913 9.114h1.646l.356-1.638zM122.442 50.11h1.095q0 .204-.098.391-.089.205-.24.356-.16.16-.356.25-.205.088-.4.097-.205 0-.392-.098-.205-.089-.356-.249-.16-.151-.258-.356-.09-.196-.09-.392V46.46q0-.205.09-.4.089-.196.258-.356.15-.152.356-.24.195-.09.391-.099.205 0 .4.098.197.09.357.24.151.16.24.357.09.204.098.4h1.638q0-.498-.232-.988-.231-.49-.614-.899-.4-.392-.899-.614-.49-.231-.988-.231t-.997.231q-.49.231-.88.614-.401.4-.633.9-.231.489-.222.987v3.65q0 .498.222.987.232.49.632.89.392.4.881.623.49.232.997.232.499 0 .988-.232.49-.231.9-.623.39-.391.613-.89.232-.49.232-.988v-1.646h-2.733zm6.507-2.137.391 1.585h-.747zm.783 3.231.41 1.638h1.548l-1.914-9.114h-1.646l-1.914 9.114h1.647l.356-1.638zm8.785-7.476h-1.647v6.381q0 .205-.089.392-.089.205-.24.356-.16.16-.356.25-.205.088-.4.097-.205 0-.392-.098-.205-.089-.356-.249-.16-.151-.258-.356-.09-.196-.09-.392v-6.381h-1.646v6.381q0 .499.231.988.232.49.632.89.392.4.882.623.49.232.996.232.499 0 .988-.232.49-.231.9-.623.391-.391.614-.89.231-.49.231-.988zm6.969 6.382h-1.638q0 .204-.097.391-.09.205-.24.356-.161.16-.357.25-.204.088-.4.097-.205 0-.392-.098-.205-.089-.356-.249-.16-.151-.258-.356-.09-.196-.09-.392V46.46q0-.205.09-.4.089-.196.258-.356.151-.152.356-.24.196-.09.392-.099.204 0 .4.098.196.09.356.24.152.16.24.357.09.204.098.4h1.638q0-.498-.231-.988-.232-.49-.614-.899-.4-.392-.9-.614-.489-.231-.987-.231-.499 0-.997.231-.49.231-.881.614-.4.4-.632.9-.232.489-.223.987v3.65q0 .498.223.987.231.49.632.89.391.4.88.623.49.232.998.232.498 0 .988-.232.49-.231.899-.623.391-.391.614-.89.231-.49.231-.988zm6.969-6.382h-1.646v3.711h-2.18v-3.711h-1.647v9.114h1.646v-3.765h2.18v3.765h1.647zm3.463 3.712v-2.075h3.827v-1.637h-5.474v9.114h5.474v-1.638h-3.827v-2.127h1.638v-1.638z" aria-label="SIGNAUX AGAUCHE" style="font-style:normal;font-variant:normal;font-weight:400;font-stretch:normal;font-family:PoliceSNCF;text-align:center;text-anchor:middle;fill:#fff;stroke-width:2.27858" transform="matrix(1.20807 0 0 1.20807 -136.806 -12.508)"/></g></g></svg>