<svg xmlns="http://www.w3.org/2000/svg" width="64" height="64"><path fill="none" d="M0 0h64v64H0z" style="fill:#fff;fill-opacity:0;stroke-width:6.4;stroke-linecap:round;stroke-linejoin:round;paint-order:markers stroke fill;stop-color:#000"/><path d="M0 21h64v22H0z" style="fill:#000;fill-opacity:1;fill-rule:nonzero;stroke:none;stroke-width:.373372" transform="translate(0 21)"/><path d="M1.297 22.297h61.406v19.405H1.297z" style="fill:none;stroke:#fff;stroke-width:.594499;stroke-miterlimit:4;stroke-dasharray:none;stroke-opacity:1" transform="translate(0 21)"/><g aria-label="STOP" style="font-style:normal;font-variant:normal;font-weight:400;font-stretch:normal;font-size:10.2534px;line-height:1.55;font-family:Roboto;font-variant-ligatures:normal;font-variant-caps:normal;font-variant-numeric:normal;font-feature-settings:normal;text-align:start;letter-spacing:0;word-spacing:0;writing-mode:lr-tb;text-anchor:start;fill:#fff;fill-opacity:1;stroke:none;stroke-width:1.28167"><path d="M20.12 28.85q0-.82-.351-1.625-.367-.777-.967-1.407-.63-.615-1.421-.966-.791-.352-1.611-.352t-1.612.352q-.79.366-1.406.966-.615.63-.981 1.407-.367.79-.352 1.626 0 .82.352 1.61.366.792.981 1.407t1.406.967q.777.366 1.612.366.336 0 .659.147.322.146.586.41.249.263.395.586.147.337.161.659 0 .337-.16.644-.147.337-.396.586-.264.264-.586.41-.337.147-.66.162-.336 0-.644-.161-.337-.147-.586-.41-.264-.25-.425-.587-.146-.322-.146-.644h-2.696q0 .82.367 1.626.38.806 1.04 1.465.644.659 1.45 1.025.806.381 1.64.381.82 0 1.627-.38.805-.382 1.479-1.026.645-.645 1.01-1.465.382-.806.382-1.626 0-.82-.381-1.64-.381-.806-1.011-1.466-.66-.644-1.48-1.025-.805-.38-1.625-.366-.674 0-1.158-.498-.498-.484-.498-1.157 0-.674.498-1.172.484-.484 1.158-.484.673 0 1.171.484.484.498.47 1.172zM27.605 27.195h3.15V24.5H21.76v2.695h3.15V39.5h2.694zM41.258 35.003v-6.006q0-.82-.381-1.626-.38-.806-1.01-1.48-.66-.644-1.48-1.01-.806-.381-1.626-.381-.82 0-1.64.38-.807.382-1.451 1.012-.66.659-1.04 1.48-.381.805-.366 1.625v6.006q0 .82.366 1.626.38.806 1.04 1.465.644.659 1.45 1.025.806.381 1.64.381.821 0 1.627-.38.805-.382 1.48-1.026.644-.645 1.01-1.465.38-.806.38-1.626zm-2.696 0q0 .337-.16.644-.147.337-.396.586-.264.264-.586.41-.337.147-.66.162-.336 0-.644-.161-.337-.147-.586-.41-.263-.25-.425-.587-.146-.322-.146-.644v-6.006q0-.337.146-.66.147-.321.425-.585.25-.25.586-.396.322-.146.645-.16.337 0 .659.16.322.147.586.396.249.264.395.586.147.337.161.66zM46.429 30.799v-3.604h1.801q.337 0 .66.161.322.147.586.396.249.264.395.586.147.337.147.66 0 .336-.147.644-.146.337-.395.586-.264.263-.586.424-.337.147-.66.147zm0 2.695h1.801q.82 0 1.626-.366.806-.38 1.48-1.04.644-.645 1.01-1.45.382-.806.382-1.64 0-.821-.381-1.627t-1.011-1.48q-.66-.644-1.48-1.01-.805-.381-1.626-.381H43.72v15h2.71z" style="font-style:normal;font-variant:normal;font-weight:400;font-stretch:normal;font-size:15px;font-family:PoliceSNCF;text-align:center;text-anchor:middle;fill:#fff;stroke-width:1.28167" transform="translate(0 21)"/></g></svg>