<svg xmlns="http://www.w3.org/2000/svg" width="64" height="64"><path d="M-42.268-5.158h64v64h-64z" style="fill:#fff;fill-opacity:1;fill-rule:nonzero;stroke:none;stroke-width:.636824" transform="translate(42.268 5.158)"/><path d="M-39.281-2.171h58.026v58.026h-58.026z" style="fill:none;stroke:#000;stroke-width:3.97394;stroke-miterlimit:4;stroke-dasharray:none;stroke-opacity:1" transform="translate(42.268 5.158)"/><g style="font-style:normal;font-variant:normal;font-weight:400;font-stretch:normal;font-size:16px;line-height:1.25;font-family:Roboto;font-variant-ligatures:normal;font-variant-caps:normal;font-variant-numeric:normal;font-feature-settings:normal;text-align:start;letter-spacing:0;word-spacing:0;writing-mode:lr-tb;text-anchor:start;fill:#000;fill-opacity:1;stroke:none;stroke-width:2"><g aria-label="GARE" style="font-style:normal;font-variant:normal;font-weight:400;font-stretch:normal;font-size:17.7346px;line-height:1.25;font-family:Roboto;font-variant-ligatures:normal;font-variant-caps:normal;font-variant-numeric:normal;font-feature-settings:normal;text-align:start;letter-spacing:0;word-spacing:0;writing-mode:lr-tb;text-anchor:start;fill:#000;fill-opacity:1;stroke:none;stroke-width:4.43365"><path d="M125.686 21.986q0-.97-.415-1.923-.433-.918-1.143-1.662-.745-.728-1.68-1.143-.936-.416-1.905-.416-.97 0-1.906.416-.935.432-1.662 1.143-.728.744-1.16 1.662-.434.935-.416 1.923 0 .97.415 1.905.433.935 1.16 1.662.728.728 1.663 1.143.918.433 1.906.433.398 0 .779.174.38.173.693.484.294.312.467.693.173.399.19.78 0 .398-.19.762-.173.398-.467.692-.312.312-.693.485-.398.173-.78.19-.398 0-.762-.19-.398-.173-.692-.485-.312-.294-.503-.692-.173-.381-.173-.762h-3.186q0 .97.433 1.922.45.952 1.23 1.732.761.78 1.714 1.212.952.45 1.94.45.97 0 1.922-.45t1.75-1.212q.761-.762 1.194-1.732.45-.953.45-1.922 0-.97-.45-1.94-.45-.953-1.195-1.732-.78-.762-1.75-1.212-.952-.45-1.921-.433-.797 0-1.369-.59-.589-.57-.589-1.367t.59-1.386q.57-.571 1.368-.571.796 0 1.385.571.572.589.554 1.386zm8.85-1.957h3.724v-3.187h-10.634v3.187h3.724v14.547h3.186zm16.141 9.231v-7.101q0-.97-.45-1.923-.45-.952-1.195-1.749-.78-.762-1.749-1.195-.953-.45-1.922-.45-.97 0-1.94.45-.953.45-1.715 1.195-.78.78-1.23 1.75-.45.952-.432 1.922v7.1q0 .97.433 1.923.45.952 1.23 1.732.761.78 1.714 1.212.952.45 1.94.45.97 0 1.922-.45.953-.45 1.75-1.212.761-.762 1.194-1.732.45-.953.45-1.922m-3.186 0q0 .398-.19.762-.174.398-.468.692-.312.312-.693.485-.398.173-.78.19-.398 0-.761-.19-.399-.173-.693-.485-.312-.294-.502-.692-.174-.381-.174-.762v-7.101q0-.399.174-.78.173-.38.502-.692.294-.295.693-.468.38-.173.762-.19.398 0 .779.19.38.173.693.468.294.311.467.692.173.399.19.78zm9.3-4.971v-4.26h2.13q.399 0 .78.19.38.173.692.468.295.311.468.692.173.399.173.78 0 .398-.173.762-.173.398-.468.693-.311.311-.692.502-.399.173-.78.173zm0 3.187h2.13q.97 0 1.923-.433.952-.45 1.749-1.23.762-.762 1.195-1.714.45-.953.45-1.94 0-.97-.45-1.923-.45-.952-1.195-1.749-.78-.762-1.75-1.195-.952-.45-1.922-.45h-5.334v17.734h3.204zM119.07 56.842h3.204V39.107h-3.204zm11.448 0q.97 0 1.923-.45.952-.45 1.749-1.213.762-.762 1.195-1.732.45-.952.45-1.922v-7.1q0-.97-.45-1.923t-1.195-1.75q-.78-.761-1.75-1.194-.952-.45-1.922-.45t-1.94.45q-.952.45-1.714 1.195-.78.779-1.23 1.749-.45.952-.433 1.922v7.101q0 .97.433 1.922.45.953 1.23 1.732.762.78 1.714 1.213.97.45 1.94.45m0-3.187q-.398 0-.762-.19-.398-.173-.693-.485-.311-.295-.502-.693-.173-.381-.173-.762v-7.1q0-.4.173-.78.173-.381.502-.693.295-.294.693-.468.381-.173.762-.19.399 0 .78.19.38.174.692.468.295.312.468.693.173.398.19.78v7.1q0 .398-.19.762-.173.398-.468.693-.311.312-.692.485-.381.19-.78.19m12.937 3.187q.97 0 1.923-.45.952-.45 1.75-1.213.761-.762 1.194-1.732.45-.952.45-1.922v-7.1q0-.97-.45-1.923t-1.195-1.75q-.78-.761-1.75-1.194-.952-.45-1.922-.45t-1.94.45q-.952.45-1.714 1.195-.78.779-1.23 1.749-.45.952-.432 1.922v7.101q0 .97.433 1.922.45.953 1.23 1.732.761.78 1.714 1.213.97.45 1.94.45zm0-3.187q-.398 0-.762-.19-.398-.173-.692-.485-.312-.295-.503-.693-.173-.381-.173-.762v-7.1q0-.4.173-.78.174-.381.503-.693.294-.294.692-.468.381-.173.762-.19.399 0 .78.19.38.174.693.468.294.312.467.693.173.398.19.78v7.1q0 .398-.19.762-.173.398-.467.693-.312.312-.693.485-.381.19-.78.19m14.531-6.564q-.693 0-1.16.139-.468.156-.797.398-.277-.225-.745-.398-.485-.139-1.195-.139-.398 0-.589.018-.207.034-.398.086v-.104h-1.94v9.75h1.94v-6.823q0-.38.312-.675.277-.295.675-.312.399 0 .693.294.277.295.277.693v6.824h1.957v-6.824q0-.38.295-.675.277-.295.675-.312.398 0 .693.294.277.295.277.693v6.824h1.957v-6.824q0-2.927-2.927-2.927" aria-label="STOP 100m" style="font-style:normal;font-variant:normal;font-weight:400;font-stretch:normal;font-family:PoliceSNCF;text-align:center;text-anchor:middle;stroke-width:4.43365" transform="translate(-107.732 -4.842)"/></g></g></svg>