<svg xmlns="http://www.w3.org/2000/svg" width="64" height="64"><path d="M-42.268-5.158h64v64h-64z" style="fill:#fff;fill-opacity:1;fill-rule:nonzero;stroke:none;stroke-width:.636824" transform="translate(42.268 5.158)"/><path d="M-39.281-2.171h58.026v58.026h-58.026z" style="fill:none;stroke:#000;stroke-width:3.97394;stroke-miterlimit:4;stroke-dasharray:none;stroke-opacity:1" transform="translate(42.268 5.158)"/><g style="font-style:normal;font-variant:normal;font-weight:400;font-stretch:normal;font-size:19.9514px;line-height:1.45;font-family:Roboto;font-variant-ligatures:normal;font-variant-caps:normal;font-variant-numeric:normal;font-feature-settings:normal;text-align:start;letter-spacing:0;word-spacing:0;writing-mode:lr-tb;text-anchor:start;fill:#000;fill-opacity:1;stroke:none;stroke-width:2.49393"><path d="m130.75 32.298 7.989-16.366v-3.585h-11.963v3.585h7.968l-7.968 16.366zm15.957 0q1.092 0 2.163-.506 1.072-.507 1.968-1.364.857-.858 1.344-1.949.507-1.071.507-2.162v-7.989q0-1.09-.507-2.162-.506-1.072-1.344-1.968-.877-.858-1.968-1.345-1.071-.506-2.163-.506-1.09 0-2.182.506-1.071.507-1.929 1.345-.876.876-1.383 1.968-.507 1.071-.487 2.162v7.989q0 1.09.487 2.162.507 1.072 1.383 1.949.858.876 1.93 1.364 1.09.506 2.181.506m0-3.585q-.448 0-.857-.214-.448-.195-.78-.546-.35-.331-.564-.78-.195-.428-.195-.856v-7.989q0-.448.195-.876.195-.43.565-.78.331-.331.78-.526.428-.195.856-.214.449 0 .877.214.429.195.78.526.33.35.526.78.194.448.214.876v7.989q0 .448-.214.857-.195.448-.526.78-.351.35-.78.545-.428.214-.877.214m-8.465 18.459q0-1.09-.468-2.162-.487-1.033-1.286-1.87-.838-.82-1.89-1.287t-2.143-.467-2.143.467q-1.052.487-1.87 1.286-.819.838-1.306 1.87-.487 1.053-.468 2.163 0 .682.215 1.364.195.702.506 1.247.293.585.585.935.292.37.467.448-.818.76-1.402 1.832-.585 1.091-.565 2.357 0 1.092.487 2.163.506 1.072 1.383 1.949.857.876 1.929 1.363 1.071.507 2.182.507 1.091 0 2.163-.507 1.071-.506 1.968-1.363.857-.858 1.344-1.949.507-1.071.507-2.163 0-1.266-.585-2.357-.584-1.072-1.383-1.832.156-.058.448-.448.292-.35.604-.935.292-.565.506-1.247t.215-1.364m-3.605 0q0 .897-.623 1.54-.663.662-1.559.662t-1.54-.662q-.662-.643-.662-1.54 0-.896.663-1.558.643-.643 1.539-.643t1.559.643q.623.662.623 1.558m-4.578 8.183q0-.448.194-.876.195-.429.565-.78.332-.33.78-.545.428-.195.857-.195.448 0 .877.195.428.195.78.545.33.351.525.78.195.448.215.876 0 .449-.215.858-.195.448-.526.78-.35.35-.78.545-.447.195-.876.214-.448 0-.857-.214-.448-.195-.78-.546-.35-.331-.565-.78-.194-.408-.194-.857m16.951 5.982q1.09 0 2.162-.507 1.072-.506 1.968-1.363.857-.858 1.344-1.949.507-1.071.507-2.163v-7.988q0-1.091-.507-2.163-.506-1.071-1.344-1.967-.877-.858-1.968-1.345-1.071-.506-2.163-.506-1.09 0-2.182.506-1.071.507-1.929 1.345-.876.876-1.383 1.967-.507 1.072-.487 2.163v7.988q0 1.092.487 2.163.507 1.072 1.383 1.949.858.876 1.93 1.363 1.09.507 2.181.507zm0-3.585q-.449 0-.858-.214-.448-.195-.78-.546-.35-.331-.564-.78-.195-.428-.195-.857v-7.988q0-.448.195-.877.195-.428.565-.779.331-.331.78-.526.428-.195.856-.214.449 0 .877.214.429.195.78.526.33.35.526.78.194.447.214.876v7.988q0 .449-.214.858-.195.448-.526.78-.351.35-.78.545-.428.214-.877.214z" aria-label="70 80" style="font-style:normal;font-variant:normal;font-weight:400;font-stretch:normal;font-family:PoliceSNCF;text-align:center;text-anchor:middle;stroke-width:2.49393" transform="translate(-107.732 -4.842)"/></g><path d="M122.732 36.842h34" style="fill:none;stroke:#000;stroke-width:2;stroke-linecap:butt;stroke-linejoin:miter;stroke-miterlimit:4;stroke-dasharray:none;stroke-opacity:1" transform="translate(-107.732 -4.842)"/></svg>