<svg xmlns="http://www.w3.org/2000/svg" width="64" height="64"><g aria-label="60" style="font-style:normal;font-variant:normal;font-weight:400;font-stretch:normal;font-size:30px;line-height:1.25;font-family:Roboto;font-variant-ligatures:normal;font-variant-caps:normal;font-variant-numeric:normal;font-feature-settings:normal;text-align:start;letter-spacing:0;word-spacing:0;writing-mode:lr-tb;text-anchor:start;fill:#000;fill-opacity:1;stroke:none;stroke-width:3.75"><path d="M119.732 68.842h40V22.296l-20-17.454-20 17.454z" style="fill:#000;fill-opacity:1;stroke:none;stroke-width:1.17004px;stroke-linecap:butt;stroke-linejoin:miter;stroke-opacity:1" transform="translate(-107.732 -4.842)"/><path d="M121.732 66.842h36V23.457l-18-16.23-18 16.186z" style="fill:#fff;fill-opacity:1;stroke:none;stroke-width:1.05304px;stroke-linecap:butt;stroke-linejoin:miter;stroke-opacity:1" transform="translate(-107.732 -4.842)"/><g style="font-style:normal;font-variant:normal;font-weight:400;font-stretch:normal;font-size:38px;line-height:1.25;font-family:Roboto;font-variant-ligatures:normal;font-variant-caps:normal;font-variant-numeric:normal;font-feature-settings:normal;text-align:start;letter-spacing:0;word-spacing:0;writing-mode:lr-tb;text-anchor:start;fill:#000;fill-opacity:1;stroke:none;stroke-width:17.8125"><path d="M144.297 36.234h6.828q0-2.078-.965-4.119t-2.56-3.748q-1.67-1.633-3.748-2.56-2.041-.965-4.12-.965-2.078 0-4.156.965-2.04.965-3.673 2.56-1.67 1.67-2.635 3.748-.965 2.041-.928 4.12v15.214q0 2.078.928 4.12.965 2.04 2.635 3.71 1.632 1.67 3.673 2.598 2.041.965 4.157.965 2.078 0 4.119-.965t3.748-2.598q1.633-1.632 2.56-3.71.965-2.042.965-4.12t-.965-4.156q-.965-2.041-2.56-3.71-1.67-1.634-3.748-2.599-2.041-.964-4.12-.927-1.744 0-2.931.408-1.188.445-1.633.742v-4.973q0-.853.371-1.67.371-.816 1.076-1.484.631-.63 1.485-1.002.816-.37 1.633-.408.853 0 1.67.408.816.371 1.484 1.002.63.668 1.002 1.485.408.816.408 1.67zm0 15.215q0 .854-.408 1.633-.371.854-1.002 1.484-.668.668-1.484 1.04-.854.37-1.67.408-.854 0-1.633-.408-.854-.372-1.485-1.04-.668-.63-1.076-1.484-.37-.816-.37-1.633 0-.853.37-1.67.371-.816 1.076-1.484.631-.63 1.485-1.04.816-.37 1.633-.37.853 0 1.67.37.816.372 1.484 1.04.63.668 1.002 1.484.408.817.408 1.67" aria-label="6" style="font-style:normal;font-variant:normal;font-weight:400;font-stretch:normal;font-family:PoliceSNCF;stroke-width:17.8125" transform="translate(-107.732 -4.842)"/></g></g></svg>