<svg xmlns="http://www.w3.org/2000/svg" width="64" height="64"><path d="M107.732 4.842h64v64h-64z" style="fill:#000;fill-opacity:1;fill-rule:nonzero;stroke:none;stroke-width:.636824" transform="translate(-107.732 -4.842)"/><path d="M110.699 7.809h58.065v58.065h-58.065z" style="fill:none;stroke:#fff;stroke-width:3.93508;stroke-miterlimit:4;stroke-dasharray:none;stroke-opacity:1" transform="translate(-107.732 -4.842)"/><g aria-label="60" style="font-style:normal;font-variant:normal;font-weight:400;font-stretch:normal;font-size:30px;line-height:1.25;font-family:Roboto;font-variant-ligatures:normal;font-variant-caps:normal;font-variant-numeric:normal;font-feature-settings:normal;text-align:start;letter-spacing:0;word-spacing:0;writing-mode:lr-tb;text-anchor:start;fill:#fff;fill-opacity:1;stroke:none;stroke-width:3.75"><path d="M132.394 30.836h5.39q0-1.64-.762-3.252-.761-1.611-2.021-2.959-1.318-1.289-2.959-2.021-1.611-.762-3.252-.762-1.64 0-3.281.762-1.612.761-2.9 2.021-1.319 1.318-2.08 2.96-.762 1.61-.733 3.251v12.012q0 1.64.732 3.252.762 1.611 2.08 2.93 1.29 1.318 2.9 2.05 1.612.762 3.282.762 1.64 0 3.252-.762 1.611-.762 2.959-2.05 1.29-1.29 2.021-2.93.762-1.612.762-3.252 0-1.64-.762-3.282-.761-1.61-2.021-2.93-1.318-1.288-2.959-2.05-1.611-.762-3.252-.732-1.377 0-2.314.322-.938.351-1.29.586v-3.926q0-.674.294-1.318.292-.645.85-1.172.497-.498 1.171-.791.645-.293 1.29-.322.673 0 1.317.322.645.293 1.172.79.498.528.791 1.173.323.644.323 1.318zm0 12.012q0 .674-.323 1.289-.293.674-.79 1.172-.528.527-1.173.82-.673.293-1.318.322-.674 0-1.289-.322-.674-.293-1.172-.82-.527-.498-.85-1.172-.292-.645-.292-1.29 0-.673.293-1.318.292-.644.85-1.171.497-.499 1.171-.82.645-.294 1.29-.294.673 0 1.317.293.645.293 1.172.82.498.528.791 1.172.323.645.323 1.319zM150.675 51.842q1.64 0 3.252-.762 1.611-.762 2.959-2.05 1.289-1.29 2.021-2.93.762-1.612.762-3.252V30.836q0-1.64-.762-3.252-.761-1.611-2.021-2.959-1.319-1.289-2.96-2.021-1.61-.762-3.251-.762-1.64 0-3.281.762-1.612.761-2.9 2.021-1.32 1.318-2.08 2.96-.763 1.61-.733 3.251v12.012q0 1.64.732 3.252.762 1.611 2.08 2.93 1.29 1.318 2.9 2.05 1.641.762 3.282.762zm0-5.39q-.674 0-1.29-.323-.673-.293-1.171-.82-.527-.498-.85-1.172-.293-.645-.293-1.29V30.837q0-.674.293-1.318.293-.645.85-1.172.498-.498 1.172-.791.644-.293 1.289-.322.674 0 1.318.322.645.293 1.172.79.498.528.791 1.173.293.673.322 1.318v12.012q0 .674-.322 1.289-.293.674-.79 1.172-.528.527-1.173.82-.644.322-1.318.322z" style="font-style:normal;font-variant:normal;font-weight:400;font-stretch:normal;font-family:PoliceSNCF;stroke-width:3.75;fill:#fff" transform="translate(-107.732 -4.842)"/></g></svg>