<svg xmlns="http://www.w3.org/2000/svg" width="64" height="64"><g aria-label="60" style="font-style:normal;font-variant:normal;font-weight:400;font-stretch:normal;font-size:30px;line-height:1.25;font-family:Roboto;font-variant-ligatures:normal;font-variant-caps:normal;font-variant-numeric:normal;font-feature-settings:normal;text-align:start;letter-spacing:0;word-spacing:0;writing-mode:lr-tb;text-anchor:start;fill:#000;fill-opacity:1;stroke:none;stroke-width:3.75"><path d="M119.732 4.842h40v46.545l-20 17.455-20-17.455z" style="fill:#000;fill-opacity:1;stroke:none;stroke-width:1.17004px;stroke-linecap:butt;stroke-linejoin:miter;stroke-opacity:1" transform="translate(-107.732 -4.842)"/><path d="M120.732 5.842h38v45l-19 16.489-19-16.49z" style="fill:#fff;fill-opacity:1;stroke:none;stroke-width:1.11154px;stroke-linecap:butt;stroke-linejoin:miter;stroke-opacity:1" transform="translate(-107.732 -4.842)"/><path d="M121.732 6.842h36v43.534l-18 15.755-18-15.739z" style="fill:#000;fill-opacity:1;stroke:none;stroke-width:1.05304px;stroke-linecap:butt;stroke-linejoin:miter;stroke-opacity:1" transform="translate(-107.732 -4.842)"/><g style="font-style:normal;font-variant:normal;font-weight:400;font-stretch:normal;font-size:38px;line-height:1.25;font-family:Roboto;font-variant-ligatures:normal;font-variant-caps:normal;font-variant-numeric:normal;font-feature-settings:normal;text-align:start;letter-spacing:0;word-spacing:0;writing-mode:lr-tb;text-anchor:start;fill:#fff;fill-opacity:1;stroke:none;stroke-width:17.8125"><g aria-label="5" style="font-style:normal;font-variant:normal;font-weight:400;font-stretch:normal;font-size:38px;line-height:1.25;font-family:Roboto;font-variant-ligatures:normal;font-variant-caps:normal;font-variant-numeric:normal;font-feature-settings:normal;text-align:start;letter-spacing:0;word-spacing:0;writing-mode:lr-tb;text-anchor:start;fill:#fff;fill-opacity:1;stroke:none;stroke-width:84.6094"><path d="M150.754 22.863q0-2.078-.89-4.119-.928-1.967-2.45-3.562-1.596-1.559-3.6-2.45-2.003-.89-4.081-.89t-4.083.89q-2.003.928-3.562 2.45-1.559 1.595-2.486 3.562-.928 2.004-.891 4.12 0 1.298.408 2.597.371 1.336.965 2.375.557 1.113 1.113 1.781.557.705.891.854-1.559 1.447-2.672 3.488-1.113 2.078-1.076 4.49 0 2.078.928 4.12.965 2.04 2.634 3.71 1.633 1.67 3.674 2.598 2.041.965 4.157.965 2.078 0 4.119-.965t3.748-2.598q1.633-1.632 2.56-3.71.965-2.042.965-4.12 0-2.412-1.113-4.49-1.113-2.04-2.635-3.488.297-.112.854-.854.556-.668 1.15-1.781.557-1.076.965-2.375t.408-2.598m-6.865 0q0 1.707-1.188 2.932-1.261 1.262-2.968 1.262t-2.932-1.262q-1.262-1.225-1.262-2.932t1.262-2.968q1.224-1.225 2.932-1.225t2.968 1.225q1.188 1.261 1.188 2.968m-8.721 15.586q0-.853.371-1.67.371-.816 1.076-1.484.631-.63 1.485-1.04.816-.37 1.633-.37.853 0 1.67.37.816.372 1.484 1.04.63.668 1.002 1.484.37.854.408 1.67 0 .854-.408 1.633-.371.854-1.002 1.484-.668.668-1.485 1.04-.853.37-1.67.408-.853 0-1.632-.408-.854-.372-1.485-1.04-.668-.63-1.076-1.484-.37-.78-.37-1.633z" aria-label="8" style="font-style:normal;font-variant:normal;font-weight:400;font-stretch:normal;font-family:PoliceSNCF;fill:#fff;stroke-width:84.6094" transform="translate(-107.732 -1.842)"/></g></g></g></svg>