<svg xmlns="http://www.w3.org/2000/svg" width="64" height="64"><path fill="none" d="M0 0h64v64H0z" style="fill:#fff;fill-opacity:0;stroke-width:6.4;stroke-linecap:round;stroke-linejoin:round;paint-order:markers stroke fill;stop-color:#000"/><path d="M.984 63h62.032V26.427c0-33.923-62.032-33.923-62.032 0z" style="font-style:normal;font-variant:normal;font-weight:400;font-stretch:normal;font-size:30px;line-height:1.25;font-family:Roboto;font-variant-ligatures:normal;font-variant-caps:normal;font-variant-numeric:normal;font-feature-settings:normal;text-align:start;letter-spacing:0;word-spacing:0;writing-mode:lr-tb;text-anchor:start;fill:#fff;fill-opacity:1;stroke:#000;stroke-width:1.96876;stroke-linecap:butt;stroke-linejoin:miter;stroke-miterlimit:4;stroke-dasharray:none;stroke-opacity:1"/><g style="font-style:normal;font-variant:normal;font-weight:400;font-stretch:normal;font-size:20px;line-height:1.45;font-family:Roboto;font-variant-ligatures:normal;font-variant-caps:normal;font-variant-numeric:normal;font-feature-settings:normal;text-align:start;letter-spacing:0;word-spacing:0;writing-mode:lr-tb;text-anchor:start;fill:#000;fill-opacity:1;stroke:none;stroke-width:2.5"><path d="M27.108 13.441h3.594q0-1.093-.508-2.168-.508-1.074-1.348-1.972-.879-.86-1.973-1.348-1.074-.508-2.168-.508-1.093 0-2.187.508-1.074.508-1.934 1.348-.879.879-1.386 1.972-.508 1.075-.489 2.168v8.008q0 1.094.489 2.168.507 1.074 1.386 1.953.86.88 1.934 1.367 1.074.508 2.187.508 1.094 0 2.168-.508 1.075-.507 1.973-1.367.86-.86 1.348-1.953.508-1.074.508-2.168t-.508-2.187q-.508-1.075-1.348-1.954-.879-.859-1.973-1.367-1.074-.508-2.168-.488-.918 0-1.543.215-.625.234-.859.39v-2.617q0-.449.195-.879.196-.43.567-.78.332-.333.781-.528.43-.196.86-.215.449 0 .878.215.43.195.782.527.332.352.527.781.215.43.215.88zm0 8.008q0 .45-.215.86-.195.449-.527.78-.352.352-.782.548-.449.195-.879.214-.449 0-.859-.214-.45-.196-.781-.547-.352-.332-.567-.782-.195-.43-.195-.859 0-.45.195-.879.196-.43.567-.781.332-.332.781-.547.43-.195.86-.195.449 0 .878.195.43.195.782.547.332.352.527.781.215.43.215.88zm12.187 5.996q1.094 0 2.168-.508 1.074-.507 1.973-1.367.86-.86 1.348-1.953.507-1.074.507-2.168v-8.008q0-1.093-.507-2.168-.508-1.074-1.348-1.972-.879-.86-1.973-1.348-1.074-.508-2.168-.508-1.093 0-2.187.508-1.074.508-1.934 1.348-.879.879-1.387 1.972-.507 1.075-.488 2.168v8.008q0 1.094.488 2.168.508 1.074 1.387 1.953.86.88 1.934 1.367 1.094.508 2.187.508m0-3.594q-.449 0-.86-.214-.448-.196-.78-.547-.352-.332-.567-.782-.195-.43-.195-.859v-8.008q0-.449.195-.879.196-.43.567-.78.332-.333.78-.528.43-.196.86-.215.45 0 .88.215.429.195.78.527.332.352.528.781.195.45.215.88v8.007q0 .45-.215.86-.196.449-.528.78-.351.352-.78.548-.43.214-.88.214M24.705 42.55q-.683 0-.937.04-.254.039-.469.137v-2.578h6.406v-3.594h-10v8.965l3.594 1.172q.02-.176.313-.352t1.093-.176q.45 0 .88.195.429.196.78.528.333.351.528.781.195.45.215.879v2.012q0 .449-.215.86-.195.448-.527.78-.352.352-.782.547-.449.196-.879.215-.449 0-.859-.215-.45-.195-.781-.547-.352-.332-.567-.78-.195-.43-.195-.86H18.71q0 1.093.489 2.168.507 1.074 1.386 1.953.86.879 1.934 1.367 1.074.508 2.187.508 1.094 0 2.168-.508t1.973-1.367q.86-.86 1.348-1.953.508-1.075.508-2.168v-2.012q0-1.094-.508-2.168t-1.348-1.973q-.879-.859-1.973-1.347-1.074-.508-2.168-.508zm14.59 14.005q1.094 0 2.168-.508t1.973-1.367q.86-.86 1.348-1.953.507-1.075.507-2.168V42.55q0-1.094-.507-2.168-.508-1.074-1.348-1.973-.879-.86-1.973-1.347-1.074-.508-2.168-.508-1.093 0-2.187.508-1.074.507-1.934 1.347-.879.88-1.387 1.973-.507 1.074-.488 2.168v8.008q0 1.093.488 2.168.508 1.074 1.387 1.953.86.879 1.934 1.367 1.094.508 2.187.508zm0-3.594q-.449 0-.86-.215-.448-.195-.78-.547-.352-.332-.567-.78-.195-.43-.195-.86V42.55q0-.45.195-.879.196-.43.567-.781.332-.332.78-.528.43-.195.86-.214.45 0 .88.214.429.196.78.528.332.351.528.781.195.45.215.879v8.008q0 .449-.215.86-.196.448-.528.78-.351.352-.78.547-.43.215-.88.215z" aria-label="60 50" style="font-style:normal;font-variant:normal;font-weight:400;font-stretch:normal;font-family:PoliceSNCF;text-align:center;text-anchor:middle;stroke-width:2.5"/></g><path d="M14 32h36" style="fill:none;stroke:#000;stroke-width:2;stroke-linecap:butt;stroke-linejoin:miter;stroke-miterlimit:4;stroke-dasharray:none;stroke-opacity:1"/></svg>