<svg xmlns="http://www.w3.org/2000/svg" width="128" height="128"><path fill="none" d="M0 0h128v128H0z" style="fill:#fff;fill-opacity:0;stroke:none"/><path d="M-26.343 30.786h4.305c.93 0 1.684.754 1.684 1.684v.072c0 .93-.754 1.684-1.684 1.684h-4.305c-.93 0-1.684-.754-1.684-1.684v-.072c0-.93.754-1.684 1.684-1.684m0 0" style="fill:none;stroke:#000;stroke-width:1.058;stroke-linecap:round;stroke-linejoin:round;stroke-miterlimit:4;stroke-opacity:1" transform="rotate(90 15.927 293.783)scale(7.55891)"/><path d="M-26.316 30.786h4.25a1.71 1.71 0 0 1 1.712 1.711v.018a1.71 1.71 0 0 1-1.711 1.71h-4.251a1.71 1.71 0 0 1-1.711-1.71v-.018c0-.945.766-1.71 1.71-1.71zm0 0" style="fill:#000;fill-opacity:1;fill-rule:nonzero;stroke:#fff;stroke-width:.529;stroke-linecap:round;stroke-linejoin:round;stroke-miterlimit:4;stroke-opacity:1" transform="rotate(90 15.927 293.783)scale(7.55891)"/><text xml:space="preserve" x="56.129" y="106.63" style="font-size:32.5343px;line-height:1.25;font-family:Arial;-inkscape-font-specification:Arial;letter-spacing:0;word-spacing:0;fill:#fff;stroke-width:.813358"><tspan x="56.129" y="106.63" style="font-style:normal;font-variant:normal;font-weight:700;font-stretch:normal;font-family:Roboto;-inkscape-font-specification:Roboto;fill:#fff;stroke-width:.813358">?</tspan></text></svg>