<svg xmlns="http://www.w3.org/2000/svg" width="64" height="64"><path d="M107.732 4.842h64v64h-64z" style="fill:#000;fill-opacity:1;fill-rule:nonzero;stroke:none;stroke-width:.636824" transform="translate(-107.732 -4.842)"/><path d="M110.699 7.809h58.065v58.065h-58.065z" style="fill:none;stroke:#fff;stroke-width:3.93508;stroke-miterlimit:4;stroke-dasharray:none;stroke-opacity:1" transform="translate(-107.732 -4.842)"/><g aria-label="TT" style="font-style:normal;font-variant:normal;font-weight:400;font-stretch:normal;font-size:32px;line-height:1.25;font-family:Roboto;font-variant-ligatures:normal;font-variant-caps:normal;font-variant-numeric:normal;font-feature-settings:normal;text-align:start;letter-spacing:0;word-spacing:0;writing-mode:lr-tb;text-anchor:start;fill:#fff;fill-opacity:1;stroke:none;stroke-width:4"><g aria-label="9V" style="font-style:normal;font-variant:normal;font-weight:400;font-stretch:normal;font-size:24.3447px;line-height:1.25;font-family:Roboto;font-variant-ligatures:normal;font-variant-caps:normal;font-variant-numeric:normal;font-feature-settings:normal;text-align:start;letter-spacing:0;word-spacing:0;writing-mode:lr-tb;text-anchor:start;fill:#fff;fill-opacity:1;stroke:none;stroke-width:12.1724"><path d="M131.031 39.267q1.117 0 1.902-.285.76-.262 1.022-.452v3.186q0 .546-.261 1.046-.238.546-.642.95-.428.429-.951.666-.547.238-1.07.262-.547 0-1.046-.262-.547-.237-.951-.665-.428-.405-.69-.951-.237-.523-.237-1.046h-4.375q0 1.33.595 2.639.618 1.307 1.688 2.377 1.046 1.07 2.353 1.664 1.308.618 2.663.618 1.331 0 2.639-.618 1.308-.618 2.401-1.664 1.046-1.046 1.64-2.377.619-1.308.619-2.64v-9.747q0-1.331-.618-2.639-.619-1.307-1.64-2.4-1.07-1.047-2.402-1.641-1.308-.618-2.639-.618-1.331 0-2.663.618-1.307.618-2.353 1.64-1.07 1.07-1.688 2.401-.618 1.308-.595 2.64 0 1.33.595 2.662.618 1.307 1.688 2.354 1.046 1.07 2.353 1.687 1.332.595 2.663.595zm2.924-7.299q0 .547-.261 1.046-.238.547-.642.951-.428.428-.951.69-.547.237-1.07.237-.547 0-1.046-.237-.547-.238-.951-.69-.428-.404-.69-.95-.237-.524-.237-1.047 0-.547.238-1.07.237-.523.689-.95.404-.405.951-.643.523-.237 1.046-.261.547 0 1.07.261.523.238.95.642.405.428.643.951.261.523.261 1.07zM148.41 37.674l-2.9-13.004h-4.399l5.112 24.344h4.398l5.111-24.344h-4.136z" style="font-style:normal;font-variant:normal;font-weight:400;font-stretch:normal;font-family:PoliceSNCF;fill:#fff;stroke-width:12.1724" transform="translate(-107.732 -4.842)"/></g></g></svg>