<svg xmlns="http://www.w3.org/2000/svg" width="64" height="64"><path d="M107.732 4.842h64v64h-64z" style="fill:#000;fill-opacity:1;fill-rule:nonzero;stroke:none;stroke-width:.636824" transform="translate(-107.732 -4.842)"/><path d="M110.699 7.809h58.065v58.065h-58.065z" style="fill:none;stroke:#fff;stroke-width:3.93508;stroke-miterlimit:4;stroke-dasharray:none;stroke-opacity:1" transform="translate(-107.732 -4.842)"/><g style="font-style:normal;font-variant:normal;font-weight:400;font-stretch:normal;font-size:32px;line-height:1.25;font-family:Roboto;font-variant-ligatures:normal;font-variant-caps:normal;font-variant-numeric:normal;font-feature-settings:normal;text-align:start;letter-spacing:0;word-spacing:0;writing-mode:lr-tb;text-anchor:start;fill:#fff;fill-opacity:1;stroke:none;stroke-width:4"><g aria-label="TT" style="font-style:normal;font-variant:normal;font-weight:400;font-stretch:normal;font-size:24.3441px;line-height:1.25;font-family:Roboto;font-variant-ligatures:normal;font-variant-caps:normal;font-variant-numeric:normal;font-feature-settings:normal;text-align:start;letter-spacing:0;word-spacing:0;writing-mode:lr-tb;text-anchor:start;fill:#f9f9f9;fill-opacity:1;stroke:none;stroke-width:12.172"><path d="M133.955 31.968h4.375q0-1.331-.618-2.639-.619-1.307-1.64-2.4-1.07-1.047-2.402-1.641-1.307-.618-2.639-.618t-2.662.618q-1.308.618-2.354 1.64-1.07 1.07-1.688 2.401-.618 1.308-.594 2.64v9.746q0 1.332.594 2.64.618 1.307 1.688 2.377 1.046 1.07 2.354 1.664 1.307.618 2.662.618 1.332 0 2.64-.618 1.307-.618 2.4-1.664 1.046-1.046 1.64-2.378.619-1.307.619-2.639 0-1.33-.618-2.662-.619-1.308-1.64-2.378-1.07-1.046-2.402-1.664-1.307-.618-2.639-.594-1.117 0-1.878.261-.76.286-1.046.476v-3.186q0-.546.238-1.07.238-.523.69-.95.403-.405.95-.642.523-.238 1.046-.262.547 0 1.07.262.523.237.951.642.404.427.642.95.261.524.261 1.07m0 9.747q0 .547-.261 1.046-.238.547-.642.951-.428.428-.951.666-.547.238-1.07.262-.547 0-1.046-.262-.547-.238-.95-.666-.429-.404-.69-.95-.238-.524-.238-1.047 0-.546.238-1.07.238-.522.69-.95.403-.404.95-.666.523-.238 1.046-.238.547 0 1.07.238t.951.666q.404.428.642.95.261.524.261 1.07m14.455-4.041-2.9-13.004h-4.399l5.112 24.344h4.398l5.11-24.344h-4.136z" aria-label="6V" style="font-style:normal;font-variant:normal;font-weight:400;font-stretch:normal;font-family:PoliceSNCF;fill:#f9f9f9;stroke-width:12.172" transform="translate(-107.732 -4.842)"/></g></g></svg>