<svg xmlns="http://www.w3.org/2000/svg" width="64" height="64"><path d="M107.732 4.842h64v64h-64z" style="fill:#000;fill-opacity:1;fill-rule:nonzero;stroke:none;stroke-width:.636824" transform="translate(-107.732 -4.842)"/><path d="M110.699 7.809h58.065v58.065h-58.065z" style="fill:none;stroke:#fff;stroke-width:3.93508;stroke-miterlimit:4;stroke-dasharray:none;stroke-opacity:1" transform="translate(-107.732 -4.842)"/><g style="font-style:normal;font-variant:normal;font-weight:400;font-stretch:normal;font-size:32px;line-height:1.25;font-family:Roboto;font-variant-ligatures:normal;font-variant-caps:normal;font-variant-numeric:normal;font-feature-settings:normal;text-align:start;letter-spacing:0;word-spacing:0;writing-mode:lr-tb;text-anchor:start;fill:#fff;fill-opacity:1;stroke:none;stroke-width:4"><g aria-label="TT" style="font-style:normal;font-variant:normal;font-weight:400;font-stretch:normal;font-size:24.3441px;line-height:1.25;font-family:Roboto;font-variant-ligatures:normal;font-variant-caps:normal;font-variant-numeric:normal;font-feature-settings:normal;text-align:start;letter-spacing:0;word-spacing:0;writing-mode:lr-tb;text-anchor:start;fill:#f9f9f9;fill-opacity:1;stroke:none;stroke-width:12.172"><path d="M137.117 29.044V24.67h-12.172v4.374h6.656l-4.635 4.327 2.353 3.637q.048-.047.19-.214.167-.237.452-.332.262-.096 1.07-.096.547 0 1.07.238t.95.642q.405.428.642.951.238.547.262 1.07v2.448q0 .547-.262 1.046-.237.547-.641.951-.428.428-.951.666-.547.238-1.07.262-.547 0-1.046-.262-.547-.238-.951-.666-.428-.404-.69-.95-.237-.524-.237-1.047h-4.375q0 1.332.595 2.64.618 1.307 1.688 2.377 1.046 1.07 2.353 1.664 1.308.618 2.663.618 1.331 0 2.639-.618t2.4-1.664q1.047-1.046 1.641-2.378.618-1.307.618-2.639v-2.448q0-1.332-.499-2.496-.523-1.142-1.26-1.997-.784-.856-1.521-1.38-.761-.546-1.38-.855zm11.293 8.63-2.901-13.004h-4.398l5.111 24.344h4.398l5.112-24.344h-4.137z" aria-label="3V" style="font-style:normal;font-variant:normal;font-weight:400;font-stretch:normal;font-family:PoliceSNCF;fill:#f9f9f9;stroke-width:12.172" transform="translate(-107.732 -4.842)"/></g></g></svg>