<svg xmlns="http://www.w3.org/2000/svg" width="64" height="64"><path d="M0 0h64v64H0z" style="fill:#000;fill-opacity:1;fill-rule:nonzero;stroke:none;stroke-width:.636824"/><path d="M2.968 2.968h58.065v58.065H2.968z" style="fill:none;stroke:#fff;stroke-width:3.93508;stroke-miterlimit:4;stroke-dasharray:none;stroke-opacity:1"/><path d="M22.882 14.584h3.373q0-1.026-.477-2.035-.477-1.008-1.265-1.85-.825-.807-1.85-1.265-1.009-.477-2.035-.477t-2.053.477q-1.008.476-1.815 1.264-.825.825-1.301 1.851-.477 1.009-.458 2.035v7.515q0 1.026.458 2.034.476 1.008 1.301 1.833.807.825 1.815 1.283 1.008.477 2.053.477 1.026 0 2.034-.477 1.008-.476 1.851-1.283.807-.806 1.265-1.833.477-1.008.477-2.034 0-1.027-.477-2.053-.477-1.008-1.265-1.833-.825-.806-1.85-1.283-1.009-.477-2.035-.458-.862 0-1.448.201-.587.22-.807.367v-2.456q0-.422.183-.825.184-.403.532-.733.312-.312.733-.495.403-.183.807-.201.421 0 .824.201.404.183.734.495.311.33.494.733.202.403.202.825m0 7.515q0 .421-.202.806-.183.422-.494.733-.33.33-.734.514-.421.183-.824.201-.422 0-.807-.201-.421-.184-.733-.514-.33-.311-.532-.733-.183-.403-.183-.806 0-.422.183-.825.184-.403.532-.733.312-.312.733-.513.403-.184.807-.184.421 0 .824.184.404.183.734.513.311.33.494.733.202.403.202.825m3.189 19.619q0-1.026-.44-2.035-.458-.97-1.21-1.76-.788-.769-1.777-1.209-.99-.44-2.016-.44t-2.017.44q-.99.458-1.76 1.21-.769.788-1.227 1.76-.458.99-.44 2.034 0 .641.202 1.283.183.66.476 1.173.275.55.55.88.275.348.44.421-.77.715-1.32 1.723-.55 1.027-.531 2.218 0 1.026.458 2.035.476 1.008 1.301 1.832.807.825 1.815 1.283 1.008.477 2.053.477 1.026 0 2.034-.477 1.008-.476 1.851-1.283.807-.806 1.265-1.832.477-1.009.477-2.035 0-1.191-.55-2.218-.55-1.008-1.302-1.723.147-.055.422-.421.275-.33.568-.88.275-.532.477-1.173.201-.642.201-1.283m-3.39 0q0 .843-.587 1.448-.623.623-1.466.623-.844 0-1.448-.623-.624-.605-.624-1.448t.624-1.466q.604-.605 1.448-.605.843 0 1.466.605.586.623.586 1.466zm-4.308 7.698q0-.422.183-.825.184-.403.532-.733.312-.311.733-.513.403-.183.807-.183.421 0 .824.183.404.183.734.513.311.33.494.733.184.422.202.825 0 .422-.202.807-.183.421-.494.733-.33.33-.734.513-.421.183-.824.201-.422 0-.807-.201-.421-.183-.733-.513-.33-.312-.532-.733-.183-.385-.183-.807m24.254-16.774L40.39 22.616H37l3.94 18.768h3.391l3.941-18.768h-3.189z" style="font-style:normal;font-variant:normal;font-weight:400;font-stretch:normal;font-size:18.7686px;line-height:1.45;font-family:PoliceSNCF;font-variant-ligatures:normal;font-variant-caps:normal;font-variant-numeric:normal;font-feature-settings:normal;text-align:start;letter-spacing:0;word-spacing:0;writing-mode:lr-tb;text-anchor:start;fill:#fff;fill-opacity:1;stroke:none;stroke-width:2.34607"/></svg>