<svg xmlns="http://www.w3.org/2000/svg" width="64" height="64"><path d="M0 0h64v64H0z" style="fill:#000;fill-opacity:1;fill-rule:nonzero;stroke:none;stroke-width:.636824"/><path d="M2.968 2.968h58.065v58.065H2.968z" style="fill:none;stroke:#fff;stroke-width:3.93508;stroke-miterlimit:4;stroke-dasharray:none;stroke-opacity:1"/><path d="M25.887 12.33V8.957h-9.384v3.373h5.132l-3.574 3.335 1.814 2.805q.037-.037.147-.165.128-.184.348-.257.202-.073.825-.073.422 0 .825.183.403.183.733.495.312.33.495.733.183.422.202.825v1.888q0 .421-.202.806-.183.422-.495.733-.33.33-.733.514-.422.183-.825.201-.421 0-.806-.201-.422-.184-.734-.514-.33-.311-.531-.733-.183-.403-.183-.806h-3.373q0 1.026.458 2.034.477 1.008 1.302 1.833.806.825 1.814 1.283 1.008.477 2.053.477 1.027 0 2.035-.477 1.008-.476 1.85-1.283.807-.806 1.265-1.833.477-1.008.477-2.034V20.21q0-1.027-.385-1.925-.403-.88-.971-1.54-.605-.66-1.173-1.062-.587-.422-1.063-.66zM21.195 48.28h-2.438l2.438-5.242zm-6.195 0v3.39h6.195v3.373h3.373V51.67h1.686v-3.39h-1.686V36.274h-3.355zM42.627 32.642 40.39 22.616H37l3.94 18.769h3.391l3.941-18.769h-3.189z" style="font-style:normal;font-variant:normal;font-weight:400;font-stretch:normal;font-size:18.7686px;line-height:1.45;font-family:PoliceSNCF;font-variant-ligatures:normal;font-variant-caps:normal;font-variant-numeric:normal;font-feature-settings:normal;text-align:start;letter-spacing:0;word-spacing:0;writing-mode:lr-tb;text-anchor:start;fill:#fff;fill-opacity:1;stroke:none;stroke-width:2.34607"/></svg>