<svg xmlns="http://www.w3.org/2000/svg" width="64" height="64"><path d="M107.732 4.842h64v64h-64z" style="fill:#000;fill-opacity:1;fill-rule:nonzero;stroke:none;stroke-width:.636824" transform="translate(-107.732 -4.842)"/><path d="M110.699 7.809h58.065v58.065h-58.065z" style="fill:none;stroke:#fff;stroke-width:3.93508;stroke-miterlimit:4;stroke-dasharray:none;stroke-opacity:1" transform="translate(-107.732 -4.842)"/><g aria-label="TT" style="font-style:normal;font-variant:normal;font-weight:400;font-stretch:normal;font-size:32px;line-height:1.25;font-family:Roboto;font-variant-ligatures:normal;font-variant-caps:normal;font-variant-numeric:normal;font-feature-settings:normal;text-align:start;letter-spacing:0;word-spacing:0;writing-mode:lr-tb;text-anchor:start;fill:#fff;fill-opacity:1;stroke:none;stroke-width:4"><g aria-label="TGV" style="font-style:normal;font-variant:normal;font-weight:400;font-stretch:normal;font-size:15.8837px;line-height:1.25;font-family:Roboto;font-variant-ligatures:normal;font-variant-caps:normal;font-variant-numeric:normal;font-feature-settings:normal;text-align:start;letter-spacing:0;word-spacing:0;writing-mode:lr-tb;text-anchor:start;fill:#fff;fill-opacity:1;stroke:none;stroke-width:7.94187"><path d="M129.92 21.348h3.336v-2.854h-9.524v2.854h3.335v13.03h2.854zM139.616 29.616h1.907q0 .357-.17.682-.155.357-.419.62-.28.28-.62.435-.357.155-.698.17-.357 0-.683-.17-.357-.155-.62-.434-.28-.264-.45-.62-.155-.342-.155-.683v-6.36q0-.356.155-.698.155-.341.45-.62.263-.264.62-.419.341-.155.683-.17.356 0 .698.17.34.155.62.419.264.279.419.62.155.357.17.698h2.855q0-.868-.404-1.721-.403-.854-1.07-1.567-.698-.683-1.567-1.07-.853-.404-1.721-.404-.87 0-1.738.404-.853.403-1.535 1.07-.698.698-1.102 1.567-.403.853-.387 1.721v6.36q0 .869.387 1.722.404.853 1.102 1.55.682.699 1.535 1.087.853.403 1.738.403.868 0 1.721-.403.853-.404 1.567-1.086.682-.683 1.07-1.551.404-.853.404-1.722v-2.87h-4.762zM150.954 26.979l-1.892-8.485h-2.87l3.335 15.884h2.87l3.335-15.884h-2.699z" style="font-style:normal;font-variant:normal;font-weight:400;font-stretch:normal;font-family:PoliceSNCF;fill:#fff;stroke-width:7.94187" transform="translate(-107.732 -4.842)"/></g><g aria-label="1-2" style="font-style:normal;font-variant:normal;font-weight:400;font-stretch:normal;font-size:15.8837px;line-height:1.25;font-family:Roboto;font-variant-ligatures:normal;font-variant-caps:normal;font-variant-numeric:normal;font-feature-settings:normal;text-align:start;letter-spacing:0;word-spacing:0;writing-mode:lr-tb;text-anchor:start;fill:#fff;fill-opacity:1;stroke:none;stroke-width:7.94187"><path d="M127.067 55.19h2.87V39.305h-2.87zM140.252 50.908v-2.87H133.1v2.87zM148.24 46.457l-5.367 5.878v2.854h9.524v-2.854h-5.817l2.823-3.18.652-.697q.574-.605.915-.993.357-.419.682-.93.342-.528.543-1.164.202-.62.202-1.303 0-.869-.403-1.722-.404-.853-1.07-1.567-.699-.682-1.567-1.07-.853-.403-1.722-.403t-1.737.403q-.853.403-1.536 1.07-.698.698-1.101 1.567-.404.853-.388 1.722h2.854q0-.357.155-.698.155-.341.45-.62.264-.264.62-.42.342-.155.683-.17.357 0 .698.17.341.156.62.42.264.279.42.62.154.357.17.698 0 .341-.14.682-.14.357-.325.652-.202.31-.404.558-.232.28-.434.497z" style="font-style:normal;font-variant:normal;font-weight:400;font-stretch:normal;font-family:PoliceSNCF;fill:#fff;stroke-width:7.94187" transform="translate(-107.732 -4.842)"/></g></g></svg>