<svg xmlns="http://www.w3.org/2000/svg" width="64" height="64"><path d="M0 0h64v64H0z" style="fill:#000;fill-opacity:1;fill-rule:nonzero;stroke:none;stroke-width:.636824"/><path d="M2.968 2.968h58.065v58.065H2.968z" style="fill:none;stroke:#fff;stroke-width:3.93508;stroke-miterlimit:4;stroke-dasharray:none;stroke-opacity:1"/><g style="font-style:normal;font-variant:normal;font-weight:400;font-stretch:normal;font-size:32px;line-height:1.25;font-family:Roboto;font-variant-ligatures:normal;font-variant-caps:normal;font-variant-numeric:normal;font-feature-settings:normal;text-align:start;letter-spacing:0;word-spacing:0;writing-mode:lr-tb;text-anchor:start;fill:#fff;fill-opacity:1;stroke:none;stroke-width:4"><g aria-label="TT" style="font-style:normal;font-variant:normal;font-weight:400;font-stretch:normal;font-size:30.522px;line-height:1.25;font-family:Roboto;font-variant-ligatures:normal;font-variant-caps:normal;font-variant-numeric:normal;font-feature-settings:normal;text-align:start;letter-spacing:0;word-spacing:0;writing-mode:lr-tb;text-anchor:start;fill:#fff;fill-opacity:1;stroke:none;stroke-width:15.261"><path d="M114.396 52.103h5.514V21.58h-5.514zm27.333-25.038v-5.484h-15.261v5.484h8.346l-5.812 5.425 2.95 4.56q.06-.06.239-.268.208-.298.566-.417.328-.12 1.341-.12.686 0 1.342.299.655.298 1.192.805.507.536.805 1.192.298.685.328 1.341v3.07q0 .686-.328 1.312-.298.685-.805 1.192-.537.537-1.192.835-.686.298-1.342.327-.685 0-1.311-.327-.686-.298-1.192-.835-.537-.507-.865-1.192-.298-.656-.298-1.312h-5.484q0 1.67.745 3.309.775 1.64 2.116 2.98 1.312 1.342 2.951 2.087 1.64.775 3.338.775 1.67 0 3.309-.775t3.01-2.087q1.312-1.311 2.057-2.98.775-1.64.775-3.309v-3.07q0-1.669-.626-3.13-.656-1.43-1.58-2.503-.983-1.073-1.907-1.73-.954-.685-1.729-1.072zm14.158 10.82-3.636-16.304h-5.515l6.409 30.522h5.514l6.409-30.522h-5.187z" aria-label="13V" style="font-style:normal;font-variant:normal;font-weight:400;font-stretch:normal;font-family:PoliceSNCF;fill:#fff;stroke-width:15.261" transform="translate(-79.842 2.512)scale(.8004)"/></g></g></svg>