<?xml version="1.0" encoding="UTF-8" standalone="no"?>
<svg
   xmlns:dc="http://purl.org/dc/elements/1.1/"
   xmlns:cc="http://creativecommons.org/ns#"
   xmlns:rdf="http://www.w3.org/1999/02/22-rdf-syntax-ns#"
   xmlns:svg="http://www.w3.org/2000/svg"
   xmlns="http://www.w3.org/2000/svg"
   id="svg2"
   version="1.1"
   width="64"
   height="64">
  <metadata
     id="metadata8">
    <rdf:RDF>
      <cc:Work
         rdf:about="">
        <dc:format>image/svg+xml</dc:format>
        <dc:type
           rdf:resource="http://purl.org/dc/dcmitype/StillImage" />
        <dc:title></dc:title>
      </cc:Work>
    </rdf:RDF>
  </metadata>
  <defs
     id="defs6" />
  <g
     id="g3769"
     transform="translate(-107.73191,-4.8418837)">
    <rect
       y="4.8418837"
       x="107.73191"
       height="64"
       width="64"
       id="rect2987"
       style="fill:#000000;fill-opacity:1;fill-rule:nonzero;stroke:none;stroke-width:0.636824" />
    <rect
       y="7.8094244"
       x="110.69945"
       height="58.064922"
       width="58.064919"
       id="rect2989"
       style="fill:none;stroke:#ffffff;stroke-width:3.93508;stroke-miterlimit:4;stroke-dasharray:none;stroke-opacity:1" />
    <g
       aria-label="TT"
       id="text837"
       style="font-style:normal;font-variant:normal;font-weight:normal;font-stretch:normal;font-size:32px;line-height:1.25;font-family:Roboto;font-variant-ligatures:normal;font-variant-caps:normal;font-variant-numeric:normal;font-feature-settings:normal;text-align:start;letter-spacing:0px;word-spacing:0px;writing-mode:lr-tb;text-anchor:start;fill:#ffffff;fill-opacity:1;stroke:none;stroke-width:4">
      <g
         style="font-style:normal;font-variant:normal;font-weight:normal;font-stretch:normal;font-size:30.522px;line-height:1.25;font-family:Roboto;font-variant-ligatures:normal;font-variant-caps:normal;font-variant-numeric:normal;font-feature-settings:normal;text-align:start;letter-spacing:0px;word-spacing:0px;writing-mode:lr-tb;text-anchor:start;fill:#ffffff;fill-opacity:1;stroke:none;stroke-width:15.261"
         id="text840"
         aria-label="12V">
        <path
           id="path867"
           style="font-style:normal;font-variant:normal;font-weight:normal;font-stretch:normal;font-family:PoliceSNCF;fill:#ffffff;stroke-width:15.261"
           d="m 114.39626,52.102882 h 5.51423 V 21.580883 h -5.51423 z" />
        <path
           id="path869"
           style="font-style:normal;font-variant:normal;font-weight:normal;font-stretch:normal;font-family:PoliceSNCF;fill:#ffffff;stroke-width:15.261"
           d="m 135.26091,35.321744 -10.31309,11.296717 v 5.484421 h 18.30127 V 46.618461 H 132.0716 l 5.42481,-6.110362 q 0.38749,-0.417293 1.25188,-1.341298 1.10285,-1.162459 1.75859,-1.907625 0.68555,-0.80478 1.31149,-1.788399 0.65575,-1.013425 1.04324,-2.235498 0.38748,-1.192265 0.38748,-2.503757 0,-1.669172 -0.77497,-3.308538 -0.77497,-1.639365 -2.05666,-3.01047 -1.3413,-1.311492 -3.01047,-2.056658 -1.63936,-0.774973 -3.30854,-0.774973 -1.66917,0 -3.33834,0.774973 -1.63937,0.774972 -2.95086,2.056658 -1.3413,1.341299 -2.11627,3.01047 -0.77497,1.639366 -0.74516,3.308538 h 5.48442 q 0,-0.685553 0.29806,-1.341299 0.29807,-0.655746 0.8644,-1.192266 0.50671,-0.506713 1.19226,-0.804779 0.65575,-0.298067 1.31149,-0.327873 0.68556,0 1.3413,0.327873 0.65575,0.298066 1.19227,0.804779 0.50671,0.53652 0.80478,1.192266 0.29806,0.685552 0.32787,1.341299 0,0.655746 -0.26826,1.311492 -0.26826,0.685552 -0.62594,1.251879 -0.38749,0.596132 -0.77497,1.073039 -0.4471,0.536519 -0.83459,0.953812 z" />
        <path
           id="path871"
           style="font-style:normal;font-variant:normal;font-weight:normal;font-stretch:normal;font-family:PoliceSNCF;fill:#ffffff;stroke-width:15.261"
           d="M 155.88711,37.885115 152.2507,21.580883 h -5.51423 l 6.40843,30.521999 h 5.51423 l 6.40842,-30.521999 h -5.18635 z" />
      </g>
    </g>
  </g>
</svg>
