<svg xmlns="http://www.w3.org/2000/svg" width="64" height="64"><path d="M107.732 4.842h64v64h-64z" style="fill:#000;fill-opacity:1;fill-rule:nonzero;stroke:none;stroke-width:.636824" transform="translate(-107.732 -4.842)"/><path d="M110.699 7.809h58.065v58.065h-58.065z" style="fill:none;stroke:#fff;stroke-width:3.93508;stroke-miterlimit:4;stroke-dasharray:none;stroke-opacity:1" transform="translate(-107.732 -4.842)"/><g aria-label="TT" style="font-style:normal;font-variant:normal;font-weight:400;font-stretch:normal;font-size:32px;line-height:1.25;font-family:Roboto;font-variant-ligatures:normal;font-variant-caps:normal;font-variant-numeric:normal;font-feature-settings:normal;text-align:start;letter-spacing:0;word-spacing:0;writing-mode:lr-tb;text-anchor:start;fill:#fff;fill-opacity:1;stroke:none;stroke-width:4"><g aria-label="8V" style="font-style:normal;font-variant:normal;font-weight:400;font-stretch:normal;font-size:24.3447px;line-height:1.25;font-family:Roboto;font-variant-ligatures:normal;font-variant-caps:normal;font-variant-numeric:normal;font-feature-settings:normal;text-align:start;letter-spacing:0;word-spacing:0;writing-mode:lr-tb;text-anchor:start;fill:#fff;fill-opacity:1;stroke:none;stroke-width:12.1724"><path d="M138.092 31.73q0-1.33-.57-2.638-.595-1.26-1.57-2.283-1.022-.998-2.306-1.569-1.284-.57-2.615-.57-1.331 0-2.615.57-1.284.594-2.283 1.57-.998 1.021-1.592 2.282-.595 1.283-.571 2.638 0 .833.262 1.665.237.856.618 1.521.356.713.713 1.141.357.452.57.547-.998.927-1.711 2.235-.713 1.331-.69 2.877 0 1.33.595 2.639.618 1.307 1.688 2.377 1.046 1.07 2.353 1.664 1.308.618 2.663.618 1.331 0 2.639-.618 1.307-.618 2.401-1.664 1.046-1.046 1.64-2.377.619-1.308.619-2.64 0-1.545-.714-2.876-.713-1.308-1.688-2.235.19-.071.547-.547.357-.428.737-1.14.357-.69.618-1.522.262-.832.262-1.665zm-4.398 0q0 1.094-.761 1.879-.808.808-1.902.808-1.094 0-1.878-.808-.809-.785-.809-1.879 0-1.093.809-1.901.784-.785 1.878-.785 1.094 0 1.902.785.76.808.76 1.901zm-5.587 9.986q0-.547.237-1.07.238-.523.69-.951.404-.404.95-.666.524-.238 1.047-.238.547 0 1.07.238t.95.666q.405.428.643.95.237.548.261 1.07 0 .547-.261 1.047-.238.546-.642.95-.428.429-.951.666-.547.238-1.07.262-.547 0-1.046-.262-.547-.237-.951-.665-.428-.405-.69-.951-.237-.5-.237-1.046zM148.41 37.674l-2.9-13.004h-4.399l5.112 24.344h4.398l5.111-24.344h-4.136z" style="font-style:normal;font-variant:normal;font-weight:400;font-stretch:normal;font-family:PoliceSNCF;fill:#fff;stroke-width:12.1724" transform="translate(-107.732 -4.842)"/></g></g></svg>