<svg xmlns="http://www.w3.org/2000/svg" width="64" height="64"><path d="M0 0h64v64H0z" style="fill:#000;fill-opacity:1;fill-rule:nonzero;stroke:none;stroke-width:.636824"/><path d="M2.968 2.968h58.065v58.065H2.968z" style="fill:none;stroke:#fff;stroke-width:3.93508;stroke-miterlimit:4;stroke-dasharray:none;stroke-opacity:1"/><g aria-label="TT" style="font-style:normal;font-variant:normal;font-weight:400;font-stretch:normal;font-size:32px;line-height:1.25;font-family:Roboto;font-variant-ligatures:normal;font-variant-caps:normal;font-variant-numeric:normal;font-feature-settings:normal;text-align:start;letter-spacing:0;word-spacing:0;writing-mode:lr-tb;text-anchor:start;fill:#fff;fill-opacity:1;stroke:none;stroke-width:4"><g aria-label="12V" style="font-style:normal;font-variant:normal;font-weight:400;font-stretch:normal;font-size:30.522px;line-height:1.25;font-family:Roboto;font-variant-ligatures:normal;font-variant-caps:normal;font-variant-numeric:normal;font-feature-settings:normal;text-align:start;letter-spacing:0;word-spacing:0;writing-mode:lr-tb;text-anchor:start;fill:#fff;fill-opacity:1;stroke:none;stroke-width:15.261"><path d="M114.396 52.103h5.514V21.58h-5.514zM135.26 35.322l-10.312 11.296v5.485h18.301v-5.485h-11.177l5.424-6.11 1.252-1.341q1.103-1.163 1.759-1.908.685-.805 1.311-1.788.656-1.014 1.044-2.236.387-1.192.387-2.503 0-1.67-.775-3.309-.775-1.64-2.057-3.01-1.34-1.312-3.01-2.057-1.64-.775-3.309-.775-1.669 0-3.338.775-1.64.775-2.95 2.057-1.342 1.34-2.117 3.01-.775 1.64-.745 3.309h5.484q0-.686.298-1.342t.865-1.192q.506-.507 1.192-.805.656-.298 1.311-.328.686 0 1.342.328.656.298 1.192.805.507.536.805 1.192.298.686.328 1.342 0 .655-.269 1.311-.268.686-.626 1.252-.387.596-.775 1.073-.447.536-.834.954zM155.887 37.885l-3.636-16.304h-5.515l6.409 30.522h5.514l6.409-30.522h-5.187z" style="font-style:normal;font-variant:normal;font-weight:400;font-stretch:normal;font-family:PoliceSNCF;fill:#fff;stroke-width:15.261" transform="matrix(.8004 0 0 .8004 -79.842 2.512)"/></g></g></svg>