<?xml version="1.0" encoding="UTF-8" standalone="no"?>
<svg
   xmlns:dc="http://purl.org/dc/elements/1.1/"
   xmlns:cc="http://creativecommons.org/ns#"
   xmlns:rdf="http://www.w3.org/1999/02/22-rdf-syntax-ns#"
   xmlns:svg="http://www.w3.org/2000/svg"
   xmlns="http://www.w3.org/2000/svg"
   id="svg2"
   version="1.1"
   width="64"
   height="64">
  <metadata
     id="metadata8">
    <rdf:RDF>
      <cc:Work
         rdf:about="">
        <dc:format>image/svg+xml</dc:format>
        <dc:type
           rdf:resource="http://purl.org/dc/dcmitype/StillImage" />
        <dc:title></dc:title>
      </cc:Work>
    </rdf:RDF>
  </metadata>
  <defs
     id="defs6" />
  <g
     id="g3769"
     transform="translate(-107.73191,-4.8418837)">
    <rect
       y="4.8418837"
       x="107.73191"
       height="64"
       width="64"
       id="rect2987"
       style="fill:#000000;fill-opacity:1;fill-rule:nonzero;stroke:none;stroke-width:0.636824" />
    <rect
       y="7.8094244"
       x="110.69945"
       height="58.064922"
       width="58.064919"
       id="rect2989"
       style="fill:none;stroke:#ffffff;stroke-width:3.93508;stroke-miterlimit:4;stroke-dasharray:none;stroke-opacity:1" />
    <g
       style="font-style:normal;font-variant:normal;font-weight:normal;font-stretch:normal;font-size:18.7686px;line-height:1.45;font-family:Roboto;font-variant-ligatures:normal;font-variant-caps:normal;font-variant-numeric:normal;font-feature-settings:normal;text-align:start;letter-spacing:0px;word-spacing:0px;writing-mode:lr-tb;text-anchor:start;fill:#ffffff;fill-opacity:1;stroke:none;stroke-width:2.34607"
       id="text837"
       aria-label="6V
8V">
      <path
         id="path1030"
         style="font-style:normal;font-variant:normal;font-weight:normal;font-stretch:normal;font-family:PoliceSNCF;fill:#ffffff;stroke-width:2.34607"
         d="m 135.27838,19.425842 h 3.37248 q 0,-1.026408 -0.47655,-2.034487 -0.47654,-1.008079 -1.26468,-1.8512 -0.82479,-0.806463 -1.8512,-1.264681 -1.00808,-0.476547 -2.03449,-0.476547 -1.0264,0 -2.05281,0.476547 -1.00808,0.476546 -1.81454,1.264681 -0.8248,0.824792 -1.30134,1.8512 -0.47655,1.008079 -0.45822,2.034487 v 7.514771 q 0,1.026408 0.45822,2.034487 0.47654,1.008079 1.30134,1.832871 0.80646,0.824792 1.81454,1.28301 1.00808,0.476547 2.05281,0.476547 1.02641,0 2.03449,-0.476547 1.00808,-0.476546 1.8512,-1.28301 0.80646,-0.806463 1.26468,-1.832871 0.47655,-1.008079 0.47655,-2.034487 0,-1.026407 -0.47655,-2.052815 -0.47654,-1.008079 -1.26468,-1.832871 -0.82479,-0.806464 -1.8512,-1.28301 -1.00808,-0.476547 -2.03449,-0.458218 -0.86145,0 -1.44796,0.201616 -0.58652,0.219944 -0.80647,0.366574 v -2.456047 q 0,-0.421561 0.18329,-0.824792 0.18329,-0.403232 0.53153,-0.733149 0.31159,-0.311588 0.73315,-0.494875 0.40323,-0.183287 0.80646,-0.201616 0.42156,0 0.8248,0.201616 0.40323,0.183287 0.73314,0.494875 0.31159,0.329917 0.49488,0.733149 0.20162,0.403231 0.20162,0.824792 z m 0,7.514771 q 0,0.421561 -0.20162,0.806464 -0.18329,0.42156 -0.49488,0.733148 -0.32991,0.329917 -0.73314,0.513204 -0.42156,0.183287 -0.8248,0.201616 -0.42156,0 -0.80646,-0.201616 -0.42156,-0.183287 -0.73315,-0.513204 -0.32991,-0.311588 -0.53153,-0.733148 -0.18329,-0.403232 -0.18329,-0.806464 0,-0.42156 0.18329,-0.824792 0.18329,-0.403231 0.53153,-0.733148 0.31159,-0.311588 0.73315,-0.513204 0.40323,-0.183287 0.80646,-0.183287 0.42156,0 0.8248,0.183287 0.40323,0.183287 0.73314,0.513204 0.31159,0.329917 0.49488,0.733148 0.20162,0.403232 0.20162,0.824792 z" />
      <path
         id="path1032"
         style="font-style:normal;font-variant:normal;font-weight:normal;font-stretch:normal;font-family:PoliceSNCF;fill:#ffffff;stroke-width:2.34607"
         d="m 146.42223,23.824732 -2.2361,-10.025805 h -3.39081 l 3.94067,18.768601 h 3.39081 l 3.94068,-18.768601 h -3.1892 z" />
      <path
         id="path1034"
         style="font-style:normal;font-variant:normal;font-weight:normal;font-stretch:normal;font-family:PoliceSNCF;fill:#ffffff;stroke-width:2.34607"
         d="m 138.46757,46.559868 q 0,-1.026408 -0.43989,-2.034487 -0.45822,-0.971422 -1.20969,-1.759556 -0.78814,-0.769806 -1.77789,-1.209695 -0.98975,-0.439889 -2.01616,-0.439889 -1.0264,0 -2.01615,0.439889 -0.98975,0.458217 -1.75956,1.209695 -0.76981,0.788134 -1.22802,1.759556 -0.45822,0.98975 -0.43989,2.034487 0,0.641505 0.20161,1.28301 0.18329,0.659833 0.47655,1.173037 0.27493,0.549861 0.54986,0.879778 0.27493,0.348246 0.43989,0.421561 -0.76981,0.714819 -1.31967,1.722899 -0.54986,1.026407 -0.53153,2.217774 0,1.026407 0.45822,2.034487 0.47654,1.008079 1.30134,1.832871 0.80646,0.824792 1.81454,1.283009 1.00808,0.476547 2.05281,0.476547 1.02641,0 2.03449,-0.476547 1.00808,-0.476546 1.8512,-1.283009 0.80646,-0.806464 1.26468,-1.832871 0.47655,-1.00808 0.47655,-2.034487 0,-1.191367 -0.54986,-2.217774 -0.54986,-1.00808 -1.30134,-1.722899 0.14663,-0.05499 0.42156,-0.421561 0.27493,-0.329917 0.56819,-0.879778 0.27493,-0.531532 0.47655,-1.173037 0.20161,-0.641505 0.20161,-1.28301 z m -3.39081,0 q 0,0.843121 -0.58652,1.447968 -0.62317,0.623176 -1.4663,0.623176 -0.84312,0 -1.44796,-0.623176 -0.62318,-0.604847 -0.62318,-1.447968 0,-0.843121 0.62318,-1.466297 0.60484,-0.604848 1.44796,-0.604848 0.84313,0 1.4663,0.604848 0.58652,0.623176 0.58652,1.466297 z m -4.30725,7.698059 q 0,-0.421561 0.18329,-0.824792 0.18329,-0.403232 0.53153,-0.733149 0.31159,-0.311588 0.73315,-0.513204 0.40323,-0.183287 0.80646,-0.183287 0.42156,0 0.8248,0.183287 0.40323,0.183287 0.73314,0.513204 0.31159,0.329917 0.49488,0.733149 0.18329,0.42156 0.20162,0.824792 0,0.42156 -0.20162,0.806463 -0.18329,0.42156 -0.49488,0.733148 -0.32991,0.329917 -0.73314,0.513204 -0.42156,0.183287 -0.8248,0.201616 -0.42156,0 -0.80646,-0.201616 -0.42156,-0.183287 -0.73315,-0.513204 -0.32991,-0.311588 -0.53153,-0.733148 -0.18329,-0.384903 -0.18329,-0.806463 z" />
      <path
         id="path1036"
         style="font-style:normal;font-variant:normal;font-weight:normal;font-stretch:normal;font-family:PoliceSNCF;fill:#ffffff;stroke-width:2.34607"
         d="m 146.42223,51.142046 -2.2361,-10.025805 h -3.39081 l 3.94067,18.7686 h 3.39081 l 3.94068,-18.7686 h -3.1892 z" />
    </g>
  </g>
</svg>
