<svg xmlns="http://www.w3.org/2000/svg" width="64" height="64"><path d="M0 0h64v64H0z" style="fill:#000;fill-opacity:1;fill-rule:nonzero;stroke:none;stroke-width:.636824"/><path d="M2.968 2.968h58.065v58.065H2.968z" style="fill:none;stroke:#fff;stroke-width:3.93508;stroke-miterlimit:4;stroke-dasharray:none;stroke-opacity:1"/><path d="M7 37.272v2.957h9.884v-2.957h-6.51l6.51-10.544v-2.957H7v2.957h6.509zM23.699 28.705q-.563 0-.772.032-.209.032-.386.113v-2.122h5.272v-2.957h-8.229v7.377l2.957.965q.017-.145.258-.29.24-.144.9-.144.37 0 .723.16.354.161.643.434.273.29.434.643.16.37.177.723v1.656q0 .37-.177.707-.161.37-.434.643-.29.29-.643.45-.37.16-.723.177-.37 0-.708-.177-.37-.16-.642-.45-.29-.273-.466-.643-.161-.354-.161-.707h-2.958q0 .9.402 1.784.418.884 1.141 1.607.708.723 1.592 1.125.884.418 1.8.418.9 0 1.784-.418t1.623-1.125q.707-.707 1.109-1.607.418-.884.418-1.784v-1.656q0-.9-.418-1.784t-1.109-1.623q-.723-.707-1.623-1.109-.884-.418-1.784-.418zM35.705 40.229q.9 0 1.784-.418t1.623-1.125q.707-.707 1.109-1.607.418-.884.418-1.784v-6.59q0-.9-.418-1.784t-1.109-1.623q-.723-.707-1.623-1.11-.884-.417-1.784-.417t-1.8.418q-.884.418-1.592 1.109-.723.723-1.14 1.623-.419.884-.403 1.784v6.59q0 .9.402 1.784.418.884 1.141 1.607.708.723 1.592 1.125.9.418 1.8.418zm0-2.957q-.37 0-.708-.177-.37-.16-.642-.45-.29-.273-.467-.643-.16-.354-.16-.707v-6.59q0-.37.16-.723.161-.354.467-.643.273-.273.642-.434.354-.16.708-.177.37 0 .723.177.354.16.643.434.273.29.434.643.16.37.177.723v6.59q0 .37-.177.707-.161.37-.434.643-.29.29-.643.45-.354.177-.723.177z" style="font-style:normal;font-variant:normal;font-weight:400;font-stretch:normal;font-size:16.458px;line-height:1.25;font-family:PoliceSNCF;font-variant-ligatures:normal;font-variant-caps:normal;font-variant-numeric:normal;font-feature-settings:normal;text-align:start;letter-spacing:0;word-spacing:0;writing-mode:lr-tb;text-anchor:start;fill:#fff;fill-opacity:1;stroke:none;stroke-width:2.05724" transform="translate(8.18 -8.771)"/><path d="M30.513 53.458h2.974V37h-2.974z" style="font-style:normal;font-variant:normal;font-weight:400;font-stretch:normal;font-size:16.458px;line-height:1.25;font-family:PoliceSNCF;font-variant-ligatures:normal;font-variant-caps:normal;font-variant-numeric:normal;font-feature-settings:normal;text-align:start;letter-spacing:0;word-spacing:0;writing-mode:lr-tb;text-anchor:start;fill:#fff;fill-opacity:1;stroke:none;stroke-width:2.05724"/></svg>