<?xml version="1.0" encoding="UTF-8" standalone="no"?>
<svg
   xmlns:dc="http://purl.org/dc/elements/1.1/"
   xmlns:cc="http://creativecommons.org/ns#"
   xmlns:rdf="http://www.w3.org/1999/02/22-rdf-syntax-ns#"
   xmlns:svg="http://www.w3.org/2000/svg"
   xmlns="http://www.w3.org/2000/svg"
   id="svg2"
   version="1.1"
   width="64"
   height="64">
  <metadata
     id="metadata8">
    <rdf:RDF>
      <cc:Work
         rdf:about="">
        <dc:format>image/svg+xml</dc:format>
        <dc:type
           rdf:resource="http://purl.org/dc/dcmitype/StillImage" />
        <dc:title></dc:title>
      </cc:Work>
    </rdf:RDF>
  </metadata>
  <defs
     id="defs6" />
  <g
     id="g3769"
     transform="translate(-107.73191,-4.8418837)">
    <rect
       y="4.8418837"
       x="107.73191"
       height="64"
       width="64"
       id="rect2987"
       style="fill:#000000;fill-opacity:1;fill-rule:nonzero;stroke:none;stroke-width:0.636824" />
    <rect
       y="7.8094244"
       x="110.69945"
       height="58.064922"
       width="58.064919"
       id="rect2989"
       style="fill:none;stroke:#ffffff;stroke-width:3.93508;stroke-miterlimit:4;stroke-dasharray:none;stroke-opacity:1" />
    <g
       style="font-style:normal;font-variant:normal;font-weight:normal;font-stretch:normal;font-size:18.7686px;line-height:1.45;font-family:Roboto;font-variant-ligatures:normal;font-variant-caps:normal;font-variant-numeric:normal;font-feature-settings:normal;text-align:start;letter-spacing:0px;word-spacing:0px;writing-mode:lr-tb;text-anchor:start;fill:#ffffff;fill-opacity:1;stroke:none;stroke-width:2.34607"
       id="text837"
       aria-label="3V
4V">
      <path
         id="path976"
         style="font-style:normal;font-variant:normal;font-weight:normal;font-stretch:normal;font-family:PoliceSNCF;fill:#ffffff;stroke-width:2.34607"
         d="m 137.99985,17.17141 v -3.372483 h -9.3843 v 3.372483 h 5.13204 l -3.5741,3.335826 1.81454,2.804293 q 0.0367,-0.03666 0.14663,-0.164959 0.1283,-0.183287 0.34824,-0.256602 0.20162,-0.07332 0.8248,-0.07332 0.42156,0 0.82479,0.183287 0.40323,0.183288 0.73315,0.494876 0.31159,0.329916 0.49487,0.733148 0.18329,0.42156 0.20162,0.824792 v 1.887857 q 0,0.421561 -0.20162,0.806464 -0.18328,0.42156 -0.49487,0.733148 -0.32992,0.329917 -0.73315,0.513204 -0.42156,0.183287 -0.82479,0.201616 -0.42156,0 -0.80647,-0.201616 -0.42156,-0.183287 -0.73314,-0.513204 -0.32992,-0.311588 -0.53154,-0.733148 -0.18328,-0.403232 -0.18328,-0.806464 h -3.37249 q 0,1.026408 0.45822,2.034487 0.47655,1.008079 1.30134,1.832871 0.80646,0.824792 1.81454,1.28301 1.00808,0.476547 2.05282,0.476547 1.0264,0 2.03448,-0.476547 1.00808,-0.476546 1.8512,-1.28301 0.80647,-0.806463 1.26468,-1.832871 0.47655,-1.008079 0.47655,-2.034487 v -1.887857 q 0,-1.026408 -0.3849,-1.924515 -0.40323,-0.879778 -0.97142,-1.539611 -0.60485,-0.659834 -1.17304,-1.063066 -0.58652,-0.42156 -1.06307,-0.659833 z" />
      <path
         id="path978"
         style="font-style:normal;font-variant:normal;font-weight:normal;font-stretch:normal;font-family:PoliceSNCF;fill:#ffffff;stroke-width:2.34607"
         d="m 146.70598,23.824732 -2.2361,-10.025805 h -3.39081 l 3.94067,18.768601 h 3.39082 l 3.94067,-18.768601 h -3.1892 z" />
      <path
         id="path980"
         style="font-style:normal;font-variant:normal;font-weight:normal;font-stretch:normal;font-family:PoliceSNCF;fill:#ffffff;stroke-width:2.34607"
         d="m 133.3077,53.121546 h -2.43772 l 2.43772,-5.242011 z m -6.19511,0 v 3.390812 h 6.19511 v 3.372483 h 3.37248 v -3.372483 h 1.68624 v -3.390812 h -1.68624 V 41.116241 h -3.35415 z" />
      <path
         id="path982"
         style="font-style:normal;font-variant:normal;font-weight:normal;font-stretch:normal;font-family:PoliceSNCF;fill:#ffffff;stroke-width:2.34607"
         d="m 145.58793,51.142046 -2.2361,-10.025805 h -3.39081 l 3.94067,18.7686 h 3.39081 l 3.94068,-18.7686 h -3.1892 z" />
    </g>
  </g>
</svg>
