<svg xmlns="http://www.w3.org/2000/svg" width="64" height="64"><path d="M107.732 4.842h64v64h-64z" style="fill:#000;fill-opacity:1;fill-rule:nonzero;stroke:none;stroke-width:.636824" transform="translate(-107.732 -4.842)"/><path d="M110.699 7.809h58.065v58.065h-58.065z" style="fill:none;stroke:#fff;stroke-width:3.93508;stroke-miterlimit:4;stroke-dasharray:none;stroke-opacity:1" transform="translate(-107.732 -4.842)"/><g style="font-style:normal;font-variant:normal;font-weight:400;font-stretch:normal;font-size:32px;line-height:1.25;font-family:Roboto;font-variant-ligatures:normal;font-variant-caps:normal;font-variant-numeric:normal;font-feature-settings:normal;text-align:start;letter-spacing:0;word-spacing:0;writing-mode:lr-tb;text-anchor:start;fill:#fff;fill-opacity:1;stroke:none;stroke-width:4"><g aria-label="TT" style="font-style:normal;font-variant:normal;font-weight:400;font-stretch:normal;font-size:24.3447px;line-height:1.25;font-family:Roboto;font-variant-ligatures:normal;font-variant-caps:normal;font-variant-numeric:normal;font-feature-settings:normal;text-align:start;letter-spacing:0;word-spacing:0;writing-mode:lr-tb;text-anchor:start;fill:#fff;fill-opacity:1;stroke:none;stroke-width:12.1724"><path d="M119.524 49.014h4.398V24.67h-4.398zm15.715 0q1.331 0 2.639-.618t2.4-1.664q1.047-1.046 1.641-2.377.618-1.308.618-2.64v-9.747q0-1.331-.618-2.639t-1.64-2.4q-1.07-1.047-2.401-1.641-1.308-.618-2.64-.618-1.33 0-2.662.618-1.308.618-2.354 1.64-1.07 1.07-1.688 2.401-.618 1.308-.594 2.64v9.747q0 1.33.594 2.639.618 1.307 1.688 2.377 1.046 1.07 2.354 1.664 1.331.618 2.663.618m0-4.374q-.547 0-1.046-.262-.547-.237-.951-.665-.428-.405-.69-.951-.238-.523-.238-1.046v-9.748q0-.547.238-1.07t.69-.95q.404-.405.95-.643.524-.237 1.047-.261.546 0 1.07.261.522.238.95.642.405.428.642.951.238.547.262 1.07v9.748q0 .546-.262 1.046-.237.546-.642.95-.428.429-.95.666-.524.262-1.07.262m17.378-6.966-2.9-13.004h-4.398l5.111 24.344h4.398l5.112-24.344h-4.137z" aria-label="10V" style="font-style:normal;font-variant:normal;font-weight:400;font-stretch:normal;font-family:PoliceSNCF;fill:#fff;stroke-width:12.1724" transform="translate(-107.732 -4.842)"/></g></g></svg>