<svg xmlns="http://www.w3.org/2000/svg" width="64" height="64"><path d="M0 0h64v64H0z" style="fill:#000;fill-opacity:1;fill-rule:nonzero;stroke:none;stroke-width:.636824"/><path d="M2.968 2.968h58.065v58.065H2.968z" style="fill:none;stroke:#fff;stroke-width:3.93508;stroke-miterlimit:4;stroke-dasharray:none;stroke-opacity:1"/><path d="M28.994 14.4q0-1.026-.44-2.034-.458-.971-1.21-1.76-.788-.77-1.777-1.21-.99-.439-2.017-.439-1.026 0-2.016.44-.99.458-1.76 1.21-.77.788-1.227 1.76-.459.989-.44 2.034 0 .641.201 1.283.184.66.477 1.173.275.55.55.88.275.348.44.421-.77.715-1.32 1.723-.55 1.026-.532 2.218 0 1.026.459 2.034.476 1.008 1.301 1.833.806.825 1.815 1.283 1.008.477 2.052.477 1.027 0 2.035-.477 1.008-.476 1.851-1.283.807-.806 1.265-1.833.476-1.008.476-2.034 0-1.192-.55-2.218-.55-1.008-1.3-1.723.146-.055.42-.422.276-.33.569-.88.275-.53.476-1.172.202-.642.202-1.283zm-3.39 0q0 .844-.587 1.449-.624.623-1.467.623-.843 0-1.448-.623-.623-.605-.623-1.448t.623-1.467q.605-.604 1.448-.604t1.467.604q.586.624.586 1.467zM21.295 22.1q0-.422.183-.825.183-.403.532-.733.311-.312.733-.513.403-.184.806-.184.422 0 .825.184.403.183.733.513.312.33.495.733.183.421.202.825 0 .421-.202.806-.183.422-.495.733-.33.33-.733.514-.421.183-.825.201-.421 0-.806-.201-.422-.184-.733-.514-.33-.311-.532-.733-.183-.385-.183-.806zM15 55.043h3.39V36.274H15ZM27.115 55.043q1.027 0 2.035-.477 1.008-.476 1.851-1.283.806-.806 1.265-1.832.476-1.009.476-2.035v-7.515q0-1.026-.476-2.034-.477-1.008-1.265-1.851-.825-.807-1.851-1.265-1.008-.477-2.035-.477-1.026 0-2.053.477-1.008.476-1.814 1.265-.825.824-1.301 1.85-.477 1.009-.459 2.035v7.515q0 1.026.459 2.035.476 1.008 1.3 1.832.807.825 1.815 1.283 1.027.477 2.053.477zm0-3.373q-.421 0-.806-.201-.422-.183-.733-.513-.33-.312-.532-.733-.183-.404-.183-.807v-7.515q0-.421.183-.825.183-.403.532-.733.311-.311.733-.495.403-.183.806-.201.422 0 .825.201.403.184.733.495.312.33.495.733.183.422.202.825v7.515q0 .422-.202.807-.183.421-.495.733-.33.33-.733.513-.403.201-.825.201zM42.627 32.642 40.39 22.616H37l3.94 18.768h3.391l3.941-18.768h-3.189z" style="font-style:normal;font-variant:normal;font-weight:400;font-stretch:normal;font-size:18.7686px;line-height:1.45;font-family:PoliceSNCF;font-variant-ligatures:normal;font-variant-caps:normal;font-variant-numeric:normal;font-feature-settings:normal;text-align:center;letter-spacing:0;word-spacing:0;writing-mode:lr-tb;text-anchor:middle;fill:#fff;fill-opacity:1;stroke:none;stroke-width:2.34607"/></svg>