<svg xmlns="http://www.w3.org/2000/svg" width="64" height="64"><path d="M0 0h64v64H0z" style="fill:#000;fill-opacity:1;fill-rule:nonzero;stroke:none;stroke-width:.636824"/><path d="M2.968 2.968h58.065v58.065H2.968z" style="fill:none;stroke:#fff;stroke-width:3.93508;stroke-miterlimit:4;stroke-dasharray:none;stroke-opacity:1"/><path d="M7 36.68v2.624h8.773v-2.625H9.995l5.778-9.358v-2.625H6.999v2.625h5.778zm14.821-7.604q-.499 0-.684.028-.186.029-.343.1V27.32h4.68v-2.625h-7.305v6.548l2.625.856q.015-.129.229-.257t.798-.128q.329 0 .642.142.314.143.571.386.243.256.385.57.143.328.157.642v1.47q0 .328-.157.627-.142.328-.385.57-.257.258-.57.4-.329.143-.643.157-.328 0-.627-.157-.328-.142-.57-.4-.258-.242-.415-.57-.142-.314-.142-.628h-2.625q0 .8.357 1.584.37.785 1.012 1.426.628.642 1.413 1 .784.37 1.597.37.8 0 1.584-.37.785-.372 1.44-1 .628-.627.985-1.426.371-.785.371-1.584v-1.469q0-.799-.37-1.583-.372-.785-.985-1.441-.642-.628-1.441-.985-.785-.37-1.584-.37zm10.657 10.228q.799 0 1.583-.37.785-.372 1.441-1 .628-.627.985-1.426.37-.785.37-1.584v-5.848q0-.8-.37-1.584-.371-.785-.985-1.44-.642-.628-1.44-.985-.785-.371-1.584-.371t-1.598.37q-.784.372-1.412.985-.642.642-1.013 1.441-.37.785-.357 1.584v5.848q0 .8.357 1.584.37.785 1.013 1.427.628.641 1.412.998.799.371 1.598.371m0-2.625q-.328 0-.628-.157-.328-.142-.57-.4-.257-.242-.414-.57-.143-.314-.143-.628v-5.848q0-.329.143-.642.143-.314.414-.571.242-.243.57-.385.314-.143.628-.157.328 0 .642.157.314.142.57.385.243.257.386.57.142.329.157.643v5.848q0 .329-.157.628-.143.328-.386.57-.256.258-.57.4-.314.157-.642.157" style="font-style:normal;font-variant:normal;font-weight:400;font-stretch:normal;font-size:14.608px;line-height:1.25;font-family:PoliceSNCF;font-variant-ligatures:normal;font-variant-caps:normal;font-variant-numeric:normal;font-feature-settings:normal;text-align:start;letter-spacing:0;word-spacing:0;writing-mode:lr-tb;text-anchor:start;fill:#fff;fill-opacity:1;stroke:none;stroke-width:1.82599" transform="translate(10.072 -9.696)"/><path d="m32.557 43.576-4.936 5.407v2.625h8.759v-2.625h-5.35l2.597-2.924q.185-.2.599-.642.528-.557.841-.913.328-.385.628-.856.314-.485.5-1.07.185-.57.185-1.198 0-.8-.371-1.584-.371-.785-.984-1.44-.642-.628-1.441-.985Q32.799 37 32 37t-1.597.37q-.785.372-1.413.985-.642.642-1.013 1.441-.37.785-.356 1.584h2.625q0-.329.142-.642.143-.314.414-.571.242-.243.57-.385.314-.143.628-.157.328 0 .642.157.314.142.57.385.243.257.386.57.143.329.157.643 0 .313-.128.627-.129.328-.3.6-.185.285-.37.513-.215.257-.4.456" style="font-style:normal;font-variant:normal;font-weight:400;font-stretch:normal;font-size:14.608px;line-height:1.25;font-family:PoliceSNCF;font-variant-ligatures:normal;font-variant-caps:normal;font-variant-numeric:normal;font-feature-settings:normal;text-align:start;letter-spacing:0;word-spacing:0;writing-mode:lr-tb;text-anchor:start;fill:#fff;fill-opacity:1;stroke:none;stroke-width:1.82599"/></svg>