<svg xmlns="http://www.w3.org/2000/svg" width="64" height="64"><path d="M12 0h40v46.545L32 64 12 46.545Z" style="font-style:normal;font-variant:normal;font-weight:400;font-stretch:normal;font-size:30px;line-height:1.25;font-family:Roboto;font-variant-ligatures:normal;font-variant-caps:normal;font-variant-numeric:normal;font-feature-settings:normal;text-align:start;letter-spacing:0;word-spacing:0;writing-mode:lr-tb;text-anchor:start;fill:#333;fill-opacity:1;stroke:none;stroke-width:1.17004px;stroke-linecap:butt;stroke-linejoin:miter;stroke-opacity:1"/><path d="M16 4h32v41L32 59 16 45Z" style="font-style:normal;font-variant:normal;font-weight:400;font-stretch:normal;font-size:30px;line-height:1.25;font-family:Roboto;font-variant-ligatures:normal;font-variant-caps:normal;font-variant-numeric:normal;font-feature-settings:normal;text-align:start;letter-spacing:0;word-spacing:0;writing-mode:lr-tb;text-anchor:start;fill:#f2f2f2;fill-opacity:1;stroke:none;stroke-width:1.11154px;stroke-linecap:butt;stroke-linejoin:miter;stroke-opacity:1"/><path d="M-33.742 41.721h14.815q2.567 0 2.567 1.792 0 1.738-2.085 1.738h-18.586q-1.979 0-1.979-1.55 0-.696.749-1.605l15.778-19.067q2.46-2.968 2.46-5.562 0-2.862-2.3-4.493-2.06-1.444-5.027-1.444-3.718 0-5.723 2.326-.963 1.124-2.273 4.333-.936 2.326-2.06 2.326-1.604 0-1.604-1.899 0-2.166 1.417-4.733Q-34.33 8-27.163 8q4.466 0 7.487 2.273 3.316 2.514 3.316 6.846 0 3.744-3.743 8.236z" aria-label="2" style="font-style:normal;font-variant:normal;font-weight:400;font-stretch:normal;font-size:54.7671px;line-height:1.25;font-family:saxMono;-inkscape-font-specification:saxMono;font-variant-ligatures:normal;font-variant-caps:normal;font-variant-numeric:normal;font-feature-settings:normal;text-align:start;letter-spacing:0;word-spacing:0;writing-mode:lr-tb;text-anchor:start;fill:#333;fill-opacity:1;stroke:none;stroke-width:6.84588" transform="translate(59.685)"/></svg>