<svg xmlns="http://www.w3.org/2000/svg" width="64" height="64"><path d="M1 1h62v62H1z" style="fill:#f2f2f2;fill-opacity:1;stroke:#333;stroke-width:2.00014;stroke-miterlimit:4;stroke-dasharray:none;stroke-opacity:1"/><path d="M15 32h34" style="fill:none;stroke:#333;stroke-width:2;stroke-linecap:butt;stroke-linejoin:miter;stroke-miterlimit:4;stroke-dasharray:none;stroke-opacity:1"/><g aria-label="5070" style="font-style:normal;font-variant:normal;font-weight:400;font-stretch:normal;font-size:28.8248px;line-height:.95;font-family:saxMono;-inkscape-font-specification:saxMono;font-variant-ligatures:normal;font-variant-caps:normal;font-variant-numeric:normal;font-feature-settings:normal;text-align:center;letter-spacing:0;word-spacing:0;writing-mode:lr-tb;text-anchor:middle;fill:#333;fill-opacity:1;stroke:none;stroke-width:3.6031"><path d="M21.643 15.592q1.843-.83 3.195-.83 2.28 0 3.772 1.604 1.45 1.562 1.45 3.856 0 3.829-3.688 6.109-3.167 1.97-7.22 1.97-1.014 0-1.014-.83t1.239-.943q3.377-.324 5.137-1.225 3.617-1.858 3.617-5.067 0-1.52-.859-2.561-.928-1.112-2.42-1.112-.957 0-2.407.62-1.436.619-1.844.619-.76 0-.718-1.084l.225-6.32q.029-.816.24-1.14.281-.563 1.041-.563h7.235q1.041 0 1.041.901 0 .394-.324.676-.31.267-.717.267h-6.77zM34.14 22.39v-8.163q0-2.604 1.591-4.25 1.605-1.662 4.406-1.662 2.8 0 4.363 1.661 1.562 1.66 1.562 4.25v8.164q0 2.871-1.52 4.391t-4.405 1.52q-2.801 0-4.406-1.562-1.59-1.562-1.59-4.35zm9.994 0v-8.163q0-1.788-1.084-2.914-1.07-1.14-3.054-1.14-3.927 0-3.927 4.054v8.163q0 1.928 1.07 2.998 1.07 1.07 3.012 1.07 3.983 0 3.983-4.068zM28.244 37.923h-8.91q-1.196 0-1.196-.943 0-.901 1.196-.901h10.021q1.098 0 1.098.774 0 .324-.422 1.393l-6.474 16.468q-.38.97-1.07.97-.83 0-.83-.844 0-.267.295-1.013zM34.14 49.773V41.61q0-2.604 1.591-4.25 1.605-1.661 4.406-1.661 2.8 0 4.363 1.66 1.562 1.661 1.562 4.251v8.163q0 2.872-1.52 4.392-1.52 1.52-4.405 1.52-2.801 0-4.406-1.563-1.59-1.562-1.59-4.349zm9.994 0V41.61q0-1.787-1.084-2.913-1.07-1.14-3.054-1.14-3.927 0-3.927 4.053v8.163q0 1.929 1.07 2.998 1.07 1.07 3.012 1.07 3.983 0 3.983-4.068z" style="text-align:center;text-anchor:middle;stroke-width:3.6031" transform="translate(-.1)"/></g></svg>