<svg xmlns="http://www.w3.org/2000/svg" width="64" height="64"><path fill="none" d="M0 0h64v64H0z" style="fill:#f2f2f2;fill-opacity:0;stroke-width:6.4;stroke-linecap:round;stroke-linejoin:round;paint-order:markers stroke fill;stop-color:#333"/><path d="M.984 1h62.032v36.573c0 33.923-62.032 33.923-62.032 0z" style="font-style:normal;font-variant:normal;font-weight:400;font-stretch:normal;font-size:30px;line-height:1.25;font-family:Roboto;font-variant-ligatures:normal;font-variant-caps:normal;font-variant-numeric:normal;font-feature-settings:normal;text-align:start;letter-spacing:0;word-spacing:0;writing-mode:lr-tb;text-anchor:start;fill:#f2f2f2;fill-opacity:1;stroke:#333;stroke-width:1.96876;stroke-linecap:butt;stroke-linejoin:miter;stroke-miterlimit:4;stroke-dasharray:none;stroke-opacity:1"/><path d="M13.167 32H50" style="fill:none;stroke:#333;stroke-width:2;stroke-linecap:butt;stroke-linejoin:miter;stroke-miterlimit:4;stroke-dasharray:none;stroke-opacity:1"/><g aria-label="150155" style="font-style:normal;font-variant:normal;font-weight:400;font-stretch:normal;font-size:28.8248px;line-height:.95;font-family:saxMono;-inkscape-font-specification:saxMono;font-variant-ligatures:normal;font-variant-caps:normal;font-variant-numeric:normal;font-feature-settings:normal;text-align:center;letter-spacing:0;word-spacing:0;writing-mode:lr-tb;text-anchor:middle;fill:#333;fill-opacity:1;stroke:none;stroke-width:3.6031"><path d="M15.809 26.063V10.54h-2.787q-1.056 0-1.056-.915 0-.929 1.056-.929h3.744q.957 0 .957.93v16.438h2.955q1.084 0 1.084.986 0 .872-1.084.872h-8.402q-1.084 0-1.084-.929t1.084-.929zM29.545 15.592q1.844-.83 3.195-.83 2.28 0 3.772 1.604 1.45 1.562 1.45 3.856 0 3.829-3.687 6.109-3.167 1.97-7.22 1.97-1.014 0-1.014-.83t1.238-.943q3.378-.324 5.138-1.225 3.617-1.858 3.617-5.067 0-1.52-.859-2.561-.929-1.112-2.42-1.112-.958 0-2.407.62-1.436.619-1.844.619-.76 0-.718-1.084l.225-6.32q.028-.816.24-1.14.281-.563 1.041-.563h7.234q1.042 0 1.042.901 0 .394-.324.676-.31.267-.718.267h-6.77ZM42.044 22.39v-8.163q0-2.604 1.59-4.25 1.605-1.662 4.406-1.662 2.8 0 4.363 1.661 1.562 1.66 1.562 4.25v8.164q0 2.871-1.52 4.391t-4.405 1.52q-2.801 0-4.406-1.562-1.59-1.562-1.59-4.35zm9.993 0v-8.163q0-1.788-1.084-2.914-1.07-1.14-3.054-1.14-3.927 0-3.927 4.054v8.163q0 1.928 1.07 2.998 1.07 1.07 3.012 1.07 3.983 0 3.983-4.068zM15.809 53.447V37.923h-2.787q-1.056 0-1.056-.915 0-.93 1.056-.93h3.744q.957 0 .957.93v16.439h2.955q1.084 0 1.084.985 0 .873-1.084.873h-8.402q-1.084 0-1.084-.93 0-.928 1.084-.928zM29.545 42.975q1.844-.83 3.195-.83 2.28 0 3.772 1.604 1.45 1.563 1.45 3.857 0 3.828-3.687 6.108-3.167 1.97-7.22 1.97-1.014 0-1.014-.83t1.238-.943q3.378-.323 5.138-1.224 3.617-1.858 3.617-5.067 0-1.52-.859-2.562-.929-1.111-2.42-1.111-.958 0-2.407.619-1.436.62-1.844.62-.76 0-.718-1.085l.225-6.32q.028-.815.24-1.14.281-.562 1.041-.562h7.234q1.042 0 1.042.9 0 .395-.324.676-.31.268-.718.268h-6.77ZM45.351 42.975q1.844-.83 3.195-.83 2.28 0 3.772 1.604 1.45 1.563 1.45 3.857 0 3.828-3.688 6.108-3.166 1.97-7.22 1.97-1.013 0-1.013-.83t1.238-.943q3.378-.323 5.137-1.224 3.618-1.858 3.618-5.067 0-1.52-.859-2.562-.929-1.111-2.42-1.111-.958 0-2.407.619-1.436.62-1.844.62-.76 0-.718-1.085l.225-6.32q.028-.815.24-1.14.28-.562 1.04-.562h7.235q1.042 0 1.042.9 0 .395-.324.676-.31.268-.718.268h-6.77z" style="text-align:center;text-anchor:middle;stroke-width:3.6031" transform="translate(-.579)"/></g></svg>