<svg xmlns="http://www.w3.org/2000/svg" width="64" height="64"><path d="M3 3h58v58H3z" style="fill:#f2f2f2;fill-opacity:1;stroke:#333;stroke-width:5.99978;stroke-miterlimit:4;stroke-dasharray:none;stroke-opacity:1"/><g aria-label="11V" style="font-style:normal;font-weight:400;font-size:28.8451px;line-height:1.25;font-family:sans-serif;letter-spacing:0;word-spacing:0;fill:#333;fill-opacity:1;stroke:none;stroke-width:.721129"><path d="M14.845 39.76V24.226h-2.789Q11 24.225 11 23.31q0-.93 1.056-.93h3.747q.958 0 .958.93v16.45h2.957q1.085 0 1.085.986 0 .874-1.085.874H11.31q-1.085 0-1.085-.93t1.085-.93zM30.662 39.76V24.226h-2.789q-1.056 0-1.056-.915 0-.93 1.056-.93h3.747q.957 0 .957.93v16.45h2.958q1.085 0 1.085.986 0 .874-1.085.874h-8.408q-1.085 0-1.085-.93t1.085-.93zM46.986 38.352l4.958-15.563q.253-.789.915-.789.916 0 .916.789 0 .267-.099.577L47.887 41.38q-.197.62-.915.62t-.916-.62l-5.83-18.014q-.1-.31-.1-.577 0-.789.902-.789.634 0 .888.789z" style="font-style:normal;font-variant:normal;font-weight:400;font-stretch:normal;font-family:saxMono;-inkscape-font-specification:saxMono;stroke-width:.721129"/></g></svg>