<?xml version="1.0" encoding="UTF-8" standalone="no"?>
<svg
   xmlns:dc="http://purl.org/dc/elements/1.1/"
   xmlns:cc="http://creativecommons.org/ns#"
   xmlns:rdf="http://www.w3.org/1999/02/22-rdf-syntax-ns#"
   xmlns:svg="http://www.w3.org/2000/svg"
   xmlns="http://www.w3.org/2000/svg"
   id="svg2"
   version="1.1"
   width="64"
   height="64">
  <metadata
     id="metadata8">
    <rdf:RDF>
      <cc:Work
         rdf:about="">
        <dc:format>image/svg+xml</dc:format>
        <dc:type
           rdf:resource="http://purl.org/dc/dcmitype/StillImage" />
        <dc:title />
      </cc:Work>
    </rdf:RDF>
  </metadata>
  <defs
     id="defs6" />
  <rect
     style="fill:#f2f2f2;fill-opacity:0;stroke-width:6.4;stroke-linecap:round;stroke-linejoin:round;paint-order:markers stroke fill;stop-color:#333333"
     id="rect832"
     width="64"
     height="64"
     x="0"
     y="0" />
  <path
     style="font-style:normal;font-variant:normal;font-weight:normal;font-stretch:normal;font-size:30px;line-height:1.25;font-family:Roboto;font-variant-ligatures:normal;font-variant-caps:normal;font-variant-numeric:normal;font-feature-settings:normal;text-align:start;letter-spacing:0px;word-spacing:0px;writing-mode:lr-tb;text-anchor:start;fill:#f2f2f2;fill-opacity:1;stroke:#333333;stroke-width:1.96876;stroke-linecap:butt;stroke-linejoin:miter;stroke-miterlimit:4;stroke-dasharray:none;stroke-opacity:1"
     d="m 0.98438,63.01562 h 62.03124 c 0,0 0,-9.69238 0,-14.538571 0,-33.923335 -62.03124,-33.923335 -62.03124,0 0,4.846191 0,14.538571 0,14.538571 z"
     id="path839" />
  <g
     transform="translate(15.227226)"
     style="font-style:normal;font-variant:normal;font-weight:normal;font-stretch:normal;font-size:28.8248px;line-height:1.25;font-family:saxMono;-inkscape-font-specification:saxMono;letter-spacing:0px;word-spacing:0px;fill:#333333;fill-opacity:1;stroke:none;stroke-width:0.720619"
     id="texte"
     aria-label="110">
    <path
       id="path10"
       style="font-style:normal;font-variant:normal;font-weight:normal;font-stretch:normal;font-size:28.8248px;line-height:1.25;font-family:saxMono;-inkscape-font-specification:saxMono;letter-spacing:0px;word-spacing:0px;fill:#333333;fill-opacity:1;stroke:none;stroke-width:0.720619"
       d="M 0.00287732,52.748082 V 37.223787 H -2.7838954 q -1.0555957,0 -1.0555957,-0.914849 0,-0.928924 1.0555957,-0.928924 h 3.74384617 q 0.95707343,0 0.95707343,0.928924 v 16.439144 h 2.955668 q 1.083745,0 1.083745,0.985223 0,0.872625 -1.083745,0.872625 h -8.4025419 q -1.0837449,0 -1.0837449,-0.928924 0,-0.928924 1.0837449,-0.928924 z" />
    <path
       id="path12"
       style="font-style:normal;font-variant:normal;font-weight:normal;font-stretch:normal;font-size:28.8248px;line-height:1.25;font-family:saxMono;-inkscape-font-specification:saxMono;letter-spacing:0px;word-spacing:0px;fill:#333333;fill-opacity:1;stroke:none;stroke-width:0.720619"
       d="M 15.808663,52.748082 V 37.223787 h -2.786772 q -1.055596,0 -1.055596,-0.914849 0,-0.928924 1.055596,-0.928924 h 3.743846 q 0.957073,0 0.957073,0.928924 v 16.439144 h 2.955668 q 1.083745,0 1.083745,0.985223 0,0.872625 -1.083745,0.872625 h -8.402542 q -1.083745,0 -1.083745,-0.928924 0,-0.928924 1.083745,-0.928924 z" />
    <path
       id="path14"
       style="font-style:normal;font-variant:normal;font-weight:normal;font-stretch:normal;font-size:28.8248px;line-height:1.25;font-family:saxMono;-inkscape-font-specification:saxMono;letter-spacing:0px;word-spacing:0px;fill:#333333;fill-opacity:1;stroke:none;stroke-width:0.720619"
       d="m 26.237949,49.074609 v -8.163274 q 0,-2.603803 1.590431,-4.250532 1.604505,-1.660804 4.405352,-1.660804 2.800848,0 4.363129,1.660804 1.562282,1.660804 1.562282,4.250532 v 8.163274 q 0,2.87122 -1.520058,4.391278 -1.520058,1.520058 -4.405353,1.520058 -2.800847,0 -4.405352,-1.562282 -1.590431,-1.562282 -1.590431,-4.349054 z m 9.992973,0 v -8.163274 q 0,-1.787475 -1.083745,-2.913444 -1.069671,-1.140043 -3.054191,-1.140043 -3.926816,0 -3.926816,4.053487 v 8.163274 q 0,1.928221 1.069671,2.997892 1.06967,1.06967 3.011966,1.06967 3.983115,0 3.983115,-4.067562 z" />
  </g>
</svg>
