<svg xmlns="http://www.w3.org/2000/svg" width="64" height="64"><path d="M1 1h62v62H1z" style="fill:#f2f2f2;fill-opacity:1;stroke:#333;stroke-width:2.00014;stroke-miterlimit:4;stroke-dasharray:none;stroke-opacity:1"/><path d="M-5.832 39.45h-8.04q-1.091 0-1.091-.809 0-.44.404-1.67l5.19-15.852q.3-.915.405-1.091.317-.528.915-.528 1.09 0 1.09 1.038 0 .246-.175.81l-4.98 15.78h6.282v-9.764q0-1.355 1.214-1.355 1.178 0 1.178 1.355v9.764h2.516q1.337 0 1.337 1.162 0 1.16-1.337 1.16H-3.44v3.678q0 1.354-1.196 1.354t-1.196-1.354z" aria-label="4" style="font-style:normal;font-weight:400;font-size:36.031px;line-height:1.25;font-family:saxMono;letter-spacing:0;word-spacing:0;fill:#333;fill-opacity:1;stroke:none;stroke-width:4.8718" transform="translate(39.275)"/></svg>