<svg xmlns="http://www.w3.org/2000/svg" width="64" height="64"><path d="M3 3h58v58H3z" style="fill:#f2f2f2;fill-opacity:1;stroke:#333;stroke-width:5.99978;stroke-miterlimit:4;stroke-dasharray:none;stroke-opacity:1"/><g aria-label="5V" style="font-style:normal;font-weight:400;font-size:28.8451px;line-height:1.25;font-family:sans-serif;letter-spacing:0;word-spacing:0;fill:#333;fill-opacity:1;stroke:none;stroke-width:.721129"><path d="M21.162 29.282q1.845-.831 3.197-.831 2.282 0 3.775 1.605 1.45 1.564 1.45 3.86 0 3.83-3.69 6.112Q22.725 42 18.67 42q-1.014 0-1.014-.831t1.24-.944q3.38-.324 5.14-1.225 3.62-1.86 3.62-5.07 0-1.522-.86-2.564-.929-1.112-2.422-1.112-.958 0-2.408.62-1.437.619-1.845.619-.76 0-.719-1.085l.226-6.324q.028-.816.24-1.14.28-.564 1.041-.564h7.24q1.042 0 1.042.902 0 .394-.324.676-.31.267-.718.267h-6.775zM39.556 38.352l4.958-15.563q.254-.789.916-.789.915 0 .915.789 0 .267-.099.577L40.458 41.38q-.197.62-.916.62-.718 0-.915-.62l-5.831-18.014q-.099-.31-.099-.577 0-.789.902-.789.633 0 .887.789z" style="font-style:normal;font-variant:normal;font-weight:400;font-stretch:normal;font-family:saxMono;-inkscape-font-specification:saxMono;stroke-width:.721129"/></g></svg>