<svg xmlns="http://www.w3.org/2000/svg" width="64" height="64"><path d="M23.335-21.92h43.84v43.84h-43.84Z" style="fill:#f2f2f2;fill-opacity:1;stroke:#333;stroke-width:1.41431;stroke-miterlimit:4;stroke-dasharray:none;stroke-opacity:1" transform="rotate(45)"/><g aria-label="50" style="font-style:normal;font-variant:normal;font-weight:400;font-stretch:normal;font-size:28.8248px;line-height:1.25;font-family:saxMono;-inkscape-font-specification:saxMono;letter-spacing:0;word-spacing:0;fill:#333;fill-opacity:1;stroke:none;stroke-width:.720619"><path d="M-2.066 29.277q1.844-.83 3.195-.83 2.28 0 3.772 1.604 1.45 1.562 1.45 3.856 0 3.828-3.688 6.108-3.167 1.97-7.22 1.97-1.014 0-1.014-.83t1.239-.942q3.378-.324 5.137-1.225 3.617-1.858 3.617-5.067 0-1.52-.858-2.561-.93-1.112-2.421-1.112-.957 0-2.407.619-1.435.62-1.844.62-.76 0-.717-1.084l.225-6.32q.028-.816.239-1.14.282-.563 1.042-.563h7.234q1.041 0 1.041.9 0 .395-.323.676-.31.268-.718.268h-6.77zM10.432 36.075V27.91q0-2.603 1.59-4.25Q13.628 22 16.429 22q2.8 0 4.363 1.66 1.562 1.662 1.562 4.251v8.164q0 2.87-1.52 4.39-1.52 1.52-4.405 1.52-2.8 0-4.405-1.561-1.59-1.563-1.59-4.35zm9.993 0V27.91q0-1.787-1.084-2.913-1.07-1.14-3.054-1.14-3.927 0-3.927 4.053v8.164q0 1.928 1.07 2.997 1.07 1.07 3.012 1.07 3.983 0 3.983-4.067z" style="font-style:normal;font-variant:normal;font-weight:400;font-stretch:normal;font-size:28.8248px;line-height:1.25;font-family:saxMono;-inkscape-font-specification:saxMono;letter-spacing:0;word-spacing:0;fill:#333;fill-opacity:1;stroke:none;stroke-width:.720619" transform="translate(23.609)"/></g></svg>