<svg xmlns="http://www.w3.org/2000/svg" width="64" height="64"><path d="M3 3h58v58H3z" style="fill:#f2f2f2;fill-opacity:1;stroke:#333;stroke-width:5.99978;stroke-miterlimit:4;stroke-dasharray:none;stroke-opacity:1"/><g aria-label="TTL" style="font-style:normal;font-weight:400;font-size:28.8451px;line-height:1.25;font-family:sans-serif;letter-spacing:0;word-spacing:0;fill:#333;fill-opacity:1;stroke:none;stroke-width:.721129"><path d="M15.225 24.218H10.07q-1 0-1-.887 0-.958 1.141-.958h11.916q1.169 0 1.169.916 0 .93-1.17.93h-4.985v16.69q0 1.098-.944 1.098-.972 0-.972-1.099zM31.042 24.218h-5.155q-1 0-1-.887 0-.958 1.141-.958h11.916q1.169 0 1.169.916 0 .93-1.17.93h-4.985v16.69q0 1.098-.944 1.098-.972 0-.972-1.099zM43.592 39.754h10.126q1.212 0 1.212.943 0 .916-1.212.916H42.676q-.38 0-.69-.226-.31-.24-.31-.746V23.303q0-1.31.958-1.31t.958 1.394z" style="font-style:normal;font-variant:normal;font-weight:400;font-stretch:normal;font-family:saxMono;-inkscape-font-specification:saxMono;stroke-width:.721129"/></g></svg>