<?xml version="1.0" encoding="UTF-8" standalone="no"?>
<svg
   xmlns:dc="http://purl.org/dc/elements/1.1/"
   xmlns:cc="http://creativecommons.org/ns#"
   xmlns:rdf="http://www.w3.org/1999/02/22-rdf-syntax-ns#"
   xmlns:svg="http://www.w3.org/2000/svg"
   xmlns="http://www.w3.org/2000/svg"
   height="64"
   width="64"
   version="1.1"
   id="svg2">
  <metadata
     id="metadata8">
    <rdf:RDF>
      <cc:Work
         rdf:about="">
        <dc:format>image/svg+xml</dc:format>
        <dc:type
           rdf:resource="http://purl.org/dc/dcmitype/StillImage" />
        <dc:title></dc:title>
      </cc:Work>
    </rdf:RDF>
  </metadata>
  <defs
     id="defs6" />
  <rect
     style="fill:#f2f2f2;fill-opacity:1;stroke:#333333;stroke-width:5.99978;stroke-miterlimit:4;stroke-dasharray:none;stroke-opacity:1"
     id="rect2989-6"
     width="58.000221"
     height="57.999866"
     x="2.9998899"
     y="2.9998899" />
  <g
     style="font-style:normal;font-weight:normal;font-size:28.8451px;line-height:1.25;font-family:sans-serif;letter-spacing:0px;word-spacing:0px;fill:#333333;fill-opacity:1;stroke:none;stroke-width:0.721129"
     id="text833"
     aria-label="3V">
    <path
       id="path881"
       style="font-style:normal;font-variant:normal;font-weight:normal;font-stretch:normal;font-family:saxMono;-inkscape-font-specification:saxMono;stroke-width:0.721129"
       d="m 26.683093,24.239428 h -7.323951 q -1.225353,0 -1.225353,-0.943663 0,-0.901409 1.225353,-0.901409 h 9.028179 q 1.098592,0 1.098592,0.74648 0,0.394366 -0.267606,0.71831 l -4.380286,5.352118 q 0.408451,-0.08451 0.802818,-0.08451 1.859157,0 2.943665,1.169016 1.098593,1.15493 1.098593,3.014087 0,3.577469 -3.676061,6.239443 -3.3662,2.450707 -7.070429,2.450707 -1.380284,0 -1.380284,-0.830987 0,-0.845071 1.154931,-0.845071 2.126763,0 3.845075,-0.760564 2.000002,-0.87324 3.464792,-2.394369 1.746481,-1.802819 1.746481,-3.690144 0,-1.028171 -0.676057,-1.760566 -0.661973,-0.746479 -1.676059,-0.746479 -0.788733,0 -1.915494,0.478873 -1.126762,0.478874 -1.408453,0.478874 -0.661972,0 -0.661972,-0.802818 0,-0.450704 0.338028,-0.859155 z" />
    <path
       id="path883"
       style="font-style:normal;font-variant:normal;font-weight:normal;font-stretch:normal;font-family:saxMono;-inkscape-font-specification:saxMono;stroke-width:0.721129"
       d="m 39.654937,38.352119 4.957752,-15.563396 q 0.253522,-0.788734 0.915494,-0.788734 0.915494,0 0.915494,0.788734 0,0.267606 -0.09859,0.577465 l -5.788738,18.014103 q -0.197183,0.619719 -0.915494,0.619719 -0.718311,0 -0.915494,-0.619719 L 32.894367,23.366188 q -0.09859,-0.309859 -0.09859,-0.577465 0,-0.788734 0.90141,-0.788734 0.633803,0 0.887325,0.788734 z" />
  </g>
</svg>
