<svg xmlns="http://www.w3.org/2000/svg" width="64" height="64"><path fill="none" d="M0 0h64v64H0z" style="fill:#f2f2f2;fill-opacity:0;stroke-width:6.4;stroke-linecap:round;stroke-linejoin:round;paint-order:markers stroke fill;stop-color:#333"/><path d="M.984 63.016h62.032V48.477c0-33.923-62.032-33.923-62.032 0v14.539z" style="font-style:normal;font-variant:normal;font-weight:400;font-stretch:normal;font-size:30px;line-height:1.25;font-family:Roboto;font-variant-ligatures:normal;font-variant-caps:normal;font-variant-numeric:normal;font-feature-settings:normal;text-align:start;letter-spacing:0;word-spacing:0;writing-mode:lr-tb;text-anchor:start;fill:#f2f2f2;fill-opacity:1;stroke:#333;stroke-width:1.96876;stroke-linecap:butt;stroke-linejoin:miter;stroke-miterlimit:4;stroke-dasharray:none;stroke-opacity:1"/><g aria-label="55" style="font-style:normal;font-variant:normal;font-weight:400;font-stretch:normal;font-size:28.8248px;line-height:1.25;font-family:saxMono;-inkscape-font-specification:saxMono;letter-spacing:0;word-spacing:0;fill:#333;fill-opacity:1;stroke:none;stroke-width:.720619"><path d="M-2.066 42.277q1.844-.83 3.195-.83 2.28 0 3.772 1.604 1.45 1.562 1.45 3.856 0 3.828-3.688 6.108-3.167 1.97-7.22 1.97-1.014 0-1.014-.83t1.239-.942q3.378-.324 5.137-1.225 3.617-1.858 3.617-5.067 0-1.52-.858-2.561-.93-1.112-2.421-1.112-.957 0-2.407.619-1.435.62-1.844.62-.76 0-.717-1.084l.225-6.32q.028-.816.239-1.14.282-.563 1.042-.563h7.234q1.041 0 1.041.9 0 .395-.323.676-.31.268-.718.268h-6.77zM13.74 42.277q1.843-.83 3.195-.83 2.28 0 3.772 1.604 1.45 1.562 1.45 3.856 0 3.828-3.688 6.108-3.167 1.97-7.22 1.97-1.014 0-1.014-.83t1.239-.942q3.378-.324 5.137-1.225 3.617-1.858 3.617-5.067 0-1.52-.858-2.561-.93-1.112-2.421-1.112-.957 0-2.407.619-1.436.62-1.844.62-.76 0-.718-1.084l.226-6.32q.028-.816.239-1.14.281-.563 1.041-.563h7.235q1.041 0 1.041.9 0 .395-.323.676-.31.268-.718.268h-6.77z" style="font-style:normal;font-variant:normal;font-weight:400;font-stretch:normal;font-size:28.8248px;line-height:1.25;font-family:saxMono;-inkscape-font-specification:saxMono;letter-spacing:0;word-spacing:0;fill:#333;fill-opacity:1;stroke:none;stroke-width:.720619" transform="translate(23.707)"/></g></svg>