<?xml version="1.0" encoding="UTF-8" standalone="no"?>
<svg
   xmlns:dc="http://purl.org/dc/elements/1.1/"
   xmlns:cc="http://creativecommons.org/ns#"
   xmlns:rdf="http://www.w3.org/1999/02/22-rdf-syntax-ns#"
   xmlns:svg="http://www.w3.org/2000/svg"
   xmlns="http://www.w3.org/2000/svg"
   id="svg2"
   version="1.1"
   width="64"
   height="64">
  <metadata
     id="metadata8">
    <rdf:RDF>
      <cc:Work
         rdf:about="">
        <dc:format>image/svg+xml</dc:format>
        <dc:type
           rdf:resource="http://purl.org/dc/dcmitype/StillImage" />
        <dc:title />
      </cc:Work>
    </rdf:RDF>
  </metadata>
  <defs
     id="defs6" />
  <rect
     y="1.00007"
     x="1.0000679"
     height="61.999863"
     width="61.999863"
     id="rect2989-6"
     style="fill:#f2f2f2;fill-opacity:1;stroke:#333333;stroke-width:2.00014;stroke-miterlimit:4;stroke-dasharray:none;stroke-opacity:1" />
  <g
     transform="translate(29.387667)"
     style="font-style:normal;font-weight:normal;font-size:36.031px;line-height:1.25;font-family:saxMono;letter-spacing:0px;word-spacing:0px;fill:#333333;fill-opacity:1;stroke:none;stroke-width:4.8718"
     id="texte"
     aria-label="80">
    <path
       id="path9"
       style="font-style:normal;font-weight:normal;font-size:36.031px;line-height:1.25;font-family:saxMono;letter-spacing:0px;word-spacing:0px;fill:#333333;fill-opacity:1;stroke:none;stroke-width:4.8718"
       d="m -10.51224,30.865235 q -3.254753,-1.600987 -3.254753,-4.926113 0,-2.779736 1.917665,-4.609435 1.9176657,-1.829699 4.6974009,-1.829699 2.7445487,0 4.5566546,1.759326 1.81210585,1.759326 1.81210585,4.503875 0,3.166787 -3.02604085,5.066859 3.9936702,1.864886 3.9936702,6.298388 0,3.325126 -1.9880385,5.348351 -1.9880385,2.005632 -5.3131648,2.005632 -3.2547534,0 -5.3835374,-1.970446 -2.216751,-2.023225 -2.216751,-5.242791 0,-4.521468 4.204789,-6.403947 z m 3.3779062,-1.002816 q 1.8121058,0 2.8677015,-1.038003 1.0731889,-1.055595 1.0731889,-2.867701 0,-1.812106 -1.1083754,-2.973261 -1.1083755,-1.161155 -2.9028881,-1.161155 -1.8121058,0 -2.9908541,1.196341 -1.161155,1.196342 -1.161155,3.026041 0,1.759326 1.249121,2.814922 1.1787486,1.002816 2.9732612,1.002816 z m -0.017593,2.146378 q -2.3047172,0 -3.7297712,1.425054 -1.425055,1.407461 -1.425055,3.712178 0,2.304717 1.548207,3.835331 1.565801,1.51302 3.8881114,1.51302 2.1815643,0 3.4482791,-1.51302 1.1963418,-1.442648 1.1963418,-3.729772 0,-2.251937 -1.3194946,-3.712178 -1.3722744,-1.530613 -3.6066185,-1.530613 z" />
    <path
       id="path11"
       style="font-style:normal;font-weight:normal;font-size:36.031px;line-height:1.25;font-family:saxMono;letter-spacing:0px;word-spacing:0px;fill:#333333;fill-opacity:1;stroke:none;stroke-width:4.8718"
       d="M 5.0402034,37.093249 V 26.889158 q 0,-3.254754 1.9880385,-5.313165 2.0056317,-2.076005 5.5066911,-2.076005 3.501058,0 5.45391,2.076005 1.952852,2.076005 1.952852,5.313165 v 10.204091 q 0,3.589025 -1.900072,5.489097 -1.900072,1.900073 -5.50669,1.900073 -3.5010594,0 -5.5066911,-1.952852 -1.9880385,-1.952852 -1.9880385,-5.436318 z m 12.4912156,0 V 26.889158 q 0,-2.234344 -1.354681,-3.641805 -1.337088,-1.425054 -3.817738,-1.425054 -4.9085198,0 -4.9085198,5.066859 v 10.204091 q 0,2.410277 1.3370878,3.747365 1.337088,1.337087 3.764958,1.337087 4.978893,0 4.978893,-5.084452 z" />
  </g>
</svg>
