<svg xmlns="http://www.w3.org/2000/svg" width="64" height="64"><path d="M3 3h58v58H3z" style="fill:#f2f2f2;fill-opacity:1;stroke:#333;stroke-width:5.99978;stroke-miterlimit:4;stroke-dasharray:none;stroke-opacity:1"/><g aria-label="4 6" style="font-style:normal;font-weight:400;font-size:21.5713px;line-height:1.25;font-family:sans-serif;text-align:center;letter-spacing:0;word-spacing:0;text-anchor:middle;fill:#333;fill-opacity:1;stroke:none;stroke-width:.539282"><path d="M20.614 22.595H15.8q-.653 0-.653-.484 0-.263.243-1l3.107-9.49q.179-.549.242-.654.19-.316.548-.316.653 0 .653.622 0 .147-.105.484l-2.981 9.448h3.76v-5.846q0-.81.727-.81.705 0 .705.81v5.846h1.507q.8 0 .8.695t-.8.695h-1.507v2.202q0 .81-.716.81t-.716-.81zM16.99 46.187q1.17-1.328 3.087-1.328 1.77 0 2.949 1.222 1.19 1.212 1.19 2.992 0 1.843-1.264 3.065-1.264 1.21-3.117 1.21-2.223 0-3.424-1.453-1.116-1.348-1.116-3.602 0-4.771 3.992-8.152 2.064-1.749 3.086-1.749.548 0 .548.58 0 .305-.285.537-.042.031-.558.337-4.224 2.496-5.087 6.34zm2.845.073q-1.338 0-2.191.706-.917.748-.917 2.064 0 1.307.854 2.128.863.811 2.18.811 1.306 0 2.16-.79.852-.79.852-2.085 0-1.285-.821-2.054-.822-.78-2.117-.78z" style="font-style:normal;font-variant:normal;font-weight:400;font-stretch:normal;font-family:saxMono;-inkscape-font-specification:saxMono;text-align:center;text-anchor:middle;stroke-width:.539282"/></g><g aria-label="V" style="font-style:normal;font-weight:400;font-size:21.5713px;line-height:1.25;font-family:sans-serif;text-align:center;letter-spacing:0;word-spacing:0;text-anchor:middle;fill:#333;fill-opacity:1;stroke:none;stroke-width:.539282"><path d="m42.13 36.75 3.707-11.638q.19-.59.685-.59.684 0 .684.59 0 .2-.073.431l-4.33 13.472q-.147.463-.684.463t-.685-.463l-4.36-13.472Q37 25.312 37 25.112q0-.59.674-.59.474 0 .664.59z" style="font-style:normal;font-variant:normal;font-weight:400;font-stretch:normal;font-family:saxMono;-inkscape-font-specification:saxMono;text-align:center;text-anchor:middle;stroke-width:.539282"/></g></svg>