<svg xmlns="http://www.w3.org/2000/svg" width="64" height="64"><path d="M1 1h62v62H1z" style="fill:#f2f2f2;fill-opacity:1;stroke:#333;stroke-width:2.00014;stroke-miterlimit:4;stroke-dasharray:none;stroke-opacity:1"/><g aria-label="95" style="font-style:normal;font-weight:400;font-size:36.031px;line-height:1.25;font-family:saxMono;letter-spacing:0;word-spacing:0;fill:#333;fill-opacity:1;stroke:none;stroke-width:4.8718"><path d="M-2.56 31.481q-2.446 2.2-5.085 2.2-3.043 0-5.066-1.989-2.006-2.006-2.006-5.032 0-3.096 2.111-5.12 2.111-2.04 5.208-2.04 3.66 0 5.682 2.41 1.9 2.252 1.9 5.982 0 4.029-1.776 7.706-1.742 3.606-4.856 6.245-3.114 2.64-4.346 2.64-.932 0-.932-.968 0-.757 1.108-1.478 6.422-4.187 8.058-10.556zm-4.838-.123q2.217 0 3.642-1.179 1.53-1.267 1.53-3.448 0-2.182-1.442-3.536-1.426-1.373-3.625-1.373-2.181 0-3.571 1.302-1.443 1.337-1.443 3.501 0 2.147 1.373 3.449 1.372 1.284 3.536 1.284zM9.175 28.596q2.304-1.038 3.993-1.038 2.85 0 4.715 2.005 1.812 1.953 1.812 4.82 0 4.786-4.609 7.636-3.959 2.463-9.025 2.463-1.267 0-1.267-1.038t1.548-1.178q4.222-.405 6.422-1.53 4.521-2.323 4.521-6.335 0-1.9-1.073-3.201-1.161-1.39-3.026-1.39-1.196 0-3.009.774-1.794.774-2.304.774-.95 0-.898-1.355l.282-7.9q.035-1.02.299-1.424.352-.704 1.302-.704H17.9q1.302 0 1.302 1.126 0 .493-.405.844-.387.335-.897.335H9.439Z" style="font-style:normal;font-weight:400;font-size:36.031px;line-height:1.25;font-family:saxMono;letter-spacing:0;word-spacing:0;fill:#333;fill-opacity:1;stroke:none;stroke-width:4.8718" transform="translate(29.51)"/></g></svg>