<svg xmlns="http://www.w3.org/2000/svg" width="64" height="64"><path d="M3 3h58v58H3z" style="fill:#f2f2f2;fill-opacity:1;stroke:#333;stroke-width:5.99978;stroke-miterlimit:4;stroke-dasharray:none;stroke-opacity:1"/><g aria-label="10" style="font-style:normal;font-variant:normal;font-weight:400;font-stretch:normal;font-size:28.8248px;line-height:1.25;font-family:saxMono;-inkscape-font-specification:saxMono;letter-spacing:0;word-spacing:0;fill:#333;fill-opacity:1;stroke:none;stroke-width:.720619"><path d="M.003 39.748V24.224h-2.787q-1.055 0-1.055-.915 0-.929 1.055-.929H.96q.957 0 .957.929v16.44h2.956q1.083 0 1.083.984 0 .873-1.083.873H-3.53q-1.084 0-1.084-.929t1.084-.929zM10.432 36.075V27.91q0-2.603 1.59-4.25Q13.628 22 16.429 22q2.8 0 4.363 1.66 1.562 1.662 1.562 4.251v8.164q0 2.87-1.52 4.39-1.52 1.52-4.405 1.52-2.8 0-4.405-1.561-1.59-1.563-1.59-4.35zm9.993 0V27.91q0-1.787-1.084-2.913-1.07-1.14-3.054-1.14-3.927 0-3.927 4.053v8.164q0 1.928 1.07 2.997 1.07 1.07 3.012 1.07 3.983 0 3.983-4.067z" style="font-style:normal;font-variant:normal;font-weight:400;font-stretch:normal;font-size:28.8248px;line-height:1.25;font-family:saxMono;-inkscape-font-specification:saxMono;letter-spacing:0;word-spacing:0;fill:#333;fill-opacity:1;stroke:none;stroke-width:.720619" transform="translate(23.13)"/></g></svg>