<svg xmlns="http://www.w3.org/2000/svg" width="64" height="64"><path d="M3 3h58v58H3z" style="fill:#f2f2f2;fill-opacity:1;stroke:#333;stroke-width:5.99978;stroke-miterlimit:4;stroke-dasharray:none;stroke-opacity:1"/><g aria-label="REV" style="font-style:normal;font-weight:400;font-size:28.8248px;line-height:1.25;font-family:sans-serif;letter-spacing:0;word-spacing:0;fill:#333;fill-opacity:1;stroke:none;stroke-width:.720619"><path d="m18.953 32.95 4.11 7.375q.253.45.253.845 0 .83-.873.83-.619 0-1.027-.718l-4.448-7.938h-5.376v7.558q0 1.098-.957 1.098-.971 0-.971-1.098v-17.48q0-.592.197-.817.197-.225.788-.225h7.08q2.434 0 3.757 1.534 1.239 1.45 1.239 3.927 0 2.252-.816 3.364-.803 1.112-2.956 1.745zm-7.361-1.464h5.292q3.927 0 3.927-3.631 0-1.576-.69-2.533-.774-1.098-2.294-1.098h-6.235zM27.398 24.224v6.502h6.727q1.337 0 1.337.859 0 .985-1.337.985h-6.727v7.178h9.416q1.337 0 1.337.873 0 .985-1.337.985H26.666q-1.197 0-1.197-1.168v-16.96q0-.479.352-.788.352-.31.845-.31h10.133q1.352 0 1.352.859 0 .985-1.352.985zM47.552 38.34l4.955-15.552q.253-.788.915-.788.914 0 .914.788 0 .268-.098.577l-5.785 18.002q-.197.619-.915.619-.717 0-.914-.62l-5.827-18q-.099-.31-.099-.578 0-.788.9-.788.634 0 .888.788z" style="font-style:normal;font-variant:normal;font-weight:400;font-stretch:normal;font-family:saxMono;-inkscape-font-specification:saxMono;stroke-width:.720619"/></g></svg>