<?xml version="1.0" encoding="UTF-8" standalone="no"?>
<svg
   xmlns:dc="http://purl.org/dc/elements/1.1/"
   xmlns:cc="http://creativecommons.org/ns#"
   xmlns:rdf="http://www.w3.org/1999/02/22-rdf-syntax-ns#"
   xmlns:svg="http://www.w3.org/2000/svg"
   xmlns="http://www.w3.org/2000/svg"
   id="svg11"
   version="1.1"
   viewBox="0 0 128 128"
   height="128px"
   width="128px">
  <metadata
     id="metadata17">
    <rdf:RDF>
      <cc:Work
         rdf:about="">
        <dc:format>image/svg+xml</dc:format>
        <dc:type
           rdf:resource="http://purl.org/dc/dcmitype/StillImage" />
        <dc:title></dc:title>
      </cc:Work>
    </rdf:RDF>
  </metadata>
  <defs
     id="defs15" />
  <rect y="0" x="0" height="128" width="128" id="rect842" style="fill:#f2f2f2;fill-opacity:0;stroke:none;stroke-width:9.14344" />
  <g
     id="surface1">
    <path
       id="path2"
       transform="matrix(2,0,0,2,0,0)"
       d="M 39.355469 55.855469 C 39.355469 59.996094 35.996094 63.355469 31.855469 63.355469 C 27.712891 63.355469 24.355469 59.996094 24.355469 55.855469 C 24.355469 51.712891 27.712891 48.355469 31.855469 48.355469 C 35.996094 48.355469 39.355469 51.712891 39.355469 55.855469 Z M 39.355469 55.855469 "
       style="fill-rule:nonzero;fill:#f2f2f2;fill-opacity:1;stroke-width:0.999935;stroke-linecap:round;stroke-linejoin:round;stroke:#333333;stroke-opacity:1;stroke-miterlimit:4;" />
    <path
       id="path4"
       d="M 60.015625 108.175781 L 62.492188 100.394531 C 62.578125 100.132812 62.730469 100 62.949219 100 C 63.257812 100 63.410156 100.132812 63.410156 100.394531 C 63.410156 100.484375 63.390625 100.578125 63.359375 100.683594 L 60.464844 109.691406 C 60.398438 109.898438 60.246094 110 60.007812 110 C 59.769531 110 59.613281 109.898438 59.550781 109.691406 L 56.632812 100.683594 C 56.601562 100.578125 56.585938 100.484375 56.585938 100.394531 C 56.585938 100.132812 56.734375 100 57.035156 100 C 57.246094 100 57.394531 100.132812 57.480469 100.394531 Z M 60.015625 108.175781 "
       style=" stroke:none;fill-rule:nonzero;fill:#333333;fill-opacity:1;" />
    <path
       id="path6"
       d="M 65.746094 108.878906 L 70.808594 108.878906 C 71.214844 108.878906 71.414062 109.039062 71.414062 109.351562 C 71.414062 109.65625 71.214844 109.808594 70.808594 109.808594 L 65.289062 109.808594 C 65.160156 109.808594 65.046875 109.773438 64.945312 109.695312 C 64.839844 109.617188 64.789062 109.492188 64.789062 109.324219 L 64.789062 100.65625 C 64.789062 100.21875 64.949219 100 65.269531 100 C 65.585938 100 65.746094 100.230469 65.746094 100.695312 Z M 65.746094 108.878906 "
       style=" stroke:none;fill-rule:nonzero;fill:#333333;fill-opacity:1;" />
    <path
       id="path8"
       d="M 65.875 121.015625 L 62.0625 121.015625 L 61.519531 123.710938 C 61.484375 123.898438 61.34375 123.992188 61.105469 123.992188 C 60.773438 123.992188 60.613281 123.863281 60.632812 123.597656 C 60.648438 123.414062 60.890625 122.152344 61.359375 119.804688 C 61.789062 117.667969 62.082031 116.265625 62.238281 115.605469 C 62.457031 114.535156 63.042969 114 63.996094 114 C 64.949219 114 65.535156 114.535156 65.757812 115.605469 C 66.046875 116.980469 66.339844 118.355469 66.628906 119.726562 C 67.121094 122.074219 67.367188 123.339844 67.367188 123.519531 C 67.367188 123.839844 67.203125 124 66.867188 124 C 66.605469 124 66.449219 123.886719 66.402344 123.65625 Z M 62.222656 120.085938 L 65.691406 120.085938 L 64.910156 116.125 C 64.757812 115.328125 64.4375 114.929688 63.949219 114.929688 C 63.65625 114.929688 63.4375 115.039062 63.285156 115.257812 C 63.164062 115.441406 63.0625 115.753906 62.976562 116.195312 Z M 62.222656 120.085938 "
       style=" stroke:none;fill-rule:nonzero;fill:#333333;fill-opacity:1;" />
  </g>
</svg>
