<svg xmlns="http://www.w3.org/2000/svg" width="64" height="64"><path d="M1 1h62v62H1z" style="fill:#f2f2f2;fill-opacity:1;stroke:#333;stroke-width:2.00014;stroke-miterlimit:4;stroke-dasharray:none;stroke-opacity:1"/><g aria-label="135" style="font-style:normal;font-weight:400;font-size:36.031px;line-height:1.25;font-family:saxMono;letter-spacing:0;word-spacing:0;fill:#333;fill-opacity:1;stroke:none;stroke-width:4.8718"><path d="M-7.996 41.685V22.28h-3.484q-1.32 0-1.32-1.144 0-1.161 1.32-1.161h4.68q1.196 0 1.196 1.161v20.55h3.695q1.355 0 1.355 1.23 0 1.091-1.355 1.091h-10.503q-1.355 0-1.355-1.16 0-1.162 1.355-1.162zM15.948 22.297H6.8q-1.531 0-1.531-1.178 0-1.126 1.53-1.126h11.278q1.372 0 1.372.932 0 .493-.334.897l-5.472 6.686q.51-.106 1.003-.106 2.322 0 3.677 1.46 1.372 1.443 1.372 3.765 0 4.47-4.591 7.794-4.205 3.061-8.832 3.061-1.724 0-1.724-1.038 0-1.055 1.442-1.055 2.657 0 4.803-.95 2.498-1.091 4.328-2.991 2.182-2.252 2.182-4.61 0-1.284-.845-2.199-.827-.932-2.093-.932-.986 0-2.393.598-1.408.598-1.76.598-.826 0-.826-1.003 0-.563.422-1.073zM28.932 28.596q2.305-1.038 3.994-1.038 2.85 0 4.715 2.005 1.812 1.953 1.812 4.82 0 4.786-4.61 7.636-3.958 2.463-9.025 2.463-1.267 0-1.267-1.038t1.548-1.178q4.223-.405 6.422-1.53 4.521-2.323 4.521-6.335 0-1.9-1.073-3.201-1.161-1.39-3.026-1.39-1.196 0-3.008.774-1.795.774-2.305.774-.95 0-.897-1.355l.281-7.9q.035-1.02.3-1.424.351-.704 1.301-.704h9.043q1.302 0 1.302 1.126 0 .493-.405.844-.387.335-.897.335h-8.462z" style="font-style:normal;font-weight:400;font-size:36.031px;line-height:1.25;font-family:saxMono;letter-spacing:0;word-spacing:0;fill:#333;fill-opacity:1;stroke:none;stroke-width:4.8718" transform="translate(19.157)"/></g></svg>