<svg xmlns="http://www.w3.org/2000/svg" width="64" height="64"><path d="M12 64h40V17.455L32 0 12 17.455Z" style="font-style:normal;font-variant:normal;font-weight:400;font-stretch:normal;font-size:30px;line-height:1.25;font-family:Roboto;font-variant-ligatures:normal;font-variant-caps:normal;font-variant-numeric:normal;font-feature-settings:normal;text-align:start;letter-spacing:0;word-spacing:0;writing-mode:lr-tb;text-anchor:start;fill:#333;fill-opacity:1;stroke:none;stroke-width:1.17004px;stroke-linecap:butt;stroke-linejoin:miter;stroke-opacity:1"/><path d="M14 62h36V18.615L32 2.385 14 18.572Z" style="font-style:normal;font-variant:normal;font-weight:400;font-stretch:normal;font-size:30px;line-height:1.25;font-family:Roboto;font-variant-ligatures:normal;font-variant-caps:normal;font-variant-numeric:normal;font-feature-settings:normal;text-align:start;letter-spacing:0;word-spacing:0;writing-mode:lr-tb;text-anchor:start;fill:#f2f2f2;fill-opacity:1;stroke:none;stroke-width:1.05304px;stroke-linecap:butt;stroke-linejoin:miter;stroke-opacity:1"/><path d="M-32.726 33.825q3.504-1.577 6.07-1.577 4.333 0 7.168 3.048 2.754 2.969 2.754 7.328 0 7.273-7.006 11.605-6.017 3.744-13.719 3.744-1.925 0-1.925-1.577 0-1.578 2.353-1.792 6.418-.615 9.76-2.327 6.873-3.53 6.873-9.627 0-2.888-1.63-4.867-1.766-2.112-4.6-2.112-1.819 0-4.573 1.176-2.728 1.177-3.503 1.177-1.444 0-1.364-2.06l.428-12.006q.053-1.551.454-2.166.535-1.07 1.98-1.07h13.744q1.98 0 1.98 1.711 0 .75-.616 1.284-.588.508-1.364.508h-12.862z" aria-label="5" style="font-style:normal;font-variant:normal;font-weight:400;font-stretch:normal;font-size:54.7671px;line-height:1.25;font-family:saxMono;-inkscape-font-specification:saxMono;font-variant-ligatures:normal;font-variant-caps:normal;font-variant-numeric:normal;font-feature-settings:normal;text-align:start;letter-spacing:0;word-spacing:0;writing-mode:lr-tb;text-anchor:start;fill:#333;fill-opacity:1;stroke:none;stroke-width:6.84588" transform="translate(60.06)"/></svg>