<svg xmlns="http://www.w3.org/2000/svg" width="64" height="64"><path d="M12 64h40V17.455L32 0 12 17.455Z" style="font-style:normal;font-variant:normal;font-weight:400;font-stretch:normal;font-size:30px;line-height:1.25;font-family:Roboto;font-variant-ligatures:normal;font-variant-caps:normal;font-variant-numeric:normal;font-feature-settings:normal;text-align:start;letter-spacing:0;word-spacing:0;writing-mode:lr-tb;text-anchor:start;fill:#333;fill-opacity:1;stroke:none;stroke-width:1.17004px;stroke-linecap:butt;stroke-linejoin:miter;stroke-opacity:1"/><path d="M14 62h36V18.615L32 2.385 14 18.572Z" style="font-style:normal;font-variant:normal;font-weight:400;font-stretch:normal;font-size:30px;line-height:1.25;font-family:Roboto;font-variant-ligatures:normal;font-variant-caps:normal;font-variant-numeric:normal;font-feature-settings:normal;text-align:start;letter-spacing:0;word-spacing:0;writing-mode:lr-tb;text-anchor:start;fill:#f2f2f2;fill-opacity:1;stroke:none;stroke-width:1.05304px;stroke-linecap:butt;stroke-linejoin:miter;stroke-opacity:1"/><path d="M-25.505 50.325h-12.221q-1.658 0-1.658-1.23 0-.669.615-2.54l7.889-24.095q.454-1.39.615-1.658.481-.802 1.39-.802 1.658 0 1.658 1.578 0 .374-.267 1.23l-7.568 23.987h9.547V31.954q0-2.06 1.845-2.06 1.792 0 1.792 2.06v14.841h3.824q2.032 0 2.032 1.765t-2.032 1.765h-3.824v5.59q0 2.058-1.819 2.058-1.818 0-1.818-2.059z" aria-label="4" style="font-style:normal;font-variant:normal;font-weight:400;font-stretch:normal;font-size:54.7671px;line-height:1.25;font-family:saxMono;-inkscape-font-specification:saxMono;font-variant-ligatures:normal;font-variant-caps:normal;font-variant-numeric:normal;font-feature-settings:normal;text-align:start;letter-spacing:0;word-spacing:0;writing-mode:lr-tb;text-anchor:start;fill:#333;fill-opacity:1;stroke:none;stroke-width:6.84588" transform="translate(59.698)"/></svg>