<svg xmlns="http://www.w3.org/2000/svg" width="64" height="64"><path d="M3 3h58v58H3z" style="fill:#f2f2f2;fill-opacity:1;stroke:#333;stroke-width:5.99978;stroke-miterlimit:4;stroke-dasharray:none;stroke-opacity:1"/><g aria-label="TGV I" style="font-style:normal;font-weight:400;font-size:21.5713px;line-height:1.25;font-family:sans-serif;text-align:center;letter-spacing:0;word-spacing:0;text-anchor:middle;fill:#333;fill-opacity:1;stroke:none;stroke-width:.539282"><path d="M19.603 12.457h-3.855q-.748 0-.748-.663 0-.716.853-.716h8.91q.875 0 .875.684 0 .695-.874.695h-3.729V24.94q0 .821-.705.821-.727 0-.727-.821zM35.634 20.578h-1.938q-.864 0-.864-.684 0-.706.864-.706h2.622q.717 0 .717.864v4.94q0 .758-.653.758-.674 0-.674-.548v-1.116q-1.338 1.664-3.655 1.664-2.096 0-3.413-1.148-1.38-1.211-1.38-3.276v-5.909q0-4.624 4.666-4.624 3.37 0 4.593 2.391.379.748.379 1.422 0 .78-.738.78-.452 0-.747-.832-.4-1.117-.822-1.538-.821-.832-2.549-.832-3.339 0-3.339 3.233v5.91q0 1.526 1.043 2.327.937.716 2.507.716 1.527 0 2.422-.748.959-.79.959-2.296zM43.923 23.022l3.708-11.639q.19-.59.684-.59.685 0 .685.59 0 .2-.074.432l-4.329 13.471q-.147.464-.684.464-.538 0-.685-.464l-4.36-13.471q-.074-.232-.074-.432 0-.59.674-.59.474 0 .663.59zM31.368 51.816V40.21h-2.549q-.906 0-.906-.695t.811-.695h6.689q.842 0 .842.663 0 .727-.842.727H32.8v11.607h2.497q.958 0 .958.696 0 .695-.958.695h-6.594q-.79 0-.79-.664 0-.727.79-.727z" style="font-style:normal;font-variant:normal;font-weight:400;font-stretch:normal;font-family:saxMono;-inkscape-font-specification:saxMono;text-align:center;text-anchor:middle;stroke-width:.539282"/></g></svg>