<svg xmlns="http://www.w3.org/2000/svg" width="64" height="64"><path d="M12 0h40v46.545L32 64 12 46.545Z" style="font-style:normal;font-variant:normal;font-weight:400;font-stretch:normal;font-size:30px;line-height:1.25;font-family:Roboto;font-variant-ligatures:normal;font-variant-caps:normal;font-variant-numeric:normal;font-feature-settings:normal;text-align:start;letter-spacing:0;word-spacing:0;writing-mode:lr-tb;text-anchor:start;fill:#333;fill-opacity:1;stroke:none;stroke-width:1.17004px;stroke-linecap:butt;stroke-linejoin:miter;stroke-opacity:1"/><path d="M16 4h32v41L32 59 16 45Z" style="font-style:normal;font-variant:normal;font-weight:400;font-stretch:normal;font-size:30px;line-height:1.25;font-family:Roboto;font-variant-ligatures:normal;font-variant-caps:normal;font-variant-numeric:normal;font-feature-settings:normal;text-align:start;letter-spacing:0;word-spacing:0;writing-mode:lr-tb;text-anchor:start;fill:#f2f2f2;fill-opacity:1;stroke:none;stroke-width:1.11154px;stroke-linecap:butt;stroke-linejoin:miter;stroke-opacity:1"/><path d="M-22.43 12.252h-13.906q-2.326 0-2.326-1.792 0-1.711 2.326-1.711h17.142q2.086 0 2.086 1.417 0 .749-.508 1.364l-8.317 10.162q.775-.16 1.524-.16 3.53 0 5.59 2.219 2.085 2.193 2.085 5.723 0 6.792-6.98 11.846-6.39 4.653-13.424 4.653-2.62 0-2.62-1.577 0-1.605 2.192-1.605 4.038 0 7.3-1.444 3.798-1.658 6.58-4.546 3.315-3.423 3.315-7.006 0-1.953-1.283-3.343-1.257-1.418-3.183-1.418-1.497 0-3.637.91-2.139.909-2.674.909-1.257 0-1.257-1.524 0-.856.642-1.632z" aria-label="3" style="font-style:normal;font-variant:normal;font-weight:400;font-stretch:normal;font-size:54.7671px;line-height:1.25;font-family:saxMono;-inkscape-font-specification:saxMono;font-variant-ligatures:normal;font-variant-caps:normal;font-variant-numeric:normal;font-feature-settings:normal;text-align:start;letter-spacing:0;word-spacing:0;writing-mode:lr-tb;text-anchor:start;fill:#333;fill-opacity:1;stroke:none;stroke-width:6.84588" transform="translate(60.246)"/></svg>