<svg xmlns="http://www.w3.org/2000/svg" width="64" height="64"><path fill="none" d="M0 0h64v64H0z" style="fill:#f2f2f2;fill-opacity:0;stroke-width:6.4;stroke-linecap:round;stroke-linejoin:round;paint-order:markers stroke fill;stop-color:#333"/><path d="M.984 63.016h62.032V48.477c0-33.923-62.032-33.923-62.032 0v14.539z" style="font-style:normal;font-variant:normal;font-weight:400;font-stretch:normal;font-size:30px;line-height:1.25;font-family:Roboto;font-variant-ligatures:normal;font-variant-caps:normal;font-variant-numeric:normal;font-feature-settings:normal;text-align:start;letter-spacing:0;word-spacing:0;writing-mode:lr-tb;text-anchor:start;fill:#f2f2f2;fill-opacity:1;stroke:#333;stroke-width:1.96876;stroke-linecap:butt;stroke-linejoin:miter;stroke-miterlimit:4;stroke-dasharray:none;stroke-opacity:1"/><g aria-label="90" style="font-style:normal;font-variant:normal;font-weight:400;font-stretch:normal;font-size:28.8248px;line-height:1.25;font-family:saxMono;-inkscape-font-specification:saxMono;letter-spacing:0;word-spacing:0;fill:#333;fill-opacity:1;stroke:none;stroke-width:.720619"><path d="M4.352 44.585q-1.956 1.76-4.068 1.76-2.435 0-4.053-1.591-1.605-1.605-1.605-4.026 0-2.477 1.69-4.095Q-1.997 35 .48 35q2.928 0 4.547 1.928 1.52 1.802 1.52 4.786 0 3.223-1.422 6.164-1.393 2.886-3.885 4.997-2.49 2.11-3.476 2.11-.746 0-.746-.773 0-.605.887-1.182 5.137-3.35 6.446-8.445zm-3.87-.099q1.773 0 2.913-.943 1.224-1.013 1.224-2.758 0-1.746-1.154-2.83-1.14-1.097-2.9-1.097-1.744 0-2.856 1.041-1.154 1.07-1.154 2.801 0 1.717 1.097 2.759 1.098 1.027 2.83 1.027zM10.432 49.075V40.91q0-2.603 1.59-4.25Q13.628 35 16.429 35q2.8 0 4.363 1.66 1.562 1.662 1.562 4.251v8.164q0 2.87-1.52 4.39-1.52 1.52-4.405 1.52-2.8 0-4.405-1.561-1.59-1.563-1.59-4.35zm9.993 0V40.91q0-1.787-1.084-2.913-1.07-1.14-3.054-1.14-3.927 0-3.927 4.053v8.164q0 1.928 1.07 2.998 1.07 1.07 3.012 1.07 3.983 0 3.983-4.068z" style="font-style:normal;font-variant:normal;font-weight:400;font-stretch:normal;font-size:28.8248px;line-height:1.25;font-family:saxMono;-inkscape-font-specification:saxMono;letter-spacing:0;word-spacing:0;fill:#333;fill-opacity:1;stroke:none;stroke-width:.720619" transform="translate(23.51)"/></g></svg>