<?xml version="1.0" encoding="UTF-8"?>
<svg xmlns="http://www.w3.org/2000/svg" xmlns:xlink="http://www.w3.org/1999/xlink" width="128px" height="128px" viewBox="0 0 128 128" version="1.1">
<g id="surface1">
<rect y="0" x="0" height="128" width="128" id="rect842" style="fill:#f2f2f2;fill-opacity:0;stroke:none;" />
<path style="fill-rule:nonzero;fill:#f2f2f2;fill-opacity:1;stroke-width:1;stroke-linecap:round;stroke-linejoin:round;stroke:#333333;stroke-opacity:1;stroke-miterlimit:4;" d="M 26.5 48.490234 L 37.5 48.490234 L 37.5 63.509766 L 26.5 63.5 Z M 26.5 48.490234 " transform="matrix(2,0,0,2,0,0)"/>
<path style=" stroke:none;fill-rule:nonzero;fill:#333333;fill-opacity:1;" d="M 60.015625 108.175781 L 62.492188 100.394531 C 62.578125 100.132812 62.730469 100 62.949219 100 C 63.257812 100 63.410156 100.132812 63.410156 100.394531 C 63.410156 100.484375 63.390625 100.578125 63.359375 100.683594 L 60.464844 109.691406 C 60.398438 109.898438 60.246094 110 60.007812 110 C 59.769531 110 59.613281 109.898438 59.550781 109.691406 L 56.632812 100.683594 C 56.601562 100.578125 56.585938 100.484375 56.585938 100.394531 C 56.585938 100.132812 56.734375 100 57.035156 100 C 57.246094 100 57.394531 100.132812 57.480469 100.394531 Z M 60.015625 108.175781 "/>
<path style=" stroke:none;fill-rule:nonzero;fill:#333333;fill-opacity:1;" d="M 65.746094 108.878906 L 70.808594 108.878906 C 71.214844 108.878906 71.414062 109.039062 71.414062 109.351562 C 71.414062 109.65625 71.214844 109.808594 70.808594 109.808594 L 65.289062 109.808594 C 65.160156 109.808594 65.046875 109.773438 64.945312 109.695312 C 64.839844 109.617188 64.789062 109.492188 64.789062 109.324219 L 64.789062 100.65625 C 64.789062 100.21875 64.949219 100 65.269531 100 C 65.585938 100 65.746094 100.230469 65.746094 100.695312 Z M 65.746094 108.878906 "/>
<path style=" stroke:none;fill-rule:nonzero;fill:#333333;fill-opacity:1;" d="M 60.691406 116.578125 C 60.691406 115.699219 61.007812 115.035156 61.648438 114.585938 C 62.203125 114.195312 62.9375 114 63.851562 114 C 65.269531 114 66.285156 114.347656 66.894531 115.042969 C 67.054688 115.226562 67.132812 115.390625 67.132812 115.542969 C 67.132812 115.804688 66.996094 115.9375 66.71875 115.9375 C 66.605469 115.9375 66.433594 115.859375 66.203125 115.703125 C 65.980469 115.550781 65.71875 115.402344 65.429688 115.269531 C 64.933594 115.042969 64.378906 114.929688 63.773438 114.929688 C 63.183594 114.929688 62.699219 115.050781 62.324219 115.289062 C 61.875 115.570312 61.648438 115.992188 61.648438 116.550781 C 61.648438 117.210938 62.144531 117.695312 63.140625 118 L 65.84375 118.84375 C 66.890625 119.304688 67.414062 120.117188 67.414062 121.28125 C 67.414062 122.183594 67.042969 122.890625 66.304688 123.410156 C 65.679688 123.808594 64.867188 124.007812 63.875 124.007812 C 63.261719 124.007812 62.617188 123.902344 61.9375 123.695312 C 61.035156 123.421875 60.585938 123.054688 60.585938 122.597656 C 60.585938 122.332031 60.71875 122.195312 60.992188 122.195312 C 61.125 122.195312 61.429688 122.328125 61.910156 122.589844 C 62.5 122.914062 63.179688 123.078125 63.949219 123.078125 C 64.617188 123.078125 65.179688 122.933594 65.640625 122.640625 C 66.183594 122.296875 66.457031 121.8125 66.457031 121.183594 C 66.457031 120.300781 65.933594 119.726562 64.878906 119.464844 L 62.839844 118.816406 C 61.40625 118.4375 60.691406 117.691406 60.691406 116.578125 Z M 60.691406 116.578125 "/>
</g>
</svg>
