<svg xmlns="http://www.w3.org/2000/svg" width="64" height="64"><path d="M3 3h58v58H3Z" style="fill:#f2f2f2;fill-opacity:1;stroke:#333;stroke-width:5.99978;stroke-miterlimit:4;stroke-dasharray:none;stroke-opacity:1"/><g aria-label="LM" style="font-style:normal;font-variant:normal;font-weight:400;font-stretch:normal;font-size:43.2676px;line-height:1.25;font-family:Roboto;-inkscape-font-specification:Roboto;font-variant-ligatures:normal;font-variant-caps:normal;font-variant-numeric:normal;font-feature-settings:normal;text-align:start;letter-spacing:0;word-spacing:0;writing-mode:lr-tb;text-anchor:start;fill:#333;fill-opacity:1;stroke:none;stroke-width:5.40844"><path d="M13.356 43.64h15.19q1.817 0 1.817 1.416 0 1.374-1.817 1.374H11.982q-.57 0-1.035-.338-.465-.36-.465-1.12V18.965Q10.482 17 11.92 17t1.437 2.092zM43.673 34.683l6.845-16.458Q51.025 17 52.144 17q1.374 0 1.374 1.901v26.536q0 1.563-1.395 1.563-1.5 0-1.5-1.944v-20.83l-5.662 13.31q-.528 1.246-1.352 1.246-.908 0-1.458-1.247l-5.936-13.31v21.212q0 1.563-1.437 1.563-1.458 0-1.458-1.754V18.923Q33.32 17 34.863 17q.993 0 1.479 1.12z" style="font-style:normal;font-variant:normal;font-weight:400;font-stretch:normal;font-family:saxMono;-inkscape-font-specification:saxMono;stroke-width:5.40844"/></g></svg>