<svg xmlns="http://www.w3.org/2000/svg" width="128" height="128"><path fill="none" d="M0 0h128v128H0z" style="fill:#f2f2f2;fill-opacity:0;stroke:none"/><path d="M26.5 20.5h11v43h-11Zm0 0" style="fill-rule:nonzero;fill:#f2f2f2;fill-opacity:1;stroke-width:.999924;stroke-linecap:round;stroke-linejoin:round;stroke:#333;stroke-opacity:1;stroke-miterlimit:4" transform="scale(2)"/><path d="m60.016 52.176 2.476-7.781c.086-.262.238-.395.457-.395.309 0 .461.133.461.395 0 .09-.02.183-.05.289l-2.895 9.007c-.067.204-.219.309-.457.309-.238 0-.39-.105-.457-.309l-2.918-9.007a1.011 1.011 0 0 1-.047-.29c0-.261.148-.394.45-.394.21 0 .359.133.444.395ZM65.746 52.879h5.063c.406 0 .605.156.605.473 0 .304-.2.457-.605.457h-5.52a.543.543 0 0 1-.344-.114c-.105-.078-.156-.203-.156-.37v-8.669c0-.437.16-.656.477-.656.32 0 .48.23.48.695ZM65.879 65.02h-3.817l-.542 2.695c-.04.187-.176.281-.418.281-.332 0-.489-.129-.47-.394.013-.184.255-1.446.723-3.793.434-2.141.727-3.543.883-4.204.219-1.07.805-1.605 1.758-1.605s1.54.535 1.762 1.605c.289 1.375.582 2.75.87 4.125.497 2.348.743 3.614.743 3.793 0 .32-.168.48-.5.48-.266 0-.418-.112-.465-.343Zm-3.656-.93h3.472l-.78-3.965c-.157-.797-.478-1.195-.966-1.195-.293 0-.511.11-.664.328-.12.183-.222.496-.308.937ZM61.277 77.29l2.059 3.687a.906.906 0 0 1 .125.425c0 .278-.145.414-.438.414-.207 0-.375-.12-.511-.359l-2.227-3.973h-2.691v3.782c0 .367-.157.55-.477.55-.324 0-.488-.183-.488-.55V72.52c0-.196.035-.332.101-.407.067-.074.196-.113.395-.113h3.54c.812 0 1.44.258 1.882.766.414.484.617 1.14.617 1.964 0 .754-.133 1.313-.406 1.684-.27.371-.762.664-1.48.875Zm-3.683-.735h2.648c1.313 0 1.965-.606 1.965-1.817 0-.523-.113-.949-.344-1.265-.258-.368-.64-.551-1.148-.551h-3.121ZM69.188 77.29l2.054 3.687a.871.871 0 0 1 .13.425c0 .278-.15.414-.438.414-.207 0-.38-.12-.516-.359l-2.223-3.973h-2.691v3.782c0 .367-.16.55-.48.55-.325 0-.485-.183-.485-.55V72.52c0-.196.031-.332.098-.407.066-.074.199-.113.394-.113h3.543c.813 0 1.438.258 1.88.766.413.484.62 1.14.62 1.964 0 .754-.136 1.313-.41 1.684-.266.371-.758.664-1.477.875Zm-3.684-.735h2.648c1.309 0 1.965-.606 1.965-1.817 0-.523-.117-.949-.347-1.265-.258-.368-.641-.551-1.149-.551h-3.117ZM60.691 88.578c0-.879.32-1.543.957-1.992.555-.39 1.29-.586 2.204-.586 1.418 0 2.433.348 3.043 1.043.16.184.238.348.238.5 0 .262-.137.394-.414.394-.114 0-.285-.078-.516-.234a5.931 5.931 0 0 0-.773-.437 4.01 4.01 0 0 0-1.657-.336c-.59 0-1.074.12-1.449.36-.449.28-.676.698-.676 1.257 0 .664.497 1.148 1.493 1.453l2.703.844c1.047.46 1.57 1.273 1.57 2.437 0 .899-.371 1.61-1.113 2.125-.621.399-1.434.598-2.426.598a6.64 6.64 0 0 1-1.938-.309c-.902-.277-1.351-.644-1.351-1.097 0-.27.137-.403.406-.403.133 0 .438.133.918.395.59.324 1.27.484 2.04.484.667 0 1.23-.144 1.69-.433.544-.344.817-.829.817-1.461 0-.88-.527-1.453-1.578-1.715l-2.04-.649c-1.433-.379-2.148-1.129-2.148-2.238ZM60.691 102.578c0-.879.317-1.543.957-1.992.555-.39 1.29-.586 2.204-.586 1.418 0 2.433.348 3.043 1.043.16.184.238.348.238.5 0 .262-.137.394-.414.394-.114 0-.285-.078-.516-.234a5.684 5.684 0 0 0-.773-.437 4.01 4.01 0 0 0-1.657-.336c-.59 0-1.074.12-1.449.36-.449.28-.676.702-.676 1.26 0 .66.497 1.145 1.493 1.45l2.703.844c1.047.46 1.57 1.273 1.57 2.437 0 .903-.371 1.61-1.113 2.125-.621.403-1.434.602-2.426.602a6.651 6.651 0 0 1-1.938-.313c-.902-.277-1.351-.64-1.351-1.097 0-.266.137-.403.406-.403.133 0 .438.133.918.395.59.324 1.27.488 2.04.488.667 0 1.23-.148 1.69-.437.544-.344.817-.829.817-1.457 0-.883-.523-1.457-1.578-1.72l-2.04-.648c-1.433-.379-2.148-1.125-2.148-2.238ZM60.828 121.027v-3.941c0-2.059 1.09-3.086 3.274-3.086.886 0 1.601.195 2.14.59.621.484.93 1.129.93 1.937 0 .391-.156.586-.473.586-.222 0-.386-.183-.484-.55a2.74 2.74 0 0 0-.352-.895c-.273-.492-.883-.738-1.832-.738-.812 0-1.394.203-1.746.613-.328.367-.492.965-.492 1.793v3.289c0 .855.172 1.465.52 1.832.37.414.964.621 1.777.621 1.222 0 1.933-.433 2.125-1.297.07-.32.11-.484.113-.492.07-.18.195-.27.371-.27.317 0 .473.196.473.586 0 .774-.324 1.399-.977 1.872-.527.347-1.215.523-2.066.523-1.008 0-1.8-.238-2.371-.719-.621-.511-.93-1.261-.93-2.254Zm0 0" style="stroke:none;fill-rule:nonzero;fill:#333;fill-opacity:1"/><path d="M35.5 45.502a3.5 3.5 0 1 1-7.001-.001 3.5 3.5 0 0 1 7.001.001Zm0 0" style="fill:none;stroke-width:.5;stroke-linecap:round;stroke-linejoin:round;stroke:#333;stroke-opacity:1;stroke-miterlimit:4" transform="scale(2)"/></svg>