<?xml version="1.0" encoding="UTF-8" standalone="no"?>
<svg
   xmlns:dc="http://purl.org/dc/elements/1.1/"
   xmlns:cc="http://creativecommons.org/ns#"
   xmlns:rdf="http://www.w3.org/1999/02/22-rdf-syntax-ns#"
   xmlns:svg="http://www.w3.org/2000/svg"
   xmlns="http://www.w3.org/2000/svg"
   id="svg2"
   version="1.1"
   width="64"
   height="64">
  <metadata
     id="metadata8">
    <rdf:RDF>
      <cc:Work
         rdf:about="">
        <dc:format>image/svg+xml</dc:format>
        <dc:type
           rdf:resource="http://purl.org/dc/dcmitype/StillImage" />
        <dc:title />
      </cc:Work>
    </rdf:RDF>
  </metadata>
  <defs
     id="defs6" />
  <rect
     style="fill:#f2f2f2;fill-opacity:0;stroke-width:6.4;stroke-linecap:round;stroke-linejoin:round;paint-order:markers stroke fill;stop-color:#333333"
     id="rect832"
     width="64"
     height="64"
     x="0"
     y="0" />
  <path
     style="font-style:normal;font-variant:normal;font-weight:normal;font-stretch:normal;font-size:30px;line-height:1.25;font-family:Roboto;font-variant-ligatures:normal;font-variant-caps:normal;font-variant-numeric:normal;font-feature-settings:normal;text-align:start;letter-spacing:0px;word-spacing:0px;writing-mode:lr-tb;text-anchor:start;fill:#f2f2f2;fill-opacity:1;stroke:#333333;stroke-width:1.96876;stroke-linecap:butt;stroke-linejoin:miter;stroke-miterlimit:4;stroke-dasharray:none;stroke-opacity:1"
     d="m 0.98438,63.01562 h 62.03124 c 0,0 0,-9.69238 0,-14.538571 0,-33.923335 -62.03124,-33.923335 -62.03124,0 0,4.846191 0,14.538571 0,14.538571 z"
     id="path839" />
  <g
     transform="translate(15.325748)"
     style="font-style:normal;font-variant:normal;font-weight:normal;font-stretch:normal;font-size:28.8248px;line-height:1.25;font-family:saxMono;-inkscape-font-specification:saxMono;letter-spacing:0px;word-spacing:0px;fill:#333333;fill-opacity:1;stroke:none;stroke-width:0.720619"
     id="texte"
     aria-label="145">
    <path
       id="path10"
       style="font-style:normal;font-variant:normal;font-weight:normal;font-stretch:normal;font-size:28.8248px;line-height:1.25;font-family:saxMono;-inkscape-font-specification:saxMono;letter-spacing:0px;word-spacing:0px;fill:#333333;fill-opacity:1;stroke:none;stroke-width:0.720619"
       d="M 0.00287732,52.748082 V 37.223787 H -2.7838954 q -1.0555957,0 -1.0555957,-0.914849 0,-0.928924 1.0555957,-0.928924 h 3.74384617 q 0.95707343,0 0.95707343,0.928924 v 16.439144 h 2.955668 q 1.083745,0 1.083745,0.985223 0,0.872625 -1.083745,0.872625 h -8.4025419 q -1.0837449,0 -1.0837449,-0.928924 0,-0.928924 1.0837449,-0.928924 z" />
    <path
       id="path12"
       style="font-style:normal;font-variant:normal;font-weight:normal;font-stretch:normal;font-size:28.8248px;line-height:1.25;font-family:saxMono;-inkscape-font-specification:saxMono;letter-spacing:0px;word-spacing:0px;fill:#333333;fill-opacity:1;stroke:none;stroke-width:0.720619"
       d="m 17.53984,50.960606 h -6.432096 q -0.872626,0 -0.872626,-0.647432 0,-0.351865 0.323716,-1.337088 l 4.15201,-12.681223 q 0.239268,-0.731879 0.323716,-0.872626 0.253343,-0.422238 0.73188,-0.422238 0.872625,0 0.872625,0.830402 0,0.197045 -0.140746,0.647432 L 12.515205,49.102758 H 17.53984 V 41.29135 q 0,-1.083745 0.971148,-1.083745 0.942999,0 0.942999,1.083745 v 7.811408 h 2.01267 q 1.06967,0 1.06967,0.928924 0,0.928924 -1.06967,0.928924 h -2.01267 V 53.9022 q 0,1.083745 -0.957073,1.083745 -0.957074,0 -0.957074,-1.083745 z" />
    <path
       id="path14"
       style="font-style:normal;font-variant:normal;font-weight:normal;font-stretch:normal;font-size:28.8248px;line-height:1.25;font-family:saxMono;-inkscape-font-specification:saxMono;letter-spacing:0px;word-spacing:0px;fill:#333333;fill-opacity:1;stroke:none;stroke-width:0.720619"
       d="m 29.545482,42.276572 q 1.843774,-0.830402 3.194936,-0.830402 2.280087,0 3.771996,1.604506 1.449685,1.562282 1.449685,3.856443 0,3.828294 -3.687548,6.10838 -3.166787,1.970446 -7.220275,1.970446 -1.013372,0 -1.013372,-0.830402 0,-0.830402 1.238566,-0.942999 3.377906,-0.323716 5.137232,-1.224491 3.617175,-1.857849 3.617175,-5.06686 0,-1.520057 -0.858551,-2.561578 -0.928924,-1.111895 -2.420833,-1.111895 -0.957073,0 -2.406758,0.619283 -1.43561,0.619283 -1.843774,0.619283 -0.760029,0 -0.717805,-1.083745 l 0.225194,-6.3195 q 0.02815,-0.816327 0.239268,-1.140043 0.281492,-0.562984 1.041521,-0.562984 h 7.234349 q 1.041521,0 1.041521,0.900775 0,0.394089 -0.323716,0.675581 -0.309641,0.267417 -0.717805,0.267417 h -6.769887 z" />
  </g>
</svg>
