<svg xmlns="http://www.w3.org/2000/svg" width="64" height="64"><path d="M1 1h62v62H1z" style="fill:#f2f2f2;fill-opacity:1;stroke:#333;stroke-width:2.00014;stroke-miterlimit:4;stroke-dasharray:none;stroke-opacity:1"/><g aria-label="60" style="font-style:normal;font-weight:400;font-size:36.031px;line-height:1.25;font-family:saxMono;letter-spacing:0;word-spacing:0;fill:#333;fill-opacity:1;stroke:none;stroke-width:4.8718"><path d="M-11.885 32.519q1.953-2.217 5.155-2.217 2.956 0 4.926 2.041Q.184 34.366.184 37.34q0 3.078-2.11 5.12-2.112 2.022-5.208 2.022-3.713 0-5.718-2.427-1.865-2.252-1.865-6.017 0-7.97 6.668-13.618 3.448-2.92 5.155-2.92.914 0 .914.968 0 .51-.475.897-.07.053-.932.563-7.055 4.17-8.498 10.591zm4.75.123q-2.234 0-3.659 1.179-1.53 1.249-1.53 3.448 0 2.182 1.425 3.554 1.442 1.355 3.642 1.355 2.181 0 3.606-1.32 1.425-1.32 1.425-3.483 0-2.147-1.372-3.43-1.372-1.303-3.536-1.303zM5.04 37.093V26.89q0-3.255 1.988-5.313Q9.034 19.5 12.535 19.5t5.454 2.076q1.953 2.076 1.953 5.313v10.204q0 3.59-1.9 5.49-1.9 1.9-5.507 1.9-3.501 0-5.507-1.953-1.988-1.953-1.988-5.437zm12.491 0V26.89q0-2.234-1.354-3.642-1.337-1.425-3.818-1.425-4.909 0-4.909 5.067v10.204q0 2.41 1.338 3.748 1.337 1.337 3.765 1.337 4.978 0 4.978-5.085z" style="font-style:normal;font-weight:400;font-size:36.031px;line-height:1.25;font-family:saxMono;letter-spacing:0;word-spacing:0;fill:#333;fill-opacity:1;stroke:none;stroke-width:4.8718" transform="translate(29.388)"/></g></svg>