<svg xmlns="http://www.w3.org/2000/svg" width="64" height="64"><path d="M3 3h58v58H3z" style="fill:#f2f2f2;fill-opacity:1;stroke:#333;stroke-width:5.99978;stroke-miterlimit:4;stroke-dasharray:none;stroke-opacity:1"/><g aria-label="ATC" style="font-style:normal;font-weight:400;font-size:28.8248px;line-height:1.25;font-family:sans-serif;letter-spacing:0;word-spacing:0;fill:#333;fill-opacity:1;stroke:none;stroke-width:.720619"><path d="M20.06 36.032h-7.63l-1.083 5.391q-.113.563-.83.563-1 0-.943-.788.042-.55 1.45-7.586 1.294-6.418 1.759-8.403Q13.444 22 16.3 22q2.857 0 3.519 3.209l1.745 8.248q1.478 7.037 1.478 7.586 0 .957-1 .957-.787 0-.928-.69zm-7.306-1.857h6.94L18.13 26.25q-.464-2.393-1.928-2.393-.873 0-1.323.661-.366.55-.62 1.872zM31.136 24.224h-5.151q-1 0-1-.887 0-.957 1.14-.957h11.907q1.169 0 1.169.915 0 .929-1.169.929H33.05v16.678q0 1.098-.943 1.098-.971 0-.971-1.098zM41.748 36.046v-7.881q0-6.165 6.545-6.165 2.66 0 4.279 1.182 1.857 1.45 1.857 3.87 0 1.169-.943 1.169-.675 0-.97-1.098-.184-.943-.704-1.787-.817-1.478-3.66-1.478-2.435 0-3.49 1.224-.986 1.098-.986 3.59v6.572q0 2.562 1.042 3.66 1.112 1.238 3.547 1.238 3.673 0 4.25-2.59.211-.957.225-.985.212-.535.746-.535.943 0 .943 1.169 0 2.322-1.956 3.743-1.576 1.042-4.124 1.042-3.026 0-4.743-1.436-1.858-1.534-1.858-4.504z" style="font-style:normal;font-variant:normal;font-weight:400;font-stretch:normal;font-family:saxMono;-inkscape-font-specification:saxMono;stroke-width:.720619"/></g></svg>