<svg xmlns="http://www.w3.org/2000/svg" width="64" height="64"><path fill="none" d="M0 0h64v64H0z" style="fill:#f2f2f2;fill-opacity:0;stroke-width:6.4;stroke-linecap:round;stroke-linejoin:round;paint-order:markers stroke fill;stop-color:#333"/><path d="M.984 23.034h62.032v14.539c0 33.923-62.032 33.923-62.032 0V23.034z" style="font-style:normal;font-variant:normal;font-weight:400;font-stretch:normal;font-size:30px;line-height:1.25;font-family:Roboto;font-variant-ligatures:normal;font-variant-caps:normal;font-variant-numeric:normal;font-feature-settings:normal;text-align:start;letter-spacing:0;word-spacing:0;writing-mode:lr-tb;text-anchor:start;fill:#f2f2f2;fill-opacity:1;stroke:#333;stroke-width:1.96876;stroke-linecap:butt;stroke-linejoin:miter;stroke-miterlimit:4;stroke-dasharray:none;stroke-opacity:1"/><g aria-label="135" style="font-style:normal;font-variant:normal;font-weight:400;font-stretch:normal;font-size:29.4042px;line-height:1.25;font-family:saxMono;-inkscape-font-specification:saxMono;font-variant-ligatures:normal;font-variant-caps:normal;font-variant-numeric:normal;font-feature-settings:normal;text-align:start;letter-spacing:0;word-spacing:0;writing-mode:lr-tb;text-anchor:start;fill:#333;fill-opacity:1;stroke:none;stroke-width:3.67552"><path d="M14.994 49.717V33.881H12.15q-1.077 0-1.077-.933 0-.948 1.077-.948h3.819q.976 0 .976.948v16.77h3.015q1.106 0 1.106 1.004 0 .89-1.106.89H11.39q-1.106 0-1.106-.947 0-.948 1.106-.948zM34.534 33.895h-7.466q-1.249 0-1.249-.962 0-.919 1.25-.919h9.202q1.12 0 1.12.761 0 .402-.273.733l-4.465 5.455q.417-.086.819-.086 1.895 0 3 1.192 1.12 1.177 1.12 3.072 0 3.647-3.747 6.36Q30.413 52 26.637 52q-1.407 0-1.407-.847 0-.862 1.178-.862 2.168 0 3.92-.775 2.038-.89 3.531-2.44 1.78-1.838 1.78-3.762 0-1.048-.689-1.795-.674-.76-1.708-.76-.804 0-1.953.487-1.148.488-1.435.488-.675 0-.675-.818 0-.46.344-.876zM45.13 39.035q1.88-.847 3.26-.847 2.325 0 3.847 1.637 1.479 1.594 1.479 3.934 0 3.905-3.762 6.231Q46.724 52 42.59 52q-1.034 0-1.034-.847t1.263-.962q3.446-.33 5.24-1.25 3.69-1.894 3.69-5.168 0-1.55-.875-2.613-.948-1.134-2.47-1.134-.976 0-2.455.632-1.464.631-1.88.631-.776 0-.733-1.105l.23-6.447q.029-.832.244-1.163.287-.574 1.063-.574h7.38q1.062 0 1.062.919 0 .402-.33.689-.316.273-.733.273h-6.906z" style="stroke-width:3.67552"/></g></svg>