<svg xmlns="http://www.w3.org/2000/svg" width="64" height="64"><path d="M1 1h62v62H1z" style="fill:#f2f2f2;fill-opacity:1;stroke:#333;stroke-width:2.00014;stroke-miterlimit:4;stroke-dasharray:none;stroke-opacity:1"/><path d="M15 32h34" style="fill:none;stroke:#333;stroke-width:2;stroke-linecap:butt;stroke-linejoin:miter;stroke-miterlimit:4;stroke-dasharray:none;stroke-opacity:1"/><g aria-label="7080" style="font-style:normal;font-variant:normal;font-weight:400;font-stretch:normal;font-size:28.8248px;line-height:.95;font-family:saxMono;-inkscape-font-specification:saxMono;font-variant-ligatures:normal;font-variant-caps:normal;font-variant-numeric:normal;font-feature-settings:normal;text-align:center;letter-spacing:0;word-spacing:0;writing-mode:lr-tb;text-anchor:middle;fill:#333;fill-opacity:1;stroke:none;stroke-width:3.6031"><path d="M28.244 10.539h-8.91q-1.196 0-1.196-.943 0-.9 1.196-.9h10.021q1.098 0 1.098.773 0 .324-.422 1.394L23.557 27.33q-.38.971-1.07.971-.83 0-.83-.844 0-.268.295-1.014zM34.14 22.39v-8.163q0-2.604 1.591-4.25 1.605-1.662 4.406-1.662 2.8 0 4.363 1.661 1.562 1.66 1.562 4.25v8.164q0 2.871-1.52 4.391t-4.405 1.52q-2.801 0-4.406-1.562-1.59-1.562-1.59-4.35zm9.994 0v-8.163q0-1.788-1.084-2.914-1.07-1.14-3.054-1.14-3.927 0-3.927 4.054v8.163q0 1.928 1.07 2.998 1.07 1.07 3.012 1.07 3.983 0 3.983-4.068zM21.699 44.791q-2.604-1.28-2.604-3.94 0-2.225 1.534-3.688 1.534-1.464 3.758-1.464 2.196 0 3.645 1.407 1.45 1.408 1.45 3.603 0 2.534-2.42 4.054 3.194 1.492 3.194 5.039 0 2.66-1.59 4.278-1.59 1.605-4.25 1.605-2.605 0-4.308-1.577-1.773-1.618-1.773-4.194 0-3.617 3.364-5.123zm2.702-.802q1.45 0 2.294-.83.859-.845.859-2.295t-.887-2.378q-.886-.93-2.322-.93-1.45 0-2.393.958-.929.957-.929 2.42 0 1.408 1 2.252.943.803 2.378.803zm-.014 1.717q-1.844 0-2.984 1.14-1.14 1.126-1.14 2.97 0 1.843 1.239 3.068 1.252 1.21 3.11 1.21 1.746 0 2.759-1.21.957-1.154.957-2.984 0-1.801-1.056-2.97-1.097-1.224-2.885-1.224zM34.14 49.773V41.61q0-2.604 1.591-4.25 1.605-1.661 4.406-1.661 2.8 0 4.363 1.66 1.562 1.661 1.562 4.251v8.163q0 2.872-1.52 4.392-1.52 1.52-4.405 1.52-2.801 0-4.406-1.563-1.59-1.562-1.59-4.349zm9.994 0V41.61q0-1.787-1.084-2.913-1.07-1.14-3.054-1.14-3.927 0-3.927 4.053v8.163q0 1.929 1.07 2.998 1.07 1.07 3.012 1.07 3.983 0 3.983-4.068z" style="text-align:center;text-anchor:middle;stroke-width:3.6031" transform="translate(-.1)"/></g></svg>