<svg xmlns="http://www.w3.org/2000/svg" width="64" height="64"><path d="M1 1h62v62H1z" style="fill:#f2f2f2;fill-opacity:1;stroke:#333;stroke-width:2.00014;stroke-miterlimit:4;stroke-dasharray:none;stroke-opacity:1"/><g aria-label="65" style="font-style:normal;font-variant:normal;font-weight:400;font-stretch:normal;font-size:36.0563px;line-height:1.25;font-family:Roboto;-inkscape-font-specification:Roboto;font-variant-ligatures:normal;font-variant-caps:normal;font-variant-numeric:normal;font-feature-settings:normal;text-align:start;letter-spacing:0;word-spacing:0;writing-mode:lr-tb;text-anchor:start;fill:#333;fill-opacity:1;stroke:none;stroke-width:4.50704"><path d="M17.616 32.528q1.954-2.218 5.159-2.218 2.957 0 4.93 2.042 1.989 2.025 1.989 5 0 3.081-2.113 5.123Q25.468 44.5 22.37 44.5q-3.715 0-5.722-2.43-1.866-2.253-1.866-6.02 0-7.976 6.672-13.627 3.45-2.923 5.159-2.923.915 0 .915.968 0 .51-.475.898-.07.053-.933.564-7.06 4.172-8.504 10.598zm4.754.123q-2.236 0-3.662 1.18-1.532 1.25-1.532 3.45 0 2.184 1.426 3.557 1.444 1.356 3.644 1.356 2.184 0 3.61-1.32 1.426-1.321 1.426-3.487 0-2.148-1.374-3.433-1.373-1.303-3.538-1.303zM38.69 28.602q2.306-1.039 3.997-1.039 2.852 0 4.718 2.007 1.813 1.955 1.813 4.824 0 4.79-4.612 7.641-3.962 2.465-9.032 2.465-1.268 0-1.268-1.039 0-1.038 1.55-1.18 4.225-.404 6.426-1.531 4.524-2.324 4.524-6.338 0-1.901-1.074-3.204-1.162-1.391-3.028-1.391-1.197 0-3.01.775-1.796.774-2.307.774-.95 0-.898-1.355l.282-7.905q.035-1.021.3-1.426.352-.705 1.302-.705h9.05q1.302 0 1.302 1.127 0 .493-.405.845-.387.335-.897.335h-8.469z" style="font-style:normal;font-variant:normal;font-weight:400;font-stretch:normal;font-family:saxMono;-inkscape-font-specification:saxMono;stroke-width:4.50704"/></g></svg>