<?xml version="1.0" encoding="UTF-8" standalone="no"?>
<svg
   xmlns:dc="http://purl.org/dc/elements/1.1/"
   xmlns:cc="http://creativecommons.org/ns#"
   xmlns:rdf="http://www.w3.org/1999/02/22-rdf-syntax-ns#"
   xmlns:svg="http://www.w3.org/2000/svg"
   xmlns="http://www.w3.org/2000/svg"
   id="svg2"
   version="1.1"
   width="64"
   height="64">
  <metadata
     id="metadata8">
    <rdf:RDF>
      <cc:Work
         rdf:about="">
        <dc:format>image/svg+xml</dc:format>
        <dc:type
           rdf:resource="http://purl.org/dc/dcmitype/StillImage" />
        <dc:title />
      </cc:Work>
    </rdf:RDF>
  </metadata>
  <defs
     id="defs6" />
  <rect
     y="1.00007"
     x="1.0000679"
     height="61.999863"
     width="61.999863"
     id="rect2989-6"
     style="fill:#f2f2f2;fill-opacity:1;stroke:#333333;stroke-width:2.00014;stroke-miterlimit:4;stroke-dasharray:none;stroke-opacity:1" />
  <g
     transform="translate(29.510819)"
     style="font-style:normal;font-weight:normal;font-size:36.031px;line-height:1.25;font-family:saxMono;letter-spacing:0px;word-spacing:0px;fill:#333333;fill-opacity:1;stroke:none;stroke-width:4.8718"
     id="texte"
     aria-label="85">
    <path
       id="path9"
       style="font-style:normal;font-weight:normal;font-size:36.031px;line-height:1.25;font-family:saxMono;letter-spacing:0px;word-spacing:0px;fill:#333333;fill-opacity:1;stroke:none;stroke-width:4.8718"
       d="m -10.51224,30.865235 q -3.254753,-1.600987 -3.254753,-4.926113 0,-2.779736 1.917665,-4.609435 1.9176657,-1.829699 4.6974009,-1.829699 2.7445487,0 4.5566546,1.759326 1.81210585,1.759326 1.81210585,4.503875 0,3.166787 -3.02604085,5.066859 3.9936702,1.864886 3.9936702,6.298388 0,3.325126 -1.9880385,5.348351 -1.9880385,2.005632 -5.3131648,2.005632 -3.2547534,0 -5.3835374,-1.970446 -2.216751,-2.023225 -2.216751,-5.242791 0,-4.521468 4.204789,-6.403947 z m 3.3779062,-1.002816 q 1.8121058,0 2.8677015,-1.038003 1.0731889,-1.055595 1.0731889,-2.867701 0,-1.812106 -1.1083754,-2.973261 -1.1083755,-1.161155 -2.9028881,-1.161155 -1.8121058,0 -2.9908541,1.196341 -1.161155,1.196342 -1.161155,3.026041 0,1.759326 1.249121,2.814922 1.1787486,1.002816 2.9732612,1.002816 z m -0.017593,2.146378 q -2.3047172,0 -3.7297712,1.425054 -1.425055,1.407461 -1.425055,3.712178 0,2.304717 1.548207,3.835331 1.565801,1.51302 3.8881114,1.51302 2.1815643,0 3.4482791,-1.51302 1.1963418,-1.442648 1.1963418,-3.729772 0,-2.251937 -1.3194946,-3.712178 -1.3722744,-1.530613 -3.6066185,-1.530613 z" />
    <path
       id="path11"
       style="font-style:normal;font-weight:normal;font-size:36.031px;line-height:1.25;font-family:saxMono;letter-spacing:0px;word-spacing:0px;fill:#333333;fill-opacity:1;stroke:none;stroke-width:4.8718"
       d="m 9.1746197,28.595704 q 2.3047173,-1.038002 3.9936703,-1.038002 2.850108,0 4.714994,2.005631 1.812106,1.952852 1.812106,4.820554 0,4.785367 -4.609435,7.635475 -3.958483,2.463057 -9.0253425,2.463057 -1.2667147,0 -1.2667147,-1.038003 0,-1.038002 1.5482069,-1.178748 4.2223823,-0.404645 6.4215403,-1.530614 4.521468,-2.32231 4.521468,-6.333574 0,-1.900072 -1.073189,-3.201973 -1.161155,-1.389868 -3.026041,-1.389868 -1.196342,0 -3.008447,0.774103 -1.794513,0.774104 -2.3047176,0.774104 -0.9500361,0 -0.8972563,-1.354681 l 0.2814922,-7.899374 q 0.035187,-1.020409 0.2990854,-1.425054 0.3518652,-0.703731 1.3019013,-0.703731 h 9.042936 q 1.301901,0 1.301901,1.125969 0,0.492611 -0.404645,0.844476 -0.387051,0.334272 -0.897256,0.334272 H 9.4385186 Z" />
  </g>
</svg>
