<svg xmlns="http://www.w3.org/2000/svg" width="64" height="64"><path d="M1 1h62v62H1z" style="fill:#f2f2f2;fill-opacity:1;stroke:#333;stroke-width:2.00014;stroke-miterlimit:4;stroke-dasharray:none;stroke-opacity:1"/><g aria-label="30" style="font-style:normal;font-weight:400;font-size:36.031px;line-height:1.25;font-family:saxMono;letter-spacing:0;word-spacing:0;fill:#333;fill-opacity:1;stroke:none;stroke-width:4.8718"><path d="M-3.81 22.297h-9.148q-1.53 0-1.53-1.178 0-1.126 1.53-1.126H-1.68q1.372 0 1.372.932 0 .493-.334.897l-5.472 6.686q.51-.106 1.003-.106 2.322 0 3.677 1.46 1.372 1.443 1.372 3.765 0 4.47-4.592 7.794-4.204 3.061-8.832 3.061-1.724 0-1.724-1.038 0-1.055 1.443-1.055 2.657 0 4.803-.95 2.498-1.091 4.328-2.991 2.181-2.252 2.181-4.61 0-1.284-.844-2.199-.827-.932-2.094-.932-.985 0-2.392.598-1.408.598-1.76.598-.826 0-.826-1.003 0-.563.422-1.073zM5.04 37.093V26.89q0-3.255 1.988-5.313Q9.034 19.5 12.535 19.5t5.454 2.076q1.953 2.076 1.953 5.313v10.204q0 3.59-1.9 5.49-1.9 1.9-5.507 1.9-3.501 0-5.507-1.953-1.988-1.953-1.988-5.437zm12.491 0V26.89q0-2.234-1.354-3.642-1.337-1.425-3.818-1.425-4.909 0-4.909 5.067v10.204q0 2.41 1.338 3.748 1.337 1.337 3.765 1.337 4.978 0 4.978-5.085z" style="font-style:normal;font-weight:400;font-size:36.031px;line-height:1.25;font-family:saxMono;letter-spacing:0;word-spacing:0;fill:#333;fill-opacity:1;stroke:none;stroke-width:4.8718" transform="translate(29.634)"/></g></svg>