<svg xmlns="http://www.w3.org/2000/svg" width="64" height="64"><path d="M12 0h40v46.545L32 64 12 46.545Z" style="font-style:normal;font-variant:normal;font-weight:400;font-stretch:normal;font-size:30px;line-height:1.25;font-family:Roboto;font-variant-ligatures:normal;font-variant-caps:normal;font-variant-numeric:normal;font-feature-settings:normal;text-align:start;letter-spacing:0;word-spacing:0;writing-mode:lr-tb;text-anchor:start;fill:#333;fill-opacity:1;stroke:none;stroke-width:1.17004px;stroke-linecap:butt;stroke-linejoin:miter;stroke-opacity:1"/><path d="M16 4h32v41L32 59 16 45Z" style="font-style:normal;font-variant:normal;font-weight:400;font-stretch:normal;font-size:30px;line-height:1.25;font-family:Roboto;font-variant-ligatures:normal;font-variant-caps:normal;font-variant-numeric:normal;font-feature-settings:normal;text-align:start;letter-spacing:0;word-spacing:0;writing-mode:lr-tb;text-anchor:start;fill:#f2f2f2;fill-opacity:1;stroke:none;stroke-width:1.11154px;stroke-linecap:butt;stroke-linejoin:miter;stroke-opacity:1"/><path d="M-34.704 27.789q2.968-3.37 7.835-3.37 4.493 0 7.488 3.102 3.021 3.076 3.021 7.595 0 4.68-3.209 7.782-3.209 3.075-7.915 3.075-5.643 0-8.691-3.69-2.835-3.423-2.835-9.146 0-12.114 10.135-20.698Q-23.633 8-21.039 8q1.39 0 1.39 1.47 0 .776-.722 1.365-.107.08-1.417.855-10.724 6.338-12.916 16.099zm7.22.187q-3.396 0-5.562 1.792-2.327 1.898-2.327 5.241 0 3.316 2.166 5.402 2.193 2.06 5.536 2.06 3.316 0 5.482-2.007 2.166-2.005 2.166-5.294 0-3.263-2.086-5.215-2.086-1.979-5.375-1.979z" aria-label="6" style="font-style:normal;font-variant:normal;font-weight:400;font-stretch:normal;font-size:54.7671px;line-height:1.25;font-family:saxMono;-inkscape-font-specification:saxMono;font-variant-ligatures:normal;font-variant-caps:normal;font-variant-numeric:normal;font-feature-settings:normal;text-align:start;letter-spacing:0;word-spacing:0;writing-mode:lr-tb;text-anchor:start;fill:#333;fill-opacity:1;stroke:none;stroke-width:6.84588" transform="translate(59.685)"/></svg>