<svg xmlns="http://www.w3.org/2000/svg" width="64" height="64"><path fill="none" d="M0 0h64v64H0z" style="fill:#f2f2f2;fill-opacity:0;stroke-width:6.4;stroke-linecap:round;stroke-linejoin:round;paint-order:markers stroke fill;stop-color:#333"/><path d="M.984 63h62.032V26.427c0-33.923-62.032-33.923-62.032 0z" style="font-style:normal;font-variant:normal;font-weight:400;font-stretch:normal;font-size:30px;line-height:1.25;font-family:Roboto;font-variant-ligatures:normal;font-variant-caps:normal;font-variant-numeric:normal;font-feature-settings:normal;text-align:start;letter-spacing:0;word-spacing:0;writing-mode:lr-tb;text-anchor:start;fill:#f2f2f2;fill-opacity:1;stroke:#333;stroke-width:1.96876;stroke-linecap:butt;stroke-linejoin:miter;stroke-miterlimit:4;stroke-dasharray:none;stroke-opacity:1"/><path d="M14 32h36" style="fill:none;stroke:#333;stroke-width:2;stroke-linecap:butt;stroke-linejoin:miter;stroke-miterlimit:4;stroke-dasharray:none;stroke-opacity:1"/><g aria-label="140160" style="font-style:normal;font-variant:normal;font-weight:400;font-stretch:normal;font-size:28.8248px;line-height:.95;font-family:saxMono;-inkscape-font-specification:saxMono;font-variant-ligatures:normal;font-variant-caps:normal;font-variant-numeric:normal;font-feature-settings:normal;text-align:center;letter-spacing:0;word-spacing:0;writing-mode:lr-tb;text-anchor:middle;fill:#333;fill-opacity:1;stroke:none;stroke-width:3.6031"><path d="M15.809 26.063V10.54h-2.787q-1.056 0-1.056-.915 0-.929 1.056-.929h3.744q.957 0 .957.93v16.438h2.955q1.084 0 1.084.986 0 .872-1.084.872h-8.402q-1.084 0-1.084-.929t1.084-.929zM33.346 24.276h-6.432q-.873 0-.873-.648 0-.351.324-1.337l4.152-12.68q.239-.733.323-.874.254-.422.732-.422.873 0 .873.83 0 .198-.14.648L28.32 22.418h5.025v-7.811q0-1.084.97-1.084.944 0 .944 1.084v7.811h2.012q1.07 0 1.07.929t-1.07.929H35.26v2.941q0 1.084-.957 1.084t-.957-1.084zM42.044 22.39v-8.163q0-2.604 1.59-4.25 1.605-1.662 4.406-1.662 2.8 0 4.363 1.661 1.562 1.66 1.562 4.25v8.164q0 2.871-1.52 4.391t-4.405 1.52q-2.801 0-4.406-1.562-1.59-1.562-1.59-4.35zm9.993 0v-8.163q0-1.788-1.084-2.914-1.07-1.14-3.054-1.14-3.927 0-3.927 4.054v8.163q0 1.928 1.07 2.998 1.07 1.07 3.012 1.07 3.983 0 3.983-4.068zM15.809 53.447V37.923h-2.787q-1.056 0-1.056-.915 0-.93 1.056-.93h3.744q.957 0 .957.93v16.439h2.955q1.084 0 1.084.985 0 .873-1.084.873h-8.402q-1.084 0-1.084-.93 0-.928 1.084-.928zM28.504 46.114q1.562-1.773 4.124-1.773 2.364 0 3.94 1.632 1.591 1.619 1.591 3.997 0 2.464-1.689 4.096-1.689 1.619-4.166 1.619-2.97 0-4.574-1.943-1.492-1.801-1.492-4.813 0-6.376 5.334-10.894 2.759-2.336 4.124-2.336.732 0 .732.774 0 .408-.38.718-.056.042-.746.45-5.644 3.336-6.798 8.473zm3.8.099q-1.787 0-2.927.943-1.225.999-1.225 2.758 0 1.745 1.14 2.843 1.154 1.084 2.914 1.084 1.745 0 2.885-1.056Q36.23 51.73 36.23 50q0-1.717-1.098-2.745-1.098-1.041-2.829-1.041zM42.044 49.773V41.61q0-2.604 1.59-4.25 1.605-1.661 4.406-1.661 2.8 0 4.363 1.66 1.562 1.661 1.562 4.251v8.163q0 2.872-1.52 4.392-1.52 1.52-4.405 1.52-2.801 0-4.406-1.563-1.59-1.562-1.59-4.349zm9.993 0V41.61q0-1.787-1.084-2.913-1.07-1.14-3.054-1.14-3.927 0-3.927 4.053v8.163q0 1.929 1.07 2.998 1.07 1.07 3.012 1.07 3.983 0 3.983-4.068z" style="text-align:center;text-anchor:middle;stroke-width:3.6031" transform="translate(-.579)"/></g></svg>