<svg xmlns="http://www.w3.org/2000/svg" width="64" height="64"><path d="M1 1h62v62H1z" style="fill:#f2f2f2;fill-opacity:1;stroke:#333;stroke-width:2.00014;stroke-miterlimit:4;stroke-dasharray:none;stroke-opacity:1"/><path d="M15 32h34" style="fill:none;stroke:#333;stroke-width:2;stroke-linecap:butt;stroke-linejoin:miter;stroke-miterlimit:4;stroke-dasharray:none;stroke-opacity:1"/><g aria-label="1535" style="font-style:normal;font-variant:normal;font-weight:400;font-stretch:normal;font-size:28.8248px;line-height:.95;font-family:saxMono;-inkscape-font-specification:saxMono;font-variant-ligatures:normal;font-variant-caps:normal;font-variant-numeric:normal;font-feature-settings:normal;text-align:center;letter-spacing:0;word-spacing:0;writing-mode:lr-tb;text-anchor:middle;fill:#333;fill-opacity:1;stroke:none;stroke-width:3.6031"><path d="M23.712 26.063V10.54h-2.787q-1.056 0-1.056-.915 0-.929 1.056-.929h3.744q.957 0 .957.93v16.438h2.955q1.084 0 1.084.986 0 .872-1.084.872H20.18q-1.084 0-1.084-.929t1.084-.929zM37.448 15.592q1.844-.83 3.195-.83 2.28 0 3.772 1.604 1.45 1.562 1.45 3.856 0 3.829-3.688 6.109-3.166 1.97-7.22 1.97-1.013 0-1.013-.83t1.238-.943q3.378-.324 5.138-1.225 3.617-1.858 3.617-5.067 0-1.52-.859-2.561-.929-1.112-2.42-1.112-.958 0-2.407.62-1.436.619-1.844.619-.76 0-.718-1.084l.225-6.32q.028-.816.24-1.14.281-.563 1.041-.563h7.234q1.042 0 1.042.901 0 .394-.324.676-.31.267-.718.267h-6.77zM27.061 37.937h-7.318q-1.225 0-1.225-.943 0-.901 1.225-.901h9.021q1.098 0 1.098.746 0 .394-.267.718l-4.377 5.348q.408-.084.802-.084 1.858 0 2.941 1.168Q30.06 45.143 30.06 47q0 3.575-3.673 6.235-3.364 2.449-7.066 2.449-1.379 0-1.379-.83 0-.845 1.154-.845 2.125 0 3.842-.76 1.999-.873 3.463-2.393 1.745-1.801 1.745-3.687 0-1.028-.676-1.76-.661-.746-1.674-.746-.789 0-1.915.479-1.126.478-1.407.478-.662 0-.662-.802 0-.45.338-.858zM37.448 42.975q1.844-.83 3.195-.83 2.28 0 3.772 1.604 1.45 1.563 1.45 3.857 0 3.828-3.688 6.108-3.166 1.97-7.22 1.97-1.013 0-1.013-.83t1.238-.943q3.378-.323 5.138-1.224 3.617-1.858 3.617-5.067 0-1.52-.859-2.562-.929-1.111-2.42-1.111-.958 0-2.407.619-1.436.62-1.844.62-.76 0-.718-1.085l.225-6.32q.028-.815.24-1.14.281-.562 1.041-.562h7.234q1.042 0 1.042.9 0 .395-.324.676-.31.268-.718.268h-6.77z" style="text-align:center;text-anchor:middle;stroke-width:3.6031" transform="translate(.097)"/></g></svg>