<svg xmlns="http://www.w3.org/2000/svg" width="64" height="64"><path d="M3 3h58v58H3z" style="fill:#f2f2f2;fill-opacity:1;stroke:#333;stroke-width:5.99978;stroke-miterlimit:4;stroke-dasharray:none;stroke-opacity:1"/><g aria-label="4 5" style="font-style:normal;font-weight:400;font-size:21.5713px;line-height:1.25;font-family:sans-serif;text-align:center;letter-spacing:0;word-spacing:0;text-anchor:middle;fill:#333;fill-opacity:1;stroke:none;stroke-width:.539282"><path d="M20.614 22.595H15.8q-.653 0-.653-.484 0-.263.243-1l3.107-9.49q.179-.549.242-.654.19-.316.548-.316.653 0 .653.622 0 .147-.105.484l-2.981 9.448h3.76v-5.846q0-.81.727-.81.705 0 .705.81v5.846h1.507q.8 0 .8.695t-.8.695h-1.507v2.202q0 .81-.716.81t-.716-.81zM17.77 43.838q1.38-.622 2.391-.622 1.706 0 2.823 1.201 1.085 1.17 1.085 2.886 0 2.865-2.76 4.571-2.37 1.475-5.403 1.475-.759 0-.759-.622 0-.621.927-.705 2.528-.242 3.845-.917 2.707-1.39 2.707-3.791 0-1.138-.643-1.917-.695-.832-1.811-.832-.717 0-1.801.463-1.075.463-1.38.463-.57 0-.537-.81l.168-4.73q.021-.61.18-.853.21-.421.779-.421h5.413q.78 0 .78.674 0 .295-.242.505-.232.2-.538.2h-5.066z" style="font-style:normal;font-variant:normal;font-weight:400;font-stretch:normal;font-family:saxMono;-inkscape-font-specification:saxMono;text-align:center;text-anchor:middle;stroke-width:.539282"/></g><g aria-label="V" style="font-style:normal;font-weight:400;font-size:21.5713px;line-height:1.25;font-family:sans-serif;text-align:center;letter-spacing:0;word-spacing:0;text-anchor:middle;fill:#333;fill-opacity:1;stroke:none;stroke-width:.539282"><path d="m42.13 36.75 3.707-11.638q.19-.59.685-.59.684 0 .684.59 0 .2-.073.431l-4.33 13.472q-.147.463-.684.463t-.685-.463l-4.36-13.472Q37 25.312 37 25.112q0-.59.674-.59.474 0 .664.59z" style="font-style:normal;font-variant:normal;font-weight:400;font-stretch:normal;font-family:saxMono;-inkscape-font-specification:saxMono;text-align:center;text-anchor:middle;stroke-width:.539282"/></g></svg>