<svg xmlns="http://www.w3.org/2000/svg" width="128" height="128"><path fill="none" d="M0 0h128v128H0z" style="fill:#f2f2f2;fill-opacity:0;stroke:none;stroke-width:9.14344"/><path d="M39.355 55.855a7.5 7.5 0 1 1-14.999-.001 7.5 7.5 0 0 1 15 .001Zm0 0" style="fill-rule:nonzero;fill:#f2f2f2;fill-opacity:1;stroke-width:.999935;stroke-linecap:round;stroke-linejoin:round;stroke:#333;stroke-opacity:1;stroke-miterlimit:4" transform="scale(2)"/><path d="m60.016 108.176 2.476-7.781c.086-.262.238-.395.457-.395.309 0 .461.133.461.395 0 .09-.02.183-.05.289l-2.895 9.007c-.067.207-.219.309-.457.309-.238 0-.395-.102-.457-.309l-2.918-9.007a1.011 1.011 0 0 1-.047-.29c0-.261.148-.394.45-.394.21 0 .359.133.444.395ZM65.746 108.879h5.063c.406 0 .605.16.605.473 0 .304-.2.457-.605.457h-5.52a.543.543 0 0 1-.344-.114c-.105-.078-.156-.203-.156-.37v-8.669c0-.437.16-.656.48-.656.317 0 .477.23.477.695ZM65.875 121.016h-3.813l-.542 2.695c-.036.187-.176.281-.415.281-.332 0-.492-.129-.472-.394.015-.184.258-1.446.726-3.793.43-2.137.723-3.54.88-4.2.218-1.07.804-1.605 1.757-1.605.953 0 1.54.535 1.762 1.605.289 1.375.582 2.75.87 4.122.493 2.347.74 3.613.74 3.793 0 .32-.165.48-.5.48-.263 0-.419-.113-.466-.344Zm-3.652-.93h3.468l-.78-3.961c-.153-.797-.474-1.195-.962-1.195-.293 0-.511.11-.664.328-.12.183-.222.496-.308.937Zm0 0" style="stroke:none;fill-rule:nonzero;fill:#333;fill-opacity:1"/></svg>