<svg xmlns="http://www.w3.org/2000/svg" width="64" height="64"><path d="M1 1h62v62H1z" style="fill:#f2f2f2;fill-opacity:1;stroke:#333;stroke-width:2.00014;stroke-miterlimit:4;stroke-dasharray:none;stroke-opacity:1"/><path d="M15 32h34" style="fill:none;stroke:#333;stroke-width:2;stroke-linecap:butt;stroke-linejoin:miter;stroke-miterlimit:4;stroke-dasharray:none;stroke-opacity:1"/><g aria-label="6040" style="font-style:normal;font-variant:normal;font-weight:400;font-stretch:normal;font-size:28.8248px;line-height:.95;font-family:saxMono;-inkscape-font-specification:saxMono;font-variant-ligatures:normal;font-variant-caps:normal;font-variant-numeric:normal;font-feature-settings:normal;text-align:center;letter-spacing:0;word-spacing:0;writing-mode:lr-tb;text-anchor:middle;fill:#333;fill-opacity:1;stroke:none;stroke-width:3.6031"><path d="M20.601 18.73q1.562-1.773 4.124-1.773 2.364 0 3.94 1.633 1.591 1.618 1.591 3.997 0 2.463-1.689 4.096-1.689 1.618-4.166 1.618-2.97 0-4.574-1.942-1.492-1.802-1.492-4.814 0-6.375 5.334-10.893 2.759-2.337 4.124-2.337.732 0 .732.774 0 .409-.38.718-.056.042-.746.45-5.644 3.336-6.798 8.473zm3.8.099q-1.787 0-2.927.943-1.225 1-1.225 2.759 0 1.745 1.14 2.843 1.154 1.083 2.914 1.083 1.745 0 2.885-1.055 1.14-1.056 1.14-2.787 0-1.717-1.098-2.744-1.098-1.042-2.829-1.042zM34.14 22.39v-8.163q0-2.604 1.591-4.25 1.605-1.662 4.406-1.662 2.8 0 4.363 1.661 1.562 1.66 1.562 4.25v8.164q0 2.871-1.52 4.391t-4.405 1.52q-2.801 0-4.406-1.562-1.59-1.562-1.59-4.35zm9.994 0v-8.163q0-1.788-1.084-2.914-1.07-1.14-3.054-1.14-3.927 0-3.927 4.054v8.163q0 1.928 1.07 2.998 1.07 1.07 3.012 1.07 3.983 0 3.983-4.068zM25.443 51.66H19.01q-.873 0-.873-.648 0-.352.324-1.337l4.152-12.681q.239-.732.323-.873.254-.422.732-.422.873 0 .873.83 0 .197-.14.648l-3.984 12.625h5.025V41.99q0-1.084.97-1.084.944 0 .944 1.084v7.812h2.013q1.07 0 1.07.928 0 .93-1.07.93h-2.013V54.6q0 1.084-.957 1.084t-.957-1.084zM34.14 49.773V41.61q0-2.604 1.591-4.25 1.605-1.661 4.406-1.661 2.8 0 4.363 1.66 1.562 1.661 1.562 4.251v8.163q0 2.872-1.52 4.392-1.52 1.52-4.405 1.52-2.801 0-4.406-1.563-1.59-1.562-1.59-4.349zm9.994 0V41.61q0-1.787-1.084-2.913-1.07-1.14-3.054-1.14-3.927 0-3.927 4.053v8.163q0 1.929 1.07 2.998 1.07 1.07 3.012 1.07 3.983 0 3.983-4.068z" style="text-align:center;text-anchor:middle;stroke-width:3.6031" transform="translate(-.1)"/></g></svg>