<?xml version="1.0" encoding="UTF-8" standalone="no"?>
<svg
   xmlns:dc="http://purl.org/dc/elements/1.1/"
   xmlns:cc="http://creativecommons.org/ns#"
   xmlns:rdf="http://www.w3.org/1999/02/22-rdf-syntax-ns#"
   xmlns:svg="http://www.w3.org/2000/svg"
   xmlns="http://www.w3.org/2000/svg"
   id="svg2"
   version="1.1"
   width="64"
   height="64">
  <metadata
     id="metadata8">
    <rdf:RDF>
      <cc:Work
         rdf:about="">
        <dc:format>image/svg+xml</dc:format>
        <dc:type
           rdf:resource="http://purl.org/dc/dcmitype/StillImage" />
        <dc:title />
      </cc:Work>
    </rdf:RDF>
  </metadata>
  <defs
     id="defs6" />
  <rect
     style="fill:#f2f2f2;fill-opacity:0;stroke-width:6.4;stroke-linecap:round;stroke-linejoin:round;paint-order:markers stroke fill;stop-color:#333333"
     id="rect832"
     width="64"
     height="64"
     x="0"
     y="0" />
  <path
     style="font-style:normal;font-variant:normal;font-weight:normal;font-stretch:normal;font-size:30px;line-height:1.25;font-family:Roboto;font-variant-ligatures:normal;font-variant-caps:normal;font-variant-numeric:normal;font-feature-settings:normal;text-align:start;letter-spacing:0px;word-spacing:0px;writing-mode:lr-tb;text-anchor:start;fill:#f2f2f2;fill-opacity:1;stroke:#333333;stroke-width:1.96876;stroke-linecap:butt;stroke-linejoin:miter;stroke-miterlimit:4;stroke-dasharray:none;stroke-opacity:1"
     d="m 0.98438,1 h 62.03124 l 0,36.573015 c 0,33.923473 -62.03124,33.923473 -62.03124,0 z"
     id="path839" />
  <path
     style="fill:none;stroke:#333333;stroke-width:2;stroke-linecap:butt;stroke-linejoin:miter;stroke-miterlimit:4;stroke-dasharray:none;stroke-opacity:1"
     d="M 13.166865,32 H 50"
     id="path1392" />
  <g
     transform="translate(-0.578559)"
     style="font-style:normal;font-variant:normal;font-weight:normal;font-stretch:normal;font-size:28.8248px;line-height:0.95;font-family:saxMono;-inkscape-font-specification:saxMono;font-variant-ligatures:normal;font-variant-caps:normal;font-variant-numeric:normal;font-feature-settings:normal;text-align:center;letter-spacing:0px;word-spacing:0px;writing-mode:lr-tb;text-anchor:middle;fill:#333333;fill-opacity:1;stroke:none;stroke-width:3.6031"
     id="texte"
     aria-label="100110">
    <path
       id="path13"
       style="text-align:center;text-anchor:middle;stroke-width:3.6031"
       d="M 15.808662,26.06333 V 10.539036 H 13.02189 q -1.055596,0 -1.055596,-0.9148497 0,-0.9289242 1.055596,-0.9289242 h 3.743846 q 0.957073,0 0.957073,0.9289242 V 26.06333 h 2.955668 q 1.083745,0 1.083745,0.985223 0,0.872626 -1.083745,0.872626 h -8.402542 q -1.083745,0 -1.083745,-0.928924 0,-0.928925 1.083745,-0.928925 z" />
    <path
       id="path15"
       style="text-align:center;text-anchor:middle;stroke-width:3.6031"
       d="m 26.237948,22.389857 v -8.163273 q 0,-2.603803 1.59043,-4.2505324 1.604506,-1.660804 4.405353,-1.660804 2.800848,0 4.363129,1.660804 1.562282,1.6608034 1.562282,4.2505324 v 8.163273 q 0,2.871221 -1.520058,4.391278 -1.520058,1.520058 -4.405353,1.520058 -2.800847,0 -4.405353,-1.562281 -1.59043,-1.562282 -1.59043,-4.349055 z m 9.992972,0 v -8.163273 q 0,-1.787476 -1.083745,-2.913445 -1.06967,-1.140043 -3.05419,-1.140043 -3.926816,0 -3.926816,4.053488 v 8.163273 q 0,1.928222 1.06967,2.997892 1.069671,1.06967 3.011967,1.06967 3.983114,0 3.983114,-4.067562 z" />
    <path
       id="path17"
       style="text-align:center;text-anchor:middle;stroke-width:3.6031"
       d="m 42.043734,22.389857 v -8.163273 q 0,-2.603803 1.590431,-4.2505324 1.604505,-1.660804 4.405352,-1.660804 2.800848,0 4.363129,1.660804 1.562282,1.6608034 1.562282,4.2505324 v 8.163273 q 0,2.871221 -1.520058,4.391278 -1.520058,1.520058 -4.405353,1.520058 -2.800847,0 -4.405352,-1.562281 -1.590431,-1.562282 -1.590431,-4.349055 z m 9.992972,0 v -8.163273 q 0,-1.787476 -1.083744,-2.913445 -1.069671,-1.140043 -3.054191,-1.140043 -3.926816,0 -3.926816,4.053488 v 8.163273 q 0,1.928222 1.069671,2.997892 1.06967,1.06967 3.011966,1.06967 3.983114,0 3.983114,-4.067562 z" />
    <path
       id="path19"
       style="text-align:center;text-anchor:middle;stroke-width:3.6031"
       d="M 15.808662,53.446889 V 37.922594 H 13.02189 q -1.055596,0 -1.055596,-0.914849 0,-0.928925 1.055596,-0.928925 h 3.743846 q 0.957073,0 0.957073,0.928925 v 16.439144 h 2.955668 q 1.083745,0 1.083745,0.985222 0,0.872626 -1.083745,0.872626 h -8.402542 q -1.083745,0 -1.083745,-0.928924 0,-0.928924 1.083745,-0.928924 z" />
    <path
       id="path21"
       style="text-align:center;text-anchor:middle;stroke-width:3.6031"
       d="M 31.614448,53.446889 V 37.922594 h -2.786772 q -1.055596,0 -1.055596,-0.914849 0,-0.928925 1.055596,-0.928925 h 3.743846 q 0.957073,0 0.957073,0.928925 v 16.439144 h 2.955668 q 1.083745,0 1.083745,0.985222 0,0.872626 -1.083745,0.872626 h -8.402542 q -1.083745,0 -1.083745,-0.928924 0,-0.928924 1.083745,-0.928924 z" />
    <path
       id="path23"
       style="text-align:center;text-anchor:middle;stroke-width:3.6031"
       d="m 42.043734,49.773416 v -8.163274 q 0,-2.603803 1.590431,-4.250532 1.604505,-1.660804 4.405352,-1.660804 2.800848,0 4.363129,1.660804 1.562282,1.660804 1.562282,4.250532 v 8.163274 q 0,2.87122 -1.520058,4.391278 -1.520058,1.520058 -4.405353,1.520058 -2.800847,0 -4.405352,-1.562282 -1.590431,-1.562282 -1.590431,-4.349054 z m 9.992972,0 v -8.163274 q 0,-1.787475 -1.083744,-2.913444 -1.069671,-1.140044 -3.054191,-1.140044 -3.926816,0 -3.926816,4.053488 v 8.163274 q 0,1.928221 1.069671,2.997891 1.06967,1.069671 3.011966,1.069671 3.983114,0 3.983114,-4.067562 z" />
  </g>
</svg>
