<svg xmlns="http://www.w3.org/2000/svg" width="64" height="64"><path d="M3 3h58v58H3z" style="fill:#f2f2f2;fill-opacity:1;stroke:#333;stroke-width:5.99978;stroke-miterlimit:4;stroke-dasharray:none;stroke-opacity:1"/><g aria-label="12" style="font-style:normal;font-variant:normal;font-weight:400;font-stretch:normal;font-size:28.8248px;line-height:1.25;font-family:saxMono;-inkscape-font-specification:saxMono;letter-spacing:0;word-spacing:0;fill:#333;fill-opacity:1;stroke:none;stroke-width:.720619"><path d="M.003 39.748V24.224h-2.787q-1.055 0-1.055-.915 0-.929 1.055-.929H.96q.957 0 .957.929v16.44h2.956q1.083 0 1.083.984 0 .873-1.083.873H-3.53q-1.084 0-1.084-.929t1.084-.929zM13.205 39.748h7.797q1.351 0 1.351.943 0 .915-1.097.915h-9.782q-1.042 0-1.042-.816 0-.366.394-.845L19.13 29.91q1.295-1.562 1.295-2.928 0-1.506-1.21-2.364-1.084-.76-2.646-.76-1.957 0-3.012 1.224-.507.591-1.197 2.28-.492 1.225-1.083 1.225-.845 0-.845-1 0-1.14.746-2.49Q12.895 22 16.668 22q2.35 0 3.94 1.196 1.745 1.323 1.745 3.603 0 1.97-1.97 4.335z" style="font-style:normal;font-variant:normal;font-weight:400;font-stretch:normal;font-size:28.8248px;line-height:1.25;font-family:saxMono;-inkscape-font-specification:saxMono;letter-spacing:0;word-spacing:0;fill:#333;fill-opacity:1;stroke:none;stroke-width:.720619" transform="translate(23.13)"/></g></svg>