<svg xmlns="http://www.w3.org/2000/svg" width="64" height="64"><path d="M3 3h58v58H3z" style="fill:#f2f2f2;fill-opacity:1;stroke:#333;stroke-width:5.99978;stroke-miterlimit:4;stroke-dasharray:none;stroke-opacity:1"/><g aria-label="G" style="font-style:normal;font-variant:normal;font-weight:400;font-stretch:normal;font-size:51.4204px;line-height:1.25;font-family:Roboto;-inkscape-font-specification:Roboto;font-variant-ligatures:normal;font-variant-caps:normal;font-variant-numeric:normal;font-feature-settings:normal;text-align:start;letter-spacing:0;word-spacing:0;writing-mode:lr-tb;text-anchor:start;fill:#333;fill-opacity:1;stroke:none;stroke-width:6.42755"><path d="M40.31 37.499h-4.62q-2.058 0-2.058-1.632 0-1.683 2.059-1.683h6.252q1.707 0 1.707 2.06v11.775q0 1.807-1.557 1.807-1.607 0-1.607-1.305v-2.662q-3.188 3.967-8.712 3.967-4.996 0-8.135-2.736-3.289-2.888-3.289-7.809V25.196q0-11.022 11.123-11.022 8.034 0 10.947 5.699.904 1.783.904 3.39 0 1.858-1.758 1.858-1.08 0-1.783-1.984-.954-2.661-1.958-3.666-1.958-1.983-6.076-1.983-7.96 0-7.96 7.708V39.28q0 3.64 2.486 5.549 2.235 1.707 5.976 1.707 3.64 0 5.775-1.782 2.285-1.883 2.285-5.474z" style="font-style:normal;font-variant:normal;font-weight:400;font-stretch:normal;font-family:saxMono;-inkscape-font-specification:saxMono;stroke-width:6.42755"/></g></svg>