<svg xmlns="http://www.w3.org/2000/svg" width="64" height="64"><path d="M1 1h62v62H1z" style="fill:#f2f2f2;fill-opacity:1;stroke:#333;stroke-width:2.00014;stroke-miterlimit:4;stroke-dasharray:none;stroke-opacity:1"/><g aria-label="55" style="font-style:normal;font-weight:400;font-size:36.031px;line-height:1.25;font-family:saxMono;letter-spacing:0;word-spacing:0;fill:#333;fill-opacity:1;stroke:none;stroke-width:4.8718"><path d="M-10.583 28.596q2.305-1.038 3.994-1.038 2.85 0 4.715 2.005 1.812 1.953 1.812 4.82 0 4.786-4.61 7.636-3.958 2.463-9.025 2.463-1.266 0-1.266-1.038t1.548-1.178q4.222-.405 6.421-1.53 4.522-2.323 4.522-6.335 0-1.9-1.073-3.201-1.161-1.39-3.026-1.39-1.197 0-3.009.774-1.794.774-2.305.774-.95 0-.897-1.355l.282-7.9q.035-1.02.299-1.424.352-.704 1.302-.704h9.043q1.302 0 1.302 1.126 0 .493-.405.844-.387.335-.897.335h-8.463zM9.175 28.596q2.304-1.038 3.993-1.038 2.85 0 4.715 2.005 1.812 1.953 1.812 4.82 0 4.786-4.609 7.636-3.959 2.463-9.025 2.463-1.267 0-1.267-1.038t1.548-1.178q4.222-.405 6.422-1.53 4.521-2.323 4.521-6.335 0-1.9-1.073-3.201-1.161-1.39-3.026-1.39-1.196 0-3.009.774-1.794.774-2.304.774-.95 0-.898-1.355l.282-7.9q.035-1.02.299-1.424.352-.704 1.302-.704H17.9q1.302 0 1.302 1.126 0 .493-.405.844-.387.335-.897.335H9.439Z" style="font-style:normal;font-weight:400;font-size:36.031px;line-height:1.25;font-family:saxMono;letter-spacing:0;word-spacing:0;fill:#333;fill-opacity:1;stroke:none;stroke-width:4.8718" transform="translate(29.634)"/></g></svg>