<svg xmlns="http://www.w3.org/2000/svg" width="64" height="64" class="tn-svg-line tn-svg-line--RER_D"><path fill="#00814f" d="M49.597 64H14.403C6.456 64 0 57.544 0 49.597V14.403C0 6.456 6.456 0 14.403 0h35.194C57.544 0 64 6.456 64 14.403v35.194C64 57.544 57.544 64 49.597 64"/><path fill="#fff" d="M28.4 48.92h-9.55V15.012h9.888c9.888 0 20.543 2.213 20.543 16.187 0 14.831-10.52 17.721-20.882 17.721m1.377-27.993h-3.454v22.124h3.702c6.524 0 11.513-2.506 11.513-11.378 0-9.504-7.156-10.746-11.761-10.746" class="svg-line-number"/></svg>