<svg xmlns="http://www.w3.org/2000/svg" width="64" height="64" class="tn-svg-line tn-svg-line--RER_A"><path fill="#e3051c" d="M49.597 64H14.403C6.456 64 0 57.544 0 49.597V14.403C0 6.456 6.456 0 14.403 0h35.194C57.544 0 64 6.456 64 14.403v35.194C63.977 57.544 57.544 64 49.597 64" style="stroke-width:1.33333"/><path fill="#fff" d="m40.048 48.92-2.123-6.434H25.396l-2.122 6.434H15.87l12.01-33.93h8.104l12.1 33.93ZM33.23 27.993c-.722-2.167-1.287-4.944-1.445-6.186h-.09c-.136 1.242-.813 4.041-1.535 6.186l-2.89 8.872h8.85z" class="svg-line-number" style="stroke-width:1.33333"/></svg>