<svg xmlns="http://www.w3.org/2000/svg" width="64" height="64" class="tn-svg-line tn-svg-line--RER_C"><path fill="#ffce00" d="M49.597 64H14.403C6.456 64 0 57.544 0 49.597V14.403C0 6.456 6.456 0 14.403 0h35.194C57.544 0 64 6.456 64 14.403v35.194C64 57.544 57.566 64 49.597 64"/><path d="M33.478 49.733c-8.601 0-16.796-5.667-16.796-17.383 0-10.136 5.915-18.24 16.796-18.24 4.176 0 7.247.857 9.707 1.963l-2.438 6.186c-2.212-1.242-4.695-1.829-6.863-1.829-5.192 0-9.413 3.41-9.413 11.559 0 7.788 5.079 11.378 9.978 11.378 2.686 0 5.08-.813 6.772-1.829l2.01 5.802c-2.597 1.422-6.299 2.393-9.753 2.393" class="svg-line-number svg-line-number--inverted"/></svg>