<svg xmlns="http://www.w3.org/2000/svg" width="64" height="64" class="tn-svg-line tn-svg-line--RER_B"><path fill="#5291ce" d="M49.62 64H14.403C6.456 64 0 57.544 0 49.597V14.403C0 6.456 6.456 0 14.403 0h35.194C57.544 0 64 6.456 64 14.403v35.194C64 57.544 57.566 64 49.62 64"/><path fill="#fff" d="M31.22 48.92H18.873V15.012H31.74c6.344 0 12.28 1.739 12.28 8.601 0 3.5-2.776 6.14-5.417 6.615v.09c3.544.474 6.524 3.274 6.524 8.06.023 8.578-7.472 10.542-13.906 10.542m-1.15-28.241h-3.703v7.788h3.793c3.928 0 6.524-.632 6.524-3.838 0-3.115-2.303-3.95-6.614-3.95m.338 13.16h-4.04v9.46h4.424c4.74 0 6.614-1.49 6.614-5.08 0-3.747-3.589-4.38-6.998-4.38" class="svg-line-number"/></svg>