<svg xmlns="http://www.w3.org/2000/svg" width="64" height="64" class="tn-svg-line tn-svg-line--TRAM_T2 line-by-mode-item__svg-line"><path d="M23.93 24.26v20.22h-5.441V24.26h-7.585v-4.423h20.61v4.423zM37.113 44.48v-3.25c.632-2.866 3.454-5.484 6.728-8.35 1.648-1.421 3.431-3.204 3.431-5.596 0-2.122-1.4-3.905-4.086-3.905-2.167 0-3.657 1.58-4.267 2.235l-2.573-3.43c2.37-2.054 4.582-3.047 7.9-3.047 4.335 0 8.421 2.505 8.421 7.537 0 4.22-2.686 6.206-5.666 8.892-1.264 1.15-3.725 3.317-4.04 4.739h10.158v4.13H37.113Z" class="svg-line-number--black" style="stroke-width:1.33333"/><path fill="#c04191" d="M60.817 9.614H3.206A3.203 3.203 0 0 1 0 6.409V3.205A3.203 3.203 0 0 1 3.206 0h57.588A3.203 3.203 0 0 1 64 3.205v3.204a3.184 3.184 0 0 1-3.183 3.205M64 60.795v-3.204a3.203 3.203 0 0 0-3.206-3.205H3.206A3.203 3.203 0 0 0 0 57.591v3.204A3.203 3.203 0 0 0 3.206 64h57.588A3.203 3.203 0 0 0 64 60.795" style="stroke-width:1.33333"/></svg>