<svg xmlns="http://www.w3.org/2000/svg" width="64" height="64" class="tn-svg-line tn-svg-line--TRAM_T6 line-by-mode-item__svg-line"><path d="M23.41 24.26v20.22h-5.44V24.26h-7.586v-4.423h20.611v4.423zM45.15 45.066c-6.75 0-9.143-4.671-9.143-11.193 0-8.553 4.019-14.691 11.897-14.691 1.4 0 2.664.18 3.703.429l-.768 4.197c-.654-.27-1.964-.587-3.386-.587-3.454 0-5.96 2.754-6.321 7.718.835-.722 2.438-1.67 5.102-1.67 4.086 0 7.36 2.686 7.36 7.29 0 4.874-3.274 8.507-8.444 8.507m-.474-11.96c-1.58 0-2.822.587-3.318 1.354-.271.429-.271 1.4-.271 2.121 0 2.347 1.354 4.604 3.883 4.604 2.438 0 3.702-1.986 3.702-4.107-.023-2.302-1.558-3.972-3.996-3.972" class="svg-line-number--black" style="stroke-width:1.33333"/><path fill="#e3051c" d="M60.794 9.614H3.206A3.203 3.203 0 0 1 0 6.409V3.205A3.203 3.203 0 0 1 3.206 0h57.588A3.203 3.203 0 0 1 64 3.205v3.204a3.203 3.203 0 0 1-3.206 3.205M64 60.795v-3.204a3.203 3.203 0 0 0-3.206-3.205H3.206A3.203 3.203 0 0 0 0 57.591v3.204A3.203 3.203 0 0 0 3.206 64h57.588A3.217 3.217 0 0 0 64 60.795" style="stroke-width:1.33333"/></svg>