<svg xmlns="http://www.w3.org/2000/svg" width="64" height="64" class="tn-svg-line tn-svg-line--TRAM_T7 line-by-mode-item__svg-line"><path d="M23.613 24.26v20.22h-5.44V24.26h-7.586v-4.423h20.611v4.423zM44.744 44.48h-5.621c0-3.25.88-5.349 3.025-9.366l6.005-11.17H36.166v-4.13h17.247v4.017c-5.373 9.41-8.669 16.767-8.669 20.649" class="svg-line-number--black"/><path fill="#8d5e2a" d="M60.817 9.614H3.206A3.203 3.203 0 0 1 0 6.409V3.205A3.203 3.203 0 0 1 3.206 0h57.588A3.203 3.203 0 0 1 64 3.205v3.204a3.184 3.184 0 0 1-3.183 3.205M64 60.795v-3.204a3.203 3.203 0 0 0-3.206-3.205H3.206A3.203 3.203 0 0 0 0 57.591v3.204A3.203 3.203 0 0 0 3.206 64h57.588A3.203 3.203 0 0 0 64 60.795"/></svg>