<svg xmlns="http://www.w3.org/2000/svg" width="64" height="64" class="tn-svg-line tn-svg-line--TRAM_T10"><path d="M15.489 23.958v20.705h-5.356V23.958H2.667v-4.53h20.288v4.53zM35.022 44.64V24.813c-1.467 1.225-3.822 2.403-5.422 3.143l-1.645-3.86c2.534-1.108 5.6-2.795 8-4.69h4.222V44.64zM52.422 45.333c-7.31 0-8.755-7.51-8.755-13.333s1.578-13.333 8.91-13.333c7.334 0 8.756 7.51 8.756 13.333-.022 5.823-1.6 13.333-8.91 13.333m.067-22.414c-3.511 0-3.6 6.516-3.6 9.081 0 2.542.178 9.105 3.6 9.105 3.444 0 3.578-6.61 3.578-9.105 0-2.657-.112-9.081-3.578-9.081" class="svg-line-number--black" style="stroke-width:2.66667"/><path fill="#9f9825" d="M60.794 9.614H3.206A3.203 3.203 0 0 1 0 6.409V3.205A3.203 3.203 0 0 1 3.206 0h57.588A3.203 3.203 0 0 1 64 3.205v3.204a3.203 3.203 0 0 1-3.206 3.205M64 60.795v-3.204a3.203 3.203 0 0 0-3.206-3.205H3.206A3.203 3.203 0 0 0 0 57.591v3.204A3.203 3.203 0 0 0 3.206 64h57.588A3.217 3.217 0 0 0 64 60.795" style="stroke-width:2.66667"/></svg>