<svg xmlns="http://www.w3.org/2000/svg" width="64" height="64" class="tn-svg-line tn-svg-line--LIGNE_U"><path fill="#b90845" d="M49.597 64H14.403C6.456 64 0 57.543 0 49.597V14.403C0 6.456 6.456 0 14.403 0h35.194C57.544 0 64 6.456 64 14.403v35.194C63.977 57.543 57.544 64 49.597 64"/><path fill="#fff" d="M32.034 49.733c-9.888 0-14.651-4.56-14.651-13.68V15.034h7.495v20.792c0 4.47 1.964 7.833 7.291 7.833 5.283 0 7.112-3.364 7.112-7.833V15.035h7.291v21.017c.023 9.12-4.492 13.68-14.538 13.68" class="svg-line-number"/></svg>