<svg xmlns="http://www.w3.org/2000/svg" width="64" height="64" class="tn-svg-line tn-svg-line--TRAM_T8 line-by-mode-item__svg-line"><path d="M23.59 24.26v20.22h-5.44V24.26h-7.585v-4.424h20.61v4.423zM44.653 45.134c-5.486 0-8.601-3.272-8.601-7.018 0-3.273 1.851-5.349 4.221-6.567-2.122-1.332-3.454-3.002-3.454-5.552 0-4.084 3.703-6.905 7.924-6.905 4.335 0 7.924 2.12 7.924 6.363 0 2.302-1.196 4.266-3.499 5.665 2.257 1.083 4.267 3.182 4.267 6.431.022 4.65-3.703 7.583-8.782 7.583m-.406-11.87c-1.603.632-3.206 2.37-3.206 4.287 0 2.032 1.332 3.95 3.702 3.95 2.348 0 3.635-1.648 3.635-3.588-.023-2.235-2.032-3.589-4.131-4.65m.587-10.607c-1.92 0-3.138 1.196-3.138 2.889 0 2.03 2.031 3.272 3.59 3.95 1.286-.588 2.686-2.19 2.686-3.725 0-1.715-1.107-3.114-3.138-3.114" class="svg-line-number--black" style="stroke-width:1.33333"/><path fill="#9f9825" d="M60.794 9.614H3.206A3.203 3.203 0 0 1 0 6.409V3.205A3.203 3.203 0 0 1 3.206 0h57.588A3.203 3.203 0 0 1 64 3.205v3.204a3.19 3.19 0 0 1-3.206 3.205M64 60.795v-3.204a3.203 3.203 0 0 0-3.206-3.205H3.206A3.203 3.203 0 0 0 0 57.591v3.204A3.203 3.203 0 0 0 3.206 64h57.588A3.203 3.203 0 0 0 64 60.795" style="stroke-width:1.33333"/></svg>