<svg xmlns="http://www.w3.org/2000/svg" width="64" height="64" class="tn-svg-line tn-svg-line--TRAM_T9 line-by-mode-item__svg-line"><path d="M23.636 24.282v20.22h-5.44v-20.22H10.61v-4.423h20.61v4.423zM41.493 45.157c-1.4 0-2.664-.181-3.702-.43l.767-4.197c.655.271 1.964.587 3.387.587 3.453 0 5.96-2.753 6.32-7.718-.835.722-2.438 1.67-5.102 1.67-4.086 0-7.359-2.685-7.359-7.29 0-4.919 3.273-8.552 8.443-8.552 6.75 0 9.143 4.671 9.143 11.193.023 8.576-3.996 14.737-11.897 14.737m2.98-22.026c-2.438 0-3.702 1.986-3.702 4.13 0 2.302 1.535 3.972 3.973 3.972 1.58 0 2.822-.587 3.318-1.354.271-.43.271-1.4.271-2.122 0-2.37-1.354-4.626-3.86-4.626" class="svg-line-number--black" style="stroke-width:1.33333"/><path fill="#5291ce" d="M60.794 9.614H3.206A3.203 3.203 0 0 1 0 6.409V3.205A3.203 3.203 0 0 1 3.206 0h57.588A3.203 3.203 0 0 1 64 3.205v3.204a3.19 3.19 0 0 1-3.206 3.205M64 60.795v-3.204a3.203 3.203 0 0 0-3.206-3.205H3.206A3.203 3.203 0 0 0 0 57.591v3.204A3.203 3.203 0 0 0 3.206 64h57.588A3.203 3.203 0 0 0 64 60.795" style="stroke-width:1.33333"/></svg>