<svg xmlns="http://www.w3.org/2000/svg" width="64" height="64" class="tn-svg-line tn-svg-line--TRAM_T3A line-by-mode-item__svg-line"><path d="M35.42 45.111c-3.521 0-5.486-.88-7.133-1.85l1.918-3.814c1.039.722 2.754 1.602 4.854 1.602 2.867 0 4.65-1.67 4.65-3.768 0-2.821-2.167-3.814-4.673-3.814h-2.55v-4.085h2.573c2.416 0 3.905-1.263 3.905-3.137 0-1.58-1.196-3.001-3.77-3.001-2.28 0-3.77 1.083-4.582 1.783l-1.784-3.633c2.1-1.4 4.357-2.19 7.473-2.19 5.034 0 7.9 3.002 7.9 6.274 0 2.55-1.354 4.581-3.972 5.552v.067c2.731.52 4.786 2.618 4.786 6.071 0 4.333-3.883 7.943-9.595 7.943M58.401 39.673c-1.31 0-1.964-.812-2.19-1.918-1.151 1.376-2.235 2.053-4.154 2.053-2.483 0-4.153-1.782-4.153-4.174 0-3.814 3.995-4.559 7.11-4.559.588 0 .926-.023.926-.496v-.926c0-.993-.632-1.94-2.573-1.94-1.626 0-2.867.767-3.477 1.286l-1.287-2.64c1.558-.993 3.274-1.445 5.69-1.445 1.963 0 5.17.7 5.17 4.762v6.477c0 .496.044.925.496.925.158 0 .451-.09.61-.136l.202 2.393c-.587.112-1.512.338-2.37.338m-2.506-6.319c-.406-.022-.79-.022-1.106-.022-1.287 0-3.228.316-3.228 2.008 0 1.016.745 1.76 1.76 1.76.813 0 1.49-.27 1.965-.767.429-.451.61-.97.61-1.647ZM15.802 24.305v20.22h-5.44v-20.22H2.775v-4.423h20.61v4.423Z" class="svg-line-number--black" style="stroke-width:1.33333"/><path fill="#f28e42" d="M60.794 9.614H3.206A3.203 3.203 0 0 1 0 6.409V3.205A3.203 3.203 0 0 1 3.206 0h57.588A3.203 3.203 0 0 1 64 3.205v3.204a3.19 3.19 0 0 1-3.206 3.205M64 60.795v-3.204a3.203 3.203 0 0 0-3.206-3.205H3.206A3.203 3.203 0 0 0 0 57.591v3.204A3.203 3.203 0 0 0 3.206 64h57.588A3.203 3.203 0 0 0 64 60.795" style="stroke-width:1.33333"/></svg>