<svg xmlns="http://www.w3.org/2000/svg" width="64" height="64" class="tn-svg-line tn-svg-line--TRAM_T3B line-by-mode-item__svg-line"><path d="M35.42 45.111c-3.522 0-5.486-.88-7.134-1.85l1.92-3.814c1.038.722 2.753 1.602 4.853 1.602 2.867 0 4.65-1.67 4.65-3.768 0-2.821-2.167-3.814-4.673-3.814h-2.55v-4.085h2.573c2.415 0 3.905-1.263 3.905-3.137 0-1.58-1.196-3.001-3.77-3.001-2.28 0-3.77 1.083-4.582 1.783l-1.784-3.633c2.1-1.4 4.357-2.19 7.472-2.19 5.035 0 7.902 3.002 7.902 6.274 0 2.55-1.355 4.581-3.973 5.552v.067c2.731.52 4.785 2.618 4.785 6.071 0 4.333-3.883 7.943-9.594 7.943M54.947 39.853c-1.06 0-2.28-.428-3.002-1.083v.632h-3.59V19.927h3.703v7.266c.948-1.376 2.031-2.279 3.815-2.279 3.68 0 5.215 3.927 5.215 7.312 0 3.16-1.648 7.627-6.14 7.627m-.474-11.734c-.745 0-1.31.316-1.716.7-.632.608-.7.992-.7 1.805v4.761c0 .97.588 1.85 2.258 1.85 2.37 0 2.957-2.55 2.957-4.468-.022-1.895-.474-4.648-2.799-4.648M15.802 24.305v20.22h-5.44v-20.22H2.775v-4.423h20.61v4.423Z" class="svg-line-number--black" style="stroke-width:1.33333"/><path fill="#00814f" d="M60.794 9.614H3.206A3.203 3.203 0 0 1 0 6.409V3.205A3.203 3.203 0 0 1 3.206 0h57.588A3.203 3.203 0 0 1 64 3.205v3.204a3.19 3.19 0 0 1-3.206 3.205M64 60.795v-3.204a3.203 3.203 0 0 0-3.206-3.205H3.206A3.203 3.203 0 0 0 0 57.591v3.204A3.203 3.203 0 0 0 3.206 64h57.588A3.203 3.203 0 0 0 64 60.795" style="stroke-width:1.33333"/></svg>