<svg xmlns="http://www.w3.org/2000/svg" width="64" height="64" class="tn-svg-line tn-svg-line--LIGNE_J"><path fill="#d5c900" d="M49.62 64H14.403C6.456 64 0 57.544 0 49.597V14.403C0 6.456 6.456 0 14.403 0h35.194C57.544 0 64 6.456 64 14.403v35.194C64 57.544 57.566 64 49.62 64"/><path d="M26.367 49.304c-.564 0-1.151 0-1.738-.045l.203-5.576c.248 0 .52.045.768.045 3.973 0 6.298-2.303 6.298-7.495v-21.22h7.495v21.852c-.023 6.186-3.319 12.439-13.026 12.439" class="svg-line-number svg-line-number--inverted"/></svg>