<svg xmlns="http://www.w3.org/2000/svg" width="64" height="64" class="tn-svg-line tn-svg-line--LIGNE_R"><path fill="#f3a4ba" d="M49.597 64H14.403C6.456 64 0 57.544 0 49.597V14.403C0 6.456 6.456 0 14.403 0h35.194C57.544 0 64 6.456 64 14.403v35.194C64 57.544 57.544 64 49.597 64"/><path d="M39.213 48.92 32.44 37.407c-1.106-1.874-2.167-2.01-2.935-2.01h-2.212v13.546h-7.495V15.057h10.994c7.63 0 14.584 1.739 14.584 9.753 0 5.666-4.425 8.217-7.405 8.691 1.4 2.438 7.156 11.04 10.272 15.464h-9.03ZM30.95 20.837h-3.657v8.984h4.086c2.89 0 6.23-.857 6.23-4.605.023-3.905-3.679-4.38-6.659-4.38" class="svg-line-number svg-line-number--inverted"/></svg>