<svg xmlns="http://www.w3.org/2000/svg" width="64" height="64" class="tn-svg-line tn-svg-line--LIGNE_P"><path fill="#f28e42" d="M49.597 64H14.403C6.456 64 0 57.544 0 49.597V14.403C0 6.456 6.456 0 14.403 0h35.194C57.544 0 64 6.456 64 14.403v35.194C64 57.544 57.544 64 49.597 64"/><path d="M32.507 37h-3.454v11.897H21.56V15.012h10.407c7.833 0 14.538 2.122 14.538 10.52C46.527 35.375 38.332 37 32.507 37m-.09-16.163h-3.364v10.407h3.454c2.777 0 6.434-.858 6.434-5.238 0-4.605-4.018-5.17-6.524-5.17" class="svg-line-number svg-line-number--inverted"/></svg>