<svg xmlns="http://www.w3.org/2000/svg" width="64" height="64" class="tn-svg-line tn-svg-line--TRAM_T11"><path d="M18.285 24.282v20.22h-5.44v-20.22H5.26v-4.423h20.61v4.423zM38.151 44.48V25.117c-1.49 1.196-3.882 2.347-5.508 3.07l-1.67-3.77c2.573-1.083 5.689-2.73 8.127-4.58h4.289V44.48zM53.502 44.48V25.117c-1.49 1.196-3.883 2.347-5.508 3.07l-1.67-3.77c2.573-1.083 5.689-2.73 8.127-4.58h4.289V44.48z" class="svg-line-number--black" style="stroke-width:1.33333"/><path fill="#f28e42" d="M60.794 9.614H3.206A3.203 3.203 0 0 1 0 6.409V3.205A3.203 3.203 0 0 1 3.206 0h57.588A3.203 3.203 0 0 1 64 3.205v3.204a3.203 3.203 0 0 1-3.206 3.205M64 60.795v-3.204a3.203 3.203 0 0 0-3.206-3.205H3.206A3.203 3.203 0 0 0 0 57.591v3.204A3.203 3.203 0 0 0 3.206 64h57.588A3.217 3.217 0 0 0 64 60.795" style="stroke-width:1.33333"/></svg>