<svg xmlns="http://www.w3.org/2000/svg" width="64" height="64" class="tn-svg-line tn-svg-line--TRAM_T5 line-by-mode-item__svg-line"><path d="M23.907 24.26v20.22h-5.44V24.26h-7.585v-4.424h20.61v4.423zM43.75 45.066c-2.867 0-5.057-.632-6.953-1.783l1.986-3.836c1.355.948 2.754 1.58 4.673 1.58s4.335-1.151 4.335-4.04c0-1.782-1.197-4.22-5.734-4.287-1.4 0-3.048-.045-3.838-.045l.97-12.819h12.959v4.13h-8.872l-.361 4.672c.135 0 .451.045.7.045 6.727.316 9.458 4.13 9.458 7.808.046 4.694-3.702 8.575-9.323 8.575" class="svg-line-number--black"/><path fill="#662483" d="M60.794 9.614H3.206A3.203 3.203 0 0 1 0 6.409V3.205A3.203 3.203 0 0 1 3.206 0h57.588A3.203 3.203 0 0 1 64 3.205v3.204a3.203 3.203 0 0 1-3.206 3.205M64 60.795v-3.204a3.203 3.203 0 0 0-3.206-3.205H3.206A3.203 3.203 0 0 0 0 57.591v3.204A3.203 3.203 0 0 0 3.206 64h57.588A3.217 3.217 0 0 0 64 60.795"/></svg>