<svg xmlns="http://www.w3.org/2000/svg" width="64" height="64" class="tn-svg-line tn-svg-line--TRAM_T1 line-by-mode-item__svg-line"><path d="M25.96 24.26v20.22h-5.44V24.26h-7.585v-4.424h20.61v4.424zM45.827 44.48V25.117c-1.49 1.196-3.882 2.347-5.508 3.07l-1.67-3.77c2.573-1.083 5.688-2.73 8.127-4.58h4.289V44.48z" class="svg-line-number--black"/><path fill="#0064b0" d="M60.794 9.614H3.206A3.203 3.203 0 0 1 0 6.409V3.205A3.203 3.203 0 0 1 3.206 0h57.588A3.203 3.203 0 0 1 64 3.205v3.204c-.023 1.783-1.445 3.205-3.206 3.205M63.977 60.795v-3.204a3.203 3.203 0 0 0-3.205-3.205H3.206A3.203 3.203 0 0 0 0 57.591v3.204A3.203 3.203 0 0 0 3.206 64h57.588c1.761 0 3.183-1.444 3.183-3.205"/></svg>