<svg xmlns="http://www.w3.org/2000/svg" width="64" height="64" class="tn-svg-line tn-svg-line--TRAM_T4"><path d="M23.163 24.26v20.22h-5.441V24.26h-7.585v-4.424h20.61v4.424zM50.952 39.357v5.123h-4.876v-5.123H34.969v-4.581l9.572-14.94h6.433v15.685h2.89v3.836zm-4.876-15.188h-.068c-.113.43-.813 1.918-1.783 3.453l-5.035 7.899h6.886z" class="svg-line-number--black" style="stroke-width:1.33333"/><path fill="#e3b32a" d="M60.794 9.614H3.206A3.203 3.203 0 0 1 0 6.409V3.205A3.203 3.203 0 0 1 3.206 0h57.588A3.203 3.203 0 0 1 64 3.205v3.204a3.203 3.203 0 0 1-3.206 3.205M64 60.795v-3.204a3.203 3.203 0 0 0-3.206-3.205H3.206A3.203 3.203 0 0 0 0 57.591v3.204A3.203 3.203 0 0 0 3.206 64h57.588A3.217 3.217 0 0 0 64 60.795" style="stroke-width:1.33333"/></svg>