<?xml version="1.0" encoding="UTF-8" standalone="no"?>
<svg
   xmlns:dc="http://purl.org/dc/elements/1.1/"
   xmlns:cc="http://creativecommons.org/ns#"
   xmlns:rdf="http://www.w3.org/1999/02/22-rdf-syntax-ns#"
   xmlns:svg="http://www.w3.org/2000/svg"
   xmlns="http://www.w3.org/2000/svg"
   id="svg2"
   version="1.1"
   width="64"
   height="64">
  <metadata
     id="metadata8">
    <rdf:RDF>
      <cc:Work
         rdf:about="">
        <dc:format>image/svg+xml</dc:format>
        <dc:type
           rdf:resource="http://purl.org/dc/dcmitype/StillImage" />
        <dc:title></dc:title>
      </cc:Work>
    </rdf:RDF>
  </metadata>
  <defs
     id="defs6" />
  <rect
     style="fill:#ffffff;fill-opacity:0;stroke-width:6.4;stroke-linecap:round;stroke-linejoin:round;paint-order:markers stroke fill;stop-color:#000000"
     id="rect832"
     width="64"
     height="64"
     x="0"
     y="0" />
  <path
     style="font-style:normal;font-variant:normal;font-weight:normal;font-stretch:normal;font-size:30px;line-height:1.25;font-family:Roboto;font-variant-ligatures:normal;font-variant-caps:normal;font-variant-numeric:normal;font-feature-settings:normal;text-align:start;letter-spacing:0px;word-spacing:0px;writing-mode:lr-tb;text-anchor:start;fill:#ffffff;fill-opacity:1;stroke:#000000;stroke-width:1.96876;stroke-linecap:butt;stroke-linejoin:miter;stroke-miterlimit:4;stroke-dasharray:none;stroke-opacity:1"
     d="m 0.98438,63.01562 h 62.03124 c 0,0 0,-9.69238 0,-14.538571 0,-33.923335 -62.03124,-33.923335 -62.03124,0 0,4.846191 0,14.538571 0,14.538571 z"
     id="path839" />
  <g
     aria-label="55"
     id="text848"
     style="font-style:normal;font-variant:normal;font-weight:normal;font-stretch:normal;font-size:20px;line-height:1.25;font-family:Roboto;font-variant-ligatures:normal;font-variant-caps:normal;font-variant-numeric:normal;font-feature-settings:normal;text-align:start;letter-spacing:0px;word-spacing:0px;writing-mode:lr-tb;text-anchor:start;fill:#000000;fill-opacity:1;stroke:none;stroke-width:2.5">
    <g
       style="font-style:normal;font-weight:normal;font-size:29.4042px;line-height:1.25;font-family:sans-serif;letter-spacing:0px;word-spacing:0px;fill:#000000;fill-opacity:1;stroke:none;stroke-width:1.83776"
       id="text837"
       aria-label="55">
      <path
         id="path840"
         style="font-style:normal;font-variant:normal;font-weight:normal;font-stretch:normal;font-family:saxMono;-inkscape-font-specification:saxMono;stroke-width:1.83776"
         d="m 21.432865,42.035183 q 1.880835,-0.847094 3.259157,-0.847094 2.325918,0 3.847815,1.636757 1.478824,1.593685 1.478824,3.93396 0,3.905246 -3.76167,6.231164 -3.230442,2.010053 -7.365407,2.010053 -1.033742,0 -1.033742,-0.847094 0,-0.847094 1.263462,-0.961954 3.445805,-0.330223 5.240495,-1.249104 3.689882,-1.895193 3.689882,-5.168707 0,-1.550612 -0.875809,-2.613069 -0.947596,-1.134244 -2.469493,-1.134244 -0.976311,0 -2.455136,0.631731 -1.464467,0.631731 -1.880835,0.631731 -0.775306,0 -0.732233,-1.105529 l 0.22972,-6.446526 q 0.02871,-0.832736 0.244078,-1.162959 0.28715,-0.574301 1.062456,-0.574301 h 7.379765 q 1.062457,0 1.062457,0.918881 0,0.402011 -0.330223,0.689161 -0.315866,0.272793 -0.732234,0.272793 h -6.905967 z" />
      <path
         id="path842"
         style="font-style:normal;font-variant:normal;font-weight:normal;font-stretch:normal;font-family:saxMono;-inkscape-font-specification:saxMono;stroke-width:1.83776"
         d="m 37.55636,42.035183 q 1.880835,-0.847094 3.259157,-0.847094 2.325918,0 3.847815,1.636757 1.478824,1.593685 1.478824,3.93396 0,3.905246 -3.76167,6.231164 -3.230442,2.010053 -7.365407,2.010053 -1.033742,0 -1.033742,-0.847094 0,-0.847094 1.263462,-0.961954 3.445805,-0.330223 5.240495,-1.249104 3.689882,-1.895193 3.689882,-5.168707 0,-1.550612 -0.875809,-2.613069 -0.947596,-1.134244 -2.469493,-1.134244 -0.976311,0 -2.455136,0.631731 -1.464467,0.631731 -1.880835,0.631731 -0.775306,0 -0.732233,-1.105529 l 0.22972,-6.446526 q 0.02871,-0.832736 0.244078,-1.162959 0.28715,-0.574301 1.062456,-0.574301 h 7.379765 q 1.062457,0 1.062457,0.918881 0,0.402011 -0.330223,0.689161 -0.315866,0.272793 -0.732234,0.272793 h -6.905966 z" />
    </g>
  </g>
</svg>
