<?xml version="1.0" encoding="UTF-8" standalone="no"?>
<svg
   xmlns:dc="http://purl.org/dc/elements/1.1/"
   xmlns:cc="http://creativecommons.org/ns#"
   xmlns:rdf="http://www.w3.org/1999/02/22-rdf-syntax-ns#"
   xmlns:svg="http://www.w3.org/2000/svg"
   xmlns="http://www.w3.org/2000/svg"
   id="svg2"
   version="1.1"
   width="64"
   height="64">
  <metadata
     id="metadata8">
    <rdf:RDF>
      <cc:Work
         rdf:about="">
        <dc:format>image/svg+xml</dc:format>
        <dc:type
           rdf:resource="http://purl.org/dc/dcmitype/StillImage" />
        <dc:title />
      </cc:Work>
    </rdf:RDF>
  </metadata>
  <defs
     id="defs6" />
  <path
     style="font-style:normal;font-variant:normal;font-weight:normal;font-stretch:normal;font-size:30px;line-height:1.25;font-family:Roboto;font-variant-ligatures:normal;font-variant-caps:normal;font-variant-numeric:normal;font-feature-settings:normal;text-align:start;letter-spacing:0px;word-spacing:0px;writing-mode:lr-tb;text-anchor:start;fill:#000000;fill-opacity:1;stroke:none;stroke-width:1.17004px;stroke-linecap:butt;stroke-linejoin:miter;stroke-opacity:1"
     d="M 12,64 H 52 V 17.454546 L 32,3e-7 12,17.454546 Z"
     id="path836" />
  <path
     id="path858"
     d="M 14,62 H 50 V 18.615246 L 32,2.3856543 14,18.570828 Z"
     style="font-style:normal;font-variant:normal;font-weight:normal;font-stretch:normal;font-size:30px;line-height:1.25;font-family:Roboto;font-variant-ligatures:normal;font-variant-caps:normal;font-variant-numeric:normal;font-feature-settings:normal;text-align:start;letter-spacing:0px;word-spacing:0px;writing-mode:lr-tb;text-anchor:start;fill:#ffffff;fill-opacity:1;stroke:none;stroke-width:1.05304px;stroke-linecap:butt;stroke-linejoin:miter;stroke-opacity:1" />
  <g
     style="font-style:normal;font-variant:normal;font-weight:normal;font-stretch:normal;font-size:38px;line-height:1.25;font-family:Roboto;font-variant-ligatures:normal;font-variant-caps:normal;font-variant-numeric:normal;font-feature-settings:normal;text-align:start;letter-spacing:0px;word-spacing:0px;writing-mode:lr-tb;text-anchor:start;fill:#000000;fill-opacity:1;stroke:none;stroke-width:17.8125"
     id="text862"
     aria-label="5"
     transform="translate(-107.73191,-4.8418837)" />
  <g
     transform="translate(60.246307)"
     style="font-style:normal;font-variant:normal;font-weight:normal;font-stretch:normal;font-size:54.7671px;line-height:1.25;font-family:saxMono;-inkscape-font-specification:saxMono;font-variant-ligatures:normal;font-variant-caps:normal;font-variant-numeric:normal;font-feature-settings:normal;text-align:start;letter-spacing:0px;word-spacing:0px;writing-mode:lr-tb;text-anchor:start;fill:#000000;fill-opacity:1;stroke:none;stroke-width:6.84588"
     id="texte"
     aria-label="3">
    <path
       id="path11"
       style="font-style:normal;font-variant:normal;font-weight:normal;font-stretch:normal;font-size:54.7671px;line-height:1.25;font-family:saxMono;-inkscape-font-specification:saxMono;font-variant-ligatures:normal;font-variant-caps:normal;font-variant-numeric:normal;font-feature-settings:normal;text-align:start;letter-spacing:0px;word-spacing:0px;writing-mode:lr-tb;text-anchor:start;fill:#000000;fill-opacity:1;stroke:none;stroke-width:6.84588"
       d="m -22.429977,24.251937 h -13.90571 q -2.326532,0 -2.326532,-1.791697 0,-1.711472 2.326532,-1.711472 h 17.141461 q 2.085857,0 2.085857,1.417313 0,0.748769 -0.508093,1.363829 l -8.316684,10.161864 q 0.77551,-0.16045 1.524279,-0.16045 3.529911,0 5.589026,2.219565 2.085856,2.192823 2.085856,5.722734 0,6.792404 -6.979596,11.846595 -6.391278,4.653064 -13.424358,4.653064 -2.620691,0 -2.620691,-1.577763 0,-1.604505 2.192823,-1.604505 4.038004,0 7.300497,-1.444054 3.797329,-1.657989 6.578471,-4.546098 3.315976,-3.422943 3.315976,-7.006338 0,-1.952147 -1.283604,-3.342718 -1.256862,-1.417313 -3.182268,-1.417313 -1.497538,0 -3.636877,0.909219 -2.13934,0.90922 -2.674175,0.90922 -1.256862,0 -1.256862,-1.52428 0,-0.855736 0.641801,-1.631246 z" />
  </g>
</svg>
