<?xml version="1.0" encoding="UTF-8" standalone="no"?>
<svg
   xmlns:dc="http://purl.org/dc/elements/1.1/"
   xmlns:cc="http://creativecommons.org/ns#"
   xmlns:rdf="http://www.w3.org/1999/02/22-rdf-syntax-ns#"
   xmlns:svg="http://www.w3.org/2000/svg"
   xmlns="http://www.w3.org/2000/svg"
   id="svg2"
   version="1.1"
   width="64"
   height="64">
  <metadata
     id="metadata8">
    <rdf:RDF>
      <cc:Work
         rdf:about="">
        <dc:format>image/svg+xml</dc:format>
        <dc:type
           rdf:resource="http://purl.org/dc/dcmitype/StillImage" />
        <dc:title />
      </cc:Work>
    </rdf:RDF>
  </metadata>
  <defs
     id="defs6" />
  <rect
     y="1.00007"
     x="1.0000679"
     height="61.999863"
     width="61.999863"
     id="rect2989-6"
     style="fill:#ffffff;fill-opacity:1;stroke:#000000;stroke-width:2.00014;stroke-miterlimit:4;stroke-dasharray:none;stroke-opacity:1" />
  <g
     transform="translate(39.27508)"
     style="font-style:normal;font-weight:normal;font-size:36.031px;line-height:1.25;font-family:saxMono;letter-spacing:0px;word-spacing:0px;fill:#000000;fill-opacity:1;stroke:none;stroke-width:4.8718"
     id="texte"
     aria-label="4">
    <path
       id="path9"
       style="font-style:normal;font-weight:normal;font-size:36.031px;line-height:1.25;font-family:saxMono;letter-spacing:0px;word-spacing:0px;fill:#000000;fill-opacity:1;stroke:none;stroke-width:4.8718"
       d="m -5.8324325,39.450746 h -8.0401205 q -1.090782,0 -1.090782,-0.80929 0,-0.439832 0.404645,-1.67136 l 5.1900121,-15.851528 q 0.2990854,-0.914849 0.404645,-1.090782 0.3166786,-0.527798 0.9148495,-0.527798 1.0907822,0 1.0907822,1.038003 0,0.246305 -0.1759326,0.80929 l -4.9788932,15.781155 h 6.2807945 v -9.76426 q 0,-1.354681 1.213935,-1.354681 1.1787485,0 1.1787485,1.354681 v 9.76426 h 2.51583626 q 1.33708783,0 1.33708783,1.161155 0,1.161155 -1.33708783,1.161155 H -3.439749 v 3.676991 q 0,1.354682 -1.1963418,1.354682 -1.1963417,0 -1.1963417,-1.354682 z" />
  </g>
</svg>
