<?xml version="1.0" encoding="UTF-8" standalone="no"?>
<svg
   xmlns:dc="http://purl.org/dc/elements/1.1/"
   xmlns:cc="http://creativecommons.org/ns#"
   xmlns:rdf="http://www.w3.org/1999/02/22-rdf-syntax-ns#"
   xmlns:svg="http://www.w3.org/2000/svg"
   xmlns="http://www.w3.org/2000/svg"
   id="svg2"
   version="1.1"
   width="64"
   height="64">
  <metadata
     id="metadata8">
    <rdf:RDF>
      <cc:Work
         rdf:about="">
        <dc:format>image/svg+xml</dc:format>
        <dc:type
           rdf:resource="http://purl.org/dc/dcmitype/StillImage" />
        <dc:title />
      </cc:Work>
    </rdf:RDF>
  </metadata>
  <defs
     id="defs6" />
  <rect
     y="1.00007"
     x="1.0000679"
     height="61.999863"
     width="61.999863"
     id="rect2989-6"
     style="fill:#ffffff;fill-opacity:1;stroke:#000000;stroke-width:2.00014;stroke-miterlimit:4;stroke-dasharray:none;stroke-opacity:1" />
  <g
     transform="translate(29.757125)"
     style="font-style:normal;font-weight:normal;font-size:36.031px;line-height:1.25;font-family:saxMono;letter-spacing:0px;word-spacing:0px;fill:#000000;fill-opacity:1;stroke:none;stroke-width:4.8718"
     id="texte"
     aria-label="35">
    <path
       id="path9"
       style="font-style:normal;font-weight:normal;font-size:36.031px;line-height:1.25;font-family:saxMono;letter-spacing:0px;word-spacing:0px;fill:#000000;fill-opacity:1;stroke:none;stroke-width:4.8718"
       d="m -3.8092075,22.297317 h -9.1484955 q -1.530614,0 -1.530614,-1.178749 0,-1.125969 1.530614,-1.125969 h 11.27728 q 1.37227439,0 1.37227439,0.932443 0,0.492612 -0.33427195,0.897257 l -5.47150414,6.685439 q 0.5102046,-0.10556 1.0028159,-0.10556 2.3223104,0 3.6769915,1.460241 1.37227434,1.442647 1.37227434,3.764958 0,4.468688 -4.59184104,7.793814 -4.2047894,3.061228 -8.831817,3.061228 -1.72414,0 -1.72414,-1.038003 0,-1.055595 1.442648,-1.055595 2.656582,0 4.8029601,-0.950037 2.498243,-1.090782 4.3279421,-2.990854 2.1815644,-2.251937 2.1815644,-4.609434 0,-1.284308 -0.8444766,-2.199158 -0.8268832,-0.932443 -2.093598,-0.932443 -0.9852226,0 -2.3926835,0.598171 -1.4074608,0.598171 -1.7593261,0.598171 -0.8268834,0 -0.8268834,-1.002816 0,-0.562984 0.4222384,-1.073189 z" />
    <path
       id="path11"
       style="font-style:normal;font-weight:normal;font-size:36.031px;line-height:1.25;font-family:saxMono;letter-spacing:0px;word-spacing:0px;fill:#000000;fill-opacity:1;stroke:none;stroke-width:4.8718"
       d="m 9.1746197,28.595704 q 2.3047173,-1.038002 3.9936703,-1.038002 2.850108,0 4.714994,2.005631 1.812106,1.952852 1.812106,4.820554 0,4.785367 -4.609435,7.635475 -3.958483,2.463057 -9.0253425,2.463057 -1.2667147,0 -1.2667147,-1.038003 0,-1.038002 1.5482069,-1.178748 4.2223823,-0.404645 6.4215403,-1.530614 4.521468,-2.32231 4.521468,-6.333574 0,-1.900072 -1.073189,-3.201973 -1.161155,-1.389868 -3.026041,-1.389868 -1.196342,0 -3.008447,0.774103 -1.794513,0.774104 -2.3047176,0.774104 -0.9500361,0 -0.8972563,-1.354681 l 0.2814922,-7.899374 q 0.035187,-1.020409 0.2990854,-1.425054 0.3518652,-0.703731 1.3019013,-0.703731 h 9.042936 q 1.301901,0 1.301901,1.125969 0,0.492611 -0.404645,0.844476 -0.387051,0.334272 -0.897256,0.334272 H 9.4385186 Z" />
  </g>
</svg>
