<?xml version="1.0" encoding="UTF-8" standalone="no"?>
<svg
   xmlns:dc="http://purl.org/dc/elements/1.1/"
   xmlns:cc="http://creativecommons.org/ns#"
   xmlns:rdf="http://www.w3.org/1999/02/22-rdf-syntax-ns#"
   xmlns:svg="http://www.w3.org/2000/svg"
   xmlns="http://www.w3.org/2000/svg"
   height="64"
   width="64"
   version="1.1"
   id="svg2">
  <metadata
     id="metadata8">
    <rdf:RDF>
      <cc:Work
         rdf:about="">
        <dc:format>image/svg+xml</dc:format>
        <dc:type
           rdf:resource="http://purl.org/dc/dcmitype/StillImage" />
        <dc:title />
      </cc:Work>
    </rdf:RDF>
  </metadata>
  <defs
     id="defs6" />
  <rect
     y="0"
     x="0"
     height="64"
     width="64"
     id="rect832"
     style="fill:#ffffff;fill-opacity:0;stroke-width:6.4;stroke-linecap:round;stroke-linejoin:round;paint-order:markers stroke fill;stop-color:#000000" />
  <path
     id="path839"
     d="m 0.98438,23.034384 h 62.03124 c 0,0 0,9.692419 0,14.538631 0,33.923473 -62.03124,33.923473 -62.03124,0 0,-4.846212 0,-14.538631 0,-14.538631 z"
     style="font-style:normal;font-variant:normal;font-weight:normal;font-stretch:normal;font-size:30px;line-height:1.25;font-family:Roboto;font-variant-ligatures:normal;font-variant-caps:normal;font-variant-numeric:normal;font-feature-settings:normal;text-align:start;letter-spacing:0px;word-spacing:0px;writing-mode:lr-tb;text-anchor:start;fill:#ffffff;fill-opacity:1;stroke:#000000;stroke-width:1.96876;stroke-linecap:butt;stroke-linejoin:miter;stroke-miterlimit:4;stroke-dasharray:none;stroke-opacity:1" />
  <g
     transform="translate(15.325748)"
     style="font-style:normal;font-variant:normal;font-weight:normal;font-stretch:normal;font-size:28.8248px;line-height:1.25;font-family:saxMono;-inkscape-font-specification:saxMono;letter-spacing:0px;word-spacing:0px;fill:#000000;fill-opacity:1;stroke:none;stroke-width:0.720619"
     id="texte"
     aria-label="155">
    <path
       id="path10"
       style="font-style:normal;font-variant:normal;font-weight:normal;font-stretch:normal;font-size:28.8248px;line-height:1.25;font-family:saxMono;-inkscape-font-specification:saxMono;letter-spacing:0px;word-spacing:0px;fill:#000000;fill-opacity:1;stroke:none;stroke-width:0.720619"
       d="M 0.00287732,49.748082 V 34.223787 H -2.7838954 q -1.0555957,0 -1.0555957,-0.914849 0,-0.928924 1.0555957,-0.928924 h 3.74384617 q 0.95707343,0 0.95707343,0.928924 v 16.439144 h 2.955668 q 1.083745,0 1.083745,0.985223 0,0.872625 -1.083745,0.872625 h -8.4025419 q -1.0837449,0 -1.0837449,-0.928924 0,-0.928924 1.0837449,-0.928924 z" />
    <path
       id="path12"
       style="font-style:normal;font-variant:normal;font-weight:normal;font-stretch:normal;font-size:28.8248px;line-height:1.25;font-family:saxMono;-inkscape-font-specification:saxMono;letter-spacing:0px;word-spacing:0px;fill:#000000;fill-opacity:1;stroke:none;stroke-width:0.720619"
       d="m 13.739696,39.276572 q 1.843774,-0.830402 3.194936,-0.830402 2.280087,0 3.771996,1.604506 1.449684,1.562282 1.449684,3.856443 0,3.828294 -3.687547,6.10838 -3.166787,1.970446 -7.220275,1.970446 -1.013372,0 -1.013372,-0.830402 0,-0.830402 1.238566,-0.942999 3.377906,-0.323716 5.137232,-1.224491 3.617175,-1.857849 3.617175,-5.06686 0,-1.520057 -0.858551,-2.561578 -0.928925,-1.111895 -2.420833,-1.111895 -0.957074,0 -2.406758,0.619283 -1.435611,0.619283 -1.843774,0.619283 -0.760029,0 -0.717805,-1.083745 l 0.225193,-6.3195 q 0.02815,-0.816327 0.239269,-1.140043 0.281492,-0.562984 1.041521,-0.562984 h 7.234349 q 1.041521,0 1.041521,0.900775 0,0.394089 -0.323716,0.675581 -0.309641,0.267417 -0.717805,0.267417 h -6.769887 z" />
    <path
       id="path14"
       style="font-style:normal;font-variant:normal;font-weight:normal;font-stretch:normal;font-size:28.8248px;line-height:1.25;font-family:saxMono;-inkscape-font-specification:saxMono;letter-spacing:0px;word-spacing:0px;fill:#000000;fill-opacity:1;stroke:none;stroke-width:0.720619"
       d="m 29.545482,39.276572 q 1.843774,-0.830402 3.194936,-0.830402 2.280087,0 3.771996,1.604506 1.449685,1.562282 1.449685,3.856443 0,3.828294 -3.687548,6.10838 -3.166787,1.970446 -7.220275,1.970446 -1.013372,0 -1.013372,-0.830402 0,-0.830402 1.238566,-0.942999 3.377906,-0.323716 5.137232,-1.224491 3.617175,-1.857849 3.617175,-5.06686 0,-1.520057 -0.858551,-2.561578 -0.928924,-1.111895 -2.420833,-1.111895 -0.957073,0 -2.406758,0.619283 -1.43561,0.619283 -1.843774,0.619283 -0.760029,0 -0.717805,-1.083745 l 0.225194,-6.3195 q 0.02815,-0.816327 0.239268,-1.140043 0.281492,-0.562984 1.041521,-0.562984 h 7.234349 q 1.041521,0 1.041521,0.900775 0,0.394089 -0.323716,0.675581 -0.309641,0.267417 -0.717805,0.267417 h -6.769887 z" />
  </g>
</svg>
