<?xml version="1.0" encoding="UTF-8" standalone="no"?>
<svg
   xmlns:dc="http://purl.org/dc/elements/1.1/"
   xmlns:cc="http://creativecommons.org/ns#"
   xmlns:rdf="http://www.w3.org/1999/02/22-rdf-syntax-ns#"
   xmlns:svg="http://www.w3.org/2000/svg"
   xmlns="http://www.w3.org/2000/svg"
   id="svg2"
   version="1.1"
   width="64"
   height="64">
  <metadata
     id="metadata8">
    <rdf:RDF>
      <cc:Work
         rdf:about="">
        <dc:format>image/svg+xml</dc:format>
        <dc:type
           rdf:resource="http://purl.org/dc/dcmitype/StillImage" />
        <dc:title />
      </cc:Work>
    </rdf:RDF>
  </metadata>
  <defs
     id="defs6" />
  <path
     style="font-style:normal;font-variant:normal;font-weight:normal;font-stretch:normal;font-size:30px;line-height:1.25;font-family:Roboto;font-variant-ligatures:normal;font-variant-caps:normal;font-variant-numeric:normal;font-feature-settings:normal;text-align:start;letter-spacing:0px;word-spacing:0px;writing-mode:lr-tb;text-anchor:start;fill:#000000;fill-opacity:1;stroke:none;stroke-width:1.17004px;stroke-linecap:butt;stroke-linejoin:miter;stroke-opacity:1"
     d="M 12,64 H 52 V 17.454546 L 32,3e-7 12,17.454546 Z"
     id="path836" />
  <path
     id="path858"
     d="M 14,62 H 50 V 18.615246 L 32,2.3856543 14,18.570828 Z"
     style="font-style:normal;font-variant:normal;font-weight:normal;font-stretch:normal;font-size:30px;line-height:1.25;font-family:Roboto;font-variant-ligatures:normal;font-variant-caps:normal;font-variant-numeric:normal;font-feature-settings:normal;text-align:start;letter-spacing:0px;word-spacing:0px;writing-mode:lr-tb;text-anchor:start;fill:#ffffff;fill-opacity:1;stroke:none;stroke-width:1.05304px;stroke-linecap:butt;stroke-linejoin:miter;stroke-opacity:1" />
  <g
     style="font-style:normal;font-variant:normal;font-weight:normal;font-stretch:normal;font-size:38px;line-height:1.25;font-family:Roboto;font-variant-ligatures:normal;font-variant-caps:normal;font-variant-numeric:normal;font-feature-settings:normal;text-align:start;letter-spacing:0px;word-spacing:0px;writing-mode:lr-tb;text-anchor:start;fill:#000000;fill-opacity:1;stroke:none;stroke-width:17.8125"
     id="text862"
     aria-label="5"
     transform="translate(-107.73191,-4.8418837)" />
  <g
     transform="translate(59.68473)"
     style="font-style:normal;font-variant:normal;font-weight:normal;font-stretch:normal;font-size:54.7671px;line-height:1.25;font-family:saxMono;-inkscape-font-specification:saxMono;font-variant-ligatures:normal;font-variant-caps:normal;font-variant-numeric:normal;font-feature-settings:normal;text-align:start;letter-spacing:0px;word-spacing:0px;writing-mode:lr-tb;text-anchor:start;fill:#000000;fill-opacity:1;stroke:none;stroke-width:6.84588"
     id="texte"
     aria-label="9">
    <path
       id="path11"
       style="font-style:normal;font-variant:normal;font-weight:normal;font-stretch:normal;font-size:54.7671px;line-height:1.25;font-family:saxMono;-inkscape-font-specification:saxMono;font-variant-ligatures:normal;font-variant-caps:normal;font-variant-numeric:normal;font-feature-settings:normal;text-align:start;letter-spacing:0px;word-spacing:0px;writing-mode:lr-tb;text-anchor:start;fill:#000000;fill-opacity:1;stroke:none;stroke-width:6.84588"
       d="m -20.531313,38.21113 q -3.717103,3.342719 -7.728365,3.342719 -4.626323,0 -7.701624,-3.021818 -3.048559,-3.048559 -3.048559,-7.64814 0,-4.706548 3.209009,-7.781849 3.20901,-3.102043 7.915558,-3.102043 5.562284,0 8.637585,3.66362 2.888109,3.422944 2.888109,9.092194 0,6.123861 -2.700917,11.712886 -2.647433,5.482059 -7.380723,9.493321 -4.733289,4.011262 -6.605211,4.011262 -1.417313,0 -1.417313,-1.470796 0,-1.149895 1.68473,-2.246307 9.760738,-6.364536 12.247721,-16.045049 z m -7.353981,-0.187192 q 3.36946,0 5.535542,-1.791697 2.326532,-1.925406 2.326532,-5.241383 0,-3.315977 -2.192823,-5.375092 -2.166082,-2.085856 -5.5088,-2.085856 -3.315977,0 -5.428575,1.978889 -2.192824,2.032373 -2.192824,5.321608 0,3.262494 2.085857,5.241383 2.085856,1.952148 5.375091,1.952148 z" />
  </g>
</svg>
