<svg xmlns="http://www.w3.org/2000/svg" xmlns:xlink="http://www.w3.org/1999/xlink" xml:space="preserve" width="426.096" height="100.45"><defs><linearGradient id="a"><stop offset="0" style="stop-color:#acc4d3;stop-opacity:1"/><stop offset=".1" style="stop-color:#3d79b3;stop-opacity:1"/><stop offset=".268" style="stop-color:#3e74ac;stop-opacity:1"/><stop offset=".396" style="stop-color:#1a5ba2;stop-opacity:1"/><stop offset=".536" style="stop-color:#104a95;stop-opacity:1"/><stop offset=".671" style="stop-color:#124592;stop-opacity:1"/><stop offset=".789" style="stop-color:#3289c5;stop-opacity:1"/><stop offset=".896" style="stop-color:#3ea2d7;stop-opacity:1"/><stop offset="1" style="stop-color:#5dafcc;stop-opacity:1"/></linearGradient><linearGradient xlink:href="#a" id="b" x1="1475.631" x2="1785.87" y1="1144.602" y2="1143.494" gradientUnits="userSpaceOnUse"/></defs><path d="M1780.182 1119.082c-2.293-3.342-21.632-5.815-40.355-3.507-4.686.576-23.92 4.073-28.609 4.766-69.896 10.503-159.701 4.92-229.921-5.125-4.581-.538-9.165-1.081-13.743-1.632a564 564 0 0 0 16.038 3.183c55.714 10.615 131.672 15.742 187.588 14.184 9.306-.262 35.41-1.775 41.05-2.485 14.481-1.824 34.49-4.795 39.08-5.062 10.027-1.171 27.043-1.14 28.872-4.322" style="fill:#000;fill-opacity:1;fill-rule:nonzero;stroke:none;stroke-width:2.49245" transform="matrix(1.33331 0 0 -1.33331 -1956.704 1585.201)"/><path d="M1548.422 1148.18c-15.944-6.081-46.873-15.064-61.194-19.329 11.582 2.06 23.067 4.56 34.503 7.33a927 927 0 0 1 17.14 4.345c67.53 14.419 161.402 65.24 225.199 4.616-21.358.107-33.267 5.419-54.7 9.07-49.737 8.135-124.1-9.788-171.867-19.274-5.992-1.05-50.809-11.057-62.381-14.815 7.711 2.505 49.976 9.531 69.22 13.1 75.462 14.005 141.953 11.84 218.454-.556 6.261-1.014 16.617-.75 21.183 3.255 4.566 4.008 3.25 9.088 1.742 12.129-.882 1.77-4.192 7.178-7.893 10.236-26.983 22.29-55.039 30.633-83.757 30.635-46.703 0-122.519-31.923-145.649-40.742" style="fill:url(#b);fill-opacity:1;fill-rule:nonzero;stroke:none;stroke-width:2.49245" transform="matrix(1.33331 0 0 -1.33331 -1956.704 1585.201)"/></svg>