<svg xmlns="http://www.w3.org/2000/svg" width="100" class="logo" viewBox="0 0 146 40"><path fill="#fbdd10" d="m43.319 39.121.11-11.921 7.92.073-.015 1.566-6.086-.057-.03 3.272 5.333.05-.014 1.6-5.334-.05-.036 3.914 6.435.06-.014 1.57zm11.427-4.545.067-7.27 1.83.016-.064 7.083c-.019 1.948.802 3.444 3.385 3.468 2.486.023 3.226-1.355 3.245-3.406l.065-7.084 1.834.017-.067 7.27c-.025 2.787-1.598 4.826-5.279 4.793-3.6-.033-5.04-2.29-5.016-4.887m13.802 4.778.11-11.921 3.392.031c3.23.03 4.96 1.165 4.939 3.506-.014 1.407-.85 2.589-2.405 3.22l3.626 5.062v.19l-2.026-.018-3.19-4.508-2.57-.024-.042 4.479zm5.02-6.017c.832-.438 1.566-1.097 1.577-2.311.013-1.484-.803-1.976-3.11-1.997l-1.557-.014-.04 4.293zm5.965.156c.029-3.167 2.18-6.132 6.231-6.094 4.035.037 6.127 3.04 6.098 6.207-.03 3.177-2.176 6.133-6.21 6.096-4.052-.038-6.149-3.033-6.12-6.209zm10.397.096c.024-2.599-1.418-4.568-4.18-4.593-2.783-.026-4.261 1.916-4.286 4.514-.023 2.6 1.42 4.575 4.202 4.6 2.762.026 4.24-1.923 4.264-4.52zm4.075 5.448.015-1.694.187.002c1.102.495 2.488.867 3.667.878 2.12.02 3.143-.624 3.153-1.748.01-1.112-.857-1.625-2.105-2.06l-1.927-.664c-1.706-.61-2.548-1.626-2.535-3.099.018-2.053 1.963-3.155 4.717-3.13 1.11.01 2.755.314 3.51.695l-.016 1.579-.19-.002c-1.082-.413-2.455-.666-3.319-.674-1.787-.017-2.858.324-2.869 1.45-.01 1.028.792 1.367 1.73 1.692l1.836.68c1.74.617 3.03 1.509 3.011 3.468-.02 2.139-1.968 3.433-5.01 3.404-1.461-.014-2.758-.301-3.855-.777m15.007.69.094-10.356-4.22-.04.014-1.564 10.21.093-.015 1.566-4.153-.038-.096 10.355zm6.056.055.002-.191 4.704-11.687 2.307.021 4.2 11.77-.003.19-1.923-.017-1.103-3.188-5.21-.049-1.237 3.167zm7.637-4.673-1.933-5.528-2.128 5.491zm6.31 4.802.11-11.92 3.395.03c3.236.03 4.957 1.165 4.936 3.506-.013 1.407-.845 2.59-2.41 3.22l3.64 5.062V40l-2.036-.019-3.188-4.508-2.563-.024-.04 4.479zm5.03-6.017c.827-.438 1.56-1.097 1.571-2.31.013-1.485-.798-1.976-3.11-1.998l-1.553-.014-.04 4.293zm6.693-2.815.022-2.476-.826-.007.005-.522 2.307.021-.005.521-.821-.007-.023 2.476zm4.575.042.018-2.002-.781 1.224-.328-.003-.747-1.213-.018 1.976-.625-.005.027-2.997.728.006.885 1.426.898-1.408.63.005-.028 2.997z" style="fill-rule:evenodd;stroke:none;stroke-width:1;fill:#fff"/><path fill="#fff" d="M41.866 12.208c.73-.933 1.35-2.006 1.792-3.059.11-.26.152-.556.2-.835.053-.312.077-.628.08-.945.039-4.022-3.833-7.317-8.645-7.36l-.936-.008C28.08-.056 23.715 3.796 21.301 6.13c-5.034 4.87-8.369 11.19-9.293 18.22-1.23.457-2.468.888-3.723 1.275-1.13.348-2.272.66-3.43.907a21.661 21.661 0 0 1-3.054.45c-.497.034-.99.043-1.487.005-.224-.017-.313.466-.314.607-.008.802.923 1.96 3.506 1.984 2.047.018 5.036-.614 8.258-1.523v-.301c-.033 3.538.764 6.738 2.289 8.67.99 1.254 2.93 1.768 4.467 1.922 1.984.2 4.034-.173 5.95-.808 4.07-1.347 7.748-3.528 11.179-6.033.47-.344.926-.706 1.398-1.05.325-.235.641-.501.96-.75.378-.293.965-.801 1.316-1.125a3.77 3.77 0 0 0 .42-.44 1.21 1.21 0 0 0 .235-.799c-.006-.118-.006-.27-.067-.376a.247.247 0 0 0-.096-.092c-.078-.045-.125-.005-.202.032-.327.156-.647.323-.966.496-.35.19-.71.362-1.071.532-.336.158-.658.342-.996.493-.618.275-1.219.574-1.828.863a27.97 27.97 0 0 1-.916.418c-2.063.89-4.125 1.794-6.266 2.489-2.202.714-5.64 1.654-7.105-.87-.565-.974-.574-2.187-.564-3.277.008-.906.075-1.807.19-2.7a157.676 157.676 0 0 0 4.073-1.544 615.511 615.511 0 0 1 7.447-2.885c1.368-.52 2.689-1.08 4.085-1.524l3.628-1.153c1.353-.43 2.707-.765 4.107-.961 2.904-.406 5.752-.331 8.648.102 1.3.194 2.589.451 3.867.75 2.476.58 4.907 1.33 7.334 2.084 3.882 1.204 7.655 1.803 11.684 2.192.656.064 1.314.104 1.973.122 3.562.102 7.144-.405 10.553-1.388a31.645 31.645 0 0 0 6.222-2.556c.546-.295 1.08-.611 1.59-.954a23.734 23.734 0 0 0 2.29-1.734 19.43 19.43 0 0 0 1.056-.973c.29-.29.666-.584.785-.985.073-.242.034-.439-.029-.68-.028-.112-.106-.208-.217-.16-.381.162-.74.383-1.113.567-.773.382-1.56.737-2.359 1.063-1.71.696-3.484 1.254-5.26 1.588-4.996.937-10.4 1.258-15.442.58-5.048-.68-9.923-2.201-14.91-3.178a88.819 88.819 0 0 0-4.64-.795 52.275 52.275 0 0 0-4.74-.467 36.665 36.665 0 0 0-4.75.057c-1.554.121-3.09.39-4.641.54-.033.003-.072.004-.095-.02-.032-.038.003-.094.037-.131.204-.222.401-.455.592-.698m-5.493.761c-2.933 2.699-5.356 3.43-9.01 5.043-2.142.92-4.327 1.867-6.505 2.788 1.204-3.633 3.072-7.074 5.343-10.22 1.16-1.607 2.156-2.475 3.734-3.754 1.968-1.593 5.402-3.152 7.528-.897.893.948 1.176 2.27.987 3.522-.239 1.582-.882 2.42-2.077 3.518" style="fill-rule:evenodd;stroke:none;stroke-width:1"/></svg>