<svg xmlns="http://www.w3.org/2000/svg" xml:space="preserve" width="700" height="314"><g style="fill:#fff"><g style="fill:#fff"><path d="M64.92 787.128h-2.356v.922H68.3v-.922h-2.373v-6.436H64.92zm10.74-2.325v-3.632c-.194-.111-.397-.193-.619-.286-.249-.082-.47-.167-.73-.223-.248-.055-.498-.081-.747-.107-.259-.03-.48-.056-.702-.056-.647 0-1.2.108-1.681.304-.471.23-.896.505-1.228.84a3.55 3.55 0 0 0-.785 1.263c-.167.442-.25.947-.25 1.481 0 .528.083 1.033.277 1.512.194.472.444.895.785 1.23.333.356.758.616 1.229.835.452.197.979.279 1.542.279.665 0 1.228-.082 1.672-.25.425-.166.785-.385 1.07-.701l-.7-.754c-.306.286-.62.48-.98.59a2.828 2.828 0 0 1-1.062.194c-.425 0-.813-.086-1.145-.25a2.31 2.31 0 0 1-.868-.62 2.354 2.354 0 0 1-.564-.947c-.138-.334-.194-.728-.194-1.118 0-.423.056-.81.194-1.177.166-.36.36-.676.62-.925.248-.275.553-.468.895-.616.36-.167.72-.223 1.145-.223.36 0 .702.03 1.007.085.305.082.582.164.812.286v2.065H73v.921zm.813 3.247h1.145l2.152-5.984h.028l2.235 5.984h1.126l-2.909-7.358h-.95l-2.826 7.358z" style="fill:#fff;fill-opacity:1;fill-rule:nonzero;stroke:none" transform="matrix(9.3048 0 0 -9.3048 -573.296 7335.297)"/></g><g style="fill:#fff"><path d="M71.91 770.678a3.56 3.56 0 0 0 3.556 3.55c1.958 0 3.574-1.595 3.574-3.55v-10.575h4.12v10.575c0 4.223-3.446 7.689-7.694 7.689-4.23 0-7.693-3.466-7.693-7.689v-10.575h4.137zm-9.124 6.85A39.22 39.22 0 0 1 61.779 769v-5.735c.111.083.25.166.37.25.526.276 1.117.479 1.755.479.757 0 1.459-.258 2.05-.673v14.207zm1.118-15.129a2.29 2.29 0 0 1-2.291-2.296 2.267 2.267 0 0 1 2.29-2.296c1.266 0 2.3 1.005 2.3 2.296a2.31 2.31 0 0 1-2.3 2.296zm62.616 4.554a3.56 3.56 0 0 0-3.557-3.55 3.552 3.552 0 0 0-3.546 3.55v10.575h-4.148v-10.575c0-4.222 3.475-7.69 7.694-7.69 4.26 0 7.693 3.468 7.693 7.69v10.575h-4.137zm8.005 8.28c1.284 0 2.318 1.042 2.318 2.295 0 1.292-1.034 2.295-2.318 2.295a2.285 2.285 0 0 1-2.299-2.295 2.31 2.31 0 0 1 2.3-2.295zm1.12-15.13c.636 2.738 1.005 5.597 1.005 8.529v5.734c-.108-.083-.25-.166-.369-.248-.524-.277-1.116-.471-1.756-.471a3.4 3.4 0 0 0-2.02.664v-14.208zM99.22 778.367c5.253 0 9.539-4.277 9.539-9.56 0-5.265-4.286-9.543-9.54-9.543-5.263 0-9.55 4.278-9.55 9.543 0 5.283 4.287 9.56 9.55 9.56zm0-23.778c7.86 0 14.23 6.38 14.23 14.218 0 7.855-6.37 14.236-14.23 14.236-7.843 0-14.215-6.38-14.215-14.236 0-7.837 6.372-14.218 14.215-14.218" style="fill:#fff;fill-opacity:1;fill-rule:nonzero;stroke:none" transform="matrix(9.3048 0 0 -9.3048 -573.296 7335.297)"/></g></g></svg>