<svg xmlns="http://www.w3.org/2000/svg" width="313.942" height="77.455"><path d="M246.845 77.291c-4.764-.392-11.202-1.887-11.92-2.768-.188-.23-.073-2.301.365-6.553.352-3.418.644-6.429.648-6.689.014-.842.532-.502 1.112.731.689 1.466 2.574 3.255 4.178 3.964 6.051 2.677 16.37 2.34 26.532-.869 4.3-1.357 10.253-4.272 13.456-6.589 1.338-.967 2.524-1.76 2.635-1.761.308-.004.26.977-.363 7.43-.49 5.082-.649 6.012-1.092 6.4-.743.652-6.879 3-10.369 3.968-8.198 2.275-17.932 3.333-25.182 2.736m-70.764-2.857c-2.635-.592-5.553-1.858-7.375-3.2-3.611-2.662-6.598-6.979-7.515-10.865-.557-2.36-.366-6.425.437-9.29 2.34-8.352 8.426-13.462 17.854-14.991 2.615-.424 10.748-.527 14.302-.18l1.757.17-.04 1.454a48.9 48.9 0 0 1-.224 3.175l-.185 1.723-4.235.002c-9.715.005-14.133 1.453-16.936 5.55-1.67 2.44-2.164 4.261-2.164 7.968 0 2.983.038 3.191.9 4.943 1.621 3.291 4.337 5.46 8.019 6.403.743.19 3.662.42 6.486.51l5.135.164-.053 2.027c-.078 3.018-.31 4.25-.838 4.46-.253.1-3.379.231-6.946.291-5.218.089-6.857.027-8.379-.314m111.17.183c-.99-.088-1.89-.248-1.997-.356-.226-.226.365-5.932.642-6.198.102-.098 2.86-.233 6.131-.3 6.91-.143 8.267-.428 9.925-2.086.838-.839 1.021-1.213 1.021-2.094 0-2.046-.697-2.653-6.147-5.352-5.377-2.664-6.838-3.778-8.133-6.207-.654-1.228-.72-1.621-.72-4.324 0-2.743.061-3.098.796-4.594 2.076-4.233 6.488-6.446 14.315-7.181 3.872-.364 10.673-.123 10.842.385.056.17-.044 1.586-.222 3.147l-.326 2.838-4.73.009c-6.721.013-8.83.756-9.87 3.483-.43 1.124-.426 1.235.081 2.382.68 1.538 1.223 1.908 6.576 4.483 5.043 2.425 6.582 3.608 7.725 5.936.672 1.368.758 1.837.752 4.112-.006 2.245-.105 2.781-.784 4.266-1.486 3.246-4.96 5.696-9.646 6.803-4.086.965-10.906 1.321-16.23.848zM.01 73.714c.005-.335.598-6.44 1.318-13.566L2.635 47.19l.725-.623c.681-.587.947-.624 4.493-.624 3.408 0 3.82.052 4.31.54.296.298.542.754.544 1.014.006.723-2.443 25.523-2.589 26.217-.127.604-.162.608-5.123.608H0zm17.013-.27c-.01-1.989 3.605-36.852 3.855-37.163.199-.249 1.615-.338 5.372-.338 4.506 0 5.158.056 5.577.475.261.261 3.62 5.643 7.465 11.96 6.834 11.228 7.59 12.396 7.85 12.135.071-.07.68-5.527 1.353-12.127.843-8.263 1.332-12.066 1.568-12.216.189-.12 2.08-.22 4.203-.222 3.304-.004 3.884.058 4.027.431.16.415-3.31 36.444-3.611 37.503-.132.466-.378.496-3.02.376-4.35-.199-6.904-1.304-10.004-4.33-1.823-1.78-2.444-2.699-7.998-11.822-4.514-7.416-5.136-8.343-5.416-8.064-.101.102-2.538 23.097-2.566 24.212 0 .037-1.947.068-4.326.068h-4.324l-.005-.879zm51.358.135c.001-.41.608-6.764 1.35-14.122.741-7.358 1.348-13.937 1.35-14.62.002-2.077-.389-2.256-5.162-2.359l-4.026-.087.012-.994c.025-2.129.486-4.99.839-5.214.454-.287 28.35-.31 28.8-.023.258.163.258.85 0 3.171l-.327 2.964-4.054.135c-4.361.145-5.01.327-5.498 1.544-.167.414-.913 6.834-1.658 14.267-.745 7.432-1.427 14.09-1.516 14.797l-.162 1.284h-9.95zm28.298.307c-2.55-.783-3.975-3.006-3.975-6.195 0-2.734 3.023-31.341 3.333-31.539.447-.284 25.372-.25 25.823.036.295.186.333.733.181 2.63-.104 1.318-.255 2.67-.334 3.004l-.143.608-7.065.027c-3.886.015-7.359.109-7.717.209-1.12.314-1.635 1.343-1.92 3.847-.458 4.04-.437 5.01.123 5.629.486.537.775.558 7.693.562 3.953.003 7.356.111 7.562.241.309.196.324.707.087 2.963-.158 1.5-.363 2.85-.457 3.002-.11.178-2.787.277-7.47.277-4.712 0-7.493.103-7.845.292-1.298.694-1.795 4.623-.817 6.448.954 1.778 1.551 1.908 8.736 1.908 4.45 0 6.431.092 6.5.3.108.322-.252 4.569-.472 5.579l-.133.608-10.198-.019c-8.174-.015-10.454-.098-11.492-.417m27.028.233c-.21-.388 3.658-37.502 3.946-37.86.235-.293 2.134-.34 10.035-.25 8.934.102 9.922.16 11.86.693 5.156 1.417 7.878 4.116 8.64 8.567.837 4.885-2.178 10.604-6.91 13.106-.702.372-1.277.861-1.277 1.088 0 1.92 6.83 9.384 11.745 12.835l2.692 1.889-5.8.074-5.8.074-2.026-.999c-2.873-1.415-6.392-4.987-8.216-8.339-2.08-3.823-2.879-4.993-3.698-5.416-.948-.49-3.463-.53-3.623-.057-.063.186-.429 3.488-.812 7.339-.383 3.85-.76 7.103-.839 7.23-.174.282-9.764.308-9.917.026m22.51-22.054c1.693-.81 2.543-2.527 2.556-5.167.018-3.559-.916-4.137-7.072-4.38-3.483-.137-4.326-.098-4.569.21-.37.47-1.282 9.443-.988 9.736.25.25 4.566.42 7.1.28 1.063-.059 2.238-.327 2.973-.679m49.8 20.297c.083-1.077.672-7.128 1.311-13.446 1.435-14.178.852-12.973 6.27-12.973 3.182 0 3.72.065 4.278.517.546.442.63.728.575 1.96-.104 2.378-2.48 25.373-2.65 25.648-.088.143-2.283.254-5.044.254h-4.888zm23.622 1.757c-.067-.111.547-6.83 1.366-14.928.99-9.803 1.409-14.951 1.251-15.4-.398-1.131-1.26-1.353-5.28-1.357-2.035-.002-3.75-.095-3.81-.207-.169-.307.452-5.56.702-5.946.17-.263 3.333-.337 14.325-.333 7.758.002 14.273.11 14.478.24.295.186.332.733.181 2.63-.317 3.984.117 3.612-4.214 3.612-2.055 0-4.043.116-4.416.258-1.478.562-1.505.71-3.056 16.31-.8 8.057-1.508 14.8-1.572 14.986-.088.253-1.33.338-4.974.338-2.672 0-4.913-.091-4.98-.203zm20.301-14.134c-2.352-.274-3.41-.512-3.594-.808-.194-.315.67-8.714.925-8.98.108-.114 2.56-.325 5.45-.47 6.576-.33 10.168-1.065 15.309-3.138 6.56-2.645 10.894-5.703 10.886-7.68-.005-1.09-.18-1.417-.992-1.844-2.188-1.152-10.062.893-17.208 4.47-1.614.808-2.999 1.404-3.078 1.325-.202-.202.764-9.93 1.04-10.465.266-.519 4.74-2.525 8.259-3.704 5.904-1.978 12.747-1.808 17.325.43 5.49 2.684 7.289 8.995 4.316 15.14-3.153 6.519-13.157 12.665-24.253 14.899-5.06 1.019-10.194 1.313-14.385.825M3.85 42.092c-.517-.646-.596-1.432-.358-3.55.142-1.258.389-2.224.604-2.36.2-.127 2.404-.232 4.899-.234 3.906-.004 4.558.055 4.701.427.091.237.039 1.479-.117 2.76-.398 3.286-.413 3.295-5.468 3.295-2.868 0-4.067-.095-4.261-.338m195.735-.315c-.614-.936-.282-5.19.435-5.574.598-.32 8.896-.339 9.397-.021.595.377-.043 4.8-.811 5.618-.568.605-.752.63-4.593.63-3.931 0-4.008-.011-4.428-.653m49.399-17.523c-.15-.186-.649-1.09-1.11-2.009l-.836-1.67 2.224-1.744c4.933-3.866 10.855-10.69 13.985-16.111 1.355-2.35 1.787-2.914 2.034-2.666.061.06.923 2.744 1.915 5.963 1.581 5.13 1.758 5.911 1.426 6.317-1.579 1.93-10.928 8.425-15.483 10.754-3.046 1.557-3.694 1.74-4.155 1.166" style="fill:#7fc240"/><path d="M176.081 74.434c-2.635-.592-5.553-1.858-7.375-3.2-3.611-2.662-6.598-6.979-7.515-10.865-.557-2.36-.366-6.425.437-9.29 2.34-8.352 8.426-13.462 17.854-14.991 2.615-.424 10.748-.527 14.302-.18l1.757.17-.04 1.454a48.9 48.9 0 0 1-.224 3.175l-.185 1.723-4.235.002c-9.715.005-14.133 1.453-16.936 5.55-1.67 2.44-2.164 4.261-2.164 7.968 0 2.983.038 3.191.9 4.943 1.621 3.291 4.337 5.46 8.019 6.403.743.19 3.662.42 6.486.51l5.135.164-.053 2.027c-.078 3.018-.31 4.25-.838 4.46-.253.1-3.379.231-6.946.291-5.218.089-6.857.027-8.379-.314m111.17.183c-.99-.088-1.89-.248-1.997-.356-.226-.226.365-5.932.642-6.198.102-.098 2.86-.233 6.131-.3 6.91-.143 8.267-.428 9.925-2.086.838-.839 1.021-1.213 1.021-2.094 0-2.046-.697-2.653-6.147-5.352-5.377-2.664-6.838-3.778-8.133-6.207-.654-1.228-.72-1.621-.72-4.324 0-2.743.061-3.098.796-4.594 2.076-4.233 6.488-6.446 14.315-7.181 3.872-.364 10.673-.123 10.842.385.056.17-.044 1.586-.222 3.147l-.326 2.838-4.73.009c-6.721.013-8.83.756-9.87 3.483-.43 1.124-.426 1.235.081 2.382.68 1.538 1.223 1.908 6.576 4.483 5.043 2.425 6.582 3.608 7.725 5.936.672 1.368.758 1.837.752 4.112-.006 2.245-.105 2.781-.784 4.266-1.486 3.246-4.96 5.696-9.646 6.803-4.086.965-10.906 1.321-16.23.848zM.01 73.714c.005-.335.598-6.44 1.318-13.566L2.635 47.19l.725-.623c.681-.587.947-.624 4.493-.624 3.408 0 3.82.052 4.31.54.296.298.542.754.544 1.014.006.723-2.443 25.523-2.589 26.217-.127.604-.162.608-5.123.608H0zm17.013-.27c-.01-1.989 3.605-36.852 3.855-37.163.199-.249 1.615-.338 5.372-.338 4.506 0 5.158.056 5.577.475.261.261 3.62 5.643 7.465 11.96 6.834 11.228 7.59 12.396 7.85 12.135.071-.07.68-5.527 1.353-12.127.843-8.263 1.332-12.066 1.568-12.216.189-.12 2.08-.22 4.203-.222 3.304-.004 3.884.058 4.027.431.16.415-3.31 36.444-3.611 37.503-.132.466-.378.496-3.02.376-4.35-.199-6.904-1.304-10.004-4.33-1.823-1.78-2.444-2.699-7.998-11.822-4.514-7.416-5.136-8.343-5.416-8.064-.101.102-2.538 23.097-2.566 24.212 0 .037-1.947.068-4.326.068h-4.324l-.005-.879zm51.358.135c.001-.41.608-6.764 1.35-14.122.741-7.358 1.348-13.937 1.35-14.62.002-2.077-.389-2.256-5.162-2.359l-4.026-.087.012-.994c.025-2.129.486-4.99.839-5.214.454-.287 28.35-.31 28.8-.023.258.163.258.85 0 3.171l-.327 2.964-4.054.135c-4.361.145-5.01.327-5.498 1.544-.167.414-.913 6.834-1.658 14.267-.745 7.432-1.427 14.09-1.516 14.797l-.162 1.284h-9.95zm28.298.307c-2.55-.783-3.975-3.006-3.975-6.195 0-2.734 3.023-31.341 3.333-31.539.447-.284 25.372-.25 25.823.036.295.186.333.733.181 2.63-.104 1.318-.255 2.67-.334 3.004l-.143.608-7.065.027c-3.886.015-7.359.109-7.717.209-1.12.314-1.635 1.343-1.92 3.847-.458 4.04-.437 5.01.123 5.629.486.537.775.558 7.693.562 3.953.003 7.356.111 7.562.241.309.196.324.707.087 2.963-.158 1.5-.363 2.85-.457 3.002-.11.178-2.787.277-7.47.277-4.712 0-7.493.103-7.845.292-1.298.694-1.795 4.623-.817 6.448.954 1.778 1.551 1.908 8.736 1.908 4.45 0 6.431.092 6.5.3.108.322-.252 4.569-.472 5.579l-.133.608-10.198-.019c-8.174-.015-10.454-.098-11.492-.417m27.028.233c-.21-.388 3.658-37.502 3.946-37.86.235-.293 2.134-.34 10.035-.25 8.934.102 9.922.16 11.86.693 5.156 1.417 7.878 4.116 8.64 8.567.837 4.885-2.178 10.604-6.91 13.106-.702.372-1.277.861-1.277 1.088 0 1.92 6.83 9.384 11.745 12.835l2.692 1.889-5.8.074-5.8.074-2.026-.999c-2.873-1.415-6.392-4.987-8.216-8.339-2.08-3.823-2.879-4.993-3.698-5.416-.948-.49-3.463-.53-3.623-.057-.063.186-.429 3.488-.812 7.339-.383 3.85-.76 7.103-.839 7.23-.174.282-9.764.308-9.917.026m22.51-22.054c1.693-.81 2.543-2.527 2.556-5.167.018-3.559-.916-4.137-7.072-4.38-3.483-.137-4.326-.098-4.569.21-.37.47-1.282 9.443-.988 9.736.25.25 4.566.42 7.1.28 1.063-.059 2.238-.327 2.973-.679m49.8 20.297c.083-1.077.672-7.128 1.311-13.446 1.435-14.178.852-12.973 6.27-12.973 3.182 0 3.72.065 4.278.517.546.442.63.728.575 1.96-.104 2.378-2.48 25.373-2.65 25.648-.088.143-2.283.254-5.044.254h-4.888zm23.622 1.757c-.067-.111.547-6.83 1.366-14.928.99-9.803 1.409-14.951 1.251-15.4-.398-1.131-1.26-1.353-5.28-1.357-2.035-.002-3.75-.095-3.81-.207-.169-.307.452-5.56.702-5.946.17-.263 3.333-.337 14.325-.333 7.758.002 14.273.11 14.478.24.295.186.332.733.181 2.63-.317 3.984.117 3.612-4.214 3.612-2.055 0-4.043.116-4.416.258-1.478.562-1.505.71-3.056 16.31-.8 8.057-1.508 14.8-1.572 14.986-.088.253-1.33.338-4.974.338-2.672 0-4.913-.091-4.98-.203zM3.85 42.092c-.517-.646-.596-1.432-.358-3.55.142-1.258.389-2.224.604-2.36.2-.127 2.404-.232 4.899-.234 3.906-.004 4.558.055 4.701.427.091.237.039 1.479-.117 2.76-.398 3.286-.413 3.295-5.468 3.295-2.868 0-4.067-.095-4.261-.338m195.735-.315c-.614-.936-.282-5.19.435-5.574.598-.32 8.896-.339 9.397-.021.595.377-.043 4.8-.811 5.618-.568.605-.752.63-4.593.63-3.931 0-4.008-.011-4.428-.653" style="fill:#822d90"/></svg>