<svg xmlns="http://www.w3.org/2000/svg" xml:space="preserve" width="365.164" height="95.362"><path fill="#FFF" d="M294.247.007h14.464v14.467h-14.464zm0 20.016c-1.373-.006-15.067-1.635-20.262 8.879l.006-7.587h-23.147l-12.806 38.417-13.145-38.417h-15.531l14.562 38.557h-28.956V0h-16.076v73.066h49.842s.505 1.194.613 1.566c.944 3.174-.875 8.292-6.044 8.292-2.933 0-5.86.011-8.702.011v12.427c2.639 0 9.778-.026 12.817-.026 6.381 0 12.116-4.628 15.368-13.271l17.387-46.92V73.06h14.538V50.986c0-20.61 17.899-17.467 19.53-17.439v39.52h14.46V28.926h-14.456v-8.903z" style="fill:#fff;fill-opacity:1"/><path fill="#FFF" d="M355.527 32.632h2.394v-1.077h-2.394V29.17h-1.08v2.385h-2.377v1.077h2.377v2.389h1.08zm0 8.618h2.394v-1.075h-2.394v-2.38h-1.08v2.38h-2.377v1.075h2.377v2.387h1.08zm17.268-8.618h2.373v-1.077h-2.373V29.17h-1.1v2.385h-2.375v1.077h2.375v2.389h1.1zm-8.642 0h2.379v-1.077h-2.379V29.17h-1.065v2.385h-2.398v1.077h2.398v2.389h1.065zm0 8.618h2.379v-1.075h-2.379v-2.38h-1.065v2.38h-2.398v1.075h2.398v2.387h1.065zM28.896 43.614H75.29v9.443H57.312v49.211H46.873V53.057H28.896z" style="fill:#fff;fill-opacity:1" transform="translate(-28.896 -29.164)"/><path fill="#FFF" d="M104.792 68.796c-7.125 3.81-15.242 5.798-24.275 5.798-18.059 0-30.983-12.262-30.983-30.567 0-18.808 12.924-31.068 30.983-31.068 8.949 0 16.985 1.905 23.115 7.373l-7.706 7.788c-3.725-3.647-9.442-5.717-15.325-5.717-12.097 0-20.131 9.278-20.131 20.959 0 12.512 8.034 21.79 20.131 21.79 5.304 0 10.106-.995 13.751-3.065V48.251H82.341v-9.445h22.451z" style="fill:#fff;fill-opacity:1"/><path fill="#FFF" d="m165.571 87.937 16.486-44.322h11.268l-23.697 58.653h-9.027L137.57 43.615h12.013z" style="fill:#fff;fill-opacity:1" transform="translate(-28.896 -29.164)"/><path fill="#FFF" d="M318.428 28.732a17.152 17.152 0 0 1 5.649-5.338c2.289-1.341 4.863-2.298 7.725-2.87a44.262 44.262 0 0 1 8.628-.855c2.627 0 5.285.186 7.978.555 2.689.369 5.146 1.092 7.367 2.163 2.223 1.075 4.04 2.568 5.452 4.483 1.414 1.913 2.119 4.446 2.119 7.601v27.083c0 2.35.136 4.6.404 6.745.27 2.151.74 3.761 1.414 4.835h-14.536a20.28 20.28 0 0 1-.657-2.468 21.629 21.629 0 0 1-.353-2.567c-2.288 2.351-4.981 3.994-8.076 4.932a32.474 32.474 0 0 1-9.487 1.411c-2.493 0-4.812-.302-6.968-.906-2.154-.605-4.038-1.543-5.651-2.821-1.615-1.274-2.876-2.886-3.787-4.832-.907-1.948-1.361-4.262-1.361-6.948 0-2.952.521-5.386 1.564-7.299 1.044-1.912 2.387-3.438 4.038-4.581 1.647-1.142 3.532-1.997 5.653-2.568a60.948 60.948 0 0 1 6.41-1.359c2.151-.334 4.273-.604 6.358-.804 2.086-.202 3.937-.504 5.555-.906 1.613-.404 2.889-.989 3.835-1.763.941-.77 1.378-1.896 1.31-3.374 0-1.543-.251-2.768-.756-3.673-.505-.908-1.177-1.611-2.02-2.116-.839-.503-1.815-.837-2.926-1.006a24.165 24.165 0 0 0-3.584-.251c-2.827 0-5.048.603-6.661 1.812-1.618 1.207-2.56 3.221-2.829 6.04h-14.333c.202-3.355 1.042-6.141 2.526-8.355m28.313 20.186c-.907.304-1.884.553-2.928.755a43.615 43.615 0 0 1-3.278.503 64.965 64.965 0 0 0-3.433.503 27.002 27.002 0 0 0-3.182.807c-1.044.338-1.951.79-2.726 1.359a6.514 6.514 0 0 0-1.868 2.166c-.469.874-.704 1.978-.704 3.322 0 1.276.235 2.35.704 3.222a5.429 5.429 0 0 0 1.919 2.063c.81.503 1.751.856 2.829 1.057 1.072.204 2.185.302 3.33.302 2.826 0 5.014-.469 6.561-1.409 1.547-.94 2.691-2.065 3.432-3.374.742-1.308 1.194-2.633 1.363-3.977.167-1.342.251-2.417.251-3.222v-5.336c-.603.54-1.359.958-2.27 1.259" style="fill:#fff;fill-opacity:1"/></svg>