<svg xmlns="http://www.w3.org/2000/svg" width="230.889" height="230.866"><defs><clipPath id="a" clipPathUnits="userSpaceOnUse"><path d="M120.688 3.172h353.899v365.373H120.688z"/></clipPath></defs><g clip-path="url(#a)" transform="matrix(1.25 0 0 -1.25 -249.606 344.236)"><path d="M0 0c-6.325 0-10.821 5.154-10.821 11.29 0 6.126 4.391 11.181 10.725 11.181 6.339 0 10.825-5.164 10.825-11.299C10.729 5.06 6.337 0 0 0" style="fill:#fff;fill-opacity:1;fill-rule:nonzero;stroke:none" transform="translate(292.745 251.588)"/><path d="M0 0c-6.325 0-10.821 5.147-10.821 11.284 0 6.123 4.391 11.172 10.725 11.172 6.339 0 10.825-5.145 10.825-11.292C10.729 5.053 6.337 0 0 0" style="fill:#fff;fill-opacity:1;fill-rule:nonzero;stroke:none" transform="translate(292.745 91.71)"/><path d="M0 0c0-50.582-40.979-91.554-91.548-91.554-50.59 0-91.563 40.972-91.563 91.554 0 50.518 40.973 91.539 91.563 91.539C-40.979 91.539 0 50.518 0 0" style="fill:#e3006a;fill-opacity:1;fill-rule:nonzero;stroke:none" transform="translate(383.596 183.05)"/><path d="M0 0v16.799a3.902 3.902 0 0 0 3.932 3.934 3.913 3.913 0 0 0 3.936-3.934V.214c0-5.83 2.906-8.839 7.705-8.839 4.801 0 7.711 2.904 7.711 8.559v16.865a3.904 3.904 0 0 0 3.928 3.934 3.903 3.903 0 0 0 3.932-3.934V.248c0-10.821-6.07-16.123-15.676-16.123C5.879-15.875 0-10.528 0 0" style="fill:#fff;fill-opacity:1;fill-rule:nonzero;stroke:none" transform="translate(250.506 179.15)"/><path d="M0 0a3.91 3.91 0 0 0 3.938 3.938A3.906 3.906 0 0 0 7.874 0v-28.49c0-2.2-1.738-3.938-3.936-3.938A3.91 3.91 0 0 0 0-28.49z" style="fill:#fff;fill-opacity:1;fill-rule:nonzero;stroke:none" transform="translate(286.956 195.944)"/><path d="M0 0a4.773 4.773 0 0 0-4.771-4.771A4.768 4.768 0 0 0-9.535 0 4.768 4.768 0 0 0 0 0" style="fill:#fff;fill-opacity:1;fill-rule:nonzero;stroke:none" transform="translate(295.663 209.258)"/><path d="M0 0h-9.197a3.426 3.426 0 0 1-3.418-3.429c0-1.892 1.528-3.367 3.418-3.367h5.747v-4.89c-1.817-1.685-4.401-2.363-8.065-2.363-6.322 0-11.123 4.852-11.123 11.38 0 6.085 4.85 11.194 10.567 11.194 3.375 0 5.667-.923 7.82-2.451.561-.406 1.267-.809 2.395-.809a3.878 3.878 0 0 1 3.885 3.878c0 1.522-.873 2.601-1.633 3.162-3.223 2.251-6.8 3.471-12.206 3.471-10.828 0-19.053-8.379-19.053-18.541 0-10.563 7.97-18.433 19.108-18.433 5.531 0 10.201 1.687 13.591 4.326 1.743 1.335 2.106 2.391 2.106 4.696v8.251A3.912 3.912 0 0 1 0 0" style="fill:#fff;fill-opacity:1;fill-rule:nonzero;stroke:none" transform="translate(330.636 184.419)"/><path d="M0 0c-6.333 0-10.819 5.154-10.819 11.288 0 6.128 4.392 11.183 10.725 11.183 6.335 0 10.826-5.154 10.826-11.29C10.732 5.062 6.331 0 0 0m0 29.714c-11.027 0-19.047-8.371-19.047-18.533 0-10.16 7.919-18.43 18.953-18.43 11.02 0 19.04 8.373 19.04 18.537 0 10.16-7.911 18.426-18.946 18.426" style="fill:#fff;fill-opacity:1;fill-rule:nonzero;stroke:none" transform="translate(355.993 170.465)"/><path d="M0 0c-6.34 0-10.826 5.154-10.826 11.288 0 6.128 4.388 11.183 10.725 11.183 6.331 0 10.822-5.154 10.822-11.29C10.721 5.062 6.325 0 0 0m0 29.714c-11.033 0-19.055-8.371-19.055-18.533 0-10.16 7.917-18.43 18.954-18.43 11.027 0 19.041 8.373 19.041 18.537 0 10.16-7.915 18.426-18.94 18.426" style="fill:#fff;fill-opacity:1;fill-rule:nonzero;stroke:none" transform="translate(228.19 170.465)"/></g></svg>