<svg xmlns="http://www.w3.org/2000/svg" width="230.889" height="230.866"><path d="M0 0c-6.325 0-10.821 5.154-10.821 11.29 0 6.126 4.391 11.181 10.725 11.181 6.339 0 10.825-5.164 10.825-11.299C10.729 5.06 6.337 0 0 0" style="fill:#fff;fill-opacity:1;fill-rule:nonzero;stroke:none" transform="matrix(1.25 0 0 -1.25 116.325 29.75)"/><path d="M0 0c-6.325 0-10.821 5.147-10.821 11.284 0 6.123 4.391 11.172 10.725 11.172 6.339 0 10.825-5.145 10.825-11.292C10.729 5.053 6.337 0 0 0" style="fill:#fff;fill-opacity:1;fill-rule:nonzero;stroke:none" transform="matrix(1.25 0 0 -1.25 116.325 229.598)"/><g style="fill:#fff"><path d="M115.453 1C52.216 1 1 52.276 1 115.424c0 63.227 51.216 114.443 114.453 114.443 63.211 0 114.436-51.216 114.436-114.443C229.889 52.276 178.664 1 115.453 1m-1.443 75.705a5.96 5.96 0 1 1 0 11.922 5.96 5.96 0 0 1-5.955-5.963 5.955 5.955 0 0 1 5.955-5.959m34.916 17.287c6.757 0 11.229 1.526 15.258 4.34.95.701 2.04 2.049 2.04 3.951a4.847 4.847 0 0 1-4.855 4.848c-1.41 0-2.293-.504-2.994-1.012-2.691-1.91-5.557-3.062-9.775-3.062-7.147 0-13.21 6.386-13.21 13.992 0 8.16 6.002 14.224 13.905 14.224 4.58 0 7.809-.846 10.08-2.953v-6.113h-7.184c-2.362 0-4.271-1.844-4.271-4.209 0-2.36 1.909-4.285 4.271-4.285h11.496a4.89 4.89 0 0 1 4.928 4.906v10.313c0 2.88-.454 4.202-2.633 5.87-4.237 3.3-10.074 5.407-16.988 5.407-13.922 0-23.885-9.837-23.885-23.041 0-12.703 10.282-23.176 23.817-23.176m-113.295.02c13.781 0 23.676 10.333 23.676 23.033 0 12.705-10.017 23.172-23.801 23.172-13.796 0-23.694-10.34-23.694-23.04 0-12.702 10.028-23.165 23.819-23.165m159.754 0c13.794 0 23.683 10.333 23.683 23.033 0 12.705-10.025 23.172-23.8 23.172-13.793 0-23.692-10.34-23.692-23.04 0-12.702 10.025-23.165 23.809-23.165m-126.944.37c2.74 0 4.92 2.181 4.92 4.919v20.73c0 7.288 3.632 11.05 9.631 11.05 6.001 0 9.639-3.631 9.639-10.7V99.3a4.881 4.881 0 0 1 4.91-4.918 4.878 4.878 0 0 1 4.914 4.918v20.687c0 13.527-7.586 20.155-19.594 20.155-11.986 0-19.336-6.684-19.336-19.844V99.3a4.879 4.879 0 0 1 4.916-4.918m45.569 0a4.883 4.883 0 0 1 4.92 4.925v35.611a4.883 4.883 0 0 1-4.92 4.924 4.888 4.888 0 0 1-4.922-4.924V99.307c0-2.75 2.18-4.924 4.922-4.924zm-78.504 8.684c-7.921 0-13.406 6.319-13.406 13.979 0 7.667 5.606 14.11 13.53 14.11 7.907 0 13.403-6.329 13.403-13.977 0-7.67-5.613-14.112-13.527-14.112m159.762 0c-7.917 0-13.407 6.319-13.407 13.979 0 7.667 5.608 14.11 13.524 14.11 7.914 0 13.416-6.329 13.416-13.977 0-7.67-5.615-14.112-13.533-14.112" style="fill:#fff;fill-opacity:1;fill-rule:nonzero;stroke:none;stroke-width:1.25"/></g></svg>