<svg xmlns="http://www.w3.org/2000/svg" width="350" height="100" version="1.0"><path d="M257.176 34.722c0-.693.228-1.039.525-1.168.307-.148.485-.188.94-.396.535-.247.812-.534.218-1.494-.534-.841-2.148-3.346-2.91-4.543-.584-.94-.613-1.505-.613-2.04v-2.058c0-3.682-2.475-8.215-5.246-9.541-3.316-1.614-7.404-1.366-12.976.811-5.563 2.168-9.522 5.85-16.47 8.582-11.363 4.464-21.142 2.048-22.023-3.752 5.8 0 10.422-1.573 13.085-2.9 2.672-1.336 14.292-6.077 17.301-6.889 34.761-9.422 38.909 24.072 31.327 33.257-.653.871-.267.93.356.99.624.06 53.557 5.661 53.557 5.661l.337.772h-59.496c-1.801 0-3.87-1.247-4.711-2.375-.842-1.138-3.801-5.424-3.801-5.424 2.96.237 6.572.376 7.552.376 1.623 0 3.048-1.05 3.048-2.474zM216.15 54.914c1.198.673 3.83.514 4.84.307 1.604-.307 19.499-2.623 21.538-2.574-1.287-1.316-4.335-4.414-4.93-5.038-1.415-1.494-2.88-2.237-6.344-1.672-6.889 1.138-14.183 3.84-18.45 5.69zm-57.1 36.513c-2.99 1.296-4.207 1.237-5.988-.545-1.297-1.306-4.98-4.89-4.98-4.89 56.517-24.021 163.216-33.444 191.959-32.78l.475 1.058C290.69 57.081 200.452 72.393 159.05 91.427M30.359 24.696l-1.723.04-7.166.039h-1.94l-6.8-.04-1.435-.04-.594-.019-1.217 7.512.831-.02c1.09-.049 1.545-.079 2.02-.474.386-.278.643-.763.98-1.594.01-.01.465-1.198.465-1.198.079-.188.267-.683.356-.791.02 0 .05-.01.05-.01.544-.1 1.8-.129 3.503-.129-.168 1.366-1.623 13.283-1.623 13.283-.465 3.523-.782 4.74-1.663 6.176L13.75 48.5l2.682-.07h.268l3.583.04h.227c1.08 0 1.633-.069 2.188-.693.376-.366.574-.692.89-1.494l.377-.93h-1.881c-.663.03-1.128.02-1.505-.02.1-.426.218-.96.218-.96.228-.97.545-2.91.703-4.296l1.485-12.145c1.752.02 3.365.05 3.84.149.07.396.139 1.524.198 2.484 0 .02.119 1.614.119 1.614l.643-.01c1.742-.05 2.366-.614 2.603-2.307l.772-5.186zm28.574 20.587c.09-.425.189-.851.189-.851 0-.01.237-1.554.237-1.554-.01.04.485-3.375.485-3.375 0 .01.733-5.721.733-5.721l.722-5.365c0-.03.287-1.97.307-1.999 0-.03.02-.148.02-.148l.405-1.564-.91-.01-1.722.04-1.92.039h-.901l-1.04.05c-.425.049-.85.257-1.197.613-.366.416-.564.762-.841 1.534l-.347.95 1.9-.069s.693.03 1.287.07c-.079.455-.168.91-.168.91l-.307 2.435-.04.247-.415 3.138h-8.68c.049-.426.098-.88.098-.88 0 .019.357-2.663.357-2.663l.366-2.732c0 .01.337-1.91.337-1.91.01-.07.178-.891.178-.891l.168-.842-.861-.04-1.673.04-1.96.04h-.9c-1.08 0-1.614.06-2.208.653-.356.396-.544.733-.87 1.525l-.416.98 1.96-.08s.712.04 1.326.07c-.188.93-.366 2.058-.545 3.592L40.82 41.552c-.158 1.554-.425 2.989-.633 3.83.01-.02-.643 1.772-.643 1.772-.03.08-.139.426-.139.426l-.307.91 2.356-.06h.307l2.94.04h.267c1.01 0 1.593-.109 2.157-.722.347-.307.545-.634.881-1.465l.376-.93H46.65s-.782-.04-1.425-.07c.099-.425.188-.851.188-.851 0-.01.238-1.554.238-1.554-.01.04.485-3.375.485-3.375 0 .01.108-.881.198-1.495h8.67c-.129 1.04-.426 3.554-.426 3.554-.188 1.346-.455 2.83-.683 3.77a9.013 9.013 0 0 1-.643 1.822l-.148.426-.297.91 2.365-.06h.297l2.97.04h.237c1.02 0 1.594-.109 2.158-.722.346-.307.554-.634.88-1.465l.377-.93h-1.732s-.782-.04-1.426-.07m32.129-.02c-.198-1-4.019-20.587-4.019-20.587l-.604.02-1.712.04-3.217.039c-1.088 0-1.484.03-1.94.267-.514.159-1.01.644-1.534 1.554-.04.08-.158.337-.158.337l-.426.98 2.86-.08-6.373 12.274c-.03.04-.842 1.593-.842 1.593-.01 0-1.722 3.207-1.722 3.207l-1.01 1.722c0 .01-1.286 1.812-1.286 1.812l1.316.03 2.079-.04 2.227.05.148-.525c.168-.693.376-1.208 1.03-2.633l2.286-4.92c0-.01.198-.455.356-.791h6.137c.129.693.396 2.108.396 2.108.455 2.573.673 4.197.673 5.107l-.06 1.633.743.01 1.376-.04h.267l2.316.04h.237c1.02 0 1.634-.109 2.188-.722.346-.307.554-.634.88-1.465l.377-.93h-1.534s-1.099-.07-1.455-.09m-7.938-15.212c.168 1.197.356 2.583.356 2.583 0-.02.525 3.256.525 3.256l.02.09s.059.247.098.435h-4.048c.564-1.188 2.02-4.217 3.049-6.364m34.484 11.342c-.347.287-.584.743-.94 1.584l-.535 1.128c-.277.624-.386.772-.426.812-.198.119-1 .168-2.395.168 0 0-2.603-.069-2.653-.069.307-1.435.634-3.435.891-5.434l.683-5.81.762-5.305c-.01.01.218-1.119.218-1.119.01-.069.257-1.534.257-1.534l-.178.307.851-1.514-1.207.128h-1.722l-2.406.04h-1.068l-1.04.05c-.425.049-.841.257-1.197.613-.347.386-.535.723-.871 1.515l-.416.98 1.96-.09s.841.06 1.494.1c-.178.97-.366 2.147-.524 3.582l-1.257 10.027c-.228 1.86-.535 3.484-.822 4.483 0-.01-.584 1.485-.584 1.485l-.376.96 1.05-.01 2.919-.118c0 .01.277.04.277.04l10.145.078h.574l1.436-7.512h-.812c-1.099 0-1.603.03-2.088.435M149.2 24.735l-2.603-.05-.178.466c-.247.723-.515 1.237-1.277 2.514-.01.01-2.741 4.632-2.741 4.632 0 .01-.842 1.386-1.485 2.435-.287-.792-.594-1.603-.594-1.603 0-.01-.604-1.653-.604-1.653-.85-2.287-1.544-4.276-1.85-5.335-.01-.03-.218-.89-.218-.89l-.129-.535-.584-.02-1.712.04-1.396.039h-.703l-1.01.05c-.484.049-.9.267-1.217.643-.386.366-.574.742-.88 1.485l-.416.98 1.88-.09s.762.08 1.208.12c.277.702 4.236 10.57 4.355 10.867-.03.307-.327 2.732-.327 2.732-.208 1.82-.514 3.464-.811 4.464-.01.04-.535 1.474-.535 1.474l-.346.94 1 .03 1.375-.04h.307l3.009.04h.238c1.01 0 1.583-.109 2.147-.722.347-.307.555-.634.891-1.465l.366-.93h-1.771s-.802-.05-1.435-.07c.079-.435.168-.86.168-.86-.01.009.336-1.822.336-1.822l.228-1.217c0-.02.188-1.198.188-1.198 0 .01.148-.871.208-1.188.168-.237 4.355-6.374 4.355-6.374-.02.01 1.02-1.435 1.02-1.435l2.177-3.059c1.118-1.623 1.227-1.742 1.752-2.276l1.197-1.198-1.712.04-1.87.04zm28.19.723c-2.198-.792-4.366-1.178-6.612-1.178-2.544 0-4.702.703-6.246 2.03-1.574 1.325-2.643 3.523-2.643 5.443 0 1.554.634 2.95 1.772 3.91.643.524 1.237.89 2.415 1.504l3.464 1.9c.911.456 1.218.664 1.663 1.01.614.515.96 1.287.96 2.138 0 2.692-2.81 2.99-4.018 2.99l-1.99-.189c-.99-.238-1.316-.376-1.425-.426-.109-.316-.178-1.662-.218-2.484l-.04-.91-.029-.654h-.653c-1.742 0-2.386.564-2.613 2.306 0-.01-.614 4-.614 4l-.08.543.516.198c2.335.871 4.147 1.218 6.265 1.218 5.8-.04 9.848-3.365 9.848-8.077.04-2.543-1.069-4.097-4.107-5.72l-.733-.387-3.533-1.94a6.277 6.277 0 0 1-1.356-.94c-.545-.445-.693-.782-.693-1.485 0-1.573 1.475-2.603 3.741-2.603 1.109 0 2.237.218 3.187.604l.08.04c.069.336.188 1.296.257 3.404l.03.693.682-.04c1.782-.098 2.386-.643 2.623-2.345l.614-4.355z" style="fill:#af1634;fill-opacity:1;fill-rule:nonzero;stroke:none"/></svg>