<svg xmlns="http://www.w3.org/2000/svg" xml:space="preserve" width="602.827" height="187.635"><defs><clipPath id="a" clipPathUnits="userSpaceOnUse"><path d="M0 595.28h841.89V0H0Z"/></clipPath></defs><g clip-path="url(#a)" style="stroke-width:1.22993" transform="matrix(1.08407 0 0 -1.08407 -55.25 463.155)"><g style="stroke-width:1.22993"><path d="M0 0s-52.012-78.957 14.027-145.608v66.502H-6.07v13.464h54.834v-13.464H28.681v-93.978h9.1v14.187c0 3.379 1.069 6.633 2.882 9.486C107.953-43.535 0 0 0 0" style="fill:#82be00;fill-opacity:1;fill-rule:nonzero;stroke:none;stroke-width:1.22993" transform="translate(70.425 427.237)"/></g></g><g style="stroke-width:1.22993"><path d="M0 0c-8.432 2.311-12.405 3.804-12.405 7.496 0 4.105 3.426 6.556 9.166 6.556 9.147 0 22.247-2.119 22.247-2.119l.102 13.674S8.512 28.025-1.545 28.025c-15.537 0-25.577-8.058-25.577-20.529 0-14.698 13.039-18.273 22.559-20.884 8.433-2.311 12.405-3.804 12.405-7.495 0-2.588-1.346-6.929-10.363-6.929-9.941 0-24.673 2.061-24.673 2.061V-39.25s11.95-2.282 23.952-2.282c15.674 0 25.801 8.105 25.801 20.649C22.559-6.184 9.521-2.61 0 0" style="fill:#82be00;fill-opacity:1;fill-rule:nonzero;stroke:none;stroke-width:1.22993" transform="matrix(1.08407 0 0 -1.08407 326.808 114.475)"/></g><g style="stroke-width:1.22993"><path d="M0 0c-6.889 0-14.424-2.639-19.937-6.868v5.335h-14.526v-66.514h14.526v43.858C-16.735-17.911-7.332-14.526 0-14.526h2.606V0Z" style="fill:#82be00;fill-opacity:1;fill-rule:nonzero;stroke:none;stroke-width:1.22993" transform="matrix(1.08407 0 0 -1.08407 136.08 84.082)"/></g><g style="stroke-width:1.22993"><path d="M0 0c-10.512 0-18.142 8.919-18.142 21.207 0 12.348 7.558 20.971 18.378 20.971 10.681 0 18.141-8.623 18.141-20.971C18.377 8.523 10.992 0 0 0m18.377 54.346v-5.371C13.294 53.503 6.92 55.879-.236 55.879c-19.165 0-32.55-14.258-32.55-34.672C-32.786.654-19.691-13.7-.943-13.7c9.135 0 15.466 3.971 18.967 7.001v-5.469h14.525v66.514z" style="fill:#82be00;fill-opacity:1;fill-rule:nonzero;stroke:none;stroke-width:1.22993" transform="matrix(1.08407 0 0 -1.08407 175.747 144.659)"/></g><path d="M399.688 157.85h15.747V59.8h-15.747zm-35.338 0h15.745V85.742H364.35z" style="fill:#82be00;fill-opacity:1;fill-rule:nonzero;stroke:none;stroke-width:1.33333"/><g style="stroke-width:1.22993"><path d="M0 0c5.08 0 9.059 3.979 9.059 9.059 0 5.015-3.979 8.944-9.059 8.944-4.931 0-8.943-4.012-8.943-8.944C-8.943 3.979-5.015 0 0 0" style="fill:#82be00;fill-opacity:1;fill-rule:nonzero;stroke:none;stroke-width:1.22993" transform="matrix(1.08407 0 0 -1.08407 372.16 79.317)"/></g><path d="M434.687 157.85h15.746V85.742h-15.746z" style="fill:#82be00;fill-opacity:1;fill-rule:nonzero;stroke:none;stroke-width:1.33333"/><g style="stroke-width:1.22993"><path d="M0 0c5.08 0 9.06 3.979 9.06 9.059 0 5.015-3.98 8.944-9.06 8.944-4.931 0-8.942-4.012-8.942-8.944C-8.942 3.979-5.015 0 0 0" style="fill:#82be00;fill-opacity:1;fill-rule:nonzero;stroke:none;stroke-width:1.22993" transform="matrix(1.08407 0 0 -1.08407 442.497 79.317)"/></g><g style="stroke-width:1.22993"><path d="M0 0c-16.222 0-27.12-10.433-27.12-25.96v-42.087h14.532v39.982c0 9.44 4.235 14.226 12.588 14.226 8.295 0 12.5-4.757 12.5-14.138v-40.07h14.621v42.175C27.121-10.397 16.222 0 0 0" style="fill:#82be00;fill-opacity:1;fill-rule:nonzero;stroke:none;stroke-width:1.22993" transform="matrix(1.08407 0 0 -1.08407 255.496 84.082)"/></g><g style="stroke-width:1.22993"><path d="M0 0c-16.222 0-27.12-10.433-27.12-25.96v-42.087h14.532v39.982c0 9.44 4.235 14.226 12.588 14.226 8.295 0 12.5-4.757 12.5-14.138v-40.07h14.621v42.175C27.121-10.397 16.222 0 0 0" style="fill:#82be00;fill-opacity:1;fill-rule:nonzero;stroke:none;stroke-width:1.22993" transform="matrix(1.08407 0 0 -1.08407 573.426 84.082)"/></g><g style="stroke-width:1.22993"><path d="M0 0c1.696 8.196 8.52 14.002 16.719 14.002 7.109 0 15.052-3.71 16.691-14.002zm16.719 27.231c-18.724 0-32.314-14.73-32.314-35.024 0-20.022 14.782-34.554 35.147-34.554 13.773 0 23.534 5.897 23.534 5.897l-.048 15.013s-8.398-7.445-21.913-7.445c-11.587 0-20.524 6.95-21.792 16.714h48.745s.365 2.838.365 5.435c0 20.315-12.749 33.964-31.724 33.964" style="fill:#82be00;fill-opacity:1;fill-rule:nonzero;stroke:none;stroke-width:1.22993" transform="matrix(1.08407 0 0 -1.08407 479.57 113.603)"/></g></svg>