<svg xmlns="http://www.w3.org/2000/svg" width="64" height="64"><path d="M3 3h58v58H3Z" style="fill:#fff;fill-opacity:1;stroke:#000;stroke-width:5.99978;stroke-miterlimit:4;stroke-dasharray:none;stroke-opacity:1"/><g aria-label="3 4" style="font-style:normal;font-weight:400;font-size:21.5713px;line-height:1.25;font-family:sans-serif;text-align:center;letter-spacing:0;word-spacing:0;text-anchor:middle;fill:#000;fill-opacity:1;stroke:none;stroke-width:.539282"><path d="M21.825 12.178h-5.477q-.916 0-.916-.705 0-.674.916-.674H23.1q.821 0 .821.558 0 .295-.2.537l-3.276 4.002q.306-.063.6-.063 1.391 0 2.202.874.822.864.822 2.255 0 2.675-2.75 4.666-2.517 1.832-5.287 1.832Q15 25.46 15 24.84q0-.632.864-.632 1.59 0 2.875-.569 1.496-.653 2.591-1.79 1.306-1.349 1.306-2.76 0-.769-.505-1.317-.495-.558-1.254-.558-.59 0-1.432.358-.843.358-1.053.358-.495 0-.495-.6 0-.337.252-.643zM20.614 50.19H15.8q-.653 0-.653-.485 0-.264.243-1.001l3.107-9.49q.179-.548.242-.653.19-.316.548-.316.653 0 .653.621 0 .148-.105.485l-2.981 9.448h3.76v-5.846q0-.811.727-.811.705 0 .705.811v5.846h1.507q.8 0 .8.695t-.8.695h-1.507v2.201q0 .811-.716.811t-.716-.81z" style="font-style:normal;font-variant:normal;font-weight:400;font-stretch:normal;font-family:saxMono;-inkscape-font-specification:saxMono;text-align:center;text-anchor:middle;stroke-width:.539282"/></g><g aria-label="V" style="font-style:normal;font-weight:400;font-size:21.5713px;line-height:1.25;font-family:sans-serif;text-align:center;letter-spacing:0;word-spacing:0;text-anchor:middle;fill:#000;fill-opacity:1;stroke:none;stroke-width:.539282"><path d="m42.13 36.75 3.707-11.638q.19-.59.685-.59.684 0 .684.59 0 .2-.073.431l-4.33 13.472q-.147.463-.684.463t-.685-.463l-4.36-13.472Q37 25.312 37 25.112q0-.59.674-.59.474 0 .664.59z" style="font-style:normal;font-variant:normal;font-weight:400;font-stretch:normal;font-family:saxMono;-inkscape-font-specification:saxMono;text-align:center;text-anchor:middle;stroke-width:.539282"/></g></svg>