<?xml version="1.0" encoding="UTF-8" standalone="no"?>
<svg
   xmlns:dc="http://purl.org/dc/elements/1.1/"
   xmlns:cc="http://creativecommons.org/ns#"
   xmlns:rdf="http://www.w3.org/1999/02/22-rdf-syntax-ns#"
   xmlns:svg="http://www.w3.org/2000/svg"
   xmlns="http://www.w3.org/2000/svg"
   height="64"
   width="64"
   version="1.1"
   id="svg2">
  <metadata
     id="metadata8">
    <rdf:RDF>
      <cc:Work
         rdf:about="">
        <dc:format>image/svg+xml</dc:format>
        <dc:type
           rdf:resource="http://purl.org/dc/dcmitype/StillImage" />
        <dc:title></dc:title>
      </cc:Work>
    </rdf:RDF>
  </metadata>
  <defs
     id="defs6" />
  <rect
     style="fill:#ffffff;fill-opacity:1;stroke:#000000;stroke-width:5.99978;stroke-miterlimit:4;stroke-dasharray:none;stroke-opacity:1"
     id="rect2989-6"
     width="58.000221"
     height="57.999866"
     x="2.9998899"
     y="2.9998899" />
  <g
     style="font-style:normal;font-weight:normal;font-size:28.8451px;line-height:1.25;font-family:sans-serif;letter-spacing:0px;word-spacing:0px;fill:#000000;fill-opacity:1;stroke:none;stroke-width:0.721129"
     id="text833"
     aria-label="6V">
    <path
       id="path858"
       style="font-style:normal;font-variant:normal;font-weight:normal;font-stretch:normal;font-family:saxMono;-inkscape-font-specification:saxMono;stroke-width:0.721129"
       d="m 20.021114,32.422535 q 1.563382,-1.774649 4.126765,-1.774649 2.3662,0 3.943666,1.633804 1.591551,1.61972 1.591551,4.000004 0,2.464792 -1.690142,4.098596 -1.690143,1.61972 -4.169019,1.61972 -2.971834,0 -4.577469,-1.943664 -1.49296,-1.802819 -1.49296,-4.816906 0,-6.380289 5.338034,-10.90142 2.760566,-2.338031 4.126765,-2.338031 0.732395,0 0.732395,0.774649 0,0.408451 -0.380282,0.718311 -0.05634,0.04225 -0.74648,0.450704 -5.647893,3.338032 -6.802824,8.478882 z m 3.802821,0.09859 q -1.788734,0 -2.92958,0.943663 -1.225354,1.000001 -1.225354,2.760566 0,1.746481 1.140847,2.845074 1.15493,1.084508 2.915496,1.084508 1.74648,0 2.887327,-1.056339 1.140846,-1.056339 1.140846,-2.788736 0,-1.718311 -1.098593,-2.746481 -1.098593,-1.042255 -2.830989,-1.042255 z" />
    <path
       id="path860"
       style="font-style:normal;font-variant:normal;font-weight:normal;font-stretch:normal;font-family:saxMono;-inkscape-font-specification:saxMono;stroke-width:0.721129"
       d="m 39.457754,38.352119 4.957752,-15.563396 q 0.253521,-0.788734 0.915493,-0.788734 0.915494,0 0.915494,0.788734 0,0.267606 -0.09859,0.577465 l -5.788739,18.014103 q -0.197183,0.619719 -0.915494,0.619719 -0.71831,0 -0.915494,-0.619719 L 32.697183,23.366188 q -0.09859,-0.309859 -0.09859,-0.577465 0,-0.788734 0.901409,-0.788734 0.633804,0 0.887325,0.788734 z" />
  </g>
</svg>
