<svg xmlns="http://www.w3.org/2000/svg" width="64" height="64"><path d="M3 3h58v58H3z" style="fill:#fff;fill-opacity:1;stroke:#000;stroke-width:5.99978;stroke-miterlimit:4;stroke-dasharray:none;stroke-opacity:1"/><g aria-label="8 10" style="font-style:normal;font-weight:400;font-size:21.5713px;line-height:1.25;font-family:sans-serif;text-align:center;letter-spacing:0;word-spacing:0;text-anchor:middle;fill:#000;fill-opacity:1;stroke:none;stroke-width:.539282"><path d="M17.812 17.455q-1.948-.958-1.948-2.949 0-1.664 1.148-2.76 1.148-1.095 2.812-1.095 1.643 0 2.728 1.053 1.085 1.054 1.085 2.697 0 1.896-1.812 3.033 2.391 1.117 2.391 3.771 0 1.99-1.19 3.202-1.19 1.2-3.18 1.2-1.95 0-3.224-1.179-1.327-1.211-1.327-3.139 0-2.707 2.517-3.834zm2.023-.6q1.084 0 1.716-.622.643-.631.643-1.716t-.664-1.78q-.663-.696-1.738-.696-1.084 0-1.79.717-.695.716-.695 1.811 0 1.054.748 1.686.705.6 1.78.6zm-.01 1.285q-1.38 0-2.234.853-.853.843-.853 2.223t.927 2.296q.937.906 2.328.906 1.306 0 2.064-.906.716-.864.716-2.233 0-1.348-.79-2.223-.821-.916-2.159-.916zM13.404 51.674V40.056H11.32q-.79 0-.79-.684 0-.695.79-.695h2.802q.716 0 .716.695v12.302h2.212q.81 0 .81.737 0 .654-.81.654H10.76q-.812 0-.812-.696 0-.695.812-.695zM21.21 48.925v-6.109q0-1.949 1.19-3.18 1.2-1.244 3.296-1.244t3.265 1.243q1.17 1.243 1.17 3.181v6.11q0 2.148-1.138 3.285-1.138 1.138-3.297 1.138-2.096 0-3.297-1.17-1.19-1.168-1.19-3.254zm7.477 0v-6.109q0-1.338-.81-2.18-.801-.853-2.286-.853-2.939 0-2.939 3.033v6.11q0 1.442.8 2.243.801.8 2.255.8 2.98 0 2.98-3.044z" style="font-style:normal;font-variant:normal;font-weight:400;font-stretch:normal;font-family:saxMono;-inkscape-font-specification:saxMono;text-align:center;text-anchor:middle;stroke-width:.539282"/></g><g aria-label="V" style="font-style:normal;font-weight:400;font-size:21.5713px;line-height:1.25;font-family:sans-serif;text-align:center;letter-spacing:0;word-spacing:0;text-anchor:middle;fill:#000;fill-opacity:1;stroke:none;stroke-width:.539282"><path d="m42.13 36.75 3.707-11.638q.19-.59.685-.59.684 0 .684.59 0 .2-.073.431l-4.33 13.472q-.147.463-.684.463t-.685-.463l-4.36-13.472Q37 25.312 37 25.112q0-.59.674-.59.474 0 .664.59z" style="font-style:normal;font-variant:normal;font-weight:400;font-stretch:normal;font-family:saxMono;-inkscape-font-specification:saxMono;text-align:center;text-anchor:middle;stroke-width:.539282"/></g></svg>