<?xml version="1.0" encoding="UTF-8" standalone="no"?>
<svg
   xmlns:dc="http://purl.org/dc/elements/1.1/"
   xmlns:cc="http://creativecommons.org/ns#"
   xmlns:rdf="http://www.w3.org/1999/02/22-rdf-syntax-ns#"
   xmlns:svg="http://www.w3.org/2000/svg"
   xmlns="http://www.w3.org/2000/svg"
   height="64"
   width="64"
   version="1.1"
   id="svg2">
  <metadata
     id="metadata8">
    <rdf:RDF>
      <cc:Work
         rdf:about="">
        <dc:format>image/svg+xml</dc:format>
        <dc:type
           rdf:resource="http://purl.org/dc/dcmitype/StillImage" />
        <dc:title></dc:title>
      </cc:Work>
    </rdf:RDF>
  </metadata>
  <defs
     id="defs6" />
  <rect
     style="fill:#ffffff;fill-opacity:1;stroke:#000000;stroke-width:5.99978;stroke-miterlimit:4;stroke-dasharray:none;stroke-opacity:1"
     id="rect2989-6"
     width="58.000221"
     height="57.999866"
     x="2.9998899"
     y="2.9998899" />
  <g
     style="font-style:normal;font-weight:normal;font-size:21.5713px;line-height:1.25;font-family:sans-serif;text-align:center;letter-spacing:0px;word-spacing:0px;text-anchor:middle;fill:#000000;fill-opacity:1;stroke:none;stroke-width:0.539282"
     id="text833"
     aria-label="6
8">
    <path
       id="path1410"
       style="font-style:normal;font-variant:normal;font-weight:normal;font-stretch:normal;font-family:saxMono;-inkscape-font-specification:saxMono;text-align:center;text-anchor:middle;stroke-width:0.539282"
       d="m 16.99071,18.445398 q 1.169148,-1.327141 3.086128,-1.327141 1.769521,0 2.949202,1.221812 1.190213,1.211279 1.190213,2.991333 0,1.843251 -1.263943,3.065063 -1.263944,1.211279 -3.117727,1.211279 -2.222434,0 -3.42318,-1.453535 -1.116484,-1.348206 -1.116484,-3.602239 0,-4.771386 3.991955,-8.152435 2.064441,-1.748455 3.086128,-1.748455 0.547709,0 0.547709,0.579308 0,0.305453 -0.284387,0.537176 -0.04213,0.0316 -0.558242,0.337051 -4.223677,2.496289 -5.087372,6.340783 z m 2.843873,0.07373 q -1.337674,0 -2.190836,0.705702 -0.916359,0.747833 -0.916359,2.064441 0,1.306074 0.853162,2.127638 0.863695,0.81103 2.180303,0.81103 1.306074,0 2.159236,-0.789965 0.853162,-0.789964 0.853162,-2.085506 0,-1.285009 -0.821563,-2.053908 -0.821563,-0.779432 -2.117105,-0.779432 z" />
    <path
       id="path1412"
       style="font-style:normal;font-variant:normal;font-weight:normal;font-stretch:normal;font-family:saxMono;-inkscape-font-specification:saxMono;text-align:center;text-anchor:middle;stroke-width:0.539282"
       d="m 17.812273,45.196486 q -1.948579,-0.95849 -1.948579,-2.949201 0,-1.664192 1.148082,-2.75961 1.148082,-1.095417 2.812274,-1.095417 1.643126,0 2.728011,1.053286 1.084885,1.053286 1.084885,2.696412 0,1.895915 -1.811653,3.033464 2.39096,1.116484 2.39096,3.770765 0,1.990711 -1.190213,3.20199 -1.190214,1.200746 -3.180925,1.200746 -1.948579,0 -3.223055,-1.17968 -1.327141,-1.21128 -1.327141,-3.138793 0,-2.706946 2.517354,-3.833962 z m 2.02231,-0.600373 q 1.084884,0 1.716856,-0.621439 0.642505,-0.631971 0.642505,-1.716856 0,-1.084885 -0.663571,-1.780054 -0.66357,-0.695169 -1.737922,-0.695169 -1.084885,0 -1.790586,0.716235 -0.695169,0.716234 -0.695169,1.811652 0,1.053286 0.747833,1.685258 0.705702,0.600373 1.780054,0.600373 z m -0.01053,1.285009 q -1.379805,0 -2.232967,0.853162 -0.853162,0.842629 -0.853162,2.222434 0,1.379805 0.926892,2.296164 0.937425,0.905826 2.327763,0.905826 1.306074,0 2.06444,-0.905826 0.716235,-0.863695 0.716235,-2.232967 0,-1.348206 -0.789965,-2.222434 -0.821563,-0.916359 -2.159236,-0.916359 z" />
  </g>
  <g
     style="font-style:normal;font-weight:normal;font-size:21.5713px;line-height:1.25;font-family:sans-serif;text-align:center;letter-spacing:0px;word-spacing:0px;text-anchor:middle;fill:#000000;fill-opacity:1;stroke:none;stroke-width:0.539282"
     id="text1326"
     aria-label="V">
    <path
       id="path1357"
       style="font-style:normal;font-variant:normal;font-weight:normal;font-stretch:normal;font-family:saxMono;-inkscape-font-specification:saxMono;text-align:center;text-anchor:middle;stroke-width:0.539282"
       d="m 42.129503,36.750319 3.707568,-11.638812 q 0.189591,-0.58984 0.684636,-0.58984 0.684636,0 0.684636,0.58984 0,0.200124 -0.07373,0.431847 l -4.329006,13.47153 q -0.14746,0.463446 -0.684636,0.463446 -0.537176,0 -0.684636,-0.463446 L 37.07373,25.543354 Q 37,25.311631 37,25.111507 q 0,-0.58984 0.674103,-0.58984 0.473979,0 0.66357,0.58984 z" />
  </g>
</svg>
