<?xml version="1.0" encoding="UTF-8" standalone="no"?>
<svg
   xmlns:dc="http://purl.org/dc/elements/1.1/"
   xmlns:cc="http://creativecommons.org/ns#"
   xmlns:rdf="http://www.w3.org/1999/02/22-rdf-syntax-ns#"
   xmlns:svg="http://www.w3.org/2000/svg"
   xmlns="http://www.w3.org/2000/svg"
   height="64"
   width="64"
   version="1.1"
   id="svg2">
  <metadata
     id="metadata8">
    <rdf:RDF>
      <cc:Work
         rdf:about="">
        <dc:format>image/svg+xml</dc:format>
        <dc:type
           rdf:resource="http://purl.org/dc/dcmitype/StillImage" />
        <dc:title></dc:title>
      </cc:Work>
    </rdf:RDF>
  </metadata>
  <defs
     id="defs6" />
  <path
     d="M 2.9998899,2.9998899 H 61.000111 V 60.999756 H 2.9998899 Z"
     style="fill:#ffffff;fill-opacity:1;stroke:#000000;stroke-width:5.99978;stroke-miterlimit:4;stroke-dasharray:none;stroke-opacity:1"
     id="rect2989-6" />
  <g
     style="font-style:normal;font-weight:normal;font-size:21.5713px;line-height:1.25;font-family:sans-serif;text-align:center;letter-spacing:0px;word-spacing:0px;text-anchor:middle;fill:#000000;fill-opacity:1;stroke:none;stroke-width:0.539282"
     id="text833"
     aria-label="3
4">
    <path
       id="path1333"
       style="font-style:normal;font-variant:normal;font-weight:normal;font-stretch:normal;font-family:saxMono;-inkscape-font-specification:saxMono;text-align:center;text-anchor:middle;stroke-width:0.539282"
       d="m 21.825293,12.178345 h -5.477088 q -0.916359,0 -0.916359,-0.705702 0,-0.674103 0.916359,-0.674103 h 6.751565 q 0.821563,0 0.821563,0.558241 0,0.29492 -0.200124,0.537176 l -3.27572,4.002488 q 0.305453,-0.0632 0.600373,-0.0632 1.390337,0 2.201368,0.874228 0.821563,0.863695 0.821563,2.254032 0,2.675347 -2.749077,4.666058 -2.517354,1.832718 -5.287496,1.832718 -1.032221,0 -1.032221,-0.621439 0,-0.631972 0.863695,-0.631972 1.590462,0 2.875471,-0.568774 1.495666,-0.653038 2.591084,-1.790587 1.306075,-1.348206 1.306075,-2.759609 0,-0.768899 -0.505578,-1.316608 -0.495044,-0.558242 -1.25341,-0.558242 -0.58984,0 -1.432469,0.358118 -0.842629,0.358117 -1.053286,0.358117 -0.495045,0 -0.495045,-0.600373 0,-0.337052 0.252789,-0.642505 z" />
    <path
       id="path1335"
       style="font-style:normal;font-variant:normal;font-weight:normal;font-stretch:normal;font-family:saxMono;-inkscape-font-specification:saxMono;text-align:center;text-anchor:middle;stroke-width:0.539282"
       d="m 20.614014,50.189062 h -4.813517 q -0.653038,0 -0.653038,-0.484512 0,-0.263321 0.242256,-1.000622 l 3.107194,-9.490108 q 0.179059,-0.547709 0.242256,-0.653037 0.189592,-0.315986 0.547709,-0.315986 0.653037,0 0.653037,0.621438 0,0.147461 -0.105328,0.484512 l -2.9808,9.447977 h 3.760231 v -5.845738 q 0,-0.811031 0.726768,-0.811031 0.705702,0 0.705702,0.811031 v 5.845738 h 1.506199 q 0.800497,0 0.800497,0.695169 0,0.695169 -0.800497,0.695169 h -1.506199 v 2.201368 q 0,0.81103 -0.716235,0.81103 -0.716235,0 -0.716235,-0.81103 z" />
  </g>
  <g
     style="font-style:normal;font-weight:normal;font-size:21.5713px;line-height:1.25;font-family:sans-serif;text-align:center;letter-spacing:0px;word-spacing:0px;text-anchor:middle;fill:#000000;fill-opacity:1;stroke:none;stroke-width:0.539282"
     id="text1326"
     aria-label="V">
    <path
       id="path1330"
       style="font-style:normal;font-variant:normal;font-weight:normal;font-stretch:normal;font-family:saxMono;-inkscape-font-specification:saxMono;text-align:center;text-anchor:middle;stroke-width:0.539282"
       d="m 42.129503,36.750319 3.707568,-11.638812 q 0.189591,-0.58984 0.684636,-0.58984 0.684636,0 0.684636,0.58984 0,0.200124 -0.07373,0.431847 l -4.329006,13.47153 q -0.14746,0.463446 -0.684636,0.463446 -0.537176,0 -0.684636,-0.463446 L 37.07373,25.543354 Q 37,25.311631 37,25.111507 q 0,-0.58984 0.674103,-0.58984 0.473979,0 0.66357,0.58984 z" />
  </g>
</svg>
