<svg xmlns="http://www.w3.org/2000/svg" width="64" height="64"><path d="M3 3h58v58H3z" style="fill:#fff;fill-opacity:1;stroke:#000;stroke-width:5.99978;stroke-miterlimit:4;stroke-dasharray:none;stroke-opacity:1"/><g aria-label="7V" style="font-style:normal;font-weight:400;font-size:28.8451px;line-height:1.25;font-family:sans-serif;letter-spacing:0;word-spacing:0;fill:#000;fill-opacity:1;stroke:none;stroke-width:.721129"><path d="M27.768 24.225h-8.916q-1.197 0-1.197-.943 0-.902 1.197-.902H28.88q1.099 0 1.099.775 0 .324-.423 1.394l-6.479 16.48q-.38.971-1.07.971-.831 0-.831-.845 0-.268.296-1.014zM39.556 38.352l4.958-15.563q.254-.789.916-.789.915 0 .915.789 0 .267-.099.577L40.458 41.38q-.197.62-.916.62-.718 0-.915-.62l-5.831-18.014q-.099-.31-.099-.577 0-.789.902-.789.633 0 .887.789z" style="font-style:normal;font-variant:normal;font-weight:400;font-stretch:normal;font-family:saxMono;-inkscape-font-specification:saxMono;stroke-width:.721129"/></g></svg>