<svg xmlns="http://www.w3.org/2000/svg" width="64" height="64"><path d="M3 3h58v58H3z" style="fill:#fff;fill-opacity:1;stroke:#000;stroke-width:5.99978;stroke-miterlimit:4;stroke-dasharray:none;stroke-opacity:1"/><g aria-label="14V" style="font-style:normal;font-weight:400;font-size:28.8451px;line-height:1.25;font-family:sans-serif;letter-spacing:0;word-spacing:0;fill:#000;fill-opacity:1;stroke:none;stroke-width:.721129"><path d="M14.845 39.76V24.226h-2.789Q11 24.225 11 23.31q0-.93 1.056-.93h3.747q.958 0 .958.93v16.45h2.957q1.085 0 1.085.986 0 .874-1.085.874H11.31q-1.085 0-1.085-.93t1.085-.93zM32.394 37.972h-6.436q-.873 0-.873-.648 0-.352.323-1.338l4.155-12.69q.24-.733.324-.873.254-.423.733-.423.873 0 .873.831 0 .197-.14.648l-3.987 12.634h5.028v-7.817q0-1.085.972-1.085.944 0 .944 1.085v7.817h2.014q1.07 0 1.07.93 0 .929-1.07.929H34.31v2.944q0 1.084-.958 1.084t-.958-1.084zM46.986 38.352l4.958-15.563q.253-.789.915-.789.916 0 .916.789 0 .267-.099.577L47.887 41.38q-.197.62-.915.62t-.916-.62l-5.83-18.014q-.1-.31-.1-.577 0-.789.902-.789.634 0 .888.789z" style="font-style:normal;font-variant:normal;font-weight:400;font-stretch:normal;font-family:saxMono;-inkscape-font-specification:saxMono;stroke-width:.721129"/></g></svg>