<svg xmlns="http://www.w3.org/2000/svg" width="64" height="64"><path d="M3 3h58v58H3z" style="fill:#fff;fill-opacity:1;stroke:#000;stroke-width:5.99978;stroke-miterlimit:4;stroke-dasharray:none;stroke-opacity:1"/><g aria-label="9V" style="font-style:normal;font-weight:400;font-size:28.8451px;line-height:1.25;font-family:sans-serif;letter-spacing:0;word-spacing:0;fill:#000;fill-opacity:1;stroke:none;stroke-width:.721129"><path d="M27.486 31.592q-1.958 1.76-4.07 1.76-2.437 0-4.057-1.591-1.605-1.606-1.605-4.029 0-2.478 1.69-4.098Q21.134 22 23.613 22q2.93 0 4.549 1.93 1.521 1.802 1.521 4.788 0 3.226-1.422 6.17-1.395 2.887-3.888 5Q21.88 42 20.894 42q-.746 0-.746-.775 0-.605.887-1.183 5.141-3.352 6.45-8.45zm-3.873-.099q1.774 0 2.915-.944 1.226-1.014 1.226-2.76 0-1.747-1.155-2.831-1.141-1.099-2.902-1.099-1.746 0-2.859 1.042-1.155 1.07-1.155 2.803 0 1.719 1.099 2.76 1.098 1.029 2.83 1.029zM39.458 38.352l4.958-15.563q.253-.789.915-.789.915 0 .915.789 0 .267-.098.577L40.359 41.38q-.197.62-.915.62-.719 0-.916-.62l-5.83-18.014q-.1-.31-.1-.577 0-.789.902-.789.634 0 .887.789z" style="font-style:normal;font-variant:normal;font-weight:400;font-stretch:normal;font-family:saxMono;-inkscape-font-specification:saxMono;stroke-width:.721129"/></g></svg>