<svg xmlns="http://www.w3.org/2000/svg" width="64" height="64"><path d="M3 3h58v58H3z" style="fill:#fff;fill-opacity:1;stroke:#000;stroke-width:5.99978;stroke-miterlimit:4;stroke-dasharray:none;stroke-opacity:1"/><g aria-label="2V" style="font-style:normal;font-weight:400;font-size:28.8451px;line-height:1.25;font-family:sans-serif;letter-spacing:0;word-spacing:0;fill:#000;fill-opacity:1;stroke:none;stroke-width:.721129"><path d="M20.528 39.76h7.803q1.352 0 1.352.944 0 .916-1.098.916h-9.79q-1.041 0-1.041-.817 0-.366.394-.845l8.31-10.043q1.296-1.563 1.296-2.93 0-1.506-1.212-2.365-1.084-.76-2.648-.76-1.957 0-3.014 1.225-.507.591-1.197 2.281-.493 1.226-1.084 1.226-.845 0-.845-1 0-1.141.746-2.493Q20.218 22 23.993 22q2.352 0 3.944 1.197 1.746 1.324 1.746 3.606 0 1.972-1.972 4.338zM39.458 38.352l4.958-15.563q.253-.789.915-.789.915 0 .915.789 0 .267-.098.577L40.359 41.38q-.197.62-.915.62-.719 0-.916-.62l-5.83-18.014q-.1-.31-.1-.577 0-.789.902-.789.634 0 .887.789z" style="font-style:normal;font-variant:normal;font-weight:400;font-stretch:normal;font-family:saxMono;-inkscape-font-specification:saxMono;stroke-width:.721129"/></g></svg>