<svg xmlns="http://www.w3.org/2000/svg" width="64" height="64"><path d="M3 3h58v58H3z" style="fill:#fff;fill-opacity:1;stroke:#000;stroke-width:5.99978;stroke-miterlimit:4;stroke-dasharray:none;stroke-opacity:1"/><g aria-label="TGV 1-2" style="font-style:normal;font-weight:400;font-size:21.5713px;line-height:1.25;font-family:sans-serif;text-align:center;letter-spacing:0;word-spacing:0;text-anchor:middle;fill:#000;fill-opacity:1;stroke:none;stroke-width:.539282"><path d="M19.603 12.457h-3.855q-.748 0-.748-.663 0-.716.853-.716h8.91q.875 0 .875.684 0 .695-.874.695h-3.729V24.94q0 .821-.705.821-.727 0-.727-.821zM35.634 20.578h-1.938q-.864 0-.864-.684 0-.706.864-.706h2.622q.717 0 .717.864v4.94q0 .758-.653.758-.674 0-.674-.548v-1.116q-1.338 1.664-3.655 1.664-2.096 0-3.413-1.148-1.38-1.211-1.38-3.276v-5.909q0-4.624 4.666-4.624 3.37 0 4.593 2.391.379.748.379 1.422 0 .78-.738.78-.452 0-.747-.832-.4-1.117-.822-1.538-.821-.832-2.549-.832-3.339 0-3.339 3.233v5.91q0 1.526 1.043 2.327.937.716 2.507.716 1.527 0 2.422-.748.959-.79.959-2.296zM43.923 23.022l3.708-11.639q.19-.59.684-.59.685 0 .685.59 0 .2-.074.432l-4.329 13.471q-.147.464-.684.464-.538 0-.685-.464l-4.36-13.471q-.074-.232-.074-.432 0-.59.674-.59.474 0 .663.59zM19.813 51.816V40.2h-2.085q-.79 0-.79-.685 0-.695.79-.695h2.802q.716 0 .716.695v12.302h2.212q.81 0 .81.738 0 .653-.81.653H17.17q-.811 0-.811-.695 0-.696.81-.696zM30.41 47.024h3.286q.821 0 .821.674 0 .695-.81.695h-3.255q-.822 0-.822-.695 0-.674.78-.674zM41.522 51.816h5.835q1.011 0 1.011.706 0 .685-.821.685h-7.32q-.78 0-.78-.611 0-.274.295-.632l6.214-7.51q.97-1.17.97-2.19 0-1.128-.907-1.77-.81-.57-1.98-.57-1.464 0-2.254.917-.38.443-.895 1.706-.369.917-.811.917-.632 0-.632-.748 0-.853.558-1.864 1.285-2.318 4.108-2.318 1.759 0 2.949.896 1.306.99 1.306 2.696 0 1.475-1.475 3.244z" style="font-style:normal;font-variant:normal;font-weight:400;font-stretch:normal;font-family:saxMono;-inkscape-font-specification:saxMono;text-align:center;text-anchor:middle;stroke-width:.539282"/></g></svg>