<?xml version="1.0" encoding="UTF-8" standalone="no"?>
<svg
   xmlns:dc="http://purl.org/dc/elements/1.1/"
   xmlns:cc="http://creativecommons.org/ns#"
   xmlns:rdf="http://www.w3.org/1999/02/22-rdf-syntax-ns#"
   xmlns:svg="http://www.w3.org/2000/svg"
   xmlns="http://www.w3.org/2000/svg"
   height="64"
   width="64"
   version="1.1"
   id="svg2">
  <metadata
     id="metadata8">
    <rdf:RDF>
      <cc:Work
         rdf:about="">
        <dc:format>image/svg+xml</dc:format>
        <dc:type
           rdf:resource="http://purl.org/dc/dcmitype/StillImage" />
        <dc:title></dc:title>
      </cc:Work>
    </rdf:RDF>
  </metadata>
  <defs
     id="defs6" />
  <rect
     style="fill:#ffffff;fill-opacity:1;stroke:#000000;stroke-width:5.99978;stroke-miterlimit:4;stroke-dasharray:none;stroke-opacity:1"
     id="rect2989-6"
     width="58.000221"
     height="57.999866"
     x="2.9998899"
     y="2.9998899" />
  <g
     transform="translate(-0.0985915)"
     style="font-style:normal;font-weight:normal;font-size:28.8451px;line-height:1.25;font-family:sans-serif;letter-spacing:0px;word-spacing:0px;fill:#000000;fill-opacity:1;stroke:none;stroke-width:0.721129"
     id="text833"
     aria-label="8V">
    <path
       id="path1012"
       style="font-style:normal;font-variant:normal;font-weight:normal;font-stretch:normal;font-family:saxMono;-inkscape-font-specification:saxMono;stroke-width:0.721129"
       d="m 21.218299,31.09859 q -2.605637,-1.281691 -2.605637,-3.943666 0,-2.225354 1.535213,-3.690144 1.535213,-1.464791 3.760568,-1.464791 2.197185,0 3.647891,1.408453 1.450705,1.408452 1.450705,3.605637 0,2.535214 -2.422537,4.056342 3.197186,1.49296 3.197186,5.042259 0,2.661975 -1.591551,4.281695 -1.591551,1.605635 -4.253525,1.605635 -2.605637,0 -4.309864,-1.577466 -1.77465,-1.61972 -1.77465,-4.197188 0,-3.619722 3.366201,-5.126766 z m 2.704228,-0.802817 q 1.450706,0 2.295777,-0.830987 0.859156,-0.845071 0.859156,-2.295777 0,-1.450706 -0.887325,-2.380284 -0.887325,-0.929579 -2.323946,-0.929579 -1.450706,0 -2.394369,0.957748 -0.929578,0.957747 -0.929578,2.422537 0,1.408453 1.000001,2.253524 0.943663,0.802818 2.380284,0.802818 z m -0.01408,1.718311 q -1.845073,0 -2.985919,1.140847 -1.140846,1.126761 -1.140846,2.971834 0,1.845072 1.239438,3.070425 1.253522,1.211269 3.112679,1.211269 1.746481,0 2.760566,-1.211269 0.957748,-1.15493 0.957748,-2.985918 0,-1.802819 -1.05634,-2.971834 -1.098592,-1.225354 -2.887326,-1.225354 z" />
    <path
       id="path1014"
       style="font-style:normal;font-variant:normal;font-weight:normal;font-stretch:normal;font-family:saxMono;-inkscape-font-specification:saxMono;stroke-width:0.721129"
       d="m 39.556346,38.352119 4.957751,-15.563396 q 0.253522,-0.788734 0.915494,-0.788734 0.915494,0 0.915494,0.788734 0,0.267606 -0.09859,0.577465 l -5.788738,18.014103 q -0.197183,0.619719 -0.915494,0.619719 -0.71831,0 -0.915494,-0.619719 L 32.795775,23.366188 q -0.09859,-0.309859 -0.09859,-0.577465 0,-0.788734 0.901409,-0.788734 0.633803,0 0.887325,0.788734 z" />
  </g>
</svg>
