<svg xmlns="http://www.w3.org/2000/svg" width="64" height="64"><path d="M3 3h58v58H3z" style="fill:#fff;fill-opacity:1;stroke:#000;stroke-width:5.99978;stroke-miterlimit:4;stroke-dasharray:none;stroke-opacity:1"/><g aria-label="8V" style="font-style:normal;font-weight:400;font-size:28.8451px;line-height:1.25;font-family:sans-serif;letter-spacing:0;word-spacing:0;fill:#000;fill-opacity:1;stroke:none;stroke-width:.721129"><path d="M21.218 31.099q-2.605-1.282-2.605-3.944 0-2.225 1.535-3.69Q21.683 22 23.908 22q2.198 0 3.648 1.408 1.451 1.409 1.451 3.606 0 2.535-2.422 4.056 3.197 1.493 3.197 5.043 0 2.662-1.592 4.281Q26.6 42 23.937 42q-2.606 0-4.31-1.577-1.775-1.62-1.775-4.198 0-3.62 3.366-5.126zm2.705-.803q1.45 0 2.295-.831.86-.845.86-2.296 0-1.45-.888-2.38-.887-.93-2.324-.93-1.45 0-2.394.958-.93.958-.93 2.422 0 1.409 1 2.254.944.803 2.38.803zm-.015 1.718q-1.845 0-2.985 1.14-1.141 1.128-1.141 2.973t1.24 3.07q1.253 1.211 3.112 1.211 1.746 0 2.76-1.21.958-1.156.958-2.987 0-1.803-1.056-2.972-1.099-1.225-2.888-1.225zM39.556 38.352l4.958-15.563q.254-.789.916-.789.915 0 .915.789 0 .267-.099.577L40.458 41.38q-.197.62-.916.62-.718 0-.915-.62l-5.831-18.014q-.099-.31-.099-.577 0-.789.902-.789.633 0 .887.789z" style="font-style:normal;font-variant:normal;font-weight:400;font-stretch:normal;font-family:saxMono;-inkscape-font-specification:saxMono;stroke-width:.721129" transform="translate(-.099)"/></g></svg>