<svg xmlns="http://www.w3.org/2000/svg" width="64" height="64"><path d="M3 3h58v58H3z" style="fill:#fff;fill-opacity:1;stroke:#000;stroke-width:5.99978;stroke-miterlimit:4;stroke-dasharray:none;stroke-opacity:1"/><g aria-label="4V" style="font-style:normal;font-weight:400;font-size:28.8451px;line-height:1.25;font-family:sans-serif;letter-spacing:0;word-spacing:0;fill:#000;fill-opacity:1;stroke:none;stroke-width:.721129"><path d="M24.965 37.972h-6.437q-.873 0-.873-.648 0-.352.324-1.338l4.155-12.69q.24-.733.324-.873.253-.423.732-.423.873 0 .873.831 0 .197-.14.648l-3.986 12.634h5.028v-7.817q0-1.085.972-1.085.943 0 .943 1.085v7.817h2.014q1.07 0 1.07.93 0 .929-1.07.929H26.88v2.944q0 1.084-.957 1.084-.958 0-.958-1.084zM39.556 38.352l4.958-15.563q.254-.789.916-.789.915 0 .915.789 0 .267-.099.577L40.458 41.38q-.197.62-.916.62-.718 0-.915-.62l-5.831-18.014q-.099-.31-.099-.577 0-.789.902-.789.633 0 .887.789z" style="font-style:normal;font-variant:normal;font-weight:400;font-stretch:normal;font-family:saxMono;-inkscape-font-specification:saxMono;stroke-width:.721129"/></g></svg>